<?xml version="1.0" encoding="utf-8"?>
<!-- Generator: Adobe Illustrator 26.1.0, SVG Export Plug-In . SVG Version: 6.00 Build 0)  -->
<svg version="1.1" id="Layer_3" xmlns="http://www.w3.org/2000/svg" xmlns:xlink="http://www.w3.org/1999/xlink" x="0px" y="0px"
	 viewBox="0 0 500 500" style="enable-background:new 0 0 500 500;" xml:space="preserve">
<style type="text/css">
	.st0{fill:#B8874C;}
	.st1{fill:#ECB7B4;}
	.st2{fill:#B6864C;}
	.st3{fill:#E0B582;}
	.st4{fill:#FFFFFF;}
</style>
<g>
	<path class="st0" d="M309.23,500c-37.32,0-74.63,0-111.95,0c-0.25-0.76-0.97-0.69-1.55-0.86c-3.23-0.99-6.44-2.03-9.68-2.96
		c-1.28-0.36-1.99-1.06-2.45-2.31c-1.25-3.37-2.82-6.59-4.62-9.71c-3.13-5.41-6.87-10.32-11.93-14.07
		c-7.13-5.28-14.9-7.12-23.44-3.82c-1.03,0.4-1.55,0.2-2.04-0.69c-1.15-2.1-2.41-4.14-3.49-6.27c-8.52-16.84-12.18-34.64-10.66-53.5
		c0.63-7.83,2.12-15.47,4.57-22.9c7.31-22.21,20.75-40.07,39.03-54.41c10.77-8.45,22.68-14.89,35.49-19.67
		c13.48-5.03,27.43-7.86,41.78-8.61c7.8-0.41,15.61-0.22,23.4,0.68c9.04,1.04,17.91,2.83,26.57,5.63
		c22.9,7.4,42.52,19.79,57.85,38.52c14.06,17.18,21.93,36.88,23.19,59.08c0.49,8.6-0.26,17.15-2.05,25.59
		c-2.66,12.53-7.55,24.13-14.4,34.92c-1.19,1.87-1.2,1.87-3.22,1.19c-5.9-1.98-11.63-1.49-17.23,1.12
		c-5.83,2.71-10.35,6.98-14.17,12.05c-3.19,4.23-5.85,8.78-7.92,13.66c-0.52,1.22-1.25,2.13-2.42,2.78
		c-2.22,1.22-4.47,2.37-6.81,3.36C310.42,499.09,309.53,499.11,309.23,500z M260.75,478.13c8.62-0.18,16.83-3.4,23.04-10.86
		c4.93-5.92,6.64-12.79,5.18-20.35c-1.33-6.9-5.21-12.23-10.85-16.27c-6.29-4.5-13.34-6.39-21.08-5.89
		c-5.91,0.38-11.3,2.12-16.14,5.53c-6.72,4.73-10.71,11.18-11.29,19.38c-0.53,7.42,2.23,13.84,7.39,19.1
		C243.23,475.1,250.97,478.02,260.75,478.13z M310.06,415.1c-5.27,0-9.71,4.54-9.7,9.92c0.01,5.47,4.5,9.93,9.94,9.89
		c5.34-0.04,9.81-4.49,9.85-9.82C320.2,419.58,315.68,415.1,310.06,415.1z M218.46,424.97c-0.02-5.52-4.38-9.86-9.92-9.87
		c-5.21-0.01-9.9,4.57-9.82,9.84c0.09,6.19,5.06,9.97,9.9,9.97C214.1,434.92,218.48,430.49,218.46,424.97z M202.4,441.41
		c0.02-1.47-0.3-2.05-1.03-2.19c-0.94-0.18-1.41,0.38-1.72,1.17c-0.56,1.43-1.14,2.85-1.69,4.29c-0.25,0.65-0.51,1.31-0.66,1.98
		c-0.14,0.64-0.04,1.29,0.63,1.63c0.73,0.37,1.45,0.18,1.86-0.46C201.13,445.76,201.75,443.39,202.4,441.41z M334.63,441.37
		c0-1.17-0.08-1.96-1.06-2.15c-0.94-0.19-1.41,0.4-1.7,1.19c-0.37,0.98-0.74,1.96-1.11,2.94c-0.42,1.11-0.89,2.2-1.22,3.34
		c-0.19,0.62-0.02,1.29,0.65,1.62c0.73,0.36,1.45,0.15,1.85-0.49C333.36,445.73,333.99,443.37,334.63,441.37z M188.69,448.79
		c0.65,0.02,1.53-0.57,1.89-1.45c0.68-1.68,1.31-3.39,1.9-5.1c0.29-0.84,0.33-1.74-0.7-2.12c-0.97-0.36-1.66,0.21-2.02,1.03
		c-0.82,1.85-1.6,3.72-2.31,5.62C187.1,447.7,187.83,448.77,188.69,448.79z M324.77,442.19c0.14-1.14,0-1.75-0.67-2.05
		c-0.64-0.28-1.26-0.12-1.7,0.43c-0.3,0.38-0.54,0.81-0.73,1.26c-0.62,1.48-1.21,2.97-1.81,4.46c-0.42,1.04-0.19,1.98,0.57,2.36
		c0.65,0.33,1.72,0.03,2.12-0.87C323.43,445.82,324.15,443.78,324.77,442.19z M184.21,442.04c0.03-1.05-0.15-1.64-0.87-1.88
		c-0.8-0.26-1.39,0.11-1.73,0.82c-0.81,1.72-1.6,3.44-2.35,5.18c-0.27,0.63-0.18,1.29,0.46,1.67c0.66,0.4,1.47,0.41,1.93-0.21
		C182.97,445.85,183.55,443.74,184.21,442.04z M316.44,442.04c0.03-1.05-0.15-1.64-0.87-1.88c-0.8-0.26-1.39,0.11-1.73,0.82
		c-0.81,1.72-1.6,3.44-2.35,5.18c-0.27,0.63-0.18,1.29,0.46,1.67c0.66,0.4,1.47,0.41,1.93-0.21
		C315.2,445.85,315.77,443.74,316.44,442.04z"/>
	<path d="M309.23,500c0.3-0.89,1.19-0.91,1.86-1.19c2.34-0.99,4.59-2.14,6.81-3.36c1.17-0.65,1.9-1.56,2.42-2.78
		c2.07-4.88,4.74-9.43,7.92-13.66c3.82-5.07,8.34-9.33,14.17-12.05c5.6-2.61,11.34-3.09,17.23-1.12c2.01,0.67,2.03,0.68,3.22-1.19
		c6.85-10.8,11.74-22.4,14.4-34.92c1.79-8.44,2.54-16.99,2.05-25.59c-1.26-22.21-9.13-41.9-23.19-59.08
		c-15.33-18.74-34.95-31.13-57.85-38.52c-8.66-2.8-17.53-4.59-26.57-5.63c-7.79-0.89-15.6-1.08-23.4-0.68
		c-14.35,0.75-28.3,3.58-41.78,8.61c-12.81,4.78-24.72,11.22-35.49,19.67c-18.28,14.34-31.72,32.2-39.03,54.41
		c-2.45,7.44-3.94,15.07-4.57,22.9c-1.52,18.86,2.14,36.66,10.66,53.5c1.08,2.13,2.34,4.17,3.49,6.27c0.49,0.89,1.01,1.09,2.04,0.69
		c8.54-3.3,16.3-1.47,23.44,3.82c5.06,3.75,8.8,8.66,11.93,14.07c1.8,3.11,3.37,6.34,4.62,9.71c0.46,1.24,1.18,1.94,2.45,2.31
		c3.24,0.93,6.46,1.97,9.68,2.96c0.58,0.18,1.3,0.1,1.55,0.86c-5.07,0-10.14,0-15.21,0c0.09-0.43-0.01-0.84-0.15-1.24
		c-2.2-6.34-5.03-12.37-8.98-17.83c-2.78-3.85-6-7.27-10.12-9.72c-3.9-2.32-8.05-3.54-12.66-3.09c-5.66,0.55-10.29,3.18-14.36,6.93
		c-6.34,5.84-10.52,13.12-13.78,20.99c-0.53,1.27-1.36,2.47-1.21,3.96c-1.27,0-2.53,0-3.8,0c2.78-8.27,6.65-15.96,12.19-22.74
		c2.55-3.12,5.44-5.89,8.82-8.12c1.34-0.89,1.34-0.91,0.47-2.37c-5.63-9.43-9.76-19.48-12.16-30.2
		c-5.35-23.83-2.35-46.69,8.17-68.64c3.39-7.07,7.53-13.68,12.35-19.85c0.76-0.97,0.99-1.78,0.66-3.04
		c-1.76-6.64-2.57-13.4-2.18-20.27c0.34-5.96,1.58-11.72,4.52-16.98c5.45-9.75,13.8-14.27,24.95-13.59
		c7.06,0.43,13.38,3.04,19.34,6.67c2.47,1.5,4.84,3.16,7.02,5.04c0.85,0.73,1.57,0.88,2.65,0.45c9.99-3.91,20.33-6.56,30.93-8.13
		c10.69-1.58,21.43-1.88,32.22-1.09c12.28,0.9,24.22,3.39,35.83,7.42c1.14,0.4,1.87,0.26,2.8-0.53c5.63-4.77,11.81-8.62,18.91-10.82
		c5.54-1.72,11.18-2.3,16.86-0.92c6.84,1.67,11.99,5.7,15.62,11.69c2.93,4.85,4.42,10.16,5.02,15.75
		c0.82,7.58,0.01,15.04-1.88,22.39c-0.37,1.45-0.19,2.45,0.72,3.63c10.73,13.99,17.72,29.65,20.54,47.08
		c3.56,22.03-0.04,43-9.81,62.98c-2.04,4.17-4.4,8.16-6.75,11.8c-0.2,0.58,0.04,0.68,0.19,0.77c5.73,3.61,9.98,8.61,13.49,14.31
		c3.23,5.24,5.56,10.89,7.55,16.69c0.07,0.19,0.03,0.42,0.04,0.63c-1.13,0-2.25,0-3.38,0c-1.63-5.19-3.76-10.15-6.54-14.83
		c-3.16-5.31-6.96-10.07-12.2-13.5c-3.74-2.45-7.83-3.87-12.33-3.64c-7.03,0.35-12.48,3.9-17.21,8.8c-3.6,3.72-6.48,7.96-8.86,12.53
		c-1.79,3.42-3.52,6.88-4.53,10.64C317.12,500,313.18,500,309.23,500z M307.85,306.4c5.71,2.28,10.9,4.79,15.96,7.54
		c0.64,0.35,1.18,0.2,1.8-0.04c1.18-0.45,2.37-0.89,3.6-1.18c3.19-0.74,5.97,0.05,8.26,2.46c2.43,2.55,3.61,5.69,4.11,9.07
		c0.22,1.46,0.85,2.42,1.93,3.31c4.44,3.69,8.48,7.81,12.4,12.04c0.31,0.33,0.47,0.89,1.06,0.88c0.39-0.21,0.37-0.58,0.45-0.92
		c0.73-3.15,1.12-6.35,1.44-9.57c0.58-5.89,0.08-11.66-1.58-17.31c-1.52-5.16-4.12-9.71-8.38-13.13
		c-5.47-4.38-11.82-5.41-18.52-4.33C321.88,296.59,314.71,300.78,307.85,306.4z M198.47,308.27c-0.01-0.54-0.45-0.71-0.76-0.96
		c-2.26-1.8-4.67-3.4-7.21-4.77c-6.54-3.54-13.4-5.86-21-4.94c-5.55,0.67-10.16,3.11-13.78,7.39c-4.6,5.45-6.42,11.95-7.01,18.87
		c-0.36,4.28-0.23,8.59,0.44,12.84c0.34,2.15,0.55,4.36,1.54,6.72c0.51-0.61,0.81-1,1.13-1.37c3-3.46,6.13-6.81,9.65-9.74
		c2.04-1.71,3.24-3.51,3.41-6.32c0.19-3.23,1.17-6.38,3.67-8.76c1.46-1.4,3.14-2,5.21-1.5c1.73,0.41,3.33,1.14,4.93,1.85
		c1.02,0.45,1.79,0.34,2.74-0.24c5.05-3.08,10.27-5.85,15.69-8.22C197.59,308.91,198.19,308.81,198.47,308.27z M176.45,320.18
		c-0.84-0.35-1.6-0.71-2.39-0.98c-2.16-0.74-3.23-0.37-4.4,1.58c-1.05,1.76-1.64,3.68-1.9,5.97c2.56-1.85,4.93-3.56,7.29-5.29
		C175.5,321.14,176.06,320.95,176.45,320.18z M337.82,323.01c-1.32-6.28-5.64-9.12-9.72-6.55
		C331.36,318.47,334.48,320.59,337.82,323.01z"/>
	<path class="st0" d="M120.82,500c-0.15-1.49,0.68-2.69,1.21-3.96c3.26-7.87,7.44-15.15,13.78-20.99c4.07-3.75,8.7-6.37,14.36-6.93
		c4.61-0.45,8.77,0.77,12.66,3.09c4.12,2.45,7.34,5.87,10.12,9.72c3.94,5.46,6.78,11.49,8.98,17.83c0.14,0.4,0.24,0.81,0.15,1.24
		C161.66,500,141.24,500,120.82,500z"/>
	<path class="st0" d="M321.06,500c1.01-3.76,2.74-7.21,4.53-10.64c2.38-4.57,5.27-8.81,8.86-12.53c4.73-4.9,10.18-8.45,17.21-8.8
		c4.51-0.23,8.6,1.19,12.33,3.64c5.23,3.44,9.03,8.19,12.2,13.5c2.78,4.67,4.91,9.64,6.54,14.83C362.18,500,341.62,500,321.06,500z"
		/>
	<path d="M260.75,478.13c-9.79-0.11-17.52-3.03-23.74-9.36c-5.16-5.26-7.92-11.68-7.39-19.1c0.59-8.2,4.57-14.64,11.29-19.38
		c4.84-3.41,10.23-5.15,16.14-5.53c7.74-0.5,14.79,1.39,21.08,5.89c5.64,4.04,9.52,9.37,10.85,16.27
		c1.46,7.55-0.25,14.43-5.18,20.35C277.58,474.72,269.37,477.95,260.75,478.13z M259.28,474.82c7.01-0.07,12.77-1.82,17.84-5.63
		c10.78-8.09,12.12-22.56,3.03-32.43c-10.08-10.95-28.61-11.85-39.76-1.95c-9.18,8.16-10.07,21.39-1.96,30.61
		C244.12,471.89,251.49,474.68,259.28,474.82z"/>
	<path d="M310.06,415.1c5.61,0,10.13,4.47,10.09,10c-0.04,5.33-4.51,9.78-9.85,9.82c-5.44,0.04-9.93-4.42-9.94-9.89
		C300.35,419.65,304.79,415.11,310.06,415.1z M308.16,419.63c-1.59,0-2.85,1.33-2.88,3.03c-0.03,1.57,1.23,2.87,2.77,2.86
		c1.56-0.01,2.85-1.39,2.87-3.06C310.94,420.85,309.74,419.62,308.16,419.63z"/>
	<path d="M218.46,424.97c0.02,5.52-4.36,9.95-9.84,9.95c-4.84-0.01-9.81-3.78-9.9-9.97c-0.07-5.27,4.61-9.85,9.82-9.84
		C214.08,415.11,218.44,419.45,218.46,424.97z M212.89,422.2c-0.02-1.51-1.34-2.8-2.84-2.77c-1.6,0.04-3.08,1.59-3,3.16
		c0.07,1.45,1.28,2.61,2.73,2.64C211.4,425.26,212.91,423.79,212.89,422.2z"/>
	<path class="st1" d="M202.4,441.41c-0.65,1.97-1.26,4.34-2.6,6.42c-0.41,0.64-1.13,0.83-1.86,0.46c-0.67-0.34-0.77-0.99-0.63-1.63
		c0.15-0.68,0.41-1.33,0.66-1.98c0.55-1.43,1.13-2.86,1.69-4.29c0.31-0.79,0.77-1.35,1.72-1.17
		C202.1,439.36,202.41,439.94,202.4,441.41z"/>
	<path class="st1" d="M334.63,441.37c-0.63,1.99-1.27,4.36-2.59,6.44c-0.41,0.64-1.12,0.85-1.85,0.49
		c-0.67-0.33-0.84-0.99-0.65-1.62c0.34-1.13,0.8-2.23,1.22-3.34c0.37-0.98,0.75-1.96,1.11-2.94c0.3-0.79,0.76-1.38,1.7-1.19
		C334.54,439.42,334.63,440.2,334.63,441.37z"/>
	<path class="st1" d="M188.69,448.79c-0.86-0.03-1.58-1.09-1.24-2.02c0.71-1.9,1.48-3.77,2.31-5.62c0.36-0.82,1.05-1.4,2.02-1.03
		c1.03,0.38,0.98,1.28,0.7,2.12c-0.59,1.72-1.22,3.42-1.9,5.1C190.22,448.23,189.33,448.81,188.69,448.79z"/>
	<path class="st1" d="M324.77,442.19c-0.62,1.59-1.34,3.63-2.22,5.6c-0.4,0.9-1.47,1.19-2.12,0.87c-0.76-0.38-0.99-1.32-0.57-2.36
		c0.6-1.49,1.19-2.98,1.81-4.46c0.19-0.44,0.43-0.88,0.73-1.26c0.44-0.55,1.06-0.71,1.7-0.43
		C324.77,440.43,324.91,441.04,324.77,442.19z"/>
	<path class="st1" d="M184.21,442.04c-0.67,1.7-1.24,3.81-2.55,5.59c-0.46,0.62-1.26,0.61-1.93,0.21c-0.64-0.38-0.74-1.04-0.46-1.67
		c0.75-1.74,1.54-3.47,2.35-5.18c0.33-0.71,0.92-1.08,1.73-0.82C184.07,440.39,184.24,440.99,184.21,442.04z"/>
	<path class="st1" d="M316.44,442.04c-0.67,1.7-1.24,3.81-2.55,5.59c-0.46,0.62-1.26,0.61-1.93,0.21c-0.64-0.38-0.74-1.04-0.46-1.67
		c0.75-1.74,1.54-3.47,2.35-5.18c0.33-0.71,0.92-1.08,1.73-0.82C316.29,440.39,316.47,440.99,316.44,442.04z"/>
	<path class="st2" d="M307.85,306.4c6.86-5.61,14.03-9.8,22.52-11.17c6.7-1.08,13.05-0.06,18.52,4.33
		c4.27,3.42,6.86,7.96,8.38,13.13c1.67,5.65,2.16,11.42,1.58,17.31c-0.32,3.22-0.71,6.42-1.44,9.57c-0.08,0.33-0.06,0.71-0.45,0.92
		c-0.59,0.01-0.75-0.55-1.06-0.88c-3.92-4.23-7.95-8.35-12.4-12.04c-1.08-0.89-1.71-1.85-1.93-3.31c-0.5-3.38-1.68-6.52-4.11-9.07
		c-2.29-2.4-5.07-3.19-8.26-2.46c-1.23,0.28-2.42,0.73-3.6,1.18c-0.62,0.24-1.16,0.39-1.8,0.04
		C318.75,311.18,313.56,308.68,307.85,306.4z"/>
	<path class="st2" d="M198.47,308.27c-0.28,0.54-0.87,0.63-1.37,0.85c-5.42,2.38-10.64,5.14-15.69,8.22
		c-0.95,0.58-1.71,0.69-2.74,0.24c-1.6-0.7-3.2-1.43-4.93-1.85c-2.07-0.49-3.74,0.11-5.21,1.5c-2.49,2.38-3.47,5.53-3.67,8.76
		c-0.17,2.8-1.37,4.61-3.41,6.32c-3.51,2.93-6.64,6.28-9.65,9.74c-0.32,0.37-0.62,0.75-1.13,1.37c-0.99-2.36-1.2-4.57-1.54-6.72
		c-0.67-4.26-0.79-8.56-0.44-12.84c0.58-6.92,2.4-13.42,7.01-18.87c3.62-4.28,8.23-6.71,13.78-7.39c7.6-0.92,14.45,1.4,21,4.94
		c2.54,1.37,4.94,2.98,7.21,4.77C198.02,307.57,198.46,307.73,198.47,308.27z"/>
	<path class="st3" d="M176.45,320.18c-0.39,0.76-0.95,0.96-1.39,1.28c-2.36,1.72-4.73,3.43-7.29,5.29c0.26-2.29,0.85-4.21,1.9-5.97
		c1.17-1.95,2.24-2.32,4.4-1.58C174.85,319.47,175.61,319.83,176.45,320.18z"/>
	<path class="st3" d="M337.82,323.01c-3.33-2.42-6.46-4.54-9.72-6.55C332.17,313.88,336.5,316.72,337.82,323.01z"/>
	<path class="st3" d="M259.28,474.82c-7.79-0.14-15.16-2.93-20.85-9.4c-8.11-9.22-7.22-22.45,1.96-30.61
		c11.15-9.91,29.68-9,39.76,1.95c9.09,9.88,7.75,24.34-3.03,32.43C272.05,473,266.29,474.75,259.28,474.82z M259.09,452.99
		c0.83,0.98,1.37,1.98,2.25,2.72c3.12,2.6,8.16,1.06,9.27-2.85c0.26-0.91,0.11-1.74-0.77-2.18c-0.91-0.46-1.6-0.03-2.1,0.82
		c-0.32,0.54-0.68,1.08-1.12,1.52c-1.27,1.25-2.41,1.23-3.67,0c-1.05-1.03-1.48-2.36-1.79-3.75c-0.15-0.69,0.2-1.01,0.8-1.26
		c1.31-0.56,2.43-1.39,3.32-2.53c1.4-1.78,2.52-3.73,3.47-5.77c0.76-1.64,0.38-2.42-1.41-2.98c-1.81-0.57-3.68-0.94-5.56-1.18
		c-3.45-0.44-6.89-0.19-10.26,0.63c-1.65,0.4-2.37,1.63-1.66,2.97c1.62,3.05,3.45,6,6.21,8.17c1.83,1.44,1.93,1.56,0.65,3.56
		c-0.49,0.77-1.03,1.52-1.76,2.09c-0.95,0.76-1.51,0.73-2.43-0.06c-0.73-0.62-1.04-1.47-1.36-2.33c-0.27-0.73-0.88-1.09-1.69-0.92
		c-0.7,0.15-1.07,0.65-1.16,1.34c-0.05,0.34-0.08,0.72,0,1.05c0.49,2.08,1.86,3.47,3.75,4.27c1.78,0.75,3.47,0.29,4.87-1.01
		C257.67,454.63,258.29,453.86,259.09,452.99z"/>
	<path class="st4" d="M308.16,419.63c1.58,0,2.78,1.22,2.76,2.82c-0.02,1.67-1.31,3.05-2.87,3.06c-1.54,0.01-2.8-1.29-2.77-2.86
		C305.31,420.95,306.56,419.63,308.16,419.63z"/>
	<path class="st4" d="M212.89,422.2c0.02,1.58-1.49,3.06-3.11,3.03c-1.45-0.03-2.66-1.19-2.73-2.64c-0.08-1.57,1.4-3.12,3-3.16
		C211.55,419.4,212.87,420.69,212.89,422.2z"/>
	<path d="M259.09,452.99c-0.8,0.87-1.42,1.64-2.13,2.3c-1.41,1.3-3.09,1.77-4.87,1.01c-1.88-0.8-3.26-2.19-3.75-4.27
		c-0.08-0.33-0.05-0.7,0-1.05c0.09-0.69,0.45-1.19,1.16-1.34c0.81-0.17,1.42,0.18,1.69,0.92c0.32,0.87,0.63,1.71,1.36,2.33
		c0.92,0.78,1.47,0.82,2.43,0.06c0.72-0.57,1.26-1.32,1.76-2.09c1.28-2,1.19-2.12-0.65-3.56c-2.77-2.17-4.59-5.12-6.21-8.17
		c-0.71-1.34,0.01-2.57,1.66-2.97c3.38-0.82,6.81-1.07,10.26-0.63c1.88,0.24,3.75,0.61,5.56,1.18c1.79,0.56,2.17,1.34,1.41,2.98
		c-0.95,2.04-2.07,3.99-3.47,5.77c-0.89,1.14-2.01,1.97-3.32,2.53c-0.6,0.25-0.95,0.57-0.8,1.26c0.31,1.39,0.75,2.72,1.79,3.75
		c1.26,1.24,2.4,1.25,3.67,0c0.44-0.44,0.8-0.98,1.12-1.52c0.5-0.84,1.19-1.27,2.1-0.82c0.87,0.44,1.02,1.26,0.77,2.18
		c-1.11,3.91-6.15,5.45-9.27,2.85C260.46,454.97,259.93,453.97,259.09,452.99z"/>
</g>
</svg>
