<?xml version="1.0" encoding="utf-8"?>
<!-- Generator: Adobe Illustrator 26.1.0, SVG Export Plug-In . SVG Version: 6.00 Build 0)  -->
<svg version="1.1" id="Layer_2" xmlns="http://www.w3.org/2000/svg" xmlns:xlink="http://www.w3.org/1999/xlink" x="0px" y="0px"
	 viewBox="0 0 500 500" style="enable-background:new 0 0 500 500;" xml:space="preserve">
<style type="text/css">
	.st0{fill:#F8D5A0;}
	.st1{fill:#EEBAB9;}
	.st2{fill:#FFFFFF;}
</style>
<g>
	<path d="M255.89,193.91c19.26,0.35,37.08,5.37,52.9,16.63c2.12,1.51,4.15,2.54,6.84,2.71c6.6,0.41,11.43,4.26,15.7,8.9
		c4.71,5.13,7.57,11.28,9.38,17.93c2.19,8.06,4.06,16.2,4.72,24.57c0.18,2.27,0.23,4.53,0.22,6.8c-0.03,5.84-2.33,10.75-6.23,14.98
		c-1.56,1.69-3.42,2.94-5.57,3.82c-5.74,2.34-11.64,4.08-17.82,4.74c-1.16,0.12-1.98,0.47-2.62,1.56c-2.36,4.03-5.96,6.8-9.91,9.13
		c-8.78,5.2-18.36,8.08-28.35,9.91c-15.06,2.76-29.63,0.65-44-4c-8.04-2.6-16-5.35-23.25-9.81c-2.36-1.45-4.46-3.14-5.82-5.59
		c-0.54-0.98-1.26-1.32-2.36-1.48c-5.67-0.82-11.19-2.25-16.51-4.43c-7.04-2.88-10.74-8.38-12.19-15.56
		c-0.87-4.32-0.41-8.69,0.1-13.03c1.08-9.13,3.01-18.08,6.06-26.76c1.54-4.4,3.84-8.41,6.86-11.99c4.86-5.77,10.6-9.9,18.46-10.24
		c1.09-0.05,2.04-0.24,2.95-1.08c9.23-8.61,20.37-13.41,32.57-15.96c2.31-0.48,4.65-0.84,6.99-1.11
		C248.62,194.15,252.24,193.83,255.89,193.91z M316.54,290.58c0.97-0.09,1.6-0.08,2.2-0.21c4.08-0.91,8.11-1.94,12.02-3.45
		c6.83-2.64,9.97-7.83,10.52-14.82c0.24-3.08,0-6.17-0.32-9.25c-0.81-7.61-2.54-15.04-4.6-22.39c-1.76-6.31-4.69-12.02-9.35-16.7
		c-3.24-3.25-6.74-6.37-11.6-6.49c-4.26-0.11-7.41-2.15-10.78-4.37c-19.64-12.93-41.21-17.13-64.29-13.25
		c-12.23,2.05-23.3,6.88-32.45,15.54c-0.99,0.94-2.07,1.32-3.43,1.32c-6.87,0-12.1,3.27-16.44,8.32c-3.11,3.63-5.51,7.66-7.04,12.19
		c-2.65,7.85-4.39,15.92-5.49,24.13c-0.5,3.7-0.78,7.43-0.47,11.15c0.5,6.02,3.21,10.81,8.68,13.56c4.06,2.05,8.51,3.13,12.97,4.03
		c0.74,0.15,1.56,0.59,2.38-0.07c-0.05-0.34-0.06-0.7-0.16-1.04c-1.91-5.84-2.58-11.88-2.88-17.97c-0.45-9.11,2.14-17.59,5.42-25.93
		c1.1-2.8,2.45-5.47,4.09-7.99c0.99-1.52,2.08-1.96,3.12-1.42c0.96,0.5,1.32,2.05,0.2,3.33c-0.06,0.07-0.1,0.15-0.14,0.23
		c-5.94,11.41-9.56,23.34-8.08,36.39c0.6,5.33,1.34,10.64,3.82,15.52c1.89,3.72,4.41,6.74,8.23,8.76c6.54,3.47,13.49,5.83,20.5,8.05
		c12.6,4,25.39,6.11,38.65,4.04c10.5-1.64,20.51-4.54,29.76-9.97c6.75-3.96,10.64-9.66,11.97-17.28c0.49-2.78,0.82-5.58,0.82-8.4
		c0.02-11.83-0.61-23.61-2.82-35.26c-0.34-1.77,0.3-3.01,1.58-3.24c1.1-0.19,1.66,0.39,2.14,2.25c0.14,0.53,0.27,1.06,0.38,1.59
		c0.91,4.27,1.58,8.58,1.96,12.92C318.65,266.38,319.91,278.34,316.54,290.58z"/>
	<path class="st0" d="M316.54,290.58c3.37-12.24,2.11-24.2,1.07-36.15c-0.38-4.34-1.05-8.65-1.96-12.92
		c-0.11-0.53-0.24-1.06-0.38-1.59c-0.48-1.86-1.04-2.45-2.14-2.25c-1.29,0.23-1.92,1.46-1.58,3.24c2.22,11.65,2.85,23.43,2.82,35.26
		c-0.01,2.82-0.33,5.61-0.82,8.4c-1.33,7.62-5.22,13.32-11.97,17.28c-9.25,5.43-19.25,8.33-29.76,9.97
		c-13.27,2.07-26.05-0.05-38.65-4.04c-7.01-2.22-13.95-4.59-20.5-8.05c-3.82-2.02-6.33-5.04-8.23-8.76
		c-2.48-4.88-3.22-10.18-3.82-15.52c-1.47-13.05,2.14-24.98,8.08-36.39c0.04-0.08,0.08-0.17,0.14-0.23c1.12-1.27,0.75-2.83-0.2-3.33
		c-1.04-0.54-2.13-0.1-3.12,1.42c-1.64,2.52-2.98,5.2-4.09,7.99c-3.29,8.33-5.87,16.81-5.42,25.93c0.3,6.09,0.97,12.13,2.88,17.97
		c0.11,0.33,0.11,0.7,0.16,1.04c-0.82,0.66-1.64,0.22-2.38,0.07c-4.46-0.91-8.91-1.99-12.97-4.03c-5.47-2.76-8.18-7.55-8.68-13.56
		c-0.31-3.72-0.02-7.45,0.47-11.15c1.1-8.21,2.84-16.27,5.49-24.13c1.53-4.53,3.93-8.56,7.04-12.19c4.34-5.05,9.57-8.32,16.44-8.32
		c1.36,0,2.43-0.38,3.43-1.32c9.14-8.66,20.22-13.49,32.45-15.54c23.08-3.88,44.65,0.32,64.29,13.25c3.37,2.22,6.52,4.26,10.78,4.37
		c4.86,0.13,8.37,3.24,11.6,6.49c4.66,4.68,7.59,10.39,9.35,16.7c2.05,7.35,3.78,14.77,4.6,22.39c0.33,3.08,0.57,6.17,0.32,9.25
		c-0.55,6.99-3.69,12.17-10.52,14.82c-3.92,1.52-7.95,2.55-12.02,3.45C318.13,290.5,317.5,290.49,316.54,290.58z M223.61,272.45
		c-2.35,0.33-4.58,1.04-6.49,2.47c-2.53,1.89-2.25,4.86,0.54,6.35c0.39,0.21,0.83,0.36,1.25,0.5c5.5,1.87,11,1.38,16.49-0.06
		c1.07-0.28,1.86-1.04,2.73-1.7c1.7-1.3,1.45-3.97,0.24-5.35c-0.35-0.4-0.82-0.69-1.23-1.03c0.53-0.61,1.1-1.19,1.6-1.84
		c2.79-3.61,2.88-8.28,0.24-11.86c-2.6-3.52-7.13-4.97-11.09-3.56c-4.34,1.55-6.92,5.52-6.67,10.12
		C221.34,268.77,222.45,270.61,223.61,272.45z M281.31,274.75c-0.41,0.48-0.83,0.96-1.24,1.44c-1.46,1.71-1.34,3.51,0.38,4.96
		c0.98,0.82,2.14,1.35,3.37,1.68c3.65,0.99,7.39,0.71,11.07,0.41c2.11-0.17,4.25-0.88,6.13-2.06c2.82-1.78,2.81-4.77-0.05-6.48
		c-1.33-0.79-2.77-1.48-4.3-1.59c-1.29-0.09-2.47-0.52-3.72-0.71c0.47-0.77,0.99-1.51,1.4-2.32c1.85-3.62,1.29-7.81-1.43-10.87
		c-2.65-2.98-6.73-4.13-10.34-2.9c-3.98,1.35-6.66,4.84-6.84,8.9C275.56,269.58,277.72,272.58,281.31,274.75z M258.02,277.02
		c-0.82-0.06-1.18-0.11-1.54-0.1c-2.64,0.03-3.8,1.58-3.12,4.1c0.34,1.27,1.1,2.28,1.9,3.27c1.37,1.67,1.25,2.72-0.42,4.01
		c-1.97,1.52-3.54,1.31-5.3-0.71c-0.9-1.03-1.92-1.19-2.83-0.43c-0.93,0.77-1.11,2.01-0.4,3.21c0.94,1.59,2.43,2.52,4.19,2.75
		c1.31,0.17,2.16,0.59,2.65,1.86c0.26,0.66,0.75,1.25,1.2,1.81c2.68,3.36,6.05,3.21,8.51-0.37c1.06-1.55,2.1-2.33,3.95-3.01
		c1.77-0.66,3.19-1.77,3.96-3.53c0.5-1.14,0.06-2.35-0.88-2.85c-0.98-0.51-1.75-0.14-2.39,0.64c-0.4,0.49-0.73,1.07-1.2,1.47
		c-1.37,1.15-2.95,0.83-4.53-0.82c-1.33-1.39-1.32-1.63,0.13-3.36c1.06-1.26,2.05-2.56,2.57-4.14c0.92-2.79-0.48-4.47-3.38-4.12
		C259.91,276.81,258.74,276.94,258.02,277.02z"/>
	<path d="M258.02,277.02c0.72-0.08,1.9-0.21,3.07-0.35c2.9-0.35,4.3,1.33,3.38,4.12c-0.52,1.58-1.51,2.88-2.57,4.14
		c-1.45,1.73-1.46,1.97-0.13,3.36c1.58,1.66,3.17,1.97,4.53,0.82c0.48-0.4,0.8-0.98,1.2-1.47c0.64-0.77,1.41-1.15,2.39-0.64
		c0.95,0.5,1.38,1.71,0.88,2.85c-0.77,1.76-2.18,2.87-3.96,3.53c-1.85,0.69-2.89,1.47-3.95,3.01c-2.46,3.58-5.83,3.73-8.51,0.37
		c-0.45-0.57-0.94-1.15-1.2-1.81c-0.49-1.27-1.34-1.68-2.65-1.86c-1.76-0.23-3.25-1.16-4.19-2.75c-0.71-1.2-0.53-2.43,0.4-3.21
		c0.91-0.76,1.93-0.6,2.83,0.43c1.76,2.02,3.32,2.23,5.3,0.71c1.67-1.29,1.79-2.33,0.42-4.01c-0.81-0.99-1.56-2-1.9-3.27
		c-0.68-2.52,0.48-4.07,3.12-4.1C256.83,276.91,257.2,276.96,258.02,277.02z M258.39,295.04c0.65,0.01,1.95-1.64,1.79-2.45
		c-0.18-0.94-0.95-1.49-1.75-1.9c-0.36-0.18-2.15,1.33-2.19,1.77C256.18,293.11,257.78,295.03,258.39,295.04z"/>
	<ellipse class="st1" cx="227.5" cy="277.5" rx="12.5" ry="6.5"/>
	<ellipse class="st1" cx="291.5" cy="278.5" rx="12.5" ry="6.5"/>
	<circle cx="230.5" cy="266" r="10.5"/>
	<circle cx="285.5" cy="266" r="10.5"/>
	<circle class="st2" cx="234" cy="265" r="4"/>
	<circle class="st2" cx="283" cy="265" r="4"/>
	<path class="st1" d="M258.39,295.04c-0.61-0.01-2.21-1.93-2.15-2.58c0.04-0.43,1.83-1.95,2.19-1.77c0.8,0.41,1.57,0.95,1.75,1.9
		C260.34,293.4,259.04,295.05,258.39,295.04z"/>
</g>
</svg>
