<?xml version="1.0" encoding="utf-8"?>
<!-- Generator: Adobe Illustrator 26.1.0, SVG Export Plug-In . SVG Version: 6.00 Build 0)  -->
<svg version="1.1" id="Layer_5" xmlns="http://www.w3.org/2000/svg" xmlns:xlink="http://www.w3.org/1999/xlink" x="0px" y="0px"
	 viewBox="0 0 280 154" style="enable-background:new 0 0 280 154;" xml:space="preserve">
<style type="text/css">
	.st0{fill:#FED003;}
	.st1{fill:#FED210;}
	.st2{fill:#F7E8A3;}
	.st3{fill:#FFFFFF;}
	.st4{fill:#0D0B08;}
	.st5{font-family:'HappyLucky';}
	.st6{font-size:54.8425px;}
</style>
<g>
	<path class="st0" d="M81.1,124.1c-1.8,0-3.6-0.1-5.4-0.1c-0.1-0.2-0.3-0.4-0.4-0.6c-2.5-5.4-7.4-6.7-12.4-3.4
		c-0.4,0.2-0.7,0.8-1.6,0.4c0-0.6,0-1.3,0-2c0-2.6-0.1-5.1,0-7.7c0.1-2.3-1-3.1-3.9-3.4c-2.2-0.2-3.4,0.9-3.5,3.2
		c-0.1,1.7-0.1,3.5-0.2,5.2c-6.5-4.3-11.2-10.2-14.5-17.2C26.9,71.7,43,40.7,72.1,36c17.2-2.8,31.6,3.1,42.6,16.7
		c0.3,0.4,0.5,0.8,0.8,1.3c-0.1,0.6,0.1,1.1,0.8,1.1c1.3,1.7,2.4,3.4,3.1,5.5c-0.6,1.6,0.5,2.8,0.9,4.1c2.1,6.3,2.1,12.7,0.7,19.1
		c-0.8,3.6-2.2,7.1-3.8,10.4c-2.1,4-3.5,8.3-5.2,12.5c-0.1,0.1-0.3,0.1-0.4,0c-0.4,0-0.7,0-1,0.3c-1.6,0.6-2.1,1.8-2.1,3.4
		c0,0.5-0.1,1.1-0.1,1.7c-0.7,0.1-1.4,0.6-2.2,0.5c0-0.6-0.1-1.3-0.1-1.9c0-2.7-0.5-3.3-3.1-3.8c-0.5-0.1-1-0.1-1.4-0.2
		c0-0.4,0-0.7,0-1c0.5-0.8,1.2-1.5,2.1-1.9c1,0,2.1-0.1,2.8-0.8c1.5-1.4,3.3-2.5,4.7-4c0.6-0.7,1.3-1.4,1.3-2.3
		c0-2.9,1.4-5.5,1.7-8.4c0.6-5.2,0.5-10.3-0.7-15.4c-0.1-0.5-0.3-0.7-0.8-0.9c-2-7.2-5.7-13.3-11.5-18.1
		c-13.3-11-32.9-10.4-45.5,2.3c-7.9,8-11.1,17.9-9.2,29.1c2.9,17.4,18,28.2,32.9,28c1.9,0,3.8,0,5.7,0c0.5,0.6,1.1,0.5,1.8,0.3
		c3-0.8,6-1.6,8.7-3.1c0.9-0.5,1.8-0.8,2.8-0.8c0.1,3.5-0.2,6.9-0.4,10.4c-1.4,0.6-2.8,1.1-4.2,1.7c-3.5-3.2-7.6-3-10.9,0.4
		C82.2,122.7,81.7,123.4,81.1,124.1z"/>
	<g>
		<g>
			<path class="st0" d="M108.9,112.7c0.4-0.6,0.7-1.3,0.9-2c0.2-0.9,0.2-1.7,0-2.5c-0.1-0.4-0.4-0.7-0.7-0.9
				c-0.3-0.2-0.8-0.3-1.2-0.1s-0.7,0.3-0.9,0.7c-0.2,0.4-0.2,0.7-0.1,1.2c0,0.1,0,0.1,0,0.2c0-0.1,0-0.3-0.1-0.4
				c0.1,0.4,0.1,0.8,0,1.2c0-0.1,0-0.3,0.1-0.4c-0.1,0.4-0.2,0.8-0.3,1.2c0.1-0.1,0.1-0.2,0.1-0.4c-0.1,0.3-0.3,0.6-0.5,0.8
				c-0.2,0.3-0.2,0.8-0.1,1.2s0.4,0.7,0.7,0.9c0.4,0.2,0.8,0.3,1.2,0.1C108.4,113.3,108.7,113.1,108.9,112.7L108.9,112.7z"/>
		</g>
	</g>
	<g>
		<g>
			<path class="st0" d="M99.9,110.9c0.2-0.1,0.4-0.2,0.6-0.3c0.2-0.1,0.3-0.2,0.4-0.4c0.1-0.1,0.2-0.3,0.3-0.5
				c0.1-0.2,0.1-0.4,0-0.6c0-0.2-0.1-0.4-0.2-0.6c-0.1-0.1-0.2-0.2-0.2-0.3c-0.2-0.2-0.4-0.3-0.7-0.4c-0.1,0-0.3,0-0.4,0
				c-0.3,0-0.5,0.1-0.8,0.2c-0.2,0.1-0.4,0.2-0.6,0.3c-0.2,0.1-0.3,0.2-0.4,0.4c-0.1,0.1-0.2,0.3-0.3,0.5c-0.1,0.2-0.1,0.4,0,0.6
				c0,0.2,0.1,0.4,0.2,0.6c0.1,0.1,0.2,0.2,0.2,0.3c0.2,0.2,0.4,0.3,0.7,0.4c0.1,0,0.3,0,0.4,0C99.5,111.1,99.7,111,99.9,110.9
				L99.9,110.9z"/>
		</g>
	</g>
	<g>
		<g>
			<path class="st0" d="M107.4,113.6c1.9,0,1.9-3,0-3S105.5,113.6,107.4,113.6L107.4,113.6z"/>
		</g>
	</g>
	<g>
		<g>
			<path class="st0" d="M99,118.5c0.4-3,0.3-6-0.1-8.9c-0.1-0.8-1.1-1.3-1.9-1c-0.9,0.3-1.2,1-1.1,1.9c0-0.2,0,0.3,0,0.3
				c0,0.2,0,0.3,0.1,0.5c0,0.4,0.1,0.7,0.1,1.1c0.1,0.7,0.1,1.4,0.1,2c0,1.4-0.1,2.8-0.3,4.2c-0.1,0.8,0.8,1.5,1.5,1.5
				C98.4,120,98.9,119.3,99,118.5L99,118.5z"/>
		</g>
	</g>
	<path class="st1" d="M44.6,131c-0.1,0.2,0,0.8-0.3,1.2c-2.6,3.9-5,8-8,11.6c-1.5,1.8-4,1.3-5.3-0.6c-0.7-1.1-0.9-2.2-0.1-3.3
		c2.5-3.8,5-7.5,7.6-11.2c0.9-1.2,2.2-1.6,3.8-1.1C43.6,128,44.5,129.3,44.6,131z"/>
	<path class="st1" d="M21.2,92.1c2.2,0,3.7,1.1,4,2.7c0.3,1.8-0.7,3.5-2.6,3.9c-4.4,0.9-8.7,1.7-13.1,2.5c-1.7,0.3-3.5-1.2-3.8-2.9
		c-0.3-1.6,0.7-3.3,2.5-3.8c2.3-0.6,4.7-1,7-1.4C17.3,92.8,19.4,92.4,21.2,92.1z"/>
	<path class="st1" d="M152.6,91.9c-0.3-0.1-0.8-0.1-1.2-0.3c-3.7-1.1-7.4-2.2-11.1-3.4c-0.6-0.2-1.1-0.4-1.6-0.7
		c-1.2-0.8-1.8-2.3-1.4-3.7c0.4-1.5,1.7-2.5,3.3-2.4c0.6,0,1.1,0.2,1.7,0.3c3.5,1,6.9,2.1,10.4,3.2c0.6,0.2,1.3,0.4,1.8,0.8
		c1.3,0.8,1.9,2.2,1.5,3.6C155.6,90.9,154.4,91.9,152.6,91.9z"/>
	<path class="st1" d="M29.3,50.3c0.1,2.6-1.9,4.2-4.1,3.7c-1-0.2-1.9-0.7-2.8-1c-2.8-1.1-5.5-2.2-8.3-3.3c-0.7-0.3-1.4-0.6-2-1
		c-1.3-0.9-1.7-2.6-1.1-4c0.5-1.3,1.9-2.1,3.4-2c0.4,0,0.8,0.1,1.2,0.3c3.8,1.5,7.5,3,11.3,4.5C28.2,48.1,29.2,49,29.3,50.3z"/>
	<path class="st1" d="M60.4,22c-0.1,1.2-0.7,2.3-1.9,2.9c-1.2,0.6-2.4,0.5-3.5-0.4c-0.4-0.3-0.7-0.7-1-1.1c-2.2-3.3-4.4-6.6-6.6-9.9
		c-0.3-0.4-0.5-0.9-0.7-1.3c-0.4-1.3,0.1-2.7,1.1-3.6c1.2-0.9,2.7-0.9,3.9-0.1c0.6,0.4,0.9,0.9,1.3,1.5c2.1,3.2,4.2,6.3,6.3,9.5
		C60,20.2,60.4,20.9,60.4,22z"/>
	<path class="st1" d="M104.8,8.4c0,0.2-0.1,0.5-0.1,0.8c-1.1,4-2.2,7.9-3.4,11.9c-0.6,2.1-2.4,3-4.2,2.5c-1.7-0.5-2.8-2-2.3-3.8
		c1.1-4.3,2.3-8.6,3.7-12.8c0.5-1.7,2.2-2.4,3.8-2.1C103.7,5.1,104.8,6.6,104.8,8.4z"/>
	<path class="st1" d="M132.2,47.7c-1.3-0.1-2.3-0.7-2.9-1.9c-0.6-1.2-0.5-2.4,0.4-3.5c0.3-0.3,0.6-0.6,0.9-0.8
		c3.3-2.3,6.7-4.5,10.1-6.8c0.6-0.4,1.1-0.7,1.8-0.8c1.4-0.2,2.6,0.5,3.3,1.7c0.7,1.2,0.6,2.6-0.3,3.7c-0.4,0.4-0.8,0.8-1.3,1.1
		c-3.1,2.1-6.3,4.2-9.4,6.4C133.9,47.3,133.2,47.7,132.2,47.7z"/>
	<path class="st1" d="M114.4,107.1c-0.8-0.2-1.7-0.3-2.5-0.5c1.7-4.2,3.2-8.4,5.2-12.5c1.7-3.3,3.1-6.7,3.8-10.4
		c1.4-6.5,1.4-12.8-0.7-19.1c-0.4-1.3-1.5-2.6-0.9-4.1c1.5,2.1,2.2,4.6,2.9,7c3.5,13.2,1.4,25.5-6,36.9
		C115.5,105.4,115,106.2,114.4,107.1z"/>
	<path class="st1" d="M106,114.9c-0.1-0.8-0.1-1.5,0-2.3c0.8,0.1,1.4-0.4,2.2-0.5c0.1,0.5,0.1,1,0,1.5
		C107.5,114,106.8,114.4,106,114.9z"/>
	<path class="st1" d="M116.2,55.1c-0.7-0.1-0.9-0.5-0.8-1.1C115.9,54.2,116.2,54.6,116.2,55.1z"/>
	<circle class="st0" cx="80" cy="80" r="46"/>
	<path class="st2" d="M103.5,103.7c-0.9,0.5-1.5,1.1-2.1,1.9c-0.9,0.2-1.6,0.8-1.9,1.6l0.1-0.1c-0.3,0-0.5,0.2-0.6,0.5l0,0
		c-0.6,0-1.1,0.3-1.6,0.6c-1.9,1.3-3.9,2.1-6,3c-2.1,0.9-4.3,1-6.4,1.9c-1.9,0-3.8,0-5.7,0c-14.9,0.2-30.1-10.6-32.9-28
		c-1.8-11.1,1.3-21,9.2-29.1c12.5-12.7,32.2-13.3,45.5-2.3c5.8,4.8,9.4,10.9,11.5,18.1c0,0.3-0.1,0.7,0,1c1.8,8.1,0.4,15.6-3.3,22.9
		C107.8,98.7,105.6,101.1,103.5,103.7z M96.6,80.2c0-2.3-2-4.2-4.3-4.2c-2.3,0-4.2,2-4.2,4.3c0,2.3,2,4.2,4.3,4.2
		C94.8,84.4,96.6,82.5,96.6,80.2z M68,76.3c-2.3,0-4.2,1.9-4.2,4.2c0,2.3,2,4.2,4.3,4.2c2.3,0,4.2-1.9,4.2-4.3
		C72.2,78.1,70.3,76.3,68,76.3z M80.6,90.5c0.8,0,1.9-0.1,3-0.5c1.9-0.7,3.3-1.8,4.2-3.6c0.3-0.6,0.2-1.3-0.4-1.8
		c-0.6-0.4-1.2-0.3-1.8,0.2c-0.2,0.2-0.3,0.4-0.4,0.6c-2.6,2.9-6.8,3.1-9.7,0.6c-0.4-0.3-0.7-0.8-1.1-1c-0.5-0.4-1.1-0.4-1.6,0
		c-0.6,0.5-0.7,1.1-0.3,1.8c0.4,0.5,0.8,1.1,1.3,1.5C75.7,89.8,77.9,90.5,80.6,90.5z"/>
	<circle class="st2" cx="80" cy="80.5" r="34.5"/>
	<path class="st1" d="M111.5,106.7c-0.3,0.3-0.6,0.4-1,0.3C110.7,106.7,111.1,106.6,111.5,106.7z"/>
	<path class="st3" d="M230.1,126.6c0,1.6-0.4,3.1-1.1,4.5c-0.3,0.6-0.7,1.1-1.3,1.4c-1.2,0.6-2.5-0.1-2.3-1.4
		c0.2-2.1,0.7-4.2,1.7-6.1c0.4-0.8,0.9-1.7,2-1.5c1.2,0.2,1,1.3,1.1,2.2C230.1,125.9,230.1,126.2,230.1,126.6z"/>
	<path class="st4" d="M96.6,80.2c0,2.4-1.8,4.2-4.2,4.3c-2.3,0-4.3-1.9-4.3-4.2c0-2.3,1.9-4.3,4.2-4.3
		C94.6,75.9,96.6,77.9,96.6,80.2z"/>
	<path class="st4" d="M68,76.3c2.4,0,4.2,1.8,4.3,4.2c0,2.3-1.9,4.3-4.2,4.3c-2.3,0-4.3-1.9-4.3-4.2C63.7,78.2,65.6,76.3,68,76.3z"
		/>
	<path class="st4" d="M80.6,90.5c-2.8,0-4.9-0.7-6.8-2.3c-0.5-0.4-0.9-0.9-1.3-1.5c-0.4-0.6-0.3-1.3,0.3-1.8c0.5-0.4,1.1-0.4,1.6,0
		c0.4,0.3,0.7,0.7,1.1,1c2.9,2.6,7.1,2.3,9.7-0.6c0.2-0.2,0.3-0.4,0.4-0.6c0.5-0.6,1.1-0.7,1.8-0.2c0.6,0.4,0.7,1.1,0.4,1.8
		c-0.9,1.8-2.4,2.9-4.2,3.5C82.6,90.3,81.4,90.4,80.6,90.5z"/>
</g>
<g id="Layer_6">
	<text transform="matrix(1 0 0 1 53.7861 144.6211)" class="st5 st6">hellostickers</text>
</g>
</svg>
