<?xml version="1.0" encoding="utf-8"?>
<!-- Generator: Adobe Illustrator 26.1.0, SVG Export Plug-In . SVG Version: 6.00 Build 0)  -->
<svg version="1.1" id="Layer_6" xmlns="http://www.w3.org/2000/svg" xmlns:xlink="http://www.w3.org/1999/xlink" x="0px" y="0px"
	 viewBox="0 0 500 500" style="enable-background:new 0 0 500 500;" xml:space="preserve">
<style type="text/css">
	.st0{fill:none;stroke:url(#SVGID_1_);stroke-width:4;stroke-linecap:round;stroke-linejoin:round;stroke-miterlimit:10;}
</style>
<linearGradient id="SVGID_1_" gradientUnits="userSpaceOnUse" x1="164.294" y1="250" x2="335.706" y2="250">
	<stop  offset="0" style="stop-color:#919CBE"/>
	<stop  offset="1" style="stop-color:#BE6457"/>
</linearGradient>
<path class="st0" d="M309.37,287.86c5.1-4.88,8.11-11.89,8.14-18.95c1.15,4.12,2.3,8.23,3.45,12.35c8.04-9.67,7.7-23.57,6.95-36.12
	c1.93,0.29,3.86,0.57,5.8,0.86c-0.47-5.57-4.1-10.77-9.16-13.14c2.72-3.54,5.43-7.08,8.15-10.62c-6.03,1.57-12.74,0.26-17.75-3.45
	c-3.25-2.41-6.59-5.99-10.53-5.06c3.78-2.73,7.58-5.44,11.39-8.14c-12.7-2.89-26.77,1.3-36.64,9.97
	c-2.95-10.23-12.73-17.34-23.04-19.98c-10.31-2.64-21.17-1.55-31.72-0.17c-10.55,1.38-21.26,3.02-31.78,1.44
	c-0.03,5.38,3.54,10.61,7.36,15.15c-13.26,4.75-23.11,17.84-24.01,31.9c-0.33,5.15,0.44,10.38-0.48,15.46
	c-0.91,5.08-4.14,10.29-9.2,11.3c3.97,2.79,10.58,0.75,13.41,4.69c0.86,1.2,1.13,2.71,1.32,4.17c1.08,8.38,0.2,17-2,26.5
	c4.59-1.07,8.69-4.1,11.06-8.17c1.5,2.98,3.64,5.62,6.25,7.7c1.05-4.57,1.59-9.26,1.61-13.96c1.78,2.3,3.74,4.47,5.85,6.48
	c-2.25-11.61,4.62-24.33,15.59-28.66c14.33,0.32,28.66-6.35,38.17-17.76c-1.52,7.56-3.03,15.13-4.55,22.69
	c14.01-7.04,24.35-20.96,27.54-35.39c4.74,5.75,10.43,10.72,16.76,14.66c0.8,0.5,1.63,1,2.22,1.74c0.72,0.9,1,2.07,1.23,3.19
	c1.87,8.99,1.97,18.34-0.06,27.3"/>
</svg>
