<?xml version="1.0" encoding="utf-8"?>
<!-- Generator: Adobe Illustrator 26.1.0, SVG Export Plug-In . SVG Version: 6.00 Build 0)  -->
<svg version="1.1" id="Layer_2" xmlns="http://www.w3.org/2000/svg" xmlns:xlink="http://www.w3.org/1999/xlink" x="0px" y="0px"
	 viewBox="0 0 500 500" style="enable-background:new 0 0 500 500;" xml:space="preserve">
<style type="text/css">
	.st0{fill:#292628;}
	.st1{fill:#2A2825;}
	.st2{fill:#BE84ED;}
	.st3{fill:#BD84EC;}
	.st4{fill:#F8DF46;}
</style>
<g>
	<path class="st0" d="M318.96,176.37c31.55,0.12,62.2,5.59,92.11,15.44c7.44,2.45,14.77,5.19,22.02,8.13
		c2.57,1.04,5.03,2.31,7.27,3.95c3.02,2.22,4.6,5.04,3.78,8.95c-1.38,6.59-3.65,12.84-6.82,18.77c-1.78,3.34-4.82,4.65-8.43,4.66
		c-3.17,0.01-6.29-0.55-9.2-1.83c-23.34-10.24-47.43-18.16-72.33-23.62c-11.86-2.6-23.83-4.58-35.9-5.9
		c-12.7-1.39-25.44-2.05-38.21-1.66c-21.47,0.65-42.52,3.71-62.7,11.47c-9.21,3.54-17.92,8.06-25.91,13.89
		c-1.66,1.21-2.72,1.31-3.44,0.38c-0.7-0.9-0.4-1.99,1.06-3.37c7.38-7,15.35-13.27,23.91-18.76c18.16-11.65,37.88-19.55,58.83-24.46
		c13.43-3.15,27.03-5,40.81-5.67C310.2,176.53,314.58,176.42,318.96,176.37z M204.37,213.29c0.58-0.2,1.16-0.37,1.73-0.6
		c6.04-2.51,12.23-4.58,18.54-6.28c17.02-4.6,34.41-6.47,51.99-6.79c7.61-0.14,15.21,0.2,22.82,0.69
		c9.14,0.58,18.22,1.61,27.26,3.01c19.4,3.01,38.42,7.61,57.09,13.67c11.84,3.84,23.48,8.23,34.92,13.14
		c3.19,1.37,6.41,2.55,9.96,2.57c2.84,0.02,4.81-1.09,6.08-3.69c1.89-3.88,3.46-7.88,4.71-12c0.49-1.62,0.92-3.25,1.3-4.9
		c0.49-2.08-0.17-3.74-1.88-5.07c-1.72-1.33-3.57-2.42-5.57-3.22c-4.35-1.74-8.71-3.45-13.11-5.07
		c-28.75-10.56-58.38-17.04-88.99-18.53c-19.25-0.94-38.41,0.2-57.37,3.93c-19.43,3.82-37.98,10.09-55.4,19.58
		c-5.13,2.79-10.16,5.76-14.85,9.26c-0.78,0.3-1.4,0.81-1.91,1.46c0.69-0.16,1.32-0.41,1.94-0.69
		C203.88,213.65,204.11,213.45,204.37,213.29z"/>
	<path class="st0" d="M251.14,215.78c24.85,0.21,48.03,4.49,70.63,12.07c18.06,6.06,35.22,14.03,51.43,24.05
		c2.81,1.74,5.54,3.59,7.82,6.04c2.73,2.93,3.45,6.24,2.22,10.02c-1.75,5.39-4.98,9.84-8.87,13.85c-2.42,2.5-5.44,2.61-8.58,1.86
		c-2.49-0.6-4.72-1.79-6.83-3.24c-21.53-14.74-44.48-26.71-69.07-35.49c-14.28-5.1-28.9-8.95-43.91-11.17
		c-9.52-1.41-19.1-2.17-28.73-1.85c-10.95,0.37-21.74,1.82-32.16,5.37c-1.88,0.64-2.76,0.46-3.26-0.52c-0.55-1.1,0-2.39,1.56-3.42
		c7.11-4.67,14.76-8.18,22.83-10.82c9.98-3.26,20.23-5.16,30.68-6.06C241.96,216.03,247.03,215.92,251.14,215.78z M196.85,230.39
		c0.38-0.02,0.76,0.01,1.13-0.06c10.95-2.04,21.99-2.37,33.07-1.7c13.46,0.82,26.68,3.18,39.7,6.65
		c27.53,7.33,53.18,18.98,77.39,33.89c5.04,3.1,9.94,6.41,14.93,9.59c1.72,1.09,3.62,1.65,5.67,1.68c1.12,0.02,2.15-0.22,2.96-1.03
		c3.8-3.8,6.85-8.1,8.47-13.27c0.63-2.01,0.21-3.93-1.3-5.56c-1.32-1.42-2.77-2.65-4.4-3.69c-19.49-12.43-40.34-21.86-62.52-28.39
		c-15-4.42-30.29-7.38-45.88-8.59c-7.97-0.62-15.95-0.73-23.96-0.26c-10.78,0.65-21.38,2.24-31.74,5.29
		C205.76,226.3,201.21,227.91,196.85,230.39z"/>
	<path class="st1" d="M176.88,211.33c0.01,5.67-1.33,11.12-2.61,16.59c-1.05,4.49-2.09,8.98-3.23,13.44
		c-0.24,0.93,0.01,1.39,0.67,1.94c7.71,6.42,13.69,14.3,19.04,22.69c1.16,1.82,2.16,3.72,2.77,5.8c1.07,3.65-0.03,6.27-3.43,8.04
		c-2.29,1.19-4.8,1.57-7.33,1.82c-8.19,0.79-16.39,1.38-24.61,1.7c-2.99,0.12-4.74,0.9-5.85,4.04c-2.3,6.52-5.59,12.63-9.39,18.44
		c-2.46,3.76-5.3,7.17-8.85,9.94c-0.61,0.47-1.21,0.95-1.86,1.36c-4.09,2.6-7.85,2.14-11.2-1.38c-2.04-2.14-3.38-4.75-4.7-7.35
		c-1.96-3.85-3.16-7.99-4.58-12.05c-1.39-3.99-2.74-7.99-4.14-11.97c-0.8-2.27-0.47-2.06-2.86-2.04c-8.72,0.07-17.34-0.72-25.8-2.95
		c-2.77-0.73-5.35-1.88-7.85-3.25c-1.28-0.71-2.46-1.55-3.52-2.59c-2.7-2.64-3.44-5.64-2.07-9.24c1.15-3.01,2.96-5.52,5.07-7.9
		c4.93-5.56,10.82-10.02,16.61-14.59c1.69-1.33,3.35-2.7,5.12-3.94c1.22-0.86,1.57-1.67,1.18-3.24c-2.11-8.61-3.44-17.33-3.17-26.24
		c0.08-2.54,0.23-5.07,1.02-7.51c1.27-3.89,3.75-5.78,7.83-5.93c2.51-0.09,4.87,0.6,7.15,1.54c4.49,1.86,8.62,4.38,12.72,6.95
		c3.84,2.41,7.74,4.73,11.5,7.25c1.36,0.91,2.2,0.71,3.43-0.16c8.12-5.7,16.98-9.85,26.64-12.21c2.4-0.59,4.82-0.91,7.3-0.83
		c4.04,0.13,6.54,2.28,8,5.88C176.92,205.94,176.87,208.64,176.88,211.33z M173.29,212.36c0.1-2.36,0.06-4.21-0.26-6.03
		c-0.68-3.83-2.94-5.58-6.8-5.28c-1.92,0.15-3.81,0.48-5.67,0.98c-9.36,2.52-18.05,6.52-26.01,12.04c-1.83,1.27-3.35,1.34-5.24,0.09
		c-4.42-2.93-8.94-5.7-13.46-8.48c-3.6-2.22-7.22-4.41-11.17-5.96c-1.86-0.73-3.78-1.31-5.83-1.15c-2.06,0.16-3.46,1.15-4.08,3.15
		c-0.34,1.1-0.6,2.22-0.7,3.38c-0.88,10.47,0.71,20.69,3.03,30.84c0.47,2.08,0.58,2.14-1.11,3.5c-1.92,1.54-3.87,3.03-5.81,4.55
		c-6.05,4.75-12.22,9.35-17.31,15.18c-1.17,1.33-2.31,2.68-3.13,4.26c-2.32,4.54-1.63,6.91,2.81,9.48c3.01,1.75,6.24,2.95,9.65,3.66
		c8.15,1.69,16.39,2.62,24.72,2.51c2.16-0.03,2.52,0.23,3.29,2.15c0.37,0.93,0.69,1.87,1.02,2.82c2,5.81,3.98,11.63,6,17.43
		c1.35,3.86,3.04,7.57,5.5,10.86c2.58,3.46,5,3.78,8.43,1.2c2.16-1.62,4.18-3.41,5.82-5.57c5.86-7.71,10.26-16.22,13.71-25.23
		c0.59-1.55,1.41-2.26,2.93-2.42c1.6-0.17,3.2-0.43,4.81-0.53c5.44-0.36,10.9-0.63,16.34-1.01c3.07-0.21,6.12-0.54,9.18-0.86
		c1.61-0.17,3.19-0.51,4.63-1.3c1.67-0.92,2.04-1.76,1.58-3.6c-0.34-1.35-0.89-2.63-1.63-3.8c-5.65-9.02-11.84-17.61-20.15-24.44
		c-1.09-0.89-1.5-1.77-1.09-3.18c1.32-4.42,2.24-8.94,3.26-13.43C171.79,222.78,173.22,217.43,173.29,212.36z"/>
	<path class="st0" d="M209.09,238.63c16.04,0.09,31.38,3.65,46.23,9.52c17.16,6.78,32.7,16.29,46.84,28.11
		c0.77,0.64,1.5,1.32,2.2,2.04c3.46,3.56,3.87,8.27,0.76,12.11c-2.74,3.38-6.07,5.9-10.82,5.51c-2.64-0.22-4.85-1.38-6.84-3.03
		c-5.26-4.38-10.53-8.74-16.05-12.79c-15.24-11.18-31.34-20.84-48.99-27.75c-8.54-3.34-17.28-5.92-26.44-6.92
		c-2.99-0.32-5.98-0.38-8.98-0.24c-0.54,0.02-1.08,0.07-1.61,0.03c-0.9-0.07-1.37-0.68-1.52-1.49c-0.14-0.76,0.25-1.38,0.91-1.71
		c0.54-0.27,1.15-0.41,1.74-0.57C193.89,239.45,201.42,238.53,209.09,238.63z M202.55,242.65c3.03,0.76,6.08,1.44,9.08,2.3
		c14.8,4.24,28.52,10.91,41.67,18.79c12.55,7.52,24.35,16.09,35.43,25.66c1.4,1.21,2.87,2.35,4.72,2.78
		c3.8,0.88,9.16-2.41,10.14-6.2c0.34-1.31,0.21-2.6-0.55-3.77c-0.59-0.91-1.32-1.69-2.15-2.39c-2.48-2.06-4.96-4.13-7.53-6.07
		c-12.83-9.69-26.66-17.57-41.73-23.21c-11.71-4.38-23.75-7.36-36.26-8.14C211.1,242.13,206.83,242.03,202.55,242.65z"/>
	<path class="st2" d="M203.58,213c4.69-3.5,9.72-6.46,14.85-9.26c17.42-9.49,35.96-15.76,55.4-19.58
		c18.97-3.72,38.12-4.87,57.37-3.93c30.62,1.5,60.24,7.97,88.99,18.53c4.4,1.62,8.76,3.33,13.11,5.07c2,0.8,3.85,1.89,5.57,3.22
		c1.71,1.33,2.37,2.98,1.88,5.07c-0.39,1.64-0.82,3.28-1.3,4.9c-1.24,4.13-2.81,8.12-4.71,12c-1.27,2.6-3.23,3.7-6.08,3.69
		c-3.56-0.02-6.78-1.21-9.96-2.57c-11.44-4.91-23.08-9.3-34.92-13.14c-18.67-6.06-37.69-10.66-57.09-13.67
		c-9.04-1.4-18.12-2.43-27.26-3.01c-7.6-0.49-15.2-0.83-22.82-0.69c-17.58,0.32-34.96,2.19-51.99,6.79
		c-6.31,1.7-12.5,3.77-18.54,6.28c-0.56,0.23-1.15,0.4-1.73,0.6C204.06,213.31,203.78,213.27,203.58,213z"/>
	<path class="st3" d="M203.58,213c0.19,0.28,0.48,0.31,0.78,0.29c-0.25,0.16-0.49,0.36-0.76,0.48c-0.62,0.28-1.25,0.52-1.94,0.69
		C202.18,213.8,202.8,213.3,203.58,213z"/>
	<path class="st3" d="M196.85,230.39c4.36-2.48,8.91-4.09,13.54-5.45c10.36-3.04,20.96-4.64,31.74-5.29
		c8-0.48,15.99-0.36,23.96,0.26c15.59,1.21,30.87,4.17,45.88,8.59c22.17,6.53,43.03,15.96,62.52,28.39c1.63,1.04,3.08,2.27,4.4,3.69
		c1.51,1.64,1.93,3.55,1.3,5.56c-1.62,5.17-4.67,9.47-8.47,13.27c-0.81,0.81-1.83,1.05-2.96,1.03c-2.05-0.03-3.96-0.59-5.67-1.68
		c-4.99-3.18-9.9-6.49-14.93-9.59c-24.21-14.9-49.86-26.56-77.39-33.89c-13.03-3.47-26.24-5.83-39.7-6.65
		c-11.08-0.68-22.12-0.34-33.07,1.7C197.61,230.4,197.23,230.37,196.85,230.39z"/>
	<path class="st4" d="M173.29,212.36c-0.07,5.07-1.5,10.43-2.73,15.82c-1.02,4.49-1.95,9.01-3.26,13.43c-0.42,1.41,0,2.29,1.09,3.18
		c8.3,6.83,14.5,15.42,20.15,24.44c0.73,1.17,1.29,2.45,1.63,3.8c0.46,1.84,0.09,2.68-1.58,3.6c-1.44,0.79-3.02,1.13-4.63,1.3
		c-3.06,0.32-6.12,0.65-9.18,0.86c-5.44,0.38-10.89,0.65-16.34,1.01c-1.61,0.11-3.21,0.36-4.81,0.53c-1.52,0.16-2.34,0.87-2.93,2.42
		c-3.45,9.01-7.86,17.52-13.71,25.23c-1.64,2.16-3.66,3.95-5.82,5.57c-3.43,2.58-5.85,2.26-8.43-1.2c-2.45-3.29-4.15-7-5.5-10.86
		c-2.02-5.8-4-11.62-6-17.43c-0.33-0.94-0.65-1.89-1.02-2.82c-0.77-1.92-1.13-2.17-3.29-2.15c-8.34,0.11-16.57-0.82-24.72-2.51
		c-3.41-0.71-6.64-1.91-9.65-3.66c-4.43-2.58-5.13-4.95-2.81-9.48c0.81-1.59,1.96-2.93,3.13-4.26c5.1-5.83,11.27-10.43,17.31-15.18
		c1.93-1.52,3.89-3.02,5.81-4.55c1.69-1.36,1.59-1.42,1.11-3.5c-2.32-10.15-3.91-20.38-3.03-30.84c0.1-1.16,0.36-2.28,0.7-3.38
		c0.62-2,2.02-2.99,4.08-3.15c2.05-0.16,3.96,0.41,5.83,1.15c3.95,1.56,7.57,3.74,11.17,5.96c4.51,2.78,9.04,5.55,13.46,8.48
		c1.9,1.26,3.41,1.18,5.24-0.09c7.96-5.52,16.65-9.52,26.01-12.04c1.86-0.5,3.75-0.83,5.67-0.98c3.86-0.3,6.12,1.45,6.8,5.28
		C173.36,208.15,173.39,209.99,173.29,212.36z"/>
	<path class="st3" d="M202.55,242.65c4.28-0.62,8.55-0.52,12.8-0.26c12.52,0.78,24.55,3.76,36.26,8.14
		c15.08,5.64,28.91,13.52,41.73,23.21c2.58,1.95,5.05,4.01,7.53,6.07c0.83,0.69,1.57,1.48,2.15,2.39c0.75,1.17,0.89,2.46,0.55,3.77
		c-0.98,3.79-6.34,7.07-10.14,6.2c-1.85-0.43-3.32-1.57-4.72-2.78c-11.07-9.57-22.87-18.14-35.43-25.66
		c-13.15-7.88-26.87-14.55-41.67-18.79C208.63,244.1,205.58,243.42,202.55,242.65z"/>
</g>
</svg>
