<?xml version="1.0" encoding="utf-8"?>
<!-- Generator: Adobe Illustrator 26.1.0, SVG Export Plug-In . SVG Version: 6.00 Build 0)  -->
<svg version="1.1" id="Layer_3" xmlns="http://www.w3.org/2000/svg" xmlns:xlink="http://www.w3.org/1999/xlink" x="0px" y="0px"
	 viewBox="0 0 500 500" style="enable-background:new 0 0 500 500;" xml:space="preserve">
<style type="text/css">
	.st0{fill:none;stroke:url(#SVGID_1_);stroke-width:4;stroke-linecap:round;stroke-linejoin:round;stroke-miterlimit:10;}
</style>
<linearGradient id="SVGID_1_" gradientUnits="userSpaceOnUse" x1="132.308" y1="237.6747" x2="392.4628" y2="237.6747">
	<stop  offset="0" style="stop-color:#919CBE"/>
	<stop  offset="1" style="stop-color:#BE6457"/>
</linearGradient>
<path class="st0" d="M330.96,264.95c4.62,5.89,11.87,9.44,19.3,10.26s15.02-0.94,21.74-4.23c-2.7-0.34-5.28-1.55-7.27-3.42
	c6.96-0.75,13.66-3.8,18.79-8.56c-1.82-0.48-3.63-0.95-5.45-1.43c4.57-4.46,8.54-9.53,11.77-15.04c0.36-0.62,0.73-1.32,0.57-2.02
	c-0.12-0.54-0.53-0.96-0.93-1.35c-2.34-2.31-4.68-4.62-6.47-7.19c3.09-2.17,5.06-5.87,5.13-9.65c-4.24,0.05-8.48-1.24-12.98-5.05
	c1.26-1.44,2.52-2.88,3.79-4.32c-7.74-0.34-15.49-0.26-23.6-0.49c2.12-2.97,4.24-5.93,6.36-8.9c-6.21-0.89-12.81,1.57-17.66,7.11
	c-1.8-2.05-2.47-5.03-1.74-7.65c-3.46,3.88-7.21,7.5-12.44,11.44c-0.82-1.72-1.63-3.43-2.45-5.15c-6.8,8.68-8.9,20.82-5.48,31.88
	c-3.27,0.59-6.37,2.13-8.8,4.39c-4.65-3.68-10.42-5.65-16.17-7.09c-25.03-6.27-52.24-3.4-76.81,7.38c-1.36-2.92-3.74-5.35-6.63-6.78
	c2.57-12.79-1.4-26.72-10.34-36.22c1.24,2.86,0.53,6.45-2.22,9.4c-1.62-5.3-6.28-9.33-11.53-11.09c-5.25-1.76-11.02-1.47-16.4-0.16
	c-0.68,0.17-1.54,0.67-1.28,1.32c0.09,0.22,0.29,0.38,0.48,0.52c2.03,1.48,4.07,2.96,5.54,5.59c-4.88-0.33-9.83-0.47-14.61,0.55
	c-4.78,1.02-9.44,3.31-12.49,7.13c1.21,0,2.47,0.03,3.52,0.63c1.04,0.6,1.73,2,1.15,3.05c-0.23,0.41-0.61,0.71-0.98,0.99
	c-5.07,3.75-11.63,5.42-17.88,4.56c3.07,4.84,8.21,8.31,13.85,9.35c-5.77-0.38-11.66,1.99-16.01,6.6
	c7.15,7.88,15.41,16.33,26.03,16.96c-3.35,1.13-6.85,1.85-10.37,2.15c6.18,5.47,15.08,7.7,23.11,5.78c-2,1.12-3.99,2.25-5.99,3.37
	c6.03,2.62,13.04,2.26,19.32,0.27c6.27-1.99,11.94-5.49,17.45-9.09"/>
</svg>
