<?xml version="1.0" encoding="utf-8"?>
<!-- Generator: Adobe Illustrator 26.1.0, SVG Export Plug-In . SVG Version: 6.00 Build 0)  -->
<svg version="1.1" id="Layer_5" xmlns="http://www.w3.org/2000/svg" xmlns:xlink="http://www.w3.org/1999/xlink" x="0px" y="0px"
	 viewBox="0 0 500 500" style="enable-background:new 0 0 500 500;" xml:space="preserve">
<style type="text/css">
	.st0{fill:none;stroke:url(#SVGID_1_);stroke-width:4;stroke-linecap:round;stroke-linejoin:round;stroke-miterlimit:10;}
	
		.st1{fill:none;stroke:url(#SVGID_00000118362219745174306350000012722320696770385071_);stroke-width:4;stroke-linecap:round;stroke-linejoin:round;stroke-miterlimit:10;}
</style>
<linearGradient id="SVGID_1_" gradientUnits="userSpaceOnUse" x1="217.7579" y1="268.1726" x2="267.3454" y2="268.1726">
	<stop  offset="0" style="stop-color:#919CBE"/>
	<stop  offset="1" style="stop-color:#BE6457"/>
</linearGradient>
<path class="st0" d="M225.6,259.44c-3.73,8.79-5.73,18.31-5.84,27.86c-0.04,3.41,0.32,7.2,2.84,9.5c1.64,1.5,3.89,2.07,6.06,2.52
	c3.85,0.8,7.75,1.36,11.67,1.69c3.77,0.31,7.64,0.4,11.25-0.73c5.86-1.83,10.48-6.83,12.48-12.64c2-5.81,1.54-12.3-0.61-18.06
	c-2.17-5.81-5.94-10.88-8.34-16.59c-2.36-5.62-3.35-11.81-2.86-17.89c-5.01,5.7-10.32,12.23-9.94,19.8
	c-2.32-0.59-4.86-0.29-6.98,0.81c-0.96-6.64-7.28-12.07-13.99-12.01C220.93,249.11,222.52,254.62,225.6,259.44z"/>
<linearGradient id="SVGID_00000037682453894536426800000008013236775242486658_" gradientUnits="userSpaceOnUse" x1="190.4447" y1="250" x2="302.0038" y2="250">
	<stop  offset="0" style="stop-color:#919CBE"/>
	<stop  offset="1" style="stop-color:#BE6457"/>
</linearGradient>
<path style="fill:none;stroke:url(#SVGID_00000037682453894536426800000008013236775242486658_);stroke-width:4;stroke-linecap:round;stroke-linejoin:round;stroke-miterlimit:10;" d="
	M271.81,208.44c2.38,2.61,1.55,7.11-1.09,9.45c-2.65,2.34-6.51,2.82-9.99,2.23c-3.48-0.58-6.73-2.09-10.03-3.32
	c-10.85-4.05-23.06-5.21-34.05-1.56c-10.99,3.66-20.5,12.56-23.3,23.8c-2.88-14.09,1.33-29.21,10.11-40.6s21.83-19.14,35.77-22.71
	c9.06-2.32,19.19-2.81,27.26,1.9s12.69,15.99,7.72,23.91c8.16,2.81,14.55,9.54,18.44,17.24c3.89,7.7,5.52,16.35,6.43,24.93
	c2.94,27.64-1.24,56.01-11.3,82.25c6.96-26.29,8.17-54.08,3.51-80.87C288.98,231.8,284.19,217.37,271.81,208.44z"/>
</svg>
