<?xml version="1.0" encoding="utf-8"?>
<!-- Generator: Adobe Illustrator 26.1.0, SVG Export Plug-In . SVG Version: 6.00 Build 0)  -->
<svg version="1.1" id="Layer_2" xmlns="http://www.w3.org/2000/svg" xmlns:xlink="http://www.w3.org/1999/xlink" x="0px" y="0px"
	 viewBox="0 0 500 500" style="enable-background:new 0 0 500 500;" xml:space="preserve">
<style type="text/css">
	.st0{fill:none;stroke:url(#SVGID_1_);stroke-width:4;stroke-linecap:round;stroke-linejoin:round;stroke-miterlimit:10;}
</style>
<linearGradient id="SVGID_1_" gradientUnits="userSpaceOnUse" x1="148.4192" y1="250" x2="351.5808" y2="250">
	<stop  offset="0" style="stop-color:#919CBE"/>
	<stop  offset="1" style="stop-color:#BE6457"/>
</linearGradient>
<path class="st0" d="M341.58,285.81c9.26-9.4,10.15-25.01,4.37-36.87c-5.78-11.87-17.06-20.29-29.18-25.51
	c-2.49-13.65-12.23-26.64-25.14-34.69c8.05-21.67,4.55-49.03-9.89-68.95c-7.72,2.84-12.47,8.61-15.29,15.01
	c-2.82,6.4-3.88,13.43-4.49,20.4c-0.8,9.32-0.81,18.84,1.65,27.87c-6.52-4.04-14.64-4.9-22.54-5.03
	c-10.97-0.18-21.96,0.93-32.42,2.93c-4.01-22.55-21.24-42.25-43.39-49.73c-3.81,11.21-3.34,23.58-0.09,34.97
	c3.25,11.38,9.14,21.86,15.39,31.88c-7.32,6.26-12.37,15.13-14.03,24.62c-0.6,3.42-0.77,6.9-0.94,10.37
	c-0.19,3.81-0.37,7.61-0.71,11.6c-5.89,11.73-11.86,23.7-13.84,36.67c-1.99,12.97,0.63,27.35,9.51,37.7
	c-1.08,21.67,8.02,43.64,24.43,57.32c22.12,4.72,45,4.33,67.58,2.97c24.19-1.46,49.82-4.58,68.72-19.76
	C342.11,342.84,350.41,312.2,341.58,285.81z"/>
</svg>
