<?xml version="1.0" encoding="utf-8"?>
<!-- Generator: Adobe Illustrator 26.2.1, SVG Export Plug-In . SVG Version: 6.00 Build 0)  -->
<svg version="1.1" id="Layer_2_00000057121597267583072000000006685156543982639276_"
	 xmlns="http://www.w3.org/2000/svg" xmlns:xlink="http://www.w3.org/1999/xlink" x="0px" y="0px" viewBox="0 0 500 500"
	 style="enable-background:new 0 0 500 500;" xml:space="preserve">
<style type="text/css">
	.st0{fill:none;stroke:url(#SVGID_1_);stroke-width:9;stroke-linecap:round;stroke-linejoin:round;stroke-miterlimit:10;}
</style>
<linearGradient id="SVGID_1_" gradientUnits="userSpaceOnUse" x1="109.2708" y1="271.7208" x2="447.5" y2="271.7208">
	<stop  offset="0" style="stop-color:#919CBE"/>
	<stop  offset="1" style="stop-color:#BE6457"/>
</linearGradient>
<path class="st0" d="M429.8,330.9c15.3-15.6,16.7-41.3,7.2-61c-9.6-19.6-28.2-33.6-48.2-42.2c-4.2-22.5-20.3-44.1-41.5-57.4
	c13.3-35.8,7.5-81.1-16.4-114c-12.8,4.7-20.6,14.2-25.2,24.8c-4.7,10.6-6.4,22.2-7.4,33.7c-1.4,15.4-1.4,31.1,2.7,46
	c-10.8-6.7-24.2-8.1-37.3-8.3c-18.1-0.3-36.3,1.5-53.6,4.9c-6.6-37.3-35.1-69.8-71.7-82.2c-6.3,18.5-5.5,39-0.2,57.8
	s15.1,36.2,25.4,52.7c-12.1,10.3-20.4,25.1-23.2,40.7c-1,5.7-1.3,11.4-1.5,17.2c-0.3,6.3-0.6,12.6-1.2,19.2
	c-9.8,19.4-19.6,39.2-22.9,60.6c-3.3,21.4,1.1,45.2,15.7,62.3c-1.8,35.8,13.3,72.2,40.3,94.8c36.5,7.8,74.4,7.1,111.7,4.9
	c40-2.4,82.4-7.6,113.6-32.7C430.7,425.1,444.5,374.5,429.8,330.9z"/>
</svg>
