<?xml version="1.0" encoding="utf-8"?>
<!-- Generator: Adobe Illustrator 26.2.1, SVG Export Plug-In . SVG Version: 6.00 Build 0)  -->
<svg version="1.1" id="Layer_1" xmlns="http://www.w3.org/2000/svg" xmlns:xlink="http://www.w3.org/1999/xlink" x="0px" y="0px"
	 viewBox="0 0 500 500" style="enable-background:new 0 0 500 500;" xml:space="preserve">
<style type="text/css">
	.st0{fill:#2B7E31;}
	.st1{fill:#E7B7B5;}
	.st2{fill:#E4B6B3;}
	.st3{fill:#744719;}
	.st4{fill:#F0F4F4;}
	.st5{fill:#343433;}
	.st6{fill:#EACF27;}
	.st7{fill:#E1E5E5;}
	.st8{fill:#EBD127;}
	.st9{fill:#EAD027;}
	.st10{fill:#E8EEEE;}
	.st11{fill:#F0AFAF;}
	.st12{fill:#C5ADAD;}
	.st13{fill:#EBB6B4;}
	.st14{fill:#EBB7B5;}
	.st15{fill:#53300C;}
</style>
<g id="Layer_3">
	
		<image style="overflow:visible;opacity:0.75;enable-background:new    ;" width="949" height="1099" xlink:href="56A147E405602C49.png"  transform="matrix(0.2614 0 0 0.2614 37 134.2398)">
	</image>
	<g>
		<g>
			<g>
				<path d="M99,309.7c-8.2-4.5-15.9-9.6-22.8-16c-7.2-6.6-14.1-13.4-18.6-22.3c-4.1-8.2-4.7-16.4-1.8-25c1.3-3.8,2.9-7.5,4.5-11.1
					c1.3-3.1,3.1-5.8,5.7-8c2.6-2.2,3.6-2.1,6.3,0.1c5.8,4.9,11.6,9.8,17.6,14.5c3.5,2.8,7,5.4,11.4,6.7c0.5,0.2,1.1,0.4,1.6,0
					c0.8-1.6-0.2-2.6-1-3.8c-3-4.5-7-8-10.7-11.7c-3.7-3.8-7.6-7.4-11.1-11.4c-4.7-5.6-5.6-11.7-3.1-18.5c1.6-4.2,4-8,6.7-11.5
					c5-6.7,8.9-14.1,13.2-21.2c2.9-4.7,4.9-9.7,5.9-15.1c1.2-6.3,5-8.1,10.3-8c7.2,0.1,14.3,1.5,21.3,3c10.1,2.2,20.2,4.2,30,7.3
					c10,3.1,19.8,6.8,29.1,11.5c10,5.1,13.9,13.5,11.8,24.2c-2.3,11.6-6.8,22.5-13,32.5c-2.6,4.1-5.5,8.1-8.2,12.1
					c-0.6,0.8-1.1,1.7-1.5,2.6c-0.4,0.7-1,1.6,0.2,2.2c0.8,0.4,1.2-0.5,1.6-1c3-3.9,5.9-7.8,9-11.5c3.8-4.7,7.7-9.2,11.6-13.9
					c5.4-6.5,9.4-13.6,11.3-21.9c1.2-5.3,1-10.5,0.7-15.8c-0.1-1.7-0.4-3.4,0.8-5c1.7-2.3,4.2-2.9,7.3-1.6c3.1,1.3,5.9,3,8.4,5.2
					c3.9,3.6,7.9,7.1,11.1,11.4c5.4,7.4,6.8,16,7,24.8c0.4,22.8-7.8,42.2-23.4,58.7c-5,5.3-10.9,9.3-16.6,13.5
					c-3.3,2.5-6.4,5.2-8.7,8.8c1.3,1,2.3,0.3,3.2-0.2c11.4-6.5,22-13.9,30.9-23.7c7-7.7,12.4-16.4,15.7-26.4
					c0.6-1.9,1.3-3.8,1.8-5.7c0.4-1.6,1.3-2.7,2.8-2.9c1.8-0.2,2.9,1.1,3.5,2.6c1.7,4.5,3.5,9.1,4.7,13.8
					c5.8,23.4,7.8,47.1,6.2,71.1c-0.9,13.7-2.9,27.3-8.1,40.2c-1.9,4.6-4.4,8.7-8.2,11.9c-7.4,6.3-14.9,12.7-24,16.5
					c-7.8,3.3-16.1,5.7-24.7,4.9c-12.2-1-22.1-6.6-29.2-16.8c-0.7-1.1-0.5-2.6-2.2-3.6c-1,2.3-2.1,4.5-3.1,6.8
					c-4,8.9-10,16-18.6,20.8c-6.5,3.7-13.8,4.8-21.1,4.5c-15.1-0.6-29.1-4.8-41.4-13.7c-8.2-6-14.6-13.8-19.7-22.6
					c-8.3-14.4-15-29.5-18.4-46c-2.1-10.1-2.8-20.4-2.3-30.8c0-0.3,0.1-0.6,0.1-0.9c0.5-3.9,2.6-4.8,5.9-2.6c3.5,2.3,6.9,4.7,10.4,7
					c7.8,5,16.3,8.4,25.3,10.6c1.1,0.5,2.1,1.2,3.4,0.8l0.1,0c1.8,0.8,3.5,1.4,6.2,0.6C100.4,310.5,100,309.7,99,309.7z M56.2,299
					c-0.6,0.8-0.5,1.5-0.5,2.2c0.1,8.2,1.6,16.2,3.1,24.2c2,10.6,6,20.6,10.5,30.4c5.1,11.2,11.5,21.5,20.4,30.1
					c3.1,3,6.5,5.6,10.3,7.7c12.2,6.4,25.1,9.5,39,8.4c4.9-0.4,9.8-1.7,13.7-4.5c7.1-5.1,12.5-11.7,15.5-20.1
					c0.9-2.6,2.4-4.9,4.6-6.7c2.6-2.2,5.8-1.7,7,1.4c1.7,4.6,4.7,8.1,8.4,11.1c4.8,3.8,10,6.9,16.1,7.5c9.1,0.9,17.6-1.5,25.9-5
					c4.8-2,8.7-5.5,13-8.4c7.9-5.2,13.5-11.9,16.4-21.3c2.6-8.6,4.2-17.2,4.9-26.1c0.8-10.5,2-21,1-31.7c-0.9-9.7-1.2-19.4-2.9-29
					c-1.2-6.8-2.3-13.7-4.8-20.2c-0.4,0.2-0.7,0.3-0.9,0.5c-0.5,0.9-1,1.8-1.4,2.7c-4.1,9.8-10.4,18.1-17.7,25.7
					c-5.5,5.7-11.8,10.5-18.4,14.7c-5,3.2-10.2,6.3-15.8,8.6c-2.6,1-4.8,0.9-6.8-1c-1.9-1.8-1.7-4.1-0.8-6.4
					c1.7-4.3,4.9-7.4,8.3-10.2c8.1-6.6,17-12.1,23.5-20.6c6.1-7.9,11.3-16.1,14.2-25.8c1.8-6,2.4-12.1,3-18.2
					c0.7-8.5,0.1-17-4.4-24.6c-3.1-5.2-7.1-9.7-12-13.4c-2-1.5-3.7-3.5-6.7-3.6c0,0.8-0.1,1.3,0,1.9c1.8,8.9-0.1,17.3-3.3,25.6
					c-2.8,7.3-7.6,13.4-12.7,19.2c-7,8-13.9,16-19.5,25.1c-1.3,2.1-3.1,3.9-5,5.3c-4.3,3.2-9.2,1.1-9.6-3.8
					c-0.1-1.3,0.2-2.5,0.7-3.8c2.6-6.8,6.1-13,10.5-18.7c8.1-10.6,13-22.6,15.9-35.4c2-9-0.8-14.2-8.7-18.5c-4.2-2.3-8.6-4.1-13-5.6
					c-5.7-1.9-11.2-4.4-17-5.9c-9.8-2.6-19.8-4.6-29.6-7.1c-5.8-1.5-11.8-2.2-17.7-3c-2.8-0.4-3.2,0.2-4.1,3
					c-0.8,2.7-1.5,5.5-2.6,8.2c-4.5,10.6-10.7,20.3-17.1,29.7c-2.6,3.8-5.3,7.5-6.9,11.9c-1.5,4.2-1.1,8,1.8,11.7
					c1.5,1.9,3.1,3.8,4.8,5.5c4.5,4.5,9,8.9,13.4,13.4c2.4,2.5,4.6,5.1,6,8.3c1.3,3.2,1,6.1-1.2,8.8c-2.2,2.7-4.8,1.8-7.5,1
					c-3.8-1.2-7.1-3-10.2-5.4c-6-4.5-11.8-9.1-17.1-14.4c-3.2-3.2-4.1-3-6.2,1.1c-2.2,4.4-3.8,9-5.1,13.6c-2.1,7-1.6,13.5,2,19.9
					c2.6,4.7,5.8,8.9,9.5,12.7c9.6,10.1,20.6,18.2,33.1,24.2c1.3,0.6,2.6,1.2,3.6,2.3c1.3,1.3,2.9,2.6,2.2,4.8
					c-0.7,2.3-2.5,3.7-4.7,3.9c-3.4,0.3-6.9,0.6-10.3-0.4c-3.4-1-6.9-1.8-10.4-2.8c-8.9-2.6-17.1-6.5-24.7-11.9
					C59.9,301,58.4,299.3,56.2,299z M180.3,247.8c0.8-1.1,2.2-1.7,1.7-3.6c0-0.1-0.2-0.3-0.3-0.2c-1.7,0.5-1.7,1.9-1.9,3.2
					C179.6,247.3,179.9,247.4,180.3,247.8z"/>
				<g>
					<g>
						<path d="M91.1,312.9c4.1,1.2,8.4,1.7,12.7,1.3c0.9-0.1,1.6-0.7,1.6-1.6c0-0.8-0.8-1.7-1.6-1.6c-4,0.3-8-0.1-11.8-1.2
							c-0.9-0.3-1.8,0.3-2,1.2C89.7,311.8,90.2,312.7,91.1,312.9L91.1,312.9z"/>
					</g>
				</g>
				<g>
					<g>
						<path d="M103.1,307.7c-0.6-0.1-1.1-0.3-1.7-0.5c-0.3-0.1,0.3,0.1,0.1,0c-0.1,0-0.1-0.1-0.2-0.1c-0.1-0.1-0.3-0.1-0.4-0.2
							c-0.3-0.1-0.5-0.3-0.8-0.4c-0.1-0.1-0.2-0.2-0.4-0.2c-0.1,0-0.1-0.1-0.2-0.1c-0.2-0.1,0.1,0,0.1,0.1c-0.2-0.2-0.4-0.4-0.7-0.6
							c-0.2-0.2-0.4-0.4-0.6-0.6c-0.1-0.1-0.4-0.5-0.1-0.1c-0.1-0.1-0.2-0.3-0.3-0.4c-0.5-0.7-1.5-1.1-2.2-0.6
							c-0.7,0.4-1.1,1.5-0.6,2.2c1.6,2.4,4.1,4.1,7,4.7c0.8,0.2,1.8-0.2,2-1.2C104.5,308.9,104,307.9,103.1,307.7L103.1,307.7z"/>
					</g>
				</g>
				<g>
					<g>
						<path d="M87.7,312.1c2.1,0.5,4.3,1.1,6.4,1.6c0.3-1.1,0.6-2.1,0.9-3.2c-1.3-0.3-2.5-0.6-3.8-0.8c0.2,0.9,0.5,1.8,0.7,2.8
							c0.1,0,0.1-0.1,0.2-0.1c-0.2,0.1-0.5,0.3-0.7,0.4c-0.1,0,0,0,0.1,0.1c0.2,0.1,0.6,0.2,0.8,0.3c0.6,0.2,1.1,0.3,1.7,0.4
							c1.1,0.3,2.3,0.4,3.5,0.5c2.3,0.2,4.7,0.1,7-0.3c0.9-0.1,1.4-1.2,1.2-2c-0.3-0.9-1.1-1.3-2-1.2c-2.3,0.4-4.7,0.4-7,0
							c-1.2-0.2-2.3-0.4-3.4-0.8c-1.3-0.4-2.4-0.8-3.6,0.2c-0.9,0.8-0.4,2.5,0.7,2.8c1.3,0.3,2.5,0.6,3.8,0.8
							c2.1,0.4,2.9-2.6,0.9-3.2c-2.1-0.5-4.3-1.1-6.4-1.6C86.5,308.4,85.7,311.6,87.7,312.1L87.7,312.1z"/>
					</g>
				</g>
				<path class="st0" d="M56.2,299c2.2,0.3,3.7,2,5.3,3.2c7.5,5.4,15.8,9.2,24.7,11.9c3.4,1,6.9,1.8,10.4,2.8
					c3.4,1,6.9,0.7,10.3,0.4c2.2-0.2,4-1.6,4.7-3.9c0.7-2.2-0.9-3.4-2.2-4.8c-1-1.1-2.3-1.6-3.6-2.3c-12.6-6-23.6-14.2-33.1-24.2
					c-3.7-3.8-6.9-8-9.5-12.7c-3.6-6.4-4-13-2-19.9c1.4-4.7,3-9.3,5.1-13.6c2.1-4.1,3-4.4,6.2-1.1c5.3,5.3,11.1,9.9,17.1,14.4
					c3.1,2.4,6.5,4.2,10.2,5.4c2.7,0.8,5.2,1.6,7.5-1c2.3-2.7,2.5-5.7,1.2-8.8c-1.3-3.2-3.6-5.9-6-8.3c-4.4-4.5-8.9-9-13.4-13.4
					c-1.7-1.7-3.3-3.6-4.8-5.5c-2.9-3.6-3.3-7.4-1.8-11.7c1.6-4.4,4.3-8.1,6.9-11.9c6.4-9.5,12.7-19.1,17.1-29.7
					c1.1-2.6,1.8-5.4,2.6-8.2c0.9-2.9,1.3-3.4,4.1-3c5.9,0.7,11.9,1.5,17.7,3c9.8,2.5,19.8,4.5,29.6,7.1c5.8,1.6,11.3,4,17,5.9
					c4.5,1.5,8.9,3.3,13,5.6c7.9,4.3,10.7,9.5,8.7,18.5c-2.9,12.8-7.8,24.8-15.9,35.4c-4.4,5.7-7.9,11.9-10.5,18.7
					c-0.5,1.2-0.8,2.5-0.7,3.8c0.4,4.9,5.2,7,9.6,3.8c2-1.4,3.7-3.2,5-5.3c5.6-9,12.5-17.1,19.5-25.1c5.1-5.8,9.9-11.9,12.7-19.2
					c3.2-8.3,5.1-16.7,3.3-25.6c-0.1-0.5,0-1.1,0-1.9c3,0.1,4.7,2.1,6.7,3.6c4.8,3.7,8.9,8.2,12,13.4c4.5,7.6,5.1,16.1,4.4,24.6
					c-0.5,6.1-1.2,12.2-3,18.2c-2.9,9.7-8.2,17.9-14.2,25.8c-6.5,8.5-15.4,14-23.5,20.6c-3.4,2.8-6.6,5.9-8.3,10.2
					c-0.9,2.3-1.1,4.6,0.8,6.4c1.9,1.9,4.2,2,6.8,1c5.6-2.2,10.8-5.3,15.8-8.6c6.6-4.3,12.9-9,18.4-14.7
					c7.3-7.6,13.6-15.9,17.7-25.7c0.4-0.9,0.9-1.8,1.4-2.7c0.1-0.2,0.5-0.3,0.9-0.5c2.5,6.6,3.6,13.4,4.8,20.2
					c1.7,9.6,1.9,19.3,2.9,29c1,10.7-0.2,21.1-1,31.7c-0.7,8.9-2.3,17.5-4.9,26.1c-2.8,9.3-8.4,16-16.4,21.3
					c-4.3,2.8-8.2,6.3-13,8.4c-8.3,3.5-16.8,5.9-25.9,5c-6.2-0.6-11.4-3.7-16.1-7.5c-3.7-3-6.7-6.5-8.4-11.1c-1.2-3.1-4.4-3.6-7-1.4
					c-2.1,1.8-3.7,4.1-4.6,6.7c-3,8.4-8.4,15-15.5,20.1c-3.9,2.9-8.8,4.1-13.7,4.5c-13.8,1.1-26.7-2-39-8.4c-3.9-2-7.2-4.7-10.3-7.7
					c-8.9-8.6-15.3-18.9-20.4-30.1c-4.4-9.8-8.4-19.8-10.5-30.4c-1.5-8-3-16-3.1-24.2C55.7,300.5,55.6,299.8,56.2,299z M138.5,344.1
					c0.5-1,1.4-1.8,1.7-2.9c1.2-4-0.1-7.6-3.4-9.6c-3.5-2.1-7.3-1.6-10,1.4c-2.6,2.9-2.7,6.4-0.2,10c0.4,0.6,0.6,1.3,0.9,1.9
					c-0.4,0.4-0.8,0.8-1.3,1.1c-1.8,1.2-3.1,2.6-2.6,4.9c0.6,2.6,2.7,3.2,4.9,3.4c3.5,0.4,6.8-0.3,10-1.9c1.9-1,3.4-2.2,3.3-4.6
					C141.9,345.8,140.3,344.8,138.5,344.1z M201.4,334.3c0-1.7,1-3.2,1-5c0-5-3.2-8.4-8.2-8.4c-4.8,0-8.4,3.6-8.3,8.5
					c0.1,4.2,2.8,6.4,6.2,8c-2.5,3.7-2.2,5.9,0.9,7.3c3.6,1.6,11.3,0.2,14.1-2.6c2.6-2.6,2-5.8-1.5-7
					C204.2,334.6,202.8,334.6,201.4,334.3z M165.1,350.2c4.1,0.2,7.5-2.4,9.8-6.6c1.2-2.1,0.3-5.4-1.6-6c-2.4-0.7-3.1,1.1-3.9,2.9
					c-1.8,3.8-4.9,4.7-8.4,2.3c-0.8-0.5-1.5-1.4-2.3-1.9c-1.4-0.7-2.9-0.7-4,0.5c-1.1,1.3-0.8,2.7,0.2,3.9
					C157.4,348.3,160.3,350.2,165.1,350.2z"/>
				<path d="M192.1,337.3c-3.4-1.6-6.1-3.8-6.2-8c-0.1-4.8,3.5-8.5,8.3-8.5c5,0,8.3,3.4,8.2,8.4c0,1.8-1,3.3-1,5
					C198.6,336.2,195.8,338.1,192.1,337.3z"/>
				<path d="M127.5,345c-0.3-0.6-0.5-1.3-0.9-1.9c-2.5-3.6-2.5-7.1,0.2-10c2.7-3,6.5-3.6,10-1.4c3.3,2,4.6,5.6,3.4,9.6
					c-0.3,1.2-1.3,1.9-1.7,2.9C135,347,131.3,346.4,127.5,345z"/>
				<path class="st1" d="M192.1,337.3c3.7,0.8,6.5-1.1,9.3-3c1.4,0.2,2.9,0.2,4.2,0.7c3.5,1.2,4.2,4.4,1.5,7
					c-2.9,2.8-10.5,4.2-14.1,2.6C189.9,343.2,189.6,341.1,192.1,337.3z"/>
				<path d="M165.1,350.2c-4.8,0-7.7-1.9-10.2-4.7c-1.1-1.2-1.3-2.6-0.2-3.9c1.1-1.3,2.6-1.2,4-0.5c0.9,0.4,1.5,1.3,2.3,1.9
					c3.5,2.3,6.7,1.5,8.4-2.3c0.8-1.8,1.5-3.6,3.9-2.9c1.9,0.5,2.7,3.8,1.6,6C172.6,347.8,169.2,350.4,165.1,350.2z"/>
				<path class="st2" d="M127.5,345c3.8,1.4,7.5,2,11-0.9c1.8,0.7,3.4,1.6,3.4,3.9c0,2.4-1.5,3.6-3.3,4.6c-3.1,1.7-6.5,2.3-10,1.9
					c-2.2-0.2-4.3-0.9-4.9-3.4c-0.6-2.4,0.8-3.8,2.6-4.9C126.7,345.8,127.1,345.4,127.5,345z"/>
				
					<ellipse transform="matrix(0.9801 -0.1986 0.1986 0.9801 -66.7197 33.3716)" class="st2" cx="133" cy="349.3" rx="10.3" ry="5.9"/>
				<circle cx="132.7" cy="338.4" r="8.5"/>
				
					<ellipse transform="matrix(0.9835 -0.1811 0.1811 0.9835 -58.1863 41.5082)" class="st2" cx="198.2" cy="339.4" rx="10.3" ry="5.9"/>
				<circle cx="194.4" cy="329.2" r="8.5"/>
			</g>
		</g>
	</g>
</g>
<g id="Layer_4">
	
		<image style="overflow:visible;opacity:0.75;enable-background:new    ;" width="961" height="1099" xlink:href="56A147E405602C4A.png"  transform="matrix(0.2598 0 0 0.2598 209.2263 134.8667)">
	</image>
	<g>
		<g>
			<g>
				<path d="M284.2,224.3c-0.4-5.4-0.9-10.7-1.3-16c-0.1-1.5-1-2.2-2.4-2.5c-7-1.6-13.6-0.7-19.5,3.2c-2.2,1.4-3.6,1-5.3-0.4
					c-6.4-5.5-13.8-8.2-22.3-7.2c-1.6,0.2-2.8-0.5-3.5-1.9c-0.7-1.4,0-2.6,1.1-3.4c2.2-1.8,4.6-3.5,6.9-5.3
					c15.4-11.7,29.1-25,39.8-41.2c1.8-2.7,3.8-2.9,6-0.5c1.5,1.6,2.7,3.4,4.1,5c7.6,8.3,17,14.2,26.3,20.3c4.7,3.1,9.6,5.8,14.8,8
					c1.2,0.5,2.4,1.1,3.5,1.8c1,0.7,1.5,1.8,1.3,3c-0.2,1.3-1.2,2-2.4,2.1c-7.6,0.8-12.2,6-16.6,11.4c-2.3,2.8-2.2,2.8-5.6,1.7
					c-6.5-2.2-12.8-1.3-18.9,1.4c-1.2,0.5-1.7,1.3-1.5,2.7c0.5,5.5,0.9,11,1.2,16.4c0.1,2,1.4,2.2,2.9,2.3c8.6,0.8,17.2,1.7,25.8,3
					c20.9,3,41.5,7.2,61.9,12.7c4.3,1.1,3.5,1.7,6.1-2.4c12.9-21,25.7-42,38.6-63c2.2-3.5,4.8-4.7,8.7-4c4.9,0.9,8.1,4.3,11,8
					c1.5,2,0.4,4.1-0.8,6c-5.2,8.5-10.3,17-15.5,25.5c-7,11.6-14,23.2-21.1,34.7c-1.8,2.9-1.8,2.9,1.3,4.1c7,2.7,13.9,5.5,20.4,9.4
					c5,3,8.1,7,9.4,12.8c8.2,36.1,0.8,68.7-22.8,97c-19.6,23.5-45.3,36.4-75.9,38.5c-31.5,2.2-59-7.6-82.2-28.8
					c-19.4-17.8-30.9-40.1-34.2-66.4c-3.8-30.1,4.1-57.2,22-81.5c2.2-2.9,5.4-4.2,8.9-5c5.1-1.1,10.3-1.4,15.5-1.5
					C274.4,224.2,279,224.3,284.2,224.3z M374.8,257.1c0.6-0.8,1.3-1.5,1.4-2.5c-0.6-0.6-1.2-0.7-2-0.9c-20.5-4.8-41.1-8.9-61.9-12
					c-6-0.9-12-1.4-18-2.1c-2.3-0.3-2.4,0.9-1.8,2.6c0.7,2.6,3.2,2.2,4.9,2.6c23.4,6.4,47.1,11.4,71.1,15
					C373,260.5,373,260.5,374.8,257.1z M433.2,275.4c-5.2,2.4-10.6,3-15.8,3.2c-10.8,0.5-21.7,0.5-32.5-0.9c-10-1.2-20-2.4-29.9-4
					c-15.4-2.5-30.6-5.5-45.7-9.2c-15.4-3.8-30.6-8.4-45.2-14.7c-5.2-2.2-10.3-4.5-14.7-8.2c-2.7-2.3-2.8-2.3-4.7,0.8
					c-7.9,12.8-13.3,26.4-15.2,41.5c-1.3,10.5-1.5,21,0.2,31.4c2.2,14,7.2,27,14.9,38.9c9.2,14.3,21,25.9,35.9,34.3
					c14.2,8,29.4,12.5,45.6,13.7c9.1,0.6,18.1-0.3,27.1-2.1c12.2-2.4,23.5-7.1,34-13.6c10.9-6.8,20.2-15.3,27.9-25.6
					c6.7-9,11.8-18.7,15.4-29.4c2.4-7.3,4.5-14.7,4.9-22.3C436,298,436.3,286.9,433.2,275.4z M250.5,234.1c2.6,3.6,6.3,5.5,10,7.4
					c11.1,5.7,22.9,9.4,34.8,12.9c24,7,48.5,12,73.3,15.4c15.8,2.1,31.6,3.6,47.5,3c3.9-0.2,7.8-0.5,11.5-1.7
					c1.3-0.4,3.2-0.5,3.4-2.1c0.2-1.3-1.3-2.2-2.2-3.1c-0.8-0.8-1.8-1.4-2.8-2c-6.8-4.1-14.2-7.1-21.7-9.7c-0.4-0.1-0.8-0.4-1.2-0.4
					c-0.6,0-1.1,0.3-1.3,0.9c-0.1,0.5,0.2,0.8,0.6,1c1.2,0.5,2.4,0.9,3.6,1.4c2.9,1.2,6,2,8.5,4c1.6,1.2,3,2.5,2.4,4.6
					c-0.5,2.1-2.3,2.9-4.2,3.2c-2.7,0.5-5.5,0.5-8.2,0.4c-16.2-0.4-32.2-3.2-48.1-5.8c-16-2.6-31.7-6.1-47.5-9.9
					c-10.8-2.6-21.6-5.3-31.9-9.6c-1.9-0.8-3.7-1.7-5.4-2.7c-1.5-1-2.6-2.4-2.2-4.4c0.4-1.9,1.7-2.9,3.6-3.3
					c2.1-0.5,4.2-0.9,6.4-0.8c1.4,0.1,2.9,0,4.3,0.1c0.8,0,1.5,0,1.5-1c0-0.7-0.2-1.4-1.1-1.7c-0.4-0.1-0.9-0.1-1.3-0.1
					c-8.5-0.2-17.1-0.6-25.5,0.8C255,231.5,252.5,232.1,250.5,234.1z M379.6,260.9c2.9,0.6,5,1,7.1,1.4c2.2,0.4,3.9-0.3,5.2-2.3
					c1.6-2.5,2.8-5.4,4.5-7.8c4.3-6,7.7-12.5,11.5-18.8c5.9-9.7,11.9-19.4,17.6-29.2c3.2-5.5,6.6-10.8,10-16.2
					c0.8-1.3,0.6-2.3-0.7-2.8c-2.3-0.9-4-2.8-6.2-4.4C412.4,207.5,396.1,233.9,379.6,260.9z M273.4,165.1
					c-9.8,11.4-20.5,21.6-32.6,30.9c5.1,1.4,10,2.4,14.2,5.1c1.9,1.2,2.4,0.3,3.2-1.1c3.3-6.7,6.7-13.4,9.7-20.4
					C269.8,174.8,272.1,170.1,273.4,165.1z M287.9,198.8c6.2-2.1,12-3.9,18.7-3.4c-8.7-9.5-14.4-20.9-21.8-31.3
					C286.1,175.7,286,187.2,287.9,198.8z M263.5,201.8c5.6-1.4,10.3-2.4,15.3-1.8c3.1,0.4,3.2,0.3,3-2.7c-0.7-8.8-1.4-17.5-2.2-26.3
					c-0.1-1,0.1-2.2-1.1-3.2C274.4,179.2,269.2,190.1,263.5,201.8z M295.5,231.1c-1.1-0.1-1.8-0.1-2.5-0.1c-0.8,0-1.8-0.2-2,1
					c-0.2,1.3,0.6,1.8,1.8,1.8c0.4,0,0.9,0,1.3,0.1c21.9,2.6,43.7,6.1,65.2,11c5.6,1.3,11.2,2.6,16.9,3.8c1.5,0.3,3.7,2,4.2-0.8
					c0.3-1.8-2.1-1.4-3.3-1.7c-8-2-15.9-4-24-5.7C334.1,236,314.7,232.9,295.5,231.1z M322.9,186.1c-4.9-3-9.7-5.8-14.5-8.7
					c-4.8-3-9.3-6.3-14.4-10.2c5.1,9.6,11.2,17.4,17.4,25.2c0.8,1,1.5,1.8,2.7,0.5C316.6,190.1,319.8,188.4,322.9,186.1z M397.1,263
					c3.1,1.2,6.2,0.9,10.3,0.9c-2.8-1.8-5-2.4-7.1-3.2C398.3,260.1,397.5,261.1,397.1,263z M280.4,239c1.6,1.4,3.2,1.6,4.6,2.1
					c0.7,0.2,1.7,0.7,1.9-0.7c0.1-1.1-0.5-1.6-1.5-1.7C283.9,238.6,282.3,238.5,280.4,239z"/>
				<path class="st3" d="M433.2,275.4c3.1,11.5,2.8,22.7,2.1,33.7c-0.5,7.6-2.5,15-4.9,22.3c-3.5,10.7-8.6,20.4-15.4,29.4
					c-7.7,10.3-17,18.8-27.9,25.6c-10.5,6.5-21.8,11.2-34,13.6c-9,1.8-18,2.7-27.1,2.1c-16.2-1.1-31.4-5.6-45.6-13.7
					c-14.9-8.4-26.7-20-35.9-34.3c-7.7-11.9-12.7-24.9-14.9-38.9c-1.6-10.4-1.5-20.9-0.2-31.4c1.9-15,7.3-28.7,15.2-41.5
					c1.9-3.1,2-3,4.7-0.8c4.4,3.7,9.5,6,14.7,8.2c14.6,6.3,29.8,10.9,45.2,14.7c15.1,3.7,30.4,6.7,45.7,9.2c10,1.6,19.9,2.8,29.9,4
					c10.8,1.3,21.6,1.4,32.5,0.9C422.6,278.4,428,277.8,433.2,275.4z M384.3,349.6c0-1.8-0.2-2.9-0.5-4
					c-2.6-10.7-16.3-17.9-28.8-10.8c-2.7,1.5-4.9,3.6-6.9,5.8c-1.2,1.3-1.6,2.8-0.9,4.4c0.7,1.6,2.2,1.7,3.7,1.2
					c0.5-0.2,1.2-0.6,1.6-0.2c2.7,2.2,4.4,0.2,6.3-1.4c0.5-0.5,1.1-1,1.7-1.3c6.3-4,11.2-2.2,13.5,4.9c0.4,1.1,0.7,2.5,2,2.6
					c1.8,0.1,3.2,0.8,4.6,2c1.3,1.1,3.2,0.2,3.6-1.6C384.3,350.5,384.3,349.7,384.3,349.6z M284.7,323.9c5-0.1,6.9,1.3,8.2,6.2
					c0.5,1.9,1.3,3.2,3.3,3.4c0.9,0.1,1.6,0.5,2.4,0.9c3.2,1.7,5.2,0.6,4.7-3c-0.7-4.8-2.4-9.2-6.5-12.3c-5.6-4.4-11.9-5.6-18.8-3.6
					c-4.7,1.4-8.3,4.6-11.4,8.3c-1,1.2-1.1,2.7-0.3,4.1c0.8,1.5,2.1,1.3,3.4,0.7c0.7-0.3,1.4-0.3,2.1,0.1c2.2,1.2,3.7,0,5.4-1.3
					C279.5,325.5,281.8,323.6,284.7,323.9z M278.6,343.9c2.1-0.1,4,0.2,5.8-0.6c3.7-1.5,4.2-4.4,1.2-6.9c-1.2-1-2.7-1.8-4.2-2.2
					c-6.5-2-13.1-3.4-20-3.3c-1.6,0-3.2,0.4-4.6,1.2c-2.4,1.4-2.7,3.8-0.7,5.8c1.3,1.4,3.1,2.1,4.9,2.7
					C266.8,342.5,272.7,343.6,278.6,343.9z M365.9,353.4c-0.8,0-2.6,0-4.2,0.3c-1.8,0.3-3.3,1.3-3.8,3.2c-0.5,2,0.7,3.3,2.3,4.3
					c0.8,0.5,1.8,1,2.7,1.4c6.7,2.5,13.6,3.7,20.7,3.8c1.5,0,2.9-0.1,4.2-0.7c2.9-1.3,3.4-3.9,1.3-6.3c-1.2-1.3-2.8-2-4.5-2.5
					C378.9,354.8,373,353.7,365.9,353.4z M250.3,304c3.7,0.1,6.2-2.2,6.2-5.7c0-3-2.7-6.2-5.4-6.4c-3.1-0.2-6.6,2.7-6.7,5.5
					C244.3,301,246.9,303.9,250.3,304z M323.9,355.2c3.2-0.1,8.5-6.1,8.1-9c-0.2-1.1-0.7-1.9-1.9-2.1c-1.2-0.3-2.2,0.1-3,1.1
					c-0.9,1.3-1.4,3.4-2.9,3.5c-2.2,0.1-1.6-2.6-2.6-4c-0.7-1-1.4-2-2.7-1.5c-1.4,0.5-2.5,1.5-2,3.3c0.7,2.7,1.8,5.2,3.7,7.2
					C321.5,354.7,322.6,355.3,323.9,355.2z M259,282.3c-3.4-0.1-5.9,1.8-6,4.7c-0.1,3.1,2.1,5.6,5.1,5.7c3.4,0.2,6-1.7,6.2-4.5
					C264.5,285,262.2,282.4,259,282.3z M240,285.3c0,2.4,3.2,5.6,5.7,5.6c2.5,0,4.8-2.8,4.7-5.8c-0.1-3-2.4-5.5-5-5.4
					C242.4,279.8,240,282.2,240,285.3z"/>
				<path class="st4" d="M250.5,234.1c2.1-2,4.5-2.7,7.1-3.1c8.5-1.5,17-1,25.5-0.8c0.4,0,0.9,0,1.3,0.1c0.8,0.2,1.1,0.9,1.1,1.7
					c0,1-0.7,1-1.5,1c-1.4-0.1-2.9-0.1-4.3-0.1c-2.2-0.1-4.3,0.3-6.4,0.8c-1.8,0.4-3.2,1.4-3.6,3.3c-0.4,2,0.7,3.4,2.2,4.4
					c1.7,1.1,3.5,2,5.4,2.7c10.3,4.2,21.1,7,31.9,9.6c15.7,3.8,31.5,7.3,47.5,9.9c16,2.6,31.9,5.4,48.1,5.8c2.7,0.1,5.5,0.2,8.2-0.4
					c1.9-0.4,3.7-1.1,4.2-3.2c0.5-2.2-0.8-3.4-2.4-4.6c-2.6-2-5.6-2.9-8.5-4c-1.2-0.5-2.4-0.9-3.6-1.4c-0.4-0.2-0.7-0.5-0.6-1
					c0.2-0.6,0.7-0.9,1.3-0.9c0.4,0,0.8,0.3,1.2,0.4c7.5,2.6,14.9,5.6,21.7,9.7c1,0.6,2,1.2,2.8,2c0.9,0.9,2.3,1.8,2.2,3.1
					c-0.2,1.7-2.1,1.7-3.4,2.1c-3.8,1.2-7.6,1.5-11.5,1.7c-15.9,0.6-31.8-0.8-47.5-3c-24.8-3.3-49.2-8.4-73.3-15.4
					c-11.9-3.5-23.7-7.2-34.8-12.9C256.8,239.6,253.1,237.7,250.5,234.1z"/>
				<path class="st5" d="M379.6,260.9c16.5-26.9,32.7-53.4,49.1-80.1c2.2,1.6,3.9,3.4,6.2,4.4c1.3,0.5,1.5,1.5,0.7,2.8
					c-3.4,5.4-6.8,10.7-10,16.2c-5.7,9.8-11.7,19.5-17.6,29.2c-3.8,6.3-7.2,12.8-11.5,18.8c-1.8,2.5-2.9,5.3-4.5,7.8
					c-1.3,2-3,2.6-5.2,2.3C384.6,261.9,382.5,261.4,379.6,260.9z"/>
				<path class="st6" d="M273.4,165.1c-1.3,5-3.6,9.7-5.6,14.5c-2.9,6.9-6.3,13.6-9.7,20.4c-0.7,1.5-1.2,2.4-3.2,1.1
					c-4.2-2.6-9-3.6-14.2-5.1C252.8,186.6,263.5,176.4,273.4,165.1z"/>
				<path class="st7" d="M292.4,242.2c-0.6-1.7-0.5-2.9,1.8-2.6c6,0.7,12,1.2,18,2.1c20.8,3.1,41.4,7.2,61.9,12
					c0.7,0.2,1.4,0.3,2,0.9c-0.1,1-0.8,1.8-1.4,2.5c-1-0.3-1.9-0.7-2.9-0.9c-6.1-0.9-12.2-2-18.3-2.5c-10.9-1-21.3-4.2-32.1-5.9
					C311.8,246.3,302.1,244.1,292.4,242.2z"/>
				<path class="st8" d="M287.9,198.8c-1.9-11.6-1.8-23.1-3.1-34.7c7.4,10.3,13.1,21.8,21.8,31.3C299.9,194.9,294,196.7,287.9,198.8
					z"/>
				<path class="st9" d="M263.5,201.8c5.8-11.6,10.9-22.5,15-34.1c1.2,1,1,2.2,1.1,3.2c0.8,8.8,1.5,17.5,2.2,26.3
					c0.2,3,0.1,3.1-3,2.7C273.8,199.3,269.1,200.3,263.5,201.8z"/>
				<path class="st10" d="M295.5,231.1c19.2,1.9,38.6,4.9,57.7,9.1c8,1.8,16,3.7,24,5.7c1.2,0.3,3.6,0,3.3,1.7
					c-0.4,2.8-2.7,1.1-4.2,0.8c-5.6-1.2-11.2-2.5-16.9-3.8c-21.6-4.8-43.3-8.3-65.2-11c-0.4-0.1-0.9-0.1-1.3-0.1
					c-1.2,0-2-0.4-1.8-1.8c0.1-1.3,1.1-1,2-1C293.7,230.9,294.5,231,295.5,231.1z"/>
				<path class="st11" d="M292.4,242.2c9.7,1.9,19.3,4.1,29.1,5.7c10.8,1.7,21.2,4.9,32.1,5.9c6.1,0.5,12.2,1.6,18.3,2.5
					c1,0.1,1.9,0.6,2.9,0.9c-1.8,3.3-1.8,3.3-6.3,2.7c-24-3.7-47.7-8.6-71.1-15C295.6,244.3,293.1,244.8,292.4,242.2z"/>
				<path class="st6" d="M322.9,186.1c-3.1,2.3-6.3,4-8.7,6.7c-1.2,1.3-1.9,0.5-2.7-0.5c-6.3-7.7-12.3-15.6-17.4-25.2
					c5.1,3.9,9.6,7.3,14.4,10.2C313.1,180.4,318,183.2,322.9,186.1z"/>
				<path class="st12" d="M397.1,263c0.4-2,1.2-3,3.2-2.2c2.1,0.8,4.3,1.4,7.1,3.2C403.3,263.9,400.2,264.2,397.1,263z"/>
				<path class="st12" d="M280.4,239c1.9-0.5,3.4-0.4,5-0.3c0.9,0.1,1.6,0.6,1.5,1.7c-0.1,1.4-1.1,0.9-1.9,0.7
					C283.6,240.6,282,240.4,280.4,239z"/>
				<path d="M384.3,349.6c0,0.1,0.1,0.9-0.1,1.5c-0.4,1.7-2.3,2.6-3.6,1.6c-1.4-1.1-2.8-1.8-4.6-2c-1.3-0.1-1.6-1.4-2-2.6
					c-2.2-7.1-7.2-9-13.5-4.9c-0.6,0.4-1.2,0.9-1.7,1.3c-1.8,1.6-3.5,3.7-6.3,1.4c-0.5-0.4-1.1,0-1.6,0.2c-1.5,0.5-3,0.5-3.7-1.2
					c-0.7-1.6-0.3-3.1,0.9-4.4c2.1-2.3,4.3-4.3,6.9-5.8c12.4-7.1,26.2,0,28.8,10.8C384,346.7,384.3,347.8,384.3,349.6z"/>
				<path d="M284.7,323.9c-3-0.3-5.3,1.6-7.5,3.4c-1.7,1.4-3.2,2.6-5.4,1.3c-0.7-0.4-1.4-0.4-2.1-0.1c-1.3,0.6-2.6,0.7-3.4-0.7
					c-0.7-1.4-0.7-2.9,0.3-4.1c3.1-3.7,6.7-6.9,11.4-8.3c6.8-2.1,13.1-0.8,18.8,3.6c4,3.1,5.8,7.5,6.5,12.3c0.5,3.6-1.5,4.7-4.7,3
					c-0.8-0.4-1.5-0.8-2.4-0.9c-2-0.2-2.8-1.5-3.3-3.4C291.7,325.2,289.7,323.8,284.7,323.9z"/>
				<path class="st13" d="M278.6,343.9c-5.9-0.3-11.8-1.4-17.6-3.3c-1.8-0.6-3.6-1.3-4.9-2.7c-1.9-2.1-1.6-4.4,0.7-5.8
					c1.4-0.8,2.9-1.2,4.6-1.2c6.9-0.1,13.5,1.3,20,3.3c1.5,0.5,2.9,1.2,4.2,2.2c3.1,2.5,2.5,5.4-1.2,6.9
					C282.6,344.1,280.7,343.8,278.6,343.9z"/>
				<path class="st14" d="M365.9,353.4c7,0.3,13,1.4,18.7,3.4c1.6,0.6,3.3,1.2,4.5,2.5c2.1,2.4,1.6,5-1.3,6.3
					c-1.3,0.6-2.8,0.8-4.2,0.7c-7.1-0.1-14.1-1.3-20.7-3.8c-0.9-0.4-1.9-0.8-2.7-1.4c-1.5-1-2.7-2.3-2.3-4.3c0.5-1.8,2-2.9,3.8-3.2
					C363.4,353.4,365.1,353.5,365.9,353.4z"/>
				<path class="st15" d="M250.3,304c-3.4-0.1-6-3-5.9-6.6c0.1-2.8,3.6-5.7,6.7-5.5c2.7,0.2,5.4,3.4,5.4,6.4
					C256.5,301.8,253.9,304.1,250.3,304z"/>
				<path d="M323.9,355.2c-1.3,0.1-2.3-0.5-3.3-1.5c-1.9-2.1-3-4.6-3.7-7.2c-0.5-1.8,0.6-2.8,2-3.3c1.3-0.5,2,0.5,2.7,1.5
					c1,1.3,0.3,4,2.6,4c1.5-0.1,2-2.2,2.9-3.5c0.7-1.1,1.8-1.4,3-1.1c1.1,0.3,1.7,1,1.9,2.1C332.4,349.1,327,355.1,323.9,355.2z"/>
				<path class="st15" d="M259,282.3c3.2,0.1,5.5,2.7,5.3,5.9c-0.2,2.8-2.8,4.7-6.2,4.5c-3-0.2-5.2-2.6-5.1-5.7
					C253.1,284.1,255.6,282.1,259,282.3z"/>
				<path class="st15" d="M240,285.3c0-3,2.3-5.5,5.4-5.6c2.6-0.1,4.9,2.3,5,5.4c0.1,2.9-2.2,5.7-4.7,5.8
					C243.3,290.9,240,287.7,240,285.3z"/>
			</g>
		</g>
	</g>
</g>
</svg>
