<?xml version="1.0" encoding="utf-8"?>
<!-- Generator: Adobe Illustrator 26.2.1, SVG Export Plug-In . SVG Version: 6.00 Build 0)  -->
<svg version="1.1" id="Layer_1" xmlns="http://www.w3.org/2000/svg" xmlns:xlink="http://www.w3.org/1999/xlink" x="0px" y="0px"
	 viewBox="0 0 500 500" style="enable-background:new 0 0 500 500;" xml:space="preserve">
<style type="text/css">
	.st0{fill:#FFFFFF;}
	.st1{fill:#EEEEEE;}
	.st2{fill:#EDBABA;}
	.st3{fill:#FEE2E2;}
	.st4{fill:#E2A4A4;}
</style>
<g id="Layer_1_00000101816925450364579460000016691051822135193745_">
	
		<image style="overflow:visible;opacity:0.75;enable-background:new    ;" width="929" height="1079" xlink:href="DC1D4AD16EA8F123.png"  transform="matrix(0.2483 0 0 0.2483 123.1991 69.4299)">
	</image>
	<g>
		<g>
			<g>
				<path d="M187,147.7c-0.3-2.6-1.4-4.8-2.2-7.1c-1.3-4.1-1.7-8.3-1.4-12.6c0.3-6.2,2.1-12,5.2-17.3c6.7-11.5,15.5-21.2,27.7-27.2
					c1.9-1,3.8-1.9,6-1.9c3.5-0.1,5.5,1.9,5.1,5.4c-0.3,2.5-1.5,4.7-2.4,7c-0.9,2.2-1.9,4.3-2.8,6.5c-2.1,5.2-2.6,10.6-1.2,16.1
					c1.4-0.4,2-1.6,2.8-2.5c4.4-4.8,9.2-8.8,14.9-12c3.3-1.8,6.7-3.1,10.4-3.7c1.6-0.3,3.1-0.3,4.7-0.1c3.8,0.6,5.7,2.7,6.1,6.5
					c0.2,2.6-0.5,5.1-1.4,7.5c-1,2.5-2.4,4.8-3.9,7.1c-6,9.2-8.3,19.3-7.4,30.2c0.3,3.9,0.6,7.8,0.9,11.7c0.4,6.9,0,13.7-4.2,19.8
					c1,0.9,2.2,0.7,3.2,0.8c12.8,0.6,24.3,5.1,34.8,12.2c5.9,4,10.3,9.4,13.9,15.4c7.3,12.3,11.7,25.7,12.7,40
					c0.1,0.8,0.1,1.6,0.2,2.3c0,0.1,0.2,0.1,0.5,0.4c1.1-0.4,1.7-1.4,2.6-2.2c2.7-2.6,5.2-5.3,8.5-7.1c3.3-1.9,6.7-3,10.6-2.7
					c2.6,0.2,4.7,1.4,6.3,3.4c3.1,3.8,4.1,8.2,4.2,12.9c0.2,8.7-2.3,16.8-6.1,24.6c-5.7,11.6-14.1,20.7-25.8,26.5
					c-4,2-8.1,3.3-12.6,2.8c-1.1-0.1-1.7,0.3-2.3,1c-0.9,1-1.8,2-2.7,3c-4.3,5-9.9,7.8-16.1,9.1c-9.3,2.1-18.6,2.4-28.1,1.1
					c-7.8-1-15.4-2.9-22.7-5.9c-1.7-0.7-3.2-1.6-4.8-2.5c-2.2-1.3-3.7-3-3.4-5.7c0.1-1.4-0.4-1.8-1.7-1.9c-2.5,0-4.9-0.6-7.2-1.5
					c-1.5-0.6-2.8-1.4-4-2.5c-3-2.8-3.1-5.3-0.3-8.4c0.3-0.3,0.6-0.6,0.7-1.4c-4-0.9-8-1.7-11.8-3.3c-1.3-0.6-1.8,0.6-2.4,1.3
					c-2.9,3.4-5.7,6.9-8.6,10.3c-3,3.6-7,5.2-11.6,5.3c-5.4,0.1-10.5-1.2-15.1-3.9c-3.9-2.3-4.8-4.8-3.2-9.1
					c0.4-0.9,0.7-1.9,1.1-2.8c0.1-0.2,0-0.4-0.1-0.9c-1.8-0.1-3.7-0.1-5.5-0.2c-2.4-0.1-4.7-0.6-6.8-1.6c-3.7-1.7-5.1-5.5-3.4-9.3
					c0.6-1.4,1.5-2.5,2.6-3.5c6.5-6.7,10.9-14.7,14.2-23.4c1.1-2.9,1.6-5.7,0.8-8.8c-2.2-8.1-0.8-16,1.3-23.9c0.9-3.3,1.9-6.5,3-9.7
					c0.5-1.5,0.4-2.6-0.9-3.8c-5.5-4.8-9.7-10.6-13.5-16.7c-3-5-4.6-10.5-3.8-16.4c0.5-4.3,2.4-7.9,5.2-11.1
					c3.7-4.2,8.3-7.1,13.4-9.4c8.5-3.7,17.4-5.9,26.8-5.8C186,147.9,186.5,147.8,187,147.7z M300.3,304.9c2.7-0.3,4.9-1.2,7-2.3
					c10.2-5.1,17.6-13,22.7-23.1c3.8-7.5,6.5-15.3,6-23.9c-0.1-2.5-0.6-4.9-1.8-7.1c-1.6-2.8-3.2-3.6-6.4-3c-3,0.5-5.5,1.9-7.8,3.8
					c-3.4,2.8-6.5,5.9-9.5,9c-1.2,1.3-1.9,2.7-2,4.5c-0.2,3.9-1.3,7.8-2.3,11.5c-1,3.7-2.4,7.2-3.7,10.8c-0.5,1.4-1.3,2.4-3,2
					c-1.4-0.4-1.9-1.6-1.4-3.6c0.3-1.1,0.7-2.1,1.1-3.2c1.8-5.6,3.6-11.1,4.1-17c1.4-18.7-2.8-36.1-12.6-52.1c-2.5-4.1-5.5-8-9.4-11
					c-10.2-7.9-21.8-12.4-34.7-13.1c-3.2-0.2-6.5-0.2-9.7-0.3c-1.3,0-2.5-0.5-3-1.8c-0.5-1.3,0.5-2,1.4-2.8c0.2-0.1,0.4-0.3,0.5-0.4
					c4.6-3.5,6.6-8.3,7-14c0.4-5.6-0.4-11.2-0.8-16.8c-0.7-9.6,0.3-18.8,4.4-27.6c1.7-3.7,4-7,6-10.5c1.2-2.2,2.2-4.4,2.3-7
					c0.1-2-0.3-2.3-2.3-2.5c-1.8-0.2-3.6,0.2-5.3,0.8c-10.5,3.6-18.1,10.6-24,19.6c-4.7,7.2-7.5,15.3-8.5,23.9
					c-0.3,2.6-1.3,3.6-2.9,3.4c-1.6-0.2-2-1.3-1.8-4.1c0.7-7.6,2.7-14.8,6.2-21.5c1-1.9,0.9-3.5,0.4-5.4c-1.8-6.1-2.1-12.4-0.2-18.6
					c0.9-2.9,2.2-5.7,3.3-8.4c0.8-1.9,2-3.7,2.2-6c-0.5,0-0.9,0-1.1,0.1c-0.7,0.3-1.4,0.6-2.1,1c-11.2,5.7-19.4,14.5-25.3,25.3
					c-4.9,8.8-6.1,18.2-2.7,28c0.9,2.6,1.9,5.3,2.9,7.9c0.9,2.4-0.1,3.7-2.6,3.7c-1.5,0-2.9-0.4-4.4-0.4c-10.9,0-21,3.1-30.5,8.4
					c-2.8,1.5-5.1,3.7-7.1,6.2c-2.7,3.3-3.7,7.1-3.3,11.3c0.4,3.8,1.7,7.2,3.8,10.3c3.9,5.9,8.1,11.6,13.7,16.1
					c1.6,1.3,1.8,2.5,1.1,4.4c-2.2,6.5-3.9,13.1-5,19.9c-1.2,7.1-0.4,13.8,2.3,20.5c1.3,3.1,2.3,6.3,3.3,9.5
					c3.2,9.9,2.3,19.2-3.4,28c-1.9,2.9-3.3,6.1-4.7,9.3c-0.7,1.5-0.3,2.5,1.2,3.2c3,1.5,6.2,2.6,9.6,2.9c4.7,0.4,8.6-0.9,11.6-4.7
					c3-3.8,6.3-7.3,9.4-11c1.8-2,2.5-2.3,4.9-1.2c3.6,1.6,7.4,2.6,11.2,3.5c5.2,1.3,10.5,1.4,16,0.2c-1.1-2.6-2-5.1-2.3-7.6
					c-1-7.4,0.6-14.4,3.9-20.9c6.6-13.2,17.7-21.1,31.4-25.8c2.5-0.9,3.9-0.6,4.4,0.8c0.6,1.5-0.3,2.7-2.9,3.6
					c-5.5,1.9-10.4,4.7-15,8.2c-8.4,6.4-14.4,14.5-16.4,25c-1.5,7.9,0.2,14.7,6.8,19.8c2.1,1.6,4.3,3.2,6.6,4.6
					c1.5,0.9,3.6,1.8,3.2,3.9c-0.4,2.5-2.7,2.6-4.8,2.8c-3.1,0.3-6.2,0.8-9.1,2.3c-1.4,0.7-2.7,1.5-3.8,2.8
					c-0.8,0.9-0.8,1.8,0.4,2.5c0.9,0.5,1.8,1,2.7,1.4c3.7,1.9,7.8,3,11.8,4c12.2,3.2,24.6,3.7,37,1c5.2-1.2,9.9-3.5,13.6-7.5
					c3.3-3.5,6.7-7,9.6-10.8c0.6-0.7,1.1-1.4,1.9-1.8c1.1-0.5,2.2-0.5,3,0.5c0.8,0.9,0.5,1.8-0.1,2.7
					C301.9,302.3,300.8,303.2,300.3,304.9z M157.7,256c-1.4,3.1-2.5,5.7-3.6,8.2c-2.8,6.2-6.8,11.6-11.4,16.6
					c-2.6,2.8-2.1,4,1.6,4.9c3.1,0.7,6.2,0.4,9.4,0.4c1.7,0,2.6-0.8,3.4-2.2C162.8,274.8,161.7,265.7,157.7,256z M206.4,300
					c1.1,1.6,2.7,2.2,4.3,2.6c3,0.8,6,0.7,9,1c0.6,0.1,1.1,0,1.6-0.3c2.6-1.7,5.5-2.9,8.7-3.9c-2-1.7-3.6-3.1-5.2-4.7
					c-0.7-0.7-1.4-0.9-2.4-0.6c-3.4,0.8-6.8,1.3-10.3,1.2c-0.9,0-1.7,0.2-2.3,1C208.8,297.6,207.7,298.7,206.4,300z"/>
				<path class="st0" d="M300.3,304.9c0.5-1.7,1.6-2.6,2.3-3.7c0.6-0.9,0.9-1.8,0.1-2.7c-0.9-1-1.9-1-3-0.5
					c-0.9,0.4-1.4,1.1-1.9,1.8c-3,3.8-6.3,7.3-9.6,10.8c-3.7,4-8.4,6.4-13.6,7.5c-12.4,2.7-24.7,2.2-37-1c-4-1.1-8-2.2-11.8-4
					c-0.9-0.5-1.8-0.9-2.7-1.4c-1.2-0.6-1.2-1.5-0.4-2.5c1-1.2,2.4-2.1,3.8-2.8c2.8-1.5,5.9-2,9.1-2.3c2.1-0.2,4.4-0.3,4.8-2.8
					c0.3-2.1-1.7-2.9-3.2-3.9c-2.3-1.4-4.5-3-6.6-4.6c-6.7-5.1-8.3-11.9-6.8-19.8c2-10.6,8-18.7,16.4-25c4.6-3.5,9.5-6.3,15-8.2
					c2.7-0.9,3.6-2.1,2.9-3.6c-0.6-1.3-1.9-1.6-4.4-0.8c-13.7,4.7-24.7,12.7-31.4,25.8c-3.3,6.5-5,13.5-3.9,20.9
					c0.4,2.6,1.2,5,2.3,7.6c-5.5,1.2-10.8,1-16-0.2c-3.8-0.9-7.6-1.9-11.2-3.5c-2.4-1.1-3.2-0.8-4.9,1.2c-3.2,3.6-6.4,7.2-9.4,11
					c-3,3.8-6.9,5.1-11.6,4.7c-3.4-0.3-6.6-1.4-9.6-2.9c-1.5-0.8-1.8-1.7-1.2-3.2c1.4-3.2,2.8-6.4,4.7-9.3c5.7-8.8,6.6-18.2,3.4-28
					c-1-3.2-2.1-6.4-3.3-9.5c-2.7-6.6-3.5-13.4-2.3-20.5c1.2-6.8,2.8-13.4,5-19.9c0.7-1.9,0.5-3.1-1.1-4.4
					c-5.5-4.5-9.7-10.2-13.7-16.1c-2.1-3.1-3.4-6.5-3.8-10.3c-0.4-4.2,0.6-8,3.3-11.3c2-2.5,4.3-4.6,7.1-6.2
					c9.5-5.3,19.5-8.4,30.5-8.4c1.5,0,2.9,0.3,4.4,0.4c2.5,0,3.5-1.3,2.6-3.7c-1-2.6-2-5.2-2.9-7.9c-3.4-9.8-2.1-19.1,2.7-28
					c6-10.8,14.1-19.6,25.3-25.3c0.7-0.4,1.4-0.7,2.1-1c0.3-0.1,0.6-0.1,1.1-0.1c-0.1,2.3-1.4,4.1-2.2,6c-1.2,2.8-2.5,5.5-3.3,8.4
					c-1.9,6.2-1.6,12.4,0.2,18.6c0.6,1.9,0.6,3.5-0.4,5.4c-3.5,6.7-5.6,13.9-6.2,21.5c-0.2,2.7,0.2,3.8,1.8,4.1
					c1.6,0.2,2.6-0.8,2.9-3.4c1-8.6,3.8-16.7,8.5-23.9c5.9-9,13.6-16.1,24-19.6c1.7-0.6,3.5-1,5.3-0.8c2,0.2,2.3,0.6,2.3,2.5
					c-0.1,2.5-1.1,4.8-2.3,7c-2,3.5-4.3,6.9-6,10.5c-4.1,8.8-5.1,18-4.4,27.6c0.4,5.6,1.2,11.1,0.8,16.8c-0.4,5.7-2.4,10.4-7,14
					c-0.2,0.1-0.4,0.3-0.5,0.4c-0.9,0.7-1.9,1.4-1.4,2.8c0.5,1.3,1.7,1.7,3,1.8c3.3,0.1,6.5,0.1,9.7,0.3c13,0.7,24.5,5.2,34.7,13.1
					c3.9,3,6.8,6.8,9.4,11c9.8,16,14,33.4,12.6,52.1c-0.4,5.8-2.3,11.4-4.1,17c-0.3,1.1-0.8,2.1-1.1,3.2c-0.5,2,0,3.2,1.4,3.6
					c1.7,0.4,2.5-0.6,3-2c1.3-3.6,2.6-7.2,3.7-10.8c1.1-3.8,2.1-7.6,2.3-11.5c0.1-1.8,0.7-3.2,2-4.5c3.1-3.1,6.2-6.2,9.5-9
					c2.3-1.9,4.8-3.3,7.8-3.8c3.2-0.6,4.8,0.2,6.4,3c1.2,2.2,1.7,4.6,1.8,7.1c0.5,8.6-2.2,16.3-6,23.9c-5.1,10.1-12.5,18-22.7,23.1
					C305.1,303.6,303,304.5,300.3,304.9z M183.5,166.9c0.7-0.3,1.2-0.9,0.6-1.4c-0.3-0.3-0.9,0.3-1.2,0.8c-0.1,0.1-0.1,0.2-0.1,0.3
					c-2.9,4.6-2.7,7.3,0.7,12c-0.3,0.2-0.6,0.4-0.9,0.5c-3.7,2.1-3.8,4.9-0.3,7.1c0.7,0.4,1.4,0.7,2.2,0.9c2.6,0.5,5.3,1.1,7.9,1.5
					c2.5,0.3,4.9,0.1,7.3-0.8c2.9-1.2,3.2-4.1,0.9-6.1c-1.8-1.6-4.1-1.8-6.2-2.3c0.6-0.7,1.2-1.3,1.8-2c2.4-3.1,2.4-7.1,0.1-10.2
					c-1.5-2-3.4-3.1-5.8-3.6c-1.1-0.5-2.1-0.3-3.1,0.5c1,0.6,2.1,0.7,3.2,0.8c2.7,2.1,3.2,4.5,1.7,6.8c-1.4,2.1-4.2,2.8-6.5,1.5
					C183.5,171.9,182.9,170.2,183.5,166.9z"/>
				<path class="st1" d="M157.7,256c4,9.7,5,18.8-0.5,27.8c-0.8,1.4-1.7,2.2-3.4,2.2c-3.1,0-6.3,0.3-9.4-0.4c-3.8-0.9-4.2-2-1.6-4.9
					c4.6-5,8.6-10.3,11.4-16.6C155.3,261.6,156.4,259.1,157.7,256z"/>
				<path class="st1" d="M206.4,300c1.2-1.4,2.4-2.5,3.3-3.7c0.6-0.8,1.4-1,2.3-1c3.5,0.1,6.9-0.4,10.3-1.2c1-0.2,1.7-0.1,2.4,0.6
					c1.6,1.5,3.3,2.9,5.2,4.7c-3.2,1-6.1,2.1-8.7,3.9c-0.5,0.3-1,0.4-1.6,0.3c-3-0.3-6-0.2-9-1C209.1,302.2,207.5,301.6,206.4,300z"
					/>
				
					<ellipse transform="matrix(0.1756 -0.9845 0.9845 0.1756 -23.2479 338.9866)" class="st2" cx="190.8" cy="183.4" rx="6.3" ry="13.1"/>
				<circle cx="189.1" cy="171.7" r="8.9"/>
				<circle class="st0" cx="187.4" cy="167.7" r="5.4"/>
			</g>
		</g>
	</g>
</g>
<g id="Layer_2_00000146490445881832678780000000928393151786901664_">
	
		<image style="overflow:visible;opacity:0.75;enable-background:new    ;" width="1875" height="1100" xlink:href="DC1D4AD16EA8F121.png"  transform="matrix(0.248 0 0 0.248 17 164.979)">
	</image>
	<g>
		<g>
			<g>
				<path d="M160.6,316.3c-5.3-1.4-10.6-3-15.9-4.8c-28.4-9.6-50.3-27.3-65.6-53.1c-3.9-6.6-6.4-13.7-7.8-21.2
					c-0.8-4.2-0.7-8.3,0.1-12.5c1.7-8.7,12.3-11.6,18.2-7.8c2.4,1.5,4.4,3.3,6.2,5.5c5.2,6.3,10.3,12.8,15.6,19
					c14.7,17.2,32,31.1,52.7,40.5c5.8,2.6,11.9,4.4,18,6c1.5,0.4,2.3-0.2,3.3-0.9c9.9-7.5,20.7-13.2,32.4-17.1
					c31.5-10.6,63-11.2,94.6,0c1.8,0.6,3.1,0.4,4.4-0.7c2.5-2,4.6-4.3,6.5-6.9c10.5-14.2,17.8-30.1,22.8-47
					c2.1-7.3,4.1-14.6,6.2-21.9c1-3.4,2-6.7,3.7-9.7c3.8-6.8,10.4-8,16.4-2.9c4.7,4,6.6,9.4,8.1,15.2c2.4,9.5,1.7,19,0.3,28.4
					c-3,20-9.3,39-19.7,56.5c-2.8,4.7-6,9.3-9.2,13.8c-1.3,1.7-0.2,2.5,0.5,3.7c0.8,1.3,1.6,1.8,3.2,1.1c5.6-2.4,10.6-5.8,15.2-9.7
					c7.6-6.5,13.9-14.2,20.1-22c7.3-9.1,14.3-18.5,22.5-26.8c4.8-4.9,10.1-9.3,16.1-12.7c2.5-1.4,5.1-2.6,7.9-3.3
					c4.4-1,8.4,0.5,11,4.3c1.3,1.9,2.1,4,2.6,6.2c1.9,8.2,1.1,16.3-2,24.1c-3.4,8.8-8.5,16.6-14.5,23.8
					c-13.6,16.5-29.6,30.2-48.3,40.7c-6.5,3.6-13.4,6-20.3,8.7c-1,0.4-2.1,0.5-2.4,2c-0.6,3.8-0.5,4.1,3.4,4.5
					c9.8,0.8,19.4-0.3,28.9-2.7c13.1-3.3,25.2-9,37.2-15.1c5.8-3,11.7-5.8,18.1-7.5c1.5-0.4,3-0.7,4.5-0.7c5.5-0.1,9.5,2.3,11.9,7.1
					c2.5,5,3,10.2,1.4,15.5c-2.5,7.9-7.1,14.5-13.1,20.1c-8.5,7.9-18.5,13-29.4,16.6c-15.2,5-30.7,5.9-46.3,2.2
					c-9.3-2.2-18.6-4.1-27.3-8.2c-1-0.5-1.4-0.1-2,0.6c-1.7,2.1-3.4,4.1-5.1,6.1c-0.7,0.8-0.7,1.6-0.6,2.5c0.2,4.4,0.3,8.8-0.4,13.2
					c-0.5,3.1-1.3,6.2-3,9c-1.9,3.1-4.6,4.9-8.2,5.3c-4.5,0.5-8.8-0.1-13-1.6c-2.9-1.1-5.7-2.2-8.5-3.5c-1.1-0.5-1.8-0.5-2.9,0
					c-14.6,6.2-29.8,9.6-45.5,10.7c-9,0.6-18,0.5-27-0.7c-1.9-0.2-3,0.2-4,1.8c-2.3,3.3-4.9,6.3-8,8.9c-4,3.3-8.6,4.6-13.7,4
					c-3.5-0.4-6.2-2-8.1-4.9c-1.7-2.6-2.7-5.5-3.1-8.6c-0.4-3.4-0.7-6.7-1-10.1c-0.1-1.1-0.5-1.7-1.4-2.1c-1.9-1-3.9-1.9-5.7-3
					c-1.4-0.9-2.3-0.6-3.5,0.3c-6.4,5.1-13,9.9-19.9,14.4c-11.8,7.7-24.7,12.6-38.6,15c-11.4,2-22.8,2.6-34.2,0.5
					c-13.7-2.6-26.1-8.1-37.1-16.8c-4.2-3.3-7.8-7.3-10.1-12.2c-3.1-6.6-1.4-12,4.9-15.7c5-2.9,10.6-3.4,16.3-3.6
					c6.4-0.2,12.7,1.1,18.7,2.8c10.9,3.1,22,4.2,33.1,3.3c14-1.1,27.5-4.4,39-13.2c0.5-0.4,1-0.8,1.5-1.1c0.7-0.5,1-1,0.5-2
					c-2.1-4.6-2-4.6-7.1-3.8c-3.2,0.6-6.4,1.2-9.7,1.8c-20.5,3.4-40.8,2.9-60.9-2.3c-6.8-1.8-13.7-3.5-20.2-6.2
					c-14.5-6.1-25.7-15.8-32.6-30.2c-2-4.1-3.1-8.4-3-13c0.2-6.3,3.6-9.9,9.8-10.3c3-0.2,5.9,0.4,8.8,1.3c4.4,1.3,8.6,3.2,12.8,5.1
					c19.7,8.9,40.4,14,61.9,15.2c9.6,0.5,19.3,0.1,28.7-2.1c2.2-0.5,4.4-1,6.6-1.3C159.6,319.3,160.5,318.3,160.6,316.3z
					 M273.6,402.8c5.7-0.6,15.7-2.8,25.4-6.1c14.5-5,27.7-12.1,39-22.6c7.3-6.8,13.3-14.5,17-23.8c6.2-15.1,5-29.8-2.9-44
					c-4.3-7.6-10.3-13.8-17.2-19c-11.8-8.9-25.2-14.4-39.5-17.6c-22.7-5-45.4-4.2-67.8,2c-14.5,4-28,10.2-40,19.5
					c-8.9,6.9-16.5,15.1-21.6,25.2c-4.4,8.7-6.4,17.9-5.5,27.6c1.1,11.5,6,21.4,13.6,29.9c8.9,10,20,16.8,32.4,21.6
					C226.8,403.5,247.7,405.5,273.6,402.8z M157.2,325.1c-0.8-0.5-1.6,0-2.4,0.1c-12,2.7-24.1,3.4-36.3,2.4
					c-21.2-1.6-41.5-6.9-60.9-15.7c-4.3-2-8.6-3.9-13.2-5c-2.2-0.6-4.4-0.8-6.7-0.4c-2.3,0.4-3.5,1.5-3.8,3.8
					c-0.4,2.2-0.3,4.5,0.3,6.7c2,7.4,6,13.6,11,19.3c6.5,7.3,14.7,12.1,23.7,15.4c21.3,7.6,43.2,11,65.8,8.7c7.2-0.7,14.4-2,21.6-3
					c2.2-0.3,2.2-0.4,1.6-2.5c-2.8-9-2.9-18.1-0.8-27.3C157.3,326.6,157.7,325.9,157.2,325.1z M186.2,390.3
					c-0.9-0.6-1.4-0.9-1.9-1.2c-6.6-4.6-12.4-10-17.2-16.5c-1.4-1.8-1.4-1.8-3.3-0.4c-5.7,4.4-12,7.7-18.9,10
					c-14.6,4.7-29.4,5.8-44.6,3.8c-6.8-0.9-13.4-3-20.1-4.4c-6-1.3-12-1.3-18-0.3c-2.9,0.4-5.6,1.4-7.9,3.2
					c-2.4,1.9-3.1,3.9-2.2,6.8c0.4,1.4,1.1,2.7,1.8,3.9c1.9,3.2,4.4,5.9,7.3,8.2c10.6,8.5,22.7,13.7,36,16.2
					c9.7,1.8,19.4,1.3,29-0.2c10.6-1.6,20.8-4.3,30.4-9.4c10.1-5.3,19.3-11.9,28.5-18.7C185.3,391.1,185.5,390.9,186.2,390.3z
					 M364.2,327.8c0.5-0.1,0.9,0,1.3-0.2c5.9-2.2,11.9-4.3,17.5-7.4c16.7-9.1,31.2-21,43.8-35.2c6.6-7.4,12.5-15.4,16.7-24.5
					c2.6-5.7,4.1-11.6,3.9-17.8c-0.1-3.3-0.7-6.5-2-9.5c-1.6-3.6-3.9-4.6-7.7-3.5c-2.1,0.6-4,1.5-5.9,2.6c-4.5,2.5-8.5,5.6-12.3,9.2
					c-7.4,7.1-13.8,15.1-20.2,23.1c-5.7,7.1-11.3,14.3-17.5,21c-6.9,7.3-14.5,13.5-23.9,17.4c-1.5,0.6-1.6,1.2-0.8,2.5
					c2.9,5.2,4.9,10.8,6.1,16.6C363.6,323.9,363.3,326,364.2,327.8z M354.8,361.7c1.2,0.9,2.6,1.4,3.9,1.9
					c7.4,2.9,15.1,4.5,22.7,6.3c12.9,3,25.8,2.7,38.6-0.7c11.1-2.9,21.4-7.5,30.3-14.9c5.8-4.8,10.4-10.4,13.3-17.4
					c1.3-3.2,2-6.4,1.5-9.9c-1.3-8.1-5.7-10.9-13.5-8.6c-6.1,1.8-11.8,4.6-17.4,7.5c-10,5.1-20.2,9.9-31,13.2
					c-12.7,4-25.7,5.9-39,3.7c-1.5-0.2-1.7,0.4-2,1.5c-1.5,5.7-3.8,11-6.8,16.1C355.1,360.9,355,361.3,354.8,361.7z M179.2,292.1
					c-1-1-1.9-0.9-2.8-1.1c-5.5-1.3-10.8-3.1-15.9-5.6c-21.4-10.1-39.2-24.7-54.2-42.9c-4.6-5.6-9.2-11.3-13.8-16.9
					c-1.4-1.7-3-3.4-5-4.5c-4.6-2.6-10.2-0.2-11.3,4.9c-0.7,3.1-0.9,6.3-0.3,9.5c1.3,6.7,3.2,13.2,6.6,19.1
					c6.1,10.7,13.5,20.2,22.6,28.5c16.1,14.8,35.3,23.1,56.1,28.4c1.6,0.4,2.3-0.1,3.1-1.4c3.7-6.2,8.3-11.7,13.5-16.6
					C178.2,293.1,178.6,292.6,179.2,292.1z M319.9,272.7c2.5,1.3,5,2.6,7.4,4c2.4,1.4,4.8,2.8,7.1,4.4c2.4,1.6,4.6,3.4,6.8,5.2
					c2.2,1.8,4.2,3.8,6.5,5.8c1.7-1.2,2.3-3.1,3.5-4.7c4.9-6.7,9.3-13.8,12.6-21.4c7.2-17,12.7-34.6,13.6-53.3
					c0.3-7-0.5-13.7-2.6-20.3c-1.2-3.5-3-6.5-6-8.7c-3-2.2-5.8-1.7-7.9,1.4c-1,1.5-1.7,3.3-2.4,5c-1.5,4-2.5,8.2-3.6,12.4
					c-3.6,12.9-7.2,25.9-13,38C336.2,252.2,329.7,263.3,319.9,272.7z M229,406.8c-8.9-1.5-17.1-4.1-25.2-7c-0.1,0-0.2,0.1-0.3,0.1
					c-0.1,0.1-0.1,0.1-0.3,0.3c0.4,3.9,0.5,7.9,1.9,11.7c1.6,4.6,4.2,6.3,9.1,6c2.9-0.2,5.4-1.2,7.5-3
					C224.5,412.6,226.8,410,229,406.8z M316.5,394.5c5.2,3.1,10.5,4.4,16.3,3.9c2.8-0.2,4.7-1.9,5.7-4.5c2-4.9,2.3-10,2-15.7
					C333.1,385,325.2,390.1,316.5,394.5z"/>
				<path class="st3" d="M273.6,402.8c-25.9,2.8-46.8,0.7-67-7.1c-12.4-4.8-23.5-11.6-32.4-21.6c-7.6-8.6-12.6-18.4-13.6-29.9
					c-0.9-9.7,1.1-18.9,5.5-27.6c5.1-10.2,12.6-18.3,21.6-25.2c12-9.3,25.5-15.5,40-19.5c22.4-6.2,45-7,67.8-2
					c14.3,3.2,27.7,8.6,39.5,17.6c6.9,5.2,12.9,11.4,17.2,19c7.9,14.2,9.1,28.9,2.9,44c-3.8,9.3-9.8,17-17,23.8
					c-11.3,10.5-24.6,17.6-39,22.6C289.3,400,279.4,402.2,273.6,402.8z M302,351.1c0,1-0.6,1.7-1.1,2.5c-1.6,2.7-1,4.9,1.9,6.3
					c1,0.5,2.1,0.8,3.2,0.9c6.6,0.6,12.8-0.5,18.6-3.6c2.3-1.2,4.1-4.1,3.8-5.9c-0.3-2.1-2.9-3.8-5.9-4.1c-3-0.4-5.9,0-8.8,0.3
					c-0.1-0.7,0.3-1.2,0.5-1.7c1.6-4.6-1-9.6-5.6-11.1c-4.7-1.5-9.6,1-11,5.7C296.2,344.5,297.6,347.9,302,351.1z M220,359.4
					c-0.4,0.7-1,0.9-1.8,1c-2.7,0.3-5.1,1.5-7.4,2.7c-3.1,1.5-4.6,3.8-4.1,6.1c0.5,2.3,2.4,3.6,5.8,4.1c6.3,0.9,12.1-0.8,17.7-3.4
					c1.3-0.6,2.4-1.5,3.3-2.6c0.9-1.1,1.2-2.3,1-3.7c-0.5-2.9-2.7-3.5-5.2-3.9c0.7-0.7,1.5-1.4,2.2-2.1c2.4-2.8,2.8-6.8,1-10
					c-1.7-3.1-5.3-4.8-8.8-4.4c-3.7,0.5-6.6,3.1-7.4,6.8C215.4,354,217.1,356.9,220,359.4z M277.2,366.3c5.4-0.6,10.9-2.7,14.3-5.3
					c0.9-0.7,1.8-1.4,2.4-2.4c0.5-0.9,0.6-1.7-0.1-2.6c-0.7-0.8-1.6-1-2.5-0.6c-0.7,0.3-1.4,0.9-2.1,1.3c-6.6,4.4-13.5,6.8-21.3,2.8
					c-1.5-0.8-3.2-0.7-4.7,0c-1.8,0.8-3.5,1.7-5.3,2.4c-3.5,1.4-7,2.2-10.8,1.2c-1.2-0.3-2.3-0.9-3.4-1.4c-1-0.4-1.9,0-2.4,0.8
					c-0.6,0.9-0.4,1.8,0.3,2.5c1,1,2.4,1.6,3.7,2c4.1,1.3,8.1,1.1,12.1-0.2c2.1-0.7,4.2-1.6,6.2-2.5c1.2-0.5,2.3-0.8,3.5-0.1
					C270.6,366.4,274.4,366.5,277.2,366.3z"/>
				<path class="st4" d="M157.2,325.1c0.5,0.8,0,1.6-0.1,2.4c-2.1,9.2-2.1,18.3,0.8,27.3c0.7,2.2,0.6,2.2-1.6,2.5
					c-7.2,1-14.3,2.3-21.6,3c-22.6,2.3-44.5-1.1-65.8-8.7c-9.1-3.2-17.2-8.1-23.7-15.4c-5-5.6-9-11.9-11-19.3
					c-0.6-2.2-0.6-4.5-0.3-6.7c0.4-2.2,1.6-3.4,3.8-3.8c2.3-0.4,4.5-0.1,6.7,0.4c4.6,1.1,8.9,3.1,13.2,5
					c19.4,8.8,39.7,14.1,60.9,15.7c12.2,0.9,24.3,0.2,36.3-2.4C155.6,325,156.4,324.6,157.2,325.1z"/>
				<path class="st4" d="M186.2,390.3c-0.6,0.6-0.9,0.8-1.1,1c-9.1,6.8-18.4,13.4-28.5,18.7c-9.5,5-19.8,7.8-30.4,9.4
					c-9.7,1.5-19.3,1.9-29,0.2c-13.3-2.4-25.4-7.7-36-16.2c-2.9-2.3-5.4-5-7.3-8.2c-0.7-1.2-1.4-2.5-1.8-3.9
					c-0.9-2.9-0.2-4.9,2.2-6.8c2.3-1.8,5-2.8,7.9-3.2c6-0.9,12-0.9,18,0.3c6.7,1.4,13.2,3.5,20.1,4.4c15.1,2,30,0.9,44.6-3.8
					c6.9-2.2,13.2-5.5,18.9-10c1.9-1.4,1.9-1.4,3.3,0.4c4.8,6.5,10.7,11.9,17.2,16.5C184.7,389.4,185.3,389.7,186.2,390.3z"/>
				<path class="st4" d="M364.2,327.8c-0.9-1.8-0.6-3.8-0.9-5.7c-1.2-5.9-3.1-11.4-6.1-16.6c-0.7-1.3-0.6-1.8,0.8-2.5
					c9.4-3.9,17-10.1,23.9-17.4c6.2-6.6,11.8-13.8,17.5-21c6.3-8,12.7-16.1,20.2-23.1c3.7-3.5,7.8-6.6,12.3-9.2
					c1.9-1.1,3.8-2,5.9-2.6c3.8-1.1,6.1-0.1,7.7,3.5c1.4,3,1.9,6.2,2,9.5c0.2,6.3-1.3,12.2-3.9,17.8c-4.2,9.1-10.1,17.1-16.7,24.5
					c-12.7,14.2-27.1,26.1-43.8,35.2c-5.6,3-11.6,5.1-17.5,7.4C365.1,327.7,364.7,327.7,364.2,327.8z"/>
				<path class="st4" d="M354.8,361.7c0.2-0.5,0.3-0.9,0.5-1.2c3-5,5.3-10.4,6.8-16.1c0.3-1.1,0.4-1.8,2-1.5
					c13.3,2.2,26.3,0.3,39-3.7c10.8-3.4,21-8.1,31-13.2c5.6-2.9,11.3-5.7,17.4-7.5c7.8-2.3,12.2,0.6,13.5,8.6
					c0.6,3.4-0.1,6.7-1.5,9.9c-2.9,6.9-7.5,12.6-13.3,17.4c-8.9,7.4-19.3,12-30.3,14.9c-12.8,3.3-25.6,3.7-38.6,0.7
					c-7.7-1.8-15.4-3.4-22.7-6.3C357.4,363.1,356,362.6,354.8,361.7z"/>
				<path class="st4" d="M179.2,292.1c-0.6,0.6-1,1-1.4,1.4c-5.2,4.9-9.8,10.4-13.5,16.6c-0.8,1.4-1.6,1.8-3.1,1.4
					c-20.8-5.3-40.1-13.7-56.1-28.4c-9.1-8.3-16.6-17.9-22.6-28.5c-3.4-5.9-5.3-12.4-6.6-19.1c-0.6-3.1-0.4-6.3,0.3-9.5
					c1.1-5.2,6.6-7.5,11.3-4.9c2,1.1,3.6,2.7,5,4.5c4.6,5.6,9.2,11.3,13.8,16.9c15,18.2,32.9,32.8,54.2,42.9
					c5.1,2.4,10.4,4.3,15.9,5.6C177.2,291.2,178.2,291.1,179.2,292.1z"/>
				<path class="st4" d="M319.9,272.7c9.8-9.4,16.3-20.4,21.9-32.2c5.8-12.2,9.4-25.1,13-38c1.2-4.1,2.1-8.3,3.6-12.4
					c0.6-1.7,1.3-3.4,2.4-5c2.1-3.1,4.8-3.6,7.9-1.4c3,2.2,4.9,5.2,6,8.7c2.2,6.6,3,13.3,2.6,20.3c-0.9,18.7-6.3,36.3-13.6,53.3
					c-3.2,7.6-7.7,14.7-12.6,21.4c-1.1,1.5-1.8,3.4-3.5,4.7c-2.2-2-4.3-4-6.5-5.8c-2.2-1.8-4.5-3.6-6.8-5.2c-2.3-1.6-4.7-3-7.1-4.4
					C324.9,275.3,322.4,274,319.9,272.7z"/>
				<path class="st3" d="M229,406.8c-2.3,3.3-4.6,5.9-7.2,8.1c-2.2,1.8-4.7,2.8-7.5,3c-4.8,0.3-7.5-1.4-9.1-6
					c-1.3-3.8-1.5-7.8-1.9-11.7c0.1-0.1,0.2-0.2,0.3-0.3c0.1-0.1,0.2-0.2,0.3-0.1C211.9,402.7,220.1,405.2,229,406.8z"/>
				<path class="st3" d="M316.5,394.5c8.7-4.4,16.6-9.6,24-16.2c0.3,5.7,0,10.8-2,15.7c-1.1,2.5-3,4.2-5.7,4.5
					C327.1,398.9,321.7,397.7,316.5,394.5z"/>
				<path d="M277.2,366.3c-2.8,0.2-6.5,0.1-10-1.9c-1.2-0.7-2.3-0.5-3.5,0.1c-2,0.9-4.1,1.8-6.2,2.5c-4,1.3-8,1.5-12.1,0.2
					c-1.4-0.4-2.7-1-3.7-2c-0.7-0.7-0.9-1.7-0.3-2.5c0.5-0.8,1.4-1.2,2.4-0.8c1.1,0.5,2.2,1,3.4,1.4c3.7,1,7.3,0.3,10.8-1.2
					c1.8-0.7,3.5-1.6,5.3-2.4c1.6-0.8,3.2-0.8,4.7,0c7.8,4.1,14.6,1.7,21.3-2.8c0.7-0.5,1.3-1,2.1-1.3c0.9-0.4,1.8-0.3,2.5,0.6
					c0.7,0.8,0.6,1.7,0.1,2.6c-0.6,1-1.5,1.7-2.4,2.4C288,363.6,282.6,365.7,277.2,366.3z"/>
				
					<ellipse transform="matrix(0.9749 -0.2226 0.2226 0.9749 -70.8504 78.7358)" class="st2" cx="313.8" cy="353.7" rx="14.9" ry="7.8"/>
				
					<ellipse transform="matrix(0.9894 -0.1451 0.1451 0.9894 -50.7927 35.8459)" class="st2" cx="220.3" cy="366.1" rx="14.9" ry="7.8"/>
				<path d="M229.4,359.7c-3.2,1.5-6.3,1.4-9.3-0.3c-2.9-2.5-4.6-5.4-3.7-9.4c0.8-3.7,3.6-6.3,7.4-6.8c3.5-0.5,7.1,1.3,8.8,4.4
					c1.8,3.2,1.5,7.2-1,10C230.9,358.3,230.1,359,229.4,359.7z M229,350.4c-0.1-2-1.8-3.4-3.7-3.2c-1.8,0.2-3.2,1.7-3,3.5
					c0.1,1.9,1.8,3.4,3.7,3.3C227.8,353.8,229.1,352.2,229,350.4z"/>
				<path d="M313.7,347.5c-0.5,0.5-0.9,1-1.4,1.6c-3,3.1-6.4,3.4-10.3,2c-4.4-3.2-5.8-6.5-4.5-10.7c1.5-4.7,6.3-7.2,11-5.7
					c4.6,1.5,7.2,6.5,5.6,11.1C313.9,346.3,313.6,346.8,313.7,347.5z M307.6,341.9c-0.2-2-1.8-3.4-3.7-3.2c-1.8,0.2-3.1,1.8-3,3.6
					c0.2,2,1.8,3.4,3.7,3.2C306.5,345.3,307.7,343.7,307.6,341.9z"/>
				<circle cx="224.9" cy="352.5" r="9.4"/>
				<circle cx="305.9" cy="343.2" r="9.4"/>
				<path class="st0" d="M229,350.4c0.1,1.8-1.2,3.4-3,3.6c-1.9,0.2-3.6-1.3-3.7-3.3c-0.1-1.8,1.2-3.4,3-3.5
					C227.2,347,228.8,348.5,229,350.4z"/>
				<path class="st0" d="M307.6,341.9c0.1,1.9-1.1,3.4-3,3.6c-1.9,0.2-3.6-1.2-3.7-3.2c-0.1-1.8,1.2-3.4,3-3.6
					C305.8,338.5,307.4,339.9,307.6,341.9z"/>
			</g>
		</g>
	</g>
</g>
</svg>
