<?xml version="1.0" encoding="utf-8"?>
<!-- Generator: Adobe Illustrator 26.2.1, SVG Export Plug-In . SVG Version: 6.00 Build 0)  -->
<svg version="1.1" id="Layer_2_00000135681889998575406930000006003391160062969521_"
	 xmlns="http://www.w3.org/2000/svg" xmlns:xlink="http://www.w3.org/1999/xlink" x="0px" y="0px" viewBox="0 0 500 500"
	 style="enable-background:new 0 0 500 500;" xml:space="preserve">
<style type="text/css">
	.st0{fill:#FEE2E2;}
	.st1{fill:#E2A4A4;}
	.st2{fill:#EDBABA;}
	.st3{fill:#FFFFFF;}
</style>
<g id="Layer_2_00000080184830069525313650000005762821578976427963_">
	
		<image style="overflow:visible;opacity:0.75;enable-background:new    ;" width="1875" height="1100" xlink:href="A81D230FF7D89F2B.png"  transform="matrix(0.2598 4.564191e-02 -4.564191e-02 0.2598 36.2061 69)">
	</image>
	<g>
		<g>
			<g>
				<path d="M158.8,254c-5.3-2.5-10.6-5.1-15.7-7.9c-28-15.3-47.7-37.8-59-67.7c-2.9-7.6-4.2-15.5-4.3-23.7c0-4.5,0.8-8.9,2.5-13.1
					c3.4-8.8,15-9.8,20.5-4.8c2.2,2,4,4.3,5.5,6.9c4.3,7.6,8.4,15.3,12.8,22.8c12.2,20.8,27.8,38.5,47.7,52.1
					c5.6,3.8,11.6,6.8,17.8,9.6c1.5,0.7,2.5,0.3,3.6-0.3c11.7-6,24.1-10,37.1-12c35-5.3,68.1-0.1,99.1,17.4c1.8,1,3.1,1,4.8,0.1
					c3-1.6,5.6-3.7,8.1-6c13.7-13,24.2-28.2,32.5-45.1c3.6-7.2,7-14.5,10.5-21.8c1.6-3.3,3.4-6.6,5.7-9.5c5.3-6.5,12.4-6.5,17.8,0
					c4.2,5.1,5.2,11.1,5.7,17.4c0.7,10.3-1.7,20.2-4.9,29.8c-6.9,20.4-16.9,39.1-31,55.5c-3.8,4.5-8,8.6-12.2,12.7
					c-1.6,1.6-0.7,2.6-0.1,3.9c0.6,1.5,1.3,2.2,3.2,1.7c6.3-1.5,12.2-4.1,17.7-7.4c9.2-5.4,17.2-12.3,25.1-19.3
					c9.3-8.2,18.4-16.7,28.5-24c6-4.3,12.3-7.9,19.2-10.3c2.9-1,5.8-1.8,8.9-2c4.9-0.3,8.7,2.1,10.7,6.5c1,2.2,1.4,4.6,1.6,7
					c0.5,9-1.8,17.2-6.5,24.9c-5.2,8.6-12,15.8-19.6,22.3c-17.3,14.8-36.6,26.2-58.1,33.8c-7.4,2.6-15.2,3.8-22.9,5.4
					c-1.1,0.2-2.3,0.2-2.9,1.7c-1.3,3.9-1.3,4.3,2.8,5.3c10.1,2.6,20.4,3.2,30.8,2.5c14.3-1.1,28.1-4.8,41.7-9
					c6.7-2.1,13.4-4,20.3-4.6c1.6-0.1,3.3-0.2,4.9,0.1c5.8,0.9,9.5,4.2,11.2,9.7c1.7,5.7,1.3,11.2-1.4,16.5
					c-4,7.9-10.1,13.9-17.4,18.6c-10.3,6.7-21.8,10.3-33.9,12c-16.9,2.4-33.2,0.5-48.9-6.2c-9.3-4-18.7-7.7-27-13.6
					c-0.9-0.7-1.5-0.4-2.2,0.3c-2.1,1.9-4.3,3.7-6.5,5.5c-0.9,0.7-1,1.5-1.1,2.5c-0.6,4.6-1.3,9.3-2.8,13.8
					c-1.1,3.2-2.5,6.3-4.8,8.9c-2.5,2.9-5.7,4.3-9.6,4c-4.8-0.3-9.2-1.7-13.3-4.1c-2.8-1.6-5.6-3.4-8.3-5.2c-1-0.7-1.8-0.8-3-0.6
					c-16.4,3.8-33,4.6-49.7,2.9c-9.6-1-19-2.8-28.1-5.7c-1.9-0.6-3.2-0.3-4.6,1.1c-3,3.1-6.3,5.7-10,7.8c-4.8,2.7-9.8,3.3-15.1,1.7
					c-3.6-1.1-6.1-3.3-7.6-6.7c-1.3-3.1-1.9-6.3-1.7-9.6c0.2-3.6,0.5-7.2,0.9-10.8c0.1-1.2-0.2-1.8-1.1-2.5
					c-1.8-1.4-3.7-2.7-5.4-4.2c-1.3-1.2-2.3-1.1-3.7-0.3c-7.6,4.2-15.5,8-23.5,11.4c-13.8,5.9-28.2,8.6-43.2,8.6
					c-12.3-0.1-24.3-1.5-35.9-5.8C57,349.6,45,341.5,35.1,330.4c-3.8-4.3-6.8-9.1-8.3-14.7c-2.1-7.4,0.7-12.9,8-15.5
					c5.8-2.1,11.8-1.6,17.8-0.7c6.8,1,13.1,3.5,19.1,6.4c10.8,5.2,22.2,8.5,34.1,9.6c14.9,1.4,29.6,0.4,43.3-6.7
					c0.6-0.3,1.2-0.6,1.7-0.9c0.9-0.4,1.2-0.9,0.9-2c-1.4-5.2-1.3-5.2-6.8-5.3c-3.5,0-7,0.1-10.5,0.1c-22.1-0.2-43.2-4.5-63.4-13.6
					c-6.8-3.1-13.7-6.2-20-10.2c-14.1-9-24-21.3-28.6-37.6c-1.3-4.7-1.7-9.4-0.8-14.2c1.3-6.5,5.6-9.7,12.2-9c3.2,0.3,6.1,1.5,8.9,3
					c4.4,2.2,8.5,4.9,12.5,7.7c19,13,39.7,22.1,62.1,27.3c10,2.3,20.1,3.7,30.5,3.1c2.4-0.1,4.8-0.2,7.2-0.2
					C157.2,257,158.3,256.1,158.8,254z M261.3,365.4c6.1,0.4,17,0,27.8-1.7c16.1-2.6,31.3-7.6,45.1-16.5
					c8.9-5.7,16.6-12.8,22.2-21.8c9.3-14.7,10.8-30.3,5.1-46.6c-3.1-8.8-8.2-16.3-14.5-23.1c-10.7-11.5-23.7-19.7-38.2-25.7
					c-22.9-9.4-46.8-12.8-71.4-10.4c-16,1.5-31.3,5.6-45.5,13.1c-10.6,5.6-20,12.7-27.3,22.5c-6.2,8.3-10,17.5-10.9,27.9
					c-1,12.3,2.4,23.5,8.8,33.9c7.5,12.1,17.9,21.3,30,28.6C212.1,357.5,233.7,363.5,261.3,365.4z M153.6,262.5
					c-0.8-0.6-1.7-0.3-2.5-0.3c-13.1,0.6-25.9-0.9-38.5-4.1c-22-5.6-42.2-14.8-60.9-27.7c-4.1-2.8-8.3-5.6-12.9-7.7
					c-2.2-1-4.5-1.7-6.9-1.7c-2.4,0-3.9,1-4.7,3.3c-0.8,2.3-1.2,4.6-1,7.1c0.8,8.1,3.8,15.4,8,22.2c5.5,8.8,13.1,15.4,22,20.5
					c20.9,11.9,43.2,19.4,67.3,21.2c7.7,0.6,15.5,0.5,23.2,0.8c2.3,0.1,2.4,0,2.1-2.4c-1.3-10,0.3-19.5,4.2-28.7
					C153.4,264.2,154,263.5,153.6,262.5z M172,336.2c-0.8-0.8-1.3-1.2-1.8-1.6c-6.1-6-11.2-12.8-15-20.4c-1.1-2.1-1.2-2.1-3.4-1
					c-6.8,3.6-14,5.9-21.7,6.9c-16.1,2.2-31.9,0.7-47.4-4.2c-7-2.2-13.4-5.6-20.2-8.3c-6.1-2.4-12.3-3.5-18.8-3.7
					c-3.1-0.1-6.1,0.4-8.9,1.9c-2.9,1.5-4,3.5-3.5,6.7c0.2,1.5,0.6,3,1.2,4.4c1.4,3.7,3.6,7,6.2,9.9c9.6,10.8,21.2,18.6,34.8,23.6
					c9.8,3.6,20,4.9,30.4,5.2c11.4,0.3,22.6-0.7,33.5-4.2c11.5-3.7,22.5-8.9,33.3-14.3C170.9,336.9,171.2,336.7,172,336.2z
					 M370,303.5c0.5,0,0.9,0.2,1.3,0.1c6.6-1.2,13.3-2.3,19.7-4.5c19.2-6.4,36.5-16.3,52.4-28.8c8.3-6.6,16-13.8,22-22.6
					c3.8-5.5,6.4-11.4,7.4-18c0.5-3.5,0.5-7-0.3-10.4c-1-4.1-3.2-5.5-7.4-5.1c-2.3,0.2-4.5,0.9-6.6,1.7c-5.2,1.8-10,4.3-14.5,7.4
					c-9.1,6-17.2,13.3-25.4,20.5c-7.2,6.4-14.4,12.9-22.2,18.8c-8.5,6.4-17.7,11.5-28.2,13.8c-1.7,0.4-1.9,0.9-1.3,2.4
					c2.1,6,3.1,12.2,3.3,18.6C370.1,299.4,369.4,301.4,370,303.5z M353.9,337.3c1.1,1.2,2.5,1.9,3.7,2.7c7.2,4.3,15,7.5,22.7,10.8
					c13,5.6,26.6,7.5,40.5,6.4c12.1-1,23.8-3.9,34.5-10c6.9-4,12.8-9,17.1-15.8c2-3.1,3.3-6.4,3.4-10.1c0.1-8.7-4-12.4-12.6-11.5
					c-6.8,0.7-13.2,2.7-19.7,4.7c-11.4,3.5-23,6.6-34.9,8.2c-14.1,1.8-28,1.4-41.6-3.3c-1.5-0.5-1.9,0.2-2.4,1.2
					c-2.6,5.7-6,10.8-10.1,15.6C354.4,336.5,354.2,336.9,353.9,337.3z M182.7,232c-0.8-1.2-1.9-1.3-2.7-1.7
					c-5.5-2.4-10.7-5.3-15.7-8.8c-20.6-14.5-36.5-33.1-48.9-55c-3.8-6.7-7.5-13.5-11.4-20.2c-1.2-2.1-2.5-4.1-4.4-5.6
					c-4.4-3.6-10.6-2.1-12.7,3.1c-1.3,3.1-2.1,6.5-2,9.9c0.1,7.2,0.9,14.4,3.4,21.2c4.4,12.3,10.5,23.6,18.4,34
					c14.1,18.4,32.7,30.7,53.6,40.1c1.6,0.7,2.5,0.4,3.6-0.9c5-5.8,10.8-10.7,17.2-15C181.5,232.9,182.1,232.5,182.7,232z
					 M333.8,237.6c2.4,1.9,4.7,3.7,7,5.5c2.3,1.9,4.5,3.8,6.6,5.9c2.2,2.1,4.2,4.4,6.2,6.7c2,2.3,3.7,4.8,5.7,7.3c2-1,3-2.9,4.5-4.3
					c6.4-6.1,12.3-12.7,17.1-20.1c10.7-16.5,19.7-33.9,24-53.3c1.6-7.2,2-14.4,1-21.8c-0.6-3.9-2-7.4-4.7-10.2
					c-2.8-2.9-5.7-2.9-8.5,0c-1.4,1.4-2.4,3.1-3.4,4.8c-2.3,4-4.1,8.2-6.1,12.3c-6.2,12.9-12.3,25.8-20.6,37.5
					C354.6,219.2,345.8,229.6,333.8,237.6z M213.8,361.4c-9.1-3.2-17.2-7.4-25.1-11.9c-0.1,0-0.2,0-0.3,0.1c-0.1,0-0.2,0.1-0.3,0.2
					c-0.3,4.2-0.9,8.4-0.2,12.6c0.9,5.1,3.3,7.3,8.4,7.9c3,0.3,5.8-0.2,8.5-1.7C208,366.7,210.9,364.4,213.8,361.4z M307.8,364.7
					c4.9,4.2,10.2,6.5,16.3,7.1c3,0.3,5.2-1.1,6.8-3.6c3-4.7,4.2-10,5-16.1C326.9,357.7,317.7,361.6,307.8,364.7z"/>
				<path class="st0" d="M261.3,365.4c-27.7-1.9-49.2-7.9-68.9-19.8c-12.1-7.3-22.4-16.5-30-28.6c-6.4-10.4-9.8-21.6-8.8-33.9
					c0.8-10.4,4.7-19.6,10.9-27.9c7.3-9.7,16.6-16.9,27.3-22.5c14.3-7.5,29.6-11.5,45.5-13.1c24.6-2.4,48.5,1,71.4,10.4
					c14.4,5.9,27.5,14.1,38.2,25.7c6.3,6.8,11.5,14.3,14.5,23.1c5.7,16.3,4.2,31.9-5.1,46.6c-5.7,9-13.4,16-22.2,21.8
					c-13.8,8.9-29,13.9-45.1,16.5C278.3,365.4,267.4,365.8,261.3,365.4z M300.5,316.4c-0.2,1-1,1.6-1.6,2.4c-2.2,2.5-1.9,5,0.8,6.9
					c1,0.7,2,1.3,3.2,1.6c6.8,1.8,13.5,1.8,20.2-0.3c2.7-0.9,5-3.5,5.1-5.5c0-2.2-2.3-4.5-5.4-5.4c-3.1-0.9-6.2-1.1-9.3-1.3
					c0-0.7,0.5-1.2,0.8-1.7c2.5-4.5,0.7-10.2-3.9-12.6c-4.7-2.4-10.2-0.7-12.6,3.9C295.7,308.5,296.5,312.3,300.5,316.4z
					 M213.1,310.1c-0.5,0.7-1.3,0.8-2.1,0.7c-2.9-0.2-5.6,0.6-8.3,1.4c-3.6,1-5.5,3.2-5.5,5.6c0.1,2.5,1.9,4.3,5.4,5.4
					c6.4,2.1,12.8,1.4,19.2-0.3c1.5-0.4,2.8-1.1,4-2.1c1.2-1,1.7-2.2,1.7-3.7c0-3.1-2.2-4.2-4.7-5c0.9-0.6,1.8-1.1,2.7-1.8
					c3.1-2.5,4.2-6.6,2.8-10.3c-1.3-3.5-4.7-6.1-8.4-6.2c-4-0.2-7.4,2-9,5.8C209.3,303.6,210.5,307,213.1,310.1z M271.8,327.8
					c5.8,0.4,11.9-0.8,16-2.9c1.1-0.6,2.1-1.1,2.9-2.1c0.7-0.8,1-1.7,0.4-2.7c-0.6-1-1.5-1.3-2.5-1c-0.8,0.2-1.6,0.6-2.4,1
					c-7.8,3.4-15.4,4.7-22.8-1c-1.5-1.1-3.2-1.4-5-0.9c-2,0.6-4,1.1-6,1.6c-3.9,0.9-7.8,1-11.5-0.7c-1.2-0.6-2.2-1.4-3.3-2.1
					c-1-0.6-1.9-0.4-2.7,0.4c-0.7,0.8-0.8,1.8-0.1,2.7c0.9,1.3,2.2,2.1,3.5,2.8c4,2.1,8.3,2.6,12.7,2c2.4-0.3,4.7-0.9,7-1.5
					c1.4-0.3,2.5-0.4,3.7,0.6C264.9,326.7,268.8,327.5,271.8,327.8z"/>
				<path class="st1" d="M153.6,262.5c0.3,0.9-0.3,1.7-0.6,2.5c-3.9,9.2-5.5,18.8-4.2,28.7c0.3,2.4,0.2,2.5-2.1,2.4
					c-7.7-0.3-15.4-0.2-23.2-0.8c-24.1-1.8-46.4-9.3-67.3-21.2c-8.9-5.1-16.6-11.6-22-20.5c-4.2-6.8-7.3-14.1-8-22.2
					c-0.2-2.4,0.1-4.8,1-7.1c0.8-2.3,2.3-3.2,4.7-3.3c2.5,0,4.7,0.7,6.9,1.7c4.6,2,8.8,4.9,12.9,7.7c18.7,12.8,39,22.1,60.9,27.7
					c12.6,3.2,25.5,4.7,38.5,4.1C152,262.2,152.9,261.9,153.6,262.5z"/>
				<path class="st1" d="M172,336.2c-0.8,0.5-1,0.7-1.3,0.8c-10.8,5.4-21.7,10.6-33.3,14.3c-10.9,3.5-22.1,4.5-33.5,4.2
					c-10.4-0.2-20.6-1.5-30.4-5.2c-13.5-5-25.2-12.8-34.8-23.6c-2.6-3-4.7-6.3-6.2-9.9c-0.6-1.4-1-2.9-1.2-4.4
					c-0.4-3.2,0.7-5.2,3.5-6.7c2.8-1.5,5.8-2,8.9-1.9c6.5,0.1,12.7,1.2,18.8,3.7c6.8,2.7,13.2,6.1,20.2,8.3
					c15.5,4.9,31.3,6.5,47.4,4.2c7.6-1.1,14.8-3.4,21.7-6.9c2.2-1.2,2.3-1.1,3.4,1c3.9,7.7,9,14.4,15,20.4
					C170.6,335,171.1,335.5,172,336.2z"/>
				<path class="st1" d="M370,303.5c-0.6-2.1,0.1-4.1,0.1-6.1c-0.2-6.4-1.2-12.6-3.3-18.6c-0.5-1.5-0.3-2.1,1.3-2.4
					c10.5-2.3,19.7-7.4,28.2-13.8c7.8-5.8,15-12.3,22.2-18.8c8.1-7.2,16.3-14.5,25.4-20.5c4.6-3,9.4-5.5,14.5-7.4
					c2.2-0.8,4.3-1.4,6.6-1.7c4.2-0.4,6.4,1,7.4,5.1c0.9,3.4,0.9,6.9,0.3,10.4c-1,6.6-3.6,12.5-7.4,18c-6.1,8.8-13.7,16-22,22.6
					c-15.9,12.5-33.2,22.4-52.4,28.8c-6.4,2.2-13.1,3.2-19.7,4.5C371,303.6,370.5,303.5,370,303.5z"/>
				<path class="st1" d="M353.9,337.3c0.3-0.5,0.5-0.8,0.8-1.1c4.1-4.7,7.5-9.9,10.1-15.6c0.5-1.1,0.8-1.8,2.4-1.2
					c13.6,4.7,27.5,5.1,41.6,3.3c11.9-1.5,23.5-4.6,34.9-8.2c6.4-2,12.9-3.9,19.7-4.7c8.6-0.9,12.7,2.8,12.6,11.5
					c-0.1,3.7-1.4,7-3.4,10.1c-4.3,6.7-10.2,11.8-17.1,15.8c-10.7,6.1-22.4,9-34.5,10c-14,1.1-27.6-0.8-40.5-6.4
					c-7.7-3.3-15.5-6.4-22.7-10.8C356.3,339.2,355,338.5,353.9,337.3z"/>
				<path class="st1" d="M182.7,232c-0.7,0.5-1.2,0.9-1.7,1.2c-6.4,4.2-12.2,9.1-17.2,15c-1.1,1.3-2,1.6-3.6,0.9
					c-20.8-9.4-39.5-21.7-53.6-40.1c-8-10.4-14.1-21.8-18.4-34c-2.4-6.8-3.3-14-3.4-21.2c0-3.4,0.7-6.7,2-9.9
					c2.1-5.2,8.3-6.7,12.7-3.1c1.9,1.5,3.2,3.5,4.4,5.6c3.8,6.7,7.5,13.5,11.4,20.2c12.4,21.8,28.4,40.4,48.9,55
					c4.9,3.5,10.1,6.4,15.7,8.8C180.9,230.7,181.9,230.8,182.7,232z"/>
				<path class="st1" d="M333.8,237.6c12-8,20.8-18.4,28.8-29.7c8.3-11.7,14.5-24.6,20.6-37.5c2-4.1,3.8-8.3,6.1-12.3
					c1-1.7,2-3.4,3.4-4.8c2.8-2.9,5.7-2.9,8.5,0c2.8,2.8,4.1,6.4,4.7,10.2c1.1,7.3,0.7,14.5-1,21.8c-4.3,19.4-13.3,36.8-24,53.3
					c-4.8,7.4-10.7,14-17.1,20.1c-1.5,1.4-2.5,3.3-4.5,4.3c-2-2.5-3.8-5-5.7-7.3c-2-2.3-4-4.6-6.2-6.7c-2.1-2.1-4.3-4-6.6-5.9
					C338.5,241.2,336.2,239.5,333.8,237.6z"/>
				<path class="st0" d="M213.8,361.4c-3,3-5.8,5.3-9,7.2c-2.6,1.5-5.4,2.1-8.5,1.7c-5.1-0.6-7.6-2.8-8.4-7.9
					c-0.7-4.2-0.1-8.4,0.2-12.6c0.2-0.1,0.3-0.2,0.3-0.2c0.1,0,0.2-0.1,0.3-0.1C196.7,353.9,204.8,358.1,213.8,361.4z"/>
				<path class="st0" d="M307.8,364.7c9.9-3.1,19.1-7,28.1-12.6c-0.8,6-1.9,11.3-5,16.1c-1.6,2.5-3.9,3.9-6.8,3.6
					C318,371.2,312.6,368.9,307.8,364.7z"/>
				<path d="M271.8,327.8c-3-0.3-6.9-1.1-10.1-3.8c-1.1-1-2.3-0.9-3.7-0.6c-2.3,0.6-4.6,1.2-7,1.5c-4.4,0.6-8.7,0.1-12.7-2
					c-1.4-0.7-2.6-1.6-3.5-2.8c-0.6-0.9-0.6-1.9,0.1-2.7c0.7-0.8,1.7-1,2.7-0.4c1.1,0.7,2.1,1.5,3.3,2.1c3.7,1.7,7.6,1.6,11.5,0.7
					c2-0.5,4-1,6-1.6c1.8-0.5,3.5-0.3,5,0.9c7.4,5.7,15,4.5,22.8,1c0.8-0.4,1.6-0.8,2.4-1c1-0.3,1.9,0,2.5,1c0.6,1,0.3,1.9-0.4,2.7
					c-0.8,0.9-1.8,1.5-2.9,2.1C283.6,327,277.5,328.2,271.8,327.8z"/>
				
					<ellipse transform="matrix(0.9987 -5.060096e-02 5.060096e-02 0.9987 -15.8579 16.2242)" class="st2" cx="312.5" cy="321.3" rx="15.9" ry="8.2"/>
				
					<ellipse transform="matrix(2.829999e-02 -0.9996 0.9996 2.829999e-02 -110.8262 520.3545)" class="st2" cx="212.2" cy="317.2" rx="8.2" ry="15.9"/>
				<path d="M222.9,312.1c-3.6,0.9-6.8,0.3-9.7-2c-2.6-3.1-3.8-6.5-2.1-10.5c1.5-3.7,5-5.9,9-5.8c3.7,0.1,7.1,2.7,8.4,6.2
					c1.3,3.7,0.2,7.8-2.8,10.3C224.7,311,223.8,311.5,222.9,312.1z M224.2,302.3c0.2-2.1-1.2-3.9-3.3-4.1c-2-0.2-3.6,1.2-3.8,3.1
					c-0.2,2,1.3,3.9,3.3,4.1C222.3,305.6,224,304.2,224.2,302.3z"/>
				<path d="M313.4,314.8c-0.6,0.5-1.2,0.9-1.8,1.4c-3.7,2.7-7.4,2.4-11.1,0.2c-4-4.1-4.8-7.9-2.7-12c2.4-4.6,7.9-6.4,12.6-3.9
					c4.6,2.4,6.3,8.1,3.9,12.6C314,313.7,313.5,314.1,313.4,314.8z M308.1,307.8c0.2-2.1-1.3-3.9-3.3-4.1c-1.9-0.1-3.6,1.3-3.8,3.2
					c-0.2,2.1,1.3,3.9,3.3,4C306.3,311.2,307.9,309.8,308.1,307.8z"/>
				<circle cx="219.5" cy="303.8" r="9.9"/>
				<circle cx="306.1" cy="308.9" r="9.9"/>
				<path class="st3" d="M224.2,302.3c-0.2,1.9-1.9,3.3-3.8,3.2c-2-0.2-3.5-2.1-3.3-4.1c0.2-1.9,1.9-3.3,3.8-3.1
					C222.9,298.4,224.4,300.2,224.2,302.3z"/>
				<path class="st3" d="M308.1,307.8c-0.2,2-1.8,3.4-3.8,3.2c-2-0.1-3.5-2-3.3-4c0.2-1.9,1.9-3.4,3.8-3.2
					C306.8,303.9,308.3,305.7,308.1,307.8z"/>
			</g>
		</g>
	</g>
</g>
</svg>
