<?xml version="1.0" encoding="utf-8"?>
<!-- Generator: Adobe Illustrator 26.1.0, SVG Export Plug-In . SVG Version: 6.00 Build 0)  -->
<svg version="1.1" id="Layer_5" xmlns="http://www.w3.org/2000/svg" xmlns:xlink="http://www.w3.org/1999/xlink" x="0px" y="0px"
	 viewBox="0 0 500 500" style="enable-background:new 0 0 500 500;" xml:space="preserve">
<style type="text/css">
	.st0{fill:#888683;}
	.st1{fill:#FBFBFB;}
	.st2{fill:#E9B7B7;}
	.st3{fill:#FFFFFF;}
</style>
<g>
	<path d="M258.09,370.28c-2.64,4.37-6.5,5.39-10.89,5.32c-8.8-0.15-17.02-2.94-25.26-5.54c-3.71-1.17-7.82-1.94-10.69-4.56
		c-3.05-2.78-6.43-3.61-10.23-4.41c-6.07-1.28-12.19-2.39-18.12-4.34c-4.62-1.52-7.73-4.35-9.73-8.72
		c-7.12-15.59-9.65-31.9-7.83-48.89c0.58-5.37,2.31-10.47,4.57-15.37c0.72-1.55,0.61-2.76,0.16-4.43
		c-4.46-16.23-13.78-29.47-24.97-41.64c-3.47-3.77-6.76-7.72-9.23-12.25c-1.41-2.58-2.59-5.25-2.63-8.28
		c-0.1-7.29,5.84-11.86,12.78-9.73c4.87,1.5,9.12,4.14,12.55,7.92c9.81,10.82,16.69,23.37,21.61,37.05
		c1.9,5.27,3.27,10.7,4.19,16.12c0.4,0.07,0.53,0.13,0.63,0.1c5.47-1.75,5.63-1.8,3.83-7.21c-2.95-8.91-2.12-17.8-0.39-26.76
		c1.78-9.25,4.56-18.2,7.87-27c0.47-1.25,0.87-2.54,1.39-3.77c0.67-1.58,0.42-2.85-0.49-4.39c-5.07-8.51-9.5-17.33-11.55-27.13
		c-1.57-7.48-2.22-14.98,0.33-22.41c1.72-5.01,2.54-5.57,7.67-5.18c13.9,1.06,25.89,6.51,36.16,15.85c1.9,1.72,3.81,3.43,5.64,5.23
		c1.07,1.04,2.01,1.42,3.54,0.75c11.15-4.92,22.9-5.61,34.82-4.57c11.63,1.02,22.82,3.92,33.42,8.84c1.71,0.79,2.81,0.64,4.18-0.57
		c5.04-4.47,10.41-8.49,16.61-11.24c9.99-4.43,20.36-5.81,31.07-3.34c5.4,1.24,6.11,2.63,5.17,7.95c-1.04,5.91-2.57,11.64-5,17.15
		c-3.89,8.8-9.61,16.21-17.41,21.75c-4.41,3.13-5.33,6.28-4.02,11.55c2.83,11.35,4.82,22.91,5.89,34.6
		c0.87,9.48-1.53,17.81-7.75,25.13c-4.69,5.52-9.86,10.48-15.67,14.8c-3.08,2.3-3.15,2.32-2.02,5.94
		c3.14,10.07,5.14,20.32,5.18,30.92c0.03,7.35-0.41,14.62-2.6,21.71c-1.62,5.24-4.65,9.38-9.21,12.36
		c-13.14,8.59-27.61,13.29-43.23,14.35C264.72,374.17,261.1,373.43,258.09,370.28z M144.19,227.68c1.71,2.53,3.77,4.76,5.81,7.01
		c10.48,11.56,19.55,24,24.18,39.17c0.14,0.44,0.18,0.97,0.74,1.15c4.75-2.94,4.84-3.14,3.94-7.48
		c-3.31-16.06-10.72-30.23-20.23-43.38c-1.45-2-2.68-4.4-5.25-5.39c-2.44-3.66-6.22-5.19-10.23-6.2c-1.89-0.47-3.52,0.84-4.03,2.8
		c-0.4,1.57-0.2,3.11,0.39,4.62C140.63,222.82,142.16,225.4,144.19,227.68z M242.41,344.13c-1.63-1.87-3.83-2.95-5.92-4.16
		c-1.89-1.1-3.91-1.97-5.84-3.02c-2.01-1.09-2.73-2.58-1.96-4.09c1-1.96,2.64-1.85,4.39-1.16c0.11,0.04,0.24,0.06,0.35,0.11
		c9.21,4.29,17.51,9.65,22.42,19c0.38,0.72,0.58,1.65,1.57,1.93c0.98-0.81,1.27-2.04,1.81-3.1c3.91-7.74,9.83-13.26,18.03-16.17
		c3.67-1.3,7.42-2.36,11.16-3.45c2.38-0.7,4.06-0.11,4.66,1.48c0.62,1.64-0.23,3.02-2.79,3.93c-2.98,1.06-6.05,1.86-9.05,2.87
		c-2.37,0.8-4.97,1.2-6.59,3.45c-0.74,0.02-1.44,0.13-2.05,0.61c-6.29,4.84-9.84,11.28-11.06,19.06c-0.11,0.7,0,1.46,0.12,2.18
		c0.51,3.19,1.51,4.44,4.72,4.5c6.84,0.13,13.57-0.68,19.89-3.59c7.02-1.4,13.32-4.5,19.53-7.94c6.41-3.55,9.6-8.99,10.78-16.04
		c1.77-10.6,1.23-21.16-0.33-31.68c-0.73-4.9-1.88-9.77-3.77-14.68c-3.85,2.04-7.51,3.93-11.13,5.91
		c-9.59,5.26-19.73,8.99-30.44,11.19c-4.24,0.87-8.48,0.73-12.74,0.17c-13.74-1.8-26.45-6.69-38.63-13.05
		c-5.31-2.77-10.15-6.29-14.48-10.49c-4.23-4.11-7.89-8.65-10.73-13.83c-0.68-1.24-1.36-2.43-3.07-1.72
		c-5.32,2.19-10.63,4.36-13.88,9.61c-3.13,5.06-5,10.57-6.09,16.36c-1.42,7.53-0.84,15.08,0.04,22.6c1.03,8.79,3.4,17.21,7.36,25.16
		c0.89,1.79,1.96,3.49,3.79,4.33c6.65,3.08,13.9,3.97,21.24,6.01c-0.71-3.36-1.8-6.05-2.3-8.93c-1.25-7.2-0.74-14.37,0.25-21.51
		c0.64-4.58,1.79-9.09,2.79-13.61c0.35-1.57,1.35-2.75,3.09-2.49c1.87,0.28,2.08,1.8,1.95,3.38c-0.05,0.61-0.07,1.23-0.22,1.82
		c-1.37,5.58-2.12,11.26-2.56,16.98c-0.58,7.48-0.13,14.88,2.67,21.96c1.1,2.77,2.49,5.44,5.24,6.82
		c5.01,2.52,10.21,4.57,15.83,5.36c6.07,2.8,12.47,3.8,19.1,3.51c2.09-0.09,3.35-1.33,3.8-3.33c0.32-1.41,0.7-2.85,0.4-4.33
		C252.24,354.66,248.84,348.44,242.41,344.13z M264.05,306.02c2.9,0.12,6.04-0.33,9.11-1.16c16.09-4.31,30.76-11.62,44.24-21.32
		c6.67-4.8,12.49-10.52,17.02-17.47c2.12-3.25,3.37-6.78,3.42-10.65c0.05-3.29,0.19-6.63-0.27-9.87
		c-1.76-12.3-3.41-24.63-6.31-36.74c-0.69-2.87-0.69-5.25,2.39-6.79c1.17-0.59,2.05-1.72,3.12-2.52
		c11.64-8.71,18.89-20.18,21.8-34.42c0.69-3.38,0.55-3.53-2.97-4.25c-3.16-0.64-6.29-0.33-9.46-0.21
		c-13.2,0.51-23.72,6.68-33.08,15.36c-2.26,2.09-3.07,2.46-5.81,1.17c-10.7-5.02-21.89-8.29-33.67-9.3
		c-11.93-1.03-23.68-0.5-34.59,5.22c-2.27,1.19-3.81,0.61-5.5-1.05c-3.05-2.98-6.17-5.91-9.42-8.67
		c-8.66-7.38-18.59-11.95-29.95-13.34c-2-0.24-2.95,0.46-3.36,2.33c-0.65,2.98-1.28,5.97-1.04,9.05c1.02,12.7,5.62,24.21,12.4,34.8
		c1.74,2.72,2.11,4.79,1.11,7.67c-3.53,10.13-6.92,20.32-8.86,30.91c-1.07,5.86-2.51,11.74-1.53,17.76
		c2.59,15.92,10.73,28.39,24.05,37.33c10.75,7.22,22.79,11.57,35.27,14.72C255.96,305.55,259.82,306.09,264.05,306.02z"/>
	<path class="st0" d="M264.05,306.02c-4.22,0.07-8.08-0.47-11.88-1.43c-12.49-3.15-24.53-7.5-35.27-14.72
		c-13.32-8.94-21.46-21.42-24.05-37.33c-0.98-6.02,0.46-11.9,1.53-17.76c1.94-10.58,5.33-20.77,8.86-30.91
		c1-2.88,0.63-4.95-1.11-7.67c-6.78-10.59-11.38-22.09-12.4-34.8c-0.25-3.07,0.39-6.06,1.04-9.05c0.41-1.88,1.36-2.58,3.36-2.33
		c11.36,1.38,21.29,5.96,29.95,13.34c3.25,2.77,6.37,5.69,9.42,8.67c1.69,1.65,3.22,2.24,5.5,1.05c10.91-5.73,22.65-6.25,34.59-5.22
		c11.79,1.02,22.97,4.28,33.67,9.3c2.74,1.28,3.55,0.92,5.81-1.17c9.36-8.68,19.88-14.85,33.08-15.36c3.17-0.12,6.3-0.44,9.46,0.21
		c3.52,0.72,3.66,0.87,2.97,4.25c-2.91,14.24-10.16,25.71-21.8,34.42c-1.07,0.8-1.95,1.94-3.12,2.52c-3.08,1.55-3.08,3.92-2.39,6.79
		c2.9,12.11,4.55,24.44,6.31,36.74c0.46,3.24,0.32,6.58,0.27,9.87c-0.06,3.87-1.31,7.41-3.42,10.65
		c-4.52,6.94-10.35,12.67-17.02,17.47c-13.48,9.7-28.15,17.01-44.24,21.32C270.09,305.69,266.95,306.14,264.05,306.02z
		 M240.83,262.72c0.45-0.72,0.99-1.4,1.34-2.17c1.85-4.05,0.39-8.63-3.4-10.79c-3.79-2.16-8.42-1.07-11.01,2.62
		c-1.96,2.79-1.72,5.73-0.5,8.71c-1.16,0.36-2.27,0.85-3.24,1.6c-3.29,2.55-3.28,5.99,0.02,8.43c4.31,3.19,13.65,2.28,17.2-1.67
		C243.57,266.85,243.48,265.39,240.83,262.72z M289.34,264.01c-1.4,4.54-0.22,6.94,4.24,8.34c4.54,1.42,8.91,0.71,13.05-1.46
		c2.1-1.1,3.36-2.91,3.1-5.35c-0.26-2.43-1.94-3.85-4.14-4.65c-1.02-0.37-2.18-0.31-3.11-0.98c0.04-0.6,0.06-1.2,0.12-1.81
		c0.41-4.55-2.31-8.45-6.41-9.18c-4.88-0.87-8.7,1.57-9.95,6.27C285.27,258.87,287.24,261.45,289.34,264.01z M320.96,187.5
		c1.9,2.04,3.59,4.33,6.24,5.54c0.08,1.37,0.24,2.74,1.82,3.24c1.34,0.42,2.46-0.2,3.22-1.18c3.14-4.05,5.35-8.43,4.28-13.81
		c-0.73-3.63-2.17-4.77-5.81-4.48c-4.44,0.35-8.15,2.41-11.35,5.32C316.84,184.41,317.51,186.36,320.96,187.5z M215.13,189.9
		c2.22-2.05,5.06-3.12,7.53-4.78c3.07-1.35,3.78-2.57,2.2-4.77c-3.02-4.2-6.51-7.86-12.03-8.72c-3.4-0.53-5.05,0.49-5.6,3.9
		c-0.8,4.95,0.23,9.69,2.15,14.19C210.82,193.09,212.91,193.06,215.13,189.9z M269.29,274.5c3.2,0.08,8.53-5.44,8.27-8.56
		c-0.18-2.07-2.16-3.03-4.06-1.94c-0.99,0.57-1.49,1.57-2.13,2.47c-1.81,2.52-1.86,2.55-4.35,0.7c-1.46-1.09-3.07-1.54-4.24-0.06
		c-1.84,2.33-2.9,1.4-4.04-0.49c-0.25-0.41-0.58-0.79-0.91-1.14c-1.02-1.08-2.23-1.66-3.55-0.65c-1.28,0.98-1.2,2.37-0.46,3.63
		c1.06,1.78,2.22,3.52,3.91,4.79c1.78,1.34,3.76,1.94,5.77,0.67c1.21-0.77,2.19-0.76,3.34-0.06
		C267.58,274.28,268.41,274.52,269.29,274.5z"/>
	<path class="st0" d="M230.42,366.22c-5.61-0.79-10.82-2.84-15.83-5.36c-2.75-1.38-4.14-4.05-5.24-6.82
		c-2.8-7.09-3.26-14.48-2.67-21.96c0.44-5.71,1.19-11.4,2.56-16.98c0.14-0.59,0.17-1.21,0.22-1.82c0.13-1.58-0.07-3.1-1.95-3.38
		c-1.74-0.26-2.75,0.92-3.09,2.49c-1,4.52-2.15,9.03-2.79,13.61c-0.99,7.13-1.5,14.3-0.25,21.51c0.5,2.87,1.6,5.57,2.3,8.93
		c-7.34-2.03-14.59-2.93-21.24-6.01c-1.83-0.85-2.9-2.54-3.79-4.33c-3.95-7.95-6.33-16.38-7.36-25.16
		c-0.88-7.52-1.46-15.08-0.04-22.6c1.09-5.79,2.96-11.3,6.09-16.36c3.25-5.25,8.56-7.41,13.88-9.61c1.72-0.71,2.39,0.47,3.07,1.72
		c2.84,5.18,6.49,9.72,10.73,13.83c4.33,4.2,9.16,7.72,14.48,10.49c12.18,6.36,24.89,11.25,38.63,13.05
		c4.26,0.56,8.5,0.7,12.74-0.17c10.71-2.2,20.86-5.93,30.44-11.19c3.62-1.98,7.28-3.87,11.13-5.91c1.89,4.91,3.04,9.78,3.77,14.68
		c1.56,10.52,2.1,21.08,0.33,31.68c-1.18,7.05-4.37,12.49-10.78,16.04c-6.21,3.44-12.51,6.54-19.53,7.94
		c-1.33-8.77-5.03-16.32-11.57-22.4c-0.07-0.06-0.03-0.23-0.04-0.35c1.62-2.25,4.22-2.65,6.59-3.45c3-1.01,6.07-1.81,9.05-2.87
		c2.56-0.92,3.41-2.29,2.79-3.93c-0.6-1.59-2.28-2.18-4.66-1.48c-3.74,1.1-7.49,2.15-11.16,3.45c-8.2,2.91-14.11,8.43-18.03,16.17
		c-0.54,1.06-0.83,2.29-1.81,3.1c-0.99-0.28-1.19-1.2-1.57-1.93c-4.92-9.36-13.22-14.71-22.42-19c-0.11-0.05-0.23-0.07-0.35-0.11
		c-1.75-0.69-3.38-0.8-4.39,1.16c-0.77,1.5-0.05,3,1.96,4.09c1.93,1.05,3.95,1.92,5.84,3.02c2.09,1.21,4.29,2.29,5.92,4.16
		c-1.49,1.56-3.04,3.07-4.47,4.68C233.54,353.79,231.99,360.01,230.42,366.22z"/>
	<path class="st0" d="M153.38,218.76c2.57,0.98,3.8,3.38,5.25,5.39c9.51,13.15,16.92,27.32,20.23,43.38c0.9,4.35,0.8,4.54-3.94,7.48
		c-0.56-0.18-0.61-0.71-0.74-1.15c-4.63-15.17-13.7-27.62-24.18-39.17c-2.04-2.25-4.1-4.49-5.81-7.01
		C148.57,226.06,151.05,222.49,153.38,218.76z"/>
	<path class="st1" d="M274.63,341.77c0.01,0.12-0.02,0.29,0.04,0.35c6.54,6.08,10.24,13.63,11.57,22.4
		c-6.32,2.9-13.05,3.71-19.89,3.59c-3.2-0.06-4.21-1.3-4.72-4.5c-0.11-0.72-0.23-1.47-0.12-2.18c1.21-7.78,4.76-14.22,11.06-19.06
		C273.2,341.9,273.89,341.79,274.63,341.77z"/>
	<path class="st1" d="M230.42,366.22c1.57-6.21,3.12-12.43,7.52-17.4c1.43-1.61,2.98-3.13,4.47-4.68
		c6.44,4.3,9.83,10.52,11.31,17.95c0.3,1.48-0.08,2.91-0.4,4.33c-0.45,1.99-1.72,3.24-3.8,3.33
		C242.89,370.02,236.48,369.02,230.42,366.22z"/>
	<path class="st1" d="M153.38,218.76c-2.33,3.73-4.81,7.3-9.19,8.92c-2.03-2.28-3.55-4.86-4.67-7.7c-0.6-1.51-0.79-3.05-0.39-4.62
		c0.51-1.97,2.14-3.28,4.03-2.8C147.16,213.56,150.94,215.1,153.38,218.76z"/>
	<path d="M215.13,189.9c-2.23,3.16-4.31,3.19-5.75-0.19c-1.92-4.5-2.95-9.24-2.15-14.19c0.55-3.41,2.2-4.43,5.6-3.9
		c5.53,0.87,9.02,4.52,12.03,8.72c1.58,2.19,0.87,3.42-2.2,4.77c-2.36-0.78-3.46-2.96-5.07-4.57c-1.41-1.41-2.76-2.91-5.29-2.92
		c0.17,1.8,0.36,3.24,0.44,4.68C212.88,185.05,214.32,187.37,215.13,189.9z"/>
	<path d="M320.96,187.5c-3.46-1.14-4.12-3.09-1.61-5.38c3.2-2.91,6.91-4.97,11.35-5.32c3.64-0.29,5.09,0.85,5.81,4.48
		c1.08,5.38-1.14,9.76-4.28,13.81c-0.76,0.98-1.88,1.61-3.22,1.18c-1.58-0.5-1.74-1.86-1.82-3.24c0.23-1.1,0.99-1.92,1.54-2.85
		c0.94-1.55,1.95-3.08,2.27-4.91c0.48-2.75-0.21-3.29-2.81-2.47C325.34,183.71,323.25,185.74,320.96,187.5z"/>
	
		<ellipse transform="matrix(0.9993 -0.0381 0.0381 0.9993 -9.9911 9.0182)" class="st2" cx="231.5" cy="266.52" rx="11.51" ry="6.5"/>
	
		<ellipse transform="matrix(0.9948 -0.1018 0.1018 0.9948 -25.5828 31.8821)" class="st2" cx="299.59" cy="266.6" rx="11.51" ry="6.63"/>
	<circle cx="235" cy="257" r="9"/>
	<circle cx="294" cy="257" r="9"/>
	<circle class="st3" cx="293" cy="255" r="4"/>
	<path d="M269.29,274.49c-0.88,0.02-1.71-0.21-2.45-0.65c-1.15-0.7-2.13-0.71-3.34,0.06c-2.01,1.27-3.99,0.67-5.77-0.67
		c-1.69-1.27-2.85-3.01-3.91-4.79c-0.75-1.25-0.82-2.65,0.46-3.63c1.32-1.01,2.53-0.43,3.55,0.65c0.33,0.35,0.66,0.73,0.91,1.14
		c1.15,1.89,2.2,2.82,4.04,0.49c1.16-1.48,2.77-1.02,4.24,0.06c2.5,1.86,2.55,1.83,4.35-0.7c0.64-0.89,1.14-1.9,2.13-2.47
		c1.9-1.09,3.88-0.14,4.06,1.94C277.83,269.06,272.49,274.58,269.29,274.49z"/>
	<path class="st1" d="M215.13,189.9c-0.81-2.53-2.25-4.85-2.4-7.59c-0.08-1.44-0.27-2.88-0.44-4.68c2.53,0.01,3.87,1.51,5.29,2.92
		c1.61,1.61,2.71,3.79,5.07,4.57C220.19,186.78,217.35,187.85,215.13,189.9z"/>
	<path class="st1" d="M320.96,187.5c2.28-1.76,4.38-3.79,7.24-4.69c2.6-0.82,3.28-0.28,2.81,2.47c-0.32,1.83-1.33,3.36-2.27,4.91
		c-0.56,0.93-1.31,1.75-1.54,2.85C324.55,191.83,322.87,189.54,320.96,187.5z"/>
	<path class="st1" d="M237.13,258.94c-2.09,0.06-3.99-1.79-4.01-3.89c-0.01-1.97,1.62-3.74,3.6-3.89c2.06-0.16,4.07,1.61,4.17,3.69
		C241.01,256.96,239.24,258.88,237.13,258.94z"/>
</g>
</svg>
