<?xml version="1.0" encoding="utf-8"?>
<!-- Generator: Adobe Illustrator 26.2.1, SVG Export Plug-In . SVG Version: 6.00 Build 0)  -->
<svg version="1.1" id="Layer_4" xmlns="http://www.w3.org/2000/svg" xmlns:xlink="http://www.w3.org/1999/xlink" x="0px" y="0px"
	 viewBox="0 0 500 500" style="enable-background:new 0 0 500 500;" xml:space="preserve">
<style type="text/css">
	.st0{fill:#744719;}
	.st1{fill:#F0F4F4;}
	.st2{fill:#343433;}
	.st3{fill:#EACF27;}
	.st4{fill:#E1E5E5;}
	.st5{fill:#EBD127;}
	.st6{fill:#EAD027;}
	.st7{fill:#E8EEEE;}
	.st8{fill:#F0AFAF;}
	.st9{fill:#C5ADAD;}
	.st10{fill:#EBB6B4;}
	.st11{fill:#EBB7B5;}
	.st12{fill:#53300C;}
</style>
<g id="Layer_4_00000102536593730619671860000017929643324941912990_">
	
		<image style="overflow:visible;opacity:0.75;enable-background:new    ;" width="921" height="1004" xlink:href="3F1274D08C364592.png"  transform="matrix(0.3683 0 0 0.3683 70.1967 65.1769)">
	</image>
	<g>
		<g>
			<g>
				<path d="M164.3,212.5c-2.9-6.1-5.8-12.2-8.6-18.2c-0.8-1.8-2.1-2.1-4-1.9c-8.9,1.2-16.3,5.2-21.6,12.4c-2,2.7-3.7,2.8-6.4,1.8
					c-10-3.6-19.8-3.5-29.4,1.4c-1.9,0.9-3.5,0.7-5-0.7c-1.4-1.4-1.1-3.1-0.3-4.5c1.8-3.1,3.9-6.2,5.8-9.2
					c12.9-20.6,23.1-42.3,28.6-66.1c0.9-3.9,3.2-5.1,6.8-3.3c2.4,1.2,4.6,2.9,7.1,4.1c12.6,6.4,26.3,9.2,39.9,12.2
					c6.9,1.5,13.9,2.5,21,2.9c1.6,0.1,3.3,0.2,4.9,0.6c1.5,0.3,2.6,1.4,2.9,3c0.3,1.6-0.5,2.9-1.9,3.6c-8.6,4.3-11.7,12.5-14.5,20.8
					c-1.5,4.3-1.3,4.3-5.9,4.4c-8.6,0.2-15.6,4.1-21.6,10.1c-1.2,1.2-1.4,2.3-0.6,3.8c3,6.2,5.9,12.5,8.7,18.8
					c1,2.3,2.6,1.9,4.5,1.4c10.5-2.8,21.1-5.6,31.7-7.9c25.9-5.7,52.1-9.9,78.5-12.5c5.5-0.5,4.9,0.5,6.1-5.6
					c5.9-30.4,11.7-60.8,17.5-91.3c1-5.1,3.5-7.7,8.5-8.5c6.2-1.1,11.4,1.5,16.4,4.6c2.7,1.7,2.2,4.7,1.7,7.4
					c-2.3,12.3-4.6,24.6-7,36.8c-3.1,16.7-6.3,33.5-9.4,50.2c-0.8,4.2-0.8,4.2,3.4,4.3c9.4,0.1,18.8,0.4,28.2,2
					c7.1,1.3,12.6,4.7,16.7,10.9c25.6,38.8,31.4,80.5,16.1,124.3c-12.7,36.3-37.2,62.8-72.3,78.9c-36,16.5-72.8,17.2-109.4,2.4
					c-30.7-12.4-54.1-33.5-69.7-62.9c-17.8-33.7-20.5-69.1-10.1-105.6c1.2-4.4,4.5-7.4,8.3-9.8c5.5-3.5,11.5-6.2,17.6-8.7
					C152.7,216.8,158.1,214.8,164.3,212.5z M285.3,211.1c0.4-1.2,0.9-2.3,0.5-3.6c-0.9-0.4-1.8-0.3-2.7-0.2
					c-26.2,3.5-52.3,7.7-78.2,13.3c-7.4,1.6-14.8,3.7-22.2,5.5c-2.8,0.7-2.4,2.1-0.9,3.8c2,2.8,4.7,1.1,6.9,0.9
					c30.4-2.8,60.4-7.5,90.3-13.8C284.7,215.8,284.6,215.8,285.3,211.1z M362.1,206.7c-5.1,5.1-11.1,8.2-17.2,10.8
					c-12.5,5.4-25.3,10.1-38.6,13.4c-12.3,3-24.6,6-37,8.5c-19.2,3.8-38.5,7.1-57.9,9.4c-19.8,2.3-39.7,3.7-59.7,2.7
					c-7-0.3-14.2-0.7-20.9-3.2c-4.1-1.5-4.3-1.5-5.2,3c-3.7,18.5-4,37,0.4,55.5c3.1,12.9,7.5,25.3,14.1,36.9
					c8.8,15.5,20.4,28.6,34.7,39.2c17.2,12.8,36.2,21.1,57.5,24.4c20.3,3.2,40.2,1.7,59.7-4.1c11-3.3,21.2-8.4,31-14.5
					c13.2-8.3,24.5-18.7,33.9-31.1c9.8-12.8,17-26.9,21.5-42.5c4-13.5,5.6-27.3,5.1-41.4c-0.4-9.6-1.3-19.3-4.1-28.4
					C375.4,232.1,370.8,218.9,362.1,206.7z M128.9,239c4.7,3.1,9.9,3.7,15.1,4.3c15.5,1.8,31.1,1,46.6-0.2
					c31.4-2.4,62.4-7.3,93-14.3c19.5-4.5,38.7-9.8,57.2-17.6c4.5-1.9,8.9-4,12.8-7c1.4-1.1,3.5-1.9,3-4c-0.4-1.6-2.5-2-3.9-2.7
					c-1.3-0.6-2.8-0.8-4.2-1.1c-9.9-1.8-19.8-2.1-29.8-1.9c-0.5,0-1.1-0.1-1.6,0.1c-0.7,0.2-1.2,0.8-1.1,1.7
					c0.1,0.6,0.6,0.8,1.1,0.9c1.6,0,3.3,0,4.9,0c4,0.1,7.9-0.2,11.8,1c2.4,0.8,4.6,1.6,4.9,4.4c0.3,2.7-1.4,4.4-3.5,5.7
					c-2.9,1.9-6.2,3-9.5,4.1c-19.3,6.7-39.3,10.5-59.2,14.4c-19.9,4-40,6.9-60.2,9.3c-13.9,1.7-27.7,3.3-41.7,2.8
					c-2.5-0.1-5.1-0.3-7.5-0.8c-2.2-0.4-4.1-1.7-4.5-4.2c-0.4-2.4,0.7-4.2,2.7-5.5c2.3-1.5,4.6-2.9,7.2-3.8c1.7-0.6,3.4-1.2,5.2-1.8
					c1-0.3,1.8-0.6,1.4-1.8c-0.3-0.9-0.9-1.6-2-1.5c-0.5,0-1.1,0.3-1.6,0.4c-10.1,3.5-20.3,6.8-29.7,12.3
					C133.1,233.9,130.4,235.7,128.9,239z M292.7,213.3c3.7-0.6,6.3-1,9-1.5c2.7-0.6,4.5-2.1,5.1-5c0.8-3.7,0.9-7.5,1.9-11.2
					c2.4-8.9,3.6-18.1,5.2-27.2c2.6-14,5.4-28.1,7.7-42.1c1.3-7.9,3-15.7,4.6-23.5c0.4-1.9-0.3-2.9-2-3c-3.1-0.1-5.9-1.5-9.2-2.4
					C307.5,136,300.2,174.3,292.7,213.3z M125.2,147.6c-6.5,17.7-14.6,34.4-24.7,50.8c6.7-0.6,12.8-1.6,18.9-0.3
					c2.8,0.6,3-0.7,3.2-2.7c0.9-9.4,2-18.8,2.4-28.2C125.3,160.6,126,154.1,125.2,147.6z M157.3,180.9c6.3-5.2,12.4-9.9,20.5-12.2
					c-14.4-7.3-26.2-18.3-39.5-27.1C144.9,154.5,149.9,168.1,157.3,180.9z M129.9,195.1c5.9-4.2,11.1-7.4,17.2-8.9
					c3.8-0.9,3.9-1.1,2.3-4.5c-4.7-10-9.4-20-14.2-30c-0.6-1.2-0.9-2.7-2.7-3.3C132.7,163.8,131.5,178.9,129.9,195.1z M180.5,215.4
					c-1.3,0.4-2.1,0.6-3,0.9c-1,0.3-2.3,0.5-1.9,2.1c0.4,1.6,1.5,1.8,2.9,1.3c0.5-0.2,1-0.4,1.6-0.5c26.9-6.6,54.1-12.1,81.6-16
					c7.2-1,14.3-1.9,21.5-3.1c1.9-0.3,5.3,0.7,4.6-2.8c-0.4-2.2-3.1-0.8-4.6-0.6c-10.3,1.2-20.5,2.4-30.7,3.9
					C228.1,204.1,204,209.1,180.5,215.4z M192.8,150.5c-7.1-1.3-14-2.5-20.9-3.9c-6.9-1.4-13.8-3.3-21.5-5.6
					c10.3,9,20.9,15.6,31.7,21.9c1.4,0.8,2.6,1.4,3.4-0.7C187.2,158,190.3,154.6,192.8,150.5z M314.2,208.1c4.1,0,7.7-1.7,12.6-3.5
					c-4.1-0.9-7-0.6-9.7-0.6C314.3,204.1,313.8,205.6,314.2,208.1z M166.3,231.5c2.5,0.9,4.4,0.5,6.3,0.4c1,0,2.3,0,1.9-1.7
					c-0.3-1.3-1.3-1.6-2.5-1.3C170.1,229.5,168.3,230.1,166.3,231.5z"/>
				<path class="st0" d="M362.1,206.7c8.7,12.2,13.3,25.4,17.4,38.7c2.8,9.1,3.7,18.8,4.1,28.4c0.6,14.1-1.1,27.8-5.1,41.4
					c-4.6,15.5-11.7,29.7-21.5,42.5c-9.5,12.3-20.7,22.8-33.9,31.1c-9.7,6.1-20,11.2-31,14.5c-19.6,5.8-39.4,7.3-59.7,4.1
					c-21.3-3.3-40.3-11.7-57.5-24.4c-14.3-10.6-25.9-23.7-34.7-39.2c-6.6-11.6-11-23.9-14.1-36.9c-4.4-18.5-4.1-37-0.4-55.5
					c0.9-4.5,1-4.5,5.2-3c6.8,2.4,13.9,2.9,20.9,3.2c20,0.9,39.9-0.4,59.7-2.7c19.4-2.3,38.7-5.6,57.9-9.4c12.4-2.5,24.7-5.5,37-8.5
					c13.3-3.2,26.1-7.9,38.6-13.4C351,214.9,357,211.8,362.1,206.7z M337.4,315.7c-0.8-2.1-1.6-3.3-2.4-4.5
					c-7.8-11.5-27.1-13.8-38.6,0.1c-2.5,3-4.1,6.4-5.6,9.9c-0.8,2.1-0.6,4,0.9,5.6c1.6,1.6,3.3,1,4.9-0.3c0.6-0.5,1.1-1.2,1.9-0.9
					c4.2,1.4,5.3-1.7,6.8-4.5c0.4-0.8,0.9-1.6,1.4-2.3c5.6-7.5,12.2-7.6,18-0.2c0.9,1.2,1.9,2.6,3.5,2.1c2.2-0.7,4.1-0.5,6.3,0.2
					c2.1,0.7,3.8-1.2,3.6-3.4C337.8,316.6,337.4,315.8,337.4,315.7z M208.9,329.5c5.8-2.3,8.7-1.5,12.4,3.6c1.4,2,3,3.1,5.4,2.5
					c1.1-0.3,2.1-0.1,3.2,0c4.6,0.6,6.4-1.6,4.2-5.6c-2.9-5.4-6.9-9.8-13-11.7c-8.6-2.7-16.5-1.4-23.6,4.1c-4.9,3.8-7.8,9-9.8,14.8
					c-0.6,1.9,0,3.7,1.4,5c1.6,1.4,3,0.6,4.3-0.6c0.7-0.7,1.5-1,2.5-0.9c3.2,0.5,4.4-1.6,5.8-3.9
					C203.5,333.7,205.3,330.4,208.9,329.5z M210.6,355.7c2.4-1,4.8-1.5,6.6-3.2c3.7-3.5,3.1-7-1.7-8.7c-1.9-0.7-3.9-0.9-5.9-0.8
					c-8.6,0.5-17,1.9-25,5c-1.9,0.7-3.6,1.8-4.8,3.4c-2.2,2.8-1.5,5.6,1.7,7.2c2.2,1.1,4.6,1,6.9,1C196,359.3,203.5,358,210.6,355.7
					z M317.5,328.2c-0.9,0.4-3,1.1-4.9,2.2c-2,1.2-3.3,3-3,5.4c0.3,2.5,2.3,3.6,4.6,4.1c1.2,0.3,2.5,0.4,3.8,0.4
					c9,0,17.7-1.7,26.1-4.7c1.7-0.6,3.4-1.4,4.7-2.7c2.8-2.7,2.2-6.1-1.3-8c-2-1-4.2-1-6.4-1C333.4,324.2,325.9,325.5,317.5,328.2z
					 M159.6,321.3c4.3-1.5,6.3-5.4,4.8-9.4c-1.3-3.5-5.9-6-9.2-5.1c-3.7,1.1-6.6,6.1-5.5,9.4C151.2,320.4,155.6,322.7,159.6,321.3z
					 M268.8,349c3.7-1.5,7.4-10.9,5.6-14.2c-0.7-1.2-1.7-1.9-3.1-1.7c-1.6,0.2-2.6,1.1-3,2.7c-0.5,1.9-0.2,4.6-1.9,5.4
					c-2.6,1.1-3.1-2.4-4.8-3.5c-1.3-0.8-2.6-1.7-3.9-0.6c-1.4,1.2-2.3,2.9-0.9,4.7c2,2.8,4.3,5.3,7.5,6.8
					C265.8,349.4,267.4,349.6,268.8,349z M160.2,291.8c-4.1,1.4-6.1,4.8-4.9,8.2c1.3,3.7,4.9,5.6,8.5,4.5c4.1-1.3,6.3-4.6,5.3-8
					C167.9,292.6,164,290.5,160.2,291.8z M139.2,303.8c1.1,2.9,6.3,5.2,9.1,4c3-1.2,4.4-5.5,3-8.9c-1.5-3.5-5.2-5.4-8.3-4.1
					C139.5,296.3,137.8,300.2,139.2,303.8z"/>
				<path class="st1" d="M128.9,239c1.5-3.3,4.1-5.1,7-6.8c9.3-5.5,19.5-8.7,29.7-12.3c0.5-0.2,1-0.4,1.6-0.4c1.1-0.1,1.7,0.6,2,1.5
					c0.4,1.2-0.4,1.5-1.4,1.8c-1.7,0.5-3.4,1.2-5.2,1.8c-2.6,0.8-5,2.3-7.2,3.8c-2,1.3-3.1,3.1-2.7,5.5c0.4,2.5,2.3,3.7,4.5,4.2
					c2.5,0.5,5,0.7,7.5,0.8c14,0.4,27.9-1.1,41.7-2.8c20.2-2.5,40.3-5.4,60.2-9.3c19.9-4,39.9-7.7,59.2-14.4
					c3.3-1.1,6.5-2.3,9.5-4.1c2.1-1.3,3.8-3,3.5-5.7c-0.3-2.8-2.5-3.6-4.9-4.4c-3.9-1.2-7.9-0.9-11.8-1c-1.6,0-3.3,0-4.9,0
					c-0.5,0-1.1-0.2-1.1-0.9c-0.1-0.8,0.4-1.4,1.1-1.7c0.5-0.2,1.1-0.1,1.6-0.1c10-0.2,20,0,29.8,1.9c1.4,0.3,2.9,0.5,4.2,1.1
					c1.5,0.6,3.5,1.1,3.9,2.7c0.5,2.1-1.7,2.9-3,4c-3.9,3-8.3,5.1-12.8,7c-18.5,7.8-37.7,13.1-57.2,17.6c-30.6,7-61.7,11.9-93,14.3
					c-15.5,1.2-31.1,2-46.6,0.2C138.8,242.7,133.6,242,128.9,239z"/>
				<path class="st2" d="M292.7,213.3c7.5-39,14.9-77.3,22.3-115.9c3.3,0.8,6.1,2.3,9.2,2.4c1.7,0,2.4,1,2,3
					c-1.6,7.8-3.3,15.6-4.6,23.5c-2.4,14.1-5.1,28.1-7.7,42.1c-1.7,9.1-2.8,18.3-5.2,27.2c-1,3.7-1.1,7.5-1.9,11.2
					c-0.6,2.9-2.4,4.4-5.1,5C299,212.3,296.3,212.7,292.7,213.3z"/>
				<path class="st3" d="M125.2,147.6c0.7,6.5,0.1,13-0.2,19.5c-0.4,9.4-1.4,18.8-2.4,28.2c-0.2,2.1-0.4,3.3-3.2,2.7
					c-6.1-1.3-12.3-0.3-18.9,0.3C110.6,182.1,118.7,165.3,125.2,147.6z"/>
				<path class="st4" d="M181.8,229.9c-1.5-1.7-1.9-3.1,0.9-3.8c7.4-1.8,14.7-3.9,22.2-5.5c25.9-5.6,52-9.8,78.2-13.3
					c0.9-0.1,1.8-0.2,2.7,0.2c0.4,1.2-0.1,2.4-0.5,3.6c-1.2,0.1-2.5,0-3.8,0.3c-7.6,1.6-15.2,3.1-22.6,5.1
					c-13.2,3.7-27,4.4-40.4,7.2C206.4,226.2,194.1,227.8,181.8,229.9z"/>
				<path class="st5" d="M157.3,180.9c-7.4-12.8-12.4-26.4-19-39.4c13.3,8.9,25,19.8,39.5,27.1C169.7,171,163.6,175.7,157.3,180.9z"
					/>
				<path class="st6" d="M129.9,195.1c1.6-16.2,2.9-31.4,2.6-46.7c1.8,0.6,2.1,2.1,2.7,3.3c4.8,10,9.5,20,14.2,30
					c1.6,3.4,1.5,3.6-2.3,4.5C141,187.7,135.8,191,129.9,195.1z"/>
				<path class="st7" d="M180.5,215.4c23.4-6.3,47.5-11.3,72-14.8c10.2-1.5,20.5-2.7,30.7-3.9c1.5-0.2,4.2-1.6,4.6,0.6
					c0.7,3.5-2.7,2.5-4.6,2.8c-7.2,1.1-14.3,2.1-21.5,3.1c-27.5,3.8-54.6,9.4-81.6,16c-0.5,0.1-1,0.3-1.6,0.5
					c-1.4,0.5-2.5,0.4-2.9-1.3c-0.4-1.5,0.9-1.7,1.9-2.1C178.4,216.1,179.3,215.8,180.5,215.4z"/>
				<path class="st8" d="M181.8,229.9c12.2-2,24.6-3.7,36.7-6.2c13.4-2.8,27.1-3.5,40.4-7.2c7.5-2.1,15.1-3.5,22.6-5.1
					c1.2-0.3,2.5-0.2,3.8-0.3c-0.6,4.7-0.6,4.7-6.3,5.9c-29.8,6.3-59.9,11-90.3,13.8C186.5,231,183.8,232.6,181.8,229.9z"/>
				<path class="st3" d="M192.8,150.5c-2.6,4-5.6,7.5-7.3,11.7c-0.8,2.1-2.1,1.5-3.4,0.7c-10.8-6.3-21.4-12.9-31.7-21.9
					c7.7,2.4,14.5,4.3,21.5,5.6C178.8,148,185.7,149.2,192.8,150.5z"/>
				<path class="st9" d="M314.2,208.1c-0.4-2.5,0.1-4,2.8-4c2.8,0,5.6-0.3,9.7,0.6C321.9,206.4,318.3,208.1,314.2,208.1z"/>
				<path class="st9" d="M166.3,231.5c2-1.4,3.9-2,5.7-2.6c1.1-0.3,2.1,0,2.5,1.3c0.4,1.7-0.9,1.6-1.9,1.7
					C170.7,232,168.8,232.4,166.3,231.5z"/>
				<path d="M337.4,315.7c0,0.1,0.5,1,0.6,1.9c0.3,2.2-1.5,4.1-3.6,3.4c-2.2-0.7-4.1-0.9-6.3-0.2c-1.6,0.5-2.6-1-3.5-2.1
					c-5.8-7.4-12.4-7.4-18,0.2c-0.5,0.7-1,1.5-1.4,2.3c-1.4,2.7-2.5,5.9-6.8,4.5c-0.7-0.2-1.3,0.4-1.9,0.9c-1.5,1.3-3.3,1.9-4.9,0.3
					c-1.5-1.5-1.7-3.5-0.9-5.6c1.4-3.6,3.1-7,5.6-9.9c11.5-13.8,30.9-11.6,38.6-0.1C335.8,312.4,336.6,313.6,337.4,315.7z"/>
				<path d="M208.9,329.5c-3.6,0.9-5.5,4.2-7.3,7.3c-1.4,2.3-2.6,4.4-5.8,3.9c-1-0.1-1.8,0.2-2.5,0.9c-1.3,1.3-2.8,2-4.3,0.6
					c-1.4-1.3-2.1-3.1-1.4-5c2-5.8,4.8-11,9.8-14.8c7.1-5.5,15.1-6.8,23.6-4.1c6.1,1.9,10.1,6.3,13,11.7c2.2,4,0.4,6.2-4.2,5.6
					c-1.1-0.1-2.1-0.3-3.2,0c-2.5,0.6-4-0.5-5.4-2.5C217.6,328,214.7,327.2,208.9,329.5z"/>
				<path class="st10" d="M210.6,355.7c-7,2.3-14.5,3.6-22.2,3.9c-2.4,0.1-4.8,0.1-6.9-1c-3.2-1.6-3.9-4.4-1.7-7.2
					c1.2-1.6,2.9-2.7,4.8-3.4c8.1-3.1,16.4-4.5,25-5c2-0.1,4,0.1,5.9,0.8c4.7,1.6,5.4,5.2,1.7,8.7
					C215.3,354.2,213,354.7,210.6,355.7z"/>
				<path class="st11" d="M317.5,328.2c8.4-2.8,15.9-4.1,23.5-4.3c2.2,0,4.4-0.1,6.4,1c3.5,1.8,4.1,5.2,1.3,8
					c-1.3,1.3-2.9,2.1-4.7,2.7c-8.4,3-17.1,4.6-26.1,4.7c-1.3,0-2.5-0.1-3.8-0.4c-2.2-0.5-4.3-1.5-4.6-4.1c-0.3-2.4,1-4.3,3-5.4
					C314.5,329.4,316.6,328.7,317.5,328.2z"/>
				<path class="st12" d="M159.6,321.3c-4,1.4-8.4-0.9-9.9-5.1c-1.1-3.3,1.8-8.3,5.5-9.4c3.3-1,7.9,1.6,9.2,5.1
					C165.9,315.9,163.9,319.7,159.6,321.3z"/>
				<path d="M268.8,349c-1.4,0.7-3,0.5-4.5-0.3c-3.2-1.6-5.5-4.1-7.5-6.8c-1.4-1.9-0.5-3.5,0.9-4.7c1.3-1.1,2.6-0.3,3.9,0.6
					c1.7,1.1,2.2,4.6,4.8,3.5c1.7-0.7,1.4-3.5,1.9-5.4c0.4-1.6,1.4-2.4,3-2.7c1.4-0.2,2.5,0.4,3.1,1.7
					C276.1,338,272.5,347.5,268.8,349z"/>
				<path class="st12" d="M160.2,291.8c3.8-1.3,7.7,0.7,8.9,4.6c1,3.4-1.2,6.7-5.3,8c-3.6,1.1-7.2-0.8-8.5-4.5
					C154.1,296.6,156.1,293.2,160.2,291.8z"/>
				<path class="st12" d="M139.2,303.8c-1.4-3.6,0.3-7.5,3.9-9c3-1.3,6.8,0.6,8.3,4.1c1.4,3.4,0,7.7-3,8.9
					C145.5,309,140.3,306.7,139.2,303.8z"/>
			</g>
		</g>
	</g>
</g>
</svg>
