<?xml version="1.0" encoding="utf-8"?>
<!-- Generator: Adobe Illustrator 26.2.1, SVG Export Plug-In . SVG Version: 6.00 Build 0)  -->
<svg version="1.1" id="Layer_3" xmlns="http://www.w3.org/2000/svg" xmlns:xlink="http://www.w3.org/1999/xlink" x="0px" y="0px"
	 viewBox="0 0 500 500" style="enable-background:new 0 0 500 500;" xml:space="preserve">
<style type="text/css">
	.st0{fill:#F8F8F8;}
	.st1{fill:#C9C9C9;}
	.st2{fill:#F3F3F3;}
	.st3{fill:#5F3E2D;}
	.st4{fill:#78523F;}
	.st5{fill:#5E3E2D;}
	.st6{fill:#FCFCFC;}
	.st7{fill:#F6F6F6;}
	.st8{fill:#EFBBBB;}
	.st9{fill:#EEBBBB;}
	.st10{fill:#EDBABA;}
</style>
<g id="Layer_3_00000028295495217756914380000015985746674270247073_">
	
		<image style="overflow:visible;opacity:0.75;enable-background:new    ;" width="1429" height="954" xlink:href="85B66C4F6EBB1E99.png"  transform="matrix(0.3181 -6.046397e-02 6.046397e-02 0.3181 -6.765 167.5275)">
	</image>
	<g>
		<g>
			<g>
				<path d="M319.3,403.3c-13,2.9-26.3,4.8-39.5,6.4c-12.7,1.6-25.4,2.6-38.2,3.1c-10.3,0.4-20.6,0.7-31,0.6
					c-11.2-0.1-22.4-0.7-33.6-1.8c-8.6-0.8-17.1-1.8-25.7-3.2c-10.3-1.7-20.6-3.7-30.7-6.4c-6.1-1.6-12.1-3.3-18-5.4
					c-11.3-3.9-22.3-8.3-32.5-14.6c-8.3-5.1-14.6-12.1-19.8-20.3c-3.3-5.3-5.8-10.7-6.6-17c-1.2-9.7,1-18.5,6.3-26.5
					c6.8-10.4,15.6-18.9,25.4-26.5c12.8-10,26.4-18.7,40.2-27.2c4.8-2.9,3.9-1.4,2.6-6.6c-2.1-8.8-3.7-17.6-4.7-26.6
					c-1.7-14.4-1.5-28.7,0-43.1c0.4-4.1,2.4-7.7,5.2-10.8c5.7-6.3,12.9-10.6,20.4-14.2c11.2-5.4,23-9.2,35.1-12.4
					c15.2-4,30.6-6.9,46.1-8.9c14.4-1.8,28.8-2.9,43.3-3.3c12.5-0.3,25.1-0.2,37.6,0.6c12,0.8,24,2.3,35.7,5
					c8.7,2,17.2,4.6,25.2,8.7c5.9,3.1,11.2,7,13.6,13.5c1.8,5,3.1,10.3,4.1,15.5c0.5,2.7,0.9,5.4,1.4,8.1c0.4,2.3,1,2.8,3.4,2.6
					c2.9-0.3,5.7-0.5,8.6-1c6.6-1,13.3-1.6,19.9-0.5c13.7,2.4,26.1,7.2,34.2,19.3c5.2,7.8,8,16.7,8.2,26.2
					c0.2,7.8-0.8,15.4-3.2,22.8c-0.4,1.3-1,2.4-1.5,3.6c-1.4,2.9-1.4,3,1.3,5.1c8.3,6.7,14.5,15,18.8,24.7c4,9.4,3.7,18.8,0.4,28.3
					c-4.1,11.8-11.8,20.6-21.6,28.2c-18.5,14.2-39,24.7-60.6,33.2c-14.1,5.6-28.5,10.2-43.2,14.1
					C336.9,399.2,328.1,401.2,319.3,403.3z M341,196.2c4.7-2,9.4-4.2,13.6-7c-0.3-1-0.8-1-1.3-1.2c-3.9-2-8.1-2.9-12.2-4.1
					c-8-2.4-16.1-4.7-24.3-6.5c-10.9-2.4-22-2.8-33.1-3.6c-6.6-0.5-13.3,0.1-19.9,0.3c-4.9,0.2-9.9,0.5-14.8,1
					c-7.5,0.8-15.2,1.4-22.5,3.1c-6.4,1.5-12.9,3-19.2,4.9c-8.1,2.5-16.3,4.7-24.1,7.9c-11.6,4.8-22.9,10.1-33.9,16.2
					c-0.8,0.5-2,0.8-1.8,2.4c2.4,0.6,4.7,1.3,7.2,1.8c5.5,1.2,11,2.4,16.6,2.7c4.1,0.8,8.2,1.1,12.3,1.5c6.6,0.7,13.2,1,19.8,1.2
					c5.7,0.2,11.4,0.2,17.1-0.2c3.8-0.3,7.6,0.8,11.3-0.3c0.5,0.5,1.1,0.5,1.7,0.2c1.8-0.3,3.6-0.5,5.4-0.8c2.8,0.5,5.6,0.5,8.4,0
					c4.2-0.8,8.5-0.8,12.8-1.4c5.3-0.7,10.6-0.6,15.9-1.7c13.8-2.8,27.8-4.7,41.4-8.6c3.4-1,6.8-1.9,10-3.3c2-0.8,4.5-0.3,6-2.3
					C336.2,198.4,338.5,196.6,341,196.2z M384,223.4c1.4-1.4,2.7-2.9,4.1-4.2c5.6-5.4,11.5-10.4,19.3-12.3c8.2-2,16.1-1.2,22.3,5
					c8,7.8,11.6,17.6,10.8,28.8c-0.7,9.7-3.5,18.7-8.6,27.1c-4.3,7.1-10,12.7-17.1,17c-6.9,4.2-14.5,6.6-22.2,8.8
					c-5.3,1.5-10.5,3-16,3.7c-4.2,0.6-4.2,0.5-5.4,4.7c-1.5,5.3-3,10.5-5.6,15.5c-1.4,2.7-2.4,5.6-3.7,8.8
					c20.5-8.9,39.1-20,56.6-32.9c9.1-6.7,16.9-14.5,22.7-24.1c3.9-6.4,6.8-13.3,7.8-20.8c1.1-8.8,0.3-17.5-3-25.9
					c-2.1-5.4-4.6-10.6-9.1-14.4c-9.6-8.2-20.9-11.5-33.3-11.5c-5.5,0-10.9,1.3-16.4,1.6c-1.7,0.1-3.7-0.2-4.9,0.7
					c-1.7,1.2-0.2,3.4-0.2,5.1c0,6.3,0.3,12.6,0.5,18.8c-0.7,0.7-0.8,1.6,0.1,2.1C383.5,224.9,384,224.1,384,223.4z M373.7,180.9
					c-1.9,2-3.4,3.7-4.9,5.2c-5.6,5.7-12.6,9.3-19.7,12.6c-19.2,9-39.6,13.9-60.4,17.6c-17.8,3.2-35.7,5.1-53.7,5.9
					c-17.5,0.8-35,0.7-52.4-0.9c-14.4-1.4-28.8-3.5-42.6-8.3c-7.5-2.6-14.7-5.6-20.6-10.9c-0.4-0.4-0.8-0.7-1.6-0.2
					c0,1,0.1,2.2,0.1,3.3c-0.3,14.2,1,28.2,3.8,42.1c4,20.3,10.7,39.9,19.4,58.7c4.7,10.2,9.7,20.2,15.8,29.7
					c9,13.9,21.6,23.5,35.7,31.2c10.6,5.8,22.4,8.6,34.2,11c4.7,0.9,9.6,1.2,14.4,1.6c10.2,1,20.4,0.6,30.5-0.9
					c10.8-1.7,21.4-4.6,31.6-8.9c14.4-6.1,27.2-14.2,38.1-25.5c11.9-12.2,20.1-26.5,24.5-42.8c1.7-6.4,3.5-12.9,5-19.4
					c2.1-9.2,3.5-18.5,4.5-27.8c0.8-7.9,1.2-15.9,1.6-23.8c0.5-13.1,0.5-26.1-1.3-39.1C375.1,187.9,375.2,184.5,373.7,180.9z
					 M446.8,271.4c-6,9.4-12.9,17.5-21.5,23.9c-5.9,4.4-11.9,8.6-17.9,12.7c-13.8,9.3-28.5,16.9-43.7,23.7
					c-4.7,2.1-8.8,4.6-12.1,8.9c-10.6,14-24.5,24.3-40.3,31.6c-14.6,6.7-29.8,11.1-45.8,12.8c-11.1,1.2-22.2,0.6-33.3-0.6
					c-10-1.1-19.6-4-29.2-7.1c-14.4-4.7-26.7-12.8-37.6-22.8c-10.4-9.7-18-21.7-24.1-34.5c-7.7-16.2-14.9-32.6-19.7-49.9
					c-0.6-2.1-1.1-2.3-2.9-1.1c-6.2,4-12.4,7.8-18.4,12c-11.2,7.7-22.5,15.3-32.3,24.8c-6,5.9-11.6,12.1-15.5,19.6
					c-3.9,7.8-5.2,16.1-1.8,24.3c5.2,12.5,13.8,22.3,25.4,29.5c7.9,4.8,16.4,8,25,11.2c12.9,4.8,26.2,8.1,39.7,10.7
					c9.1,1.8,18.3,3,27.5,4.1c10,1.1,20,2,30.1,2.4c13.8,0.6,27.6,0.5,41.5-0.1c14.3-0.6,28.5-1.9,42.6-3.6
					c15.7-2,31.2-4.8,46.6-8.4c20.9-4.9,41.4-11,61.3-19.1c18.7-7.6,36.5-16.8,52.8-28.9c10.5-7.8,19.5-16.6,23.1-29.8
					c1.7-6.1,2.1-12.1,0.4-18.2C463.4,287.9,456.1,279.2,446.8,271.4z M198,151.1c-7.7,1.6-15.4,3-23,5.1
					c-12.8,3.5-25.3,7.6-37.1,13.8c-5.7,3-11,6.5-15.4,11.4c-4.5,5-4.9,12.1,1.3,17.2c4.4,3.7,9.6,5.9,14.7,8c1.3,0.5,2-0.3,2.8-0.8
					c4-2.4,8-5,12.1-7.3c11.6-6.4,23.7-11.7,36.2-16.2c15.6-5.6,31.5-9.6,47.9-12c14.5-2.1,29.1-2.9,43.8-2.5
					c8.2,0.2,16.4,0.7,24.6,1.8c7.2,1,14.2,2.4,21.2,4.2c6.6,1.7,13.1,3.7,19.6,5.7c4.3,1.3,8.4,2.8,12.6,4.4
					c1.2,0.5,2.5,0.9,3.7-0.2c2.8-2.4,5.3-5,6.8-8.5c1.7-4,0.8-7.4-1.9-10.5c-0.8-1-1.9-1.8-2.9-2.7c-4.9-4.4-10.9-6.7-17-8.8
					c-10.9-3.7-22.3-5.7-33.7-7.1c-9.9-1.2-19.8-1.7-29.7-2c-13.6-0.4-27.2,0-40.8,1C228.6,146.2,213.2,148.1,198,151.1z
					 M431.6,256.2c0.8-2.7,1.6-5.1,2.1-7.5c2.3-9.9,1.8-19.4-4-28.2c-2.4-3.7-5.6-6.7-9.8-8c-4.9-1.5-9.8-1.1-14.5,1.1
					c-8.3,3.8-14.6,9.8-20.2,16.9c-2.1,2.7-3.1,5.6-3.2,9c-0.1,1.7,0.6,2.4,2,2.8c1,0.3,2,0.5,3.1,0.7c5.6,1.3,11.2,2.5,16.7,4
					C413,249.6,422.2,252.6,431.6,256.2z M429.1,261.3c-15.5-6-31.1-10.6-47.6-13.9c-1,15.1-3.6,29.7-7.2,44.2c1.1,0,1.6,0.1,2.1,0
					c8.7-1.8,17.4-3.9,25.7-7C413.8,280.4,423.3,273.4,429.1,261.3z"/>
				<path class="st0" d="M373.7,180.9c1.5,3.6,1.5,7,1.9,10.3c1.8,13,1.8,26,1.3,39.1c-0.3,8-0.7,15.9-1.6,23.8
					c-1,9.4-2.4,18.6-4.5,27.8c-1.5,6.5-3.3,12.9-5,19.4c-4.4,16.4-12.6,30.6-24.5,42.8c-10.9,11.2-23.8,19.4-38.1,25.5
					c-10.2,4.3-20.7,7.2-31.6,8.9c-10.1,1.6-20.3,1.9-30.5,0.9c-4.8-0.5-9.6-0.7-14.4-1.6c-11.8-2.3-23.6-5.2-34.2-11
					c-14.1-7.7-26.7-17.3-35.7-31.2c-6.1-9.5-11.1-19.5-15.8-29.7c-8.7-18.8-15.3-38.3-19.4-58.7c-2.7-13.9-4.1-27.9-3.8-42.1
					c0-1.1,0-2.3-0.1-3.3c0.7-0.5,1.2-0.2,1.6,0.2c5.9,5.4,13.2,8.3,20.6,10.9c13.8,4.8,28.1,6.9,42.6,8.3
					c17.4,1.6,34.9,1.7,52.4,0.9c18-0.8,36-2.7,53.7-5.9c20.7-3.7,41.2-8.6,60.4-17.6c7.1-3.3,14.1-6.9,19.7-12.6
					C370.3,184.5,371.8,182.9,373.7,180.9z M305.5,318.5c0.8-2.6,2-4.9,1.4-7.9c-1-4.4-5.4-8.8-9.6-9c-5.2-0.2-9.9,3.2-11.3,7.9
					c-1.4,5.1,0.9,10.7,6.4,13.1c-0.1,0.4-0.1,0.8-0.2,1.2c-1.3,3.8-0.3,5.7,3.4,6.7c0.9,0.3,1.8,0.4,2.7,0.5
					c7,0.7,13.8-0.8,20.6-2.3c1.9-0.5,3.7-1.5,5.1-2.9c1.8-1.8,1.6-4.2-0.4-5.8c-0.8-0.6-1.8-1-2.8-1.3
					C315.7,317.5,310.6,318.2,305.5,318.5z M231.4,328.6c0.2-1,1.1-1.4,1.6-2.1c3.3-4,2.7-11.1-1.6-14.8c-4.4-3.7-11.3-3.2-15.2,1.1
					c-3.5,3.9-3.5,9.3,0.1,14.6c-4.2,0.8-8.5,1.4-12.4,3.3c-2.4,1.1-4.1,3.6-3.7,5.5c0.5,2.2,2.4,3,4.4,3.4c7.9,1.6,15.5,0.6,23-2
					c1.6-0.5,3.3-0.9,4.6-2.1C234.8,333.3,234.4,330.6,231.4,328.6z M269.3,340.5c3.8-0.7,8-6,7.8-9.7c-0.1-1.4-0.7-2.6-2.2-2.9
					c-1.4-0.3-2.5,0.4-3.1,1.8c-0.3,0.7-0.5,1.5-0.7,2.2c-1.2,3-1.8,3.2-4.5,1.6c-2.6-1.5-3.6-1.4-5.6,1.1c-2.2,2.6-3.9,2.5-5.5-0.6
					c-0.2-0.5-0.2-1-0.5-1.5c-0.6-1.2-1.5-1.8-2.8-1.5c-1.5,0.3-1.7,1.5-1.7,2.7c0,2.4,1.4,4.1,2.9,5.7c2.6,2.6,5.8,3.1,8.8,1.1
					c1.8-1.2,3.3-1.8,5.2-0.4C267.9,340.6,268.8,340.4,269.3,340.5z"/>
				<path class="st0" d="M446.8,271.4c9.3,7.9,16.6,16.5,19.9,28c1.7,6,1.3,12.1-0.4,18.2c-3.7,13.1-12.6,22-23.1,29.8
					c-16.2,12.1-34.1,21.3-52.8,28.9c-19.9,8.1-40.4,14.2-61.3,19.1c-15.4,3.6-31,6.4-46.6,8.4c-14.1,1.8-28.3,3.1-42.6,3.6
					c-13.8,0.5-27.7,0.7-41.5,0.1c-10-0.4-20.1-1.3-30.1-2.4c-9.2-1-18.4-2.3-27.5-4.1c-13.5-2.6-26.8-5.9-39.7-10.7
					c-8.6-3.2-17.2-6.4-25-11.2c-11.6-7.1-20.3-16.9-25.4-29.5c-3.4-8.2-2.1-16.5,1.8-24.3c3.8-7.6,9.4-13.8,15.5-19.6
					c9.8-9.5,21.1-17.2,32.3-24.8c6-4.1,12.2-8,18.4-12c1.8-1.2,2.4-1,2.9,1.1c4.7,17.4,12,33.7,19.7,49.9
					c6.1,12.8,13.7,24.8,24.1,34.5c10.9,10.1,23.2,18.2,37.6,22.8c9.6,3.1,19.2,6,29.2,7.1c11.1,1.2,22.1,1.7,33.3,0.6
					c16-1.7,31.3-6,45.8-12.8c15.9-7.3,29.7-17.6,40.3-31.6c3.3-4.3,7.4-6.8,12.1-8.9c15.2-6.8,29.9-14.4,43.7-23.7
					c6.1-4.1,12-8.3,17.9-12.7C434,288.9,440.8,280.8,446.8,271.4z"/>
				<path class="st1" d="M198,151.1c15.2-3,30.5-4.9,45.9-6c13.6-1,27.1-1.4,40.8-1c10,0.3,19.8,0.8,29.7,2
					c11.4,1.4,22.8,3.4,33.7,7.1c6.1,2.1,12.1,4.3,17,8.8c1,0.9,2,1.7,2.9,2.7c2.7,3.1,3.6,6.5,1.9,10.5c-1.5,3.5-4,6-6.8,8.5
					c-1.2,1.1-2.5,0.6-3.7,0.2c-4.2-1.6-8.4-3.1-12.6-4.4c-6.5-2-13-3.9-19.6-5.7c-7-1.8-14-3.2-21.2-4.2
					c-8.2-1.1-16.4-1.6-24.6-1.8c-14.7-0.4-29.3,0.4-43.8,2.5c-16.4,2.4-32.3,6.5-47.9,12c-12.5,4.5-24.6,9.8-36.2,16.2
					c-4.1,2.3-8.1,4.8-12.1,7.3c-0.9,0.5-1.6,1.3-2.8,0.8c-5.2-2.2-10.3-4.3-14.7-8c-6.2-5.2-5.8-12.2-1.3-17.2
					c4.3-4.8,9.7-8.4,15.4-11.4c11.8-6.2,24.3-10.3,37.1-13.8C182.6,154.2,190.3,152.7,198,151.1z"/>
				<path class="st2" d="M382.9,222.7c-0.2-6.3-0.5-12.5-0.5-18.8c0-1.7-1.6-3.9,0.2-5.1c1.2-0.8,3.3-0.6,4.9-0.7
					c5.5-0.3,10.8-1.6,16.4-1.6c12.4,0,23.7,3.3,33.3,11.5c4.5,3.9,7,9.1,9.1,14.4c3.3,8.3,4.1,17,3,25.9c-1,7.5-3.9,14.4-7.8,20.8
					c-5.8,9.7-13.6,17.4-22.7,24.1c-17.5,12.9-36.1,24-56.6,32.9c1.3-3.2,2.3-6.1,3.7-8.8c2.6-4.9,4.1-10.2,5.6-15.5
					c1.2-4.2,1.1-4.1,5.4-4.7c5.4-0.7,10.7-2.2,16-3.7c7.7-2.1,15.2-4.6,22.2-8.8c7.1-4.3,12.7-9.9,17.1-17
					c5.1-8.3,7.9-17.4,8.6-27.1c0.8-11.2-2.8-21-10.8-28.8c-6.3-6.1-14.1-7-22.3-5c-7.8,1.9-13.7,6.8-19.3,12.3
					c-1.4,1.4-2.7,2.8-4.1,4.2C383.7,223.2,383.3,222.9,382.9,222.7z"/>
				<path class="st3" d="M333.5,198.5c-1.5,2-4,1.5-6,2.3c-3.2,1.4-6.6,2.3-10,3.3c-13.6,3.9-27.6,5.8-41.4,8.6
					c-5.2,1.1-10.6,1-15.9,1.7c-4.3,0.5-8.6,0.6-12.8,1.4c-2.8,0.5-5.6,0.5-8.4,0c0.9-1.5,2.5-1.1,3.8-1.6c2.2-0.7,4.4,0.1,6.6-0.4
					c4.9-1.1,9.8-1.8,14.7-2.9c4.1-0.9,8-2.4,11.6-4.5c3.8-2.2,4.2-6.8,0.5-9.3c-1.8-1.2-3.8-2.2-6-2.7c-12.4-2.6-24.7-1.8-36.9,0.7
					c-0.9,0.2-1.7,0.6-2.5,1c-1.6,0.7-2.7,1.7-2,3.6c0.6,1.6,2.3,2.2,4.2,1.4c1.2-0.6,2.5-0.8,3.8-1.1c6.2-1.1,12.4-1.6,18.7-1.8
					c4.7-0.1,9.4,0.4,13.9,1.8c1,0.3,2,0.5,2.6,2c-7.4,2.8-14.8,5-22.6,5.7c-2.5,0.2-5,0.4-7.4,0.9c-4.6,1.2-9.4,1.1-14,1.6
					c-7.1,0.8-14.3,1.1-21.4,1.1c-8.6,0-17.2,0.7-25.8-0.3c-1.7-0.2-4.2,0.1-4.5-2.3c-0.2-1.9,1.9-2.8,3.6-3.7
					c4.7-2.5,9.5-4.7,14.7-6.3c5.5-1.6,11.1-2.9,16.6-4.4c9.1-2.3,18.4-3.4,27.9-4c7.3-0.5,14.5-1.5,21.8-1.6
					c12.3-0.3,24.6,0.3,36.9,1.7c9.4,1.1,18.5,2.9,27.7,5C328.2,196.3,331.3,196.3,333.5,198.5z"/>
				<path class="st4" d="M333.5,198.5c-2.2-2.2-5.3-2.2-8-2.8c-9.1-2.1-18.3-3.9-27.7-5c-12.3-1.4-24.6-2-36.9-1.7
					c-7.3,0.2-14.5,1.2-21.8,1.6c-9.4,0.6-18.8,1.7-27.9,4c-5.5,1.4-11.1,2.7-16.6,4.4c-5.2,1.5-10,3.7-14.7,6.3
					c-1.6,0.9-3.7,1.8-3.6,3.7c0.2,2.3,2.7,2,4.5,2.3c8.6,1,17.2,0.3,25.8,0.3c7.2,0,14.3-0.4,21.4-1.1c4.7-0.5,9.4-0.5,14-1.6
					c2.4-0.6,4.9-0.8,7.4-0.9c7.8-0.6,15.3-2.9,22.6-5.7c-0.6-1.5-1.7-1.7-2.6-2c-4.5-1.5-9.2-2-13.9-1.8
					c-6.2,0.2-12.5,0.7-18.7,1.8c-1.3,0.2-2.5,0.5-3.8,1.1c-1.9,0.9-3.6,0.3-4.2-1.4c-0.8-1.9,0.4-2.9,2-3.6c0.8-0.4,1.6-0.9,2.5-1
					c12.3-2.6,24.6-3.4,36.9-0.7c2.2,0.5,4.2,1.5,6,2.7c3.6,2.5,3.3,7.1-0.5,9.3c-3.6,2.1-7.6,3.6-11.6,4.5
					c-4.9,1.1-9.8,1.8-14.7,2.9c-2.2,0.5-6.6,0.4-6.6,0.4s-3,0-3.8,1.6c-1.8,0.3-3.6,0.5-5.4,0.8c-0.5-0.9-1-1.6-1.7-0.2
					c-3.7,1.1-7.5,0.1-11.3,0.3c-5.7,0.4-11.4,0.4-17.1,0.2c-6.6-0.2-13.2-0.5-19.8-1.2c-4.1-0.4-8.3-0.7-12.3-1.5
					c-0.5-1.1-1.1-2.1-1.4-3.2c-0.6-1.8-0.4-3.7,1-5.2c2.5-2.7,5.3-5,8.6-6.7c8.6-4.7,18.1-6.6,27.4-9.1c10-2.7,20.4-3.5,30.6-4.9
					c3.3-0.4,6.7-1,10.1-1.1c4.4-0.1,8.8-0.3,13.3-0.3c5.3-0.1,10.7-0.5,16-0.2c8.5,0.5,17.1,1,25.6,2.3c9.7,1.4,19.3,3.4,28.8,5.8
					c2.8,0.7,5.4,1.9,8.1,2.9c0.9,0.3,1.6,0.9,1.7,1.9C338.5,196.6,336.2,198.4,333.5,198.5z"/>
				<g>
					<g>
						<path class="st4" d="M225,217.4c4.7,0.5,9.5-0.7,14.1-1.6c4.9-1,9.7-2.1,14.5-3.5c2.5-0.7,1.8-4.7-0.8-4
							c-4.6,1.3-9.3,2.4-14,3.4c-4.4,0.9-9,2.1-13.5,1.6C222.7,213.1,222.4,217.2,225,217.4L225,217.4z"/>
					</g>
				</g>
				<g>
					<g>
						<path d="M330.2,204.5c2.5-1,5-1.9,7.4-2.9c1-0.4,1.4-1.8,0.9-2.7c-0.6-1-1.7-1.3-2.7-0.9c-2.5,1-5,1.9-7.4,2.9
							c-1,0.4-1.4,1.8-0.9,2.7C328.1,204.6,329.2,204.9,330.2,204.5L330.2,204.5z"/>
					</g>
				</g>
				<g>
					<g>
						<path d="M224.5,220.9c8.7-0.4,17.4-0.7,26.1-1.1c1.1,0,2.1-0.7,2.2-1.9c0.1-1-0.8-2.2-1.9-2.2c-8.7,0.4-17.4,0.7-26.1,1.1
							c-1.1,0-2.1,0.7-2.2,1.9C222.6,219.7,223.4,221,224.5,220.9L224.5,220.9z"/>
					</g>
				</g>
				<g>
					<g>
						<path d="M240.2,220.1c4-0.3,7.7-0.5,11.7-0.6c1.1,0,2.1-0.7,2.2-1.9c0-1-0.7-2.2-1.9-2.2c-4.3,0.2-8.5,0.4-12.8,0.7
							c-1.1,0.1-1.8,1.4-1.6,2.4C238.1,219.7,239.1,220.2,240.2,220.1L240.2,220.1z"/>
					</g>
				</g>
				<path class="st5" d="M341,196.2c-0.1-1-0.8-1.6-1.7-1.9c-2.7-1-5.4-2.2-8.1-2.9c-9.5-2.4-19.1-4.4-28.8-5.8
					c-8.5-1.3-17.1-1.7-25.6-2.3c-5.3-0.3-10.7,0.1-16,0.2c-4.4,0.1-8.9,0.2-13.3,0.3c-3.4,0.1-6.8,0.6-10.1,1.1
					c-10.2,1.4-20.6,2.2-30.6,4.9c-9.3,2.5-18.8,4.5-27.4,9.1c-3.3,1.8-6.1,4-8.6,6.7c-1.4,1.5-1.5,3.3-1,5.2
					c0.3,1.1,0.9,2.1,1.4,3.2c-5.6-0.4-11.1-1.6-16.6-2.7c-2.4-0.5-4.8-1.2-7.2-1.8c-0.3-1.6,0.9-1.9,1.8-2.4
					c11-6.1,22.3-11.4,33.9-16.2c7.9-3.2,16-5.5,24.1-7.9c6.4-2,12.8-3.4,19.2-4.9c7.4-1.7,15-2.3,22.5-3.1c4.9-0.5,9.9-0.9,14.8-1
					c6.7-0.2,13.3-0.8,19.9-0.3c11,0.8,22.2,1.2,33.1,3.6c8.2,1.8,16.2,4.1,24.3,6.5c4.1,1.2,8.3,2.1,12.2,4.1
					c0.4,0.2,1,0.3,1.3,1.2C350.5,192,345.8,194.1,341,196.2z"/>
				<g>
					<g>
						<path d="M378.8,222.7c0.2,1.2,0.4,2.4,0.4,3.6c0,0.5,0.5,1,0.9,1.3c0.4,0.3,1,0.4,1.5,0.3c0.5-0.1,1-0.4,1.3-0.9
							c0.1-0.2,0.2-0.3,0.2-0.5c0.1-0.3,0.1-0.7,0.1-1.1c-0.1-1.2-0.2-2.4-0.4-3.6c-0.1-0.5-0.4-1-0.9-1.3c-0.4-0.3-1-0.4-1.5-0.3
							c-0.5,0.1-1,0.4-1.3,0.9C378.9,221.7,378.7,222.2,378.8,222.7L378.8,222.7z"/>
					</g>
				</g>
				<g>
					<g>
						<path d="M384.1,223.5c-0.5,0.5-1,1.1-1.5,1.6c-0.2,0.2-0.4,0.4-0.5,0.6c-0.1,0.2-0.2,0.5-0.2,0.7c0,0.3,0,0.5,0.1,0.8
							c0.1,0.3,0.2,0.5,0.4,0.7c0.1,0.1,0.3,0.2,0.4,0.3c0.3,0.2,0.6,0.3,1,0.4c0.2,0,0.4,0,0.5,0c0.4-0.1,0.7-0.2,1-0.5
							c0.5-0.5,1-1.1,1.5-1.6c0.2-0.2,0.4-0.4,0.5-0.6c0.1-0.2,0.2-0.5,0.2-0.7c0-0.3,0-0.5-0.1-0.8c-0.1-0.3-0.2-0.5-0.4-0.7
							c-0.1-0.1-0.3-0.2-0.4-0.3c-0.3-0.2-0.6-0.3-1-0.4c-0.2,0-0.4,0-0.5,0C384.7,223.1,384.4,223.3,384.1,223.5L384.1,223.5z"/>
					</g>
				</g>
				<g>
					<g>
						<path d="M387.9,193.5c-2.6,0.6-5.2,1.4-7.7,2.2c-0.5,0.2-1,0.4-1.3,0.9c-0.3,0.4-0.4,1-0.3,1.5c0.1,0.5,0.4,1,0.9,1.3
							c0.4,0.3,1,0.5,1.5,0.3c2.5-0.8,5.1-1.6,7.7-2.2c1-0.3,1.9-1.3,1.6-2.4C390,194.2,389,193.3,387.9,193.5L387.9,193.5z"/>
					</g>
				</g>
				<g>
					<g>
						<path d="M378.4,198c0,3.5,0,7,0,10.5c0,1.1,0.7,2.2,1.9,2.2c1,0,2.2-0.7,2.2-1.9c0-3.5,0-7,0-10.5c0-1.1-0.7-2.2-1.9-2.2
							C379.5,196.1,378.4,196.9,378.4,198L378.4,198z"/>
					</g>
				</g>
				<path class="st6" d="M431.6,256.2c-9.4-3.6-18.5-6.6-27.8-9.2c-5.5-1.6-11.2-2.7-16.7-4c-1-0.3-2-0.4-3.1-0.7
					c-1.4-0.4-2.1-1.1-2-2.8c0.2-3.4,1.1-6.3,3.2-9c5.6-7.1,11.9-13.1,20.2-16.9c4.7-2.2,9.6-2.6,14.5-1.1c4.3,1.3,7.4,4.3,9.8,8
					c5.8,8.8,6.3,18.3,4,28.2C433.2,251.1,432.4,253.4,431.6,256.2z"/>
				<path class="st7" d="M429.1,261.3c-5.8,12.1-15.3,19.1-27,23.4c-8.3,3.1-17,5.2-25.7,7c-0.5,0.1-1,0-2.1,0
					c3.6-14.6,6.2-29.1,7.2-44.2C398,250.7,413.6,255.3,429.1,261.3z"/>
				<path d="M216.4,327.4c-3.6-5.3-3.6-10.7-0.1-14.6c3.9-4.3,10.7-4.8,15.2-1.1c4.3,3.7,5,10.8,1.6,14.8c-0.6,0.7-1.5,1.1-1.6,2.1
					C226.2,331.8,221.1,331.6,216.4,327.4z"/>
				<path d="M292.4,322.7c-5.5-2.5-7.8-8-6.4-13.1c1.3-4.7,6-8.1,11.3-7.9c4.3,0.2,8.6,4.5,9.6,9c0.7,3-0.6,5.3-1.4,7.9
					C302,322.6,297.7,324.4,292.4,322.7z"/>
				<path class="st8" d="M292.4,322.7c5.4,1.7,9.6-0.1,13.1-4.2c5.1-0.4,10.1-1,15.2,0.3c1,0.3,2,0.6,2.8,1.3c2,1.6,2.2,4,0.4,5.8
					c-1.4,1.4-3.2,2.5-5.1,2.9c-6.8,1.6-13.6,3-20.6,2.3c-0.9-0.1-1.8-0.2-2.7-0.5c-3.8-1.1-4.7-3-3.4-6.7
					C292.3,323.5,292.3,323.1,292.4,322.7z"/>
				<path class="st9" d="M216.4,327.4c4.7,4.2,9.7,4.3,15,1.2c3,2,3.3,4.7,0.9,6.9c-1.3,1.2-3,1.6-4.6,2.1c-7.5,2.6-15.2,3.6-23,2
					c-1.9-0.4-3.9-1.2-4.4-3.4c-0.4-1.9,1.3-4.4,3.7-5.5C207.9,328.8,212.2,328.3,216.4,327.4z"/>
				<path d="M269.3,340.5c-0.4-0.1-1.4,0.1-1.9-0.3c-1.9-1.4-3.4-0.8-5.2,0.4c-3,2-6.2,1.6-8.8-1.1c-1.6-1.6-2.9-3.3-2.9-5.7
					c0-1.2,0.3-2.3,1.7-2.7c1.4-0.3,2.3,0.3,2.8,1.5c0.2,0.5,0.2,1,0.5,1.5c1.6,3.1,3.3,3.3,5.5,0.6c2-2.4,2.9-2.6,5.6-1.1
					c2.7,1.6,3.3,1.4,4.5-1.6c0.3-0.7,0.5-1.5,0.7-2.2c0.6-1.4,1.7-2.1,3.1-1.8c1.5,0.3,2.1,1.5,2.2,2.9
					C277.3,334.5,273,339.8,269.3,340.5z"/>
			</g>
			
				<ellipse transform="matrix(0.994 -0.1097 0.1097 0.994 -33.7175 35.7459)" class="st10" cx="308" cy="324.3" rx="19.1" ry="8.5"/>
			<circle cx="296.3" cy="312.9" r="10.8"/>
			
				<ellipse transform="matrix(0.999 -4.579774e-02 4.579774e-02 0.999 -15.0314 10.1904)" class="st10" cx="214.9" cy="333.1" rx="19.1" ry="8.5"/>
			<circle cx="224.7" cy="320" r="10.8"/>
		</g>
	</g>
</g>
</svg>
