<?xml version="1.0" encoding="utf-8"?>
<!-- Generator: Adobe Illustrator 26.2.1, SVG Export Plug-In . SVG Version: 6.00 Build 0)  -->
<svg version="1.1" id="Layer_1" xmlns="http://www.w3.org/2000/svg" xmlns:xlink="http://www.w3.org/1999/xlink" x="0px" y="0px"
	 viewBox="0 0 500 500" style="enable-background:new 0 0 500 500;" xml:space="preserve">
<style type="text/css">
	.st0{fill:#976B38;}
	.st1{fill:#FAEECF;}
	.st2{fill:#C53E3C;}
	.st3{fill:#EDBABA;}
	.st4{fill:#DB84A2;}
	.st5{fill:#DB80A0;}
	.st6{fill:#D97B9E;}
	.st7{fill:#DE8EA6;}
	.st8{fill:#DF91A8;}
	.st9{fill:#DD87A4;}
	.st10{fill:#F8F8F8;}
	.st11{fill:#C9C9C9;}
	.st12{fill:#F3F3F3;}
	.st13{fill:#5F3E2D;}
	.st14{fill:#78523F;}
	.st15{fill:#5E3E2D;}
	.st16{fill:#FCFCFC;}
	.st17{fill:#F6F6F6;}
	.st18{fill:#EFBBBB;}
	.st19{fill:#EEBBBB;}
</style>
<g id="Layer_4">
	
		<image style="overflow:visible;opacity:0.75;enable-background:new    ;" width="800" height="1229" xlink:href="D38E23F32818DF4.png"  transform="matrix(0.2489 0 0 0.2489 42 93.4079)">
	</image>
	<g>
		<g>
			<g>
				<path d="M137.4,143.3c0.2-1.3-0.9-1.8-1.5-2.6c-3.3-4.5-4.2-9.5-3.3-14.9c1-5.6,4.1-8.1,9.8-7.4c1.8,0.2,2.6,0,3.2-1.9
					c0.8-2.6,2.2-4.9,4-7c0.8-0.9,1.6-1.8,2.6-2.5c1.3-1,2.8-1.3,4,0.2c1,1.2,0.8,2.5-0.2,3.7c-0.9,1.1-1.8,2-2.6,3.1
					c-1,1.4-2.2,2.9-2.3,4.7c1,0.9,2.1,0.3,3.1,0.4c5.5,0.5,9.1,4.2,9.1,9.8c-0.1,6-2.6,11-6.9,15.1c-0.5,0.5-1.1,1-1.6,1.5
					c-0.1,0.1,0,0.3-0.1,0.7c2.9,1.2,6,2.3,8.9,3.6c17.6,7.7,30.2,20.8,39.4,37.3c1.9,3.4,3.6,6.9,5,10.5c0.7,1.9,1.5,2.6,3.6,2.2
					c7.5-1.6,15,3.2,16.8,10.7c1.8,7.5-2.9,16.5-9.8,19.2c-0.6,0.2-1.1,0.6-1.7,0.6c-4.7,0.2-5.3,3.2-5.8,7.2
					c-1.9,18-4.6,36-8.1,53.7c-4.2,21-8.2,42-12.4,63c-1.8,9.2-4.4,18.1-10.7,25.4c-4.3,5-9.3,7.8-16.1,7.1c-3.9-0.4-7-2.5-10-4.8
					c-5.1-4-9.4-8.9-13.2-14c-15.8-21.1-28.6-43.8-39.3-67.8c-6.2-13.8-12.5-27.5-19.2-41c-1.6-3.3-1.7-3.4-4.9-1.7
					c-7.9,4.2-19.4-1.9-21.9-9.4c-2.2-6.9,0.9-14.1,7.9-17c2.3-0.9,2.8-2,2.8-4.2c-0.2-13.8,2.4-27.2,8.2-39.7
					c9.3-20.2,24-34.5,45.6-41c4.8-1.4,9.7-2.1,14.6-2.1C135.4,143.8,136.5,144.1,137.4,143.3z M87.9,256.4
					c-0.2-0.3-0.5-0.7-0.9-0.2c0,0.1,0.3,0.4,0.4,0.6c0.1,1.2,0.7,2.2,1.2,3.3c3.9,7.6,7.8,15.2,11.4,23c5.7,12.4,11.2,24.9,17.4,37
					c7.5,14.7,16.6,28.5,26,42c3.9,5.6,8.5,10.5,13.5,15c4.3,3.9,10.7,4.8,14.5,1.8c3.5-2.8,6.6-6.1,8.3-10.4
					c2.6-6.4,4.2-13.1,5.5-19.9c3.2-16.8,6.7-33.5,10-50.2c1.7-8.7,3.5-17.3,4.9-26c1.9-12.3,3.4-24.6,5.2-36.9
					c0.4-3.2,0.4-3.3-2.6-4.4c-0.6-0.2-1.2-0.4-1.7-0.7c-2-1.2-3.1-0.7-4.3,1.4c-2.2,4.1-4.9,7.9-8.9,10.6c-8.8,5.9-17,7.3-26.8,1.2
					c-1-0.6-1.7-1.7-3.1-1.6c-0.3,0.3-0.7,0.6-0.9,1c-3.4,4.6-7.7,8-12.9,10.2c-7.8,3.3-15.2,2.6-22-2.8c-2.6-2.1-2.8-2.1-4.9,0.6
					c-0.2,0.2-0.4,0.5-0.5,0.7c-7.2,10.2-16.5,10.7-26,6C89.8,257,89,256.5,87.9,256.4z M134.9,149.8c-18,0.4-33.8,8.6-45.9,24.1
					c-13.1,16.9-18,36.3-17.1,57.3c0.2,4.1,0.2,4.1-4.1,4.3c-3.1,0.1-5.6,1.4-6.8,4.3c-1.3,3.1-1.2,6.2,1.4,8.7
					c3.7,3.7,9.4,6.4,15.1,1.1c0.5-0.5,1.2-0.9,1.7-1.4c4.1-3.5,4.3-3.4,8.1,0.1c3.5,3.2,7.6,5.2,12.4,5.8c3.5,0.5,6.6-0.4,9.1-2.9
					c2.5-2.6,5-5.2,6.4-8.6c0.6-1.5,1.2-3.1,3.2-3.3c2.1-0.2,2.7,1.4,3.6,2.8c3.3,5.1,9.6,7.7,15.6,6.5c7.6-1.6,12.6-6.5,16.7-12.7
					c2.1-3.2,2.5-3.3,5.3-0.7c7.9,7.4,16.5,8,25.2,1.6c2.7-2,4.7-4.6,6.2-7.6c1-1.9,1.7-3.8,2.8-5.7c1.4-2.5,3-3,5.1-1.2
					c5.3,4.5,11,4.1,16.9,1.8c4.2-1.6,7.2-6.7,6.8-11.1c-0.6-5.5-5.7-8.9-11.1-7.3c-0.7,0.2-1.4,0.6-2.1,0.8
					c-2.8,0.9-4.1,0.4-5.4-2.3c-0.7-1.5-1.2-3.1-1.8-4.6c-6-14.6-14.8-27-27.5-36.5C163.6,154.7,150.9,149.9,134.9,149.8z
					 M138.1,128.9c-0.6,5.8,3,9.2,7.2,12.1c1.3,0.9,2.7,0.9,4.3,0.2c4.2-1.8,7.7-7.1,7.6-11.9c-0.1-3.6-1.8-5-5.2-3.7
					c-3.3,1.2-6.1,1.7-9.1-1c-2-1.8-4.1-0.6-4.6,2C138,127.4,138.1,128.2,138.1,128.9z"/>
				<path class="st0" d="M87.9,256.4c1.1,0.1,2,0.6,2.9,1.1c9.5,4.8,18.9,4.2,26-6c0.2-0.2,0.4-0.5,0.5-0.7c2.1-2.7,2.3-2.7,4.9-0.6
					c6.8,5.4,14.2,6.1,22,2.8c5.2-2.2,9.6-5.6,12.9-10.2c0.3-0.4,0.6-0.7,0.9-1c1.4-0.1,2.2,1,3.1,1.6c9.8,6.1,18,4.7,26.8-1.2
					c4-2.7,6.7-6.5,8.9-10.6c1.1-2.1,2.3-2.5,4.3-1.4c0.5,0.3,1.1,0.5,1.7,0.7c3.1,1.1,3.1,1.2,2.6,4.4c-1.7,12.3-3.3,24.6-5.2,36.9
					c-1.4,8.7-3.2,17.4-4.9,26c-3.3,16.7-6.9,33.4-10,50.2c-1.3,6.8-2.9,13.5-5.5,19.9c-1.8,4.3-4.8,7.6-8.3,10.4
					c-3.8,3-10.2,2.1-14.5-1.8c-5-4.5-9.7-9.4-13.5-15c-9.4-13.5-18.4-27.3-26-42c-6.2-12.1-11.7-24.6-17.4-37
					c-3.6-7.8-7.6-15.3-11.4-23c-0.6-1.1-1.2-2.1-1.2-3.3C87.6,256.7,87.7,256.5,87.9,256.4z"/>
				<path class="st1" d="M134.9,149.8c16,0,28.7,4.9,40.1,13.4c12.7,9.5,21.5,21.9,27.5,36.5c0.6,1.5,1.1,3.1,1.8,4.6
					c1.2,2.7,2.5,3.2,5.4,2.3c0.7-0.2,1.4-0.6,2.1-0.8c5.3-1.6,10.5,1.8,11.1,7.3c0.5,4.4-2.6,9.5-6.8,11.1
					c-5.9,2.3-11.6,2.7-16.9-1.8c-2.1-1.8-3.7-1.3-5.1,1.2c-1,1.8-1.8,3.8-2.8,5.7c-1.6,3-3.5,5.6-6.2,7.6
					c-8.7,6.4-17.2,5.9-25.2-1.6c-2.8-2.6-3.2-2.6-5.3,0.7c-4,6.2-9.1,11.1-16.7,12.7c-6,1.2-12.3-1.4-15.6-6.5
					c-0.9-1.4-1.5-2.9-3.6-2.8c-2.1,0.2-2.6,1.8-3.2,3.3c-1.4,3.4-3.9,6-6.4,8.6c-2.5,2.5-5.6,3.4-9.1,2.9
					c-4.7-0.7-8.9-2.6-12.4-5.8c-3.9-3.5-4-3.5-8.1-0.1c-0.6,0.5-1.2,0.9-1.7,1.4c-5.7,5.3-11.4,2.6-15.1-1.1
					c-2.6-2.6-2.7-5.6-1.4-8.7c1.2-2.9,3.7-4.2,6.8-4.3c4.2-0.2,4.2-0.2,4.1-4.3c-0.9-21.1,3.9-40.5,17.1-57.3
					C101,158.5,116.8,150.2,134.9,149.8z M117.3,215.2c2.6-6.6,1.9-9.1-4.1-11.9c-2.7-1.3-1.8-3-1.3-4.9c-1.4,3.9-1.4,3.9-2.9,4.9
					c-5.5,3.8-6,5.8-3.2,12c-1,2-3.5,2.3-4.5,4.2c-1.3,2.4-1.1,3.9,1.2,5.3c0.9,0.5,1.9,1,2.9,1.1c4.8,0.5,9.1-1.3,13.2-3.5
					c1.5-0.8,2.6-2.6,2.3-4.6C120.5,216,119.3,214.9,117.3,215.2z M157.3,206.8c-0.1,0.6-0.2,1.2-0.2,1.8c-0.1,4.4,2.6,6.5,7.1,5.8
					c3.2-0.4,6.1-1.4,9-2.5c2.8-1.1,4.9-3.9,4.3-5.7c-0.8-2.6-3.1-3.5-5.6-3.7c-1.3-0.1-2.7,0-3.6-1.4c0.1-1.5,0.1-2.9-0.4-4.4
					c-1.1-3.2-3.5-4.7-6.6-5.2c-3-0.4-5.6,0.8-7.3,3.3c-1.7,2.7-1.9,5.5-0.2,8.4C154.8,204.9,156,205.9,157.3,206.8z M146.1,214.2
					c-0.2-1.7-0.3-3.4-2.4-3.9c-1.9-0.4-2.7,0.7-3.4,2.2c-0.7,1.4,0.4,3.9-1.5,4.4c-2.2,0.6-2.4-2.2-3.7-3.3c-1.2-1.1-2.6-1.7-4-0.7
					c-1.5,1-1.4,2.5-0.8,4c0.9,2.3,2.6,4,4.6,5.3c3.4,2.2,7.2,1.3,9.4-2.1C145.4,218.3,145.9,216.2,146.1,214.2z M117.8,180.8
					c-0.1-0.3-0.2-0.6-0.3-0.8c-1-1.2-2.1-0.6-3.2-0.1c-1.1,0.5-2.2,1-2.2,2.4c0,0.2,0.2,0.6,0.4,0.7c0.9,0.8,2,0.6,2.9,0.1
					C116.3,182.5,117.5,182,117.8,180.8z M90.8,228.7c0-0.7-0.3-1.1-0.9-1.3c-1.5-0.5-4.2,2.2-3.9,3.8c0.1,0.7,0.7,1,1.3,0.9
					C88.5,232.1,90.7,230,90.8,228.7z M167.3,179.1c1.3-0.3,2.9-0.7,3.9-2.2c0.2-0.4,0.2-0.9-0.3-1.1c-1.8-0.8-3.1,0.3-4.5,1
					c-0.5,0.3-0.9,0.8-0.7,1.5C165.8,179,166.4,179,167.3,179.1z M131.9,194.8c0.1,1,0.6,1.3,1.2,1.3c1.4,0,3.2-2.1,3-3.4
					c-0.2-0.9-0.9-1.2-1.7-1C132.6,192.2,132.1,193.5,131.9,194.8z M116.9,226.8c-1.1,0.1-2.5-0.5-2.7,0.9c-0.2,1.5,1.3,1.7,2.5,1.9
					c0.7,0.1,1.5,0.1,2.2,0c0.7-0.1,1.1-0.5,1.1-1.1c0-0.7-0.4-1.1-1-1.3C118.2,227,117.4,226.9,116.9,226.8z M122.7,160.6
					c0.1-1,0-1.6-0.7-1.7c-0.4,0-0.9,0.2-1.1,0.5c-0.9,1.4-1.6,2.8-1.4,4.5c0,0.5,0.7,0.7,1,0.4C122,163.4,122.4,161.8,122.7,160.6z
					 M94.7,185.2c1.3-0.3,1.7-1.4,1.7-2.7c0-0.8-0.4-1.5-1.2-1.6c-1.1-0.2-2.3,1.5-2.1,2.9C93.2,184.7,93.6,185.3,94.7,185.2z
					 M89.8,203.4c-0.9,0.1-2.1,0.1-2.1,1.5c0,1.3,1,1.9,2.1,1.9c1.1,0.1,2.1-0.5,2.2-1.7C92.2,203.7,91,203.5,89.8,203.4z
					 M146.3,166.2c-0.1-0.3-0.1-0.6-0.3-0.8c-1.3-1-2.2,0.1-3.2,0.6c-0.8,0.4-1.4,1.2-1,2.2c0.1,0.2,0.4,0.4,0.7,0.5
					C143.9,169,146.1,167.5,146.3,166.2z M194.5,212.4c1.2-0.1,1.8-0.8,2.4-1.6c0.3-0.5,0.7-1,0.1-1.5c-0.5-0.5-1.1-0.3-1.6-0.1
					c-0.8,0.4-1.5,1-1.9,1.8C193.2,211.9,193.7,212.3,194.5,212.4z M181.6,195.4c-1.2,0-2,0.4-1.7,1.2c0.4,1.2,1.6,1.6,2.8,1.5
					c0.6-0.1,1.3-0.2,1.2-1C183.6,195.5,182.4,195.5,181.6,195.4z"/>
				<circle class="st1" cx="110.1" cy="202.8" r="5.7"/>
				<circle class="st1" cx="158.5" cy="194" r="7.3"/>
				<ellipse class="st1" cx="108" cy="229.4" rx="10.9" ry="7.3"/>
				<path class="st2" d="M138.1,128.9c0-0.7,0-1.5,0.1-2.2c0.5-2.6,2.6-3.8,4.6-2c3,2.7,5.8,2.2,9.1,1c3.4-1.2,5.2,0.2,5.2,3.7
					c0.1,4.8-3.4,10.1-7.6,11.9c-1.6,0.7-2.9,0.7-4.3-0.2C141.1,138.1,137.5,134.8,138.1,128.9z"/>
				<path class="st0" d="M87.4,256.8c-0.2-0.2-0.5-0.5-0.4-0.6c0.4-0.6,0.6-0.1,0.9,0.2C87.7,256.5,87.6,256.7,87.4,256.8z"/>
				
					<ellipse transform="matrix(0.9724 -0.2332 0.2332 0.9724 -43.8124 44.6163)" class="st3" cx="166.8" cy="207.6" rx="13.1" ry="6.5"/>
				
					<ellipse transform="matrix(0.9832 -0.1823 0.1823 0.9832 -38.094 23.6412)" class="st3" cx="109.5" cy="219" rx="13.1" ry="6.5"/>
				<circle cx="111.6" cy="210.6" r="8.3"/>
				<circle cx="160.6" cy="200.2" r="8.3"/>
				<path d="M146.1,214.2c-0.2,2.1-0.7,4.1-1.8,5.9c-2.1,3.4-6,4.2-9.4,2.1c-2-1.3-3.7-3-4.6-5.3c-0.6-1.5-0.7-3,0.8-4
					c1.4-0.9,2.8-0.4,4,0.7c1.2,1.1,1.4,3.9,3.7,3.3c1.9-0.5,0.8-3,1.5-4.4c0.7-1.4,1.5-2.6,3.4-2.2
					C145.8,210.8,146,212.4,146.1,214.2z"/>
				<path class="st4" d="M117.8,180.8c-0.3,1.2-1.5,1.7-2.5,2.3c-0.9,0.6-2,0.7-2.9-0.1c-0.2-0.2-0.4-0.5-0.4-0.7
					c0-1.4,1.1-2,2.2-2.4c1.1-0.5,2.2-1.1,3.2,0.1C117.7,180.1,117.7,180.4,117.8,180.8z"/>
				<path class="st4" d="M90.8,228.7c-0.1,1.2-2.3,3.4-3.6,3.4c-0.6,0-1.1-0.2-1.3-0.9c-0.3-1.6,2.5-4.3,3.9-3.8
					C90.5,227.6,90.8,228.1,90.8,228.7z"/>
				<path class="st5" d="M167.3,179.1c-0.9,0-1.5-0.1-1.7-0.8c-0.2-0.7,0.2-1.2,0.7-1.5c1.4-0.7,2.7-1.9,4.5-1
					c0.5,0.2,0.6,0.7,0.3,1.1C170.2,178.4,168.6,178.7,167.3,179.1z"/>
				<path class="st4" d="M131.9,194.8c0.2-1.4,0.7-2.7,2.5-3c0.8-0.2,1.5,0.1,1.7,1c0.3,1.3-1.6,3.4-3,3.4
					C132.5,196.2,132,195.8,131.9,194.8z"/>
				<path class="st6" d="M116.9,226.8c0.6,0.1,1.3,0.2,2,0.4c0.6,0.2,1,0.6,1,1.3c0,0.7-0.4,1.1-1.1,1.1c-0.7,0.1-1.5,0.1-2.2,0
					c-1.1-0.2-2.7-0.4-2.5-1.9C114.3,226.3,115.8,226.9,116.9,226.8z"/>
				<path class="st7" d="M122.7,160.6c-0.3,1.2-0.8,2.8-2.3,3.7c-0.4,0.2-1,0-1-0.4c-0.1-1.7,0.6-3.1,1.4-4.5
					c0.2-0.3,0.8-0.5,1.1-0.5C122.7,159,122.8,159.6,122.7,160.6z"/>
				<path class="st8" d="M94.7,185.2c-1.1,0-1.5-0.6-1.6-1.4c-0.2-1.5,1-3.1,2.1-2.9c0.8,0.1,1.2,0.8,1.2,1.6
					C96.4,183.9,96,184.9,94.7,185.2z"/>
				<path class="st4" d="M89.8,203.4c1.2,0.1,2.4,0.3,2.2,1.7c-0.1,1.2-1.1,1.8-2.2,1.7c-1.1-0.1-2.1-0.6-2.1-1.9
					C87.7,203.5,88.9,203.5,89.8,203.4z"/>
				<path class="st9" d="M146.3,166.2c-0.2,1.3-2.4,2.9-3.8,2.6c-0.2-0.1-0.6-0.3-0.7-0.5c-0.4-1,0.1-1.8,1-2.2
					c1-0.5,1.9-1.6,3.2-0.6C146.2,165.5,146.2,165.9,146.3,166.2z"/>
				<path class="st9" d="M194.5,212.4c-0.8-0.2-1.3-0.6-0.9-1.5c0.4-0.8,1.1-1.4,1.9-1.8c0.5-0.2,1.1-0.4,1.6,0.1
					c0.6,0.5,0.2,1.1-0.1,1.5C196.4,211.6,195.7,212.4,194.5,212.4z"/>
				<path class="st5" d="M181.6,195.4c0.8,0.1,2,0.2,2.2,1.7c0.1,0.7-0.6,0.9-1.2,1c-1.2,0.1-2.4-0.2-2.8-1.5
					C179.6,195.7,180.4,195.3,181.6,195.4z"/>
			</g>
		</g>
	</g>
</g>
<g id="Layer_3">
	
		<image style="overflow:visible;opacity:0.75;enable-background:new    ;" width="1429" height="954" xlink:href="D38E23F32818DFC.png"  transform="matrix(0.2489 0 0 0.2489 122.3463 159.3859)">
	</image>
	<g>
		<g>
			<g>
				<path d="M334.7,384.2c-10.3,0.3-20.5-0.2-30.7-0.8c-9.8-0.6-19.6-1.7-29.3-3.1c-7.8-1.2-15.7-2.4-23.5-4
					c-8.5-1.7-16.8-3.8-25.1-6.2c-6.4-1.8-12.7-3.8-18.9-6.1c-7.6-2.7-15-5.7-22.3-9.2c-4.3-2.1-8.7-4.2-12.9-6.6
					c-8-4.5-15.7-9.5-22.5-15.7c-5.5-5.1-9.3-11.2-12-18.2c-1.7-4.5-2.9-8.9-2.6-13.8c0.5-7.5,3.4-13.8,8.6-19.1
					c6.6-6.8,14.5-12,23-16.4c11.1-5.7,22.6-10.4,34.3-14.8c4-1.5,3.1-0.5,2.9-4.6c-0.3-6.9-0.2-13.8,0.2-20.8
					c0.7-11.1,3-21.9,6.2-32.5c0.9-3,2.9-5.5,5.4-7.4c5.2-4,11.2-6.2,17.5-7.8c9.3-2.5,18.7-3.7,28.3-4.4c12-0.9,24.1-0.8,36.1-0.1
					c11.1,0.7,22.2,1.9,33.2,3.8c9.5,1.6,19,3.5,28.3,5.9c8.9,2.3,17.8,5.2,26.2,8.9c6.3,2.7,12.3,5.9,17.7,10.2
					c4,3.2,7.5,6.9,8.3,12.2c0.6,4.1,0.9,8.2,0.9,12.3c0,2.1-0.1,4.2-0.1,6.3c0,1.8,0.4,2.3,2.2,2.5c2.2,0.2,4.4,0.4,6.6,0.5
					c5.1,0.2,10.2,0.7,15.1,2.5c10,3.7,18.7,9.2,23,19.5c2.8,6.7,3.6,13.8,2.5,21c-0.9,5.9-2.8,11.5-5.7,16.7
					c-0.5,0.9-1.1,1.7-1.7,2.5c-1.5,2-1.5,2,0.2,4c5.3,6.3,8.8,13.4,10.6,21.4c1.7,7.6,0.1,14.8-3.7,21.4
					c-4.8,8.3-11.9,13.9-20.4,18.2c-16,8.1-33,13-50.5,16.4c-11.4,2.2-23,3.6-34.6,4.4C348.5,383.7,341.6,383.9,334.7,384.2z
					 M380.9,231c3.9-0.9,7.7-1.8,11.3-3.3c-0.1-0.8-0.5-0.9-0.8-1.1c-2.6-2.1-5.7-3.4-8.6-4.9c-5.7-3-11.5-5.9-17.4-8.4
					c-7.9-3.4-16.2-5.3-24.4-7.5c-4.9-1.3-10.1-1.8-15.1-2.6c-3.8-0.6-7.5-1.1-11.3-1.4c-5.8-0.5-11.6-1.1-17.4-0.9
					c-5.1,0.2-10.2,0.4-15.2,1c-6.5,0.7-13,1.2-19.4,2.5c-9.4,1.9-18.8,4.3-27.9,7.3c-0.7,0.2-1.6,0.3-1.7,1.5
					c1.7,0.8,3.4,1.6,5.2,2.4c4,1.7,8,3.4,12.1,4.5c3,1.2,6,2,9.1,2.9c4.9,1.5,9.8,2.7,14.8,3.8c4.3,0.9,8.6,1.8,12.9,2.3
					c2.9,0.3,5.6,1.7,8.6,1.4c0.3,0.5,0.8,0.6,1.3,0.4c1.4,0.1,2.8,0.1,4.2,0.2c2.1,0.7,4.2,1.2,6.4,1.2c3.3,0,6.6,0.6,9.9,0.8
					c4.1,0.2,8.1,1.1,12.2,1c10.8-0.1,21.7,0.4,32.5-0.5c2.7-0.2,5.4-0.4,8-1c1.6-0.4,3.5,0.4,4.9-0.9
					C376.9,231.9,378.8,231,380.9,231z M409.4,257.7c1.2-0.9,2.4-1.8,3.7-2.6c5-3.3,10.2-6.2,16.3-6.5c6.5-0.3,12.3,1.4,16.1,7
					c4.9,7.1,6.2,15,4,23.3c-1.9,7.2-5.3,13.6-10.4,19.2c-4.3,4.7-9.4,8.2-15.3,10.4c-5.8,2.2-11.9,2.9-18,3.4
					c-4.2,0.4-8.4,0.7-12.6,0.5c-3.3-0.2-3.2-0.3-4.7,2.8c-1.9,3.8-3.8,7.5-6.4,10.9c-1.4,1.8-2.6,3.9-4,6.1
					c16.8-3.8,32.4-9.5,47.5-16.7c7.8-3.8,14.8-8.5,20.6-15c3.9-4.3,7.1-9.1,8.9-14.6c2.1-6.5,2.8-13.2,1.5-20
					c-0.8-4.3-1.9-8.6-4.8-12.2c-6.1-7.6-14.1-11.7-23.5-13.5c-4.2-0.8-8.4-0.6-12.6-1.2c-1.3-0.2-2.8-0.6-3.8-0.2
					c-1.5,0.7-0.6,2.5-0.9,3.9c-0.9,4.7-1.6,9.5-2.3,14.3c-0.6,0.5-0.9,1.1-0.2,1.6C408.8,258.8,409.3,258.2,409.4,257.7z
					 M407.7,224.1c-1.7,1.2-3.1,2.3-4.5,3.2c-5.1,3.5-10.9,5.2-16.7,6.7c-15.8,4-31.9,4.8-48.1,4.6c-13.9-0.1-27.7-1.3-41.4-3.3
					c-13.3-1.9-26.5-4.5-39.4-8.2c-10.7-3.1-21.2-6.7-31-12.4c-5.3-3-10.3-6.3-14-11.2c-0.2-0.3-0.5-0.6-1.1-0.3
					c-0.1,0.8-0.3,1.6-0.4,2.5c-2.3,10.7-3.3,21.5-3.2,32.3c0.1,15.9,2.3,31.6,6.2,47.1c2.1,8.4,4.4,16.7,7.7,24.7
					c4.8,11.8,12.9,20.9,22.5,28.7c7.2,5.9,15.7,9.7,24.3,13.2c3.5,1.4,7.1,2.2,10.6,3.3c7.6,2.2,15.3,3.4,23.1,3.7
					c8.4,0.3,16.8-0.4,25.1-2.2c11.7-2.5,22.6-6.8,32.4-13.7c10.7-7.5,18.9-17.1,24.6-28.8c2.2-4.6,4.5-9.2,6.6-13.9
					c2.9-6.6,5.3-13.4,7.4-20.4c1.8-5.9,3.2-11.8,4.6-17.8c2.3-9.8,4.1-19.7,4.6-29.7C407.8,229.6,408.3,227,407.7,224.1z
					 M449.9,303c-5.9,6.3-12.2,11.3-19.7,14.9c-5.1,2.4-10.2,4.8-15.3,7c-11.8,5-24,8.7-36.4,11.6c-3.8,0.9-7.3,2.2-10.4,5
					c-10,9-21.9,14.8-35,18.1c-12,3-24.1,4.1-36.5,3.1c-8.6-0.7-16.9-2.7-25-5.2c-7.4-2.3-14.3-5.8-21.1-9.5
					c-10.2-5.6-18.3-13.5-25.1-22.7c-6.5-8.8-10.5-19-13.3-29.5c-3.5-13.3-6.6-26.7-7.7-40.5c-0.1-1.7-0.5-1.9-2.1-1.3
					c-5.2,2.1-10.5,4.1-15.6,6.4c-9.6,4.2-19.2,8.3-27.9,14.1c-5.4,3.6-10.5,7.5-14.5,12.6c-4.1,5.3-6.2,11.4-4.8,18.1
					c2.1,10.2,7.2,18.9,15,25.9c5.2,4.8,11.3,8.4,17.3,12.1c9.1,5.5,18.6,9.9,28.4,13.8c6.6,2.6,13.4,4.9,20.2,7
					c7.4,2.3,14.8,4.4,22.4,6.1c10.4,2.4,20.8,4.3,31.3,5.9c10.9,1.6,21.7,2.7,32.7,3.4c12.1,0.8,24.3,0.9,36.4,0.4
					c16.5-0.7,32.9-2.4,49.1-5.6c15.2-3.1,30-7.4,44-14.2c9-4.4,17.1-9.8,21.7-19.2c2.1-4.3,3.4-8.8,2.9-13.6
					C460.1,317.8,455.8,310.2,449.9,303z M279.3,176.4c-6,0.1-12.1,0.1-18.1,0.5c-10.1,0.8-20.2,2.1-30,5.1
					c-4.7,1.4-9.3,3.3-13.2,6.4c-4.1,3.2-5.4,8.4-1.5,13.2c2.8,3.4,6.4,5.8,10,8.2c0.9,0.6,1.5,0.1,2.2-0.2
					c3.4-1.3,6.7-2.6,10.2-3.7c9.7-3.2,19.6-5.4,29.6-7c12.6-2,25.2-2.7,37.9-2.2c11.3,0.5,22.4,2,33.4,4.4
					c6.2,1.3,12.3,2.9,18.3,4.9c5.3,1.7,10.4,3.8,15.4,6.2c4.7,2.2,9.4,4.7,14,7.1c3,1.6,6,3.3,8.9,5.1c0.8,0.5,1.7,1.1,2.8,0.4
					c2.4-1.4,4.7-3,6.4-5.4c1.9-2.8,1.6-5.5,0.1-8.2c-0.5-0.9-1.2-1.6-1.8-2.4c-3-4.1-7.3-6.6-11.6-9.1c-7.7-4.4-16-7.5-24.4-10.2
					c-7.3-2.3-14.7-4.1-22.1-5.8c-10.2-2.3-20.5-3.9-30.9-5.1C303.1,177.1,291.2,176.3,279.3,176.4z M440.6,289.3
					c1-2,1.9-3.6,2.7-5.4c3.2-7.1,4.1-14.4,1-21.9c-1.3-3.1-3.2-5.9-6.3-7.5c-3.5-1.8-7.2-2.2-11.1-1.3c-6.8,1.7-12.5,5.3-17.7,9.9
					c-2,1.8-3.1,3.8-3.7,6.3c-0.3,1.2,0.1,1.9,1.1,2.4c0.7,0.3,1.5,0.6,2.2,1c4,1.8,8.1,3.5,12.1,5.5
					C427.5,281.7,434.1,285.3,440.6,289.3z M438,292.8c-10.8-6.8-21.9-12.4-33.9-17.3c-2.9,11.3-7,21.9-11.8,32.4
					c0.8,0.2,1.2,0.3,1.6,0.3c6.8-0.1,13.7-0.4,20.4-1.6C423.7,305,431.9,301.1,438,292.8z"/>
				<path class="st10" d="M407.7,224.1c0.6,2.9,0.1,5.5,0,8c-0.5,10.1-2.4,19.9-4.6,29.7c-1.4,6-2.8,11.9-4.6,17.8
					c-2.1,6.9-4.5,13.7-7.4,20.4c-2.1,4.7-4.4,9.3-6.6,13.9c-5.7,11.7-13.9,21.3-24.6,28.8c-9.9,6.9-20.7,11.2-32.4,13.7
					c-8.3,1.8-16.7,2.5-25.1,2.2c-7.8-0.3-15.6-1.5-23.1-3.7c-3.6-1-7.2-1.9-10.6-3.3c-8.6-3.5-17.1-7.3-24.3-13.2
					c-9.6-7.8-17.7-16.9-22.5-28.7c-3.3-8-5.6-16.3-7.7-24.7c-3.9-15.5-6.1-31.1-6.2-47.1c-0.1-10.9,0.9-21.7,3.2-32.3
					c0.2-0.9,0.3-1.7,0.4-2.5c0.6-0.3,0.9,0,1.1,0.3c3.7,4.9,8.7,8.2,14,11.2c9.7,5.6,20.3,9.3,31,12.4c12.9,3.7,26.1,6.3,39.4,8.2
					c13.7,2,27.5,3.1,41.4,3.3c16.2,0.2,32.3-0.6,48.1-4.6c5.8-1.5,11.6-3.2,16.7-6.7C404.6,226.4,406,225.4,407.7,224.1z
					 M336.5,318.3c1-1.8,2.2-3.4,2.2-5.8c-0.1-3.5-2.8-7.4-6-8.1c-3.9-0.9-8,1-9.6,4.4c-1.8,3.7-0.8,8.2,2.9,10.8
					c-0.1,0.3-0.2,0.6-0.3,0.8c-1.5,2.7-1.1,4.2,1.6,5.6c0.6,0.3,1.3,0.6,2,0.7c5.2,1.5,10.5,1.4,15.9,1.2c1.5-0.1,3-0.6,4.2-1.5
					c1.6-1.1,1.8-2.9,0.5-4.4c-0.5-0.6-1.2-1-2-1.4C344.3,318.9,340.3,318.7,336.5,318.3z M279.1,315.2c0.3-0.7,1-0.9,1.6-1.4
					c3.1-2.5,3.6-8,0.9-11.4c-2.8-3.4-8.1-4-11.6-1.4c-3.2,2.4-4,6.6-2,11.1c-3.3,0-6.6-0.2-9.9,0.7c-1.9,0.5-3.6,2.1-3.6,3.6
					c0.1,1.7,1.4,2.6,2.8,3.2c5.7,2.4,11.6,2.7,17.7,1.8c1.3-0.2,2.6-0.2,3.8-0.9C280.9,319.3,281,317.2,279.1,315.2z M305.9,329.6
					c3,0,6.9-3.4,7.3-6.2c0.1-1.1-0.2-2.1-1.2-2.5c-1-0.4-2,0-2.6,0.9c-0.3,0.5-0.6,1.1-0.9,1.6c-1.3,2.1-1.8,2.2-3.6,0.6
					c-1.8-1.5-2.5-1.5-4.4,0c-2,1.7-3.3,1.3-4.1-1.2c-0.1-0.4,0-0.8-0.1-1.2c-0.3-1-0.9-1.6-1.9-1.5c-1.2,0-1.5,0.8-1.7,1.8
					c-0.4,1.8,0.4,3.3,1.4,4.8c1.6,2.4,3.9,3.2,6.5,2.1c1.5-0.6,2.7-0.9,4,0.4C304.9,329.5,305.6,329.5,305.9,329.6z"/>
				<path class="st10" d="M449.9,303c5.9,7.3,10.2,14.9,11,24c0.4,4.8-0.8,9.3-2.9,13.6c-4.6,9.4-12.7,14.8-21.7,19.2
					c-14,6.8-28.8,11.2-44,14.2c-16.2,3.3-32.6,4.9-49.1,5.6c-12.2,0.5-24.3,0.4-36.4-0.4c-10.9-0.7-21.8-1.7-32.7-3.4
					c-10.5-1.6-21-3.5-31.3-5.9c-7.5-1.8-15-3.8-22.4-6.1c-6.8-2.1-13.6-4.4-20.2-7c-9.8-3.9-19.4-8.3-28.4-13.8
					c-6-3.7-12.1-7.3-17.3-12.1c-7.7-7.1-12.9-15.7-15-25.9c-1.4-6.7,0.8-12.8,4.8-18.1c4-5.2,9.1-9,14.5-12.6
					c8.8-5.8,18.4-9.9,27.9-14.1c5.2-2.2,10.4-4.3,15.6-6.4c1.5-0.6,1.9-0.4,2.1,1.3c1.1,13.8,4.2,27.2,7.7,40.5
					c2.7,10.6,6.8,20.7,13.3,29.5c6.8,9.2,14.9,17.1,25.1,22.7c6.8,3.7,13.7,7.3,21.1,9.5c8.2,2.5,16.5,4.5,25,5.2
					c12.3,1.1,24.5-0.1,36.5-3.1c13-3.3,25-9,35-18.1c3.1-2.8,6.6-4.1,10.4-5c12.4-2.9,24.6-6.6,36.4-11.6c5.2-2.2,10.3-4.6,15.3-7
					C437.7,314.3,444,309.2,449.9,303z"/>
				<path class="st11" d="M279.3,176.4c11.9-0.1,23.7,0.7,35.5,2.1c10.4,1.2,20.7,2.8,30.9,5.1c7.5,1.7,14.9,3.5,22.1,5.8
					c8.4,2.7,16.7,5.8,24.4,10.2c4.3,2.4,8.5,5,11.6,9.1c0.6,0.8,1.3,1.6,1.8,2.4c1.6,2.7,1.8,5.4-0.1,8.2c-1.6,2.4-3.9,4-6.4,5.4
					c-1.1,0.6-2,0.1-2.8-0.4c-2.9-1.8-5.9-3.5-8.9-5.1c-4.6-2.4-9.3-4.8-14-7.1c-5-2.4-10.1-4.4-15.4-6.2c-6-2-12.2-3.5-18.3-4.9
					c-11-2.4-22.2-3.9-33.4-4.4c-12.7-0.5-25.3,0.2-37.9,2.2c-10.1,1.6-19.9,3.8-29.6,7c-3.4,1.1-6.8,2.5-10.2,3.7
					c-0.7,0.3-1.4,0.8-2.2,0.2c-3.6-2.4-7.2-4.8-10-8.2c-3.9-4.8-2.6-10,1.5-13.2c4-3,8.5-4.9,13.2-6.4c9.8-3,19.8-4.3,30-5.1
					C267.3,176.5,273.3,176.5,279.3,176.4z"/>
				<path class="st12" d="M408.7,257c0.8-4.8,1.4-9.5,2.3-14.3c0.2-1.3-0.6-3.2,0.9-3.9c1-0.5,2.5,0,3.8,0.2
					c4.2,0.5,8.4,0.3,12.6,1.2c9.4,1.8,17.5,5.9,23.5,13.5c2.9,3.6,4,7.9,4.8,12.2c1.3,6.8,0.6,13.5-1.5,20
					c-1.8,5.5-5,10.3-8.9,14.6c-5.8,6.5-12.8,11.2-20.6,15c-15.1,7.3-30.7,12.9-47.5,16.7c1.5-2.2,2.6-4.3,4-6.1
					c2.6-3.3,4.6-7.1,6.4-10.9c1.5-3,1.4-2.9,4.7-2.8c4.2,0.2,8.4-0.2,12.6-0.5c6.1-0.5,12.2-1.3,18-3.4c6-2.2,11-5.7,15.3-10.4
					c5-5.6,8.5-12,10.4-19.2c2.2-8.3,0.9-16.2-4-23.3c-3.9-5.5-9.7-7.3-16.1-7c-6.1,0.3-11.3,3.2-16.3,6.5c-1.3,0.8-2.5,1.7-3.7,2.6
					C409.2,257.5,408.9,257.2,408.7,257z"/>
				<path class="st13" d="M374.9,231.6c-1.4,1.3-3.3,0.5-4.9,0.9c-2.6,0.6-5.3,0.8-8,1c-10.8,1-21.7,0.4-32.5,0.5
					c-4.1,0-8.2-0.8-12.2-1c-3.3-0.2-6.6-0.8-9.9-0.8c-2.2,0-4.3-0.4-6.4-1.2c0.9-1,2.1-0.5,3.1-0.6c1.7-0.2,3.3,0.7,5.1,0.6
					c3.8-0.1,7.7,0.1,11.5-0.1c3.2-0.1,6.4-0.7,9.4-1.7c3.2-1.1,4.1-4.5,1.7-6.9c-1.2-1.2-2.5-2.2-4.2-2.9c-9-3.8-18.4-4.9-28-4.8
					c-0.7,0-1.4,0.2-2.1,0.4c-1.3,0.3-2.3,0.9-2,2.4c0.2,1.3,1.4,2,3,1.6c1-0.3,2-0.3,3-0.3c4.8,0.1,9.6,0.6,14.4,1.3
					c3.5,0.6,7,1.6,10.2,3.4c0.7,0.4,1.5,0.7,1.7,1.9c-6,1.1-11.9,1.7-17.9,1c-1.9-0.2-3.8-0.4-5.7-0.3c-3.7,0.2-7.2-0.5-10.8-0.8
					c-5.5-0.4-10.9-1.2-16.3-2.2c-6.5-1.2-13.1-1.9-19.4-3.9c-1.3-0.4-3.2-0.6-3-2.3c0.1-1.5,1.9-1.9,3.2-2.3
					c3.9-1.2,7.8-2.2,12-2.6c4.4-0.4,8.8-0.6,13.2-0.9c7.2-0.4,14.4,0.1,21.6,1c5.6,0.7,11.2,1,16.7,1.9c9.4,1.6,18.6,3.7,27.7,6.6
					c6.9,2.2,13.6,4.9,20.2,7.8C371.2,229.2,373.5,229.7,374.9,231.6z"/>
				<path class="st14" d="M374.9,231.6c-1.4-2-3.7-2.4-5.6-3.3c-6.6-2.9-13.3-5.6-20.2-7.8c-9.1-2.8-18.3-5-27.7-6.6
					c-5.5-0.9-11.2-1.2-16.7-1.9c-7.2-0.9-14.4-1.4-21.6-1c-4.4,0.3-8.8,0.5-13.2,0.9c-4.2,0.4-8.1,1.4-12,2.6
					c-1.4,0.4-3.1,0.8-3.2,2.3c-0.2,1.8,1.8,1.9,3,2.3c6.3,2,12.9,2.7,19.4,3.9c5.4,1,10.9,1.8,16.3,2.2c3.6,0.3,7.2,1,10.8,0.8
					c1.9-0.1,3.8,0.1,5.7,0.3c6,0.7,11.9,0,17.9-1c-0.2-1.2-1-1.5-1.7-1.9c-3.2-1.8-6.7-2.8-10.2-3.4c-4.7-0.8-9.5-1.3-14.4-1.3
					c-1,0-2,0-3,0.3c-1.5,0.4-2.7-0.3-3-1.6c-0.3-1.6,0.7-2.1,2-2.4c0.7-0.2,1.3-0.4,2.1-0.4c9.6-0.2,19,1,28,4.8
					c1.6,0.7,3,1.7,4.2,2.9c2.4,2.4,1.5,5.8-1.7,6.9c-3,1.1-6.2,1.6-9.4,1.7c-3.8,0.1-7.7-0.1-11.5,0.1c-1.7,0.1-5.1-0.6-5.1-0.6
					s-2.2-0.4-3.1,0.6c-1.4-0.1-2.8-0.1-4.2-0.2c-0.2-0.7-0.5-1.4-1.3-0.4c-3,0.3-5.7-1-8.6-1.4c-4.3-0.5-8.7-1.4-12.9-2.3
					c-5-1.1-9.9-2.3-14.8-3.8c-3.1-0.9-6.1-1.7-9.1-2.9c-0.2-0.9-0.5-1.7-0.6-2.6c-0.2-1.5,0.2-2.8,1.5-3.8c2.3-1.7,4.7-3,7.5-3.9
					c7.2-2.3,14.6-2.4,22-3c7.9-0.6,15.9,0.2,23.8,0.7c2.6,0.1,5.2,0.2,7.8,0.6c3.4,0.5,6.7,1.1,10.1,1.7c4,0.7,8.1,1.2,12.1,2.2
					c6.4,1.6,12.8,3.2,19,5.4c7.1,2.5,14.1,5.3,20.9,8.5c2,0.9,3.8,2.2,5.7,3.4c0.7,0.4,1.1,0.9,1,1.7
					C378.8,231,376.9,231.9,374.9,231.6z"/>
				<g>
					<g>
						<path class="st14" d="M290.2,230.4c3.5,1,7.2,0.9,10.8,0.8c3.8,0,7.6-0.2,11.5-0.5c2-0.2,2-3.3,0-3.1c-3.7,0.3-7.3,0.5-11,0.5
							c-3.5,0.1-7.1,0.3-10.4-0.7C289.1,226.8,288.2,229.8,290.2,230.4L290.2,230.4z"/>
					</g>
				</g>
				<g>
					<g>
						<path d="M371.5,235.7c2-0.4,4-0.8,6-1.1c0.8-0.2,1.3-1.2,1.1-1.9c-0.3-0.9-1.1-1.2-1.9-1.1c-2,0.4-4,0.8-6,1.1
							c-0.8,0.2-1.3,1.2-1.1,1.9C369.8,235.5,370.6,235.9,371.5,235.7L371.5,235.7z"/>
					</g>
				</g>
				<g>
					<g>
						<path d="M289.3,232.9c6.6,1,13.2,2,19.9,2.9c0.8,0.1,1.7-0.2,1.9-1.1c0.2-0.7-0.2-1.8-1.1-1.9c-6.6-1-13.2-2-19.9-2.9
							c-0.8-0.1-1.7,0.2-1.9,1.1C288,231.8,288.5,232.8,289.3,232.9L289.3,232.9z"/>
					</g>
				</g>
				<g>
					<g>
						<path d="M301.3,234.6c3,0.4,5.8,0.8,8.9,1.2c0.8,0.1,1.7-0.2,1.9-1.1c0.2-0.7-0.2-1.8-1.1-1.9c-3.2-0.5-6.5-0.9-9.8-1.3
							c-0.8-0.1-1.6,0.8-1.6,1.6C299.8,233.9,300.4,234.5,301.3,234.6L301.3,234.6z"/>
					</g>
				</g>
				<path class="st15" d="M380.9,231c0-0.8-0.4-1.3-1-1.7c-1.9-1.1-3.7-2.4-5.7-3.4c-6.8-3.2-13.8-6-20.9-8.5
					c-6.2-2.2-12.6-3.8-19-5.4c-4-1-8.1-1.5-12.1-2.2c-3.4-0.6-6.7-1.1-10.1-1.7c-2.6-0.4-5.2-0.5-7.8-0.6
					c-7.9-0.4-15.9-1.3-23.8-0.7c-7.4,0.6-14.8,0.7-22,3c-2.7,0.9-5.2,2.2-7.5,3.9c-1.2,0.9-1.6,2.3-1.5,3.8
					c0.1,0.9,0.4,1.7,0.6,2.6c-4.2-1.1-8.2-2.8-12.1-4.5c-1.7-0.7-3.5-1.6-5.2-2.4c0-1.2,1-1.3,1.7-1.5c9.2-3,18.5-5.4,27.9-7.3
					c6.4-1.3,12.9-1.8,19.4-2.5c5.1-0.6,10.2-0.7,15.2-1c5.8-0.2,11.6,0.4,17.4,0.9c3.8,0.3,7.6,0.8,11.3,1.4
					c5,0.8,10.2,1.3,15.1,2.6c8.2,2.2,16.6,4.1,24.4,7.5c5.9,2.6,11.7,5.5,17.4,8.4c2.9,1.5,6,2.8,8.6,4.9c0.3,0.2,0.7,0.3,0.8,1.1
					C388.6,229.2,384.7,230.1,380.9,231z"/>
				<g>
					<g>
						<path d="M405.6,256.5c0,0.9-0.1,1.9-0.2,2.8c-0.1,0.4,0.2,0.9,0.5,1.1c0.3,0.3,0.7,0.5,1.1,0.5c0.4,0,0.8-0.1,1.1-0.5
							c0.1-0.1,0.2-0.2,0.2-0.3c0.1-0.2,0.2-0.5,0.2-0.8c0.1-0.9,0.2-1.9,0.2-2.8c0-0.4-0.2-0.8-0.5-1.1c-0.3-0.3-0.7-0.5-1.1-0.5
							c-0.4,0-0.8,0.1-1.1,0.5C405.7,255.7,405.6,256,405.6,256.5L405.6,256.5z"/>
					</g>
				</g>
				<g>
					<g>
						<path d="M409.4,257.8c-0.5,0.3-0.9,0.7-1.4,1c-0.2,0.1-0.3,0.2-0.4,0.4c-0.1,0.1-0.2,0.3-0.3,0.5c-0.1,0.2-0.1,0.4,0,0.6
							c0,0.2,0.1,0.4,0.2,0.6c0.1,0.1,0.2,0.2,0.2,0.3c0.2,0.2,0.4,0.3,0.7,0.4c0.1,0,0.3,0,0.4,0.1c0.3,0,0.5-0.1,0.8-0.2
							c0.5-0.3,0.9-0.7,1.4-1c0.2-0.1,0.3-0.2,0.4-0.4c0.1-0.1,0.2-0.3,0.3-0.5c0.1-0.2,0.1-0.4,0-0.6c0-0.2-0.1-0.4-0.2-0.6
							c-0.1-0.1-0.2-0.2-0.2-0.3c-0.2-0.2-0.4-0.3-0.7-0.4c-0.1,0-0.3,0-0.4-0.1C409.9,257.6,409.7,257.7,409.4,257.8L409.4,257.8z"
							/>
					</g>
				</g>
				<g>
					<g>
						<path d="M416.6,235.7c-2.1,0.1-4.1,0.3-6.1,0.6c-0.4,0.1-0.8,0.1-1.1,0.5c-0.3,0.3-0.5,0.7-0.5,1.1c0,0.4,0.1,0.8,0.5,1.1
							c0.3,0.3,0.7,0.5,1.1,0.5c2-0.3,4.1-0.4,6.1-0.6c0.8,0,1.6-0.7,1.6-1.6C418.1,236.5,417.5,235.7,416.6,235.7L416.6,235.7z"/>
					</g>
				</g>
				<g>
					<g>
						<path d="M408.8,237.7c-0.5,2.6-1,5.3-1.5,7.9c-0.2,0.8,0.2,1.7,1.1,1.9c0.8,0.2,1.8-0.2,1.9-1.1c0.5-2.6,1-5.3,1.5-7.9
							c0.2-0.8-0.2-1.7-1.1-1.9C409.9,236.5,408.9,236.9,408.8,237.7L408.8,237.7z"/>
					</g>
				</g>
				<path class="st16" d="M440.6,289.3c-6.6-4-13.1-7.6-19.7-11c-3.9-2-8-3.7-12.1-5.5c-0.7-0.3-1.5-0.6-2.2-1
					c-1-0.5-1.4-1.2-1.1-2.4c0.6-2.5,1.7-4.6,3.7-6.3c5.2-4.5,10.9-8.2,17.7-9.9c3.9-1,7.6-0.6,11.1,1.3c3,1.6,5,4.3,6.3,7.5
					c3.1,7.5,2.1,14.7-1,21.9C442.5,285.7,441.6,287.3,440.6,289.3z"/>
				<path class="st17" d="M438,292.8c-6.1,8.3-14.3,12.2-23.7,13.8c-6.7,1.1-13.6,1.5-20.4,1.6c-0.4,0-0.8-0.2-1.6-0.3
					c4.8-10.5,8.9-21.1,11.8-32.4C416,280.4,427.2,286,438,292.8z"/>
				<path d="M267.9,312.2c-1.9-4.5-1.2-8.6,2-11.1c3.5-2.7,8.8-2.1,11.6,1.4c2.7,3.4,2.2,8.8-0.9,11.4c-0.5,0.4-1.3,0.6-1.6,1.4
					C274.6,316.8,270.9,316,267.9,312.2z"/>
				<path d="M325.9,319.5c-3.8-2.6-4.8-7.2-2.9-10.8c1.7-3.4,5.7-5.3,9.6-4.4c3.2,0.7,5.9,4.7,6,8.1c0.1,2.3-1.2,4-2.2,5.8
					C333.2,320.9,329.7,321.6,325.9,319.5z"/>
				<path class="st18" d="M325.9,319.5c3.8,2,7.3,1.3,10.5-1.3c3.9,0.4,7.8,0.7,11.4,2.4c0.7,0.4,1.4,0.8,2,1.4
					c1.3,1.5,1.1,3.3-0.5,4.4c-1.3,0.9-2.7,1.4-4.2,1.5c-5.3,0.2-10.7,0.3-15.9-1.2c-0.7-0.2-1.3-0.4-2-0.7
					c-2.7-1.4-3.1-2.9-1.6-5.6C325.7,320.1,325.8,319.8,325.9,319.5z"/>
				<path class="st19" d="M267.9,312.2c2.9,3.9,6.7,4.7,11.2,3c2,1.9,1.8,4.1-0.3,5.4c-1.2,0.7-2.5,0.8-3.8,0.9
					c-6,0.9-12,0.5-17.7-1.8c-1.4-0.6-2.8-1.4-2.8-3.2c-0.1-1.5,1.6-3.1,3.6-3.6C261.3,312,264.6,312.2,267.9,312.2z"/>
				<path d="M305.9,329.6c-0.3-0.1-1.1-0.1-1.4-0.5c-1.2-1.4-2.5-1.1-4-0.4c-2.6,1.1-4.9,0.3-6.5-2.1c-1-1.4-1.7-2.9-1.4-4.8
					c0.2-0.9,0.5-1.7,1.7-1.8c1.1,0,1.7,0.6,1.9,1.5c0.1,0.4,0,0.8,0.1,1.2c0.7,2.5,2,2.9,4.1,1.2c1.9-1.6,2.6-1.6,4.4,0
					c1.8,1.6,2.3,1.5,3.6-0.6c0.3-0.5,0.6-1.1,0.9-1.6c0.6-0.9,1.6-1.3,2.6-0.9c1.1,0.4,1.4,1.4,1.2,2.5
					C312.8,326.2,308.9,329.7,305.9,329.6z"/>
			</g>
			
				<ellipse transform="matrix(7.799637e-02 -0.997 0.997 7.799637e-02 -10.823 634.2751)" class="st3" cx="337.5" cy="323" rx="6.5" ry="14.6"/>
			<circle cx="330.3" cy="312.7" r="8.3"/>
			
				<ellipse transform="matrix(0.1417 -0.9899 0.9899 0.1417 -84.8336 534.6587)" class="st3" cx="265.9" cy="316.3" rx="6.5" ry="14.6"/>
			<circle cx="275.2" cy="307.8" r="8.3"/>
		</g>
	</g>
</g>
</svg>
