<?xml version="1.0" encoding="utf-8"?>
<!-- Generator: Adobe Illustrator 26.2.1, SVG Export Plug-In . SVG Version: 6.00 Build 0)  -->
<svg version="1.1" id="Layer_6" xmlns="http://www.w3.org/2000/svg" xmlns:xlink="http://www.w3.org/1999/xlink" x="0px" y="0px"
	 viewBox="0 0 500 500" style="enable-background:new 0 0 500 500;" xml:space="preserve">
<style type="text/css">
	.st0{fill:#FEFFFF;}
	.st1{fill:#DEC539;}
	.st2{fill:#EFBBBB;}
</style>
<g id="Layer_6_00000050639089930752921400000013288650143539004564_">
	
		<image style="overflow:visible;opacity:0.75;enable-background:new    ;" width="963" height="913" xlink:href="5EA4C5B7F631D1C1.png"  transform="matrix(0.3965 0 0 0.3965 59 72)">
	</image>
	<g>
		<g>
			<g>
				<path d="M111.5,189c1.2-0.9,1.6-2.3,2.3-3.5c21.2-35.5,51.8-58.8,91.7-69.9c2.2-0.6,3.8-1.5,5.3-3.3c4-4.9,8.2-9.7,12.4-14.5
					c1.2-1.4,2.7-2.7,4.2-3.9c3.1-2.4,5.6-2.3,8.5,0.4c1.9,1.8,3.1,4,4.8,6.3c3-1.6,6-3.3,9-4.8c5-2.5,6.5-2.1,10.1,2.3
					c1,1.3,1.8,2.8,3.3,3.8c2.4-1.5,4.7-3,7.1-4.4c0.4-0.3,0.9-0.5,1.3-0.8c6.7-3.9,9.8-2.8,12.3,4.5c1.4,4.2,2.6,8.5,4.3,12.6
					c1,2.4,2.4,3.7,5,4.6c54.6,18.4,94.1,67,101.2,124.4c0.1,1.1,0.3,2.3,0.4,3.4c1,0.8,2,0.1,2.9-0.1c2.5-0.6,4.9-1.4,7.5-1.6
					c9.7-0.7,16.4,5.9,15.7,15.6c-0.5,6.2-2.7,11.9-5.4,17.4c-5.2,10.7-12,20.4-20.4,28.8c-2.3,2.3-4.6,4.8-7.1,6.9
					c-2.4,2-3.6,4.5-4.3,7.4c0.9,0.8,1.9,0.4,2.9,0.2c2.4-0.3,4.8-0.5,7.2-0.3c6.6,0.3,10.5,4.4,10.8,11c0.1,3.7-1,7-2.4,10.3
					c-3.3,7.6-8.3,13.9-13.6,20.1c-16.8,19.5-38.3,31.6-62.3,39.8c-24.9,8.5-50.5,12.7-76.8,11.9c-30.9-1-60.4-8-86.4-25.4
					c-46-30.9-69.1-74.3-69.3-129.8c0-2.3-0.3-4.4-1.4-6.6C85.7,239.3,81,226,79.5,211.8c-0.6-5.2-0.8-10.4-0.1-15.6
					c0.2-1.9,0.6-3.8,1.1-5.6c2.9-9.2,11.7-13,20.4-8.7c2.4,1.2,4.5,2.8,6.7,4.4C108.8,187.2,109.9,188.6,111.5,189z M218.4,404.1
					c9.8,1.8,19.7,3,29.6,3.3c18.8,0.7,37.3-1.2,55.6-5.4c14.6-3.4,28.3-9.1,41.7-15.6c15-7.3,28.6-16.6,39.6-29.3
					c5-5.8,9.4-12,12.2-19.2c0.7-1.9,1.3-3.9,1.2-5.9c-0.2-3.7-1.3-5-4.9-5.5c-1.5-0.2-3-0.3-4.6-0.1c-3.9,0.3-7.8,0.8-11.6,2
					c-0.8,0.3-1.8,0.5-2.5-0.3c-0.8-0.9-0.6-1.9-0.1-2.8c1-2.2,2.2-4.3,3-6.6c1.5-4.4,4.1-7.7,7.6-10.7c11.1-9.4,19-21.1,25.3-34.1
					c2-4.1,3.7-8.4,4.1-13.1c0.7-7.2-3.5-11.1-10.6-10c-0.9,0.1-1.8,0.3-2.6,0.5c-2.8,0.8-5.6,1.5-8.4,2.4c-3.8,1.1-3.8,1.2-4.1-2.9
					c-6-77.1-70.3-135.6-147.4-134.1c-87.8,1.6-154.2,80.8-140.4,167.6C110.6,344.9,157.7,393.3,218.4,404.1z M94.5,242.4
					c1.3-9.7,3.5-19.1,6.5-28.3c1.9-5.8,4.2-11.5,6.8-17c0.5-1,1.4-2.1,0-3.1c-3.4-2.6-6.6-5.6-10.7-7.3c-4.2-1.8-8.2-0.3-10.4,3.7
					c-1.3,2.4-1.7,5-1.9,7.7c-0.8,15.1,2.7,29.3,8.1,43.1C93.3,241.7,93.4,242.3,94.5,242.4z M281.9,115.3
					c-1.7-5.2-3.2-9.9-4.6-14.4c-1.7-0.2-2.5,0.7-3.5,1.2c-2.7,1.7-5.3,3.5-8.1,5.1c-3,1.7-5.2,1.4-7.4-1.2c-1-1.1-2-2.4-2.8-3.7
					c-1.1-1.7-2.3-2-4.1-0.9c-2.3,1.4-4.7,2.6-7,4c-4.9,2.9-6.3,2.6-9.2-2.1c-0.7-1.1-1.3-2.2-2.1-3.2c-1.6-2.1-1.8-2.1-3.8-0.3
					c-3.5,3.2-6.5,6.8-9.6,10.3c-0.6,0.7-1.4,1.3-1.6,2.7C239.5,109.2,260.6,110.1,281.9,115.3z"/>
				<path class="st0" d="M218.4,404.1c-60.6-10.8-107.7-59.2-117.3-120c-13.7-86.8,52.6-166,140.4-167.6
					c77.2-1.4,141.5,57.1,147.4,134.1c0.3,4,0.3,4,4.1,2.9c2.8-0.8,5.6-1.6,8.4-2.4c0.9-0.2,1.7-0.4,2.6-0.5
					c7.2-1.1,11.4,2.8,10.6,10c-0.5,4.6-2.1,8.9-4.1,13.1c-6.3,13-14.2,24.7-25.3,34.1c-3.5,3-6.2,6.3-7.6,10.7
					c-0.7,2.3-2,4.4-3,6.6c-0.5,1-0.7,1.9,0.1,2.8c0.7,0.8,1.6,0.6,2.5,0.3c3.8-1.2,7.7-1.7,11.6-2c1.5-0.1,3.1-0.1,4.6,0.1
					c3.6,0.5,4.7,1.8,4.9,5.5c0.1,2.1-0.5,4-1.2,5.9c-2.8,7.2-7.2,13.4-12.2,19.2c-11,12.7-24.6,22-39.6,29.3
					c-13.4,6.5-27.1,12.3-41.7,15.6c-18.3,4.2-36.9,6.1-55.6,5.4C238,407.1,228.2,405.9,218.4,404.1z M234.1,235.2
					c-0.4,0.9-1.4,1-2.1,1.6c-2.7,2-2.9,4.8-0.6,7.2c1.2,1.3,2.7,2.2,4.4,3c4.9,2.1,10.1,2.9,15.2,3.4c3.9,0.4,7.9,0.6,11.7-0.9
					c4.2-1.7,4.8-5.8,1.2-8.6c-0.9-0.7-1.9-1.3-2.9-1.7c-3.6-1.6-7.3-2.9-11.2-3.6c0.6-0.6,1.3-1.2,1.9-1.8
					c5.1-5.3,5.1-13.7,0.1-18.9c-5.1-5.2-13.6-5.4-18.9-0.5c-5.5,5.2-5.9,13.4-0.7,19.1C232.8,234,233.5,234.6,234.1,235.2z
					 M168.3,221.3c-1.8,0-3.5,0-5.3-0.1c-3.3-0.2-6.6,0-9.8,1.2c-3.3,1.3-4.1,4.7-1.8,7.4c1.1,1.3,2.4,2.3,4,2.9
					c7.2,2.9,14.7,4.1,22.4,3.8c2.2-0.1,4.3-0.5,6.2-1.6c2.6-1.5,3.3-3.9,1.8-6.5c-0.4-0.8-1.1-1.4-1.7-2.1c0.8-0.4,1.6-0.8,2.3-1.3
					c5.1-3.1,7.7-9,6.3-14.7c-1.3-5.5-5.8-9.6-11.4-10.3c-6-0.7-11.3,2.3-14,7.7C165,212.5,166,216.9,168.3,221.3z M206,242.9
					c6.1,0.8,11.4-0.8,16-4.6c1.6-1.3,1.9-3.1,0.8-4.3c-1.2-1.3-2.7-1.3-4.1-0.4c-1.1,0.7-2.1,1.4-3.2,2c-5.2,2.7-10.6,1.9-14.7-2
					c-0.6-0.6-1.2-1.3-1.8-2c-1.5-1.6-3.1-1.9-4.3-0.9c-1.4,1.1-1.5,2.8-0.1,4.7C197.5,239.3,201.3,241.8,206,242.9z"/>
				<path class="st0" d="M94.5,242.4c-1.1-0.1-1.2-0.7-1.4-1.1c-5.5-13.9-9-28.1-8.1-43.1c0.1-2.7,0.6-5.3,1.9-7.7
					c2.2-4,6.1-5.5,10.4-3.7c4,1.7,7.2,4.7,10.7,7.3c1.3,1,0.4,2.1,0,3.1c-2.6,5.5-4.9,11.2-6.8,17C98,223.3,95.8,232.7,94.5,242.4z
					"/>
				<path class="st1" d="M281.9,115.3c-21.4-5.3-42.4-6.1-63.9-2.4c0.2-1.3,1-2,1.6-2.7c3.1-3.5,6.1-7.2,9.6-10.3
					c2-1.9,2.2-1.8,3.8,0.3c0.8,1,1.4,2.1,2.1,3.2c3,4.7,4.3,5,9.2,2.1c2.3-1.4,4.7-2.6,7-4c1.7-1.1,3-0.8,4.1,0.9
					c0.8,1.3,1.8,2.5,2.8,3.7c2.3,2.6,4.4,3,7.4,1.2c2.8-1.6,5.4-3.4,8.1-5.1c0.9-0.6,1.8-1.4,3.5-1.2
					C278.8,105.5,280.3,110.1,281.9,115.3z"/>
				<path d="M168.3,221.3c-2.3-4.3-3.3-8.7-1-13.5c2.7-5.5,8-8.5,14-7.7c5.6,0.7,10.1,4.8,11.4,10.3c1.3,5.7-1.2,11.6-6.3,14.7
					c-0.7,0.4-1.5,0.9-2.3,1.3C177.7,228,172.5,226.2,168.3,221.3z"/>
				<path d="M234.1,235.2c-0.6-0.6-1.3-1.2-1.9-1.8c-5.1-5.7-4.8-13.9,0.7-19.1c5.3-4.9,13.8-4.7,18.9,0.5c5.1,5.2,5,13.5-0.1,18.9
					c-0.6,0.6-1.3,1.2-1.9,1.8C244.5,238.4,239.3,238.6,234.1,235.2z"/>
				<path class="st2" d="M234.1,235.2c5.2,3.4,10.4,3.2,15.7,0.3c3.9,0.6,7.6,2,11.2,3.6c1.1,0.5,2,1,2.9,1.7c3.6,2.8,3,6.9-1.2,8.6
					c-3.8,1.5-7.8,1.4-11.7,0.9c-5.2-0.6-10.3-1.3-15.2-3.4c-1.7-0.7-3.2-1.7-4.4-3c-2.3-2.4-2.1-5.2,0.6-7.2
					C232.7,236.3,233.7,236.1,234.1,235.2z"/>
				<path class="st2" d="M168.3,221.3c4.2,5,9.4,6.8,15.7,5.1c0.6,0.7,1.2,1.3,1.7,2.1c1.5,2.5,0.8,5-1.8,6.5
					c-1.9,1.1-4.1,1.5-6.2,1.6c-7.7,0.2-15.2-1-22.4-3.8c-1.5-0.6-2.9-1.6-4-2.9c-2.3-2.7-1.5-6.1,1.8-7.4c3.1-1.2,6.5-1.4,9.8-1.2
					C164.8,221.2,166.5,221.2,168.3,221.3z"/>
				<path d="M206,242.9c-4.7-1.1-8.6-3.6-11.5-7.5c-1.5-2-1.4-3.6,0.1-4.7c1.3-0.9,2.8-0.6,4.3,0.9c0.6,0.6,1.1,1.4,1.8,2
					c4.1,4,9.5,4.7,14.7,2c1.1-0.6,2.2-1.3,3.2-2c1.5-0.9,2.9-0.9,4.1,0.4c1.1,1.2,0.9,3-0.8,4.3C217.4,242.1,212.1,243.7,206,242.9
					z"/>
				
					<ellipse transform="matrix(0.1817 -0.9834 0.9834 0.1817 -86.9418 352.9298)" class="st2" cx="168.6" cy="228.7" rx="9.1" ry="19.1"/>
				<circle cx="178.9" cy="213.7" r="14.1"/>
				
					<ellipse transform="matrix(0.1493 -0.9888 0.9888 0.1493 -27.7083 451.1963)" class="st2" cx="248.4" cy="241.7" rx="9.1" ry="19.1"/>
				<circle cx="242" cy="223.7" r="14.1"/>
			</g>
		</g>
	</g>
</g>
</svg>
