<?xml version="1.0" encoding="utf-8"?>
<!-- Generator: Adobe Illustrator 26.2.1, SVG Export Plug-In . SVG Version: 6.00 Build 0)  -->
<svg version="1.1" id="Layer_1" xmlns="http://www.w3.org/2000/svg" xmlns:xlink="http://www.w3.org/1999/xlink" x="0px" y="0px"
	 viewBox="0 0 4049.5 950" style="enable-background:new 0 0 4049.5 950;" xml:space="preserve">
<style type="text/css">
	.st0{fill:#919CBE;}
	.st1{fill:#BE84ED;}
	.st2{fill:#BD84EC;}
	.st3{fill:#F8DF46;}
	.st4{fill:#4F4F4F;}
	.st5{fill:#FCFDFD;}
	.st6{fill:#A97333;}
	.st7{fill:#E9B6B6;}
	.st8{fill:#B8874C;}
	.st9{fill:#ECB7B4;}
	.st10{fill:#B6864C;}
	.st11{fill:#E0B582;}
	.st12{fill:#FFFFFF;}
</style>
<g id="Layer_5">
	<rect x="0" y="-0.4" class="st0" width="4049.5" height="950.3"/>
</g>
<g id="Layer_7">
	<g>
		<path d="M2240.6,163.7c110.1,29.1,212.3,76.1,307.9,137.8c23.8,15.3,46.9,31.6,69.5,48.4c8,6,15.5,12.7,21.8,20.4
			c8.5,10.5,11.5,21.8,5.1,34.7c-10.8,21.8-24.4,41.5-40.9,59.4c-9.2,10-21.1,11.9-33.7,8.6c-11.1-2.9-21.5-7.6-30.5-14.8
			c-72.3-57-149.2-106.6-231.3-148.4c-39.1-19.9-79.1-37.7-120.1-53.3c-43.1-16.4-87-30.3-132-40.6c-75.6-17.3-152-25.7-229.6-17
			c-35.4,4-70,11.9-103.2,25c-6.9,2.7-10.7,2.1-12.4-1.8c-1.6-3.8,0.4-7.3,6.8-10.8c32.2-17.8,65.7-32.4,100.6-43.8
			c74.1-24.2,150.2-33.8,227.9-32c49.8,1.2,99,7.1,147.8,17.3C2209.9,156.3,2225.3,159.9,2240.6,163.7z M1806.6,188.5
			c2.2-0.2,4.4-0.2,6.6-0.5c23.4-3.3,46.9-4.9,70.5-5.1c63.7-0.6,126.1,8.7,187.9,23.6c26.7,6.4,53,14.5,79.1,23.2
			c31.4,10.3,62.2,22.2,92.5,35.3c65.1,28.2,127.4,61.6,187.1,99.7c37.9,24.2,74.6,50.1,110.1,77.7c9.9,7.7,20.1,14.7,32.5,18
			c9.9,2.7,17.8,0.6,24.6-7.3c10.1-11.8,19.3-24.4,27.4-37.6c3.2-5.2,6.2-10.5,9-16c3.6-6.8,2.8-13.2-2-19.4
			c-4.8-6.2-10.3-11.7-16.5-16.3c-13.6-10-27.3-20-41.2-29.7c-90.9-63.1-188.5-112.7-294.1-145.7c-66.4-20.8-134.4-34.3-204.1-38.5
			c-71.4-4.3-141.9,0.7-211.4,18c-20.4,5.1-40.7,10.9-60.3,18.9c-3,0.3-5.6,1.6-8,3.4c2.6,0.1,5-0.2,7.4-0.7
			C1804.5,189.3,1805.5,188.8,1806.6,188.5z"/>
		<path d="M1967.8,239.7c86.7,23.3,163.8,59.4,235.9,106.4c57.6,37.6,110.3,81.1,157.9,130.9c8.2,8.6,16.1,17.6,21.8,28.2
			c6.9,12.7,6.4,25-1.4,37c-11,17.3-26.4,29.9-43.6,40.3c-10.7,6.5-21.4,4.2-31.7-1.3c-8.2-4.3-14.9-10.5-20.9-17.5
			c-61.8-71.1-131.1-133.8-209.1-186.9c-45.3-30.8-92.9-57.6-143.3-79c-32-13.6-64.8-25-98.7-32.6c-38.6-8.7-77.6-13.4-117.3-10.5
			c-7.1,0.5-10.1-0.9-10.9-4.8c-0.9-4.3,2.2-8.4,8.6-10.5c29.1-9.8,59-15.2,89.6-17c37.8-2.3,75.4,0.4,112.7,6.7
			C1935.5,232.3,1953.3,236.5,1967.8,239.7z M1764.7,241.4c1.4,0.3,2.6,0.7,4,0.8c40.1,2.8,79,11.7,117.1,24.1
			c46.3,15.1,90.3,35.4,132.7,59.4c89.5,50.7,168.6,114.7,239.6,188.9c14.8,15.4,28.9,31.5,43.5,47.1c5,5.4,11.1,9,18.3,11
			c3.9,1.1,7.7,1.2,11.3-0.9c16.7-9.8,31.3-22.1,41.7-38.7c4-6.5,4.3-13.5,0.5-20.6c-3.3-6.2-7.3-11.8-12-16.9
			c-56.8-61.2-121.1-113.1-192.7-156.1c-48.4-29.1-99.2-53.4-152.5-71.8c-27.3-9.4-55.1-17.1-83.5-22.7
			c-38.3-7.5-76.8-11.6-115.7-10.4C1799.6,235.2,1782.2,236.7,1764.7,241.4z"/>
		<path d="M1712.3,156.6c-5.1,19.8-14.8,37.6-24.2,55.6c-7.8,14.7-15.5,29.5-23.5,44c-1.7,3-1.2,4.9,0.6,7.4
			c21.1,29.5,34.8,62.4,45.9,96.6c2.4,7.4,4.2,15,4.4,22.8c0.4,13.7-5.8,21.9-19.3,25c-9.1,2.1-18.2,1.1-27.3-0.3
			c-29.3-4.7-58.5-10.1-87.6-16.4c-10.6-2.3-17.4-1.2-24.1,8.8c-14,20.7-31,39.1-49.6,55.9c-12,10.9-25,20.2-40,26.7
			c-2.6,1.1-5.1,2.2-7.7,3.1c-16.7,5.3-29.4,0.3-37.9-15c-5.2-9.4-7.5-19.7-9.7-30c-3.4-15.2-3.8-30.8-5-46.3
			c-1.2-15.2-2.3-30.4-3.6-45.6c-0.7-8.6,0.2-7.6-8.1-9.7c-30.5-7.7-59.9-18.3-87.5-33.8c-9-5.1-17-11.4-24.5-18.5
			c-3.8-3.6-7.2-7.7-9.9-12.3c-7-11.7-6.9-22.8,1.2-34.2c6.8-9.5,15.4-16.6,24.9-23c22.3-15,46.9-25.2,71.3-35.9
			c7.1-3.1,14.2-6.4,21.5-9.1c5.1-1.9,7-4.4,7.1-10.3c0.4-32,3.7-63.7,12.8-94.6c2.6-8.8,5.4-17.5,10.4-25.3
			c8-12.4,18.4-16.8,32.8-13.6c8.9,2,16.5,6.5,23.6,11.9c14,10.6,26.1,23.2,38.1,35.9c11.2,11.9,22.8,23.6,33.6,35.8
			c3.9,4.4,7,4.5,12.1,2.6c33.6-12.5,68.3-19,104.2-18.4c8.9,0.1,17.7,1.2,26.3,3.7c14,4.1,20.8,13.9,22.6,27.8
			C1717.3,137.8,1714.7,147.2,1712.3,156.6z M1698.8,156.9c2.5-8.2,4.1-14.6,4.6-21.3c1.1-14-5.2-22.2-19-24.6
			c-6.8-1.2-13.8-1.8-20.7-1.7c-35,0.3-69,6.4-101.9,18.4c-7.6,2.8-12.9,1.6-18.4-4.5c-12.8-14.3-26.1-28.1-39.3-41.9
			c-10.6-11-21.2-22-33.6-31c-5.8-4.2-12-8-19.3-9.3c-7.4-1.3-13.2,0.9-17.1,7.3c-2.2,3.5-4.1,7.2-5.5,11.2
			c-12.6,35.8-16.3,73-17.5,110.5c-0.2,7.7,0.1,8-7.1,11.2c-8.1,3.6-16.3,7.1-24.4,10.6c-25.5,11.1-51.2,21.6-74.3,37.3
			c-5.3,3.6-10.5,7.3-14.8,12c-12.2,13.8-12,22.7,1.2,35.7c8.9,8.9,19.1,16,30.4,21.6c27,13.3,54.9,24.1,84.1,31.3
			c7.6,1.9,8.6,3.1,9.5,10.5c0.4,3.6,0.7,7.2,1,10.8c1.7,22.1,3.3,44.3,5.1,66.4c1.2,14.7,3.7,29.2,9.4,43
			c5.9,14.4,14,17.8,28.4,11.9c9-3.7,17.7-8.1,25.4-14.2c27.5-21.6,50.6-47.4,70.9-75.7c3.5-4.9,7-6.6,12.4-5.8
			c5.7,0.9,11.6,1.4,17.3,2.5c19.4,3.7,38.7,7.7,58,11.3c10.9,2.1,21.9,3.7,32.9,5.4c5.8,0.9,11.6,1.1,17.4-0.3
			c6.7-1.7,8.8-4.3,8.8-11.1c0-5-0.7-10-2.2-14.8c-11.5-36.7-25.3-72.3-48.2-103.7c-3-4.1-3.6-7.5-0.9-12.1
			c8.6-14.2,15.9-29.2,23.6-44C1684.1,192,1693.9,174.6,1698.8,156.9z"/>
		<path d="M1800,281.3c56,14.9,106.4,41.3,152.9,75.3c53.8,39.3,99.5,86.7,138.1,140.9c2.1,2.9,4,6,5.8,9.1c8.8,15.6,6,32.4-8.4,43
			c-12.6,9.3-26.6,15.1-42.8,9.4c-9-3.2-15.7-9.2-21.1-16.8c-14.4-20.1-28.8-40.1-44.5-59.3c-43.1-52.9-90.6-101.3-146-141.6
			c-26.8-19.5-55-36.4-86.1-48.3c-10.2-3.8-20.6-6.8-31.2-9c-1.9-0.4-3.8-0.8-5.7-1.4c-3.1-1.1-4.2-3.6-4-6.6
			c0.2-2.8,2.1-4.6,4.7-5.2c2.1-0.4,4.4-0.4,6.6-0.4C1746.1,270.4,1773.3,274,1800,281.3z M1773.5,289.4
			c9.9,5.4,19.9,10.6,29.6,16.3c47.9,28.3,89.7,64.1,128.5,103.6c37,37.7,70.5,78.4,100.5,121.9c3.8,5.5,7.9,10.8,14,14
			c12.5,6.5,34.2-0.1,41.1-12.4c2.4-4.3,3.1-8.9,1.5-13.7c-1.2-3.7-3.1-7.1-5.3-10.3c-6.8-9.5-13.6-19-20.8-28.1
			c-36-45.5-77.2-85.7-124.7-119.1c-36.9-26-76.3-47.3-119.3-61.4C1803.8,295.4,1789,291.2,1773.5,289.4z"/>
		<path class="st1" d="M1804.1,186.7c19.6-8,39.9-13.7,60.3-18.9c69.5-17.3,140-22.3,211.4-18c69.7,4.3,137.7,17.7,204.1,38.5
			c105.6,33.1,203.3,82.7,294.1,145.7c13.9,9.7,27.6,19.6,41.2,29.7c6.3,4.6,11.7,10.1,16.5,16.3c4.8,6.2,5.6,12.6,2,19.4
			c-2.9,5.4-5.9,10.7-9,16c-8.1,13.3-17.2,25.8-27.4,37.6c-6.8,7.9-14.7,10-24.6,7.3c-12.4-3.3-22.6-10.4-32.5-18
			c-35.5-27.6-72.2-53.5-110.1-77.7c-59.7-38.2-122-71.6-187.1-99.7c-30.3-13.1-61.1-25-92.5-35.3c-26.1-8.6-52.4-16.7-79.1-23.2
			c-61.7-14.9-124.2-24.1-187.9-23.6c-23.6,0.2-47.1,1.8-70.5,5.1c-2.2,0.3-4.4,0.4-6.6,0.5C1805.4,188.3,1804.5,187.9,1804.1,186.7
			z"/>
		<path class="st2" d="M1804.1,186.7c0.4,1.1,1.4,1.5,2.5,1.7c-1,0.3-2,0.8-3.1,1c-2.4,0.4-4.8,0.7-7.4,0.7
			C1798.5,188.3,1801.1,187.1,1804.1,186.7z"/>
		<path class="st2" d="M1764.7,241.4c17.5-4.7,34.8-6.2,52.3-6.7c39-1.2,77.5,2.9,115.7,10.4c28.4,5.6,56.2,13.3,83.5,22.7
			c53.4,18.4,104.1,42.7,152.5,71.8c71.5,43,135.9,95,192.7,156.1c4.8,5.1,8.7,10.8,12,16.9c3.8,7.1,3.5,14.2-0.5,20.6
			c-10.4,16.6-24.9,28.9-41.7,38.7c-3.6,2.1-7.4,2-11.3,0.9c-7.1-2-13.3-5.7-18.3-11c-14.5-15.7-28.7-31.7-43.5-47.1
			c-71.1-74.1-150.1-138.2-239.6-188.9c-42.4-24-86.4-44.3-132.7-59.4c-38.1-12.5-77-21.3-117.1-24.1
			C1767.4,242.1,1766,241.7,1764.7,241.4z"/>
		<path class="st3" d="M1698.8,156.9c-4.9,17.7-14.7,35.1-23.9,52.8c-7.7,14.8-15,29.7-23.6,44c-2.7,4.5-2.1,8,0.9,12.1
			c22.8,31.4,36.6,67.1,48.2,103.7c1.5,4.8,2.3,9.7,2.2,14.8c-0.1,6.8-2.1,9.5-8.8,11.1c-5.8,1.5-11.6,1.2-17.4,0.3
			c-11-1.7-22-3.3-32.9-5.4c-19.4-3.6-38.7-7.6-58-11.3c-5.7-1.1-11.6-1.6-17.3-2.5c-5.5-0.8-9,0.9-12.4,5.8
			c-20.2,28.4-43.4,54.1-70.9,75.7c-7.7,6.1-16.4,10.5-25.4,14.2c-14.3,5.9-22.5,2.6-28.4-11.9c-5.6-13.7-8.2-28.2-9.4-43
			c-1.8-22.1-3.4-44.3-5.1-66.4c-0.3-3.6-0.6-7.2-1-10.8c-1-7.4-2-8.6-9.5-10.5c-29.2-7.2-57.2-18-84.1-31.3
			c-11.3-5.6-21.5-12.7-30.4-21.6c-13.1-13-13.4-22-1.2-35.7c4.3-4.8,9.5-8.5,14.8-12c23.1-15.7,48.9-26.2,74.3-37.3
			c8.1-3.6,16.3-7,24.4-10.6c7.1-3.2,6.8-3.5,7.1-11.2c1.1-37.6,4.9-74.8,17.5-110.5c1.4-4,3.3-7.6,5.5-11.2c4-6.4,9.8-8.6,17.1-7.3
			c7.3,1.3,13.5,5,19.3,9.3c12.4,9,23.1,20,33.6,31c13.2,13.8,26.5,27.6,39.3,41.9c5.5,6.1,10.8,7.2,18.4,4.5
			c32.8-12,66.8-18.1,101.9-18.4c7-0.1,13.9,0.5,20.7,1.7c13.8,2.5,20.1,10.7,19,24.6C1702.9,142.3,1701.3,148.8,1698.8,156.9z"/>
		<path class="st2" d="M1773.5,289.4c15.5,1.7,30.4,6,45,10.7c43,14.1,82.4,35.5,119.3,61.4c47.6,33.4,88.7,73.6,124.7,119.1
			c7.2,9.2,14,18.6,20.8,28.1c2.3,3.2,4.1,6.6,5.3,10.3c1.6,4.8,0.9,9.4-1.5,13.7c-6.9,12.4-28.6,18.9-41.1,12.4
			c-6.1-3.2-10.2-8.5-14-14c-30-43.5-63.4-84.2-100.5-121.9c-38.8-39.5-80.7-75.3-128.5-103.6C1793.4,300,1783.4,294.9,1773.5,289.4
			z"/>
	</g>
</g>
<g id="Layer_6">
	<g>
		<path d="M2634.8,154.5c1.5-9.3,3.2-18.6,4.5-27.9c3.2-22.9,9-45,16.8-66.7c1-2.8,2.1-5.5,3.3-8.2c6.3-14.3,15.2-18.2,29.9-13.3
			c7.5,2.5,11.5,7.9,11.7,15.9c0.1,6-1.3,11.7-3,17.4c-9.4,31.4-20.9,62-32.1,92.7c-0.8,2.2-1.7,4.4-2.4,6.6
			c-0.5,1.6-1.2,3.7,1.3,4.3c1.8,0.5,4,2,5.7-0.2c1.5-1.9,2.8-3.8,4-5.8c9.6-15.9,19.1-31.8,28.8-47.7c7.7-12.6,15.6-25,24.9-36.6
			c1.3-1.6,2.6-3.2,3.9-4.8c5.3-6.1,10.8-12.6,20.1-9.4c10.9,3.7,19.2,10.5,21.7,22.4c1.5,6.9-1.6,12.8-5.8,18
			c-8.3,10.4-16.5,20.8-25.4,30.7c-15.4,17.1-30.3,34.7-47.4,50.1c-4.5,4-3.2,10.8,2.4,13.3c4.9,2.1,10.1,3.5,14.5,6.6
			c8.6,6,16.4,12.6,20.8,22.4c2.9,6.4,7.5,11,13.6,14.6c9.7,5.8,18.5,12.7,24.2,22.8c1.8,3.2,4.4,3.2,7.4,3.6
			c8.8,1.3,10.4,3.1,11.1,11.8c3.9,49.2-1.4,97.1-18.7,143.5c-5.2,13.9-12.2,26.9-20.9,38.8c-14.1,19.3-28.9,38.1-45.4,55.4
			c-17.8,18.8-38.1,34.3-60.4,47.3c-6.8,3.9-13.8,5.8-21.8,5.8c-65.5-0.3-131-0.3-196.5-0.1c-9.8,0-18.4-2.4-26.8-7.4
			c-74-44.3-118.9-109.3-137.9-192.8c-6.1-26.8-9.7-54-9.2-81.5c0.2-11.9,1.5-13.7,13.4-14.8c3.1-0.3,4.4-1.3,5.6-4.3
			c4.8-12.4,13.2-20.9,26.8-23.1c3-0.5,4.5-1.8,5.8-4.5c5.2-11.1,13.8-19,24.7-24.3c3.7-1.8,7.2-4,10.9-5.9
			c6.5-3.3,11.4-8.2,14.4-15c5-11.3,12.9-18.9,25.8-20.1c2.9-0.3,4.8-1.8,6.3-4.2c8.3-12.6,19.4-21,34.4-24.4
			c6.6-1.5,12.5-5,17.3-10.2c6-6.4,13.8-9,22.4-8.5c3.6,0.2,6.1-0.9,8.9-2.7c12.1-8.1,25.1-11.5,39.4-6.3c2.5,0.9,5.2,1.2,7.7,2
			c6.3,2,12.1,1.1,17.7-2.6c4.8-3.1,10.1-4.8,15.6-6c14.1-3.1,26.9,1.9,34.2,14.2c2.7,4.6,5.3,6.6,11,6.1c11.5-1,22,3,32,8.5
			C2628.3,151.5,2630.6,154.1,2634.8,154.5z M2484.4,293.1c0-0.1,0-0.2,0-0.2c-69,1.1-138.1,2.1-207.1,3.2c-2.1,0-4.1,0-6.2,0.1
			c-6,0.3-6.2,0.5-6.3,6.9c-0.3,13.3,1.8,26.3,3.9,39.4c4.3,26.5,10.3,52.5,20,77.5c13.3,34.5,32.7,65,58.4,91.7
			c18.1,18.8,38.8,34.1,61.2,47.5c4.8,2.9,9.4,4.2,14.9,4.2c22.4,0.1,44.7-0.4,67.1,0.1c44.2,0.9,88.4-1.4,132.6,0.2
			c4,0.2,7.5-1,11-2.8c19.6-10.6,37.2-23.7,53.2-39c12.4-11.8,23.1-25.2,33.8-38.4c7.2-8.9,14.2-18,20.7-27.5
			c13.4-19.5,19.9-41.9,25.8-64.4c3.7-14.2,5.7-28.7,7-43.4c1.5-16.7,3-33.4,2.3-50.2c-0.3-7.6-0.3-7.7-7.3-7.7
			c-26.8,0.2-53.6-0.1-80.4,0C2620.7,290.3,2552.6,292,2484.4,293.1z M2283.2,279.4c1,1.5,2.2,1.3,3.3,1.3
			c155.8-1.5,311.6-3.2,467.4-5.8c0.2,0,0.4-0.3,0.5-0.6c0.1-0.3,0.2-0.5,0.4-1c-4.5-5.5-10.2-9.5-16.3-13.2
			c-7.2-4.3-13.1-9.8-16.6-17.8c-6-13.5-16.7-22.1-30.8-25.8c-6.8-1.8-10.1-5.6-11.2-11.9c-1.6-8.8-7.4-13.8-15.5-14.8
			c-12.2-1.6-21.5-7.4-29.9-15.8c-2.5-2.5-5.1-4.9-7.9-7.1c-11.5-9.1-23.9-14.7-39.2-12.4c-9.6,1.4-9.7,1-14.3-8.3
			c-5.5-11-12.8-14.2-24.7-10.9c-3.4,1-6.7,2.3-9.7,4.2c-8.2,5.4-17.1,5.7-26.3,3.3c-3.4-0.9-6.9-1.7-10.2-2.8
			c-10.8-3.6-20.6-1.1-29,5.9c-4.2,3.5-8.2,5.4-13.6,4.6c-4.9-0.7-9.5,0.7-13,4.3c-7.7,8-17.4,12.1-27.8,14.6
			c-8.4,2.1-15,6.6-20.3,13.3c-2.4,3-4.6,6.1-6.9,9.2c-2,2.6-4.4,5.2-7.8,5.2c-10.4,0.2-15.7,6.4-19.6,15.1
			c-3.3,7.5-8.9,13.1-16.2,16.9c-6.3,3.3-12.5,6.5-18.7,9.9c-7.3,3.9-13,9.6-15.6,17.4c-2.2,6.6-5.7,9.5-12.6,10
			C2292.7,267.1,2286,270.9,2283.2,279.4z M2682,183.6c5.5-2.6,8.9-6,12.3-9.5c13.8-13.6,26.4-28.5,39.5-42.9
			c7.9-8.7,15.2-18,22.3-27.3c5.7-7.5,3.9-13.7-4.2-18c-3-1.6-5.4-1.9-7.7,1.1c-3.6,4.6-7.5,9-11,13.8
			c-18.5,25.6-33.2,53.4-51.1,79.4C2681.9,180.7,2682.1,181.3,2682,183.6z M2648.9,169.1c2-5,3.6-8.4,4.8-12c8.3-23,16.6-46,24.7-69
			c3.4-9.7,6.4-19.6,8.2-29.7c1-5.7-0.6-7.3-6.3-7.7c-4.7-0.3-6.9,2.3-8.4,6.2c-3.1,8-5.9,15.9-8.5,24.1
			c-7.8,24.5-11.2,49.9-16.1,75C2646.6,159.7,2645.7,163.6,2648.9,169.1z"/>
		<path class="st4" d="M2484.4,293.1c68.1-1.1,136.3-2.8,204.5-2.8c26.8,0,53.6,0.2,80.4,0c7-0.1,7,0.1,7.3,7.7
			c0.6,16.8-0.8,33.4-2.3,50.2c-1.3,14.7-3.2,29.2-7,43.4c-5.9,22.5-12.4,44.9-25.8,64.4c-6.4,9.5-13.5,18.5-20.7,27.5
			c-10.7,13.3-21.4,26.6-33.8,38.4c-16,15.3-33.7,28.5-53.2,39c-3.5,1.9-7,2.9-11,2.8c-44.2-1.6-88.4,0.7-132.6-0.2
			c-22.4-0.5-44.8,0-67.1-0.1c-5.5,0-10.1-1.4-14.9-4.2c-22.4-13.3-43-28.7-61.2-47.5c-25.7-26.7-45.1-57.2-58.4-91.7
			c-9.6-25-15.6-51.1-20-77.5c-2.1-13.1-4.2-26.1-3.9-39.4c0.1-6.3,0.3-6.5,6.3-6.9c2.1-0.1,4.1-0.1,6.2-0.1
			c69-1.1,138.1-2.1,207.1-3.2C2484.4,292.9,2484.4,293,2484.4,293.1z M2617.6,438.2c-0.6,0.6-1.2,1.3-1.9,1.7
			c-4.9,2.7-9.1,6.1-8.1,12.3c1,6.1,6,8.2,11.2,10c1.1,0.4,2.3,0.5,3.4,0.8c12,2.3,23.9,1.7,35.8-0.4c4.9-0.8,9.8-2.1,14.2-4.5
			c9.5-5.1,10-13.4,1.2-19.9c-0.9-0.7-1.9-1.3-2.8-2c-0.4-2.6,1-4.4,2.6-6.3c7.9-9,11.5-19.4,11.2-31.5
			c-0.5-20.6-17.4-39.6-40.9-40.5c-19.5-0.8-35,12.6-41,26.7c-7.9,18.7-0.6,38.2,11.8,48.9C2615.8,434.8,2617.8,435.7,2617.6,438.2z
			 M2399.8,441.2c-5-0.2-9.2,1.8-13,4.8c-6,4.9-5.7,11.8,0.4,16.4c2.6,2,5.6,3.1,8.9,3.7c15.9,2.9,31.6,2.4,47-2.8
			c5.4-1.8,10.5-4.4,11.6-10.9c1.1-7-4.3-9.6-9-12.7c0.2-1.7,1.6-2.3,2.7-3.3c11.7-10.8,20.8-29.7,12.3-49.5
			c-8.8-20.6-27.9-31.1-49.1-26.8c-19.7,4-31.9,16.7-35.1,38.2C2374.4,412,2380.9,432.2,2399.8,441.2z M2542.6,469
			c8.1-0.1,19-9.5,20.1-16.3c0.5-3.3-0.9-5.7-3.6-7.4c-2.7-1.8-5.2-0.6-7.2,1.2c-1.8,1.5-3,3.6-4.4,5.4c-2.1,2.6-4.3,3.7-7.4,1
			c-3.4-2.9-7-3.7-11.3-1.1c-5.8,3.6-6,3.4-9.6-2.2c-0.6-1-1.1-2.1-1.9-3c-1.8-1.9-4.2-2.3-6.5-1.3c-2.5,1.1-4.7,3-4.3,6
			c0.9,6.1,8.6,16.2,14.3,16.4C2528.4,468.1,2536.3,464,2542.6,469z"/>
		<path class="st5" d="M2283.2,279.4c2.7-8.5,9.4-12.3,17.8-13c6.9-0.5,10.4-3.5,12.6-10c2.6-7.8,8.3-13.5,15.6-17.4
			c6.2-3.3,12.5-6.6,18.7-9.9c7.3-3.8,12.9-9.5,16.2-16.9c3.9-8.7,9.2-14.9,19.6-15.1c3.4-0.1,5.8-2.6,7.8-5.2
			c2.3-3.1,4.5-6.2,6.9-9.2c5.3-6.7,11.9-11.2,20.3-13.3c10.4-2.5,20.1-6.7,27.8-14.6c3.5-3.6,8-5,13-4.3c5.4,0.7,9.4-1.2,13.6-4.6
			c8.4-6.9,18.1-9.5,29-5.9c3.4,1.1,6.8,1.9,10.2,2.8c9.2,2.4,18.1,2.2,26.3-3.3c3-2,6.3-3.3,9.7-4.2c11.8-3.3,19.3-0.1,24.7,10.9
			c4.7,9.4,4.7,9.8,14.3,8.3c15.3-2.3,27.7,3.3,39.2,12.4c2.8,2.2,5.4,4.6,7.9,7.1c8.4,8.3,17.7,14.2,29.9,15.8
			c8.1,1,13.9,6,15.5,14.8c1.1,6.3,4.4,10.1,11.2,11.9c14.1,3.7,24.7,12.3,30.8,25.8c3.5,7.9,9.4,13.5,16.6,17.8
			c6.1,3.7,11.8,7.7,16.3,13.2c-0.2,0.5-0.3,0.7-0.4,1c-0.1,0.2-0.4,0.6-0.5,0.6c-155.8,2.6-311.6,4.3-467.4,5.8
			C2285.5,280.7,2284.3,280.9,2283.2,279.4z M2371.7,259.7c7.7-0.3,17.7-10,18.3-17.2c0.2-3.3-0.7-5.8-4-7.1
			c-2.9-1.1-5.2,0.1-6.9,2.4c-0.7,0.9-1.2,2-1.7,3.1c-2.1,3.8-4.4,6.8-9.6,5.7c-2.8-0.6-5.2,1.1-6,4.1c-0.9,3.3,0.9,5.6,3.6,7.3
			C2367.3,259.5,2369.6,259.7,2371.7,259.7z M2480.4,254.1c6.3-0.5,11-3.6,14.6-8.7c2.8-4,2.6-8.1-0.1-10.4
			c-2.8-2.4-5.9-1.7-9.7,2.4c-2,2.1-3.5,4.7-7.2,2.7c-3.3-1.8-6.5-1.1-8.2,2.4c-1.8,3.8,0.1,6.9,3.2,9.1
			C2475.1,253.2,2477.6,254.2,2480.4,254.1z M2578.3,218.5c3.9-0.6,7.8-1.6,10.6-5c2.3-2.7,3.3-5.7,1.3-8.8
			c-2.2-3.2-5.5-3.2-8.5-1.2c-2.7,1.8-4.9,2.7-7.6-0.2c-2.5-2.7-5.8-2.9-8.5-0.1c-2.6,2.7-2.1,6-0.4,8.9
			C2568.2,216.9,2573,217.9,2578.3,218.5z M2686.9,259.6c3-0.4,5.9-1.8,7-5.2c1-2.8,0-5.4-2.7-6.7c-2.4-1.2-2.5-2.7-2.3-4.9
			c0.2-2.9-1.2-5.1-4.1-5.9c-2.8-0.8-5.2,0.3-7.2,2.1c-3.6,3.2-4.7,8.4-2.8,12.8C2676.7,256.5,2681.9,259.9,2686.9,259.6z
			 M2448.5,171.2c-5.2,0.1-9.8,1.7-13.9,4.9c-2.4,1.9-4,4.3-4,7.5c0,4.4,4.6,8,7.7,5.4c4.9-4.1,10.1-5.3,16-6
			c2.4-0.3,3.7-2.8,3.7-5.4c0-2.6-1.3-4.5-3.6-5.7C2452.7,171,2450.6,171.2,2448.5,171.2z"/>
		<path class="st6" d="M2682,183.6c0.1-2.2,0-2.9,0.2-3.3c17.8-25.9,32.6-53.9,51.1-79.4c3.4-4.7,7.4-9.2,11-13.8
			c2.3-2.9,4.7-2.6,7.7-1.1c8.1,4.3,9.9,10.5,4.2,18c-7.1,9.3-14.4,18.6-22.3,27.3c-13.1,14.3-25.6,29.2-39.5,42.9
			C2690.8,177.6,2687.5,181,2682,183.6z"/>
		<path class="st6" d="M2648.9,169.1c-3.2-5.6-2.3-9.5-1.6-13c4.9-25.1,8.3-50.5,16.1-75c2.6-8.1,5.5-16.1,8.5-24.1
			c1.5-3.9,3.7-6.5,8.4-6.2c5.7,0.4,7.3,2,6.3,7.7c-1.8,10.2-4.8,20-8.2,29.7c-8.1,23-16.4,46-24.7,69
			C2652.4,160.7,2650.9,164.1,2648.9,169.1z"/>
		
			<ellipse transform="matrix(0.9999 -1.536108e-02 1.536108e-02 0.9999 -6.5514 40.6661)" class="st7" cx="2643.9" cy="446.8" rx="39.7" ry="20.6"/>
		
			<ellipse transform="matrix(0.9999 -1.536108e-02 1.536108e-02 0.9999 -6.6309 37.2063)" class="st7" cx="2418.7" cy="450.2" rx="39.7" ry="20.6"/>
		
			<ellipse transform="matrix(7.940242e-02 -0.9968 0.9968 7.940242e-02 1824.583 2783.5557)" cx="2419.3" cy="403.9" rx="44.4" ry="44.4"/>
		
			<ellipse transform="matrix(0.9967 -8.128516e-02 8.128516e-02 0.9967 -23.8064 216.0531)" cx="2641.7" cy="400.4" rx="44.4" ry="44.4"/>
		<path d="M2542.6,469c-6.3-5-14.2-0.9-21.8-1.2c-5.7-0.2-13.3-10.3-14.3-16.4c-0.4-3,1.8-4.9,4.3-6c2.3-1,4.7-0.7,6.5,1.3
			c0.8,0.9,1.3,2,1.9,3c3.6,5.6,3.8,5.9,9.6,2.2c4.3-2.6,7.9-1.8,11.3,1.1c3.1,2.6,5.3,1.5,7.4-1c1.5-1.8,2.7-3.9,4.4-5.4
			c2-1.7,4.5-3,7.2-1.2c2.7,1.7,4.1,4.1,3.6,7.4C2561.5,459.5,2550.7,468.9,2542.6,469z"/>
		<path d="M2371.7,259.7c-2.1,0-4.3-0.2-6.4-1.6c-2.7-1.8-4.4-4-3.6-7.3c0.8-2.9,3.2-4.6,6-4.1c5.2,1.1,7.5-2,9.6-5.7
			c0.6-1,1-2.1,1.7-3.1c1.7-2.3,4-3.5,6.9-2.4c3.3,1.2,4.3,3.8,4,7.1C2389.4,249.8,2379.4,259.4,2371.7,259.7z"/>
		<path d="M2480.4,254.1c-2.8,0.1-5.3-0.8-7.4-2.4c-3-2.3-5-5.3-3.2-9.1c1.7-3.5,4.9-4.2,8.2-2.4c3.7,2,5.2-0.6,7.2-2.7
			c3.8-4.1,6.9-4.8,9.7-2.4c2.7,2.3,2.9,6.3,0.1,10.4C2491.4,250.4,2486.7,253.6,2480.4,254.1z"/>
		<path d="M2578.3,218.5c-5.3-0.6-10.2-1.7-13-6.4c-1.8-2.9-2.2-6.2,0.4-8.9c2.7-2.8,5.9-2.7,8.5,0.1c2.7,2.9,4.9,2,7.6,0.2
			c3-2,6.3-2,8.5,1.2c2.1,3.1,1,6.1-1.3,8.8C2586.1,216.9,2582.2,218,2578.3,218.5z"/>
		<path d="M2686.9,259.6c-5,0.3-10.2-3.2-12.1-7.8c-1.9-4.4-0.8-9.6,2.8-12.8c2.1-1.8,4.4-2.9,7.2-2.1c2.9,0.8,4.4,3,4.1,5.9
			c-0.2,2.2-0.1,3.8,2.3,4.9c2.6,1.3,3.7,3.8,2.7,6.7C2692.7,257.8,2689.9,259.3,2686.9,259.6z"/>
		<path d="M2448.5,171.2c2.1,0,4.1-0.2,6.1,0.8c2.3,1.2,3.6,3.1,3.6,5.7c0,2.6-1.3,5.1-3.7,5.4c-5.9,0.8-11.2,1.9-16,6
			c-3.1,2.6-7.7-0.9-7.7-5.4c0-3.2,1.5-5.6,4-7.5C2438.7,173,2443.3,171.3,2448.5,171.2z"/>
		<path class="st5" d="M2414.1,374.6c0.4,23.2-6.5,33.3-21,38.4C2384.6,398.4,2397.9,376.3,2414.1,374.6z"/>
		<path class="st5" d="M2428,430.4c-2.1-16.5,6.4-27.8,17.8-38C2455,406.3,2445.2,427,2428,430.4z"/>
		<path class="st5" d="M2615.8,410.4c-6.1-16.5,2.9-33.4,19.2-37.6c3.4-0.9,5.1-0.1,5.1,3.5c0.2,11.1-2.8,21-12.4,27.7
			C2624.3,406.5,2620.8,409.1,2615.8,410.4z"/>
		<path class="st5" d="M2668.8,392.7c3.5,16-1.5,26.6-15.4,33.5C2651.3,412.9,2657.6,398.7,2668.8,392.7z"/>
	</g>
</g>
<g id="Layer_3">
	<g>
		<path class="st8" d="M3151.7,552c-97.2,0-194.4,0-291.7,0c-0.6-2-2.5-1.8-4-2.3c-8.4-2.6-16.8-5.3-25.2-7.7
			c-3.3-0.9-5.2-2.8-6.4-6c-3.3-8.8-7.3-17.2-12-25.3c-8.2-14.1-17.9-26.9-31.1-36.7c-18.6-13.8-38.8-18.6-61.1-10
			c-2.7,1-4,0.5-5.3-1.8c-3-5.5-6.3-10.8-9.1-16.3c-22.2-43.9-31.7-90.2-27.8-139.4c1.6-20.4,5.5-40.3,11.9-59.7
			c19.1-57.9,54.1-104.4,101.7-141.7c28.1-22,59.1-38.8,92.5-51.2c35.1-13.1,71.4-20.5,108.9-22.4c20.3-1.1,40.7-0.6,61,1.8
			c23.6,2.7,46.7,7.4,69.2,14.7c59.7,19.3,110.8,51.6,150.7,100.3c36.6,44.8,57.1,96.1,60.4,153.9c1.3,22.4-0.7,44.7-5.3,66.7
			c-6.9,32.7-19.7,62.9-37.5,91c-3.1,4.9-3.1,4.9-8.4,3.1c-15.4-5.2-30.3-3.9-44.9,2.9c-15.2,7.1-27,18.2-36.9,31.4
			c-8.3,11-15.2,22.9-20.6,35.6c-1.4,3.2-3.3,5.5-6.3,7.2c-5.8,3.2-11.7,6.2-17.8,8.7C3154.8,549.6,3152.5,549.7,3151.7,552z
			 M3025.4,495c22.5-0.5,43.9-8.9,60-28.3c12.8-15.4,17.3-33.3,13.5-53c-3.5-18-13.6-31.9-28.3-42.4c-16.4-11.7-34.8-16.7-54.9-15.3
			c-15.4,1-29.4,5.5-42.1,14.4c-17.5,12.3-27.9,29.1-29.4,50.5c-1.4,19.3,5.8,36.1,19.3,49.8C2979.7,487.1,2999.9,494.7,3025.4,495z
			 M3153.9,330.8c-13.7,0-25.3,11.8-25.3,25.8c0,14.3,11.7,25.9,25.9,25.8c13.9-0.1,25.5-11.7,25.7-25.6
			C3180.3,342.5,3168.5,330.8,3153.9,330.8z M2915.2,356.5c-0.1-14.4-11.4-25.7-25.8-25.7c-13.6,0-25.8,11.9-25.6,25.6
			c0.2,16.1,13.2,26,25.8,26C2903.8,382.4,2915.3,370.9,2915.2,356.5z M2873.4,399.4c0.1-3.8-0.8-5.3-2.7-5.7
			c-2.5-0.5-3.7,1-4.5,3.1c-1.5,3.7-3,7.4-4.4,11.2c-0.6,1.7-1.3,3.4-1.7,5.2c-0.4,1.7-0.1,3.3,1.6,4.2c1.9,1,3.8,0.5,4.9-1.2
			C2870,410.7,2871.7,404.5,2873.4,399.4z M3217.9,399.2c0-3.1-0.2-5.1-2.8-5.6c-2.5-0.5-3.7,1-4.4,3.1c-1,2.5-1.9,5.1-2.9,7.6
			c-1.1,2.9-2.3,5.7-3.2,8.7c-0.5,1.6-0.1,3.3,1.7,4.2c1.9,0.9,3.8,0.4,4.8-1.3C3214.6,410.6,3216.2,404.4,3217.9,399.2z
			 M2837.6,418.6c1.7,0.1,4-1.5,4.9-3.8c1.8-4.4,3.4-8.8,5-13.3c0.8-2.2,0.9-4.5-1.8-5.5c-2.5-1-4.3,0.5-5.3,2.7
			c-2.1,4.8-4.2,9.7-6,14.6C2833.5,415.7,2835.4,418.5,2837.6,418.6z M3192.2,401.4c0.4-3,0-4.6-1.7-5.3c-1.7-0.7-3.3-0.3-4.4,1.1
			c-0.8,1-1.4,2.1-1.9,3.3c-1.6,3.8-3.1,7.7-4.7,11.6c-1.1,2.7-0.5,5.2,1.5,6.1c1.7,0.9,4.5,0.1,5.5-2.3
			C3188.7,410.9,3190.5,405.5,3192.2,401.4z M2826,401c0.1-2.7-0.4-4.3-2.3-4.9c-2.1-0.7-3.6,0.3-4.5,2.1c-2.1,4.5-4.2,9-6.1,13.5
			c-0.7,1.6-0.5,3.3,1.2,4.4c1.7,1,3.8,1.1,5-0.5C2822.7,410.9,2824.2,405.4,2826,401z M3170.5,401c0.1-2.7-0.4-4.3-2.3-4.9
			c-2.1-0.7-3.6,0.3-4.5,2.1c-2.1,4.5-4.2,9-6.1,13.5c-0.7,1.6-0.5,3.3,1.2,4.4c1.7,1,3.8,1.1,5-0.5
			C3167.3,410.9,3168.7,405.4,3170.5,401z"/>
		<path d="M3151.7,552c8.2-7.5,23.9-7.6,28.9-19.1c16.6-39.3,54.9-85.6,102.5-69.9c5.2,1.7,5.3,1.8,8.4-3.1
			c62.6-94.3,56.3-225.3-17.6-311.6C3159.2,7.1,2931.5-5.4,2791.6,105.2c-103.6,76.3-148.1,224.8-85.8,340.8
			c3.8,4.5,7.4,20.7,14.4,18.1c49.4-19.4,89.1,30.3,104.2,71.9c4.5,10.8,27.7,8.8,35.6,16c-13.2,0-26.4,0-39.6,0
			c-33-111.8-125.2-108.6-159.6,0c-3.3,0-6.6,0-9.9,0c10.6-30.8,27.2-61.6,54.7-80.4c3.5-2.3,3.5-2.4,1.2-6.2
			c-14.7-24.6-25.4-50.8-31.7-78.7c-18.8-81.1,2.7-165.3,53.5-230.5c2-2.5,2.6-4.6,1.7-7.9c-8.1-31.7-9.9-67.4,6.1-97.1
			c22.1-44.4,78.7-42.8,115.4-18c8.5,3,16.5,16.3,25.2,14.3c81.8-31.8,175-33.5,257.9-4.7c3,1,4.9,0.7,7.3-1.4
			c25.3-21.5,59.3-38.4,93.2-30.6c55.3,13.9,62,83.3,48.9,129.8c-1,3.8-0.5,6.4,1.9,9.4c27.9,36.4,46.2,77.3,53.5,122.7
			c13.2,69.5-9.1,138.4-42.7,196.8c28.5,18.5,45.6,50.7,54.9,82.4c-2.9,0-5.9,0-8.8,0c-34.7-111.7-124.5-108.5-160.7,0
			C3172.2,552,3162,552,3151.7,552z M3148.1,47.6c14.9,5.9,28.4,12.5,41.6,19.7c4.7,1.7,9.3-2.7,14.1-3.2
			c18.1-4.9,30.5,14.3,32.2,30.1c0.6,3.8,2.2,6.3,5,8.6c11.6,9.6,22.1,20.4,32.3,31.4c6,9.8,6.6-21.5,7.7-25.1
			C3289.5,18,3213.2-9.6,3148.1,47.6z M2863.1,52.4c-81.5-69.3-152.2-2.9-124.5,91.6c9.7-16,35.2-27.9,37-45.4
			c0.4-11.9,8.3-30,23.2-26.7c6.9,0.6,13.3,8.2,20,4.2C2832.7,66.8,2848.7,60.5,2863.1,52.4z M2805.7,83.5
			c-15.1-9.5-20.9,3.2-22.6,17.1C2791,94.3,2799,90.3,2805.7,83.5z M3226.2,90.9c-3.4-16.4-14.7-23.8-25.3-17.1
			C3209.3,79,3217.5,84.6,3226.2,90.9z"/>
		<path class="st8" d="M2660.8,552c-0.4-3.9,1.8-7,3.1-10.3c8.5-20.5,19.4-39.5,35.9-54.7c10.6-9.8,22.7-16.6,37.4-18
			c12-1.2,22.8,2,33,8.1c10.7,6.4,19.1,15.3,26.4,25.3c10.3,14.2,17.7,29.9,23.4,46.4c0.4,1,0.6,2.1,0.4,3.2
			C2767.2,552,2714,552,2660.8,552z"/>
		<path class="st8" d="M3182.5,552c2.6-9.8,7.1-18.8,11.8-27.7c6.2-11.9,13.7-23,23.1-32.7c12.3-12.8,26.5-22,44.8-22.9
			c11.7-0.6,22.4,3.1,32.1,9.5c13.6,9,23.5,21.3,31.8,35.2c7.2,12.2,12.8,25.1,17,38.7C3289.7,552,3236.1,552,3182.5,552z"/>
		<path d="M3025.4,495c-25.5-0.3-45.6-7.9-61.9-24.4c-13.4-13.7-20.6-30.4-19.3-49.8c1.5-21.4,11.9-38.1,29.4-50.5
			c12.6-8.9,26.6-13.4,42.1-14.4c20.1-1.3,38.5,3.6,54.9,15.3c14.7,10.5,24.8,24.4,28.3,42.4c3.8,19.7-0.6,37.6-13.5,53
			C3069.2,486.1,3047.9,494.6,3025.4,495z M3021.6,486.4c18.3-0.2,33.3-4.7,46.5-14.7c28.1-21.1,31.6-58.8,7.9-84.5
			c-26.3-28.5-74.5-30.9-103.6-5.1c-23.9,21.3-26.2,55.7-5.1,79.8C2982,478.7,3001.3,486,3021.6,486.4z"/>
		<path d="M3153.9,330.8c14.6,0,26.4,11.7,26.3,26c-0.1,13.9-11.7,25.5-25.7,25.6c-14.2,0.1-25.9-11.5-25.9-25.8
			C3128.5,342.7,3140.1,330.8,3153.9,330.8z M3148.9,342.6c-4.2,0-7.4,3.5-7.5,7.9c-0.1,4.1,3.2,7.5,7.2,7.4c4.1,0,7.4-3.6,7.5-8
			C3156.1,345.8,3153,342.6,3148.9,342.6z"/>
		<path d="M2915.2,356.5c0.1,14.4-11.3,25.9-25.6,25.9c-12.6,0-25.5-9.8-25.8-26c-0.2-13.7,12-25.7,25.6-25.6
			C2903.8,330.8,2915.1,342.1,2915.2,356.5z M2900.7,349.3c-0.1-3.9-3.5-7.3-7.4-7.2c-4.2,0.1-8,4.2-7.8,8.2
			c0.2,3.8,3.3,6.8,7.1,6.9C2896.8,357.3,2900.7,353.4,2900.7,349.3z"/>
		<path class="st9" d="M2873.4,399.4c-1.7,5.1-3.3,11.3-6.8,16.7c-1.1,1.7-2.9,2.2-4.9,1.2c-1.7-0.9-2-2.6-1.6-4.2
			c0.4-1.8,1.1-3.5,1.7-5.2c1.4-3.7,2.9-7.4,4.4-11.2c0.8-2.1,2-3.5,4.5-3.1C2872.6,394,2873.4,395.5,2873.4,399.4z"/>
		<path class="st9" d="M3217.9,399.2c-1.6,5.2-3.3,11.3-6.7,16.8c-1.1,1.7-2.9,2.2-4.8,1.3c-1.7-0.9-2.2-2.6-1.7-4.2
			c0.9-2.9,2.1-5.8,3.2-8.7c1-2.5,1.9-5.1,2.9-7.6c0.8-2.1,2-3.6,4.4-3.1C3217.6,394.2,3217.9,396.2,3217.9,399.2z"/>
		<path class="st9" d="M2837.6,418.6c-2.3-0.1-4.1-2.8-3.2-5.3c1.8-5,3.8-9.8,6-14.6c0.9-2.1,2.7-3.6,5.3-2.7c2.7,1,2.5,3.3,1.8,5.5
			c-1.5,4.5-3.2,8.9-5,13.3C2841.6,417.1,2839.3,418.6,2837.6,418.6z"/>
		<path class="st9" d="M3192.2,401.4c-1.6,4.2-3.5,9.4-5.8,14.6c-1,2.3-3.8,3.1-5.5,2.3c-2-1-2.6-3.4-1.5-6.1
			c1.6-3.9,3.1-7.8,4.7-11.6c0.5-1.2,1.1-2.3,1.9-3.3c1.2-1.4,2.8-1.8,4.4-1.1C3192.2,396.8,3192.5,398.4,3192.2,401.4z"/>
		<path class="st9" d="M2826,401c-1.7,4.4-3.2,9.9-6.6,14.6c-1.2,1.6-3.3,1.6-5,0.5c-1.7-1-1.9-2.7-1.2-4.4c1.9-4.5,4-9,6.1-13.5
			c0.9-1.8,2.4-2.8,4.5-2.1C2825.6,396.7,2826,398.3,2826,401z"/>
		<path class="st9" d="M3170.5,401c-1.7,4.4-3.2,9.9-6.6,14.6c-1.2,1.6-3.3,1.6-5,0.5c-1.7-1-1.9-2.7-1.2-4.4c1.9-4.5,4-9,6.1-13.5
			c0.9-1.8,2.4-2.8,4.5-2.1C3170.1,396.7,3170.6,398.3,3170.5,401z"/>
		<path class="st10" d="M3148.1,47.6c17.9-14.6,36.5-25.5,58.7-29.1c17.5-2.8,34-0.2,48.2,11.3c11.1,8.9,17.9,20.7,21.8,34.2
			c4.4,14.7,5.6,29.8,4.1,45.1c-0.8,8.4-1.8,16.7-3.8,24.9c-0.2,0.9-0.2,1.8-1.2,2.4c-1.5,0-1.9-1.4-2.8-2.3
			c-10.2-11-20.7-21.8-32.3-31.4c-2.8-2.3-4.4-4.8-5-8.6c-1.3-8.8-4.4-17-10.7-23.6c-6-6.3-13.2-8.3-21.5-6.4
			c-3.2,0.7-6.3,1.9-9.4,3.1c-1.6,0.6-3,1-4.7,0.1C3176.5,60,3163,53.5,3148.1,47.6z"/>
		<path class="st10" d="M2863.1,52.4c-0.7,1.4-2.3,1.6-3.6,2.2c-14.1,6.2-27.7,13.4-40.9,21.4c-2.5,1.5-4.4,1.8-7.1,0.6
			c-4.2-1.8-8.3-3.7-12.8-4.8c-5.4-1.3-9.8,0.3-13.6,3.9c-6.5,6.2-9,14.4-9.6,22.8c-0.4,7.3-3.6,12-8.9,16.5
			c-9.2,7.6-17.3,16.4-25.1,25.4c-0.8,1-1.6,1.9-2.9,3.6c-2.6-6.1-3.1-11.9-4-17.5c-1.7-11.1-2.1-22.3-1.2-33.5
			c1.5-18,6.3-35,18.3-49.2c9.4-11.1,21.5-17.5,35.9-19.3c19.8-2.4,37.6,3.6,54.7,12.9c6.6,3.6,12.9,7.8,18.8,12.4
			C2861.9,50.6,2863.1,51.1,2863.1,52.4z"/>
		<path class="st11" d="M2805.7,83.5c-1,2-2.5,2.5-3.6,3.3c-6.1,4.5-12.3,9-19,13.8c0.7-6,2.2-11,5-15.6c3.1-5.1,5.8-6,11.5-4.1
			C2801.6,81.6,2803.5,82.6,2805.7,83.5z"/>
		<path class="st11" d="M3226.2,90.9c-8.7-6.3-16.8-11.8-25.3-17.1C3211.5,67.1,3222.7,74.5,3226.2,90.9z"/>
		<path class="st11" d="M3021.6,486.4c-20.3-0.4-39.5-7.6-54.3-24.5c-21.1-24-18.8-58.5,5.1-79.8c29.1-25.8,77.3-23.4,103.6,5.1
			c23.7,25.8,20.2,63.4-7.9,84.5C3054.8,481.7,3039.8,486.2,3021.6,486.4z M3021.1,429.5c2.2,2.5,3.6,5.2,5.9,7.1
			c8.1,6.8,21.3,2.8,24.2-7.4c0.7-2.4,0.3-4.5-2-5.7c-2.4-1.2-4.2-0.1-5.5,2.1c-0.8,1.4-1.8,2.8-2.9,4c-3.3,3.3-6.3,3.2-9.6,0
			c-2.7-2.7-3.8-6.1-4.6-9.8c-0.4-1.8,0.5-2.6,2.1-3.3c3.4-1.5,6.3-3.6,8.6-6.6c3.6-4.6,6.6-9.7,9-15c2-4.3,1-6.3-3.7-7.8
			c-4.7-1.5-9.6-2.5-14.5-3.1c-9-1.2-18-0.5-26.7,1.6c-4.3,1-6.2,4.2-4.3,7.7c4.2,7.9,9,15.6,16.2,21.3c4.8,3.8,5,4.1,1.7,9.3
			c-1.3,2-2.7,4-4.6,5.5c-2.5,2-3.9,1.9-6.3-0.2c-1.9-1.6-2.7-3.8-3.6-6.1c-0.7-1.9-2.3-2.8-4.4-2.4c-1.8,0.4-2.8,1.7-3,3.5
			c-0.1,0.9-0.2,1.9,0,2.7c1.3,5.4,4.9,9,9.8,11.1c4.6,1.9,9,0.7,12.7-2.6C3017.4,433.8,3019,431.8,3021.1,429.5z"/>
		<path class="st12" d="M3148.9,342.6c4.1,0,7.2,3.2,7.2,7.3c-0.1,4.4-3.4,7.9-7.5,8c-4,0-7.3-3.3-7.2-7.4
			C3141.5,346,3144.7,342.6,3148.9,342.6z"/>
		<path class="st12" d="M2900.7,349.3c0.1,4.1-3.9,8-8.1,7.9c-3.8-0.1-6.9-3.1-7.1-6.9c-0.2-4.1,3.6-8.1,7.8-8.2
			C2897.2,342,2900.6,345.4,2900.7,349.3z"/>
		<path d="M3021.1,429.5c-2.1,2.3-3.7,4.3-5.5,6c-3.7,3.4-8.1,4.6-12.7,2.6c-4.9-2.1-8.5-5.7-9.8-11.1c-0.2-0.9-0.1-1.8,0-2.7
			c0.2-1.8,1.2-3.1,3-3.5c2.1-0.4,3.7,0.5,4.4,2.4c0.8,2.3,1.6,4.4,3.6,6.1c2.4,2.1,3.8,2.1,6.3,0.2c1.9-1.5,3.3-3.4,4.6-5.5
			c3.3-5.2,3.1-5.5-1.7-9.3c-7.2-5.7-12-13.3-16.2-21.3c-1.8-3.5,0-6.7,4.3-7.7c8.8-2.1,17.8-2.8,26.7-1.6c4.9,0.6,9.8,1.6,14.5,3.1
			c4.6,1.5,5.7,3.5,3.7,7.8c-2.5,5.3-5.4,10.4-9,15c-2.3,3-5.2,5.1-8.6,6.6c-1.6,0.6-2.5,1.5-2.1,3.3c0.8,3.6,1.9,7.1,4.6,9.8
			c3.3,3.2,6.3,3.3,9.6,0c1.2-1.2,2.1-2.5,2.9-4c1.3-2.2,3.1-3.3,5.5-2.1c2.3,1.2,2.7,3.3,2,5.7c-2.9,10.2-16,14.2-24.2,7.4
			C3024.6,434.7,3023.2,432.1,3021.1,429.5z"/>
	</g>
</g>
</svg>
