<?xml version="1.0" encoding="utf-8"?>
<!-- Generator: Adobe Illustrator 26.2.1, SVG Export Plug-In . SVG Version: 6.00 Build 0)  -->
<svg version="1.1" id="Layer_1" xmlns="http://www.w3.org/2000/svg" xmlns:xlink="http://www.w3.org/1999/xlink" x="0px" y="0px"
	 viewBox="0 0 2241.5 1450.5" style="enable-background:new 0 0 2241.5 1450.5;" xml:space="preserve">
<style type="text/css">
	.st0{display:none;opacity:0.62;}
	.st1{fill:none;stroke:#919CBE;stroke-width:18.9994;stroke-linecap:round;stroke-miterlimit:10;}
	.st2{fill:#2BA0D8;}
	.st3{fill:#2A9CD2;}
	.st4{fill:#F7F516;}
	.st5{fill:#F0EF16;}
	.st6{fill:#28B30D;}
	.st7{fill:#28B00E;}
	.st8{fill:#EAB9B5;}
	.st9{fill:#919CBE;}
	.st10{font-family:'AvenirNext-DemiBold';}
	.st11{font-size:125.9995px;}
</style>
<g id="Layer_1_00000094575839584963791360000015344550528545553075_">
	<g id="Layer_1_00000013180643468639298530000004123095177797034660_">
		<g id="Layer_1_00000123439887475803510810000015095020662246373559_" class="st0">
			
				<image style="display:inline;overflow:visible;enable-background:new    ;" width="492" height="202" xlink:href="DDAD0BB5CAD65B10.png"  transform="matrix(2.4775 0 0 2.5603 296.4184 312.898)">
			</image>
		</g>
		<g id="Layer_2_00000100381231962040181860000003223064836549140382_">
			<path class="st1" d="M1977.1,706H269.6c-25.8,0-46.8-19.7-46.8-44V485.8c0-24.3,20.9-44,46.8-44h1707.6c25.8,0,46.8,19.7,46.8,44
				V662C2023.9,686.3,2002.9,706,1977.1,706z"/>
			<path class="st1" d="M961.5,806.8c0,0,19.6,92.2-124,153.7"/>
			<path class="st1" d="M196.8,386.4c0,0-39.2-30.8-124,24.6c19.6,55.3,106.8-3.1,124,6.2s26.1,24.7,26.1,86.1"/>
			<path class="st1" d="M2050,386.4c0,0,39.2-30.8,124,24.6c-19.6,55.3-106.8-3.1-124,6.2s-26.1,24.7-26.1,86.1"/>
		</g>
	</g>
	<g id="Layer_2_00000110429838560311914230000015973690486033643914_">
		<g>
			<g>
				<g>
					<path d="M1522.8,1232.1c-3.1-21.6-1.2-41.3,2.7-60.7c8.5-41.9,26.5-79.2,56.6-109.9c17.3-17.7,40.1-26.8,62.8-35.3
						c27-10.1,54.9-12.9,83.3-7c3.9,0.8,7.9,1.1,12.6,1.7c0.9-17.2,5.7-33.1,13-48.4c1.2-2.5,1.2-4.7-0.1-7.3
						c-8.1-16.1-2.5-30,7.7-42.7c6.9-8.6,15.5-15.7,24.7-21.8c16.2-10.6,30.8-22.5,38.9-40.8c1.8-4.2,5.3-6.1,9.8-5.5
						c5.4,0.7,8.8,4.1,9.7,9.2c1.4,8,2.5,16,2,24.1c-1.7,30.4-14.1,55.9-36.4,76.5c-9.8,9.1-21.1,14.7-34.8,13.8
						c-3.5-0.3-6.1,0-7.9,4c-4.8,10.4-8.6,21.1-10.3,32.4c-1.1,6.9,0.1,7.8,6.9,6.9c34.1-4.8,67.1-0.4,99.9,9.2
						c55.3,16.1,86.1,54.3,99.9,108.2c7.4,28.8,7.7,58.1,6,87.5c-0.2,2.8-1.5,5.7,0.6,9.4c14-3.2,27.1-7.5,33.3-22.6
						c1.8-4.4,3.5-8.9,5.8-13c2.5-4.4,7.6-6,11.2-3.8c4.2,2.5,4.5,6.2,2.6,10.5c-1.6,3.7-3.1,7.4-4.6,11.2
						c-5.4,13.7-14.7,23.5-28.5,28.8c-6.2,2.3-12.2,4.9-18.5,7c-4.7,1.6-7,4.4-8.1,9.3c-3.7,17-10.6,32.7-19.4,47.7
						c-8.7,14.8-18.3,28.5-34.8,35.4c1.5,5.1,5.7,7.3,8.4,10.6c1.7,1.9,3.8,3.5,5.2,5.6c2.2,3.3,2.5,7-0.6,10c-3,3-6.9,3.1-10,0.6
						c-4.7-4.1-9.4-8.3-13.2-13.1c-3.9-5-7.6-4.9-13.2-2.8c-57.3,21.7-116.8,28-177.5,23.2c-34.1-2.7-67.2-11-99.3-22.9
						c-9.4-3.5-9.5-3.5-16.5,4.3c-3.4,3.8-6.7,7.8-10.2,11.5c-4.4,4.6-9.1,5.4-12.6,2.5c-3.6-2.9-3.7-7.5,0.5-12.7
						c4.1-5.1,8.6-9.8,13.2-15c-28.7-15-43.3-39.5-51.6-68.7c-1.7-6-3.5-11.9-4.9-18c-1.2-5.3-3.5-8.7-8.9-11.2
						c-12.6-6-24.5-13.2-36.7-20c-14.7-8.3-19.5-22.1-21.2-37.7c-0.2-1.8,0.3-3.6,0.7-5.4c0.9-3.3,3.2-4.9,6.5-5
						c3.2-0.1,5.8,1.4,6.9,4.4c1,2.7,1.4,5.7,1.9,8.6c1.8,10.4,6.8,18.2,16.7,23C1502.4,1222.2,1510.9,1228,1522.8,1232.1z
						 M1745.8,1363.9c25.3,0.3,52.3-2.6,79-7.7c25.9-4.9,51.6-11.2,75.5-23c6.4-3.1,12.2-6.8,16.4-12.6c11.8-16,21.7-33,27.7-52.2
						c8.3-26.3,9.2-53.3,8.7-80.6c-0.6-29.1-6.9-56.8-19.8-82.8c-12.9-25.9-32.1-45.1-60.4-54.5c-22-7.4-44.4-12.8-67.6-13.8
						c-13.9-0.6-28-1.6-41.6,1.8c-9.3,2.3-17.9,1.4-27-0.5c-15-3.1-30.2-6.2-45.7-4.8c-27.9,2.5-53.4,12.4-77.9,25.2
						c-9.8,5.1-18.2,11.9-25.8,20.2c-11.3,12.4-19.6,26.7-26.7,41.5c-13.9,29.1-21.9,59.8-21.8,92.4c0.1,27.5,6.3,53.8,16.3,79.2
						c7.7,19.7,20.8,33.8,41.1,41.6C1643.8,1352.1,1692.5,1364.4,1745.8,1363.9z M1828.3,886.5c-12.2,13.7-27.5,23.2-41.3,34.5
						c-4.6,3.7-8.8,7.8-12.6,12.2c-4.4,5.1-7.3,11.1-6.9,18.1c0.4,6.1,2.8,8.4,8.9,9c8.3,0.7,15.1-2.6,21-7.9
						C1816.8,935,1827.8,913.4,1828.3,886.5z"/>
					<path d="M937.1,1231.6c-2.6-16.5-1.7-31.1,0.1-45.6c5.9-47.7,25.2-89.3,57.8-124.5c2.7-2.9,5.7-5.8,9-8.1
						c31-21.6,64.8-35.6,102.8-38.3c12.6-0.9,24.9,1.1,37.2,3.1c3.5,0.5,7,1.6,11.1,1.1c0.5-16.7,5.4-31.9,12.1-46.7
						c1.3-2.8,2.3-5.2,0.8-8.3c-8.9-17.5-2-32,9.4-45.2c8-9.2,17.8-16.4,27.9-23.2c13.9-9.3,26.1-20.3,33.1-35.9
						c2.3-5,5.7-7.3,11.3-6.4c5.6,0.9,8.3,4.7,9.1,9.7c2.4,13.5,2.5,27-0.3,40.5c-4.8,22.6-15.9,41.6-32.4,57.6
						c-10.4,10.1-22.5,16.4-37.4,15.7c-3.2-0.2-5.4,0.3-7,3.6c-4.9,10.4-8.6,21.1-10.3,32.3c-1,6.7-0.1,7.6,7.1,6.6
						c23.1-3.3,46.2-2,69,1.9c23.3,4,45.7,11.2,66.3,22.6c22.7,12.6,39.1,32.1,50.4,55.3c13.4,27.4,19.9,56.6,20.4,87.1
						c0.3,15.7,0.7,31.4-1.6,48c17-3.3,30.5-9.3,36.4-25.9c1.2-3.4,2.5-6.9,4.4-10.1c2.8-4.7,7.3-6,11.2-3.6
						c4.3,2.6,4.4,6.3,2.6,10.5c-1.9,4.4-3.7,8.8-5.5,13.2c-5.1,12.1-13.4,20.9-25.7,25.8c-6.8,2.7-13.5,5.7-20.4,8.1
						c-4.8,1.6-7,4.4-8.1,9.3c-2.8,13-7.3,25.4-13.6,37c-10,18.4-19.9,37-41.8,46.5c4.4,4.5,7.9,8.1,11.3,11.6
						c5.7,5.9,6.6,10.6,2.9,14.2c-3.8,3.6-8.1,2.7-14.2-3.3c-3.4-3.3-6.8-6.7-9.9-10.3c-3-3.5-5.8-4.4-10.5-2.6
						c-51.8,20.1-105.8,26.9-160.8,25.1c-40.6-1.3-79.8-10.6-118-24.2c-9.2-3.3-9.2-3.3-15.7,3.8c-3.7,4.1-7.1,8.4-11,12.3
						c-4.8,4.8-8.8,5.3-12.4,1.9c-3.6-3.3-3.4-7.2,0.8-12.7c4-5.2,9.4-9.1,12.8-15.1c-25.7-13.2-40.6-34.7-49-61.2
						c-2.8-8.7-5.3-17.6-7.6-26.4c-1.2-4.4-3.1-7.4-7.7-9.6c-12.7-5.8-24.7-12.9-36.8-19.8c-14.6-8.4-20-21.8-22-37.3
						c-0.2-1.4,0-2.9,0.2-4.4c0.6-4.1,2.7-6.9,7.1-7.1c3.8-0.1,6.2,2.1,7.2,5.6c0.8,2.8,1.3,5.7,1.8,8.6c1.8,9.6,6.5,16.8,15.5,21.3
						C915.8,1221,924.8,1226.4,937.1,1231.6z M1367.3,1199.3c-0.3-39.4-4.6-62.3-18.4-91.9c-9.3-19.9-22-37.9-41.8-48.3
						c-37.7-19.6-78.1-27-120.4-22.5c-14.6,1.6-28.7,2.8-43.4-0.8c-25.4-6.2-50.9-4.2-75.9,4.4c-12.9,4.4-25.1,10.1-37.4,15.8
						c-17.6,8.3-30.6,21.5-40.8,37.4c-19,29.3-31.2,61.3-35,96.3c-4.5,42.2,3.6,81.7,24.1,118.8c3.8,6.9,9.2,12.2,16.1,16.2
						c10.9,6.3,22.5,10.7,34.2,14.9c45.3,16.2,91.8,25.2,140.2,23.7c16.9-0.6,33.7-2.2,50.4-4.7c32.4-4.8,64.2-11.5,94.1-25.6
						c8.3-3.9,15-9.1,20.2-16.4c12.6-17.8,22.5-36.8,27.7-58.2C1365.9,1238.8,1367.6,1219.2,1367.3,1199.3z M1242.6,885.2
						c-11.7,13.5-26.5,22.9-40.1,33.8c-5.1,4.1-9.8,8.9-14.2,13.7c-4.4,4.7-6.9,10.4-6.9,17c-0.1,6.7,3.4,10,10.2,10.2
						c5.7,0.2,11-1.5,15.4-5C1229.6,937.5,1241.6,914.3,1242.6,885.2z"/>
					<path d="M794.6,1234.8c19.2-3.6,32.6-11.5,38-29.7c0.9-3.1,2-6.4,4.6-8.7c3-2.6,6.4-3.7,10-1.2c3.1,2.2,3.8,5.1,2.6,8.7
						c-6.6,19.9-16.3,37.5-38.4,43.2c-14.6,3.7-22.4,11.5-25.6,26.8c-4,18.8-14.7,35-25.6,50.8c-4.7,6.7-10.8,12-17.7,16.3
						c-2.4,1.5-5.6,2.2-7.8,7.4c3.8,3.1,8.6,6.6,12.7,10.7c4.1,4.1,4.3,8.6,1.3,11.7c-3,3.3-7.4,3.4-11.7-0.4
						c-4.4-3.8-8.5-8.1-12.3-12.6c-3.3-3.9-6.4-4.6-11.4-2.6c-48.9,18.9-100,25.7-152.1,25.1c-43.3-0.5-85.1-10-125.8-24.3
						c-9.7-3.4-9.7-3.5-16.5,4.2c-2.9,3.3-5.8,6.6-8.8,9.9c-5.9,6.4-9.9,7.6-13.9,4.3c-4.4-3.6-3.7-8.2,2.4-15.1
						c3.4-3.9,6.8-7.6,10.2-11.5c0.2-0.3,0.2-0.7,0.5-1.6c-22.2-11.1-36.6-29.5-45.5-52.4c-4-10.2-7.4-20.8-9.7-31.5
						c-1.6-7.6-5.3-11.7-12.2-15c-11.6-5.4-22.5-12.2-33.8-18.5c-14.7-8.2-19.7-22-21.5-37.6c-0.3-2.1,0.2-4.5,1-6.4
						c2.3-5.4,9.1-6,12.3-1.1c0.8,1.2,1.4,2.7,1.5,4.1c0.9,17.9,12.2,27.3,27.1,33.9c6.3,2.8,12,6.8,18.5,8.6c1.4-1.6,1.4-3,1.3-4.4
						c-4.2-55.6,12.9-104.8,45.4-149.3c11.2-15.3,25.2-27.3,42.3-36.1c22.3-11.4,45.2-20.8,70.3-24.3c16.6-2.3,32.9-0.9,49.3,1.8
						c3.6,0.6,7.2,1.6,11.4,1.3c0.7-16.7,5.6-32.3,12.5-47.3c1.4-2.9,1.6-5.3,0.1-8.3c-8.2-16.6-2-30.8,8.5-43.5
						c7.5-9.1,17-16.2,26.8-22.7c14.9-9.9,28.1-21.3,35.6-38c2.1-4.7,5.5-6.6,10.5-6s8.2,3.6,9.2,8.3c1.8,8.3,2.7,16.7,2.2,25.1
						c-1.8,30.4-14.2,55.8-36.6,76.4c-9.8,9.1-21.2,14.5-34.8,13.7c-4.5-0.3-6.5,1.5-8.3,5.3c-4.2,9.1-7.2,18.5-9.3,28.1
						c-1.9,9.1-0.9,10.3,8.5,9.1c29.1-3.7,57.8-1.1,86.1,6.4c15.6,4.2,30.9,9.4,45.1,17.1c23.7,12.8,40.7,32.4,52.6,56.2
						c13.7,27.3,20,56.6,20.7,87.1C796.6,1201.9,797,1217.7,794.6,1234.8z M778.9,1197.6c1.2-29.3-4.3-58.2-16.3-85.9
						c-13.6-31.3-35.2-53.5-68.4-63.7c-17.5-5.4-35.1-9.8-53.5-11.5c-15.4-1.4-30.6-2.5-45.9,0.4c-13.1,2.5-25.7,1.8-39-1.2
						c-17.5-3.9-35.4-4.9-53.4-1.4c-24,4.7-46.3,13.7-67.6,25.4c-7.8,4.3-14.6,9.9-20.4,16.6c-31.6,36.7-47.3,79.8-49.6,127.7
						c-1.7,36.1,6.7,70.5,24.2,102.5c4.5,8.3,10.7,14.6,19.2,19c19.3,10.1,39.7,17,60.6,22.8c31.5,8.8,63.4,14.5,96.3,14.9
						c20.2,0.2,40.2-1.8,60.2-4.3c32.1-4,63.5-10.9,93.5-23.2c10.4-4.3,19.7-10,26.3-19.2c8.3-11.7,15.8-23.8,21-37.2
						C776.1,1253.2,779.7,1226.2,778.9,1197.6z M655,882.9c-10.6,13.5-22.5,22.4-34.7,30.9c-7.8,5.5-14.3,12.4-20.8,19.4
						c-4.4,4.8-6.6,10.5-6.1,17.1c0.5,6.6,4.1,10,10.7,9.6c6.7-0.5,12.8-2.9,17.9-7.4c10.3-9,19-19.2,24.4-31.9
						C651.3,909.1,655.4,897.6,655,882.9z"/>
					<path class="st2" d="M1745.8,1363.9c-53.3,0.5-102-11.8-149.6-30.3c-20.3-7.9-33.3-22-41.1-41.6c-10-25.4-16.2-51.8-16.3-79.2
						c-0.2-32.5,7.9-63.2,21.8-92.4c7.1-14.9,15.4-29.1,26.7-41.5c7.5-8.3,15.9-15.2,25.8-20.2c24.5-12.8,50.1-22.7,77.9-25.2
						c15.6-1.4,30.7,1.7,45.7,4.8c9.1,1.9,17.7,2.8,27,0.5c13.7-3.4,27.7-2.4,41.6-1.8c23.2,1,45.6,6.4,67.6,13.8
						c28.2,9.4,47.4,28.7,60.4,54.5c13,25.9,19.3,53.7,19.8,82.8c0.6,27.3-0.5,54.3-8.7,80.6c-6,19.2-15.8,36.2-27.7,52.2
						c-4.3,5.7-10.1,9.4-16.4,12.6c-23.9,11.7-49.5,18.1-75.5,23C1798.1,1361.3,1771.1,1364.2,1745.8,1363.9z M1671.3,1245.8
						c1.3-3,3.1-5.9,3.8-9.1c2.4-10.3-4-19.9-14.5-22.3c-8.9-2-18.1,3.9-21.1,13.3c-1.9,5.8,0.2,10.8,2.1,15.9
						c-8.4,0.6-16.8,1.8-24.8,4.6c-7.6,2.7-14.3,6.4-15.1,15.5c-0.6,6.7,6,12.8,16.3,15.4c14.1,3.5,28.3,3.1,42.5,0.9
						c7.3-1.2,14.4-3.1,20.6-7.2c9.2-6.2,9.3-16.3,0.2-22.5C1678.3,1248.3,1674.7,1247.3,1671.3,1245.8z M1832.4,1248.7
						c-2,1-3.9,1.9-5.9,2.9c-5.9,3-10.4,7.2-9.9,14.4c0.5,6.7,5.4,10.1,10.9,12.6c5.4,2.5,11.2,3.4,17.1,3.9
						c16.6,1.5,32.9,0.4,48.3-6.8c5.5-2.6,9.7-6.6,9.6-13.4c-0.2-6.9-4.6-10.5-10.2-12.9c-3-1.3-6.2-2.2-9.3-2.9
						c-7.5-1.8-15.2-1.9-22.9-2.1c0.9-2.4,2.1-4.7,2.7-7.2c2.1-7.9-0.7-16.1-7-20.5c-6.6-4.5-13.7-5.1-20.8-1.4
						c-7.2,3.6-10.6,10.8-10.1,19.2C1825.2,1240.5,1829.1,1244.4,1832.4,1248.7z"/>
					<ellipse class="st2" cx="1631.6" cy="1277.1" rx="37.9" ry="20.2"/>
					<ellipse class="st2" cx="1846.6" cy="1267" rx="50.6" ry="20.2"/>
					<path class="st3" d="M1828.3,886.5c-0.6,26.9-11.5,48.5-30.9,66c-5.9,5.3-12.8,8.6-21,7.9c-6.1-0.5-8.6-2.9-8.9-9
						c-0.4-7,2.4-13,6.9-18.1c3.8-4.4,8.1-8.5,12.6-12.2C1800.8,909.8,1816.1,900.3,1828.3,886.5z"/>
					<path class="st4" d="M1367.3,1199.3c0.3,19.9-1.4,39.5-6.2,58.9c-5.3,21.4-15.2,40.4-27.7,58.2c-5.2,7.3-11.9,12.6-20.2,16.4
						c-29.9,14.1-61.7,20.9-94.1,25.6c-16.7,2.5-33.5,4.2-50.4,4.7c-48.3,1.6-94.8-7.4-140.2-23.7c-11.7-4.2-23.4-8.7-34.2-14.9
						c-6.9-3.9-12.2-9.2-16.1-16.2c-20.4-37.1-28.7-76.6-24.1-118.8c3.8-35,16-66.9,35-96.3c10.3-15.9,23.2-29.1,40.8-37.4
						c12.3-5.8,24.6-11.3,37.4-15.8c25-8.6,50.4-10.6,75.9-4.4c14.7,3.6,28.8,2.3,43.4,0.8c42.3-4.5,82.8,2.9,120.4,22.5
						c19.8,10.3,32.5,28.3,41.8,48.3C1362.8,1137.1,1367,1160,1367.3,1199.3z M1085.9,1244.1c1-2.3,2.4-4.6,3-7
						c1.9-7.8,0.1-14.5-6.3-19.7c-6.2-5-13.9-5.4-20.6-1.5c-6.8,4-10.2,11.5-8.8,19.7c0.4,2.2,1.2,4.3,1.8,6.3
						c-8.1,0.8-15.9,2.1-23.6,4.6c-10.1,3.3-16.5,9.8-15.7,16.2c1.2,9.1,8,12.8,15.9,14.5c18.5,4.1,36.9,3.9,55.2-1.9
						c3.5-1.1,6.8-2.9,9.6-5.1c7.4-5.9,7.6-13.1,0.9-19.7C1094,1247.3,1089.9,1245.9,1085.9,1244.1z M1274.4,1242.7
						c0.8-2.1,1.7-4.1,2.2-6.2c2.2-9.4-1.7-18.4-9.7-22.4s-17.1-2.4-23.2,4.1c-6.2,6.6-6.9,16.2-1.6,24.3c1.2,1.8,2.8,3.4,4.2,5.1
						c-4.2,1.5-8.2,3.2-11.4,6.4c-6.3,6.2-5.9,14.8,1.3,19.9c2.9,2.1,6.5,3.4,10,4.4c12.9,3.8,25.9,3.9,39.2,1.9
						c8.8-1.3,17.4-3,24.9-8.1c8.6-5.8,8.6-15.8,0.3-22c-3.9-2.9-8.4-4.8-13.1-5.4C1289.8,1243.6,1282.1,1243.3,1274.4,1242.7z"/>
					<path class="st5" d="M1242.6,885.2c-1,29-13,52.2-35.7,69.7c-4.4,3.4-9.7,5.1-15.4,5c-6.7-0.2-10.2-3.5-10.2-10.2
						c0.1-6.5,2.6-12.2,6.9-17c4.4-4.8,9.1-9.6,14.2-13.7C1216.1,908.2,1230.9,898.7,1242.6,885.2z"/>
					<path class="st6" d="M778.9,1197.6c0.9,28.6-2.7,55.6-12.9,81.6c-5.3,13.4-12.8,25.6-21,37.2c-6.6,9.3-15.9,15-26.3,19.2
						c-30,12.3-61.4,19.2-93.5,23.2c-20,2.5-40,4.4-60.2,4.3c-32.8-0.4-64.8-6-96.3-14.9c-20.9-5.8-41.3-12.7-60.6-22.8
						c-8.4-4.4-14.6-10.7-19.2-19c-17.5-32-25.9-66.3-24.2-102.5c2.3-47.8,18-91,49.6-127.7c5.8-6.7,12.5-12.2,20.4-16.6
						c21.3-11.7,43.5-20.8,67.6-25.4c18-3.5,36-2.6,53.4,1.4c13.2,3,25.9,3.7,39,1.2c15.2-2.9,30.5-1.8,45.9-0.4
						c18.4,1.7,36,6.1,53.5,11.5c33.1,10.2,54.9,32.3,68.4,63.7C774.5,1139.4,780,1168.3,778.9,1197.6z M466.7,1242.1
						c-4.7,0.8-9.4,1.4-14.1,2.3c-6.1,1.2-12.2,2.7-17.5,6.2c-10.6,7-10.2,18.3,1,24.3c4.2,2.3,8.8,3.6,13.5,4.3
						c14.6,2,29.1,1.7,43.5-1.9c5-1.3,9.8-3,14-6c8.9-6.5,8.6-16.5-0.6-22.5c-2.7-1.8-5.8-3-8.8-4.4c1.4-3.7,3.4-7.2,3.4-11.4
						c0.2-8.5-3.7-15.2-11.3-18.3c-7.6-3.1-14.9-1.2-20.8,5.1C462.8,1226.6,464,1234.2,466.7,1242.1z M658.2,1247.7
						c-0.4,0.2-0.7,0.4-1,0.5c-7.6,3.2-15.7,6.7-14.6,16.8c1,9.8,9.5,12.4,17.5,14.2c17.5,4.1,34.9,3.1,52.1-2.1
						c2.4-0.8,4.9-1.7,7.1-3c5-2.8,9.1-6.3,9.1-12.7c0-6.8-4.3-10.6-9.9-13.2c-4.7-2.2-9.6-3.6-14.8-3.9c-5.9-0.4-11.7-0.7-17.6-1
						c0.8-2.4,1.7-4.8,2.4-7.2c2.4-7.8,0-14.7-5.9-19.6c-5.8-4.8-12.8-7.2-20.3-3.2c-7.2,3.8-11.8,9.3-11.7,18.1
						C650.7,1238.1,653.7,1243.2,658.2,1247.7z"/>
					<path class="st7" d="M655,882.9c0.4,14.7-3.7,26.3-8.5,37.5c-5.4,12.7-14.2,22.9-24.4,31.9c-5.1,4.5-11.2,6.9-17.9,7.4
						c-6.6,0.5-10.3-2.9-10.7-9.6c-0.5-6.5,1.6-12.3,6.1-17.1c6.5-6.9,13-13.9,20.8-19.4C632.6,905.3,644.3,896.3,655,882.9z"/>
					<ellipse class="st8" cx="472.7" cy="1261.9" rx="48.1" ry="20.2"/>
					<ellipse class="st8" cx="685.3" cy="1261.9" rx="48.1" ry="20.2"/>
					<circle cx="670.1" cy="1231.5" r="22.8"/>
					<circle cx="482.8" cy="1229" r="22.8"/>
					<ellipse class="st8" cx="1059.7" cy="1261.9" rx="48.1" ry="20.2"/>
					<ellipse class="st8" cx="1272.3" cy="1261.9" rx="48.1" ry="20.2"/>
					<circle cx="1257.1" cy="1231.5" r="22.8"/>
					<circle cx="1069.8" cy="1229" r="22.8"/>
					<ellipse class="st8" cx="1646.7" cy="1261.9" rx="48.1" ry="20.2"/>
					<ellipse class="st8" cx="1859.3" cy="1261.9" rx="48.1" ry="20.2"/>
					<circle cx="1844.1" cy="1231.5" r="22.8"/>
					<circle cx="1656.8" cy="1229" r="22.8"/>
				</g>
			</g>
		</g>
	</g>
	<text transform="matrix(1 0 0 1 319.906 618.8985)" class="st9 st10 st11">WANT OUR LATEST NEWS?</text>
</g>
<g id="Layer_2_00000121987961027373889440000011957695730970533515_">
</g>
</svg>
