<?xml version="1.0" encoding="utf-8"?>
<!-- Generator: Adobe Illustrator 26.2.1, SVG Export Plug-In . SVG Version: 6.00 Build 0)  -->
<svg version="1.1" id="Layer_1" xmlns="http://www.w3.org/2000/svg" xmlns:xlink="http://www.w3.org/1999/xlink" x="0px" y="0px"
	 viewBox="0 0 500 500" style="enable-background:new 0 0 500 500;" xml:space="preserve">
<style type="text/css">
	.st0{fill:#FEFFFF;}
	.st1{fill:#DEC539;}
	.st2{fill:#EFBBBB;}
	.st3{fill:#F09F45;}
	.st4{fill:#EF9F45;}
	.st5{fill:#7E5428;}
	.st6{fill:#C07E2C;}
	.st7{fill:#F2F4F4;}
	.st8{fill:#F6F7F7;}
	.st9{fill:#EFF3F3;}
</style>
<g id="Layer_6">
	
		<image style="overflow:visible;opacity:0.75;enable-background:new    ;" width="992" height="908" xlink:href="F46C78CE1F235892.png"  transform="matrix(0.2891 0 0 0.2891 35 133.5242)">
	</image>
	<g>
		<g>
			<g>
				<path d="M70.3,254.8c0.6-0.9,0.5-2,0.7-3c5.6-29.7,20.7-53.3,45.2-70.8c1.3-1,2.3-2,2.8-3.6c1.5-4.4,3.2-8.7,4.9-13
					c0.5-1.3,1.1-2.5,1.9-3.7c1.5-2.4,3.3-3,5.9-1.8c1.7,0.7,3.1,2,4.8,3.1c1.6-1.8,3.3-3.7,4.9-5.5c2.8-3,3.9-3.1,7.5-0.9
					c1,0.6,1.9,1.5,3.2,1.8c1.2-1.6,2.5-3.2,3.7-4.8c0.2-0.3,0.4-0.6,0.7-0.9c3.6-4.4,6-4.4,9.6,0c2,2.5,3.9,5.2,6.1,7.6
					c1.3,1.4,2.6,1.9,4.6,1.9c42-1.1,81.2,22.3,100.5,59.8c0.4,0.7,0.8,1.5,1.1,2.2c0.9,0.3,1.4-0.4,2-0.8c1.5-1.1,3-2.2,4.7-2.9
					c6.4-2.9,12.7-0.1,14.7,6.8c1.2,4.4,1.1,8.8,0.7,13.3c-0.9,8.6-3.1,16.9-6.8,24.8c-1,2.2-1.9,4.4-3.1,6.5c-1.1,2-1.3,4-1.1,6.1
					c0.8,0.3,1.4-0.2,2-0.6c1.6-0.8,3.2-1.5,4.9-2c4.6-1.4,8.3,0.4,10.1,4.8c1,2.5,1.1,5.1,1,7.7c-0.3,6-2.2,11.6-4.3,17.2
					c-6.6,17.6-18.3,31.2-32.7,42.8c-14.9,12-31.4,21.4-49.6,27.4c-21.4,7.1-43.3,9.7-65.5,4.3c-39.3-9.6-65.9-33.6-80-71.5
					c-0.6-1.6-1.3-3-2.6-4.1c-7.6-7.1-14.1-15-18.7-24.3c-1.7-3.4-3.1-6.9-4-10.6c-0.3-1.4-0.6-2.7-0.6-4.1
					c-0.4-7,4.8-11.8,11.8-11.1c1.9,0.2,3.8,0.8,5.7,1.3C68,254.2,69.1,254.8,70.3,254.8z M197.4,375.2c7.1-1.2,14.2-2.9,21.1-5.1
					c13-4.2,25.2-10.2,36.7-17.7c9.2-6,17.1-13.4,24.6-21.2c8.5-8.7,15.4-18.5,19.8-30c2-5.2,3.4-10.6,3.6-16.2c0-1.5-0.1-3-0.7-4.4
					c-1.1-2.5-2.1-3.1-4.8-2.6c-1.1,0.2-2.1,0.6-3.2,1c-2.6,1.2-5.2,2.5-7.5,4.3c-0.5,0.4-1.1,0.8-1.8,0.4c-0.8-0.4-0.9-1.1-0.8-1.9
					c0.2-1.8,0.4-3.5,0.4-5.3c-0.1-3.4,0.9-6.3,2.5-9.2c5.2-9.2,7.7-19.2,8.8-29.7c0.3-3.3,0.4-6.7-0.4-10c-1.3-5.1-5.2-6.7-9.8-4.2
					c-0.6,0.3-1.1,0.6-1.7,1c-1.7,1.2-3.5,2.5-5.2,3.7c-2.3,1.7-2.3,1.7-3.5-1c-23.4-51.3-82.1-75.2-134.6-54.9
					c-59.7,23.1-85.3,94-54.1,149.9C108.8,361.7,153.2,383,197.4,375.2z M72,295.6c-1.5-7-2.4-13.9-2.6-21c-0.1-4.5,0-8.9,0.4-13.3
					c0.1-0.8,0.4-1.8-0.7-2.1c-3-0.9-5.9-2.2-9.1-2.3c-3.4-0.1-5.7,1.8-6.2,5.1c-0.3,2,0.1,3.9,0.7,5.8c3.2,10.5,9.2,19.4,16.4,27.5
					C71,295.4,71.3,295.8,72,295.6z M168.5,161.6c-2.4-3.1-4.6-6-6.8-8.7c-1.2,0.3-1.6,1.1-2.1,1.7c-1.4,1.8-2.8,3.7-4.3,5.5
					c-1.6,1.9-3.2,2.2-5.4,1c-1-0.5-1.9-1.1-2.8-1.8c-1.2-0.9-2.1-0.8-3,0.4c-1.2,1.5-2.5,3-3.8,4.5c-2.6,3.2-3.6,3.4-6.8,0.9
					c-0.7-0.6-1.5-1.1-2.2-1.6c-1.6-1-1.8-1-2.7,0.8c-1.6,3-2.8,6.3-4,9.5c-0.2,0.6-0.6,1.3-0.4,2.2
					C137.9,168,152.5,163.3,168.5,161.6z"/>
				<path class="st0" d="M197.4,375.2c-44.2,7.8-88.6-13.5-110.4-52.7c-31.2-56-5.6-126.8,54.1-149.9
					c52.5-20.3,111.1,3.6,134.6,54.9c1.2,2.7,1.2,2.7,3.5,1c1.7-1.3,3.4-2.5,5.2-3.7c0.5-0.4,1.1-0.7,1.7-1c4.6-2.5,8.5-0.9,9.8,4.2
					c0.8,3.3,0.8,6.6,0.4,10c-1,10.4-3.6,20.5-8.8,29.7c-1.6,2.9-2.6,5.9-2.5,9.2c0.1,1.8-0.2,3.5-0.4,5.3c-0.1,0.8,0,1.5,0.8,1.9
					c0.7,0.4,1.3,0,1.8-0.4c2.3-1.7,4.8-3.1,7.5-4.3c1-0.5,2.1-0.8,3.2-1c2.6-0.5,3.7,0,4.8,2.6c0.6,1.4,0.7,2.9,0.7,4.4
					c-0.1,5.6-1.6,11-3.6,16.2c-4.4,11.5-11.3,21.3-19.8,30c-7.6,7.8-15.5,15.2-24.6,21.2c-11.5,7.5-23.7,13.4-36.7,17.7
					C211.6,372.3,204.5,374,197.4,375.2z M165.8,255.6c-0.1,0.7-0.7,1.1-1,1.6c-1.3,2.1-0.8,4,1.4,5.1c1.2,0.6,2.4,0.8,3.8,0.9
					c3.9,0.2,7.6-0.6,11.3-1.5c2.7-0.7,5.5-1.6,7.7-3.6c2.5-2.3,1.9-5.2-1.3-6.2c-0.8-0.3-1.6-0.4-2.4-0.5c-2.9-0.2-5.7-0.2-8.6,0.4
					c0.3-0.6,0.6-1.1,0.8-1.7c2.2-4.9,0.1-10.7-4.7-12.9c-4.8-2.3-10.7-0.3-13.1,4.4c-2.5,4.9-0.6,10.7,4.3,13.2
					C164.6,255.2,165.2,255.4,165.8,255.6z M117.3,262.6c-1.2,0.4-2.4,0.9-3.7,1.2c-2.3,0.7-4.5,1.6-6.4,3.3
					c-1.9,1.7-1.6,4.3,0.6,5.5c1.1,0.6,2.3,1,3.4,1c5.6,0.2,11-0.9,16.3-3c1.5-0.6,2.8-1.4,3.9-2.6c1.4-1.6,1.2-3.5-0.4-4.9
					c-0.5-0.4-1.1-0.7-1.7-1c0.4-0.5,0.9-1,1.3-1.5c2.7-3.4,3-8.1,0.6-11.7c-2.3-3.5-6.4-5.1-10.4-4.2c-4.3,1-7.2,4.4-7.6,8.8
					C112.8,257.4,114.6,260.2,117.3,262.6z M148.5,267.9c4.3-1,7.6-3.4,9.8-7.2c0.8-1.3,0.5-2.6-0.6-3.1c-1.2-0.6-2.1-0.2-2.9,0.8
					c-0.6,0.7-1.1,1.5-1.7,2.2c-2.9,3.1-6.8,4-10.6,2.3c-0.6-0.3-1.1-0.6-1.7-0.9c-1.5-0.7-2.6-0.5-3.2,0.5
					c-0.7,1.1-0.4,2.3,1.1,3.2C141.8,267.6,145,268.4,148.5,267.9z"/>
				<path class="st0" d="M72,295.6c-0.8,0.2-1-0.2-1.2-0.4c-7.2-8.1-13.2-17-16.4-27.5c-0.6-1.9-0.9-3.8-0.7-5.8
					c0.5-3.3,2.8-5.3,6.2-5.1c3.2,0.1,6.1,1.4,9.1,2.3c1.1,0.4,0.8,1.3,0.7,2.1c-0.4,4.4-0.6,8.9-0.4,13.3
					C69.6,281.6,70.5,288.6,72,295.6z"/>
				<path class="st1" d="M168.5,161.6c-16,1.8-30.6,6.4-44.3,14.3c-0.2-1,0.2-1.6,0.4-2.2c1.2-3.2,2.4-6.4,4-9.5
					c0.9-1.8,1.1-1.8,2.7-0.8c0.8,0.5,1.5,1.1,2.2,1.6c3.2,2.5,4.2,2.3,6.8-0.9c1.2-1.5,2.6-2.9,3.8-4.5c0.9-1.2,1.8-1.3,3-0.4
					c0.9,0.7,1.8,1.3,2.8,1.8c2.2,1.2,3.8,0.9,5.4-1c1.5-1.8,2.8-3.7,4.3-5.5c0.5-0.6,0.9-1.4,2.1-1.7
					C163.9,155.6,166.1,158.4,168.5,161.6z"/>
				<path d="M117.3,262.6c-2.6-2.4-4.5-5.2-4.1-9c0.5-4.4,3.4-7.8,7.6-8.8c4-0.9,8.1,0.7,10.4,4.2c2.3,3.6,2.1,8.3-0.6,11.7
					c-0.4,0.5-0.8,1-1.3,1.5C125.4,264.8,121.4,265,117.3,262.6z"/>
				<path d="M165.8,255.6c-0.6-0.3-1.2-0.5-1.8-0.8c-4.9-2.6-6.8-8.3-4.3-13.2c2.4-4.7,8.3-6.7,13.1-4.4c4.8,2.3,6.8,8,4.7,12.9
					c-0.3,0.6-0.6,1.2-0.8,1.7C173.7,255.2,170.2,256.7,165.8,255.6z"/>
				<path class="st2" d="M165.8,255.6c4.4,1.1,7.9-0.4,10.8-3.7c2.8-0.5,5.7-0.5,8.6-0.4c0.8,0,1.7,0.2,2.4,0.5
					c3.2,1.1,3.8,4,1.3,6.2c-2.2,2-5,2.9-7.7,3.6c-3.7,0.9-7.4,1.7-11.3,1.5c-1.3-0.1-2.6-0.4-3.8-0.9c-2.2-1.1-2.7-3-1.4-5.1
					C165.1,256.7,165.7,256.3,165.8,255.6z"/>
				<path class="st2" d="M117.3,262.6c4.1,2.4,8.1,2.3,12.1-0.4c0.6,0.3,1.2,0.6,1.7,1c1.6,1.4,1.8,3.2,0.4,4.9
					c-1,1.2-2.4,2.1-3.9,2.6c-5.2,2.1-10.6,3.1-16.3,3c-1.2,0-2.4-0.4-3.4-1c-2.2-1.3-2.5-3.8-0.6-5.5c1.8-1.6,4.1-2.6,6.4-3.3
					C114.9,263.5,116.1,263,117.3,262.6z"/>
				<path d="M148.5,267.9c-3.5,0.4-6.8-0.3-9.8-2.3c-1.5-1-1.8-2.1-1.1-3.2c0.6-1,1.8-1.1,3.2-0.5c0.6,0.3,1.1,0.6,1.7,0.9
					c3.8,1.7,7.7,0.8,10.6-2.3c0.6-0.7,1.1-1.5,1.7-2.2c0.8-1,1.8-1.4,2.9-0.8c1.1,0.5,1.3,1.8,0.6,3.1
					C156.1,264.5,152.9,267,148.5,267.9z"/>
				
					<ellipse transform="matrix(0.9859 -0.1676 0.1676 0.9859 -43.165 23.7819)" class="st2" cx="119.3" cy="267.6" rx="13.9" ry="6.7"/>
				<circle cx="122.6" cy="254.8" r="10.3"/>
				
					<ellipse transform="matrix(0.9798 -0.1998 0.1998 0.9798 -47.6817 40.5764)" class="st2" cx="177.2" cy="256.5" rx="13.9" ry="6.7"/>
				<circle cx="168.4" cy="245.8" r="10.3"/>
			</g>
		</g>
	</g>
</g>
<g id="Layer_2_00000060726241197622337410000001819051058907505847_">
	
		<image style="overflow:visible;opacity:0.75;enable-background:new    ;" width="808" height="825" xlink:href="F46C78CE1F235896.png"  transform="matrix(0.2889 0 0 0.2889 234.4162 149.5057)">
	</image>
	<g>
		<g>
			<g>
				<path d="M294.4,172.4c5.4-4.4,11.2-7.6,18.3-7.6c7.1,0,12.8,3.2,17.9,8.3c7.5-6.7,16-8.8,25.6-6.6c9.5,2.2,15.5,8.9,20.6,16.6
					c7.8-4,15.9-5.1,24.3-3.9c8.2,1.2,14.2,5.5,17.8,13c1.1,2.2,1.9,4.6,2.9,6.9c0.9,0.4,1.6-0.4,2.3-0.7c3-1.4,6.2-2.3,9.5-3
					c10.7-2.3,17,4.9,18.9,13.3c1.5,6.4,0.4,12.6-2.5,18.4c-0.6,1.2-1.2,2,0.3,3c1.3,0.9,1.3,2.6,1.2,4.1
					c-0.4,14.6-2.9,28.8-8.6,42.3c-1.3,3.2-2.2,3.8-5.6,3.3c-2.1-0.3-2.3,0.9-2.6,2.2c-1.7,7.2-3.7,14.4-6.1,21.4
					c-3.7,10.8-6.2,21.9-10.6,32.5c-3,7.4-5.8,15-10.1,21.8c-4.9,7.6-11.8,11.7-20.3,13.7c-9.9,2.3-19.9,2.1-29.9,1.3
					c-22.8-1.8-44.7-7.1-66.1-14.8c-10.1-3.6-19.8-8.4-29.2-13.6c-2.9-1.6-5.6-3.7-7.9-6.1c-3.6-3.9-5-8.7-5.2-13.9
					c-0.3-7.7,0.3-15.4,0.8-23c0.9-14.2,1.4-28.5,2.9-42.7c0.4-3.7,0.8-7.4,1.2-11.1c0.2-1.5,0.3-2.6-1.6-3.1
					c-1.9-0.5-2.6-2.1-2.7-4c-0.8-15.4,1.4-30.4,7.7-44.6c1.1-2.5,3-3.5,5.6-3.6c-1.6-7.9,0-14.9,4.5-21.2
					c4.9-6.8,14.2-8.9,21.1-4.6C291.2,167.9,292.7,170.1,294.4,172.4z M258.6,249.1c-1.2,8.7-1.4,17.5-2.1,26.3
					c-0.5,6.8-0.9,13.6-1.2,20.4c-0.4,8.5-1.4,17.1-1.1,25.6c0.1,2.2,0,4.5,0.4,6.7c1.1,5.7,5,9.2,9.8,11.9
					c18.6,10.5,38.5,17.6,59.2,22.5c13.2,3.1,26.5,5,40.1,5.8c6.8,0.4,13.6,0.1,20.4-1.1c2.7-0.5,5.4-0.9,7.9-1.9
					c6.3-2.4,10.2-7.2,13.4-12.8c3.7-6.7,6.5-13.9,9.1-21.2c3.7-10.6,7-21.4,10.3-32.2c1.9-6.1,4-12.2,5.1-18.6
					c0.8-1.7-0.2-2.1-1.7-2.3c-11.1-2.1-22.1-4.2-33.2-6.4c-11.3-2.2-22.6-4.3-33.9-6.4c-18.5-3.5-37-7.1-55.4-10.6
					c-14.6-2.8-29.2-5.6-43.7-8.4C259,245.8,259,245.9,258.6,249.1z M254.8,230.9c0,1.6,0,3.2,0,4.8c0,4.3,0,4.3,4.2,5.1
					c26.4,5,52.8,10.1,79.2,15.1c32.1,6.1,64.3,12.3,96.4,18.4c3.8,0.7,3.9,0.8,5.1-2.8c3.8-11.2,6.4-22.6,7.1-34.5
					c0.2-2.9,0.2-2.9-2.8-3.5c-17.4-3.4-34.7-6.9-52.1-10.4c-42.4-8.4-84.8-16.7-127.2-25.1c-2.9-0.6-2.9-0.6-4,2.3
					C257,210.2,255,220.4,254.8,230.9z M448.1,214c0-0.8,0.1-1.5,0-2.2c-0.7-5.9-4.4-12.9-12.9-11.7c-2.6,0.4-5.1,0.7-7.5,1.9
					c-1.8,1-3.7,1.9-5.6,2.8c-2.3,1-3.4,0.5-4.3-1.8c-0.8-2.2-1.5-4.5-2.4-6.6c-1.3-3.2-3-6.2-5.9-8.4c-6-4.5-12.8-4.7-19.8-4
					c-4.2,0.4-8.1,2.2-11.9,4c-2.5,1.2-3,1-4.6-1.2c-1-1.4-1.9-2.9-2.9-4.3c-4.3-5.7-9.2-10.4-16.8-11.2c-5.1-0.6-10.2-0.9-14.8,2
					c-1.9,1.2-3.8,2.4-5.5,3.8c-2.9,2.2-3.2,2.3-5.9-0.2c-0.8-0.7-1.4-1.4-2.1-2.1c-2-1.7-4.1-3.1-6.7-3.8c-8.3-2.3-15.4,0-21.5,5.8
					c-3.7,3.5-4.1,3.5-6.4-1c-3.1-6.1-8.9-8.1-14.6-5.1c-6.2,3.2-10.4,14.5-7.8,20.7c0.7,1.6,1.6,2.5,3.4,2.8
					c13.1,2.4,26.2,5,39.3,7.7c17.4,3.5,34.9,7.1,52.3,10.3c8.9,1.6,17.7,3.7,26.5,5.3c14.2,2.6,28.3,5.7,42.5,8.5
					c3.1,0.6,6.3,1.1,9.5,1.6c1.7,0.3,2.7-0.5,3.6-2C447,222.1,448.1,218.2,448.1,214z"/>
				<path class="st3" d="M430,280.6c-1.2,6.3-3.2,12.4-5.1,18.6c-3.3,10.8-6.6,21.5-10.3,32.2c-2.5,7.2-5.3,14.4-9.1,21.2
					c-3.1,5.6-7.1,10.4-13.4,12.8c-2.6,1-5.3,1.4-7.9,1.9c-6.7,1.2-13.5,1.5-20.4,1.1c-13.5-0.9-26.9-2.7-40.1-5.8
					c-20.7-4.9-40.6-11.9-59.2-22.5c-4.8-2.7-8.7-6.2-9.8-11.9c-0.4-2.2-0.4-4.4-0.4-6.7c-0.3-8.6,0.7-17.1,1.1-25.6
					c0.3-6.8,0.7-13.6,1.2-20.4c0.7-8.8,0.8-17.6,2.1-26.3c5.4,1.2,11,1.6,16.4,2.6c9.7,1.7,19.3,4,28.9,6c5.1,1,10.1,2.2,15.3,2.6
					c5.6,0.5,10.9,1.8,16.3,2.9c4.8,1,9.7,1.9,14.4,3.1c7.3,1.8,14.7,3,22.2,4c6.2,0.9,12.3,2.2,18.5,3.5c7.3,1.6,14.8,2.5,22.2,4.1
					C418.5,279.2,424.1,281,430,280.6z M380.7,342.9c0.8-0.6,1.6-1.1,2.4-1.8c3.8-3.2,6.1-7.2,5.9-12.2c-0.3-6.5-3.5-11.3-9.7-13.7
					c-5.7-2.2-11-1.2-15.5,3c-4.9,4.6-6.1,10.3-3.9,16.6c0.7,2,2,3.7,3.3,5.3c-0.6,0.2-1.1,0.5-1.7,0.7c-1.5,0.5-3.1,1-3.4,2.9
					c-0.4,2.1,0.9,3.3,2.3,4.3c2.1,1.6,4.6,2.3,7.1,2.8c4,0.7,7.9,1.9,12,0.6c4.4-1.4,5.1-3.7,2.1-7.3
					C381.2,343.7,381,343.3,380.7,342.9z M285.8,323.7c-1.2,0.4-2.4,0.6-3.5,1.1c-3,1.3-3.4,3.7-1.1,6.1c0.8,0.8,1.6,1.4,2.7,1.9
					c4.1,1.8,8.5,2.5,12.9,2.9c2.1,0.2,4.2-0.2,6.1-1.1c2.3-1.1,3-3.4,1.5-5.5c-0.5-0.7-1.2-1.2-1.8-1.8c1-0.7,2.1-1.2,3.1-2
					c5.3-4,7.3-9.2,6.1-15.6c-1.3-6.4-6.4-11.1-13-12c-6.4-0.9-12.4,2.2-15.4,8C279.7,312.2,281.3,318.1,285.8,323.7z M335.6,345.2
					c1.8,0,4.1-1,5.4-2.4c1.4-1.4,1.8-3.3,0.8-4.3c-1.4-1.4-2.7-0.6-3.9,0.4c-0.1,0.1-0.2,0.2-0.3,0.2c-1.3,1.2-2.5,1.4-3.7-0.2
					c-0.9-1.2-2.3-1.3-3.7-0.6c-1.5,0.8-2.3,0.1-2.8-1.3c-0.2-0.6-0.3-1.2-0.7-1.7c-0.5-0.7-1.3-1.2-2.3-1c-1,0.2-1.4,1-1.5,1.9
					c-0.6,3.4,2.3,7.4,5.7,7.3c1.7,0,3.1,0.2,4.5,1.1C334,345.1,334.8,345.3,335.6,345.2z"/>
				<path class="st4" d="M254.8,230.9c0.2-10.5,2.1-20.7,5.9-30.5c1.1-2.8,1.1-2.9,4-2.3c42.4,8.4,84.8,16.7,127.2,25.1
					c17.4,3.4,34.7,6.9,52.1,10.4c3,0.6,3,0.6,2.8,3.5c-0.8,11.8-3.3,23.3-7.1,34.5c-1.2,3.6-1.3,3.6-5.1,2.8
					c-32.1-6.1-64.3-12.3-96.4-18.4c-26.4-5-52.8-10.1-79.2-15.1c-4.2-0.8-4.2-0.8-4.2-5.1C254.8,234.1,254.8,232.5,254.8,230.9z"/>
				<path class="st5" d="M448.1,214c0.1,4.2-1,8-3,11.7c-0.8,1.5-1.9,2.3-3.6,2c-3.2-0.5-6.3-1-9.5-1.6c-14.2-2.8-28.3-5.9-42.5-8.5
					c-8.9-1.7-17.7-3.7-26.5-5.3c-17.5-3.2-34.9-6.8-52.3-10.3c-13.1-2.6-26.2-5.2-39.3-7.7c-1.9-0.4-2.8-1.2-3.4-2.8
					c-2.6-6.2,1.6-17.5,7.8-20.7c5.7-3,11.5-1,14.6,5.1c2.3,4.6,2.7,4.6,6.4,1c6.1-5.8,13.2-8.1,21.5-5.8c2.6,0.7,4.7,2.1,6.7,3.8
					c0.8,0.7,1.4,1.4,2.1,2.1c2.8,2.4,3,2.3,5.9,0.2c1.8-1.3,3.7-2.6,5.5-3.8c4.6-2.9,9.7-2.6,14.8-2c7.5,0.8,12.5,5.5,16.8,11.2
					c1,1.4,1.9,2.9,2.9,4.3c1.6,2.3,2.1,2.4,4.6,1.2c3.8-1.8,7.7-3.6,11.9-4c7-0.7,13.8-0.5,19.8,4c2.9,2.2,4.6,5.1,5.9,8.4
					c0.9,2.2,1.6,4.4,2.4,6.6c0.9,2.3,2,2.8,4.3,1.8c1.9-0.8,3.8-1.8,5.6-2.8c2.3-1.3,4.9-1.6,7.5-1.9c8.5-1.2,12.2,5.8,12.9,11.7
					C448.2,212.5,448.1,213.3,448.1,214z M317.8,194.9c2.5,0,4.5-1.7,5.1-4c0.5-2-0.6-3.3-2.1-4.3c-1.4-1-2.3-0.3-3,0.8
					c-0.5,0.8-1.2,0.5-2,0.3c-1.9-0.4-2.4,0.7-2.5,2.3C313,192.8,315,194.9,317.8,194.9z M356.3,186c-0.8,0-1.6,0-2.3,0.7
					c-1.1,1.2-0.7,4.3,0.8,4.9c1.3,0.5,2.4,1.3,3.3,2.3c0.9,0.9,1.8,1.3,3,0.5c1-0.7,1.5-1.6,1.3-2.9C362,189,358.9,186.2,356.3,186
					z M398.9,209.4c-0.2,1.3,0.1,2.5,1.7,3.1c1.4,0.6,2.5-0.2,3.4-1c1.1-0.9,1.2-2.7,2.8-3.2c0.1,0,0.3-0.8,0.2-1
					c-0.7-1.3-1.4-2.7-2.8-3.3c-1.5-0.6-2.9,0.2-4,1.3C399.3,206.4,398.8,207.7,398.9,209.4z"/>
				<path class="st6" d="M430,280.6c-5.9,0.4-11.5-1.5-17.1-2.6c-7.4-1.6-14.8-2.5-22.2-4.1c-6.1-1.3-12.3-2.7-18.5-3.5
					c-7.5-1.1-14.9-2.3-22.2-4c-4.8-1.2-9.6-2.1-14.4-3.1c-5.4-1.1-10.8-2.4-16.3-2.9c-5.1-0.4-10.2-1.6-15.3-2.6
					c-9.7-2-19.2-4.3-28.9-6c-5.4-1-11-1.4-16.4-2.6c0.3-3.3,0.3-3.3,3.4-2.7c14.6,2.8,29.2,5.6,43.7,8.4
					c18.5,3.6,36.9,7.1,55.4,10.6c11.3,2.2,22.6,4.3,33.9,6.4c11.1,2.1,22.1,4.3,33.2,6.4C429.7,278.5,430.7,278.9,430,280.6z"/>
				
					<ellipse transform="matrix(0.1639 -0.9865 0.9865 0.1639 -31.6419 654.7973)" class="st2" cx="370.5" cy="346.1" rx="7.1" ry="13.9"/>
				<ellipse transform="matrix(0.1639 -0.9865 0.9865 0.1639 -79.5541 564.1846)" class="st2" cx="293" cy="329" rx="7" ry="13.9"/>
				<circle cx="296.9" cy="312.4" r="15.7"/>
				<circle cx="374.3" cy="329.9" r="15.7"/>
				<path d="M335.6,345.2c-0.8,0-1.6-0.1-2.4-0.6c-1.4-0.9-2.8-1.1-4.5-1.1c-3.4,0.1-6.4-3.9-5.7-7.3c0.2-0.9,0.5-1.7,1.5-1.9
					c1-0.2,1.7,0.3,2.3,1c0.4,0.5,0.5,1.1,0.7,1.7c0.5,1.4,1.3,2.1,2.8,1.3c1.4-0.7,2.7-0.7,3.7,0.6c1.3,1.6,2.4,1.4,3.7,0.2
					c0.1-0.1,0.2-0.2,0.3-0.2c1.2-1,2.5-1.8,3.9-0.4c1,1,0.5,2.9-0.8,4.3C339.7,344.2,337.4,345.2,335.6,345.2z"/>
				<path d="M317.8,194.9c-2.9,0-4.9-2.1-4.6-4.9c0.2-1.5,0.7-2.7,2.5-2.3c0.7,0.2,1.4,0.5,2-0.3c0.8-1.1,1.7-1.8,3-0.8
					c1.5,1.1,2.6,2.3,2.1,4.3C322.4,193.3,320.4,194.9,317.8,194.9z"/>
				<path d="M356.3,186c2.6,0.2,5.6,3,6,5.4c0.2,1.3-0.3,2.2-1.3,2.9c-1.1,0.8-2.1,0.4-3-0.5c-0.9-1-2-1.7-3.3-2.3
					c-1.5-0.6-1.9-3.7-0.8-4.9C354.7,186,355.5,186,356.3,186z"/>
				<path d="M398.9,209.4c-0.1-1.7,0.4-3,1.3-4c1-1.1,2.4-1.9,4-1.3c1.4,0.5,2.1,2,2.8,3.3c0.1,0.3,0,1-0.2,1
					c-1.7,0.5-1.8,2.3-2.8,3.2c-0.9,0.8-2,1.5-3.4,1C399.1,211.8,398.7,210.6,398.9,209.4z"/>
				<path class="st7" d="M286.6,314c-0.4-7.2,3.1-11.2,10-11.7C296.5,308.5,292.9,312.8,286.6,314z"/>
				<path class="st7" d="M297.7,322.8c0.3-5.3,3.5-9.4,9.1-11.6C308.2,317.1,304,322.4,297.7,322.8z"/>
				<path class="st8" d="M364.2,330.5c-0.9-6.1,3.3-11.2,9.1-11.4c1.9,0,2.2,0.3,1.8,2.1c-0.8,3.5-2.6,6.4-6,7.9
					C367.5,329.8,365.9,330.4,364.2,330.5z"/>
				<path class="st9" d="M383.7,328.5c0.4,5.6-2.4,9.3-7.7,10.2C376.2,334,379.4,329.7,383.7,328.5z"/>
			</g>
		</g>
	</g>
</g>
</svg>
