<?xml version="1.0" encoding="utf-8"?>
<!-- Generator: Adobe Illustrator 26.2.1, SVG Export Plug-In . SVG Version: 6.00 Build 0)  -->
<svg version="1.1" id="Layer_4" xmlns="http://www.w3.org/2000/svg" xmlns:xlink="http://www.w3.org/1999/xlink" x="0px" y="0px"
	 viewBox="0 0 1085.6 605.7" style="enable-background:new 0 0 1085.6 605.7;" xml:space="preserve">
<style type="text/css">
	.st0{fill:none;stroke:url(#SVGID_1_);stroke-width:12;stroke-linecap:round;stroke-linejoin:round;stroke-miterlimit:10;}
</style>
<linearGradient id="SVGID_1_" gradientUnits="userSpaceOnUse" x1="2.7035" y1="136.6199" x2="1062.5603" y2="136.6199" gradientTransform="matrix(1 0 0 -1 0 500)">
	<stop  offset="0" style="stop-color:#919CBE"/>
	<stop  offset="1" style="stop-color:#BE6457"/>
</linearGradient>
<path class="st0" d="M143.1,453.7c2.3-36.6,10.2-73.3,27.8-105.5c17.5-32.2,45.3-59.6,79.7-72.3c16.7-6.1,35.1-9.1,48.9-20.2
	c9.7-7.8,17-19.4,28.8-23c9.4-2.9,19.6,0,28.6,3.8c12.1,5.1,24.7,13.5,26.6,30c6.6-21.9,20.8-41.5,39.6-54.6
	c-3.6,8.3-5.9,17-7.1,25.9c0,0,0.6,1.9,1.2,2.8c35.7-54.6,94.9-92.4,158.7-105.6c63.9-13.2,131.8-2.6,190.5,25.9
	c90,43.7,158.7,132.3,166.9,229.5c37.2,9,69.5,36.5,84.1,71.9c19-3.8,39.2,13.1,38.9,32.4c-14.7-11.3-37.3-10.9-51.6,0.9
	c14.5,0.4,28.7,6.6,38.7,17c-4.9,1.5-9.8,3-14.7,4.4c7.6,4.6,14.6,10.3,20.7,16.8c-19.4-5.6-40-0.7-59.7,3.4
	c-83.5,17.5-170,20.9-254,16c20.7-4.8,43.9,4.2,55.8,21.8c-5.7,2-11.4,4-17.1,6c5.3,4.5,9.6,10.1,12.4,16.4
	c-23.5-13.2-51.9-13.1-78.8-12.2c-107.4,3.5-219.5,13.6-316.9-27.9c-53.2,31.1-120.9,20.7-178.5-1.1c-7.7-2.9-15.5-6.1-23.7-6.7
	c-9.6-0.7-19.2,2.2-28.5,4.5c-49.1,12-102,8-148.7-11.3c4.7-5.2,9.4-10.4,14.2-15.7c-5.8-1.2-11.7-2.3-17.5-3.5
	C41.4,483.5,91.7,458.1,143.1,453.7z"/>
</svg>
