<?xml version="1.0" encoding="utf-8"?>
<!-- Generator: Adobe Illustrator 26.1.0, SVG Export Plug-In . SVG Version: 6.00 Build 0)  -->
<svg version="1.1" id="Layer_4" xmlns="http://www.w3.org/2000/svg" xmlns:xlink="http://www.w3.org/1999/xlink" x="0px" y="0px"
	 viewBox="0 0 500 500" style="enable-background:new 0 0 500 500;" xml:space="preserve">
<style type="text/css">
	.st0{fill:none;stroke:url(#SVGID_1_);stroke-width:4;stroke-linecap:round;stroke-linejoin:round;stroke-miterlimit:10;}
</style>
<linearGradient id="SVGID_1_" gradientUnits="userSpaceOnUse" x1="62.2232" y1="223.0644" x2="434.3613" y2="223.0644">
	<stop  offset="0" style="stop-color:#919CBE"/>
	<stop  offset="1" style="stop-color:#BE6457"/>
</linearGradient>
<path class="st0" d="M111.46,254.81c0.82-12.86,3.6-25.76,9.76-37.08c6.16-11.31,15.93-20.95,28.01-25.41
	c5.85-2.16,12.32-3.2,17.18-7.1c3.4-2.73,5.96-6.81,10.13-8.09c3.3-1.01,6.87,0,10.04,1.34c4.26,1.79,8.69,4.75,9.36,10.54
	c2.33-7.7,7.32-14.57,13.93-19.17c-1.25,2.9-2.09,5.98-2.48,9.11c0,0,0.2,0.66,0.43,0.97c12.53-19.19,33.33-32.47,55.77-37.11
	c22.45-4.64,46.3-0.91,66.92,9.11c31.61,15.36,55.76,46.49,58.62,80.63c13.08,3.16,24.41,12.84,29.56,25.27
	c6.67-1.32,13.78,4.6,13.68,11.4c-5.18-3.96-13.09-3.83-18.13,0.31c5.08,0.13,10.07,2.33,13.6,5.98c-1.72,0.52-3.43,1.04-5.15,1.56
	c2.68,1.62,5.14,3.61,7.29,5.89c-6.81-1.96-14.06-0.24-20.99,1.21c-29.35,6.14-59.73,7.35-89.23,5.62
	c7.27-1.7,15.43,1.49,19.62,7.66c-2,0.7-4,1.4-6,2.1c1.86,1.57,3.36,3.56,4.37,5.77c-8.26-4.62-18.24-4.6-27.7-4.29
	c-37.73,1.22-77.12,4.77-111.33-9.79c-18.68,10.91-42.49,7.29-62.72-0.37c-2.71-1.03-5.44-2.13-8.33-2.34
	c-3.39-0.24-6.73,0.77-10.03,1.58c-17.25,4.21-35.82,2.8-52.24-3.96c1.66-1.84,3.32-3.67,4.99-5.51c-2.05-0.41-4.11-0.81-6.16-1.22
	C75.73,265.28,93.39,256.37,111.46,254.81z"/>
</svg>
