<?xml version="1.0" encoding="utf-8"?>
<!-- Generator: Adobe Illustrator 28.0.0, SVG Export Plug-In . SVG Version: 6.00 Build 0)  -->
<svg version="1.1" id="Layer_1" xmlns="http://www.w3.org/2000/svg" xmlns:xlink="http://www.w3.org/1999/xlink" x="0px" y="0px"
	 viewBox="0 0 2048 2048" style="enable-background:new 0 0 2048 2048;" xml:space="preserve">
<style type="text/css">
	.st0{display:none;}
	.st1{display:inline;fill:#3DB207;stroke:#3DB207;stroke-width:5;stroke-miterlimit:10;}
	.st2{display:inline;fill:#B1F28C;stroke:#3DB207;stroke-width:5;stroke-miterlimit:10;}
	.st3{display:inline;fill:none;stroke:#000000;stroke-width:2;stroke-miterlimit:10;}
	.st4{display:inline;fill:none;stroke:#FFFFFF;stroke-width:2;stroke-miterlimit:10;}
	.st5{display:inline;}
	.st6{clip-path:url(#SVGID_00000062882942570830853910000015030937882608320139_);}
	.st7{display:inline;fill:none;stroke:#3DB207;stroke-width:5;stroke-miterlimit:10;}
	.st8{display:inline;fill:#3DB207;}
	.st9{fill:#FCFCFC;}
	.st10{fill:#DBDBDB;}
	.st11{fill:none;stroke:#919191;stroke-width:10;stroke-miterlimit:10;}
	.st12{fill:#FCFCFC;stroke:#919191;stroke-width:10;stroke-miterlimit:10;}
	.st13{clip-path:url(#SVGID_00000120539053721795254430000012813895244196234644_);}
	.st14{fill:none;stroke:#3DB207;stroke-width:2;stroke-miterlimit:10;}
</style>
<g id="iphone_15_plus" class="st0">
	<path class="st1" d="M-3014,671.5h-2.8c-0.6,0-1.2,1.2-1.2,2.6v47.2c0,1.4,0.5,2.6,1.2,2.6h2.8"/>
	<path class="st1" d="M-3014,767.5h-2.8c-0.6,0-1.2,2.1-1.2,4.7v86.1c0,2.6,0.5,4.7,1.2,4.7h2.8"/>
	<path class="st1" d="M-3014,889.5h-2.8c-0.6,0-1.2,2.1-1.2,4.7v86.1c0,2.6,0.5,4.7,1.2,4.7h2.8"/>
	<path class="st1" d="M-2414,791.5h2.8c0.6,0,1.2,3.4,1.2,7.6v139.2c0,4.2-0.5,7.6-1.2,7.6h-2.8"/>
	<path class="st2" d="M-2501.1,440c48.1,0,87.1,39,87.1,87.1v1066.8c0,48.1-39,87.1-87.1,87.1h-425.8c-48.1,0-87.1-39-87.1-87.1
		V527.1c0-48.1,39-87.1,87.1-87.1L-2501.1,440L-2501.1,440z"/>
	<line class="st3" x1="-2421" y1="1563.6" x2="-2414" y2="1563.6"/>
	<line class="st3" x1="-2421" y1="1577" x2="-2414" y2="1577"/>
	<line class="st3" x1="-2421" y1="536.6" x2="-2414" y2="536.6"/>
	<line class="st3" x1="-2421" y1="550" x2="-2414" y2="550"/>
	<path class="st4" d="M-2918,448h416.2c44.6,0,80.8,36.2,80.8,80.8v1063.4c0,44.6-36.2,80.8-80.8,80.8h-424.4
		c-44.6,0-80.8-36.2-80.8-80.8V528.8c0-44.6,36.2-80.8,80.8-80.8H-2918z"/>
	<g class="st5">
		<g>
			<defs>
				<path id="SVGID_1_" d="M-2925.8,466h420.2c35.1,0,63.6,28.5,63.6,63.6v1059.8c0,35.1-28.5,63.6-63.6,63.6h-420.2
					c-35.1,0-63.6-28.5-63.6-63.6V529.6C-2989.4,494.5-2960.9,466-2925.8,466z"/>
			</defs>
			<clipPath id="SVGID_00000120518866017694681120000006935500262345102229_">
				<use xlink:href="#SVGID_1_"  style="overflow:visible;"/>
			</clipPath>
			<g style="clip-path:url(#SVGID_00000120518866017694681120000006935500262345102229_);">
			</g>
		</g>
	</g>
	<path class="st7" d="M-2989,548.7v1036c0,37.8,31,68.4,69.2,68.4h409.5c38.2,0,69.2-30.6,69.2-68.4V534.9c0-37.8-31-68.4-69.2-68.4
		h-409.5c-38.2,0-69.2,30.6-69.2,68.4V548.7z"/>
	<path class="st8" d="M-2657.5,526h-114c-13.5,0-24.5-11-24.5-24.5l0,0c0-13.5,11-24.5,24.5-24.5h114c13.5,0,24.5,11,24.5,24.5l0,0
		C-2633,515-2644,526-2657.5,526z"/>
</g>
<g id="imac">
	<path class="st9" d="M788,1779.5c0,0-33.7,25.4-41.6,34.8c-7.8,9.4-7.8,29.8,6.3,29.8s540.2,0,540.2,0s25.9-6.3,8.6-29.8
		c-25.1-18.8-41.1-32-44.8-34.8C1252.9,1776.7,788,1779.5,788,1779.5z"/>
	<polygon class="st10" points="809.3,1618.1 1235.7,1620.3 1254.5,1776.7 791.1,1777.4 	"/>
	<path class="st11" d="M807.6,1618.3l-17.9,155.5c-0.6,4.9-3.1,9.3-6.9,12.2l-35.8,27.1c-13.8,10.5-6.4,32.5,11,32.5h530.6
		c17.4,0,24.8-22,11-32.5l-35.8-27.1c-3.9-3-6.4-7.4-6.9-12.2l-18.2-155.5"/>
	<path class="st12" d="M69.1,1567.5V253.2c0-28.1,21.2-50.8,47.2-50.8h1815.3c26,0,47.2,22.7,47.2,50.8v1314.3
		c0,28.1-21.2,50.8-47.2,50.8H116.3C90.2,1618.3,69.1,1595.5,69.1,1567.5z"/>
	<line class="st11" x1="69.1" y1="1428.2" x2="1978.9" y2="1428.2"/>
	<rect x="178.8" y="304.3" class="st11" width="1690.3" height="1020.8"/>
	<g class="st0">
		<g class="st5">
			<defs>
				<rect id="SVGID_00000026157444314421571070000002369888099154162337_" x="182" y="312.1" width="1685.6" height="1005.1"/>
			</defs>
			<clipPath id="SVGID_00000074427810384513017310000000956917741319768466_">
				<use xlink:href="#SVGID_00000026157444314421571070000002369888099154162337_"  style="overflow:visible;"/>
			</clipPath>
			<g style="clip-path:url(#SVGID_00000074427810384513017310000000956917741319768466_);">
			</g>
		</g>
	</g>
	<line class="st11" x1="1256.7" y1="1777.9" x2="788.6" y2="1777.9"/>
	<line class="st14" x1="807.6" y1="1618.3" x2="1238.8" y2="1618.3"/>
</g>
</svg>
