<?xml version="1.0" encoding="utf-8"?>
<!-- Generator: Adobe Illustrator 26.2.1, SVG Export Plug-In . SVG Version: 6.00 Build 0)  -->
<svg version="1.1" id="Layer_3" xmlns="http://www.w3.org/2000/svg" xmlns:xlink="http://www.w3.org/1999/xlink" x="0px" y="0px"
	 viewBox="0 0 500 500" style="enable-background:new 0 0 500 500;" xml:space="preserve">
<style type="text/css">
	.st0{fill:#8E9688;}
</style>
<g id="Layer_3_00000024695751863120862600000006010059415070036669_">
	<g>
		<g>
			<g>
				<path d="M316.8,493.1c-3.4,1.3-7,1-10.7,0.2c-19.4-4.2-38.4-9.5-56.8-16.9c-33.3-13.4-64-31.1-91.8-54
					c-37-30.5-66.4-66.9-85.9-111c-3.8-8.6-6.1-17.8-9-26.7c-15.5-48-9.7-94.2,12.3-138.9c1.3-2.7,2.9-5.2,4.5-7.7
					c3-4.9,3-4.9-1.5-8.8c-1.7-1.5-3.6-2.7-5-4.4c-4.7-5.4-9.3-5.9-15.9-2.4c-9.2,4.9-18.5,1.3-21.7-7.1c-1.3-3.6-1.2-7.3-0.2-11
					c3.9-14.8,13-25.3,26.6-31.9c1.5-0.7,3.3-1.2,5-1.5c11.3-2.5,19.1,4.2,18.3,15.7c-0.1,1.2,0,2.6-0.5,3.7
					c-2.2,5.1-0.9,8.6,3.8,11.6c3.1,1.9,5.7,4.7,8.4,7.2c2.2,2,3.7,2.3,6.2,0c32.9-30.7,72.3-48.7,115.8-58
					c34.6-7.4,69.6-8.8,104.7-3.6c7.1,1.1,14.1,2.7,20.9,5c3.1,1,5.1,0.9,6.4-2.5c1-2.5,2.2-5,3.8-7.2c3.8-5.6,3.9-10-0.8-16
					c-7.2-9.2-2.4-19,9.3-21.4c3.9-0.8,7.9-0.8,11.8-0.1c10,1.7,18.9,5.7,26.9,11.9c3.8,2.9,6.9,6.4,8.9,10.8
					c3.6,8,0.1,15.6-8.3,18.2c-5.1,1.6-10.2,1.7-15.4,0.6c-2.8-0.6-4.7,0-6,2.7c-1.6,3.6-3.6,7.1-5.3,10.6c-1.5,3.1-1.4,5.3,2.3,7
					c4.9,2.4,9.3,5.6,14,8.3c24.8,14.5,41.9,35.5,53.2,61.8c20.2,46.8,25.8,94.8,15.8,145c-10.4,52-34.5,96.9-65.3,139.1
					c-12.1,16.5-26.1,30.9-40.5,45.2c-7.7,7.7-16.2,14.5-25.2,20.6C326,490.1,321.8,492.2,316.8,493.1z M227.2,61.9
					c-36.2,8-66.7,19-94.1,37.7c-20.5,13.9-37.6,31.1-48.4,53.2c-19.7,40.3-25,82.3-12.1,126.1c6.2,21.1,15.1,40.9,26.4,59.4
					c28.9,47.4,69.1,83,117.4,109.8c27.4,15.2,56.6,25.8,87.3,32.7c8.3,1.9,15.6,1,22.5-4.1c2.8-2.1,5.7-3.9,8.4-6.1
					c13.8-11,25.5-24.2,37.4-37c14.3-15.5,25.5-33.4,36.4-51.4c18.5-30.6,32.9-62.8,40.5-98.3c10.5-49.5,5.4-96.8-14.9-142.8
					c-10.7-24.2-25.4-44.7-49.7-57c-1.6-0.8-2.9-1.8-4.4-2.7c-21.3-12.6-44-21.7-68.9-23.7C281.4,55.4,252,55.8,227.2,61.9z
					 M68.3,82.4c-9.2,3.6-15.4,10.1-19.7,18.5c-1.7,3.4-4.7,7.9-1.6,10.9c3.8,3.6,7.7-0.7,11-2.9c5.7-3.8,6-4,11.5,0.3
					c5.5,4.2,10.9,8.5,16.3,12.8c1.7,1.3,3.3,2.2,5.1,0.1c1.9-2.3,0.1-3.5-1.4-4.8c-5-4.4-9.9-8.9-14.9-13.3c-4.7-4.2-4.9-5-3-10.8
					c0.6-1.9,1.3-3.7,1.7-5.7C74.1,83.2,72.2,81.4,68.3,82.4z M396.7,35.4c0,0,2.2,0.2,2.8-1.8c0.6-1.9-0.8-3.3-2-4.5
					c-7.7-7.5-16.9-11.8-27.7-12.5c-2.4-0.1-6-1.5-7.1,2c-0.9,2.6,1.9,4.3,3.6,6c5.8,6,6.1,7.6,2.2,14.8c-2.6,4.8-5.1,9.6-7.8,14.3
					c-1.2,2.1-2.1,3.9,0.9,5.4c2.8,1.4,3.2-0.5,4.1-2.4c2.8-6,5.7-12,8.7-18c2.6-5.3,4.1-6,9.8-4.4
					C387.8,35.4,391.4,36.5,396.7,35.4z"/>
				<path class="st0" d="M227.2,61.9c24.9-6.1,54.3-6.5,83.7-4.2c24.9,2,47.5,11,68.9,23.7c1.5,0.9,2.9,1.9,4.4,2.7
					c24.3,12.3,39,32.8,49.7,57c20.3,46,25.4,93.3,14.9,142.8c-7.5,35.5-22,67.6-40.5,98.3c-10.9,18-22.1,35.9-36.4,51.4
					c-11.9,12.9-23.6,26-37.4,37c-2.7,2.2-5.7,4-8.4,6.1c-6.8,5.1-14.2,5.9-22.5,4.1c-30.7-6.8-59.9-17.5-87.3-32.7
					c-48.2-26.7-88.5-62.3-117.4-109.8c-11.3-18.6-20.2-38.3-26.4-59.4c-12.9-43.8-7.6-85.8,12.1-126.1c10.8-22.1,28-39.3,48.4-53.2
					C160.5,80.9,191,69.9,227.2,61.9z M419.4,235.2c-2.5-13.1-8.2-25.6-16.1-37.2c-11.8-17.3-26.7-31.1-46.7-38.7
					c-10.1-3.8-20.4-5.8-31.2-4.2c-23.5,3.5-37.6,17.4-43.9,39.7c-5.2,18.2-2.9,36.2,3.7,53.8c9.2,24.5,24.6,43.9,47.2,57.2
					c11,6.5,23,10.2,36,10.4c24.8,0.2,43.8-16,50.5-38.4C422.9,263.9,422.8,249.9,419.4,235.2z M185.6,186.7
					c-9.4,1.9-17.8,5.9-25.2,12c-24.1,19.9-35.8,46.2-37.7,76.9c-1.2,19.1,2.4,37.4,13.1,53.8c13,19.8,34.9,28.1,57.5,21.5
					c11.4-3.3,21-9.8,29.2-18.3c20.2-21,29.4-46.5,29.9-75.3c0.3-18.7-3.9-36.4-15.7-51.4C223.6,189.2,206.6,182.3,185.6,186.7z
					 M306.5,412.9c1.2-0.3,2.4-0.5,3.6-0.8c17.2-4.9,29-18.4,30.8-35c1.5-13.6-8.8-22.9-22-20.2c-5.9,1.2-10.5,4.3-14,9
					c-3.7,5-8.3,5.6-13.7,3.6c-0.9-0.3-1.8-0.7-2.8-1c-13.4-4.5-24,3.7-23.1,17.7c0.2,3.5,1.1,6.8,2.7,9.9
					C274.8,409,291.4,416.4,306.5,412.9z"/>
				<path class="st0" d="M68.3,82.4c3.9-1,5.8,0.8,5,5.1c-0.4,1.9-1.1,3.8-1.7,5.7c-2,5.7-1.7,6.6,3,10.8c5,4.4,9.9,8.9,14.9,13.3
					c1.5,1.3,3.3,2.5,1.4,4.8c-1.8,2.1-3.4,1.2-5.1-0.1c-5.4-4.3-10.8-8.6-16.3-12.8c-5.5-4.2-5.8-4-11.5-0.3
					c-3.3,2.2-7.2,6.5-11,2.9c-3.2-3-0.2-7.5,1.6-10.9C52.9,92.6,59.1,86,68.3,82.4z"/>
				<path class="st0" d="M396.7,35.4c-5.4,1.1-8.9,0-12.5-1c-5.7-1.6-7.2-1-9.8,4.4c-2.9,6-5.9,11.9-8.7,18
					c-0.9,1.9-1.3,3.8-4.1,2.4c-3-1.5-2.1-3.3-0.9-5.4c2.6-4.7,5.2-9.5,7.8-14.3c3.9-7.2,3.6-8.8-2.2-14.8c-1.7-1.7-4.4-3.3-3.6-6
					c1.1-3.5,4.7-2.1,7.1-2c10.7,0.6,20,5,27.7,12.5c1.2,1.2,2.6,2.6,2,4.5C398.9,35.6,396.8,35.4,396.7,35.4z"/>
				<path d="M419.4,235.2c3.4,14.7,3.5,28.7-0.6,42.5c-6.7,22.4-25.6,38.6-50.5,38.4c-12.9-0.1-24.9-3.8-36-10.4
					c-22.6-13.3-38-32.7-47.2-57.2c-6.6-17.6-8.9-35.5-3.7-53.8c6.3-22.3,20.4-36.2,43.9-39.7c10.9-1.6,21.2,0.4,31.2,4.2
					c19.9,7.6,34.9,21.3,46.7,38.7C411.2,209.6,416.9,222.1,419.4,235.2z"/>
				<path d="M185.6,186.7c21-4.4,38,2.5,51,19.1c11.8,15,16,32.7,15.7,51.4c-0.5,28.8-9.7,54.3-29.9,75.3
					c-8.2,8.5-17.8,15-29.2,18.3c-22.6,6.6-44.5-1.7-57.5-21.5c-10.7-16.4-14.4-34.6-13.1-53.8c2-30.7,13.6-56.9,37.7-76.9
					C167.7,192.6,176.1,188.6,185.6,186.7z"/>
				<path d="M306.5,412.9c-15.1,3.5-31.7-3.9-38.4-16.8c-1.6-3.1-2.5-6.5-2.7-9.9c-0.9-14.1,9.7-22.2,23.1-17.7
					c0.9,0.3,1.9,0.7,2.8,1c5.4,2,10,1.4,13.7-3.6c3.5-4.7,8-7.8,14-9c13.3-2.7,23.5,6.6,22,20.2c-1.8,16.7-13.7,30.2-30.8,35
					C308.9,412.5,307.7,412.7,306.5,412.9z"/>
			</g>
		</g>
	</g>
</g>
</svg>
