<?xml version="1.0" encoding="utf-8"?>
<!-- Generator: Adobe Illustrator 26.2.1, SVG Export Plug-In . SVG Version: 6.00 Build 0)  -->
<svg version="1.1" id="Layer_1" xmlns="http://www.w3.org/2000/svg" xmlns:xlink="http://www.w3.org/1999/xlink" x="0px" y="0px"
	 viewBox="0 0 500 500" style="enable-background:new 0 0 500 500;" xml:space="preserve">
<style type="text/css">
	.st0{fill:#2B7E31;stroke:#2B7E31;stroke-miterlimit:10;}
	.st1{fill:#E7B7B5;}
	.st2{fill:#E4B6B3;}
	.st3{fill:#744719;stroke:#744719;stroke-miterlimit:10;}
	.st4{fill:#F0F4F4;}
	.st5{fill:#343433;}
	.st6{fill:#EACF27;}
	.st7{fill:#E1E5E5;}
	.st8{fill:#EBD127;}
	.st9{fill:#EAD027;}
	.st10{fill:#E8EEEE;}
	.st11{fill:#F0AFAF;}
	.st12{fill:#C5ADAD;}
	.st13{fill:#EBB6B4;}
	.st14{fill:#EBB7B5;}
	.st15{fill:#53300C;}
</style>
<g id="Layer_3">
	<g>
		<g>
			<g>
				<path d="M67.81,301.06c-10.19-5.59-19.76-11.93-28.33-19.88c-8.95-8.2-17.52-16.65-23.11-27.71
					c-5.09-10.19-5.84-20.38-2.24-31.06c1.62-4.72,3.6-9.32,5.59-13.79c1.62-3.85,3.85-7.21,7.08-9.94
					c3.23-2.73,4.47-2.61,7.83,0.12c7.21,6.09,14.41,12.18,21.87,18.02c4.35,3.48,8.7,6.71,14.17,8.33c0.62,0.25,1.37,0.5,1.99,0
					c0.99-1.99-0.25-3.23-1.24-4.72c-3.73-5.59-8.7-9.94-13.3-14.54c-4.6-4.72-9.44-9.2-13.79-14.17
					c-5.84-6.96-6.96-14.54-3.85-22.99c1.99-5.22,4.97-9.94,8.33-14.29c6.21-8.33,11.06-17.52,16.4-26.34
					c3.6-5.84,6.09-12.05,7.33-18.76c1.49-7.83,6.21-10.06,12.8-9.94c8.95,0.12,17.77,1.86,26.47,3.73
					c12.55,2.73,25.1,5.22,37.28,9.07c12.43,3.85,24.6,8.45,36.16,14.29c12.43,6.34,17.27,16.77,14.66,30.07
					c-2.86,14.41-8.45,27.96-16.15,40.38c-3.23,5.09-6.83,10.06-10.19,15.04c-0.75,0.99-1.37,2.11-1.86,3.23
					c-0.5,0.87-1.24,1.99,0.25,2.73c0.99,0.5,1.49-0.62,1.99-1.24c3.73-4.85,7.33-9.69,11.18-14.29
					c4.72-5.84,9.57-11.43,14.41-17.27c6.71-8.08,11.68-16.9,14.04-27.21c1.49-6.59,1.24-13.05,0.87-19.63
					c-0.12-2.11-0.5-4.22,0.99-6.21c2.11-2.86,5.22-3.6,9.07-1.99c3.85,1.62,7.33,3.73,10.44,6.46c4.85,4.47,9.82,8.82,13.79,14.17
					c6.71,9.2,8.45,19.88,8.7,30.82c0.5,28.33-9.69,52.44-29.08,72.94c-6.21,6.59-13.54,11.56-20.63,16.77
					c-4.1,3.11-7.95,6.46-10.81,10.93c1.62,1.24,2.86,0.37,3.98-0.25c14.17-8.08,27.34-17.27,38.4-29.45
					c8.7-9.57,15.41-20.38,19.51-32.8c0.75-2.36,1.62-4.72,2.24-7.08c0.5-1.99,1.62-3.35,3.48-3.6c2.24-0.25,3.6,1.37,4.35,3.23
					c2.11,5.59,4.35,11.31,5.84,17.15c7.21,29.08,9.69,58.53,7.7,88.35c-1.12,17.02-3.6,33.92-10.06,49.95
					c-2.36,5.72-5.47,10.81-10.19,14.79c-9.2,7.83-18.51,15.78-29.82,20.5c-9.69,4.1-20.01,7.08-30.69,6.09
					c-15.16-1.24-27.46-8.2-36.28-20.88c-0.87-1.37-0.62-3.23-2.73-4.47c-1.24,2.86-2.61,5.59-3.85,8.45
					c-4.97,11.06-12.43,19.88-23.11,25.85c-8.08,4.6-17.15,5.96-26.22,5.59c-18.76-0.75-36.16-5.96-51.44-17.02
					c-10.19-7.46-18.14-17.15-24.48-28.08c-10.31-17.89-18.64-36.66-22.86-57.16c-2.61-12.55-3.48-25.35-2.86-38.27
					c0-0.37,0.12-0.75,0.12-1.12c0.62-4.85,3.23-5.96,7.33-3.23c4.35,2.86,8.57,5.84,12.92,8.7c9.69,6.21,20.25,10.44,31.44,13.17
					c1.37,0.62,2.61,1.49,4.22,0.99h0.12c2.24,0.99,4.35,1.74,7.7,0.75C69.55,302.05,69.05,301.06,67.81,301.06z M14.62,287.76
					c-0.75,0.99-0.62,1.86-0.62,2.73c0.12,10.19,1.99,20.13,3.85,30.07c2.49,13.17,7.46,25.6,13.05,37.77
					c6.34,13.92,14.29,26.72,25.35,37.4c3.85,3.73,8.08,6.96,12.8,9.57c15.16,7.95,31.19,11.8,48.46,10.44
					c6.09-0.5,12.18-2.11,17.02-5.59c8.82-6.34,15.53-14.54,19.26-24.98c1.12-3.23,2.98-6.09,5.72-8.33
					c3.23-2.73,7.21-2.11,8.7,1.74c2.11,5.72,5.84,10.06,10.44,13.79c5.96,4.72,12.43,8.57,20.01,9.32
					c11.31,1.12,21.87-1.86,32.18-6.21c5.96-2.49,10.81-6.83,16.15-10.44c9.82-6.46,16.77-14.79,20.38-26.47
					c3.23-10.69,5.22-21.37,6.09-32.43c0.99-13.05,2.49-26.09,1.24-39.39c-1.12-12.05-1.49-24.11-3.6-36.03
					c-1.49-8.45-2.86-17.02-5.96-25.1c-0.5,0.25-0.87,0.37-1.12,0.62c-0.62,1.12-1.24,2.24-1.74,3.35
					c-5.09,12.18-12.92,22.49-21.99,31.93c-6.83,7.08-14.66,13.05-22.86,18.27c-6.21,3.98-12.67,7.83-19.63,10.69
					c-3.23,1.24-5.96,1.12-8.45-1.24c-2.36-2.24-2.11-5.09-0.99-7.95c2.11-5.34,6.09-9.2,10.31-12.67
					c10.06-8.2,21.12-15.04,29.2-25.6c7.58-9.82,14.04-20.01,17.64-32.06c2.24-7.46,2.98-15.04,3.73-22.61
					c0.87-10.56,0.12-21.12-5.47-30.57c-3.85-6.46-8.82-12.05-14.91-16.65c-2.49-1.86-4.6-4.35-8.33-4.47c0,0.99-0.12,1.62,0,2.36
					c2.24,11.06-0.12,21.5-4.1,31.81c-3.48,9.07-9.44,16.65-15.78,23.86c-8.7,9.94-17.27,19.88-24.23,31.19
					c-1.62,2.61-3.85,4.85-6.21,6.59c-5.34,3.98-11.43,1.37-11.93-4.72c-0.12-1.62,0.25-3.11,0.87-4.72
					c3.23-8.45,7.58-16.15,13.05-23.24c10.06-13.17,16.15-28.08,19.76-43.99c2.49-11.18-0.99-17.64-10.81-22.99
					c-5.22-2.86-10.69-5.09-16.15-6.96c-7.08-2.36-13.92-5.47-21.12-7.33c-12.18-3.23-24.6-5.72-36.78-8.82
					c-7.21-1.86-14.66-2.73-21.99-3.73c-3.48-0.5-3.98,0.25-5.09,3.73c-0.99,3.35-1.86,6.83-3.23,10.19
					c-5.59,13.17-13.3,25.22-21.25,36.9c-3.23,4.72-6.59,9.32-8.57,14.79c-1.86,5.22-1.37,9.94,2.24,14.54
					c1.86,2.36,3.85,4.72,5.96,6.83c5.59,5.59,11.18,11.06,16.65,16.65c2.98,3.11,5.72,6.34,7.46,10.31
					c1.62,3.98,1.24,7.58-1.49,10.93c-2.73,3.35-5.96,2.24-9.32,1.24c-4.72-1.49-8.82-3.73-12.67-6.71
					c-7.46-5.59-14.66-11.31-21.25-17.89c-3.98-3.98-5.09-3.73-7.7,1.37c-2.73,5.47-4.72,11.18-6.34,16.9
					c-2.61,8.7-1.99,16.77,2.49,24.73c3.23,5.84,7.21,11.06,11.8,15.78c11.93,12.55,25.6,22.61,41.13,30.07
					c1.62,0.75,3.23,1.49,4.47,2.86c1.62,1.62,3.6,3.23,2.73,5.96c-0.87,2.86-3.11,4.6-5.84,4.85c-4.22,0.37-8.57,0.75-12.8-0.5
					c-4.22-1.24-8.57-2.24-12.92-3.48c-11.06-3.23-21.25-8.08-30.69-14.79C19.22,290.25,17.36,288.13,14.62,287.76z M168.83,224.14
					c0.99-1.37,2.73-2.11,2.11-4.47c0-0.12-0.25-0.37-0.37-0.25c-2.11,0.62-2.11,2.36-2.36,3.98
					C167.96,223.52,168.33,223.65,168.83,224.14z"/>
				<g>
					<g>
						<path d="M57.99,305.03c5.09,1.49,10.44,2.11,15.78,1.62c1.12-0.12,1.99-0.87,1.99-1.99c0-0.99-0.99-2.11-1.99-1.99
							c-4.97,0.37-9.94-0.12-14.66-1.49c-1.12-0.37-2.24,0.37-2.49,1.49C56.25,303.67,56.87,304.79,57.99,305.03L57.99,305.03z"/>
					</g>
				</g>
				<g>
					<g>
						<path d="M72.9,298.57c-0.75-0.12-1.37-0.37-2.11-0.62c-0.37-0.12,0.37,0.12,0.12,0c-0.12,0-0.12-0.12-0.25-0.12
							c-0.12-0.12-0.37-0.12-0.5-0.25c-0.37-0.12-0.62-0.37-0.99-0.5c-0.12-0.12-0.25-0.25-0.5-0.25c-0.12,0-0.12-0.12-0.25-0.12
							c-0.25-0.12,0.12,0,0.12,0.12c-0.25-0.25-0.5-0.5-0.87-0.75c-0.25-0.25-0.5-0.5-0.75-0.75c-0.12-0.12-0.5-0.62-0.12-0.12
							c-0.12-0.12-0.25-0.37-0.37-0.5c-0.62-0.87-1.86-1.37-2.73-0.75c-0.87,0.5-1.37,1.86-0.75,2.73c1.99,2.98,5.09,5.09,8.7,5.84
							c0.99,0.25,2.24-0.25,2.49-1.49C74.64,300.06,74.02,298.82,72.9,298.57L72.9,298.57z"/>
					</g>
				</g>
				<g>
					<g>
						<path d="M53.76,304.04c2.61,0.62,5.34,1.37,7.95,1.99c0.37-1.37,0.75-2.61,1.12-3.98c-1.62-0.37-3.11-0.75-4.72-0.99
							c0.25,1.12,0.62,2.24,0.87,3.48c0.12,0,0.12-0.12,0.25-0.12c-0.25,0.12-0.62,0.37-0.87,0.5c-0.12,0,0,0,0.12,0.12
							c0.25,0.12,0.75,0.25,0.99,0.37c0.75,0.25,1.37,0.37,2.11,0.5c1.37,0.37,2.86,0.5,4.35,0.62c2.86,0.25,5.84,0.12,8.7-0.37
							c1.12-0.12,1.74-1.49,1.49-2.49c-0.37-1.12-1.37-1.62-2.49-1.49c-2.86,0.5-5.84,0.5-8.7,0c-1.49-0.25-2.86-0.5-4.22-0.99
							c-1.62-0.5-2.98-0.99-4.47,0.25c-1.12,0.99-0.5,3.11,0.87,3.48c1.62,0.37,3.11,0.75,4.72,0.99c2.61,0.5,3.6-3.23,1.12-3.98
							c-2.61-0.62-5.34-1.37-7.95-1.99C52.27,299.44,51.28,303.42,53.76,304.04L53.76,304.04z"/>
					</g>
				</g>
				<path class="st0" d="M14.62,287.76c2.73,0.37,4.6,2.49,6.59,3.98c9.32,6.71,19.63,11.43,30.69,14.79
					c4.22,1.24,8.57,2.24,12.92,3.48c4.22,1.24,8.57,0.87,12.8,0.5c2.73-0.25,4.97-1.99,5.84-4.85c0.87-2.73-1.12-4.22-2.73-5.96
					c-1.24-1.37-2.86-1.99-4.47-2.86c-15.66-7.46-29.32-17.64-41.13-30.07c-4.6-4.72-8.57-9.94-11.8-15.78
					c-4.47-7.95-4.97-16.15-2.49-24.73c1.74-5.84,3.73-11.56,6.34-16.9c2.61-5.09,3.73-5.47,7.7-1.37
					c6.59,6.59,13.79,12.3,21.25,17.89c3.85,2.98,8.08,5.22,12.67,6.71c3.35,0.99,6.46,1.99,9.32-1.24
					c2.86-3.35,3.11-7.08,1.49-10.93c-1.62-3.98-4.47-7.33-7.46-10.31c-5.47-5.59-11.06-11.18-16.65-16.65
					c-2.11-2.11-4.1-4.47-5.96-6.83c-3.6-4.47-4.1-9.2-2.24-14.54c1.99-5.47,5.34-10.06,8.57-14.79
					c7.95-11.8,15.78-23.73,21.25-36.9c1.37-3.23,2.24-6.71,3.23-10.19c1.12-3.6,1.62-4.22,5.09-3.73
					c7.33,0.87,14.79,1.86,21.99,3.73c12.18,3.11,24.6,5.59,36.78,8.82c7.21,1.99,14.04,4.97,21.12,7.33
					c5.59,1.86,11.06,4.1,16.15,6.96c9.82,5.34,13.3,11.8,10.81,22.99c-3.6,15.9-9.69,30.82-19.76,43.99
					c-5.47,7.08-9.82,14.79-13.05,23.24c-0.62,1.49-0.99,3.11-0.87,4.72c0.5,6.09,6.46,8.7,11.93,4.72c2.49-1.74,4.6-3.98,6.21-6.59
					c6.96-11.18,15.53-21.25,24.23-31.19c6.34-7.21,12.3-14.79,15.78-23.86c3.98-10.31,6.34-20.75,4.1-31.81
					c-0.12-0.62,0-1.37,0-2.36c3.73,0.12,5.84,2.61,8.33,4.47c5.96,4.6,11.06,10.19,14.91,16.65c5.59,9.44,6.34,20.01,5.47,30.57
					c-0.62,7.58-1.49,15.16-3.73,22.61c-3.6,12.05-10.19,22.24-17.64,32.06c-8.08,10.56-19.14,17.4-29.2,25.6
					c-4.22,3.48-8.2,7.33-10.31,12.67c-1.12,2.86-1.37,5.72,0.99,7.95c2.36,2.36,5.22,2.49,8.45,1.24
					c6.96-2.73,13.42-6.59,19.63-10.69c8.2-5.34,16.03-11.18,22.86-18.27c9.07-9.44,16.9-19.76,21.99-31.93
					c0.5-1.12,1.12-2.24,1.74-3.35c0.12-0.25,0.62-0.37,1.12-0.62c3.11,8.2,4.47,16.65,5.96,25.1c2.11,11.93,2.36,23.98,3.6,36.03
					c1.24,13.3-0.25,26.22-1.24,39.39c-0.87,11.06-2.86,21.74-6.09,32.43c-3.48,11.56-10.44,19.88-20.38,26.47
					c-5.34,3.48-10.19,7.83-16.15,10.44c-10.31,4.35-20.88,7.33-32.18,6.21c-7.7-0.75-14.17-4.6-20.01-9.32
					c-4.6-3.73-8.33-8.08-10.44-13.79c-1.49-3.85-5.47-4.47-8.7-1.74c-2.61,2.24-4.6,5.09-5.72,8.33
					c-3.73,10.44-10.44,18.64-19.26,24.98c-4.85,3.6-10.93,5.09-17.02,5.59c-17.15,1.37-33.18-2.49-48.46-10.44
					c-4.85-2.49-8.95-5.84-12.8-9.57c-11.06-10.69-19.01-23.48-25.35-37.4c-5.47-12.18-10.44-24.6-13.05-37.77
					c-1.86-9.94-3.73-19.88-3.85-30.07C14,289.63,13.88,288.76,14.62,287.76z M116.89,343.8c0.62-1.24,1.74-2.24,2.11-3.6
					c1.49-4.97-0.12-9.44-4.22-11.93c-4.35-2.61-9.07-1.99-12.43,1.74c-3.23,3.6-3.35,7.95-0.25,12.43c0.5,0.75,0.75,1.62,1.12,2.36
					c-0.5,0.5-0.99,0.99-1.62,1.37c-2.24,1.49-3.85,3.23-3.23,6.09c0.75,3.23,3.35,3.98,6.09,4.22c4.35,0.5,8.45-0.37,12.43-2.36
					c2.36-1.24,4.22-2.73,4.1-5.72C121.11,345.91,119.12,344.67,116.89,343.8z M195.05,331.62c0-2.11,1.24-3.98,1.24-6.21
					c0-6.21-3.98-10.44-10.19-10.44c-5.96,0-10.44,4.47-10.31,10.56c0.12,5.22,3.48,7.95,7.7,9.94c-3.11,4.6-2.73,7.33,1.12,9.07
					c4.47,1.99,14.04,0.25,17.52-3.23c3.23-3.23,2.49-7.21-1.86-8.7C198.52,332,196.78,332,195.05,331.62z M149.94,351.38
					c5.09,0.25,9.32-2.98,12.18-8.2c1.49-2.61,0.37-6.71-1.99-7.46c-2.98-0.87-3.85,1.37-4.85,3.6c-2.24,4.72-6.09,5.84-10.44,2.86
					c-0.99-0.62-1.86-1.74-2.86-2.36c-1.74-0.87-3.6-0.87-4.97,0.62c-1.37,1.62-0.99,3.35,0.25,4.85
					C140.37,349.02,143.98,351.38,149.94,351.38z"/>
				<path d="M183.49,335.35c-4.22-1.99-7.58-4.72-7.7-9.94c-0.12-5.96,4.35-10.56,10.31-10.56c6.21,0,10.31,4.22,10.19,10.44
					c0,2.24-1.24,4.1-1.24,6.21C191.57,333.99,188.09,336.35,183.49,335.35z"/>
				<path d="M103.22,344.92c-0.37-0.75-0.62-1.62-1.12-2.36c-3.11-4.47-3.11-8.82,0.25-12.43c3.35-3.73,8.08-4.47,12.43-1.74
					c4.1,2.49,5.72,6.96,4.22,11.93c-0.37,1.49-1.62,2.36-2.11,3.6C112.54,347.41,107.94,346.66,103.22,344.92z"/>
				<path class="st1" d="M183.49,335.35c4.6,0.99,8.08-1.37,11.56-3.73c1.74,0.25,3.6,0.25,5.22,0.87c4.35,1.49,5.22,5.47,1.86,8.7
					c-3.6,3.48-13.05,5.22-17.52,3.23C180.76,342.68,180.38,340.07,183.49,335.35z"/>
				<path d="M149.94,351.38c-5.96,0-9.57-2.36-12.67-5.84c-1.37-1.49-1.62-3.23-0.25-4.85s3.23-1.49,4.97-0.62
					c1.12,0.5,1.86,1.62,2.86,2.36c4.35,2.86,8.33,1.86,10.44-2.86c0.99-2.24,1.86-4.47,4.85-3.6c2.36,0.62,3.35,4.72,1.99,7.46
					C159.26,348.4,155.03,351.63,149.94,351.38z"/>
				<path class="st2" d="M103.22,344.92c4.72,1.74,9.32,2.49,13.67-1.12c2.24,0.87,4.22,1.99,4.22,4.85c0,2.98-1.86,4.47-4.1,5.72
					c-3.85,2.11-8.08,2.86-12.43,2.36c-2.73-0.25-5.34-1.12-6.09-4.22c-0.75-2.98,0.99-4.72,3.23-6.09
					C102.23,345.91,102.72,345.42,103.22,344.92z"/>
				
					<ellipse transform="matrix(0.9801 -0.1986 0.1986 0.9801 -67.3704 28.8342)" class="st2" cx="110.06" cy="350.27" rx="12.8" ry="7.33"/>
				<circle cx="109.68" cy="336.72" r="10.56"/>
				
					<ellipse transform="matrix(0.9835 -0.1811 0.1811 0.9835 -58.0466 40.1916)" class="st2" cx="191.08" cy="337.98" rx="12.8" ry="7.33"/>
				<circle cx="186.35" cy="325.29" r="10.56"/>
			</g>
		</g>
	</g>
</g>
<g id="Layer_4">
	<g>
		<g>
			<g>
				<path d="M297.93,194.94c-0.5-6.71-1.12-13.3-1.62-19.88c-0.12-1.86-1.24-2.73-2.98-3.11c-8.7-1.99-16.9-0.87-24.23,3.98
					c-2.73,1.74-4.47,1.24-6.59-0.5c-7.95-6.83-17.15-10.19-27.71-8.95c-1.99,0.25-3.48-0.62-4.35-2.36s0-3.23,1.37-4.22
					c2.73-2.24,5.72-4.35,8.57-6.59c19.14-14.54,36.16-31.06,49.45-51.19c2.24-3.35,4.72-3.6,7.46-0.62
					c1.86,1.99,3.35,4.22,5.09,6.21c9.44,10.31,21.12,17.64,32.68,25.22c5.84,3.85,11.93,7.21,18.39,9.94
					c1.49,0.62,2.98,1.37,4.35,2.24c1.24,0.87,1.86,2.24,1.62,3.73c-0.25,1.62-1.49,2.49-2.98,2.61
					c-9.44,0.99-15.16,7.46-20.63,14.17c-2.86,3.48-2.73,3.48-6.96,2.11c-8.08-2.73-15.9-1.62-23.48,1.74
					c-1.49,0.62-2.11,1.62-1.86,3.35c0.62,6.83,1.12,13.67,1.49,20.38c0.12,2.49,1.74,2.73,3.6,2.86
					c10.69,0.99,21.37,2.11,32.06,3.73c25.97,3.73,51.57,8.95,76.92,15.78c5.34,1.37,4.35,2.11,7.58-2.98
					c16.03-26.09,31.93-52.19,47.96-78.28c2.73-4.35,5.96-5.84,10.81-4.97c6.09,1.12,10.06,5.34,13.67,9.94
					c1.86,2.49,0.5,5.09-0.99,7.46c-6.46,10.56-12.8,21.12-19.26,31.69c-8.7,14.41-17.4,28.83-26.22,43.12
					c-2.24,3.6-2.24,3.6,1.62,5.09c8.7,3.35,17.27,6.83,25.35,11.68c6.21,3.73,10.06,8.7,11.68,15.9
					c10.19,44.86,0.99,85.36-28.33,120.53c-24.35,29.2-56.29,45.23-94.31,47.84C328,425.31,293.83,413.14,265,386.8
					c-24.11-22.12-38.4-49.83-42.5-82.51c-4.72-37.4,5.09-71.08,27.34-101.27c2.73-3.6,6.71-5.22,11.06-6.21
					c6.34-1.37,12.8-1.74,19.26-1.86C285.75,194.82,291.47,194.94,297.93,194.94z M410.51,235.7c0.75-0.99,1.62-1.86,1.74-3.11
					c-0.75-0.75-1.49-0.87-2.49-1.12c-25.47-5.96-51.07-11.06-76.92-14.91c-7.46-1.12-14.91-1.74-22.37-2.61
					c-2.86-0.37-2.98,1.12-2.24,3.23c0.87,3.23,3.98,2.73,6.09,3.23c29.08,7.95,58.53,14.17,88.35,18.64
					C408.27,239.92,408.27,239.92,410.51,235.7z M483.07,258.44c-6.46,2.98-13.17,3.73-19.63,3.98
					c-13.42,0.62-26.96,0.62-40.38-1.12c-12.43-1.49-24.85-2.98-37.15-4.97c-19.14-3.11-38.02-6.83-56.79-11.43
					c-19.14-4.72-38.02-10.44-56.16-18.27c-6.46-2.73-12.8-5.59-18.27-10.19c-3.35-2.86-3.48-2.86-5.84,0.99
					c-9.82,15.9-16.53,32.8-18.89,51.57c-1.62,13.05-1.86,26.09,0.25,39.02c2.73,17.4,8.95,33.55,18.51,48.34
					c11.43,17.77,26.09,32.18,44.61,42.62c17.64,9.94,36.53,15.53,56.66,17.02c11.31,0.75,22.49-0.37,33.67-2.61
					c15.16-2.98,29.2-8.82,42.25-16.9c13.54-8.45,25.1-19.01,34.67-31.81c8.33-11.18,14.66-23.24,19.14-36.53
					c2.98-9.07,5.59-18.27,6.09-27.71C486.55,286.52,486.93,272.73,483.07,258.44z M256.06,207.12c3.23,4.47,7.83,6.83,12.43,9.2
					c13.79,7.08,28.45,11.68,43.24,16.03c29.82,8.7,60.26,14.91,91.08,19.14c19.63,2.61,39.27,4.47,59.02,3.73
					c4.85-0.25,9.69-0.62,14.29-2.11c1.62-0.5,3.98-0.62,4.22-2.61c0.25-1.62-1.62-2.73-2.73-3.85c-0.99-0.99-2.24-1.74-3.48-2.49
					c-8.45-5.09-17.64-8.82-26.96-12.05c-0.5-0.12-0.99-0.5-1.49-0.5c-0.75,0-1.37,0.37-1.62,1.12c-0.12,0.62,0.25,0.99,0.75,1.24
					c1.49,0.62,2.98,1.12,4.47,1.74c3.6,1.49,7.46,2.49,10.56,4.97c1.99,1.49,3.73,3.11,2.98,5.72c-0.62,2.61-2.86,3.6-5.22,3.98
					c-3.35,0.62-6.83,0.62-10.19,0.5c-20.13-0.5-40.01-3.98-59.77-7.21c-19.88-3.23-39.39-7.58-59.02-12.3
					c-13.42-3.23-26.84-6.59-39.64-11.93c-2.36-0.99-4.6-2.11-6.71-3.35c-1.86-1.24-3.23-2.98-2.73-5.47c0.5-2.36,2.11-3.6,4.47-4.1
					c2.61-0.62,5.22-1.12,7.95-0.99c1.74,0.12,3.6,0,5.34,0.12c0.99,0,1.86,0,1.86-1.24c0-0.87-0.25-1.74-1.37-2.11
					c-0.5-0.12-1.12-0.12-1.62-0.12c-10.56-0.25-21.25-0.75-31.69,0.99C261.65,203.89,258.54,204.63,256.06,207.12z M416.47,240.42
					c3.6,0.75,6.21,1.24,8.82,1.74c2.73,0.5,4.85-0.37,6.46-2.86c1.99-3.11,3.48-6.71,5.59-9.69c5.34-7.46,9.57-15.53,14.29-23.36
					c7.33-12.05,14.79-24.11,21.87-36.28c3.98-6.83,8.2-13.42,12.43-20.13c0.99-1.62,0.75-2.86-0.87-3.48
					c-2.86-1.12-4.97-3.48-7.7-5.47C457.23,174.07,436.97,206.87,416.47,240.42z M284.51,121.38
					c-12.18,14.17-25.47,26.84-40.51,38.4c6.34,1.74,12.43,2.98,17.64,6.34c2.36,1.49,2.98,0.37,3.98-1.37
					c4.1-8.33,8.33-16.65,12.05-25.35C280.04,133.43,282.9,127.59,284.51,121.38z M302.53,163.26c7.7-2.61,14.91-4.85,23.24-4.22
					c-10.81-11.8-17.89-25.97-27.09-38.89C300.29,134.55,300.17,148.84,302.53,163.26z M272.21,166.98
					c6.96-1.74,12.8-2.98,19.01-2.24c3.85,0.5,3.98,0.37,3.73-3.35c-0.87-10.93-1.74-21.74-2.73-32.68
					c-0.12-1.24,0.12-2.73-1.37-3.98C285.75,138.9,279.29,152.45,272.21,166.98z M311.97,203.39c-1.37-0.12-2.24-0.12-3.11-0.12
					c-0.99,0-2.24-0.25-2.49,1.24c-0.25,1.62,0.75,2.24,2.24,2.24c0.5,0,1.12,0,1.62,0.12c27.21,3.23,54.3,7.58,81.02,13.67
					c6.96,1.62,13.92,3.23,21,4.72c1.86,0.37,4.6,2.49,5.22-0.99c0.37-2.24-2.61-1.74-4.1-2.11c-9.94-2.49-19.76-4.97-29.82-7.08
					C359.93,209.48,335.83,205.63,311.97,203.39z M346.02,147.48c-6.09-3.73-12.05-7.21-18.02-10.81
					c-5.96-3.73-11.56-7.83-17.89-12.67c6.34,11.93,13.92,21.62,21.62,31.31c0.99,1.24,1.86,2.24,3.35,0.62
					C338.19,152.45,342.17,150.33,346.02,147.48z M438.22,243.03c3.85,1.49,7.7,1.12,12.8,1.12c-3.48-2.24-6.21-2.98-8.82-3.98
					C439.71,239.43,438.71,240.67,438.22,243.03z M293.21,213.21c1.99,1.74,3.98,1.99,5.72,2.61c0.87,0.25,2.11,0.87,2.36-0.87
					c0.12-1.37-0.62-1.99-1.86-2.11C297.56,212.71,295.57,212.59,293.21,213.21z"/>
				<path class="st3" d="M483.07,258.44c3.85,14.29,3.48,28.21,2.61,41.87c-0.62,9.44-3.11,18.64-6.09,27.71
					c-4.35,13.3-10.69,25.35-19.14,36.53c-9.57,12.8-21.12,23.36-34.67,31.81c-13.05,8.08-27.09,13.92-42.25,16.9
					c-11.18,2.24-22.37,3.35-33.67,2.61c-20.13-1.37-39.02-6.96-56.66-17.02c-18.51-10.44-33.18-24.85-44.61-42.62
					c-9.57-14.79-15.78-30.94-18.51-48.34c-1.99-12.92-1.86-25.97-0.25-39.02c2.36-18.64,9.07-35.66,18.89-51.57
					c2.36-3.85,2.49-3.73,5.84-0.99c5.47,4.6,11.8,7.46,18.27,10.19c18.14,7.83,37.03,13.54,56.16,18.27
					c18.76,4.6,37.77,8.33,56.79,11.43c12.43,1.99,24.73,3.48,37.15,4.97c13.42,1.62,26.84,1.74,40.38,1.12
					C469.9,262.17,476.61,261.42,483.07,258.44z M422.31,350.64c0-2.24-0.25-3.6-0.62-4.97c-3.23-13.3-20.25-22.24-35.79-13.42
					c-3.35,1.86-6.09,4.47-8.57,7.21c-1.49,1.62-1.99,3.48-1.12,5.47c0.87,1.99,2.73,2.11,4.6,1.49c0.62-0.25,1.49-0.75,1.99-0.25
					c3.35,2.73,5.47,0.25,7.83-1.74c0.62-0.62,1.37-1.24,2.11-1.62c7.83-4.97,13.92-2.73,16.77,6.09c0.5,1.37,0.87,3.11,2.49,3.23
					c2.24,0.12,3.98,0.99,5.72,2.49c1.62,1.37,3.98,0.25,4.47-1.99C422.31,351.75,422.31,350.76,422.31,350.64z M298.55,318.7
					c6.21-0.12,8.57,1.62,10.19,7.7c0.62,2.36,1.62,3.98,4.1,4.22c1.12,0.12,1.99,0.62,2.98,1.12c3.98,2.11,6.46,0.75,5.84-3.73
					c-0.87-5.96-2.98-11.43-8.08-15.28c-6.96-5.47-14.79-6.96-23.36-4.47c-5.84,1.74-10.31,5.72-14.17,10.31
					c-1.24,1.49-1.37,3.35-0.37,5.09c0.99,1.86,2.61,1.62,4.22,0.87c0.87-0.37,1.74-0.37,2.61,0.12c2.73,1.49,4.6,0,6.71-1.62
					C292.09,320.69,294.95,318.33,298.55,318.7z M290.97,343.55c2.61-0.12,4.97,0.25,7.21-0.75c4.6-1.86,5.22-5.47,1.49-8.57
					c-1.49-1.24-3.35-2.24-5.22-2.73c-8.08-2.49-16.28-4.22-24.85-4.1c-1.99,0-3.98,0.5-5.72,1.49c-2.98,1.74-3.35,4.72-0.87,7.21
					c1.62,1.74,3.85,2.61,6.09,3.35C276.31,341.81,283.64,343.18,290.97,343.55z M399.45,355.36c-0.99,0-3.23,0-5.22,0.37
					c-2.24,0.37-4.1,1.62-4.72,3.98c-0.62,2.49,0.87,4.1,2.86,5.34c0.99,0.62,2.24,1.24,3.35,1.74c8.33,3.11,16.9,4.6,25.72,4.72
					c1.86,0,3.6-0.12,5.22-0.87c3.6-1.62,4.22-4.85,1.62-7.83c-1.49-1.62-3.48-2.49-5.59-3.11
					C415.6,357.1,408.27,355.73,399.45,355.36z M255.81,293.97c4.6,0.12,7.7-2.73,7.7-7.08c0-3.73-3.35-7.7-6.71-7.95
					c-3.85-0.25-8.2,3.35-8.33,6.83C248.35,290.25,251.58,293.85,255.81,293.97z M347.26,357.59c3.98-0.12,10.56-7.58,10.06-11.18
					c-0.25-1.37-0.87-2.36-2.36-2.61c-1.49-0.37-2.73,0.12-3.73,1.37c-1.12,1.62-1.74,4.22-3.6,4.35c-2.73,0.12-1.99-3.23-3.23-4.97
					c-0.87-1.24-1.74-2.49-3.35-1.86c-1.74,0.62-3.11,1.86-2.49,4.1c0.87,3.35,2.24,6.46,4.6,8.95
					C344.28,356.97,345.64,357.72,347.26,357.59z M266.62,267.01c-4.22-0.12-7.33,2.24-7.46,5.84c-0.12,3.85,2.61,6.96,6.34,7.08
					c4.22,0.25,7.46-2.11,7.7-5.59C273.45,270.37,270.59,267.14,266.62,267.01z M243.01,270.74c0,2.98,3.98,6.96,7.08,6.96
					s5.96-3.48,5.84-7.21c-0.12-3.73-2.98-6.83-6.21-6.71C245.99,263.9,243.01,266.89,243.01,270.74z"/>
				<path class="st4" d="M256.06,207.12c2.61-2.49,5.59-3.35,8.82-3.85c10.56-1.86,21.12-1.24,31.69-0.99c0.5,0,1.12,0,1.62,0.12
					c0.99,0.25,1.37,1.12,1.37,2.11c0,1.24-0.87,1.24-1.86,1.24c-1.74-0.12-3.6-0.12-5.34-0.12c-2.73-0.12-5.34,0.37-7.95,0.99
					c-2.24,0.5-3.98,1.74-4.47,4.1c-0.5,2.49,0.87,4.22,2.73,5.47c2.11,1.37,4.35,2.49,6.71,3.35c12.8,5.22,26.22,8.7,39.64,11.93
					c19.51,4.72,39.14,9.07,59.02,12.3c19.88,3.23,39.64,6.71,59.77,7.21c3.35,0.12,6.83,0.25,10.19-0.5
					c2.36-0.5,4.6-1.37,5.22-3.98c0.62-2.73-0.99-4.22-2.98-5.72c-3.23-2.49-6.96-3.6-10.56-4.97c-1.49-0.62-2.98-1.12-4.47-1.74
					c-0.5-0.25-0.87-0.62-0.75-1.24c0.25-0.75,0.87-1.12,1.62-1.12c0.5,0,0.99,0.37,1.49,0.5c9.32,3.23,18.51,6.96,26.96,12.05
					c1.24,0.75,2.49,1.49,3.48,2.49c1.12,1.12,2.86,2.24,2.73,3.85c-0.25,2.11-2.61,2.11-4.22,2.61c-4.72,1.49-9.44,1.86-14.29,2.11
					c-19.76,0.75-39.51-0.99-59.02-3.73c-30.82-4.1-61.13-10.44-91.08-19.14c-14.79-4.35-29.45-8.95-43.24-16.03
					C263.88,213.95,259.29,211.59,256.06,207.12z"/>
				<path class="st5" d="M416.47,240.42c20.5-33.43,40.63-66.35,61.01-99.53c2.73,1.99,4.85,4.22,7.7,5.47
					c1.62,0.62,1.86,1.86,0.87,3.48c-4.22,6.71-8.45,13.3-12.43,20.13c-7.08,12.18-14.54,24.23-21.87,36.28
					c-4.72,7.83-8.95,15.9-14.29,23.36c-2.24,3.11-3.6,6.59-5.59,9.69c-1.62,2.49-3.73,3.23-6.46,2.86
					C422.68,241.66,420.07,241.04,416.47,240.42z"/>
				<path class="st6" d="M284.51,121.38c-1.62,6.21-4.47,12.05-6.96,18.02c-3.6,8.57-7.83,16.9-12.05,25.35
					c-0.87,1.86-1.49,2.98-3.98,1.37c-5.22-3.23-11.18-4.47-17.64-6.34C258.91,148.1,272.21,135.42,284.51,121.38z"/>
				<path class="st7" d="M308.12,217.18c-0.75-2.11-0.62-3.6,2.24-3.23c7.46,0.87,14.91,1.49,22.37,2.61
					c25.85,3.85,51.44,8.95,76.92,14.91c0.87,0.25,1.74,0.37,2.49,1.12c-0.12,1.24-0.99,2.24-1.74,3.11
					c-1.24-0.37-2.36-0.87-3.6-1.12c-7.58-1.12-15.16-2.49-22.74-3.11c-13.54-1.24-26.47-5.22-39.89-7.33
					C332.23,222.28,320.17,219.54,308.12,217.18z"/>
				<path class="st8" d="M302.53,163.26c-2.36-14.41-2.24-28.7-3.85-43.12c9.2,12.8,16.28,27.09,27.09,38.89
					C317.44,158.41,310.11,160.65,302.53,163.26z"/>
				<path class="st9" d="M272.21,166.98c7.21-14.41,13.54-27.96,18.64-42.37c1.49,1.24,1.24,2.73,1.37,3.98
					c0.99,10.93,1.86,21.74,2.73,32.68c0.25,3.73,0.12,3.85-3.73,3.35C285.01,163.88,279.17,165.12,272.21,166.98z"/>
				<path class="st10" d="M311.97,203.39c23.86,2.36,47.96,6.09,71.7,11.31c9.94,2.24,19.88,4.6,29.82,7.08
					c1.49,0.37,4.47,0,4.1,2.11c-0.5,3.48-3.35,1.37-5.22,0.99c-6.96-1.49-13.92-3.11-21-4.72c-26.84-5.96-53.8-10.31-81.02-13.67
					c-0.5-0.12-1.12-0.12-1.62-0.12c-1.49,0-2.49-0.5-2.24-2.24c0.12-1.62,1.37-1.24,2.49-1.24
					C309.73,203.14,310.73,203.27,311.97,203.39z"/>
				<path class="st11" d="M308.12,217.18c12.05,2.36,23.98,5.09,36.16,7.08c13.42,2.11,26.34,6.09,39.89,7.33
					c7.58,0.62,15.16,1.99,22.74,3.11c1.24,0.12,2.36,0.75,3.6,1.12c-2.24,4.1-2.24,4.1-7.83,3.35
					c-29.82-4.6-59.27-10.69-88.35-18.64C312.1,219.79,308.99,220.41,308.12,217.18z"/>
				<path class="st6" d="M346.02,147.48c-3.85,2.86-7.83,4.97-10.81,8.33c-1.49,1.62-2.36,0.62-3.35-0.62
					c-7.83-9.57-15.28-19.38-21.62-31.31c6.34,4.85,11.93,9.07,17.89,12.67C333.84,140.39,339.93,143.87,346.02,147.48z"/>
				<path class="st12" d="M438.22,243.03c0.5-2.49,1.49-3.73,3.98-2.73c2.61,0.99,5.34,1.74,8.82,3.98
					C445.92,244.15,442.07,244.52,438.22,243.03z"/>
				<path class="st12" d="M293.21,213.21c2.36-0.62,4.22-0.5,6.21-0.37c1.12,0.12,1.99,0.75,1.86,2.11
					c-0.12,1.74-1.37,1.12-2.36,0.87C297.18,215.2,295.2,214.95,293.21,213.21z"/>
				<path d="M422.31,350.64c0,0.12,0.12,1.12-0.12,1.86c-0.5,2.11-2.86,3.23-4.47,1.99c-1.74-1.37-3.48-2.24-5.72-2.49
					c-1.62-0.12-1.99-1.74-2.49-3.23c-2.73-8.82-8.95-11.18-16.77-6.09c-0.75,0.5-1.49,1.12-2.11,1.62
					c-2.24,1.99-4.35,4.6-7.83,1.74c-0.62-0.5-1.37,0-1.99,0.25c-1.86,0.62-3.73,0.62-4.6-1.49c-0.87-1.99-0.37-3.85,1.12-5.47
					c2.61-2.86,5.34-5.34,8.57-7.21c15.41-8.82,32.56,0,35.79,13.42C421.94,347.03,422.31,348.4,422.31,350.64z"/>
				<path d="M298.55,318.7c-3.73-0.37-6.59,1.99-9.32,4.22c-2.11,1.74-3.98,3.23-6.71,1.62c-0.87-0.5-1.74-0.5-2.61-0.12
					c-1.62,0.75-3.23,0.87-4.22-0.87c-0.87-1.74-0.87-3.6,0.37-5.09c3.85-4.6,8.33-8.57,14.17-10.31
					c8.45-2.61,16.28-0.99,23.36,4.47c4.97,3.85,7.21,9.32,8.08,15.28c0.62,4.47-1.86,5.84-5.84,3.73c-0.99-0.5-1.86-0.99-2.98-1.12
					c-2.49-0.25-3.48-1.86-4.1-4.22C307.25,320.32,304.76,318.58,298.55,318.7z"/>
				<path class="st13" d="M290.97,343.55c-7.33-0.37-14.66-1.74-21.87-4.1c-2.24-0.75-4.47-1.62-6.09-3.35
					c-2.36-2.61-1.99-5.47,0.87-7.21c1.74-0.99,3.6-1.49,5.72-1.49c8.57-0.12,16.77,1.62,24.85,4.1c1.86,0.62,3.6,1.49,5.22,2.73
					c3.85,3.11,3.11,6.71-1.49,8.57C295.94,343.8,293.58,343.43,290.97,343.55z"/>
				<path class="st14" d="M399.45,355.36c8.7,0.37,16.15,1.74,23.24,4.22c1.99,0.75,4.1,1.49,5.59,3.11
					c2.61,2.98,1.99,6.21-1.62,7.83c-1.62,0.75-3.48,0.99-5.22,0.87c-8.82-0.12-17.52-1.62-25.72-4.72
					c-1.12-0.5-2.36-0.99-3.35-1.74c-1.86-1.24-3.35-2.86-2.86-5.34c0.62-2.24,2.49-3.6,4.72-3.98
					C396.34,355.36,398.45,355.48,399.45,355.36z"/>
				<path class="st15" d="M255.81,293.97c-4.22-0.12-7.46-3.73-7.33-8.2c0.12-3.48,4.47-7.08,8.33-6.83
					c3.35,0.25,6.71,4.22,6.71,7.95C263.51,291.24,260.28,294.1,255.81,293.97z"/>
				<path d="M347.26,357.59c-1.62,0.12-2.86-0.62-4.1-1.86c-2.36-2.61-3.73-5.72-4.6-8.95c-0.62-2.24,0.75-3.48,2.49-4.1
					c1.62-0.62,2.49,0.62,3.35,1.86c1.24,1.62,0.37,4.97,3.23,4.97c1.86-0.12,2.49-2.73,3.6-4.35c0.87-1.37,2.24-1.74,3.73-1.37
					c1.37,0.37,2.11,1.24,2.36,2.61C357.82,350.01,351.11,357.47,347.26,357.59z"/>
				<path class="st15" d="M266.62,267.01c3.98,0.12,6.83,3.35,6.59,7.33c-0.25,3.48-3.48,5.84-7.7,5.59
					c-3.73-0.25-6.46-3.23-6.34-7.08C259.29,269.25,262.39,266.76,266.62,267.01z"/>
				<path class="st15" d="M243.01,270.74c0-3.73,2.86-6.83,6.71-6.96c3.23-0.12,6.09,2.86,6.21,6.71c0.12,3.6-2.73,7.08-5.84,7.21
					C247.11,277.7,243.01,273.72,243.01,270.74z"/>
			</g>
		</g>
	</g>
</g>
</svg>
