<?xml version="1.0" encoding="utf-8"?>
<!-- Generator: Adobe Illustrator 26.2.1, SVG Export Plug-In . SVG Version: 6.00 Build 0)  -->
<svg version="1.1" id="Layer_1" xmlns="http://www.w3.org/2000/svg" xmlns:xlink="http://www.w3.org/1999/xlink" x="0px" y="0px"
	 viewBox="0 0 500 500" style="enable-background:new 0 0 500 500;" xml:space="preserve">
<style type="text/css">
	.st0{fill:#FFFFFF;}
	.st1{fill:#EEEEEE;}
	.st2{fill:#EDBABA;}
	.st3{fill:#FEE2E2;}
	.st4{fill:#E2A4A4;}
</style>
<g id="Layer_1_00000101816925450364579460000016691051822135193745_">
	<g>
		<g>
			<g>
				<path d="M181.01,132.65c-0.33-2.89-1.56-5.34-2.45-7.89c-1.45-4.56-1.89-9.23-1.56-14.01c0.33-6.89,2.33-13.34,5.78-19.23
					c7.45-12.79,17.23-23.57,30.8-30.24c2.11-1.11,4.22-2.11,6.67-2.11c3.89-0.11,6.12,2.11,5.67,6c-0.33,2.78-1.67,5.23-2.67,7.78
					c-1,2.45-2.11,4.78-3.11,7.23c-2.33,5.78-2.89,11.79-1.33,17.9c1.56-0.44,2.22-1.78,3.11-2.78c4.89-5.34,10.23-9.78,16.57-13.34
					c3.67-2,7.45-3.45,11.56-4.11c1.78-0.33,3.45-0.33,5.23-0.11c4.22,0.67,6.34,3,6.78,7.23c0.22,2.89-0.56,5.67-1.56,8.34
					c-1.11,2.78-2.67,5.34-4.34,7.89c-6.67,10.23-9.23,21.46-8.23,33.58c0.33,4.34,0.67,8.67,1,13.01c0.44,7.67,0,15.23-4.67,22.01
					c1.11,1,2.45,0.78,3.56,0.89c14.23,0.67,27.02,5.67,38.69,13.56c6.56,4.45,11.45,10.45,15.45,17.12
					c8.12,13.68,13.01,28.57,14.12,44.47c0.11,0.89,0.11,1.78,0.22,2.56c0,0.11,0.22,0.11,0.56,0.44c1.22-0.44,1.89-1.56,2.89-2.45
					c3-2.89,5.78-5.89,9.45-7.89c3.67-2.11,7.45-3.34,11.79-3c2.89,0.22,5.23,1.56,7,3.78c3.45,4.22,4.56,9.12,4.67,14.34
					c0.22,9.67-2.56,18.68-6.78,27.35c-6.34,12.9-15.68,23.01-28.69,29.46c-4.45,2.22-9.01,3.67-14.01,3.11
					c-1.22-0.11-1.89,0.33-2.56,1.11c-1,1.11-2,2.22-3,3.34c-4.78,5.56-11.01,8.67-17.9,10.12c-10.34,2.33-20.68,2.67-31.24,1.22
					c-8.67-1.11-17.12-3.22-25.24-6.56c-1.89-0.78-3.56-1.78-5.34-2.78c-2.45-1.45-4.11-3.34-3.78-6.34c0.11-1.56-0.44-2-1.89-2.11
					c-2.78,0-5.45-0.67-8.01-1.67c-1.67-0.67-3.11-1.56-4.45-2.78c-3.34-3.11-3.45-5.89-0.33-9.34c0.33-0.33,0.67-0.67,0.78-1.56
					c-4.45-1-8.89-1.89-13.12-3.67c-1.45-0.67-2,0.67-2.67,1.45c-3.22,3.78-6.34,7.67-9.56,11.45c-3.34,4-7.78,5.78-12.9,5.89
					c-6,0.11-11.67-1.33-16.79-4.34c-4.34-2.56-5.34-5.34-3.56-10.12c0.44-1,0.78-2.11,1.22-3.11c0.11-0.22,0-0.44-0.11-1
					c-2-0.11-4.11-0.11-6.12-0.22c-2.67-0.11-5.23-0.67-7.56-1.78c-4.11-1.89-5.67-6.12-3.78-10.34c0.67-1.56,1.67-2.78,2.89-3.89
					c7.23-7.45,12.12-16.34,15.79-26.02c1.22-3.22,1.78-6.34,0.89-9.78c-2.45-9.01-0.89-17.79,1.45-26.57
					c1-3.67,2.11-7.23,3.34-10.78c0.56-1.67,0.44-2.89-1-4.22c-6.12-5.34-10.78-11.79-15.01-18.57c-3.34-5.56-5.11-11.67-4.22-18.23
					c0.56-4.78,2.67-8.78,5.78-12.34c4.11-4.67,9.23-7.89,14.9-10.45c9.45-4.11,19.35-6.56,29.8-6.45
					C179.9,132.87,180.45,132.76,181.01,132.65z M306.98,307.43c3-0.33,5.45-1.33,7.78-2.56c11.34-5.67,19.57-14.45,25.24-25.68
					c4.22-8.34,7.23-17.01,6.67-26.57c-0.11-2.78-0.67-5.45-2-7.89c-1.78-3.11-3.56-4-7.12-3.34c-3.34,0.56-6.12,2.11-8.67,4.22
					c-3.78,3.11-7.23,6.56-10.56,10.01c-1.33,1.45-2.11,3-2.22,5c-0.22,4.34-1.45,8.67-2.56,12.79c-1.11,4.11-2.67,8.01-4.11,12.01
					c-0.56,1.56-1.45,2.67-3.34,2.22c-1.56-0.44-2.11-1.78-1.56-4c0.33-1.22,0.78-2.33,1.22-3.56c2-6.23,4-12.34,4.56-18.9
					c1.56-20.79-3.11-40.14-14.01-57.93c-2.78-4.56-6.12-8.89-10.45-12.23c-11.34-8.78-24.24-13.79-38.58-14.56
					c-3.56-0.22-7.23-0.22-10.78-0.33c-1.45,0-2.78-0.56-3.34-2c-0.56-1.45,0.56-2.22,1.56-3.11c0.22-0.11,0.44-0.33,0.56-0.44
					c5.11-3.89,7.34-9.23,7.78-15.57c0.44-6.23-0.44-12.45-0.89-18.68c-0.78-10.67,0.33-20.9,4.89-30.69
					c1.89-4.11,4.45-7.78,6.67-11.67c1.33-2.45,2.45-4.89,2.56-7.78c0.11-2.22-0.33-2.56-2.56-2.78c-2-0.22-4,0.22-5.89,0.89
					c-11.67,4-20.12,11.79-26.68,21.79c-5.23,8.01-8.34,17.01-9.45,26.57c-0.33,2.89-1.45,4-3.22,3.78c-1.78-0.22-2.22-1.45-2-4.56
					c0.78-8.45,3-16.46,6.89-23.9c1.11-2.11,1-3.89,0.44-6c-2-6.78-2.33-13.79-0.22-20.68c1-3.22,2.45-6.34,3.67-9.34
					c0.89-2.11,2.22-4.11,2.45-6.67c-0.56,0-1,0-1.22,0.11c-0.78,0.33-1.56,0.67-2.33,1.11c-12.45,6.34-21.57,16.12-28.13,28.13
					c-5.45,9.78-6.78,20.24-3,31.13c1,2.89,2.11,5.89,3.22,8.78c1,2.67-0.11,4.11-2.89,4.11c-1.67,0-3.22-0.44-4.89-0.44
					c-12.12,0-23.35,3.45-33.91,9.34c-3.11,1.67-5.67,4.11-7.89,6.89c-3,3.67-4.11,7.89-3.67,12.56c0.44,4.22,1.89,8.01,4.22,11.45
					c4.34,6.56,9.01,12.9,15.23,17.9c1.78,1.45,2,2.78,1.22,4.89c-2.45,7.23-4.34,14.56-5.56,22.13
					c-1.33,7.89-0.44,15.34,2.56,22.79c1.45,3.45,2.56,7,3.67,10.56c3.56,11.01,2.56,21.35-3.78,31.13
					c-2.11,3.22-3.67,6.78-5.23,10.34c-0.78,1.67-0.33,2.78,1.33,3.56c3.34,1.67,6.89,2.89,10.67,3.22c5.23,0.44,9.56-1,12.9-5.23
					c3.34-4.22,7-8.12,10.45-12.23c2-2.22,2.78-2.56,5.45-1.33c4,1.78,8.23,2.89,12.45,3.89c5.78,1.45,11.67,1.56,17.79,0.22
					c-1.22-2.89-2.22-5.67-2.56-8.45c-1.11-8.23,0.67-16.01,4.34-23.24c7.34-14.68,19.68-23.46,34.91-28.69
					c2.78-1,4.34-0.67,4.89,0.89c0.67,1.67-0.33,3-3.22,4c-6.12,2.11-11.56,5.23-16.68,9.12c-9.34,7.12-16.01,16.12-18.23,27.8
					c-1.67,8.78,0.22,16.34,7.56,22.01c2.33,1.78,4.78,3.56,7.34,5.11c1.67,1,4,2,3.56,4.34c-0.44,2.78-3,2.89-5.34,3.11
					c-3.45,0.33-6.89,0.89-10.12,2.56c-1.56,0.78-3,1.67-4.22,3.11c-0.89,1-0.89,2,0.44,2.78c1,0.56,2,1.11,3,1.56
					c4.11,2.11,8.67,3.34,13.12,4.45c13.56,3.56,27.35,4.11,41.14,1.11c5.78-1.33,11.01-3.89,15.12-8.34
					c3.67-3.89,7.45-7.78,10.67-12.01c0.67-0.78,1.22-1.56,2.11-2c1.22-0.56,2.45-0.56,3.34,0.56c0.89,1,0.56,2-0.11,3
					C308.76,304.54,307.54,305.54,306.98,307.43z M148.43,253.06c-1.56,3.45-2.78,6.34-4,9.12c-3.11,6.89-7.56,12.9-12.67,18.46
					c-2.89,3.11-2.33,4.45,1.78,5.45c3.45,0.78,6.89,0.44,10.45,0.44c1.89,0,2.89-0.89,3.78-2.45
					C154.1,273.96,152.88,263.84,148.43,253.06z M202.58,301.98c1.22,1.78,3,2.45,4.78,2.89c3.34,0.89,6.67,0.78,10.01,1.11
					c0.67,0.11,1.22,0,1.78-0.33c2.89-1.89,6.12-3.22,9.67-4.34c-2.22-1.89-4-3.45-5.78-5.23c-0.78-0.78-1.56-1-2.67-0.67
					c-3.78,0.89-7.56,1.45-11.45,1.33c-1,0-1.89,0.22-2.56,1.11C205.25,299.31,204.03,300.54,202.58,301.98z"/>
				<path class="st0" d="M306.98,307.43c0.56-1.89,1.78-2.89,2.56-4.11c0.67-1,1-2,0.11-3c-1-1.11-2.11-1.11-3.34-0.56
					c-1,0.44-1.56,1.22-2.11,2c-3.34,4.22-7,8.12-10.67,12.01c-4.11,4.45-9.34,7.12-15.12,8.34c-13.79,3-27.46,2.45-41.14-1.11
					c-4.45-1.22-8.89-2.45-13.12-4.45c-1-0.56-2-1-3-1.56c-1.33-0.67-1.33-1.67-0.44-2.78c1.11-1.33,2.67-2.33,4.22-3.11
					c3.11-1.67,6.56-2.22,10.12-2.56c2.33-0.22,4.89-0.33,5.34-3.11c0.33-2.33-1.89-3.22-3.56-4.34c-2.56-1.56-5-3.34-7.34-5.11
					c-7.45-5.67-9.23-13.23-7.56-22.01c2.22-11.79,8.89-20.79,18.23-27.8c5.11-3.89,10.56-7,16.68-9.12c3-1,4-2.33,3.22-4
					c-0.67-1.45-2.11-1.78-4.89-0.89c-15.23,5.23-27.46,14.12-34.91,28.69c-3.67,7.23-5.56,15.01-4.34,23.24
					c0.44,2.89,1.33,5.56,2.56,8.45c-6.12,1.33-12.01,1.11-17.79-0.22c-4.22-1-8.45-2.11-12.45-3.89c-2.67-1.22-3.56-0.89-5.45,1.33
					c-3.56,4-7.12,8.01-10.45,12.23c-3.34,4.22-7.67,5.67-12.9,5.23c-3.78-0.33-7.34-1.56-10.67-3.22c-1.67-0.89-2-1.89-1.33-3.56
					c1.56-3.56,3.11-7.12,5.23-10.34c6.34-9.78,7.34-20.24,3.78-31.13c-1.11-3.56-2.33-7.12-3.67-10.56
					c-3-7.34-3.89-14.9-2.56-22.79c1.33-7.56,3.11-14.9,5.56-22.13c0.78-2.11,0.56-3.45-1.22-4.89c-6.12-5-10.78-11.34-15.23-17.9
					c-2.33-3.45-3.78-7.23-4.22-11.45c-0.44-4.67,0.67-8.89,3.67-12.56c2.22-2.78,4.78-5.11,7.89-6.89
					c10.56-5.89,21.68-9.34,33.91-9.34c1.67,0,3.22,0.33,4.89,0.44c2.78,0,3.89-1.45,2.89-4.11c-1.11-2.89-2.22-5.78-3.22-8.78
					c-3.78-10.9-2.33-21.24,3-31.13c6.67-12.01,15.68-21.79,28.13-28.13c0.78-0.44,1.56-0.78,2.33-1.11
					c0.33-0.11,0.67-0.11,1.22-0.11c-0.11,2.56-1.56,4.56-2.45,6.67c-1.33,3.11-2.78,6.12-3.67,9.34
					c-2.11,6.89-1.78,13.79,0.22,20.68c0.67,2.11,0.67,3.89-0.44,6c-3.89,7.45-6.23,15.45-6.89,23.9c-0.22,3,0.22,4.22,2,4.56
					c1.78,0.22,2.89-0.89,3.22-3.78c1.11-9.56,4.22-18.57,9.45-26.57c6.56-10.01,15.12-17.9,26.68-21.79
					c1.89-0.67,3.89-1.11,5.89-0.89c2.22,0.22,2.56,0.67,2.56,2.78c-0.11,2.78-1.22,5.34-2.56,7.78c-2.22,3.89-4.78,7.67-6.67,11.67
					c-4.56,9.78-5.67,20.01-4.89,30.69c0.44,6.23,1.33,12.34,0.89,18.68c-0.44,6.34-2.67,11.56-7.78,15.57
					c-0.22,0.11-0.44,0.33-0.56,0.44c-1,0.78-2.11,1.56-1.56,3.11c0.56,1.45,1.89,1.89,3.34,2c3.67,0.11,7.23,0.11,10.78,0.33
					c14.45,0.78,27.24,5.78,38.58,14.56c4.34,3.34,7.56,7.56,10.45,12.23c10.9,17.79,15.57,37.14,14.01,57.93
					c-0.44,6.45-2.56,12.67-4.56,18.9c-0.33,1.22-0.89,2.33-1.22,3.56c-0.56,2.22,0,3.56,1.56,4c1.89,0.44,2.78-0.67,3.34-2.22
					c1.45-4,2.89-8.01,4.11-12.01c1.22-4.22,2.33-8.45,2.56-12.79c0.11-2,0.78-3.56,2.22-5c3.45-3.45,6.89-6.89,10.56-10.01
					c2.56-2.11,5.34-3.67,8.67-4.22c3.56-0.67,5.34,0.22,7.12,3.34c1.33,2.45,1.89,5.11,2,7.89c0.56,9.56-2.45,18.12-6.67,26.57
					c-5.67,11.23-13.9,20.01-25.24,25.68C312.32,305.98,309.98,306.98,306.98,307.43z M177.12,154c0.78-0.33,1.33-1,0.67-1.56
					c-0.33-0.33-1,0.33-1.33,0.89c-0.11,0.11-0.11,0.22-0.11,0.33c-3.22,5.11-3,8.12,0.78,13.34c-0.33,0.22-0.67,0.44-1,0.56
					c-4.11,2.33-4.22,5.45-0.33,7.89c0.78,0.44,1.56,0.78,2.45,1c2.89,0.56,5.89,1.22,8.78,1.67c2.78,0.33,5.45,0.11,8.12-0.89
					c3.22-1.33,3.56-4.56,1-6.78c-2-1.78-4.56-2-6.89-2.56c0.67-0.78,1.33-1.45,2-2.22c2.67-3.45,2.67-7.89,0.11-11.34
					c-1.67-2.22-3.78-3.45-6.45-4c-1.22-0.56-2.33-0.33-3.45,0.56c1.11,0.67,2.33,0.78,3.56,0.89c3,2.33,3.56,5,1.89,7.56
					c-1.56,2.33-4.67,3.11-7.23,1.67C177.12,159.56,176.45,157.67,177.12,154z"/>
				<path class="st1" d="M148.43,253.06c4.45,10.78,5.56,20.9-0.56,30.91c-0.89,1.56-1.89,2.45-3.78,2.45c-3.45,0-7,0.33-10.45-0.44
					c-4.22-1-4.67-2.22-1.78-5.45c5.11-5.56,9.56-11.45,12.67-18.46C145.77,259.29,146.99,256.51,148.43,253.06z"/>
				<path class="st1" d="M202.58,301.98c1.33-1.56,2.67-2.78,3.67-4.11c0.67-0.89,1.56-1.11,2.56-1.11
					c3.89,0.11,7.67-0.44,11.45-1.33c1.11-0.22,1.89-0.11,2.67,0.67c1.78,1.67,3.67,3.22,5.78,5.23c-3.56,1.11-6.78,2.33-9.67,4.34
					c-0.56,0.33-1.11,0.44-1.78,0.33c-3.34-0.33-6.67-0.22-10.01-1.11C205.58,304.43,203.8,303.76,202.58,301.98z"/>
				
					<ellipse transform="matrix(0.1756 -0.9845 0.9845 0.1756 -16.8856 324.4055)" class="st2" cx="185.25" cy="172.28" rx="7" ry="14.57"/>
				<circle cx="183.35" cy="159.33" r="9.9"/>
				<circle class="st0" cx="181.46" cy="154.89" r="6"/>
			</g>
		</g>
	</g>
</g>
<g id="Layer_2_00000146490445881832678780000000928393151786901664_">
	<g>
		<g>
			<g>
				<path d="M151.66,320.1c-5.89-1.56-11.79-3.34-17.68-5.34c-31.58-10.67-55.92-30.35-72.94-59.04
					c-4.34-7.34-7.12-15.23-8.67-23.57c-0.89-4.67-0.78-9.23,0.11-13.9c1.89-9.67,13.68-12.9,20.24-8.67
					c2.67,1.67,4.89,3.67,6.89,6.12c5.78,7,11.45,14.23,17.34,21.12c16.34,19.12,35.58,34.58,58.59,45.03
					c6.45,2.89,13.23,4.89,20.01,6.67c1.67,0.44,2.56-0.22,3.67-1c11.01-8.34,23.01-14.68,36.02-19.01
					c35.02-11.79,70.05-12.45,105.18,0c2,0.67,3.45,0.44,4.89-0.78c2.78-2.22,5.11-4.78,7.23-7.67
					c11.67-15.79,19.79-33.47,25.35-52.26c2.33-8.12,4.56-16.23,6.89-24.35c1.11-3.78,2.22-7.45,4.11-10.78
					c4.22-7.56,11.56-8.89,18.23-3.22c5.23,4.45,7.34,10.45,9.01,16.9c2.67,10.56,1.89,21.12,0.33,31.58
					c-3.34,22.24-10.34,43.36-21.9,62.82c-3.11,5.23-6.67,10.34-10.23,15.34c-1.45,1.89-0.22,2.78,0.56,4.11
					c0.89,1.45,1.78,2,3.56,1.22c6.23-2.67,11.79-6.45,16.9-10.78c8.45-7.23,15.45-15.79,22.35-24.46
					c8.12-10.12,15.9-20.57,25.02-29.8c5.34-5.45,11.23-10.34,17.9-14.12c2.78-1.56,5.67-2.89,8.78-3.67
					c4.89-1.11,9.34,0.56,12.23,4.78c1.45,2.11,2.33,4.45,2.89,6.89c2.11,9.12,1.22,18.12-2.22,26.8
					c-3.78,9.78-9.45,18.46-16.12,26.46c-15.12,18.35-32.91,33.58-53.7,45.25c-7.23,4-14.9,6.67-22.57,9.67
					c-1.11,0.44-2.33,0.56-2.67,2.22c-0.67,4.22-0.56,4.56,3.78,5c10.9,0.89,21.57-0.33,32.13-3c14.56-3.67,28.02-10.01,41.36-16.79
					c6.45-3.34,13.01-6.45,20.12-8.34c1.67-0.44,3.34-0.78,5-0.78c6.12-0.11,10.56,2.56,13.23,7.89c2.78,5.56,3.34,11.34,1.56,17.23
					c-2.78,8.78-7.89,16.12-14.56,22.35c-9.45,8.78-20.57,14.45-32.69,18.46c-16.9,5.56-34.13,6.56-51.48,2.45
					c-10.34-2.45-20.68-4.56-30.35-9.12c-1.11-0.56-1.56-0.11-2.22,0.67c-1.89,2.33-3.78,4.56-5.67,6.78
					c-0.78,0.89-0.78,1.78-0.67,2.78c0.22,4.89,0.33,9.78-0.44,14.68c-0.56,3.45-1.45,6.89-3.34,10.01
					c-2.11,3.45-5.11,5.45-9.12,5.89c-5,0.56-9.78-0.11-14.45-1.78c-3.22-1.22-6.34-2.45-9.45-3.89c-1.22-0.56-2-0.56-3.22,0
					c-16.23,6.89-33.13,10.67-50.59,11.9c-10.01,0.67-20.01,0.56-30.02-0.78c-2.11-0.22-3.34,0.22-4.45,2
					c-2.56,3.67-5.45,7-8.89,9.9c-4.45,3.67-9.56,5.11-15.23,4.45c-3.89-0.44-6.89-2.22-9.01-5.45c-1.89-2.89-3-6.12-3.45-9.56
					c-0.44-3.78-0.78-7.45-1.11-11.23c-0.11-1.22-0.56-1.89-1.56-2.33c-2.11-1.11-4.34-2.11-6.34-3.34c-1.56-1-2.56-0.67-3.89,0.33
					c-7.12,5.67-14.45,11.01-22.13,16.01c-13.12,8.56-27.46,14.01-42.92,16.68c-12.67,2.22-25.35,2.89-38.02,0.56
					c-15.23-2.89-29.02-9.01-41.25-18.68c-4.67-3.67-8.67-8.12-11.23-13.56c-3.45-7.34-1.56-13.34,5.45-17.46
					c5.56-3.22,11.79-3.78,18.12-4c7.12-0.22,14.12,1.22,20.79,3.11c12.12,3.45,24.46,4.67,36.8,3.67
					c15.57-1.22,30.58-4.89,43.36-14.68c0.56-0.44,1.11-0.89,1.67-1.22c0.78-0.56,1.11-1.11,0.56-2.22
					c-2.33-5.11-2.22-5.11-7.89-4.22c-3.56,0.67-7.12,1.33-10.78,2c-22.79,3.78-45.36,3.22-67.71-2.56
					c-7.56-2-15.23-3.89-22.46-6.89C28.47,356.79,16.02,346.01,8.34,330c-2.22-4.56-3.45-9.34-3.34-14.45c0.22-7,4-11.01,10.9-11.45
					c3.34-0.22,6.56,0.44,9.78,1.45c4.89,1.45,9.56,3.56,14.23,5.67c21.9,9.9,44.92,15.57,68.82,16.9
					c10.67,0.56,21.46,0.11,31.91-2.33c2.45-0.56,4.89-1.11,7.34-1.45C150.55,323.44,151.55,322.33,151.66,320.1z M277.3,416.28
					c6.34-0.67,17.46-3.11,28.24-6.78c16.12-5.56,30.8-13.45,43.36-25.13c8.12-7.56,14.79-16.12,18.9-26.46
					c6.89-16.79,5.56-33.13-3.22-48.92c-4.78-8.45-11.45-15.34-19.12-21.12c-13.12-9.9-28.02-16.01-43.92-19.57
					c-25.24-5.56-50.48-4.67-75.38,2.22c-16.12,4.45-31.13,11.34-44.47,21.68c-9.9,7.67-18.35,16.79-24.02,28.02
					c-4.89,9.67-7.12,19.9-6.12,30.69c1.22,12.79,6.67,23.79,15.12,33.24c9.9,11.12,22.24,18.68,36.02,24.02
					C225.26,417.05,248.5,419.28,277.3,416.28z M147.88,329.89c-0.89-0.56-1.78,0-2.67,0.11c-13.34,3-26.8,3.78-40.36,2.67
					c-23.57-1.78-46.14-7.67-67.71-17.46c-4.78-2.22-9.56-4.34-14.68-5.56c-2.45-0.67-4.89-0.89-7.45-0.44
					c-2.56,0.44-3.89,1.67-4.22,4.22c-0.44,2.45-0.33,5,0.33,7.45c2.22,8.23,6.67,15.12,12.23,21.46
					c7.23,8.12,16.34,13.45,26.35,17.12c23.68,8.45,48.03,12.23,73.16,9.67c8.01-0.78,16.01-2.22,24.02-3.34
					c2.45-0.33,2.45-0.44,1.78-2.78c-3.11-10.01-3.22-20.12-0.89-30.35C147.99,331.56,148.43,330.78,147.88,329.89z M180.12,402.38
					c-1-0.67-1.56-1-2.11-1.33c-7.34-5.11-13.79-11.12-19.12-18.35c-1.56-2-1.56-2-3.67-0.44c-6.34,4.89-13.34,8.56-21.01,11.12
					c-16.23,5.23-32.69,6.45-49.59,4.22c-7.56-1-14.9-3.34-22.35-4.89c-6.67-1.45-13.34-1.45-20.01-0.33
					c-3.22,0.44-6.23,1.56-8.78,3.56c-2.67,2.11-3.45,4.34-2.45,7.56c0.44,1.56,1.22,3,2,4.34c2.11,3.56,4.89,6.56,8.12,9.12
					c11.79,9.45,25.24,15.23,40.03,18.01c10.78,2,21.57,1.45,32.24-0.22c11.79-1.78,23.13-4.78,33.8-10.45
					c11.23-5.89,21.46-13.23,31.69-20.79C179.12,403.27,179.34,403.05,180.12,402.38z M378.03,332.89c0.56-0.11,1,0,1.45-0.22
					c6.56-2.45,13.23-4.78,19.46-8.23c18.57-10.12,34.69-23.35,48.7-39.14c7.34-8.23,13.9-17.12,18.57-27.24
					c2.89-6.34,4.56-12.9,4.34-19.79c-0.11-3.67-0.78-7.23-2.22-10.56c-1.78-4-4.34-5.11-8.56-3.89c-2.33,0.67-4.45,1.67-6.56,2.89
					c-5,2.78-9.45,6.23-13.68,10.23c-8.23,7.89-15.34,16.79-22.46,25.68c-6.34,7.89-12.56,15.9-19.46,23.35
					c-7.67,8.12-16.12,15.01-26.57,19.35c-1.67,0.67-1.78,1.33-0.89,2.78c3.22,5.78,5.45,12.01,6.78,18.46
					C377.36,328.55,377.03,330.89,378.03,332.89z M367.58,370.58c1.33,1,2.89,1.56,4.34,2.11c8.23,3.22,16.79,5,25.24,7
					c14.34,3.34,28.69,3,42.92-0.78c12.34-3.22,23.79-8.34,33.69-16.57c6.45-5.34,11.56-11.56,14.79-19.35
					c1.45-3.56,2.22-7.12,1.67-11.01c-1.45-9.01-6.34-12.12-15.01-9.56c-6.78,2-13.12,5.11-19.35,8.34
					c-11.12,5.67-22.46,11.01-34.47,14.68c-14.12,4.45-28.57,6.56-43.36,4.11c-1.67-0.22-1.89,0.44-2.22,1.67
					c-1.67,6.34-4.22,12.23-7.56,17.9C367.91,369.69,367.8,370.14,367.58,370.58z M172.34,293.2c-1.11-1.11-2.11-1-3.11-1.22
					c-6.12-1.45-12.01-3.45-17.68-6.23c-23.79-11.23-43.58-27.46-60.26-47.7c-5.11-6.23-10.23-12.56-15.34-18.79
					c-1.56-1.89-3.34-3.78-5.56-5c-5.11-2.89-11.34-0.22-12.56,5.45c-0.78,3.45-1,7-0.33,10.56c1.45,7.45,3.56,14.68,7.34,21.24
					c6.78,11.9,15.01,22.46,25.13,31.69c17.9,16.46,39.25,25.68,62.37,31.58c1.78,0.44,2.56-0.11,3.45-1.56
					c4.11-6.89,9.23-13.01,15.01-18.46C171.23,294.31,171.67,293.75,172.34,293.2z M328.77,271.63c2.78,1.45,5.56,2.89,8.23,4.45
					c2.67,1.56,5.34,3.11,7.89,4.89c2.67,1.78,5.11,3.78,7.56,5.78c2.45,2,4.67,4.22,7.23,6.45c1.89-1.33,2.56-3.45,3.89-5.23
					c5.45-7.45,10.34-15.34,14.01-23.79c8.01-18.9,14.12-38.47,15.12-59.26c0.33-7.78-0.56-15.23-2.89-22.57
					c-1.33-3.89-3.34-7.23-6.67-9.67c-3.34-2.45-6.45-1.89-8.78,1.56c-1.11,1.67-1.89,3.67-2.67,5.56c-1.67,4.45-2.78,9.12-4,13.79
					c-4,14.34-8.01,28.8-14.45,42.25C346.9,248.84,339.67,261.18,328.77,271.63z M227.71,420.72c-9.9-1.67-19.01-4.56-28.02-7.78
					c-0.11,0-0.22,0.11-0.33,0.11c-0.11,0.11-0.11,0.11-0.33,0.33c0.44,4.34,0.56,8.78,2.11,13.01c1.78,5.11,4.67,7,10.12,6.67
					c3.22-0.22,6-1.33,8.34-3.34C222.7,427.17,225.26,424.28,227.71,420.72z M324.99,407.05c5.78,3.45,11.67,4.89,18.12,4.34
					c3.11-0.22,5.23-2.11,6.34-5c2.22-5.45,2.56-11.12,2.22-17.46C343.45,396.49,334.67,402.16,324.99,407.05z"/>
				<path class="st3" d="M277.3,416.28c-28.8,3.11-52.03,0.78-74.49-7.89c-13.79-5.34-26.13-12.9-36.02-24.02
					c-8.45-9.56-14.01-20.46-15.12-33.24c-1-10.78,1.22-21.01,6.12-30.69c5.67-11.34,14.01-20.35,24.02-28.02
					c13.34-10.34,28.35-17.23,44.47-21.68c24.9-6.89,50.03-7.78,75.38-2.22c15.9,3.56,30.8,9.56,43.92,19.57
					c7.67,5.78,14.34,12.67,19.12,21.12c8.78,15.79,10.12,32.13,3.22,48.92c-4.22,10.34-10.9,18.9-18.9,26.46
					c-12.56,11.67-27.35,19.57-43.36,25.13C294.75,413.16,283.74,415.61,277.3,416.28z M308.87,358.79c0,1.11-0.67,1.89-1.22,2.78
					c-1.78,3-1.11,5.45,2.11,7c1.11,0.56,2.33,0.89,3.56,1c7.34,0.67,14.23-0.56,20.68-4c2.56-1.33,4.56-4.56,4.22-6.56
					c-0.33-2.33-3.22-4.22-6.56-4.56c-3.34-0.44-6.56,0-9.78,0.33c-0.11-0.78,0.33-1.33,0.56-1.89c1.78-5.11-1.11-10.67-6.23-12.34
					c-5.23-1.67-10.67,1.11-12.23,6.34C302.42,351.46,303.98,355.24,308.87,358.79z M217.7,368.02c-0.44,0.78-1.11,1-2,1.11
					c-3,0.33-5.67,1.67-8.23,3c-3.45,1.67-5.11,4.22-4.56,6.78c0.56,2.56,2.67,4,6.45,4.56c7,1,13.45-0.89,19.68-3.78
					c1.45-0.67,2.67-1.67,3.67-2.89c1-1.22,1.33-2.56,1.11-4.11c-0.56-3.22-3-3.89-5.78-4.34c0.78-0.78,1.67-1.56,2.45-2.33
					c2.67-3.11,3.11-7.56,1.11-11.12c-1.89-3.45-5.89-5.34-9.78-4.89c-4.11,0.56-7.34,3.45-8.23,7.56
					C212.59,362.02,214.48,365.24,217.7,368.02z M281.3,375.69c6-0.67,12.12-3,15.9-5.89c1-0.78,2-1.56,2.67-2.67
					c0.56-1,0.67-1.89-0.11-2.89c-0.78-0.89-1.78-1.11-2.78-0.67c-0.78,0.33-1.56,1-2.33,1.45c-7.34,4.89-15.01,7.56-23.68,3.11
					c-1.67-0.89-3.56-0.78-5.23,0c-2,0.89-3.89,1.89-5.89,2.67c-3.89,1.56-7.78,2.45-12.01,1.33c-1.33-0.33-2.56-1-3.78-1.56
					c-1.11-0.44-2.11,0-2.67,0.89c-0.67,1-0.44,2,0.33,2.78c1.11,1.11,2.67,1.78,4.11,2.22c4.56,1.45,9.01,1.22,13.45-0.22
					c2.33-0.78,4.67-1.78,6.89-2.78c1.33-0.56,2.56-0.89,3.89-0.11C273.96,375.81,278.18,375.92,281.3,375.69z"/>
				<path class="st4" d="M147.88,329.89c0.56,0.89,0,1.78-0.11,2.67c-2.33,10.23-2.33,20.35,0.89,30.35
					c0.78,2.45,0.67,2.45-1.78,2.78c-8.01,1.11-15.9,2.56-24.02,3.34c-25.13,2.56-49.48-1.22-73.16-9.67
					c-10.12-3.56-19.12-9.01-26.35-17.12C17.79,336,13.35,329,11.12,320.77c-0.67-2.45-0.67-5-0.33-7.45
					c0.44-2.45,1.78-3.78,4.22-4.22c2.56-0.44,5-0.11,7.45,0.44c5.11,1.22,9.9,3.45,14.68,5.56c21.57,9.78,44.14,15.68,67.71,17.46
					c13.56,1,27.02,0.22,40.36-2.67C146.1,329.78,146.99,329.33,147.88,329.89z"/>
				<path class="st4" d="M180.12,402.38c-0.67,0.67-1,0.89-1.22,1.11c-10.12,7.56-20.46,14.9-31.69,20.79
					c-10.56,5.56-22.01,8.67-33.8,10.45c-10.78,1.67-21.46,2.11-32.24,0.22c-14.79-2.67-28.24-8.56-40.03-18.01
					c-3.22-2.56-6-5.56-8.12-9.12c-0.78-1.33-1.56-2.78-2-4.34c-1-3.22-0.22-5.45,2.45-7.56c2.56-2,5.56-3.11,8.78-3.56
					c6.67-1,13.34-1,20.01,0.33c7.45,1.56,14.68,3.89,22.35,4.89c16.79,2.22,33.35,1,49.59-4.22c7.67-2.45,14.68-6.12,21.01-11.12
					c2.11-1.56,2.11-1.56,3.67,0.44c5.34,7.23,11.9,13.23,19.12,18.35C178.45,401.38,179.12,401.71,180.12,402.38z"/>
				<path class="st4" d="M378.03,332.89c-1-2-0.67-4.22-1-6.34c-1.33-6.56-3.45-12.67-6.78-18.46c-0.78-1.45-0.67-2,0.89-2.78
					c10.45-4.34,18.9-11.23,26.57-19.35c6.89-7.34,13.12-15.34,19.46-23.35c7-8.89,14.12-17.9,22.46-25.68
					c4.11-3.89,8.67-7.34,13.68-10.23c2.11-1.22,4.22-2.22,6.56-2.89c4.22-1.22,6.78-0.11,8.56,3.89c1.56,3.34,2.11,6.89,2.22,10.56
					c0.22,7-1.45,13.56-4.34,19.79c-4.67,10.12-11.23,19.01-18.57,27.24c-14.12,15.79-30.13,29.02-48.7,39.14
					c-6.23,3.34-12.9,5.67-19.46,8.23C379.03,332.78,378.58,332.78,378.03,332.89z"/>
				<path class="st4" d="M367.58,370.58c0.22-0.56,0.33-1,0.56-1.33c3.34-5.56,5.89-11.56,7.56-17.9c0.33-1.22,0.44-2,2.22-1.67
					c14.79,2.45,29.24,0.33,43.36-4.11c12.01-3.78,23.35-9.01,34.47-14.68c6.23-3.22,12.56-6.34,19.35-8.34
					c8.67-2.56,13.56,0.67,15.01,9.56c0.67,3.78-0.11,7.45-1.67,11.01c-3.22,7.67-8.34,14.01-14.79,19.35
					c-9.9,8.23-21.46,13.34-33.69,16.57c-14.23,3.67-28.46,4.11-42.92,0.78c-8.56-2-17.12-3.78-25.24-7
					C370.47,372.14,368.91,371.58,367.58,370.58z"/>
				<path class="st4" d="M172.34,293.2c-0.67,0.67-1.11,1.11-1.56,1.56c-5.78,5.45-10.9,11.56-15.01,18.46
					c-0.89,1.56-1.78,2-3.45,1.56c-23.13-5.89-44.58-15.23-62.37-31.58c-10.12-9.23-18.46-19.9-25.13-31.69
					c-3.78-6.56-5.89-13.79-7.34-21.24c-0.67-3.45-0.44-7,0.33-10.56c1.22-5.78,7.34-8.34,12.56-5.45c2.22,1.22,4,3,5.56,5
					c5.11,6.23,10.23,12.56,15.34,18.79c16.68,20.24,36.58,36.47,60.26,47.7c5.67,2.67,11.56,4.78,17.68,6.23
					C170.11,292.2,171.23,292.09,172.34,293.2z"/>
				<path class="st4" d="M328.77,271.63c10.9-10.45,18.12-22.68,24.35-35.8c6.45-13.56,10.45-27.91,14.45-42.25
					c1.33-4.56,2.33-9.23,4-13.79c0.67-1.89,1.45-3.78,2.67-5.56c2.33-3.45,5.34-4,8.78-1.56c3.34,2.45,5.45,5.78,6.67,9.67
					c2.45,7.34,3.34,14.79,2.89,22.57c-1,20.79-7,40.36-15.12,59.26c-3.56,8.45-8.56,16.34-14.01,23.79c-1.22,1.67-2,3.78-3.89,5.23
					c-2.45-2.22-4.78-4.45-7.23-6.45s-5-4-7.56-5.78c-2.56-1.78-5.23-3.34-7.89-4.89C334.33,274.52,331.55,273.07,328.77,271.63z"/>
				<path class="st3" d="M227.71,420.72c-2.56,3.67-5.11,6.56-8.01,9.01c-2.45,2-5.23,3.11-8.34,3.34
					c-5.34,0.33-8.34-1.56-10.12-6.67c-1.45-4.22-1.67-8.67-2.11-13.01c0.11-0.11,0.22-0.22,0.33-0.33
					c0.11-0.11,0.22-0.22,0.33-0.11C208.7,416.17,217.81,418.94,227.71,420.72z"/>
				<path class="st3" d="M324.99,407.05c9.67-4.89,18.46-10.67,26.68-18.01c0.33,6.34,0,12.01-2.22,17.46
					c-1.22,2.78-3.34,4.67-6.34,5C336.78,411.94,330.77,410.61,324.99,407.05z"/>
				<path d="M281.3,375.69c-3.11,0.22-7.23,0.11-11.12-2.11c-1.33-0.78-2.56-0.56-3.89,0.11c-2.22,1-4.56,2-6.89,2.78
					c-4.45,1.45-8.89,1.67-13.45,0.22c-1.56-0.44-3-1.11-4.11-2.22c-0.78-0.78-1-1.89-0.33-2.78c0.56-0.89,1.56-1.33,2.67-0.89
					c1.22,0.56,2.45,1.11,3.78,1.56c4.11,1.11,8.12,0.33,12.01-1.33c2-0.78,3.89-1.78,5.89-2.67c1.78-0.89,3.56-0.89,5.23,0
					c8.67,4.56,16.23,1.89,23.68-3.11c0.78-0.56,1.45-1.11,2.33-1.45c1-0.44,2-0.33,2.78,0.67c0.78,0.89,0.67,1.89,0.11,2.89
					c-0.67,1.11-1.67,1.89-2.67,2.67C293.31,372.69,287.3,375.03,281.3,375.69z"/>
				
					<ellipse transform="matrix(0.9749 -0.2226 0.2226 0.9749 -72.4344 80.7526)" class="st2" cx="322" cy="361.69" rx="16.57" ry="8.67"/>
				
					<ellipse transform="matrix(0.9894 -0.1451 0.1451 0.9894 -52.1744 35.61)" class="st2" cx="218.03" cy="375.47" rx="16.57" ry="8.67"/>
				<path d="M228.15,368.36c-3.56,1.67-7,1.56-10.34-0.33c-3.22-2.78-5.11-6-4.11-10.45c0.89-4.11,4-7,8.23-7.56
					c3.89-0.56,7.89,1.45,9.78,4.89c2,3.56,1.67,8.01-1.11,11.12C229.82,366.8,228.93,367.58,228.15,368.36z M227.71,358.02
					c-0.11-2.22-2-3.78-4.11-3.56c-2,0.22-3.56,1.89-3.34,3.89c0.11,2.11,2,3.78,4.11,3.67
					C226.37,361.8,227.82,360.02,227.71,358.02z"/>
				<path d="M321.88,354.79c-0.56,0.56-1,1.11-1.56,1.78c-3.34,3.45-7.12,3.78-11.45,2.22c-4.89-3.56-6.45-7.23-5-11.9
					c1.67-5.23,7-8.01,12.23-6.34c5.11,1.67,8.01,7.23,6.23,12.34C322.1,353.46,321.77,354.01,321.88,354.79z M315.1,348.57
					c-0.22-2.22-2-3.78-4.11-3.56c-2,0.22-3.45,2-3.34,4c0.22,2.22,2,3.78,4.11,3.56C313.87,352.35,315.21,350.57,315.1,348.57z"/>
				<circle cx="223.15" cy="360.35" r="10.45"/>
				<circle cx="313.21" cy="350.01" r="10.45"/>
				<path class="st0" d="M227.71,358.02c0.11,2-1.33,3.78-3.34,4c-2.11,0.22-4-1.45-4.11-3.67c-0.11-2,1.33-3.78,3.34-3.89
					C225.71,354.24,227.49,355.9,227.71,358.02z"/>
				<path class="st0" d="M315.1,348.57c0.11,2.11-1.22,3.78-3.34,4c-2.11,0.22-4-1.33-4.11-3.56c-0.11-2,1.33-3.78,3.34-4
					C313.1,344.79,314.87,346.34,315.1,348.57z"/>
			</g>
		</g>
	</g>
</g>
</svg>
