<?xml version="1.0" encoding="utf-8"?>
<!-- Generator: Adobe Illustrator 26.2.1, SVG Export Plug-In . SVG Version: 6.00 Build 0)  -->
<svg version="1.1" id="Layer_2_00000135681889998575406930000006003391160062969521_"
	 xmlns="http://www.w3.org/2000/svg" xmlns:xlink="http://www.w3.org/1999/xlink" x="0px" y="0px" viewBox="0 0 500 500"
	 style="enable-background:new 0 0 500 500;" xml:space="preserve">
<style type="text/css">
	.st0{fill:#FEE2E2;}
	.st1{fill:#E2A4A4;}
	.st2{fill:#EDBABA;}
	.st3{fill:#FFFFFF;}
</style>
<g id="Layer_2_00000080184830069525313650000005762821578976427963_">
	<g>
		<g>
			<g>
				<path d="M150.45,254.53c-5.71-2.69-11.42-5.5-16.92-8.51c-30.17-16.49-51.4-40.73-63.58-72.95c-3.12-8.19-4.53-16.7-4.63-25.54
					c0-4.85,0.86-9.59,2.69-14.12c3.66-9.48,16.16-10.56,22.09-5.17c2.37,2.16,4.31,4.63,5.93,7.44
					c4.63,8.19,9.05,16.49,13.79,24.57c13.15,22.41,29.96,41.49,51.4,56.14c6.03,4.09,12.5,7.33,19.18,10.34
					c1.62,0.75,2.69,0.32,3.88-0.32c12.61-6.47,25.97-10.78,39.98-12.93c37.71-5.71,73.38-0.11,106.78,18.75
					c1.94,1.08,3.34,1.08,5.17,0.11c3.23-1.72,6.03-3.99,8.73-6.47c14.76-14.01,26.08-30.39,35.02-48.6
					c3.88-7.76,7.54-15.62,11.31-23.49c1.72-3.56,3.66-7.11,6.14-10.24c5.71-7,13.36-7,19.18,0c4.53,5.5,5.6,11.96,6.14,18.75
					c0.75,11.1-1.83,21.77-5.28,32.11c-7.44,21.98-18.21,42.13-33.4,59.8c-4.09,4.85-8.62,9.27-13.15,13.68
					c-1.72,1.72-0.75,2.8-0.11,4.2c0.65,1.62,1.4,2.37,3.45,1.83c6.79-1.62,13.15-4.42,19.07-7.97c9.91-5.82,18.53-13.25,27.05-20.8
					c10.02-8.84,19.83-17.99,30.71-25.86c6.47-4.63,13.25-8.51,20.69-11.1c3.12-1.08,6.25-1.94,9.59-2.16
					c5.28-0.32,9.37,2.26,11.53,7c1.08,2.37,1.51,4.96,1.72,7.54c0.54,9.7-1.94,18.53-7,26.83c-5.6,9.27-12.93,17.03-21.12,24.03
					c-18.64,15.95-39.44,28.23-62.61,36.42c-7.97,2.8-16.38,4.09-24.68,5.82c-1.19,0.22-2.48,0.22-3.12,1.83
					c-1.4,4.2-1.4,4.63,3.02,5.71c10.88,2.8,21.98,3.45,33.19,2.69c15.41-1.19,30.28-5.17,44.93-9.7
					c7.22-2.26,14.44-4.31,21.87-4.96c1.72-0.11,3.56-0.22,5.28,0.11c6.25,0.97,10.24,4.53,12.07,10.45
					c1.83,6.14,1.4,12.07-1.51,17.78c-4.31,8.51-10.88,14.98-18.75,20.04c-11.1,7.22-23.49,11.1-36.53,12.93
					c-18.21,2.59-35.77,0.54-52.69-6.68c-10.02-4.31-20.15-8.3-29.09-14.65c-0.97-0.75-1.62-0.43-2.37,0.32
					c-2.26,2.05-4.63,3.99-7,5.93c-0.97,0.75-1.08,1.62-1.19,2.69c-0.65,4.96-1.4,10.02-3.02,14.87c-1.19,3.45-2.69,6.79-5.17,9.59
					c-2.69,3.12-6.14,4.63-10.34,4.31c-5.17-0.32-9.91-1.83-14.33-4.42c-3.02-1.72-6.03-3.66-8.94-5.6
					c-1.08-0.75-1.94-0.86-3.23-0.65c-17.67,4.09-35.56,4.96-53.55,3.12c-10.34-1.08-20.47-3.02-30.28-6.14
					c-2.05-0.65-3.45-0.32-4.96,1.19c-3.23,3.34-6.79,6.14-10.78,8.4c-5.17,2.91-10.56,3.56-16.27,1.83
					c-3.88-1.19-6.57-3.56-8.19-7.22c-1.4-3.34-2.05-6.79-1.83-10.34c0.22-3.88,0.54-7.76,0.97-11.64c0.11-1.29-0.22-1.94-1.19-2.69
					c-1.94-1.51-3.99-2.91-5.82-4.53c-1.4-1.29-2.48-1.19-3.99-0.32c-8.19,4.53-16.7,8.62-25.32,12.28
					c-14.87,6.36-30.39,9.27-46.55,9.27c-13.25-0.11-26.18-1.62-38.68-6.25c-15.09-5.71-28.02-14.44-38.68-26.4
					c-4.09-4.63-7.33-9.81-8.94-15.84c-2.26-7.97,0.75-13.9,8.62-16.7c6.25-2.26,12.72-1.72,19.18-0.75
					c7.33,1.08,14.12,3.77,20.58,6.9c11.64,5.6,23.92,9.16,36.74,10.34c16.06,1.51,31.9,0.43,46.66-7.22
					c0.65-0.32,1.29-0.65,1.83-0.97c0.97-0.43,1.29-0.97,0.97-2.16c-1.51-5.6-1.4-5.6-7.33-5.71c-3.77,0-7.54,0.11-11.31,0.11
					c-23.81-0.22-46.55-4.85-68.32-14.65c-7.33-3.34-14.76-6.68-21.55-10.99c-15.19-9.7-25.86-22.95-30.82-40.52
					c-1.4-5.06-1.83-10.13-0.86-15.3c1.4-7,6.03-10.45,13.15-9.7c3.45,0.32,6.57,1.62,9.59,3.23c4.74,2.37,9.16,5.28,13.47,8.3
					c20.47,14.01,42.78,23.81,66.92,29.42c10.78,2.48,21.66,3.99,32.87,3.34c2.59-0.11,5.17-0.22,7.76-0.22
					C148.73,257.76,149.91,256.79,150.45,254.53z M260.9,374.57c6.57,0.43,18.32,0,29.96-1.83c17.35-2.8,33.73-8.19,48.6-17.78
					c9.59-6.14,17.89-13.79,23.92-23.49c10.02-15.84,11.64-32.65,5.5-50.21c-3.34-9.48-8.84-17.56-15.62-24.89
					c-11.53-12.39-25.54-21.23-41.16-27.69c-24.68-10.13-50.43-13.79-76.94-11.21c-17.24,1.62-33.73,6.03-49.03,14.12
					c-11.42,6.03-21.55,13.68-29.42,24.24c-6.68,8.94-10.78,18.86-11.75,30.06c-1.08,13.25,2.59,25.32,9.48,36.53
					c8.08,13.04,19.29,22.95,32.33,30.82C207.89,366.05,231.16,372.52,260.9,374.57z M144.85,263.69c-0.86-0.65-1.83-0.32-2.69-0.32
					c-14.12,0.65-27.91-0.97-41.49-4.42C76.96,252.91,55.2,243,35.05,229.1c-4.42-3.02-8.94-6.03-13.9-8.3
					c-2.37-1.08-4.85-1.83-7.44-1.83s-4.2,1.08-5.06,3.56c-0.86,2.48-1.29,4.96-1.08,7.65c0.86,8.73,4.09,16.59,8.62,23.92
					c5.93,9.48,14.12,16.59,23.71,22.09c22.52,12.82,46.55,20.9,72.52,22.84c8.3,0.65,16.7,0.54,25,0.86c2.48,0.11,2.59,0,2.26-2.59
					c-1.4-10.78,0.32-21.01,4.53-30.93C144.63,265.52,145.28,264.76,144.85,263.69z M164.68,343.1c-0.86-0.86-1.4-1.29-1.94-1.72
					c-6.57-6.47-12.07-13.79-16.16-21.98c-1.19-2.26-1.29-2.26-3.66-1.08c-7.33,3.88-15.09,6.36-23.38,7.44
					c-17.35,2.37-34.37,0.75-51.08-4.53c-7.54-2.37-14.44-6.03-21.77-8.94c-6.57-2.59-13.25-3.77-20.26-3.99
					c-3.34-0.11-6.57,0.43-9.59,2.05c-3.12,1.62-4.31,3.77-3.77,7.22c0.22,1.62,0.65,3.23,1.29,4.74c1.51,3.99,3.88,7.54,6.68,10.67
					c10.34,11.64,22.84,20.04,37.5,25.43c10.56,3.88,21.55,5.28,32.76,5.6c12.28,0.32,24.35-0.75,36.1-4.53
					c12.39-3.99,24.24-9.59,35.88-15.41C163.49,343.86,163.81,343.64,164.68,343.1z M378.03,307.87c0.54,0,0.97,0.22,1.4,0.11
					c7.11-1.29,14.33-2.48,21.23-4.85c20.69-6.9,39.33-17.56,56.46-31.03c8.94-7.11,17.24-14.87,23.71-24.35
					c4.09-5.93,6.9-12.28,7.97-19.4c0.54-3.77,0.54-7.54-0.32-11.21c-1.08-4.42-3.45-5.93-7.97-5.5c-2.48,0.22-4.85,0.97-7.11,1.83
					c-5.6,1.94-10.78,4.63-15.62,7.97c-9.81,6.47-18.53,14.33-27.37,22.09c-7.76,6.9-15.52,13.9-23.92,20.26
					c-9.16,6.9-19.07,12.39-30.39,14.87c-1.83,0.43-2.05,0.97-1.4,2.59c2.26,6.47,3.34,13.15,3.56,20.04
					C378.14,303.45,377.38,305.6,378.03,307.87z M360.68,344.29c1.19,1.29,2.69,2.05,3.99,2.91c7.76,4.63,16.16,8.08,24.46,11.64
					c14.01,6.03,28.66,8.08,43.64,6.9c13.04-1.08,25.65-4.2,37.18-10.78c7.44-4.31,13.79-9.7,18.43-17.03
					c2.16-3.34,3.56-6.9,3.66-10.88c0.11-9.37-4.31-13.36-13.58-12.39c-7.33,0.75-14.22,2.91-21.23,5.06
					c-12.28,3.77-24.78,7.11-37.61,8.84c-15.19,1.94-30.17,1.51-44.83-3.56c-1.62-0.54-2.05,0.22-2.59,1.29
					c-2.8,6.14-6.47,11.64-10.88,16.81C361.22,343.42,361,343.86,360.68,344.29z M176.21,230.82c-0.86-1.29-2.05-1.4-2.91-1.83
					c-5.93-2.59-11.53-5.71-16.92-9.48c-22.2-15.62-39.33-35.67-52.69-59.26c-4.09-7.22-8.08-14.55-12.28-21.77
					c-1.29-2.26-2.69-4.42-4.74-6.03c-4.74-3.88-11.42-2.26-13.68,3.34c-1.4,3.34-2.26,7-2.16,10.67
					c0.11,7.76,0.97,15.52,3.66,22.84c4.74,13.25,11.31,25.43,19.83,36.64c15.19,19.83,35.24,33.08,57.76,43.21
					c1.72,0.75,2.69,0.43,3.88-0.97c5.39-6.25,11.64-11.53,18.53-16.16C174.91,231.79,175.56,231.36,176.21,230.82z M339.02,236.86
					c2.59,2.05,5.06,3.99,7.54,5.93c2.48,2.05,4.85,4.09,7.11,6.36c2.37,2.26,4.53,4.74,6.68,7.22c2.16,2.48,3.99,5.17,6.14,7.87
					c2.16-1.08,3.23-3.12,4.85-4.63c6.9-6.57,13.25-13.68,18.43-21.66c11.53-17.78,21.23-36.53,25.86-57.43
					c1.72-7.76,2.16-15.52,1.08-23.49c-0.65-4.2-2.16-7.97-5.06-10.99c-3.02-3.12-6.14-3.12-9.16,0c-1.51,1.51-2.59,3.34-3.66,5.17
					c-2.48,4.31-4.42,8.84-6.57,13.25c-6.68,13.9-13.25,27.8-22.2,40.41C361.44,217.03,351.95,228.23,339.02,236.86z M209.72,370.26
					c-9.81-3.45-18.53-7.97-27.05-12.82c-0.11,0-0.22,0-0.32,0.11c-0.11,0-0.22,0.11-0.32,0.22c-0.32,4.53-0.97,9.05-0.22,13.58
					c0.97,5.5,3.56,7.87,9.05,8.51c3.23,0.32,6.25-0.22,9.16-1.83C203.47,375.97,206.59,373.49,209.72,370.26z M311.01,373.81
					c5.28,4.53,10.99,7,17.56,7.65c3.23,0.32,5.6-1.19,7.33-3.88c3.23-5.06,4.53-10.78,5.39-17.35
					C331.59,366.27,321.67,370.47,311.01,373.81z"/>
				<path class="st0" d="M260.9,374.57c-29.85-2.05-53.02-8.51-74.24-21.34c-13.04-7.87-24.14-17.78-32.33-30.82
					c-6.9-11.21-10.56-23.27-9.48-36.53c0.86-11.21,5.06-21.12,11.75-30.06c7.87-10.45,17.89-18.21,29.42-24.24
					c15.41-8.08,31.9-12.39,49.03-14.12c26.51-2.59,52.26,1.08,76.94,11.21c15.52,6.36,29.63,15.19,41.16,27.69
					c6.79,7.33,12.39,15.41,15.62,24.89c6.14,17.56,4.53,34.37-5.5,50.21c-6.14,9.7-14.44,17.24-23.92,23.49
					c-14.87,9.59-31.25,14.98-48.6,17.78C279.22,374.57,267.47,375,260.9,374.57z M303.14,321.77c-0.22,1.08-1.08,1.72-1.72,2.59
					c-2.37,2.69-2.05,5.39,0.86,7.44c1.08,0.75,2.16,1.4,3.45,1.72c7.33,1.94,14.55,1.94,21.77-0.32c2.91-0.97,5.39-3.77,5.5-5.93
					c0-2.37-2.48-4.85-5.82-5.82c-3.34-0.97-6.68-1.19-10.02-1.4c0-0.75,0.54-1.29,0.86-1.83c2.69-4.85,0.75-10.99-4.2-13.58
					c-5.06-2.59-10.99-0.75-13.58,4.2C297.97,313.25,298.83,317.35,303.14,321.77z M208.96,314.98c-0.54,0.75-1.4,0.86-2.26,0.75
					c-3.12-0.22-6.03,0.65-8.94,1.51c-3.88,1.08-5.93,3.45-5.93,6.03c0.11,2.69,2.05,4.63,5.82,5.82c6.9,2.26,13.79,1.51,20.69-0.32
					c1.62-0.43,3.02-1.19,4.31-2.26s1.83-2.37,1.83-3.99c0-3.34-2.37-4.53-5.06-5.39c0.97-0.65,1.94-1.19,2.91-1.94
					c3.34-2.69,4.53-7.11,3.02-11.1c-1.4-3.77-5.06-6.57-9.05-6.68c-4.31-0.22-7.97,2.16-9.7,6.25
					C204.87,307.97,206.16,311.64,208.96,314.98z M272.21,334.05c6.25,0.43,12.82-0.86,17.24-3.12c1.19-0.65,2.26-1.19,3.12-2.26
					c0.75-0.86,1.08-1.83,0.43-2.91c-0.65-1.08-1.62-1.4-2.69-1.08c-0.86,0.22-1.72,0.65-2.59,1.08c-8.4,3.66-16.59,5.06-24.57-1.08
					c-1.62-1.19-3.45-1.51-5.39-0.97c-2.16,0.65-4.31,1.19-6.47,1.72c-4.2,0.97-8.4,1.08-12.39-0.75c-1.29-0.65-2.37-1.51-3.56-2.26
					c-1.08-0.65-2.05-0.43-2.91,0.43c-0.75,0.86-0.86,1.94-0.11,2.91c0.97,1.4,2.37,2.26,3.77,3.02c4.31,2.26,8.94,2.8,13.68,2.16
					c2.59-0.32,5.06-0.97,7.54-1.62c1.51-0.32,2.69-0.43,3.99,0.65C264.78,332.86,268.98,333.73,272.21,334.05z"/>
				<path class="st1" d="M144.85,263.69c0.32,0.97-0.32,1.83-0.65,2.69c-4.2,9.91-5.93,20.26-4.53,30.93
					c0.32,2.59,0.22,2.69-2.26,2.59c-8.3-0.32-16.59-0.22-25-0.86c-25.97-1.94-50-10.02-72.52-22.84
					c-9.59-5.5-17.89-12.5-23.71-22.09c-4.53-7.33-7.87-15.19-8.62-23.92c-0.22-2.59,0.11-5.17,1.08-7.65
					c0.86-2.48,2.48-3.45,5.06-3.56c2.69,0,5.06,0.75,7.44,1.83c4.96,2.16,9.48,5.28,13.9,8.3c20.15,13.79,42.02,23.81,65.62,29.85
					c13.58,3.45,27.48,5.06,41.49,4.42C143.12,263.36,144.09,263.04,144.85,263.69z"/>
				<path class="st1" d="M164.68,343.1c-0.86,0.54-1.08,0.75-1.4,0.86c-11.64,5.82-23.38,11.42-35.88,15.41
					c-11.75,3.77-23.81,4.85-36.1,4.53c-11.21-0.22-22.2-1.62-32.76-5.6c-14.55-5.39-27.15-13.79-37.5-25.43
					c-2.8-3.23-5.06-6.79-6.68-10.67c-0.65-1.51-1.08-3.12-1.29-4.74c-0.43-3.45,0.75-5.6,3.77-7.22c3.02-1.62,6.25-2.16,9.59-2.05
					c7,0.11,13.68,1.29,20.26,3.99c7.33,2.91,14.22,6.57,21.77,8.94c16.7,5.28,33.73,7,51.08,4.53c8.19-1.19,15.95-3.66,23.38-7.44
					c2.37-1.29,2.48-1.19,3.66,1.08c4.2,8.3,9.7,15.52,16.16,21.98C163.17,341.81,163.71,342.35,164.68,343.1z"/>
				<path class="st1" d="M378.03,307.87c-0.65-2.26,0.11-4.42,0.11-6.57c-0.22-6.9-1.29-13.58-3.56-20.04
					c-0.54-1.62-0.32-2.26,1.4-2.59c11.31-2.48,21.23-7.97,30.39-14.87c8.4-6.25,16.16-13.25,23.92-20.26
					c8.73-7.76,17.56-15.62,27.37-22.09c4.96-3.23,10.13-5.93,15.62-7.97c2.37-0.86,4.63-1.51,7.11-1.83
					c4.53-0.43,6.9,1.08,7.97,5.5c0.97,3.66,0.97,7.44,0.32,11.21c-1.08,7.11-3.88,13.47-7.97,19.4
					c-6.57,9.48-14.76,17.24-23.71,24.35c-17.13,13.47-35.77,24.14-56.46,31.03c-6.9,2.37-14.12,3.45-21.23,4.85
					C379.11,307.97,378.57,307.87,378.03,307.87z"/>
				<path class="st1" d="M360.68,344.29c0.32-0.54,0.54-0.86,0.86-1.19c4.42-5.06,8.08-10.67,10.88-16.81
					c0.54-1.19,0.86-1.94,2.59-1.29c14.65,5.06,29.63,5.5,44.83,3.56c12.82-1.62,25.32-4.96,37.61-8.84
					c6.9-2.16,13.9-4.2,21.23-5.06c9.27-0.97,13.68,3.02,13.58,12.39c-0.11,3.99-1.51,7.54-3.66,10.88
					c-4.63,7.22-10.99,12.71-18.43,17.03c-11.53,6.57-24.14,9.7-37.18,10.78c-15.09,1.19-29.74-0.86-43.64-6.9
					c-8.3-3.56-16.7-6.9-24.46-11.64C363.27,346.33,361.87,345.58,360.68,344.29z"/>
				<path class="st1" d="M176.21,230.82c-0.75,0.54-1.29,0.97-1.83,1.29c-6.9,4.53-13.15,9.81-18.53,16.16
					c-1.19,1.4-2.16,1.72-3.88,0.97c-22.41-10.13-42.56-23.38-57.76-43.21c-8.62-11.21-15.19-23.49-19.83-36.64
					c-2.59-7.33-3.56-15.09-3.66-22.84c0-3.66,0.75-7.22,2.16-10.67c2.26-5.6,8.94-7.22,13.68-3.34c2.05,1.62,3.45,3.77,4.74,6.03
					c4.09,7.22,8.08,14.55,12.28,21.77c13.36,23.49,30.6,43.53,52.69,59.26c5.28,3.77,10.88,6.9,16.92,9.48
					C174.27,229.42,175.34,229.53,176.21,230.82z"/>
				<path class="st1" d="M339.02,236.86c12.93-8.62,22.41-19.83,31.03-32c8.94-12.61,15.62-26.51,22.2-40.41
					c2.16-4.42,4.09-8.94,6.57-13.25c1.08-1.83,2.16-3.66,3.66-5.17c3.02-3.12,6.14-3.12,9.16,0c3.02,3.02,4.42,6.9,5.06,10.99
					c1.19,7.87,0.75,15.62-1.08,23.49c-4.63,20.9-14.33,39.65-25.86,57.43c-5.17,7.97-11.53,15.09-18.43,21.66
					c-1.62,1.51-2.69,3.56-4.85,4.63c-2.16-2.69-4.09-5.39-6.14-7.87c-2.16-2.48-4.31-4.96-6.68-7.22
					c-2.26-2.26-4.63-4.31-7.11-6.36C344.09,240.73,341.61,238.9,339.02,236.86z"/>
				<path class="st0" d="M209.72,370.26c-3.23,3.23-6.25,5.71-9.7,7.76c-2.8,1.62-5.82,2.26-9.16,1.83
					c-5.5-0.65-8.19-3.02-9.05-8.51c-0.75-4.53-0.11-9.05,0.22-13.58c0.22-0.11,0.32-0.22,0.32-0.22c0.11,0,0.22-0.11,0.32-0.11
					C191.29,362.17,200.02,366.7,209.72,370.26z"/>
				<path class="st0" d="M311.01,373.81c10.67-3.34,20.58-7.54,30.28-13.58c-0.86,6.47-2.05,12.18-5.39,17.35
					c-1.72,2.69-4.2,4.2-7.33,3.88C322,380.82,316.18,378.34,311.01,373.81z"/>
				<path d="M272.21,334.05c-3.23-0.32-7.44-1.19-10.88-4.09c-1.19-1.08-2.48-0.97-3.99-0.65c-2.48,0.65-4.96,1.29-7.54,1.62
					c-4.74,0.65-9.37,0.11-13.68-2.16c-1.51-0.75-2.8-1.72-3.77-3.02c-0.65-0.97-0.65-2.05,0.11-2.91c0.75-0.86,1.83-1.08,2.91-0.43
					c1.19,0.75,2.26,1.62,3.56,2.26c3.99,1.83,8.19,1.72,12.39,0.75c2.16-0.54,4.31-1.08,6.47-1.72c1.94-0.54,3.77-0.32,5.39,0.97
					c7.97,6.14,16.16,4.85,24.57,1.08c0.86-0.43,1.72-0.86,2.59-1.08c1.08-0.32,2.05,0,2.69,1.08c0.65,1.08,0.32,2.05-0.43,2.91
					c-0.86,0.97-1.94,1.62-3.12,2.26C284.93,333.19,278.36,334.48,272.21,334.05z"/>
				
					<ellipse transform="matrix(0.9987 -0.0506 0.0506 0.9987 -16.1439 16.4124)" class="st2" cx="316.06" cy="327.04" rx="17.13" ry="8.84"/>
				
					<ellipse transform="matrix(0.0283 -0.9996 0.9996 0.0283 -120.3544 521.4802)" class="st2" cx="208.05" cy="322.65" rx="8.84" ry="17.13"/>
				<path d="M219.52,317.13c-3.88,0.97-7.33,0.32-10.45-2.16c-2.8-3.34-4.09-7-2.26-11.31c1.62-3.99,5.39-6.36,9.7-6.25
					c3.99,0.11,7.65,2.91,9.05,6.68c1.4,3.99,0.22,8.4-3.02,11.1C221.46,315.95,220.49,316.49,219.52,317.13z M220.92,306.57
					c0.22-2.26-1.29-4.2-3.56-4.42c-2.16-0.22-3.88,1.29-4.09,3.34c-0.22,2.16,1.4,4.2,3.56,4.42
					C218.88,310.13,220.71,308.62,220.92,306.57z"/>
				<path d="M317.04,320.04c-0.65,0.54-1.29,0.97-1.94,1.51c-3.99,2.91-7.97,2.59-11.96,0.22c-4.31-4.42-5.17-8.51-2.91-12.93
					c2.59-4.96,8.51-6.9,13.58-4.2c4.96,2.59,6.79,8.73,4.2,13.58C317.69,318.86,317.15,319.29,317.04,320.04z M311.33,312.5
					c0.22-2.26-1.4-4.2-3.56-4.42c-2.05-0.11-3.88,1.4-4.09,3.45c-0.22,2.26,1.4,4.2,3.56,4.31
					C309.39,316.16,311.11,314.65,311.33,312.5z"/>
				<circle cx="215.86" cy="308.19" r="10.67"/>
				<circle cx="309.17" cy="313.68" r="10.67"/>
				<path class="st3" d="M220.92,306.57c-0.22,2.05-2.05,3.56-4.09,3.45c-2.16-0.22-3.77-2.26-3.56-4.42
					c0.22-2.05,2.05-3.56,4.09-3.34C219.52,302.37,221.14,304.31,220.92,306.57z"/>
				<path class="st3" d="M311.33,312.5c-0.22,2.16-1.94,3.66-4.09,3.45c-2.16-0.11-3.77-2.16-3.56-4.31
					c0.22-2.05,2.05-3.66,4.09-3.45C309.93,308.3,311.55,310.24,311.33,312.5z"/>
			</g>
		</g>
	</g>
</g>
</svg>
