<?xml version="1.0" encoding="utf-8"?>
<!-- Generator: Adobe Illustrator 26.2.1, SVG Export Plug-In . SVG Version: 6.00 Build 0)  -->
<svg version="1.1" id="Layer_1" xmlns="http://www.w3.org/2000/svg" xmlns:xlink="http://www.w3.org/1999/xlink" x="0px" y="0px"
	 viewBox="0 0 500 500" style="enable-background:new 0 0 500 500;" xml:space="preserve">
<style type="text/css">
	.st0{fill:#A1DD7B;}
	.st1{fill:#F7F8F8;}
	.st2{fill:#6BBDDD;}
	.st3{fill:#EDBBB8;}
	.st4{fill:#FAD4AE;}
	.st5{fill:#EAECEC;}
</style>
<g id="Layer_3">
	<g>
		<g>
			<g>
				<path d="M214.15,244.87c-1.86-0.78-3.72-0.17-5.57-0.22c-5-0.15-7.71-3.41-6.7-8.3c1.46-7.02,3.96-13.65,8.48-19.35
					c5.22-6.58,10.91-12.72,18.29-16.92c2.74-1.56,4.27-3.77,5.45-6.53c12.52-29.08,32.17-51.64,60.91-65.57
					c3.97-1.93,3.54-4.56,3.41-7.61c-1.2-25.88-2.41-51.75-3.66-77.62c-0.08-1.88-0.15-3.72,0.13-5.62c0.45-3.01,2.04-4.9,4.87-5.92
					c10.01-3.62,20.1-3.21,30.17-0.45c4.75,1.3,6.25,4.94,6.45,9.58c0.9,20.45,1.91,40.9,2.91,61.34c0.25,4.99,0.55,9.96,0.85,15.28
					c2.78,0.18,5.22,0.3,7.63,0.53c38.5,3.52,66.18,23.57,85.27,56.34c10.04,17.26,15.1,36.19,16.46,56.06
					c0.3,4.31,1.4,7.93,3.74,11.65c6.67,10.57,10.67,22.16,11.5,34.73c0.03,0.42,0.1,0.83,0.1,1.25c0.13,8.91-2.36,10.89-11.11,8.35
					c-3.57,10.62-7.25,21.23-10.71,31.9c-9.14,28.31-21.36,55.33-34.15,82.11c-6.12,12.82-12.25,25.62-19.04,38.1
					c-2.69,4.97-5.69,9.76-9.13,14.23c-9.56,12.42-22.01,16.86-37.55,14.61c-25.88-3.76-51.55-8.58-77.2-13.62
					c-5.74-1.13-11.44-2.53-17.06-4.16c-10.04-2.89-16.61-9.23-18.87-19.72c-4.54-21.06-7.15-42.41-9.36-63.79
					c-3.91-37.85-4.87-75.86-5.82-113.88C214.78,249.38,214.86,247.09,214.15,244.87z M295.76,448.86
					c16.89,2.91,33.71,6.1,50.69,8.5c11.65,1.65,20.46-1.75,27.01-11.45c3.39-5.04,6.58-10.17,9.33-15.58
					c18.95-37.24,37.24-74.78,50.57-114.49c3.26-9.71,6.55-19.4,9.66-29.14c1.66-5.24,1.55-5.37-3.28-7.41
					c-11.16-4.74-22.64-8.58-34.26-11.97c-10.82-3.16-21.74-6-32.58-9.09c-11.87-3.39-23.77-6.73-36.03-8.18
					c-10.16-1.2-20.33-2.53-30.46-3.92c-26-3.59-52.03-3.47-78.14-2.49c-4.75,0.18-4.75,0.25-4.52,4.99
					c0.75,15.43,1.65,30.86,2.23,46.3c1.11,29.64,2.58,59.27,6.67,88.68c2.01,14.46,3.19,29.08,6.85,43.29
					c0.98,3.81,2.49,7.12,5.5,9.58c3.13,2.54,6.78,4.04,10.71,4.97C268.92,444.47,282.36,446.58,295.76,448.86z M439.54,229.25
					c-1.55-18.74-6.07-34.88-14.68-49.94c-17.67-30.87-43.47-49.57-79.75-52.12c-4.57-0.32-4.65-0.27-4.42,4.22
					c1,20.43,2.04,40.86,3.04,61.31c0.28,5.89-0.88,5.54,6.2,6.95c25.47,5.09,50.37,12.1,74.23,22.51
					C429.05,224.33,433.89,226.65,439.54,229.25z M299.15,136.58c-25.49,13-42.82,32.28-54.98,58.19c19.7-2.78,38.42-2.43,57.59-1.6
					C300.89,174.47,300.04,156.18,299.15,136.58z M323.4,38c-4.97,0-9.97-0.65-14.98,0.25c-3.06,0.55-4.14,1.88-3.94,5.07
					c0.66,10.21,1.03,20.45,1.51,30.67c0.7,14.4,1.38,28.79,2.11,43.19c0.25,4.99,0.3,4.94,4.87,3.86
					c4.06-0.96,8.15-1.86,12.24-2.66c4.95-0.95,4.99-0.9,4.75-5.8c-0.65-14.2-1.31-28.38-1.99-42.58
					c-0.43-9.18-0.9-18.37-1.38-27.55C326.49,40.36,326.44,38.1,323.4,38z M333.31,196.51c0.78-2.43,0.6-4.29,0.5-6.17
					c-0.43-8.53-0.83-17.06-1.23-25.6c-0.53-11.02-1.03-22.06-1.61-33.08c-0.22-4.06-0.48-4.27-4.49-3.66
					c-4.74,0.73-9.38,1.91-13.98,3.26c-2.61,0.75-3.79,2.01-3.64,4.84c0.93,18.1,1.83,36.21,2.56,54.31
					c0.12,3.06,1.55,3.87,4.19,4.14C321.41,195.1,327.18,195.83,333.31,196.51z M274.68,233.19c7.95,0.68,15.01,1.18,22.04,1.96
					c2.81,0.32,3.59-0.9,4.06-3.34c1.43-7.38,2.86-14.76,5.49-21.84c0.68-1.86,1.81-3.76,1.15-6.35c-4.97-0.28-9.94-0.37-14.85-0.91
					c-3.19-0.37-5.04,0.93-6.7,3.39C280.39,214.1,277.45,223.13,274.68,233.19z M373.16,215.5c0.58,4.52,1.3,8.41,1.55,12.34
					c0.33,5.62,0.58,11.27,0.35,16.89c-0.13,3.26,1.11,4.34,4.02,4.94c3.87,0.81,7.61,2.29,11.49,3.11
					c2.73,0.58,5.35,2.23,8.51,1.35c-0.1-3.76-0.23-7.28-0.28-10.82c-0.08-7.03-1.85-13.6-4.97-19.87
					c-0.76-1.55-1.31-3.01-3.24-3.42C384.9,218.77,379.58,216.13,373.16,215.5z M311.27,226.17c-0.45,2.46-0.81,4.94-1.38,7.38
					c-0.58,2.49,0.42,3.31,2.79,3.56c5.6,0.57,11.19,1.21,16.74,2.09c2.58,0.42,3.74-0.17,4.31-2.86c1.78-8.4,2.48-16.89,2.68-25.45
					c0.05-2.38-0.47-3.91-3.26-4.17c-3.72-0.37-7.41-1.21-11.14-1.63c-4.42-0.5-4.72-0.3-6.15,4.19
					C314.11,214.85,312.16,220.37,311.27,226.17z M345.35,209.33c-0.17,9.74-0.42,19.3-2.43,28.69c-0.33,1.53-0.35,3.03,1.63,3.39
					c6.85,1.3,13.72,2.53,20.91,3.86c0.43-9.94,0.91-19.48-1.7-28.86c-0.53-1.95-0.78-4.12-3.52-4.54
					C355.34,211.11,350.6,209.36,345.35,209.33z M277.04,202.96c-10.34-1.9-18.52-0.35-23.54,9.13c-1.06,2.01-2.78,3.67-3.91,5.65
					c-2.78,4.8-5.45,9.66-6.7,15.54c6.53-0.07,12.55-0.28,18.57-0.15c2.64,0.07,3.69-1.05,4.32-3.41
					C268.28,220.45,271.98,211.63,277.04,202.96z M428.29,264.44c-0.83-6.63-1.46-12.2-2.24-17.74c-0.63-4.59-2.13-8.89-4.51-12.9
					c-0.75-1.26-1.26-2.73-2.73-3.28c-4.59-1.7-8.93-4.12-14.18-5.2c1.73,5.82,3.18,11.24,3.36,16.89c0.13,4.16,0.42,8.31,0.6,12.47
					c0.08,2.01,0.58,3.46,2.88,4.14C416.82,260.44,422.07,262.33,428.29,264.44z M247.98,204.59
					c-15.78,0.78-33.65,16.09-35.54,29.77c5.62-0.23,11.19-0.63,16.77-0.63c2.39,0,3.31-1.16,4.01-3.04
					C236.61,221.5,241.08,212.87,247.98,204.59z M433.39,238.09c2.53,9.19,3.03,17.97,4.64,26.58c0.33,1.81,0.13,3.99,2.26,4.8
					c4.8,1.81,9.19,4.74,14.71,5.92c-0.25-8.3-3.13-15.41-5.72-22.63C446.66,245.39,441.7,240.59,433.39,238.09z"/>
				<path class="st0" d="M295.76,448.86c-13.4-2.28-26.82-4.39-40.07-7.5c-3.92-0.91-7.58-2.43-10.71-4.97
					c-3.01-2.46-4.54-5.79-5.5-9.58c-3.64-14.23-4.84-28.83-6.85-43.29c-4.09-29.39-5.55-59.02-6.67-88.68
					c-0.58-15.44-1.48-30.87-2.23-46.3c-0.23-4.74-0.23-4.8,4.52-4.99c26.1-0.98,52.15-1.1,78.14,2.49
					c10.12,1.4,20.28,2.73,30.46,3.92c12.25,1.45,24.16,4.79,36.03,8.18c10.84,3.09,21.76,5.93,32.58,9.09
					c11.62,3.39,23.11,7.23,34.26,11.97c4.82,2.04,4.94,2.18,3.28,7.41c-3.11,9.74-6.4,19.43-9.66,29.14
					c-13.33,39.72-31.62,77.25-50.57,114.49c-2.74,5.4-5.93,10.54-9.33,15.58c-6.55,9.73-15.36,13.1-27.01,11.45
					C329.45,454.96,312.63,451.77,295.76,448.86z M388.85,283.48c-15.06-2.38-26.58,6.8-31.8,16.48c-1.9,3.49,0.02,6.58,3.79,7.45
					c5.49,1.25,10.34,1.71,13.82-4.24c1.45-2.48,4.7-3.37,7.63-3.91c6.25-1.13,12.88,1.18,14.43,6.08c1.33,4.22,4.32,5.69,7.53,7.55
					c2.01,1.16,3.86,1.63,5.82,0.35c2.24-1.46,2.39-3.72,1.99-6.13C410.25,295.83,400.12,285.52,388.85,283.48z M281.96,263.86
					c-12.22-2.46-26.47,4.59-32.1,15.89c-2.11,4.22-0.3,6.85,4.27,8c5.59,1.41,9.94,0.91,13.13-4.41c0.68-1.13,2.26-1.83,3.56-2.46
					c6.87-3.37,16.26-1.26,18.52,4.84c1.41,3.82,3.89,5.42,7.07,7.15c2.23,1.2,4.12,2.06,6.32,0.6c2.21-1.5,2.31-3.77,1.9-6.17
					C302.74,276.18,292.96,266.07,281.96,263.86z M392.24,332.44c3.69,0.68,7.38,1.3,11.06,2.04c3.01,0.62,5.85-0.05,8.53-1.23
					c3.66-1.6,4.57-6.55,1.71-9.34c-1.78-1.73-3.82-3.16-6.28-3.97c-7.51-2.49-15.16-4.37-23.01-5.47c-3.94-0.55-7.9-0.6-11.72,0.53
					c-2.04,0.6-3.86,1.85-4.16,4.21c-0.33,2.61,0.32,5,2.64,6.57c1.2,0.81,2.53,1.43,3.82,2.09
					C380.28,330.72,386.31,331.39,392.24,332.44z M261.14,310.92c3.69,0.68,7.36,1.36,11.06,2.03c0.42,0.07,0.83,0.15,1.23,0.17
					c5.45,0.27,9.31-1.75,10.12-5.29c0.9-3.94-1.76-7.3-7.28-9.33c-7.85-2.89-16.01-4.49-24.24-5.67
					c-3.69-0.53-7.51-0.62-11.09,0.71c-4.79,1.78-5.6,7.25-1.6,10.46c1.28,1.03,2.88,1.65,4.36,2.41
					C249.17,309.26,255.22,309.86,261.14,310.92z M300.91,391.67c1.01-6.27-3.49-12.75-9.71-13.95c-6.2-1.2-12.55,3.32-13.72,9.76
					c-1.16,6.45,3.13,12.65,9.54,13.8C293.39,402.41,299.91,397.9,300.91,391.67z M285.25,413.78c-5.98-1.25-11.79,2.58-13.13,8.66
					c-1.4,6.28,2.58,12.37,8.86,13.57c6,1.15,11.87-2.68,13.25-8.63C295.64,421.34,291.5,415.08,285.25,413.78z M352.99,401.23
					c1.28-6-3.03-12.4-9.13-13.6c-6.03-1.18-11.75,2.69-13.05,8.83c-1.31,6.22,2.21,11.84,8.35,13.27
					C345.41,411.2,351.7,407.35,352.99,401.23z M336.42,412.98c-5.9-1.1-11.95,2.91-13.22,8.76c-1.35,6.27,2.66,12.3,8.98,13.48
					c6.07,1.15,11.94-2.68,13.22-8.61C346.71,420.58,342.45,414.11,336.42,412.98z M261.01,413.13c5.89,1.15,11.44-2.54,12.68-8.43
					c1.3-6.17-2.53-11.72-8.88-12.87c-5.87-1.06-11.29,2.76-12.39,8.73C251.35,406.5,255.09,411.98,261.01,413.13z M377.27,419.7
					c0.95-5.65-3.11-11.45-8.76-12.55c-5.75-1.13-11.99,3.34-12.77,9.16c-0.78,5.72,3.34,11.19,9.16,12.15
					C370.73,429.42,376.3,425.48,377.27,419.7z M320.71,410.87c1.08-5.9-3.06-11.79-9.04-12.82c-5.9-1.03-11.14,2.68-12.3,8.73
					c-1.2,6.18,2.66,11.65,8.93,12.68C314.24,420.46,319.65,416.71,320.71,410.87z M319.33,439.63c1.2-5.93-2.46-11.35-8.41-12.45
					c-5.67-1.05-11.09,2.43-12.35,7.91c-1.28,5.55,2.58,11.69,8.13,12.92C312.33,449.26,318.15,445.4,319.33,439.63z M324.48,322.79
					c7.48,1.76,15.19-2.46,16.79-9.23c0.63-2.68,0.32-5.09-2.51-6.28c-2.41-1.03-4.47-0.33-5.93,1.91c-0.23,0.35-0.45,0.7-0.65,1.06
					c-1.08,1.96-2.51,3.34-4.97,2.86c-2.63-0.5-2.81-2.43-3.08-4.67c-0.43-3.66-2.26-5.25-5-5.09c-2.64,0.17-4.57,2.39-4.84,5.59
					C313.76,315.31,318.17,321.3,324.48,322.79z M244.34,392.98c5,1.06,10.74-2.64,11.97-7.75c1.26-5.24-2.64-11.3-7.96-12.35
					c-5.49-1.06-10.52,2.24-11.72,7.71C235.38,386.33,238.78,391.8,244.34,392.98z M352.6,452.98c5.67,1.05,10.92-2.54,12-8.18
					c1.08-5.72-2.39-10.77-8.2-11.9c-5.77-1.13-10.82,2.28-11.92,8.08C343.39,446.65,346.96,451.93,352.6,452.98z M257.45,417.77
					c-4.97-1.11-10.71,2.49-12.02,7.56c-1.36,5.34,2.28,11.22,7.68,12.4c5.3,1.16,10.59-2.18,11.87-7.51
					C266.31,424.62,262.92,419,257.45,417.77z"/>
				<path class="st1" d="M439.54,229.25c-5.65-2.59-10.49-4.92-15.39-7.07c-23.86-10.42-48.76-17.42-74.23-22.51
					c-7.07-1.41-5.9-1.05-6.2-6.95c-1-20.43-2.04-40.86-3.04-61.31c-0.22-4.49-0.15-4.56,4.42-4.22
					c36.26,2.56,62.08,21.25,79.75,52.12C433.47,194.39,437.98,210.51,439.54,229.25z"/>
				<path class="st1" d="M299.15,136.58c0.91,19.58,1.76,37.89,2.63,56.59c-19.18-0.83-37.89-1.18-57.59,1.6
					C256.32,168.87,273.64,149.6,299.15,136.58z"/>
				<path class="st2" d="M323.4,38c3.04,0.1,3.09,2.36,3.21,4.47c0.48,9.18,0.95,18.35,1.38,27.55c0.68,14.2,1.33,28.38,1.99,42.58
					c0.23,4.9,0.2,4.84-4.75,5.8c-4.11,0.78-8.18,1.7-12.24,2.66c-4.57,1.08-4.62,1.13-4.87-3.86c-0.73-14.4-1.41-28.79-2.11-43.19
					c-0.5-10.22-0.85-20.46-1.51-30.67c-0.2-3.19,0.88-4.54,3.94-5.07C313.44,37.35,318.43,38,323.4,38z"/>
				<path class="st2" d="M333.31,196.51c-6.15-0.7-11.92-1.41-17.71-1.98c-2.64-0.25-4.07-1.08-4.19-4.14
					c-0.73-18.1-1.63-36.21-2.56-54.31c-0.15-2.83,1.03-4.09,3.64-4.84c4.61-1.35,9.24-2.53,13.98-3.26
					c3.99-0.62,4.27-0.38,4.49,3.66c0.58,11.02,1.08,22.06,1.61,33.08c0.42,8.53,0.81,17.06,1.23,25.6
					C333.91,192.22,334.09,194.1,333.31,196.51z"/>
				<path class="st1" d="M274.68,233.19c2.78-10.04,5.72-19.09,11.19-27.13c1.66-2.46,3.51-3.76,6.7-3.39
					c4.92,0.57,9.88,0.63,14.85,0.91c0.66,2.59-0.47,4.49-1.15,6.35c-2.63,7.1-4.06,14.48-5.49,21.84
					c-0.48,2.44-1.25,3.66-4.06,3.34C289.69,234.35,282.62,233.87,274.68,233.19z"/>
				<path class="st1" d="M373.16,215.5c6.42,0.63,11.75,3.28,17.44,4.52c1.91,0.42,2.46,1.88,3.24,3.42
					c3.13,6.27,4.89,12.85,4.97,19.87c0.03,3.54,0.18,7.08,0.28,10.82c-3.16,0.88-5.79-0.76-8.51-1.35
					c-3.87-0.83-7.61-2.31-11.49-3.11c-2.91-0.62-4.16-1.68-4.02-4.94c0.23-5.62-0.02-11.27-0.35-16.89
					C374.46,223.91,373.74,220.02,373.16,215.5z"/>
				<path class="st1" d="M311.27,226.17c0.9-5.8,2.86-11.32,4.62-16.87c1.41-4.49,1.73-4.69,6.15-4.19
					c3.72,0.42,7.41,1.26,11.14,1.63c2.79,0.27,3.31,1.8,3.26,4.17c-0.2,8.56-0.9,17.06-2.68,25.45c-0.57,2.69-1.73,3.26-4.31,2.86
					c-5.55-0.88-11.16-1.53-16.74-2.09c-2.38-0.25-3.37-1.06-2.79-3.56C310.45,231.11,310.8,228.63,311.27,226.17z"/>
				<path class="st1" d="M345.35,209.33c5.25,0.03,9.99,1.78,14.9,2.53c2.74,0.42,2.99,2.61,3.52,4.54
					c2.61,9.38,2.13,18.92,1.7,28.86c-7.18-1.31-14.05-2.56-20.91-3.86c-1.98-0.37-1.96-1.86-1.63-3.39
					C344.93,228.62,345.18,219.07,345.35,209.33z"/>
				<path class="st1" d="M277.04,202.96c-5.05,8.66-8.76,17.49-11.27,26.8c-0.63,2.36-1.66,3.46-4.32,3.41
					c-6.02-0.13-12.05,0.07-18.57,0.15c1.26-5.89,3.94-10.76,6.7-15.54c1.15-1.98,2.84-3.64,3.91-5.65
					C258.52,202.61,266.7,201.07,277.04,202.96z"/>
				<path class="st1" d="M428.29,264.44c-6.23-2.09-11.47-4.01-16.82-5.6c-2.29-0.68-2.79-2.14-2.88-4.14
					c-0.18-4.16-0.45-8.31-0.6-12.47c-0.18-5.67-1.63-11.09-3.36-16.89c5.25,1.08,9.58,3.52,14.18,5.2
					c1.46,0.53,1.98,2.01,2.73,3.28c2.38,4.01,3.87,8.31,4.51,12.9C426.82,252.24,427.47,257.81,428.29,264.44z"/>
				<path class="st1" d="M247.98,204.59c-6.9,8.28-11.37,16.89-14.76,26.1c-0.7,1.88-1.61,3.04-4.01,3.04
					c-5.57,0-11.16,0.4-16.77,0.63C214.34,220.7,232.2,205.37,247.98,204.59z"/>
				<path class="st1" d="M433.39,238.09c8.31,2.51,13.27,7.31,15.91,14.68c2.58,7.22,5.47,14.33,5.72,22.63
					c-5.52-1.18-9.91-4.11-14.71-5.92c-2.14-0.81-1.93-2.99-2.26-4.8C436.42,256.06,435.9,247.29,433.39,238.09z"/>
				<path d="M388.85,283.48c11.29,2.04,21.4,12.34,23.22,23.62c0.38,2.41,0.25,4.67-1.99,6.13c-1.96,1.28-3.81,0.81-5.82-0.35
					c-3.23-1.86-6.2-3.32-7.53-7.55c-1.55-4.9-8.18-7.22-14.43-6.08c-2.94,0.53-6.18,1.41-7.63,3.91c-3.46,5.95-8.33,5.5-13.82,4.24
					c-3.79-0.86-5.69-3.96-3.79-7.45C362.27,290.29,373.79,281.1,388.85,283.48z"/>
				<path d="M281.96,263.86c11.02,2.21,20.8,12.32,22.68,23.42c0.42,2.39,0.32,4.69-1.9,6.17c-2.19,1.48-4.09,0.62-6.32-0.6
					c-3.19-1.73-5.65-3.32-7.07-7.15c-2.26-6.08-11.65-8.21-18.52-4.84c-1.3,0.63-2.88,1.33-3.56,2.46
					c-3.19,5.32-7.53,5.82-13.13,4.41c-4.57-1.16-6.38-3.77-4.27-8C255.49,268.45,269.72,261.4,281.96,263.86z"/>
				<path class="st3" d="M392.24,332.44c-5.93-1.05-11.97-1.73-17.42-4.56c-1.3-0.66-2.63-1.3-3.82-2.09
					c-2.33-1.56-2.98-3.94-2.64-6.57c0.3-2.36,2.11-3.61,4.16-4.21c3.84-1.13,7.78-1.08,11.72-0.53c7.85,1.1,15.49,2.96,23.01,5.47
					c2.44,0.81,4.51,2.24,6.28,3.97c2.86,2.79,1.96,7.75-1.71,9.34c-2.68,1.16-5.52,1.83-8.53,1.23
					C399.63,333.75,395.92,333.12,392.24,332.44z"/>
				<path class="st3" d="M261.14,310.92c-5.92-1.06-11.99-1.66-17.44-4.51c-1.48-0.76-3.08-1.38-4.36-2.41
					c-4.01-3.21-3.19-8.68,1.6-10.46c3.56-1.33,7.38-1.25,11.09-0.71c8.23,1.18,16.39,2.78,24.24,5.67c5.52,2.03,8.2,5.39,7.28,9.33
					c-0.81,3.52-4.67,5.55-10.12,5.29c-0.42-0.02-0.83-0.1-1.23-0.17C268.52,312.27,264.83,311.61,261.14,310.92z"/>
				<path d="M300.91,391.67c-1,6.22-7.51,10.74-13.86,9.61c-6.42-1.15-10.72-7.35-9.54-13.8c1.16-6.45,7.51-10.96,13.72-9.76
					C297.42,378.94,301.92,385.4,300.91,391.67z"/>
				<path d="M285.25,413.78c6.25,1.3,10.37,7.56,8.98,13.6c-1.38,5.95-7.25,9.78-13.25,8.63c-6.28-1.21-10.26-7.28-8.86-13.57
					C273.46,416.36,279.26,412.53,285.25,413.78z"/>
				<path d="M352.99,401.23c-1.3,6.12-7.56,9.97-13.83,8.51c-6.13-1.45-9.66-7.05-8.35-13.27c1.3-6.13,7.02-10.01,13.05-8.83
					C349.97,388.83,354.27,395.23,352.99,401.23z"/>
				<path d="M336.42,412.98c6.03,1.11,10.29,7.58,8.98,13.63c-1.3,5.93-7.15,9.76-13.22,8.61c-6.3-1.18-10.32-7.22-8.98-13.48
					C324.47,415.91,330.52,411.89,336.42,412.98z"/>
				<path d="M261.01,413.13c-5.9-1.15-9.66-6.65-8.58-12.55c1.1-5.97,6.52-9.79,12.39-8.73c6.35,1.15,10.17,6.7,8.88,12.87
					C272.45,410.61,266.9,414.28,261.01,413.13z"/>
				<path d="M377.27,419.7c-0.96,5.79-6.53,9.73-12.39,8.76c-5.82-0.96-9.94-6.43-9.16-12.15c0.8-5.82,7.02-10.29,12.77-9.16
					C374.17,408.26,378.21,414.06,377.27,419.7z"/>
				<path d="M320.71,410.87c-1.06,5.84-6.47,9.58-12.42,8.59c-6.27-1.03-10.11-6.52-8.93-12.68c1.16-6.03,6.38-9.76,12.3-8.73
					C317.65,399.1,321.79,404.97,320.71,410.87z"/>
				<path d="M319.33,439.63c-1.18,5.79-6.98,9.64-12.63,8.38c-5.55-1.23-9.41-7.36-8.13-12.92c1.26-5.49,6.68-8.96,12.35-7.91
					C316.85,428.28,320.53,433.7,319.33,439.63z"/>
				<path d="M324.48,322.79c-6.33-1.5-10.72-7.46-10.19-13.83c0.27-3.19,2.19-5.42,4.84-5.59c2.76-0.17,4.57,1.41,5,5.09
					c0.27,2.24,0.45,4.16,3.08,4.67c2.48,0.47,3.89-0.9,4.97-2.86c0.2-0.37,0.42-0.71,0.65-1.06c1.46-2.24,3.52-2.93,5.93-1.91
					c2.83,1.2,3.14,3.61,2.51,6.28C339.68,320.32,331.96,324.56,324.48,322.79z"/>
				<path d="M244.34,392.98c-5.57-1.18-8.98-6.65-7.71-12.37c1.2-5.49,6.23-8.79,11.72-7.71c5.3,1.03,9.23,7.1,7.96,12.35
					C255.08,390.34,249.36,394.05,244.34,392.98z"/>
				<path d="M352.6,452.98c-5.62-1.05-9.21-6.33-8.13-12.02c1.1-5.8,6.15-9.21,11.92-8.08c5.8,1.15,9.29,6.2,8.2,11.9
					C363.52,450.44,358.25,454.03,352.6,452.98z"/>
				<path d="M257.45,417.77c5.47,1.23,8.86,6.85,7.53,12.45c-1.26,5.32-6.55,8.68-11.87,7.51c-5.4-1.2-9.04-7.07-7.68-12.4
					C246.75,420.26,252.48,416.66,257.45,417.77z"/>
			</g>
		</g>
	</g>
</g>
<g id="Layer_4">
	<g>
		<g>
			<g>
				<path d="M167.98,196.65c2.81-2.73,5.49-5.2,9.08-6.43c4.29-1.48,8.36-1.06,12.09,1.36c4.36,2.84,6.18,4.02,10.26,11.44
					c3.44-2.99,7.03-5.72,11.8-6.08c4.79-0.35,8.81,1.45,12.42,4.79c1.21-3.59,2.26-6.88,3.42-10.14
					c2.51-7.05,5.32-13.96,9.43-20.27c2.26-3.49,5.12-6.37,8.73-8.51c1.48-0.88,3.08-1.4,4.74-1.65c3.79-0.57,6.82,0.83,9.03,3.92
					c3.92,5.45,6.03,11.45,5.82,18.27c-0.35,10.94-2.69,21.48-6.23,31.74c-3.21,9.34-6.83,18.54-10.24,27.81
					c-2.96,8.05-4.41,16.39-4.74,24.97c-0.18,4.7-0.43,9.49-1.7,14.03c-3.67,13.18-10.67,24.12-22.34,31.74
					c-10.01,6.52-20.6,11.75-32.38,14.2c-8.94,1.85-17.72,1.35-26.38-1.88c-7.86-2.94-15.23-6.67-21.76-11.92
					c-8.53-6.87-16.41-14.36-22.83-23.36c-6.95-9.74-13.88-19.5-22.14-28.21c-9.91-10.46-20.02-20.71-31.27-29.74
					c-4.75-3.82-9.66-7.46-14.63-11.01c-2.36-1.68-3.64-3.62-3.56-6.55c0.12-3.59,0.47-7.12,1.8-10.51
					c1.88-4.79,5.24-7.81,10.29-8.81c5.84-1.15,11.54-0.5,17.06,1.6c6.17,2.34,11.4,6.28,16.84,9.89
					c6.13,4.09,11.27,9.48,17.39,13.58c4.04,2.71,8.26,5.02,13.12,5.93c3.08,0.58,4.22-0.03,5.19-3.09
					c1.13-3.61,2.06-7.26,2.64-11.01c1.16-7.41,4.11-14.16,8.5-20.17c5.95-8.16,15.48-9.41,23.96-3.49
					C164.19,191.01,166.48,193.39,167.98,196.65z M180.26,324.82c3.09-0.62,6.2-1.16,9.28-1.88c8.58-2.03,16.38-5.97,23.94-10.34
					c10.96-6.33,18.75-15.36,23.06-27.38c2.28-6.35,2.69-12.95,3.01-19.55c0.38-8.06,1.81-15.93,4.61-23.44
					c3.49-9.36,7.05-18.7,10.36-28.13c3.36-9.56,5.6-19.4,6.08-29.56c0.28-5.72-0.95-11.07-4.19-15.88
					c-2.53-3.74-5.24-4.46-9.13-2.19c-2.94,1.7-5.32,4.07-7.2,6.93c-4.31,6.57-7.05,13.88-9.86,21.13
					c-1.33,3.42-2.36,6.97-3.44,10.47c-0.71,2.34-2.81,2.79-4.72,1.28c-0.57-0.45-1-1.08-1.51-1.61c-2.59-2.59-5.7-3.97-9.39-3.59
					c-3.74,0.4-6.7,2.36-9.19,5.04c-3.77,4.06-4.24,4.02-6.43-1.1c-1.66-3.87-4.16-7.03-7.66-9.39c-3.97-2.68-8.03-2.86-12.15-0.42
					c-1.99,1.18-3.74,2.68-5.19,4.52c-1.51,1.93-3.81,1.83-5.25-0.13c-0.25-0.33-0.43-0.71-0.62-1.1c-1.6-3.56-4.47-5.72-7.88-7.36
					c-6.12-2.96-12.29-1.58-16.13,4.04c-3.96,5.79-6.78,12.1-7.76,19.13c-0.53,3.76-1.51,7.41-2.71,11.01
					c-1.63,4.89-4.36,6.38-9.44,5.62c-7.68-1.16-13.88-5.39-19.77-10.01c-4.14-3.24-7.96-6.88-12.3-9.86
					c-5.02-3.46-9.96-7.07-15.64-9.46c-5-2.09-10.16-2.56-15.48-1.65c-3.24,0.55-5.55,2.38-7.05,5.27c-1.28,2.48-1.66,5.19-2.03,7.9
					c-0.32,2.31,0.38,3.96,2.36,5.37c4.79,3.42,9.53,6.95,14.13,10.62c6.9,5.52,13.45,11.44,19.73,17.66
					c11.2,11.11,21.73,22.78,30.77,35.76c6,8.61,12.49,16.86,20.65,23.67c8.06,6.73,16.47,12.62,26.47,16.23
					C168.39,324.54,174.18,325.34,180.26,324.82z"/>
				<path class="st4" d="M180.26,324.82c-6.08,0.52-11.87-0.28-17.67-2.38c-9.99-3.61-18.42-9.51-26.47-16.23
					c-8.16-6.82-14.65-15.06-20.65-23.67c-9.04-12.98-19.57-24.65-30.77-35.76c-6.28-6.22-12.83-12.15-19.73-17.66
					c-4.61-3.67-9.33-7.2-14.13-10.62c-1.98-1.41-2.68-3.06-2.36-5.37c0.37-2.73,0.75-5.44,2.03-7.9c1.5-2.89,3.79-4.72,7.05-5.27
					c5.32-0.9,10.47-0.45,15.48,1.65c5.69,2.39,10.62,6,15.64,9.46c4.34,2.98,8.16,6.62,12.3,9.86c5.89,4.62,12.09,8.83,19.77,10.01
					c5.09,0.78,7.81-0.73,9.44-5.62c1.2-3.59,2.18-7.25,2.71-11.01c0.98-7.03,3.81-13.35,7.76-19.13c3.86-5.62,10.02-7,16.13-4.04
					c3.41,1.65,6.28,3.81,7.88,7.36c0.17,0.38,0.37,0.76,0.62,1.1c1.43,1.96,3.74,2.08,5.25,0.13c1.45-1.85,3.19-3.34,5.19-4.52
					c4.12-2.44,8.18-2.26,12.15,0.42c3.51,2.36,6,5.5,7.66,9.39c2.19,5.12,2.66,5.15,6.43,1.1c2.49-2.68,5.45-4.65,9.19-5.04
					c3.71-0.38,6.8,1,9.39,3.59c0.52,0.52,0.95,1.15,1.51,1.61c1.91,1.51,4.01,1.06,4.72-1.28c1.06-3.52,2.11-7.07,3.44-10.47
					c2.83-7.25,5.55-14.56,9.86-21.13c1.88-2.86,4.24-5.24,7.2-6.93c3.91-2.26,6.6-1.55,9.13,2.19c3.24,4.8,4.46,10.16,4.19,15.88
					c-0.5,10.17-2.73,20-6.08,29.56c-3.32,9.43-6.87,18.77-10.36,28.13c-2.79,7.51-4.22,15.38-4.61,23.44
					c-0.32,6.6-0.73,13.2-3.01,19.55c-4.31,12.02-12.1,21.03-23.06,27.38c-7.56,4.37-15.34,8.31-23.94,10.34
					C186.48,323.66,183.36,324.21,180.26,324.82z M150.31,293.97c-0.93,1-2.18,1.58-3.13,2.61c-2.34,2.54-1.4,4.9,1.5,6.23
					c0.86,0.4,1.8,0.55,2.76,0.42c4.72-0.68,9.16-2.09,12.97-5.12c1.66-1.33,3.01-2.79,2.33-5.05c-0.62-2.03-2.48-2.34-4.29-2.58
					c0.6-1.11,1.25-2.18,1.76-3.32c1.8-4.01,0.91-9.18-2.04-12.34c-3.37-3.61-8.43-4.82-12.98-2.94c-4.49,1.86-6.83,5.37-7.25,10.17
					C141.51,286.74,144.59,292.17,150.31,293.97z M210.65,274.77c0.05,1.05-0.81,1.65-1.21,2.48c-0.76,1.65-0.2,3.77,1.31,4.26
					c1.96,0.63,4.06,0.93,6.12,0.43c1.81-0.43,3.62-0.98,5.35-1.66c2.43-0.96,4.75-2.18,6.47-4.24c2.46-2.98,1.71-5.3-1.95-6.27
					c-1.75-0.47-3.51-0.43-5.29-0.18c1.45-3.11,2.39-6.3,1.31-9.73c-1.46-4.62-4.65-7.51-9.43-8.25c-4.75-0.71-8.73,0.96-11.4,5.05
					c-2.64,4.06-2.76,8.25-0.27,12.47C203.71,272.55,206.78,274.27,210.65,274.77z M188.04,291.64c0.3-0.07,0.73-0.13,1.11-0.28
					c2.38-0.93,4.64-5.5,3.87-7.95c-0.3-0.95-0.9-1.66-2.03-1.61c-0.93,0.05-1.58,0.48-1.8,1.45c-0.22,1.01-0.35,2.06-0.68,3.04
					c-0.38,1.15-1.21,1.43-2.18,0.62c-0.63-0.53-1.11-1.21-1.7-1.81c-0.76-0.8-1.66-0.85-2.58-0.35c-1,0.55-1.06,1.46-0.76,2.44
					C182.08,289.54,185.52,291.89,188.04,291.64z"/>
				
					<ellipse transform="matrix(0.9518 -0.3068 0.3068 0.9518 -83.548 62.6111)" class="st3" cx="157.39" cy="297.07" rx="12.35" ry="6.28"/>
				<circle cx="153.78" cy="282.96" r="11.95"/>
				
					<ellipse transform="matrix(0.9339 -0.3575 0.3575 0.9339 -84.2809 96.3424)" class="st3" cx="218.44" cy="276.13" rx="13.05" ry="6.28"/>
				<circle cx="211.34" cy="262.83" r="12.47"/>
				<path d="M188.04,291.64c-2.53,0.23-5.97-2.09-6.72-4.47c-0.32-0.98-0.25-1.91,0.76-2.44c0.91-0.5,1.83-0.43,2.58,0.35
					c0.57,0.6,1.06,1.28,1.7,1.81c0.96,0.81,1.8,0.53,2.18-0.62c0.33-0.98,0.47-2.03,0.68-3.04c0.22-0.96,0.85-1.4,1.8-1.45
					c1.13-0.05,1.75,0.68,2.03,1.61c0.76,2.44-1.5,7.02-3.87,7.95C188.78,291.51,188.34,291.57,188.04,291.64z"/>
				<path class="st5" d="M215.91,260.5c-3.49,0.18-4.69-0.48-5.52-2.86c-0.58-1.65-0.02-2.34,1.78-2.14
					c2.04,0.23,3.79,1.06,5.15,2.66c0.35,0.42,0.75,0.83,0.66,1.36c-0.12,0.78-0.88,0.75-1.46,0.9
					C216.21,260.5,215.89,260.5,215.91,260.5z"/>
				<path class="st5" d="M205.92,267.95c-2.11-2.64-2.41-5.2-1.15-8.06C207.3,262.3,207.7,264.61,205.92,267.95z"/>
				<path class="st5" d="M211.57,270.53c0.57-3.59,1.63-4.11,5.3-2.51C215.58,269.98,213.76,270.56,211.57,270.53z"/>
				<path class="st5" d="M157.79,280.05c-3.76,0.12-4.94-0.45-5.55-3.51c-0.22-1.1,0.32-1.55,1.38-1.51
					c2.31,0.1,4.26,0.95,5.72,2.79c0.32,0.4,0.83,0.78,0.65,1.33c-0.23,0.7-0.95,0.73-1.56,0.81
					C158.2,280.02,158,280.04,157.79,280.05z"/>
				<path class="st5" d="M146.9,279.25c2.06,2.24,2.23,4.56,1.88,7c-0.07,0.45-0.38,0.81-0.8,0.88c-0.42,0.08-0.78-0.2-0.98-0.62
					C145.9,284.29,145.44,282.03,146.9,279.25z"/>
				<path class="st5" d="M153.6,290.13c0.4-3.66,1.99-4.34,5.24-2.24C157.37,289.38,155.73,290.21,153.6,290.13z"/>
			</g>
		</g>
	</g>
</g>
</svg>
