<?xml version="1.0" encoding="utf-8"?>
<!-- Generator: Adobe Illustrator 26.2.1, SVG Export Plug-In . SVG Version: 6.00 Build 0)  -->
<svg version="1.1" id="Layer_2_00000100384521448249481800000013449494578047828872_"
	 xmlns="http://www.w3.org/2000/svg" xmlns:xlink="http://www.w3.org/1999/xlink" x="0px" y="0px" viewBox="0 0 500 500"
	 style="enable-background:new 0 0 500 500;" xml:space="preserve">
<style type="text/css">
	.st0{fill:#F09F45;}
	.st1{fill:#479410;}
	.st2{fill:#BF7D2C;}
	.st3{fill:#EEB9B7;}
</style>
<g id="Layer_2_00000060026087748047088460000015246320657185900454_">
	<g>
		<g>
			<g>
				<path d="M331.7,72.5c9.9-3.3,18.7-2.3,27,3.1c4,2.6,7.1,5.9,9.6,10c8.2,13.5,11.8,28.2,11.5,43.9c-0.6,30.6-4.8,60.7-11.7,90.5
					c-5.2,22.7-12.7,44.6-22.1,65.9c-1.9,4.3-1.9,4.4,1.9,7.2c2.7,2.1,5.4,4.4,8.3,6c3.8,2.1,4.9,4.9,4.5,9
					c-1.4,14.5-4.1,28.8-9.6,42.4c-1.6,4-4.4,6.4-8.7,6.3c-3.9-0.1-5,1.7-5.7,5.2c-5.5,26.8-13.9,52.7-24.5,77.8
					c-3.4,8-7.4,15.6-12.3,22.8c-13.9,20.6-33.5,29.7-58,28.1c-22.8-1.5-45.2-6.2-66.8-13.7c-3.8-1.3-7.6-2.8-11.2-4.5
					c-6.7-3.1-12.3-7.7-16.4-13.9c-6.2-9.3-10.8-19.2-12.9-30.4c-4.1-21.7-4.8-43.7-4.4-65.7c0.2-11.7,1-23.4,1.7-35.1
					c0.2-3.1-0.1-5.3-3.5-6.7c-4.1-1.7-5.5-5.2-5.5-9.8c0.2-15.9,5.1-30.5,11.5-44.8c1.6-3.6,4.8-5.2,8.1-6.8
					c3.2-1.6,8.1-1.7,9.3-4.8c1.2-3-0.4-7.1-0.7-10.6c-2.7-26.7-4.6-53.5-3.2-80.3c1.5-29,7.7-56.7,23.4-81.7
					c4.9-7.8,10.4-14.8,17.8-20.3c12.8-9.3,26-11.5,40.1-3.4c2.9,1.7,3.6,0.6,4.8-1.8c5-9.9,10.6-19.5,17-28.6
					c4.1-5.8,9-10.8,14.7-15.2c18.1-14,36.4-6.8,47.6,7.7c4.8,6.3,8.1,13.5,10.6,21C327.4,51.2,330.2,61.3,331.7,72.5z M140.8,330.7
					c-1,3.4-0.5,6.8-0.6,10.2c-1.1,23.6-0.9,47.2,1.5,70.7c1.2,11.9,4,23.4,9,34.4c4.3,9.2,10.8,15.6,20.4,19.4
					c13.4,5.2,27.1,9.1,41.1,12.3c11.2,2.6,22.6,4.3,34.1,4.3c18.9,0,34-7.4,44.9-23c3.1-4.5,5.9-9.2,8.4-14
					c7.3-14.2,12.1-29.4,17.3-44.5c4.2-12.2,7.7-24.6,10-37.4c0.8-4.5,0.8-4.5-3-4.4c-0.6,0-1.2,0-1.8,0
					c-27.2,1.9-54.3-0.8-81.2-4.6c-10.4-1.5-20.7-3.4-31-5.4c-15-2.8-29.8-6.9-44.2-12c-7.6-2.7-15.1-5.5-22.6-8.6
					C139.6,326.7,140.4,328.9,140.8,330.7z M234.9,293.8c1-2,0.3-3.7,0.1-5.5c-1.1-10.3-1.1-20.6-0.1-30.8
					c1.6-16.5,5.1-32.7,11.5-48.1c3.2-7.7,5.4-15.4,4.7-23.9c-0.4-5.2-0.1-10.5,0.1-15.7c1-19.4,0.7-38.7-3.8-57.7
					c-3.4-14.2-7.1-28.2-16.4-40c-6.4-8.1-15.8-11.2-25.8-8.4c-8,2.3-14,7.2-18.9,13.4c-12.7,16.1-20.4,34.7-24.5,54.7
					c-1.8,8.5-3,17-3.6,25.7c-0.8,10.9-0.9,21.7-0.9,32.6c0.1,15.3,1.6,30.6,2.6,45.8c0.7,9.8,1.5,19.7,3.3,29.4
					c0.7,3.8,1.9,7,6.3,7.9c1.3,0.3,2.6,1,3.9,1.6c13.6,5.7,27.7,9.8,41.7,14.2C221.5,291.1,228,293.8,234.9,293.8z M363.6,195.5
					c2.1-12.5,3.5-22.3,4.5-32.1c1.2-12,2.5-24,2.3-36.1c-0.3-13.9-3.2-27.2-11.6-38.8c-6.8-9.3-18.4-10.8-27.5-3.7
					c-2.7,2.1-5.1,4.6-7.1,7.4c-6.7,8.9-12,18.6-15.6,29.2c-3.2,9.3-6.9,18.5-8.3,28.3c-0.5,3.8-0.4,7.7-1.1,11.4
					c-0.8,4-0.1,6.6,3.5,9.1c8.2,5.5,13.4,13.2,15.1,23.1c0.6,3.4,1.1,6.8,1.3,10.2c0.8,14.7-0.2,29.3-1.2,44
					c-1.1,16-4.7,31.5-8.8,46.8c-2.3,8.7-2.7,9,5.9,8.7c12.2-0.3,11.1,2.1,16.6-9.6c0.2-0.4,0.3-0.7,0.5-1.1
					c10.5-20.1,18.2-41.2,24-63C359.3,217.3,362.6,205.2,363.6,195.5z M352.1,309.7c-6,0.7-11.4,1.5-16.8,1.9
					c-30.3,2.4-60.4,0.7-90.3-5.4c-25.8-5.2-50.8-12.9-75.4-22.3c-9.4-3.6-18.5-7.8-28-11.7c-5,10.7-7.8,21.8-8.8,33.3
					c-0.6,6.7-0.6,7,5.4,9.8c21.2,10.2,43.3,17.9,66.3,22.6c20.2,4.1,40.5,7.6,61,9.7c24,2.5,47.9,3,71.9,1.2
					c3.3-0.2,5.2-1.4,6.3-4.5C347.8,333.4,350.6,322.1,352.1,309.7z M260.7,181c1.5-1,2.1-1.2,2.5-1.6c6.8-6.9,14.8-11.8,24.4-13.6
					c2.5-0.5,2.7-2.1,2.7-4c-0.1-3,0.2-6,0.6-9c1.5-12.3,4.4-24.2,8.8-35.7C304.4,105,310,93.4,319,83.8c3.1-3.4,3.8-6.7,3.2-11
					c-1.6-11.3-4.8-22.1-8.6-32.7c-1.8-5.1-4.2-10.1-7.7-14.3c-7.3-9-17.4-14.3-28-9.6c-3.7,1.7-7,4-9.9,6.8
					c-11.9,11.5-19.9,25.8-27.6,40.2c-1.2,2.3-0.6,4.1,0.7,6.2c2.9,4.6,5.7,9.3,7.7,14.4c8.7,22.4,12.7,45.7,12.5,69.8
					C261.1,162.3,260.9,171.1,260.7,181z M305.9,265.2c3.6-17.5,3.8-35.2,4-52.9c0.1-8.1-0.1-16.4-3.6-23.7
					c-5.3-11-15-17.5-27.3-9.4c-8.4,5.5-14.4,12.7-18.6,21.7c-7.9,16.9-12.9,34.7-15.3,53.2c-1.7,12.6-1.8,25.2-0.8,37.9
					c0.3,3.4,1.8,4.1,4.6,4.9c8.4,2.4,17.1,2.4,25.5,4.3c5.6,1.2,11.2,0.7,16.8,1.4c4,0.5,5.1-0.5,6.6-4.6
					C301.6,287.3,304.2,276.3,305.9,265.2z M343,301c-0.5-0.9-1.2-1.5-2.3-1.7c-1-0.1-1.4,0.6-1.5,1.4c-0.1,1.5,1,1.5,2,1.3
					C342,302.1,342.8,302,343,301z"/>
				<path class="st0" d="M326.8,363.1c-2.3,12.7-5.8,25.1-10,37.4c-5.1,15.1-9.9,30.3-17.3,44.5c-2.5,4.9-5.2,9.5-8.4,14
					c-10.9,15.6-26.1,23-44.9,23c-11.5,0-22.9-1.7-34.1-4.3c-14-3.2-27.7-7-41.1-12.3c-9.7-3.8-16.2-10.1-20.4-19.4
					c-5.1-10.9-7.9-22.5-9-34.4c-2.3-23.5-2.6-47.1-1.5-70.7c0.2-3.4-0.4-6.9,0.6-10.2c11.3,7.1,23.6,12.2,36.6,14.7
					c13.6,2.6,27,6.7,40.7,8.6c5.9,0.8,12,1.5,17.6,4c2.1,1,4.8,1.4,7.1,1.2c5.6-0.4,10.9,0.8,16.2,1.8c9.1,1.8,18.4,1.3,27.6,1.7
					c10.5,0.4,21.2,1.8,31.8,0C321.2,362.3,324.1,362.1,326.8,363.1z M265.3,443.1c1-1.5,2.2-2.9,2.9-4.5c2.4-5.4,0.5-11.7-4.4-14.8
					c-4.7-3.1-11-2.4-14.9,1.6c-4.1,4.2-4.6,10.7-1.3,15.4c0.8,1.1,1.9,2.1,2.8,3.1c-3.8,5.4-3,9.8,2.9,11.8
					c4.9,1.7,10.1,2.7,15.4,2.2c1.4-0.1,2.8-0.4,4.1-0.9c5-2.3,5.5-6.9,1.4-10.4C271.6,444.4,268.4,443.9,265.3,443.1z M179,429.4
					c-3.1-0.4-6,0.1-8.9,1.1c-2.4,0.9-4.2,2.4-4.4,5.2c-0.2,2.8,1.2,4.6,3.5,5.8c5.7,3,11.9,4.1,18.1,3.4c7.3-0.8,8.9-4.5,5.6-11.4
					c1.2-0.8,2.4-1.5,3.5-2.4c4.8-4.1,5.7-10.7,2.4-15.7c-3.2-4.9-9.7-6.8-14.8-4.4c-5.6,2.6-8.3,8.6-6.5,14.6
					C177.7,426.9,178.4,428.1,179,429.4z M217.7,453.1c6.3,1,11.9-1.1,17-4.5c2.1-1.4,2.6-3.7,1.3-5.9c-1.1-1.9-3-2.7-5.2-1.8
					c-1.7,0.6-3.3,1.5-4.9,2.3c-5,2.3-9.3,1.4-13.2-2.3c-0.9-0.8-1.6-1.8-2.5-2.6c-1.1-1-2.5-1.2-3.9-0.6c-1.7,0.7-2.3,2.1-2.5,3.8
					c-0.1,1.7,0.7,3.1,1.8,4.3C208.8,449.6,212.8,452,217.7,453.1z"/>
				<path class="st1" d="M234.9,293.8c-7,0-13.4-2.7-19.8-4.7c-14-4.3-28.1-8.5-41.7-14.2c-1.3-0.5-2.6-1.3-3.9-1.6
					c-4.3-0.9-5.6-4-6.3-7.9c-1.8-9.7-2.6-19.6-3.3-29.4c-1-15.3-2.5-30.5-2.6-45.8c-0.1-10.9,0.1-21.7,0.9-32.6
					c0.6-8.7,1.9-17.3,3.6-25.7c4.2-20,11.8-38.5,24.5-54.7c4.9-6.2,10.9-11.2,18.9-13.4c10-2.8,19.4,0.3,25.8,8.4
					c9.4,11.8,13.1,25.8,16.4,40c4.5,19,4.8,38.3,3.8,57.7c-0.3,5.2-0.5,10.5-0.1,15.7c0.6,8.5-1.6,16.2-4.7,23.9
					c-6.3,15.4-9.9,31.6-11.5,48.1c-1,10.2-1,20.5,0.1,30.8C235.2,290,235.9,291.8,234.9,293.8z"/>
				<path class="st1" d="M363.6,195.5c-0.9,9.7-4.2,21.8-7.4,33.8c-5.8,21.8-13.5,43-24,63c-0.2,0.4-0.3,0.7-0.5,1.1
					c-5.5,11.7-4.4,9.2-16.6,9.6c-8.7,0.2-8.2-0.1-5.9-8.7c4.1-15.4,7.7-30.8,8.8-46.8c1-14.7,1.9-29.3,1.2-44
					c-0.2-3.4-0.7-6.8-1.3-10.2c-1.7-9.9-6.9-17.6-15.1-23.1c-3.7-2.4-4.3-5.1-3.5-9.1c0.7-3.7,0.5-7.6,1.1-11.4
					c1.4-9.8,5.1-19,8.3-28.3c3.6-10.6,8.9-20.3,15.6-29.2c2.1-2.7,4.4-5.2,7.1-7.4c9.1-7.1,20.7-5.6,27.5,3.7
					c8.4,11.5,11.4,24.8,11.6,38.8c0.2,12.1-1,24.1-2.3,36.1C367.1,173.2,365.6,183,363.6,195.5z"/>
				<path class="st0" d="M352.1,309.7c-1.4,12.4-4.3,23.7-8.4,34.7c-1.2,3.1-3,4.2-6.3,4.5c-24,1.8-48,1.3-71.9-1.2
					c-20.5-2.1-40.8-5.7-61-9.7c-23-4.6-45.1-12.3-66.3-22.6c-5.9-2.9-5.9-3.1-5.4-9.8c1-11.5,3.8-22.6,8.8-33.3
					c9.4,4,18.6,8.1,28,11.7c24.5,9.4,49.5,17.1,75.4,22.3c29.9,6,60,7.7,90.3,5.4C340.7,311.2,346,310.4,352.1,309.7z"/>
				<path class="st1" d="M260.7,181c0.2-9.9,0.4-18.7,0.5-27.5c0.3-24.1-3.7-47.3-12.5-69.8c-2-5.1-4.8-9.8-7.7-14.4
					c-1.3-2.1-1.9-3.9-0.7-6.2c7.7-14.4,15.7-28.6,27.6-40.2c2.9-2.8,6.2-5.2,9.9-6.8c10.6-4.8,20.7,0.6,28,9.6
					c3.5,4.2,5.9,9.2,7.7,14.3c3.8,10.6,7,21.4,8.6,32.7c0.6,4.3-0.1,7.6-3.2,11c-8.9,9.6-14.6,21.2-19.2,33.3
					c-4.4,11.5-7.3,23.4-8.8,35.7c-0.4,3-0.6,6-0.6,9c0,1.8-0.2,3.5-2.7,4c-9.6,1.8-17.6,6.7-24.4,13.6
					C262.8,179.7,262.2,180,260.7,181z"/>
				<path class="st1" d="M305.9,265.2c-1.7,11.2-4.3,22.1-8.1,32.8c-1.4,4-2.5,5-6.6,4.6c-5.6-0.7-11.3-0.2-16.8-1.4
					c-8.4-1.9-17.2-1.9-25.5-4.3c-2.9-0.8-4.4-1.5-4.6-4.9c-1-12.7-0.9-25.3,0.8-37.9c2.4-18.5,7.4-36.3,15.3-53.2
					c4.2-9,10.3-16.2,18.6-21.7c12.3-8.1,22-1.6,27.3,9.4c3.5,7.4,3.6,15.7,3.6,23.7C309.7,230,309.5,247.7,305.9,265.2z"/>
				<path class="st2" d="M326.8,363.1c-2.7-1-5.6-0.8-8.4-0.3c-10.6,1.8-21.3,0.5-31.8,0c-9.2-0.4-18.5,0.1-27.6-1.7
					c-5.3-1-10.6-2.3-16.2-1.8c-2.3,0.2-5-0.3-7.1-1.2c-5.6-2.5-11.7-3.2-17.6-4c-13.8-1.9-27.1-6-40.7-8.6
					c-13-2.5-25.3-7.6-36.6-14.7c-0.4-1.9-1.2-4,2.3-2.6c7.4,3.1,15,5.9,22.6,8.6c14.5,5.1,29.2,9.2,44.2,12c10.3,2,20.6,3.9,31,5.4
					c26.9,3.8,53.9,6.5,81.2,4.6c0.6-0.1,1.2,0,1.8,0C327.6,358.5,327.6,358.5,326.8,363.1z"/>
				<path class="st2" d="M343,301c-0.2,0.9-1,1.1-1.8,1.1c-1,0.1-2.1,0.1-2-1.3c0.1-0.8,0.4-1.6,1.5-1.4
					C341.8,299.5,342.6,300.1,343,301z"/>
				<path d="M179,429.4c-0.5-1.3-1.2-2.5-1.6-3.9c-1.8-6,0.9-12,6.5-14.6c5.2-2.4,11.6-0.5,14.8,4.4c3.4,5.1,2.4,11.7-2.4,15.7
					c-1.1,0.9-2.3,1.6-3.5,2.4C187.6,434.5,182.9,433.3,179,429.4z"/>
				<path d="M250.5,444c-0.9-1-2-2-2.8-3.1c-3.4-4.8-2.8-11.3,1.3-15.4c3.9-4,10.2-4.7,14.9-1.6c4.9,3.2,6.8,9.4,4.4,14.8
					c-0.7,1.6-2,3-2.9,4.5C260.5,446.3,255.6,446.4,250.5,444z"/>
				<path class="st3" d="M179,429.4c3.9,3.9,8.6,5.1,13.9,4.1c3.4,6.9,1.8,10.6-5.6,11.4c-6.2,0.7-12.5-0.4-18.1-3.4
					c-2.3-1.2-3.8-3-3.5-5.8c0.2-2.8,2-4.3,4.4-5.2C172.9,429.5,175.9,429.1,179,429.4z"/>
				<path class="st3" d="M250.5,444c5.1,2.4,10.1,2.3,14.8-0.8c3.1,0.7,6.3,1.2,8.9,3.5c4.2,3.6,3.7,8.2-1.4,10.4
					c-1.2,0.5-2.7,0.8-4.1,0.9c-5.3,0.5-10.5-0.6-15.4-2.2C247.5,453.8,246.7,449.4,250.5,444z"/>
				
					<ellipse transform="matrix(0.171 -0.9853 0.9853 0.171 -280.4725 541.1373)" class="st3" cx="181.3" cy="437.2" rx="9.6" ry="16.5"/>
				<circle cx="188.9" cy="421.9" r="13.1"/>
				
					<ellipse transform="matrix(0.171 -0.9853 0.9853 0.171 -227.9299 631.3366)" class="st3" cx="261.2" cy="451.1" rx="9.6" ry="16.5"/>
				<circle cx="256.6" cy="433.6" r="13.1"/>
				<path d="M217.7,453.1c-4.9-1.1-8.9-3.5-12.1-7.3c-1-1.3-1.9-2.6-1.8-4.3c0.1-1.7,0.8-3.1,2.5-3.8c1.4-0.6,2.8-0.4,3.9,0.6
					c0.9,0.8,1.6,1.8,2.5,2.6c3.9,3.7,8.3,4.7,13.2,2.3c1.6-0.8,3.2-1.6,4.9-2.3c2.2-0.8,4.1-0.1,5.2,1.8c1.2,2.2,0.8,4.5-1.3,5.9
					C229.6,452,224.1,454.1,217.7,453.1z"/>
			</g>
		</g>
	</g>
</g>
</svg>
