<?xml version="1.0" encoding="utf-8"?>
<!-- Generator: Adobe Illustrator 26.2.1, SVG Export Plug-In . SVG Version: 6.00 Build 0)  -->
<svg version="1.1" id="Layer_5" xmlns="http://www.w3.org/2000/svg" xmlns:xlink="http://www.w3.org/1999/xlink" x="0px" y="0px"
	 viewBox="0 0 500 500" style="enable-background:new 0 0 500 500;" xml:space="preserve">
<style type="text/css">
	.st0{fill:#FFFFFF;}
	.st1{fill:#888683;}
	.st2{fill:#FBFBFB;}
	.st3{fill:#E9B7B7;}
</style>
<g>
	<path d="M246.4,490.5c-17.5-0.3-33.9-5.5-49.7-10.5l-3.3-1c-1.4-0.4-2.8-0.8-4.2-1.3c-6.5-1.9-13.8-4-19.4-9.1
		c-5.2-4.7-10.9-6.2-18.5-7.8c-2.1-0.4-4.2-0.9-6.3-1.3c-10.3-2.1-20.9-4.3-31.2-7.7c-10.7-3.5-18.1-10.2-22.8-20.5
		C76.2,399.1,70.7,364.7,74.5,329c1.1-10.3,4.3-21.1,9.8-32.9c0.8-1.7,0.8-2.8,0-5.6c-7.8-28.3-23.1-53.9-49.8-82.8
		c-6.5-7.1-13.9-15.7-19.5-26c-2.9-5.3-5.9-11.7-6-19.2c-0.1-7.5,2.4-14.2,7.2-19c4.4-4.5,10.5-7,17-7c2.8,0,5.6,0.4,8.4,1.3
		c10.9,3.4,20.3,9.3,27.8,17.6c19.3,21.3,34,46.5,45.1,77.2c3.3,9,5.9,18.7,7.8,28.6c0.9-0.3,1.7-0.6,2.1-0.9
		c-0.2-1.4-1.2-4.3-1.8-6.1c-6.7-20.2-4.2-40.2-1-57.1c3.3-17.4,8.7-35.6,16.3-55.9c0.3-0.9,0.7-1.8,1-2.8c0.6-1.7,1.2-3.4,1.9-5.1
		c0.5-1.2,0.7-2.1-0.7-4.5c-9.3-15.7-19.5-34.7-24.1-56.9c-2.8-13.3-5.2-30.7,0.8-48.4c2.9-8.5,5.6-14.1,16-14.1
		c1.3,0,2.8,0.1,4.7,0.2c28.8,2.2,54.6,13.5,76.7,33.6l1.2,1.1c3.5,3.1,7,6.4,10.5,9.7c0.5,0.5,0.8,0.7,0.9,0.8
		c0.1,0,0.3-0.1,0.8-0.3c16.1-7.1,34-10.6,54.6-10.6c6,0,12.2,0.3,18.9,0.9c24.6,2.2,48.1,8.4,69.8,18.5c1,0.5,1.5,0.5,1.7,0.5
		c0.3,0,0.8-0.3,1.4-0.9c12.5-11.1,23.7-18.7,35.2-23.7c14.5-6.5,29.3-9.7,43.9-9.7c7.5,0,15.2,0.9,22.7,2.6
		c13.4,3.1,16.8,8.2,14.3,22c-2.4,13.7-5.9,25.5-10.5,36.1c-8.6,19.4-21.1,35-37.2,46.4c-7,5-8.5,9.3-6.2,18.3
		c5.9,23.6,10,47.6,12.1,71.3c1.9,21.2-3.6,39.2-17,54.9c-10.2,12-20.9,22.2-32.8,31l-0.1,0.1c-1.3,1-2.7,2-3.3,2.6
		c0.2,0.9,0.7,2.7,1.1,3.9c7.2,23,10.7,44.2,10.8,64.5c0.1,13.6-0.6,29.7-5.5,45.8c-3.7,11.9-10.7,21.3-20.8,27.9
		c-27.1,17.7-57.6,27.8-90.6,30.1c-1,0.1-1.9,0.1-2.8,0.1c-6.9,0-12.8-1.7-17.8-5.3c-6.9,7.6-15.7,8.6-22.2,8.6
		C247,490.5,246.7,490.5,246.4,490.5z M164.6,346.4c0.6,0,1.1,0,1.7,0.1c2.7,0.4,9,2.4,8.2,12.2l0,0.7c-0.1,1.2-0.2,2.5-0.5,3.9
		c-2.4,9.9-4.1,21-5.1,33.8c-1.3,16.9,0.3,30.4,5.1,42.6c2.1,5.3,4.3,9.3,8.3,11.3c11.5,5.8,21.3,9.1,30.7,10.4l0.7,0.1l0.7,0.3
		c9.9,4.6,20.5,6.8,32.4,6.8c1.4,0,2.8,0,4.2-0.1c1.3-0.1,2.5-0.3,3.1-2.9l0.1-0.6c0.5-2.3,1-4.4,0.6-6.1c-3.1-15.1-10-26-21-33.4
		l-0.5-0.4l-0.4-0.5c-2.3-2.6-5.5-4.4-8.9-6.3c-0.6-0.4-1.3-0.7-1.9-1.1c-2-1.2-4.2-2.2-6.4-3.4c-1.8-0.9-3.6-1.8-5.4-2.7
		c-7.9-4.3-8.2-10.8-6.1-15c2-3.9,5.3-6,9.4-6c1.7,0,3.6,0.4,5.7,1.2c0.3,0.1,0.7,0.2,1.2,0.4c16.6,7.7,34.9,18.3,46.4,38
		c8.7-16.9,21.9-28.6,39.2-34.8c6.8-2.4,13.7-4.4,20.5-6.4l2.6-0.7c1.8-0.5,3.5-0.8,5.1-0.8c4.9,0,8.8,2.6,10.5,6.8
		c1,2.7,1,5.3-0.2,7.7c-1.4,3-4.2,5.2-8.5,6.8c-3.5,1.2-7,2.3-10.4,3.3c-2.7,0.8-5.4,1.6-8.1,2.5c-0.9,0.3-1.8,0.6-2.8,0.9
		c-4,1.2-6.6,2.1-8.2,4.3l-1.4,2l-2.5,0.1c-1,0-1.2,0.2-1.2,0.2c-11.6,8.9-18.3,20.6-20.7,35.7c-0.1,0.7,0.1,2.1,0.2,2.9
		c0.8,4.9,1.4,4.9,4.8,5c0.9,0,1.8,0,2.7,0c14,0,25.6-2.3,35.7-6.9l0.5-0.2l0.6-0.1c13.9-2.8,26.7-9.2,38.4-15.7
		c11-6.1,17.2-15.3,19.5-29.2c3.1-18.8,2.9-38.8-0.7-63.1c-1.3-8.5-3.1-16.2-5.5-23.6c-0.7,0.4-1.4,0.8-2.1,1.1
		c-5.3,2.8-10.3,5.4-15.4,8.2c-19.9,10.9-41.3,18.8-63.5,23.3c-4.5,0.9-9.1,1.4-14.1,1.4c-4.2,0-8.6-0.3-13.5-1
		c-25.9-3.4-51.5-12-80.5-27.1c-11.2-5.8-21.5-13.3-30.7-22.2c-9.6-9.3-17.1-19-22.8-29.4c-0.2-0.3-0.4-0.7-0.6-1
		c-10.1,4.2-19.7,8.2-25.3,17.4c-5.6,9.1-9.5,19.4-11.8,31.7c-2.9,15.4-1.4,31.1,0.1,44.6c2.1,17.8,7,34.5,14.5,49.7
		c1.9,3.7,3.4,5.6,5.3,6.5c8.7,4,17.9,6.1,27.8,8.4c2.1,0.5,4.3,1,6.5,1.5c-0.1-0.2-0.1-0.4-0.2-0.6c-1-3.3-1.9-6.4-2.5-9.8
		c-2.8-16.4-1.4-32.2,0.5-45.4c1-7.5,2.7-14.9,4.4-22c0.5-2.1,0.9-4.1,1.4-6.2C155.7,349.8,159.6,346.4,164.6,346.4z M281,338.6
		c0.6,0,1.1,0,1.7,0c4.7,0,9.9-0.8,15.4-2.2c30.9-8.3,60.7-22.7,88.6-42.7c14.1-10.1,25-21.3,33.4-34.3c4.1-6.2,6.1-12.5,6.2-19.1
		l0-2.7c0.1-5.8,0.2-11.4-0.5-16.7l-0.9-6.2c-3.2-22.5-6.5-45.9-11.9-68.3c-0.9-3.8-3.4-14,7.5-19.5c0.8-0.4,1.8-1.3,2.8-2.2
		c0.8-0.8,1.8-1.6,2.8-2.4c22.6-16.9,36.9-39.5,42.6-67.2c0.1-0.5,0.3-1.4,0.4-2.2c-0.8-0.2-1.9-0.4-2.6-0.6c-2.3-0.5-4.9-0.7-8-0.7
		c-2.2,0-4.4,0.1-6.8,0.2c-1.1,0.1-2.2,0.1-3.3,0.1c-22.7,0.9-43.1,10.4-64.3,30c-3.1,2.9-6,5.2-10.1,5.2c-2.6,0-5.1-1-7.2-2
		c-22.1-10.4-44.6-16.6-67-18.5c-6.6-0.6-12.5-0.8-18.1-0.8c-19.7,0-35.5,3.5-49.7,10.9c-2.4,1.2-4.6,1.9-6.8,1.9
		c-4.7,0-8.1-2.8-10.2-4.9c-7.2-7-13.2-12.6-18.9-17.4c-17.2-14.6-36.9-23.4-58.5-26.1c-0.3,0-0.6-0.1-0.8-0.1c-0.1,0-0.2,0-0.3,0
		c-0.1,0.2-0.2,0.5-0.3,0.9c-1.2,5.6-2.5,11.3-2,17c1.9,23.4,9.9,45.8,24.5,68.7c4.5,7,5.3,12.8,2.8,20c-6.9,19.8-14,40.9-17.9,62.3
		c-0.3,1.6-0.6,3.1-0.9,4.7c-2,10.3-3.8,20-2.2,29.8c5,30.8,20.8,55.3,46.9,72.8c18.8,12.6,41.2,22,70.4,29.3
		c7.4,1.9,14.4,2.8,21.5,2.8c0.5,0,0.9,0,1.4,0l0.1,0L281,338.6z M32.7,157.8c-0.7,0-1.5,0.9-1.8,2.2c-0.5,1.9-0.3,4,0.6,6.3
		c2.1,5.5,5,10.1,8.6,14.2l0.2,0.2l0.2,0.3c3.1,4.6,6.8,8.6,10.7,12.9l0.7,0.8c17.2,19,38.2,45,49.3,78.3c0.9-0.7,1.6-1.2,1.8-1.5
		c0.2-0.6-0.4-3.6-0.8-5.4c-6-28.9-19.2-57.2-40.4-86.6c-0.5-0.8-1.1-1.5-1.6-2.3c-2.1-3.1-4-5.8-6.8-6.9l-1.5-0.6l-0.9-1.3
		c-3.4-5.2-8.6-8.2-17.9-10.6C32.9,157.8,32.8,157.8,32.7,157.8z"/>
	<path class="st0" d="M132.9,14.5c1.3,0,2.7,0.1,4.4,0.2C165.6,16.9,190.1,28,211,47c3.9,3.5,7.8,7,11.5,10.7
		c1.4,1.4,2.8,2.2,4.4,2.2c0.8,0,1.8-0.2,2.8-0.7c17-7.5,34.6-10.2,52.6-10.2c6.1,0,12.3,0.3,18.4,0.8c23.7,2.1,46.5,8,68.2,18
		c1.4,0.7,2.6,1,3.8,1c1.6,0,3.1-0.7,4.7-2.2c10.3-9.1,21.2-17.3,33.9-22.9c13.6-6,27.6-9.3,41.8-9.3c7.1,0,14.3,0.8,21.5,2.5
		c11,2.5,12.5,5.4,10.5,16.2c-2.1,12.1-5.2,23.7-10.2,35c-7.9,17.9-19.6,33.1-35.5,44.4c-9,6.4-10.9,12.8-8.2,23.6
		c5.8,23.1,9.8,46.7,12,70.6c1.8,19.3-3.1,36.3-15.8,51.3c-9.6,11.3-20.1,21.4-32,30.2c-6.3,4.7-6.4,4.7-4.1,12.1
		c6.4,20.5,10.5,41.4,10.6,63.1c0.1,15-0.8,29.8-5.3,44.3c-3.3,10.7-9.5,19.1-18.8,25.2c-26.8,17.5-56.3,27.1-88.2,29.3
		c-0.8,0.1-1.7,0.1-2.5,0.1c-6.7,0-13.1-1.8-18.6-7.5c-5.2,8.6-12.8,10.9-21.4,10.9c-0.3,0-0.6,0-0.8,0c-17.9-0.3-34.7-6-51.5-11.3
		c-7.6-2.4-16-4-21.8-9.3c-6.2-5.7-13.1-7.4-20.9-9c-12.4-2.6-24.9-4.9-37-8.9c-9.4-3.1-15.8-8.9-19.8-17.8
		c-14.5-31.8-19.7-65.1-16-99.7c1.2-11,4.7-21.4,9.3-31.3c1.5-3.2,1.2-5.6,0.3-9C80.1,256.1,61,229,38.2,204.2
		c-7.1-7.7-13.8-15.7-18.8-25c-2.9-5.3-5.3-10.7-5.4-16.9c-0.2-12.4,8.2-20.9,19.2-20.9c2.2,0,4.5,0.3,6.9,1.1
		c9.9,3.1,18.6,8.4,25.6,16.2c20,22.1,34,47.7,44.1,75.6c3.9,10.7,6.7,21.8,8.5,32.9c0.7,0.1,1,0.2,1.2,0.2c0,0,0.1,0,0.1,0
		c11.2-3.6,11.5-3.7,7.8-14.7c-6-18.2-4.3-36.3-0.8-54.6c3.6-18.9,9.3-37.1,16.1-55.1c1-2.5,1.8-5.2,2.8-7.7c1.4-3.2,0.9-5.8-1-9
		C134.2,109,125.1,91,121,71c-3.2-15.3-4.5-30.6,0.7-45.7C124.6,16.7,126.2,14.5,132.9,14.5 M279.4,343.6c0.5,0,1,0,1.5,0
		c0.6,0,1.3,0,1.9,0c5.4,0,11.1-0.9,16.7-2.4c32.8-8.8,62.7-23.7,90.2-43.5c13.6-9.8,25.5-21.5,34.7-35.6c4.3-6.6,6.9-13.8,7-21.7
		c0.1-6.7,0.4-13.5-0.6-20.1c-3.6-25.1-7-50.2-12.9-74.9c-1.4-5.9-1.4-10.7,4.9-13.8c2.4-1.2,4.2-3.5,6.4-5.1
		c23.7-17.8,38.5-41.2,44.5-70.2c1.4-6.9,1.1-7.2-6.1-8.7c-3-0.6-6-0.8-9-0.8c-3.4,0-6.8,0.2-10.3,0.4c-26.9,1-48.4,13.6-67.5,31.3
		c-2.8,2.6-4.5,3.9-6.7,3.9c-1.4,0-3-0.5-5.1-1.5c-21.8-10.2-44.6-16.9-68.7-19c-6.2-0.5-12.4-0.9-18.5-0.9
		c-17.9,0-35.5,2.8-52.1,11.5c-1.7,0.9-3.2,1.3-4.5,1.3c-2.4,0-4.5-1.3-6.7-3.4c-6.2-6.1-12.6-12.1-19.2-17.7
		c-17.7-15.1-37.9-24.4-61.1-27.2c-0.5-0.1-1-0.1-1.4-0.1c-3.1,0-4.7,1.5-5.4,4.8c-1.3,6.1-2.6,12.2-2.1,18.5
		c2.1,25.9,11.5,49.4,25.3,71c3.5,5.5,4.3,9.8,2.3,15.6c-7.2,20.7-14.1,41.4-18.1,63c-2.2,12-5.1,23.9-3.1,36.2
		c5.3,32.5,21.9,57.9,49.1,76.1c21.9,14.7,46.5,23.6,71.9,30C263.9,342.5,271.3,343.6,279.4,343.6 M99,280.3c9.7-6,9.9-6.4,8-15.3
		c-6.8-32.8-21.9-61.7-41.3-88.5c-3-4.1-5.5-9-10.7-11c-5-7.5-12.7-10.6-20.9-12.6c-0.5-0.1-1.1-0.2-1.6-0.2c-3.2,0-5.8,2.5-6.7,5.9
		c-0.8,3.2-0.4,6.3,0.8,9.4c2.3,5.8,5.4,11.1,9.5,15.7c3.5,5.2,7.7,9.7,11.9,14.3c21.4,23.6,39.9,49,49.3,79.9
		C97.8,278.9,97.9,280,99,280.3 M157.8,446.4c-1.4-6.9-3.7-12.3-4.7-18.2c-2.5-14.7-1.5-29.3,0.5-43.9c1.3-9.3,3.7-18.5,5.7-27.8
		c0.6-2.9,2.4-5.2,5.3-5.2c0.3,0,0.6,0,1,0.1c3.8,0.6,4.2,3.7,4,6.9c-0.1,1.2-0.1,2.5-0.4,3.7c-2.8,11.4-4.3,23-5.2,34.6
		c-1.2,15.3-0.3,30.3,5.4,44.8c2.2,5.6,5.1,11.1,10.7,13.9c10.2,5.1,20.8,9.3,32.3,10.9c11,5.1,22.6,7.3,34.5,7.3c1.5,0,3,0,4.4-0.1
		c4.3-0.2,6.8-2.7,7.8-6.8c0.7-2.9,1.4-5.8,0.8-8.8c-3.1-15.1-10-27.8-23.2-36.6c-3.3-3.8-7.8-6-12.1-8.5c-3.9-2.2-8-4-11.9-6.2
		c-4.1-2.2-5.6-5.3-4-8.3c1.2-2.4,2.9-3.3,4.9-3.3c1.3,0,2.6,0.4,4.1,0.9c0.2,0.1,0.5,0.1,0.7,0.2c18.8,8.8,35.7,19.7,45.7,38.8
		c0.8,1.5,1.2,3.4,3.2,3.9c2-1.7,2.6-4.2,3.7-6.3c8-15.8,20-27,36.8-33c7.5-2.7,15.1-4.8,22.8-7c1.4-0.4,2.6-0.6,3.7-0.6
		c2.9,0,4.9,1.3,5.8,3.6c1.3,3.3-0.5,6.2-5.7,8c-6.1,2.2-12.3,3.8-18.5,5.9c-4.8,1.6-10.1,2.4-13.4,7c-1.5,0-2.9,0.3-4.2,1.2
		c-12.8,9.9-20.1,23-22.6,38.9c-0.2,1.4,0,3,0.2,4.4c1,6.5,3.1,9.1,9.6,9.2c0.9,0,1.9,0,2.8,0c13,0,25.8-1.8,37.8-7.3
		c14.3-2.9,27.2-9.2,39.8-16.2c13.1-7.2,19.6-18.3,22-32.7c3.6-21.6,2.5-43.2-0.7-64.6c-1.5-10-3.8-19.9-7.7-29.9
		c-7.9,4.2-15.3,8-22.7,12.1c-19.6,10.7-40.2,18.3-62.1,22.8c-4.4,0.9-8.7,1.3-13.1,1.3c-4.3,0-8.6-0.4-12.9-0.9
		c-28-3.7-53.9-13.6-78.8-26.6c-10.8-5.6-20.7-12.8-29.5-21.4c-8.6-8.4-16.1-17.6-21.9-28.2c-1.1-2-2.2-3.9-4.3-3.9
		c-0.6,0-1.2,0.1-1.9,0.4c-10.9,4.5-21.7,8.9-28.3,19.6c-6.4,10.3-10.2,21.6-12.4,33.4c-2.9,15.4-1.7,30.8,0.1,46.1
		c2.1,17.9,6.9,35.1,15,51.3c1.8,3.7,4,7.1,7.7,8.8C128,440.4,142.8,442.2,157.8,446.4 M132.9,4.5c-13.6,0-17.6,8.3-20.7,17.5
		c-6.4,18.8-3.9,37.1-1,51c4.8,23,15.8,43.3,24.8,58.4c0.1,0.1,0.1,0.3,0.2,0.4c-0.7,1.7-1.3,3.4-1.9,5c-0.3,0.9-0.6,1.8-1,2.7
		c-7.7,20.5-13.1,39.1-16.5,56.7c-1.3,6.6-2.4,13.6-3,20.9c-10.6-25.2-24-46.6-40.7-65.1c-8.1-9-18.2-15.4-30.1-19
		c-3.3-1-6.6-1.5-9.8-1.5c-7.9,0-15.2,3-20.6,8.4C7,145.6,3.9,153.7,4,162.5c0.1,8.6,3.4,15.7,6.6,21.5c5.9,10.7,13.5,19.7,20.2,27
		c26.1,28.4,41.1,53.3,48.6,80.8c0.4,1.3,0.4,1.8,0.4,1.9c0,0,0,0.1-0.1,0.3c-5.7,12.3-9,23.6-10.2,34.5
		c-3.9,36.6,1.7,71.9,16.8,104.9c5.3,11.6,13.8,19.2,25.8,23.1c10.6,3.5,21.3,5.7,31.7,7.8c2.1,0.4,4.2,0.9,6.3,1.3
		c7,1.5,12,2.7,16.2,6.6c6.5,5.9,14.4,8.2,21.4,10.2c1.4,0.4,2.8,0.8,4.1,1.2l3.3,1c16.2,5.1,32.9,10.4,51.1,10.7c0.3,0,0.7,0,1,0
		c9.4,0,17-2.4,22.9-7.3c5,2.7,10.8,4,17.1,4c1,0,2,0,3.1-0.1l0,0l0,0c33.9-2.3,65.1-12.7,93-30.9c11.1-7.3,18.8-17.6,22.9-30.6
		c5.2-16.7,5.8-33.3,5.7-47.3c-0.1-20.9-3.7-42.5-11-66c-0.1-0.2-0.1-0.4-0.2-0.6c0.2-0.2,0.4-0.3,0.6-0.4l0.1-0.1
		c12.1-9,23.1-19.4,33.6-31.7c14.1-16.6,20.2-36.3,18.1-58.6c-2.2-24-6.3-48.2-12.3-72.1c-1.8-7.4-0.7-9.4,4.3-13
		c16.9-12,29.9-28.3,38.9-48.5c4.9-11,8.4-23.2,10.9-37.3c1-5.8,1.8-12.5-1.8-18.3c-3.7-5.8-10-8-16.3-9.4
		c-7.9-1.8-15.9-2.7-23.8-2.7c-15.3,0-30.7,3.4-45.9,10.2c-11.6,5.1-22.8,12.7-35.3,23.6c-21.9-10-45.6-16.2-70.3-18.4
		c-6.9-0.6-13.2-0.9-19.3-0.9c-20.3,0-38.1,3.3-54.3,10c-3-2.9-6.1-5.7-9.1-8.4l-1.2-1.1C194.8,18.8,168,7,138,4.7
		C135.9,4.6,134.3,4.5,132.9,4.5L132.9,4.5z M279.4,333.6c-6.7,0-13.3-0.9-20.3-2.6c-28.6-7.2-50.5-16.3-68.8-28.6
		c-24.9-16.7-40-40.1-44.8-69.4c-1.5-8.9,0.3-18.2,2.2-28.1c0.3-1.6,0.6-3.2,0.9-4.7c3.9-21.1,10.8-42,17.7-61.6
		c3-8.6,2-16.1-3.3-24.3C148.8,92,141,70.3,139.2,47.8c-0.3-3.8,0.3-7.9,1.2-12c19.5,3,36.7,11,52.4,24.4
		c5.6,4.8,11.6,10.3,18.7,17.2c1.6,1.5,6.4,6.3,13.7,6.3c3,0,6.1-0.8,9.2-2.4c13.5-7.1,28.6-10.4,47.4-10.4c5.4,0,11.2,0.3,17.6,0.8
		c21.8,1.9,43.7,7.9,65.3,18.1c2.6,1.2,5.7,2.5,9.4,2.5c6.4,0,10.7-4,13.5-6.6c20.2-18.7,39.6-27.8,61.1-28.7c1.1,0,2.2-0.1,3.3-0.1
		c2.3-0.1,4.4-0.2,6.5-0.2c1.8,0,3.3,0.1,4.7,0.2c-5.8,25.5-18.9,45.6-40.1,61.4c-1.3,0.9-2.3,1.9-3.2,2.8c-0.6,0.5-1.4,1.3-1.7,1.5
		c-6.9,3.5-9.5,8.6-10.5,12.3c-1.2,4.7-0.4,9.3,0.4,12.8c5.3,22.2,8.6,45.4,11.8,67.8l0.9,6.2c0.7,4.9,0.6,10.3,0.5,15.9
		c0,0.9,0,1.8,0,2.6c-0.1,5.6-1.8,11-5.4,16.4c-8.1,12.4-18.6,23.2-32.2,33c-27.4,19.7-56.7,33.8-87,41.9c-5,1.4-9.9,2.1-14.1,2.1
		c-0.5,0-1,0-1.5,0l-0.3,0l-0.3,0C280.2,333.6,279.8,333.6,279.4,333.6L279.4,333.6z M225.7,50.1C225.7,50.1,225.7,50.1,225.7,50.1
		C225.7,50.1,225.7,50.1,225.7,50.1C225.7,50.1,225.7,50.1,225.7,50.1L225.7,50.1z M84.4,227.7c-9.3-14.1-19.6-26.2-28.8-36.4
		l-0.7-0.8c-3.8-4.2-7.4-8.1-10.2-12.4l-0.4-0.6l-0.4-0.5c-3.3-3.7-5.8-7.8-7.7-12.7c-0.1-0.2-0.1-0.4-0.2-0.6
		c5.4,1.8,8.7,4,10.9,7.3l1.8,2.6l3,1.1c1.4,0.5,2.8,2.6,4.5,5.1c0.5,0.8,1.1,1.6,1.7,2.5C68.8,197.8,77.7,212.8,84.4,227.7
		L84.4,227.7z M143.8,432.7c-9-2-17.4-4.1-25.1-7.6c-0.8-0.4-1.8-1.8-3-4.2c-7.3-14.6-12-30.8-14-48c-1.5-13.2-3-28.4-0.2-43.1
		c2.2-11.6,5.8-21.4,11.1-30c4.1-6.7,10.9-10.2,18.9-13.7c5.7,9.8,13,18.9,22.1,27.7c9.6,9.3,20.3,17,31.9,23.1
		c29.1,15.2,55.9,24.2,82.1,27.7c5.1,0.7,9.8,1,14.2,1c5.4,0,10.3-0.5,15.1-1.5c22.7-4.7,44.5-12.7,64.9-23.9c4-2.2,8-4.3,12.1-6.5
		c1.5,5.4,2.7,11,3.6,17.1c3.5,23.7,3.7,43.3,0.7,61.5c-2.1,12.4-7.3,20.3-17,25.6c-11.4,6.3-23.7,12.5-36.9,15.1l-1.2,0.2l-1.1,0.5
		c-9.5,4.4-20.2,6.4-33.6,6.4c-0.8,0-1.6,0-2.4,0c0-0.2-0.1-0.5-0.1-0.8l0,0l0,0c0-0.3-0.2-1.1-0.2-1.4c2.1-13.3,7.9-23.6,17.7-31.5
		l4.3-0.1l2.9-4c0.7-0.9,2.6-1.6,5.6-2.5c0.9-0.3,1.9-0.6,2.9-0.9c2.6-0.9,5.2-1.7,7.9-2.5c3.5-1.1,7.1-2.1,10.7-3.4
		c5.6-2,9.4-5.1,11.4-9.4c1.7-3.6,1.8-7.7,0.3-11.6c-2.3-6.2-8.1-10.1-15.1-10.1c-2.1,0-4.3,0.3-6.5,1l-2.5,0.7
		c-6.8,2-13.8,4-20.8,6.5c-16,5.7-28.6,15.7-37.8,30c-4.4-5.9-9.6-11.3-15.9-16.3c-7.6-6-16.5-11.3-28.1-16.7l0,0l0,0
		c-0.7-0.3-1.3-0.5-1.7-0.6c-2.6-1-5-1.4-7.2-1.4c-5.9,0-11,3.2-13.8,8.7c-2.2,4.3-2.3,9.1-0.2,13.4c1.6,3.4,4.4,6.2,8.4,8.3
		c1.9,1,3.7,1.9,5.5,2.8c2.2,1.1,4.2,2.1,6.1,3.2c0.7,0.4,1.3,0.8,2,1.1c3.1,1.8,5.9,3.3,7.6,5.3l0.9,1l1.1,0.7
		c9.9,6.6,16.1,16.5,18.9,30.3c0.1,0.6-0.2,2.3-0.6,3.7c-0.9,0-1.8,0-2.7,0c-11.2,0-21.1-2.1-30.3-6.3l-1.3-0.6l-1.5-0.2
		c-8.9-1.2-18.2-4.4-29.2-10c-2.2-1.1-3.9-3.6-5.9-8.7c-4.5-11.4-6-24.2-4.8-40.3c1-12.5,2.6-23.3,5-33c0.5-1.8,0.6-3.5,0.7-4.7
		c0-0.2,0-0.4,0-0.6c0.9-11.5-5.8-16.6-12.5-17.6c-0.8-0.1-1.6-0.2-2.4-0.2c-7.4,0-13.3,5.1-15.1,13c-0.5,2.1-0.9,4.1-1.4,6.2
		c-1.7,7.2-3.4,14.7-4.4,22.4c-1.8,12.8-3.4,29.8-0.5,47C143.4,430.8,143.6,431.8,143.8,432.7L143.8,432.7z"/>
</g>
<g>
	<path class="st1" d="M280.8,343.6c-8.6,0.1-16.5-1-24.2-2.9c-25.5-6.4-50-15.3-71.9-30c-27.2-18.2-43.8-43.7-49.1-76.1
		c-2-12.3,0.9-24.3,3.1-36.2c4-21.6,10.9-42.4,18.1-63c2-5.9,1.3-10.1-2.3-15.6c-13.8-21.6-23.2-45.1-25.3-71
		c-0.5-6.3,0.8-12.4,2.1-18.5c0.8-3.8,2.8-5.3,6.9-4.8c23.2,2.8,43.4,12.2,61.1,27.2c6.6,5.6,13,11.6,19.2,17.7
		c3.4,3.4,6.6,4.6,11.2,2.1c22.3-11.7,46.2-12.7,70.6-10.6c24,2.1,46.9,8.7,68.7,19c5.6,2.6,7.2,1.9,11.9-2.4
		c19.1-17.7,40.5-30.3,67.5-31.3c6.5-0.2,12.8-0.9,19.3,0.4c7.2,1.5,7.5,1.8,6.1,8.7c-5.9,29-20.7,52.4-44.5,70.2
		c-2.2,1.6-4,4-6.4,5.1c-6.3,3.2-6.3,8-4.9,13.8c5.9,24.7,9.3,49.8,12.9,74.9c0.9,6.6,0.7,13.4,0.6,20.1c-0.1,7.9-2.7,15.1-7,21.7
		c-9.2,14.2-21.1,25.8-34.7,35.6c-27.5,19.8-57.4,34.7-90.2,43.5C293.2,342.9,286.8,343.8,280.8,343.6z M233.5,255.3
		c0.9-1.5,2-2.9,2.7-4.4c3.8-8.3,0.8-17.6-6.9-22c-7.7-4.4-17.2-2.2-22.5,5.3c-4,5.7-3.5,11.7-1,17.8c-2.4,0.7-4.6,1.7-6.6,3.3
		c-6.7,5.2-6.7,12.2,0,17.2c8.8,6.5,27.8,4.7,35.1-3.4C239.1,263.7,238.9,260.7,233.5,255.3z M332.4,257.9c-2.9,9.3-0.4,14.2,8.6,17
		c9.3,2.9,18.2,1.4,26.6-3c4.3-2.2,6.9-5.9,6.3-10.9c-0.5-5-4-7.9-8.4-9.5c-2.1-0.8-4.4-0.6-6.3-2c0.1-1.2,0.1-2.4,0.2-3.7
		c0.8-9.3-4.7-17.2-13.1-18.7c-10-1.8-17.7,3.2-20.3,12.8C324.1,247.4,328.1,252.7,332.4,257.9z M396.9,101.8
		c3.9,4.2,7.3,8.8,12.7,11.3c0.2,2.8,0.5,5.6,3.7,6.6c2.7,0.9,5-0.4,6.6-2.4c6.4-8.3,10.9-17.2,8.7-28.2c-1.5-7.4-4.4-9.7-11.9-9.1
		c-9.1,0.7-16.6,4.9-23.1,10.9C388.5,95.5,389.9,99.5,396.9,101.8z M181.1,106.7c4.5-4.2,10.3-6.4,15.4-9.7c6.3-2.8,7.7-5.2,4.5-9.7
		c-6.2-8.6-13.3-16-24.5-17.8c-6.9-1.1-10.3,1-11.4,8c-1.6,10.1,0.5,19.8,4.4,28.9C172.3,113.2,176.5,113.2,181.1,106.7z
		 M291.5,279.3c6.5,0.2,17.4-11.1,16.9-17.5c-0.4-4.2-4.4-6.2-8.3-4c-2,1.2-3,3.2-4.3,5c-3.7,5.1-3.8,5.2-8.9,1.4
		c-3-2.2-6.3-3.1-8.6-0.1c-3.8,4.8-5.9,2.9-8.2-1c-0.5-0.8-1.2-1.6-1.9-2.3c-2.1-2.2-4.5-3.4-7.2-1.3c-2.6,2-2.4,4.8-0.9,7.4
		c2.2,3.6,4.5,7.2,8,9.8c3.6,2.7,7.7,4,11.8,1.4c2.5-1.6,4.5-1.6,6.8-0.1C288,278.8,289.7,279.3,291.5,279.3z"/>
</g>
<g>
	<path class="st1" d="M212.2,466.4c-11.4-1.6-22.1-5.8-32.3-10.9c-5.6-2.8-8.4-8.3-10.7-13.9c-5.7-14.5-6.6-29.5-5.4-44.8
		c0.9-11.6,2.4-23.3,5.2-34.6c0.3-1.2,0.3-2.5,0.4-3.7c0.3-3.2-0.1-6.3-4-6.9c-3.5-0.5-5.6,1.9-6.3,5.1c-2,9.2-4.4,18.4-5.7,27.8
		c-2,14.5-3.1,29.2-0.5,43.9c1,5.9,3.3,11.4,4.7,18.2c-15-4.1-29.8-6-43.3-12.3c-3.7-1.7-5.9-5.2-7.7-8.8
		c-8.1-16.2-12.9-33.4-15-51.3c-1.8-15.3-3-30.8-0.1-46.1c2.2-11.8,6-23,12.4-33.4c6.6-10.7,17.5-15.1,28.3-19.6
		c3.5-1.4,4.9,1,6.3,3.5c5.8,10.6,13.2,19.8,21.9,28.2c8.8,8.6,18.7,15.7,29.5,21.4c24.8,13,50.8,22.9,78.8,26.6
		c8.7,1.1,17.3,1.4,26-0.3c21.8-4.5,42.5-12.1,62.1-22.8c7.4-4,14.8-7.9,22.7-12.1c3.9,10,6.2,19.9,7.7,29.9
		c3.2,21.5,4.3,43,0.7,64.6c-2.4,14.4-8.9,25.5-22,32.7c-12.7,7-25.5,13.3-39.8,16.2c-2.7-17.9-10.3-33.3-23.6-45.7
		c-0.1-0.1-0.1-0.5-0.1-0.7c3.3-4.6,8.6-5.4,13.4-7c6.1-2.1,12.4-3.7,18.5-5.9c5.2-1.9,7-4.7,5.7-8c-1.2-3.2-4.7-4.4-9.5-3
		c-7.6,2.2-15.3,4.4-22.8,7c-16.7,5.9-28.8,17.2-36.8,33c-1.1,2.2-1.7,4.7-3.7,6.3c-2-0.6-2.4-2.4-3.2-3.9c-10-19.1-27-30-45.7-38.8
		c-0.2-0.1-0.5-0.1-0.7-0.2c-3.6-1.4-6.9-1.6-9,2.4c-1.6,3.1-0.1,6.1,4,8.3c3.9,2.1,8.1,3.9,11.9,6.2c4.3,2.5,8.8,4.7,12.1,8.5
		c-3,3.2-6.2,6.3-9.1,9.5C218.6,441,215.4,453.7,212.2,466.4z"/>
</g>
<g>
	<path class="st1" d="M55.1,165.6c5.2,2,7.8,6.9,10.7,11c19.4,26.8,34.5,55.7,41.3,88.5c1.8,8.9,1.6,9.3-8,15.3
		c-1.1-0.4-1.2-1.4-1.5-2.3c-9.4-30.9-27.9-56.3-49.3-79.9c-4.2-4.6-8.4-9.2-11.9-14.3C45.3,180.5,50.4,173.2,55.1,165.6z"/>
</g>
<g>
	<path class="st2" d="M302.4,416.5c0,0.2,0,0.6,0.1,0.7c13.3,12.4,20.9,27.8,23.6,45.7c-12.9,5.9-26.6,7.6-40.6,7.3
		c-6.5-0.1-8.6-2.7-9.6-9.2c-0.2-1.5-0.5-3-0.2-4.4c2.5-15.9,9.7-29,22.6-38.9C299.5,416.8,300.9,416.5,302.4,416.5z"/>
</g>
<g>
	<path class="st2" d="M212.2,466.4c3.2-12.7,6.4-25.4,15.3-35.5c2.9-3.3,6.1-6.4,9.1-9.5c13.1,8.8,20,21.5,23.1,36.6
		c0.6,3-0.2,5.9-0.8,8.8c-0.9,4.1-3.5,6.6-7.8,6.8C237.7,474.1,224.6,472.1,212.2,466.4z"/>
</g>
<g>
	<path class="st2" d="M55.1,165.6c-4.8,7.6-9.8,14.9-18.7,18.2c-4.1-4.7-7.2-9.9-9.5-15.7c-1.2-3.1-1.6-6.2-0.8-9.4
		c1-4,4.4-6.7,8.2-5.7C42.4,155,50.1,158.1,55.1,165.6z"/>
</g>
<g>
	<path d="M181.1,106.7c-4.5,6.4-8.8,6.5-11.7-0.4c-3.9-9.2-6-18.8-4.4-28.9c1.1-7,4.5-9,11.4-8c11.3,1.8,18.4,9.2,24.5,17.8
		c3.2,4.5,1.8,7-4.5,9.7c-4.8-1.6-7.1-6-10.3-9.3c-2.9-2.9-5.6-5.9-10.8-6c0.3,3.7,0.7,6.6,0.9,9.5
		C176.5,96.8,179.4,101.6,181.1,106.7z"/>
</g>
<g>
	<path d="M396.9,101.8c-7.1-2.3-8.4-6.3-3.3-11c6.5-5.9,14.1-10.1,23.1-10.9c7.4-0.6,10.4,1.7,11.9,9.1c2.2,11-2.3,19.9-8.7,28.2
		c-1.6,2-3.8,3.3-6.6,2.4c-3.2-1-3.5-3.8-3.7-6.6c0.5-2.2,2-3.9,3.1-5.8c1.9-3.2,4-6.3,4.6-10c1-5.6-0.4-6.7-5.7-5
		C405.9,94.1,401.6,98.2,396.9,101.8z"/>
</g>
<g>
	
		<ellipse transform="matrix(0.9993 -3.809901e-02 3.809901e-02 0.9993 -9.8656 8.3614)" class="st3" cx="214.5" cy="263" rx="23.5" ry="13.3"/>
</g>
<g>
	
		<ellipse transform="matrix(0.9948 -0.1018 0.1018 0.9948 -24.955 37.3362)" class="st3" cx="353.3" cy="263.2" rx="23.5" ry="13.5"/>
</g>
<g>
	<circle cx="221.6" cy="243.6" r="18.4"/>
</g>
<g>
	<circle cx="341.9" cy="243.6" r="18.4"/>
</g>
<g>
	<circle class="st0" cx="339.9" cy="239.5" r="8.2"/>
</g>
<g>
	<path d="M291.5,279.3c-1.8,0-3.5-0.4-5-1.3c-2.3-1.4-4.3-1.4-6.8,0.1c-4.1,2.6-8.1,1.4-11.8-1.4c-3.4-2.6-5.8-6.1-8-9.8
		c-1.5-2.5-1.7-5.4,0.9-7.4c2.7-2.1,5.2-0.9,7.2,1.3c0.7,0.7,1.3,1.5,1.9,2.3c2.3,3.9,4.5,5.8,8.2,1c2.4-3,5.6-2.1,8.6,0.1
		c5.1,3.8,5.2,3.7,8.9-1.4c1.3-1.8,2.3-3.9,4.3-5c3.9-2.2,7.9-0.3,8.3,4C308.9,268.2,298.1,279.4,291.5,279.3z"/>
</g>
<g>
	<path class="st2" d="M181.1,106.7c-1.7-5.2-4.6-9.9-4.9-15.5c-0.2-2.9-0.6-5.9-0.9-9.5c5.2,0,7.9,3.1,10.8,6
		c3.3,3.3,5.5,7.7,10.3,9.3C191.4,100.4,185.6,102.6,181.1,106.7z"/>
</g>
<g>
	<path class="st2" d="M396.9,101.8c4.7-3.6,8.9-7.7,14.8-9.6c5.3-1.7,6.7-0.6,5.7,5c-0.7,3.7-2.7,6.9-4.6,10
		c-1.1,1.9-2.7,3.6-3.1,5.8C404.2,110.7,400.8,106,396.9,101.8z"/>
</g>
<g>
	<path class="st2" d="M225.9,247.5c-4.3,0.1-8.1-3.7-8.2-7.9c0-4,3.3-7.6,7.3-7.9c4.2-0.3,8.3,3.3,8.5,7.5
		C233.8,243.5,230.2,247.4,225.9,247.5z"/>
</g>
</svg>
