<?xml version="1.0" encoding="utf-8"?>
<!-- Generator: Adobe Illustrator 26.2.1, SVG Export Plug-In . SVG Version: 6.00 Build 0)  -->
<svg version="1.1" id="Layer_3" xmlns="http://www.w3.org/2000/svg" xmlns:xlink="http://www.w3.org/1999/xlink" x="0px" y="0px"
	 viewBox="0 0 500 500" style="enable-background:new 0 0 500 500;" xml:space="preserve">
<style type="text/css">
	.st0{fill:#F8F8F8;}
	.st1{fill:#C9C9C9;}
	.st2{fill:#F3F3F3;}
	.st3{fill:#5F3E2D;}
	.st4{fill:#78523F;}
	.st5{fill:#5E3E2D;}
	.st6{fill:#FCFCFC;}
	.st7{fill:#F6F6F6;}
	.st8{fill:#EFBBBB;}
	.st9{fill:#EEBBBB;}
	.st10{fill:#EDBABA;}
</style>
<g id="Layer_3_00000028295495217756914380000015985746674270247073_">
	<g>
		<g>
			<g>
				<path d="M313.19,420.82c-13.51,3.01-27.33,4.99-41.05,6.65c-13.2,1.66-26.4,2.7-39.7,3.22c-10.7,0.42-21.41,0.73-32.22,0.62
					c-11.64-0.1-23.28-0.73-34.92-1.87c-8.94-0.83-17.77-1.87-26.71-3.33c-10.7-1.77-21.41-3.85-31.91-6.65
					c-6.34-1.66-12.58-3.43-18.71-5.61c-11.74-4.05-23.18-8.63-33.78-15.17c-8.63-5.3-15.17-12.58-20.58-21.1
					c-3.43-5.51-6.03-11.12-6.86-17.67c-1.25-10.08,1.04-19.23,6.55-27.54c7.07-10.81,16.21-19.64,26.4-27.54
					c13.3-10.39,27.44-19.43,41.78-28.27c4.99-3.01,4.05-1.45,2.7-6.86c-2.18-9.15-3.85-18.29-4.88-27.64
					c-1.77-14.97-1.56-29.83,0-44.79c0.42-4.26,2.49-8,5.4-11.22c5.92-6.55,13.41-11.02,21.2-14.76
					c11.64-5.61,23.9-9.56,36.48-12.89c15.8-4.16,31.8-7.17,47.91-9.25c14.97-1.87,29.93-3.01,45-3.43
					c12.99-0.31,26.09-0.21,39.08,0.62c12.47,0.83,24.94,2.39,37.1,5.2c9.04,2.08,17.88,4.78,26.19,9.04
					c6.13,3.22,11.64,7.27,14.13,14.03c1.87,5.2,3.22,10.7,4.26,16.11c0.52,2.81,0.94,5.61,1.45,8.42c0.42,2.39,1.04,2.91,3.53,2.7
					c3.01-0.31,5.92-0.52,8.94-1.04c6.86-1.04,13.82-1.66,20.68-0.52c14.24,2.49,27.12,7.48,35.54,20.06
					c5.4,8.11,8.31,17.36,8.52,27.23c0.21,8.11-0.83,16-3.33,23.7c-0.42,1.35-1.04,2.49-1.56,3.74c-1.45,3.01-1.45,3.12,1.35,5.3
					c8.63,6.96,15.07,15.59,19.54,25.67c4.16,9.77,3.85,19.54,0.42,29.41c-4.26,12.26-12.26,21.41-22.45,29.31
					c-19.23,14.76-40.53,25.67-62.98,34.5c-14.65,5.82-29.62,10.6-44.9,14.65C331.48,416.56,322.33,418.64,313.19,420.82z
					 M335.74,205.59c4.88-2.08,9.77-4.36,14.13-7.27c-0.31-1.04-0.83-1.04-1.35-1.25c-4.05-2.08-8.42-3.01-12.68-4.26
					c-8.31-2.49-16.73-4.88-25.25-6.76c-11.33-2.49-22.86-2.91-34.4-3.74c-6.86-0.52-13.82,0.1-20.68,0.31
					c-5.09,0.21-10.29,0.52-15.38,1.04c-7.79,0.83-15.8,1.45-23.38,3.22c-6.65,1.56-13.41,3.12-19.95,5.09
					c-8.42,2.6-16.94,4.88-25.05,8.21c-12.06,4.99-23.8,10.5-35.23,16.84c-0.83,0.52-2.08,0.83-1.87,2.49
					c2.49,0.62,4.88,1.35,7.48,1.87c5.72,1.25,11.43,2.49,17.25,2.81c4.26,0.83,8.52,1.14,12.78,1.56
					c6.86,0.73,13.72,1.04,20.58,1.25c5.92,0.21,11.85,0.21,17.77-0.21c3.95-0.31,7.9,0.83,11.74-0.31
					c0.52,0.52,1.14,0.52,1.77,0.21c1.87-0.31,3.74-0.52,5.61-0.83c2.91,0.52,5.82,0.52,8.73,0c4.36-0.83,8.83-0.83,13.3-1.45
					c5.51-0.73,11.02-0.62,16.52-1.77c14.34-2.91,28.89-4.88,43.03-8.94c3.53-1.04,7.07-1.97,10.39-3.43
					c2.08-0.83,4.68-0.31,6.24-2.39C330.75,207.88,333.14,206.01,335.74,205.59z M380.43,233.86c1.45-1.45,2.81-3.01,4.26-4.36
					c5.82-5.61,11.95-10.81,20.06-12.78c8.52-2.08,16.73-1.25,23.18,5.2c8.31,8.11,12.06,18.29,11.22,29.93
					c-0.73,10.08-3.64,19.43-8.94,28.16c-4.47,7.38-10.39,13.2-17.77,17.67c-7.17,4.36-15.07,6.86-23.07,9.15
					c-5.51,1.56-10.91,3.12-16.63,3.85c-4.36,0.62-4.36,0.52-5.61,4.88c-1.56,5.51-3.12,10.91-5.82,16.11
					c-1.45,2.81-2.49,5.82-3.85,9.15c21.3-9.25,40.64-20.79,58.82-34.19c9.46-6.96,17.56-15.07,23.59-25.05
					c4.05-6.65,7.07-13.82,8.11-21.62c1.14-9.15,0.31-18.19-3.12-26.92c-2.18-5.61-4.78-11.02-9.46-14.97
					c-9.98-8.52-21.72-11.95-34.61-11.95c-5.72,0-11.33,1.35-17.04,1.66c-1.77,0.1-3.85-0.21-5.09,0.73
					c-1.77,1.25-0.21,3.53-0.21,5.3c0,6.55,0.31,13.09,0.52,19.54c-0.73,0.73-0.83,1.66,0.1,2.18
					C379.91,235.42,380.43,234.59,380.43,233.86z M369.72,189.69c-1.97,2.08-3.53,3.85-5.09,5.4c-5.82,5.92-13.09,9.67-20.47,13.09
					c-19.95,9.35-41.15,14.45-62.77,18.29c-18.5,3.33-37.1,5.3-55.81,6.13c-18.19,0.83-36.37,0.73-54.46-0.94
					c-14.97-1.45-29.93-3.64-44.27-8.63c-7.79-2.7-15.28-5.82-21.41-11.33c-0.42-0.42-0.83-0.73-1.66-0.21c0,1.04,0.1,2.29,0.1,3.43
					c-0.31,14.76,1.04,29.31,3.95,43.75c4.16,21.1,11.12,41.47,20.16,61c4.88,10.6,10.08,20.99,16.42,30.87
					c9.35,14.45,22.45,24.42,37.1,32.42c11.02,6.03,23.28,8.94,35.54,11.43c4.88,0.94,9.98,1.25,14.97,1.66
					c10.6,1.04,21.2,0.62,31.7-0.94c11.22-1.77,22.24-4.78,32.84-9.25c14.97-6.34,28.27-14.76,39.6-26.5
					c12.37-12.68,20.89-27.54,25.46-44.48c1.77-6.65,3.64-13.41,5.2-20.16c2.18-9.56,3.64-19.23,4.68-28.89
					c0.83-8.21,1.25-16.52,1.66-24.73c0.52-13.61,0.52-27.12-1.35-40.64C371.18,196.97,371.28,193.43,369.72,189.69z M445.69,283.75
					c-6.24,9.77-13.41,18.19-22.34,24.84c-6.13,4.57-12.37,8.94-18.6,13.2c-14.34,9.67-29.62,17.56-45.42,24.63
					c-4.88,2.18-9.15,4.78-12.58,9.25c-11.02,14.55-25.46,25.25-41.88,32.84c-15.17,6.96-30.97,11.54-47.6,13.3
					c-11.54,1.25-23.07,0.62-34.61-0.62c-10.39-1.14-20.37-4.16-30.35-7.38c-14.97-4.88-27.75-13.3-39.08-23.7
					c-10.81-10.08-18.71-22.55-25.05-35.85c-8-16.84-15.49-33.88-20.47-51.86c-0.62-2.18-1.14-2.39-3.01-1.14
					c-6.44,4.16-12.89,8.11-19.12,12.47c-11.64,8-23.38,15.9-33.57,25.77c-6.24,6.13-12.06,12.58-16.11,20.37
					c-4.05,8.11-5.4,16.73-1.87,25.25c5.4,12.99,14.34,23.18,26.4,30.66c8.21,4.99,17.04,8.31,25.98,11.64
					c13.41,4.99,27.23,8.42,41.26,11.12c9.46,1.87,19.02,3.12,28.58,4.26c10.39,1.14,20.79,2.08,31.28,2.49
					c14.34,0.62,28.68,0.52,43.13-0.1c14.86-0.62,29.62-1.97,44.27-3.74c16.32-2.08,32.42-4.99,48.43-8.73
					c21.72-5.09,43.03-11.43,63.71-19.85c19.43-7.9,37.93-17.46,54.87-30.03c10.91-8.11,20.27-17.25,24.01-30.97
					c1.77-6.34,2.18-12.58,0.42-18.91C462.94,300.89,455.36,291.85,445.69,283.75z M187.12,158.72c-8,1.66-16,3.12-23.9,5.3
					c-13.3,3.64-26.29,7.9-38.56,14.34c-5.92,3.12-11.43,6.76-16,11.85c-4.68,5.2-5.09,12.58,1.35,17.88
					c4.57,3.85,9.98,6.13,15.28,8.31c1.35,0.52,2.08-0.31,2.91-0.83c4.16-2.49,8.31-5.2,12.58-7.59
					c12.06-6.65,24.63-12.16,37.62-16.84c16.21-5.82,32.74-9.98,49.78-12.47c15.07-2.18,30.24-3.01,45.52-2.6
					c8.52,0.21,17.04,0.73,25.57,1.87c7.48,1.04,14.76,2.49,22.03,4.36c6.86,1.77,13.61,3.85,20.37,5.92
					c4.47,1.35,8.73,2.91,13.09,4.57c1.25,0.52,2.6,0.94,3.85-0.21c2.91-2.49,5.51-5.2,7.07-8.83c1.77-4.16,0.83-7.69-1.97-10.91
					c-0.83-1.04-1.97-1.87-3.01-2.81c-5.09-4.57-11.33-6.96-17.67-9.15c-11.33-3.85-23.18-5.92-35.02-7.38
					c-10.29-1.25-20.58-1.77-30.87-2.08c-14.13-0.42-28.27,0-42.4,1.04C218.93,153.63,202.92,155.61,187.12,158.72z M429.9,267.95
					c0.83-2.81,1.66-5.3,2.18-7.79c2.39-10.29,1.87-20.16-4.16-29.31c-2.49-3.85-5.82-6.96-10.18-8.31
					c-5.09-1.56-10.18-1.14-15.07,1.14c-8.63,3.95-15.17,10.18-20.99,17.56c-2.18,2.81-3.22,5.82-3.33,9.35
					c-0.1,1.77,0.62,2.49,2.08,2.91c1.04,0.31,2.08,0.52,3.22,0.73c5.82,1.35,11.64,2.6,17.36,4.16
					C410.57,261.09,420.13,264.21,429.9,267.95z M427.3,273.25c-16.11-6.24-32.32-11.02-49.47-14.45
					c-1.04,15.69-3.74,30.87-7.48,45.94c1.14,0,1.66,0.1,2.18,0c9.04-1.87,18.08-4.05,26.71-7.27
					C411.4,293.1,421.27,285.82,427.3,273.25z"/>
				<path class="st0" d="M369.72,189.69c1.56,3.74,1.56,7.27,1.97,10.7c1.87,13.51,1.87,27.02,1.35,40.64
					c-0.31,8.31-0.73,16.52-1.66,24.73c-1.04,9.77-2.49,19.33-4.68,28.89c-1.56,6.76-3.43,13.41-5.2,20.16
					c-4.57,17.04-13.09,31.8-25.46,44.48c-11.33,11.64-24.73,20.16-39.6,26.5c-10.6,4.47-21.51,7.48-32.84,9.25
					c-10.5,1.66-21.1,1.97-31.7,0.94c-4.99-0.52-9.98-0.73-14.97-1.66c-12.26-2.39-24.53-5.4-35.54-11.43
					c-14.65-8-27.75-17.98-37.1-32.42c-6.34-9.87-11.54-20.27-16.42-30.87c-9.04-19.54-15.9-39.8-20.16-61
					c-2.81-14.45-4.26-29-3.95-43.75c0-1.14,0-2.39-0.1-3.43c0.73-0.52,1.25-0.21,1.66,0.21c6.13,5.61,13.72,8.63,21.41,11.33
					c14.34,4.99,29.2,7.17,44.27,8.63c18.08,1.66,36.27,1.77,54.46,0.94c18.71-0.83,37.41-2.81,55.81-6.13
					c21.51-3.85,42.82-8.94,62.77-18.29c7.38-3.43,14.65-7.17,20.47-13.09C366.19,193.43,367.75,191.77,369.72,189.69z
					 M298.85,332.7c0.83-2.7,2.08-5.09,1.45-8.21c-1.04-4.57-5.61-9.15-9.98-9.35c-5.4-0.21-10.29,3.33-11.74,8.21
					c-1.45,5.3,0.94,11.12,6.65,13.61c-0.1,0.42-0.1,0.83-0.21,1.25c-1.35,3.95-0.31,5.92,3.53,6.96c0.94,0.31,1.87,0.42,2.81,0.52
					c7.27,0.73,14.34-0.83,21.41-2.39c1.97-0.52,3.85-1.56,5.3-3.01c1.87-1.87,1.66-4.36-0.42-6.03c-0.83-0.62-1.87-1.04-2.91-1.35
					C309.45,331.66,304.15,332.38,298.85,332.7z M221.84,343.19c0.21-1.04,1.14-1.45,1.66-2.18c3.43-4.16,2.81-11.54-1.66-15.38
					c-4.57-3.85-11.74-3.33-15.8,1.14c-3.64,4.05-3.64,9.67,0.1,15.17c-4.36,0.83-8.83,1.45-12.89,3.43
					c-2.49,1.14-4.26,3.74-3.85,5.72c0.52,2.29,2.49,3.12,4.57,3.53c8.21,1.66,16.11,0.62,23.9-2.08c1.66-0.52,3.43-0.94,4.78-2.18
					C225.37,348.08,224.95,345.27,221.84,343.19z M261.22,355.56c3.95-0.73,8.31-6.24,8.11-10.08c-0.1-1.45-0.73-2.7-2.29-3.01
					c-1.45-0.31-2.6,0.42-3.22,1.87c-0.31,0.73-0.52,1.56-0.73,2.29c-1.25,3.12-1.87,3.33-4.68,1.66c-2.7-1.56-3.74-1.45-5.82,1.14
					c-2.29,2.7-4.05,2.6-5.72-0.62c-0.21-0.52-0.21-1.04-0.52-1.56c-0.62-1.25-1.56-1.87-2.91-1.56c-1.56,0.31-1.77,1.56-1.77,2.81
					c0,2.49,1.45,4.26,3.01,5.92c2.7,2.7,6.03,3.22,9.15,1.14c1.87-1.25,3.43-1.87,5.4-0.42
					C259.77,355.66,260.7,355.46,261.22,355.56z"/>
				<path class="st0" d="M445.69,283.75c9.67,8.21,17.25,17.15,20.68,29.1c1.77,6.24,1.35,12.58-0.42,18.91
					c-3.85,13.61-13.09,22.86-24.01,30.97c-16.84,12.58-35.44,22.14-54.87,30.03c-20.68,8.42-41.99,14.76-63.71,19.85
					c-16,3.74-32.22,6.65-48.43,8.73c-14.65,1.87-29.41,3.22-44.27,3.74c-14.34,0.52-28.79,0.73-43.13,0.1
					c-10.39-0.42-20.89-1.35-31.28-2.49c-9.56-1.04-19.12-2.39-28.58-4.26c-14.03-2.7-27.85-6.13-41.26-11.12
					c-8.94-3.33-17.88-6.65-25.98-11.64c-12.06-7.38-21.1-17.56-26.4-30.66c-3.53-8.52-2.18-17.15,1.87-25.25
					c3.95-7.9,9.77-14.34,16.11-20.37c10.18-9.87,21.93-17.88,33.57-25.77c6.24-4.26,12.68-8.31,19.12-12.47
					c1.87-1.25,2.49-1.04,3.01,1.14c4.88,18.08,12.47,35.02,20.47,51.86c6.34,13.3,14.24,25.77,25.05,35.85
					c11.33,10.5,24.11,18.91,39.08,23.7c9.98,3.22,19.95,6.24,30.35,7.38c11.54,1.25,22.97,1.77,34.61,0.62
					c16.63-1.77,32.53-6.24,47.6-13.3c16.52-7.59,30.87-18.29,41.88-32.84c3.43-4.47,7.69-7.07,12.58-9.25
					c15.8-7.07,31.07-14.97,45.42-24.63c6.34-4.26,12.47-8.63,18.6-13.2C432.39,301.93,439.46,293.52,445.69,283.75z"/>
				<path class="st1" d="M187.12,158.72c15.8-3.12,31.7-5.09,47.7-6.24c14.13-1.04,28.16-1.45,42.4-1.04
					c10.39,0.31,20.58,0.83,30.87,2.08c11.85,1.45,23.7,3.53,35.02,7.38c6.34,2.18,12.58,4.47,17.67,9.15
					c1.04,0.94,2.08,1.77,3.01,2.81c2.81,3.22,3.74,6.76,1.97,10.91c-1.56,3.64-4.16,6.24-7.07,8.83c-1.25,1.14-2.6,0.62-3.85,0.21
					c-4.36-1.66-8.73-3.22-13.09-4.57c-6.76-2.08-13.51-4.05-20.37-5.92c-7.27-1.87-14.55-3.33-22.03-4.36
					c-8.52-1.14-17.04-1.66-25.57-1.87c-15.28-0.42-30.45,0.42-45.52,2.6c-17.04,2.49-33.57,6.76-49.78,12.47
					c-12.99,4.68-25.57,10.18-37.62,16.84c-4.26,2.39-8.42,4.99-12.58,7.59c-0.94,0.52-1.66,1.35-2.91,0.83
					c-5.4-2.29-10.7-4.47-15.28-8.31c-6.44-5.4-6.03-12.68-1.35-17.88c4.47-4.99,10.08-8.73,16-11.85
					c12.26-6.44,25.25-10.7,38.56-14.34C171.12,161.94,179.12,160.39,187.12,158.72z"/>
				<path class="st2" d="M379.28,233.13c-0.21-6.55-0.52-12.99-0.52-19.54c0-1.77-1.66-4.05,0.21-5.3c1.25-0.83,3.43-0.62,5.09-0.73
					c5.72-0.31,11.22-1.66,17.04-1.66c12.89,0,24.63,3.43,34.61,11.95c4.68,4.05,7.27,9.46,9.46,14.97
					c3.43,8.63,4.26,17.67,3.12,26.92c-1.04,7.79-4.05,14.97-8.11,21.62c-6.03,10.08-14.13,18.08-23.59,25.05
					c-18.19,13.41-37.52,24.94-58.82,34.19c1.35-3.33,2.39-6.34,3.85-9.15c2.7-5.09,4.26-10.6,5.82-16.11
					c1.25-4.36,1.14-4.26,5.61-4.88c5.61-0.73,11.12-2.29,16.63-3.85c8-2.18,15.8-4.78,23.07-9.15c7.38-4.47,13.2-10.29,17.77-17.67
					c5.3-8.63,8.21-18.08,8.94-28.16c0.83-11.64-2.91-21.82-11.22-29.93c-6.55-6.34-14.65-7.27-23.18-5.2
					c-8.11,1.97-14.24,7.07-20.06,12.78c-1.45,1.45-2.81,2.91-4.26,4.36C380.12,233.65,379.7,233.34,379.28,233.13z"/>
				<path class="st3" d="M327.94,207.98c-1.56,2.08-4.16,1.56-6.24,2.39c-3.33,1.45-6.86,2.39-10.39,3.43
					c-14.13,4.05-28.68,6.03-43.03,8.94c-5.4,1.14-11.02,1.04-16.52,1.77c-4.47,0.52-8.94,0.62-13.3,1.45
					c-2.91,0.52-5.82,0.52-8.73,0c0.94-1.56,2.6-1.14,3.95-1.66c2.29-0.73,4.57,0.1,6.86-0.42c5.09-1.14,10.18-1.87,15.28-3.01
					c4.26-0.94,8.31-2.49,12.06-4.68c3.95-2.29,4.36-7.07,0.52-9.67c-1.87-1.25-3.95-2.29-6.24-2.81
					c-12.89-2.7-25.67-1.87-38.35,0.73c-0.94,0.21-1.77,0.62-2.6,1.04c-1.66,0.73-2.81,1.77-2.08,3.74
					c0.62,1.66,2.39,2.29,4.36,1.45c1.25-0.62,2.6-0.83,3.95-1.14c6.44-1.14,12.89-1.66,19.43-1.87c4.88-0.1,9.77,0.42,14.45,1.87
					c1.04,0.31,2.08,0.52,2.7,2.08c-7.69,2.91-15.38,5.2-23.49,5.92c-2.6,0.21-5.2,0.42-7.69,0.94c-4.78,1.25-9.77,1.14-14.55,1.66
					c-7.38,0.83-14.86,1.14-22.24,1.14c-8.94,0-17.88,0.73-26.81-0.31c-1.77-0.21-4.36,0.1-4.68-2.39
					c-0.21-1.97,1.97-2.91,3.74-3.85c4.88-2.6,9.87-4.88,15.28-6.55c5.72-1.66,11.54-3.01,17.25-4.57c9.46-2.39,19.12-3.53,29-4.16
					c7.59-0.52,15.07-1.56,22.66-1.66c12.78-0.31,25.57,0.31,38.35,1.77c9.77,1.14,19.23,3.01,28.79,5.2
					C322.44,205.7,325.66,205.7,327.94,207.98z"/>
				<path class="st4" d="M327.94,207.98c-2.29-2.29-5.51-2.29-8.31-2.91c-9.46-2.18-19.02-4.05-28.79-5.2
					c-12.78-1.45-25.57-2.08-38.35-1.77c-7.59,0.21-15.07,1.25-22.66,1.66c-9.77,0.62-19.54,1.77-29,4.16
					c-5.72,1.45-11.54,2.81-17.25,4.57c-5.4,1.56-10.39,3.85-15.28,6.55c-1.66,0.94-3.85,1.87-3.74,3.85
					c0.21,2.39,2.81,2.08,4.68,2.39c8.94,1.04,17.88,0.31,26.81,0.31c7.48,0,14.86-0.42,22.24-1.14c4.88-0.52,9.77-0.52,14.55-1.66
					c2.49-0.62,5.09-0.83,7.69-0.94c8.11-0.62,15.9-3.01,23.49-5.92c-0.62-1.56-1.77-1.77-2.7-2.08c-4.68-1.56-9.56-2.08-14.45-1.87
					c-6.44,0.21-12.99,0.73-19.43,1.87c-1.35,0.21-2.6,0.52-3.95,1.14c-1.97,0.94-3.74,0.31-4.36-1.45
					c-0.83-1.97,0.42-3.01,2.08-3.74c0.83-0.42,1.66-0.94,2.6-1.04c12.78-2.7,25.57-3.53,38.35-0.73c2.29,0.52,4.36,1.56,6.24,2.81
					c3.74,2.6,3.43,7.38-0.52,9.67c-3.74,2.18-7.9,3.74-12.06,4.68c-5.09,1.14-10.18,1.87-15.28,3.01
					c-2.29,0.52-6.86,0.42-6.86,0.42s-3.12,0-3.95,1.66c-1.87,0.31-3.74,0.52-5.61,0.83c-0.52-0.94-1.04-1.66-1.77-0.21
					c-3.85,1.14-7.79,0.1-11.74,0.31c-5.92,0.42-11.85,0.42-17.77,0.21c-6.86-0.21-13.72-0.52-20.58-1.25
					c-4.26-0.42-8.63-0.73-12.78-1.56c-0.52-1.14-1.14-2.18-1.45-3.33c-0.62-1.87-0.42-3.85,1.04-5.4c2.6-2.81,5.51-5.2,8.94-6.96
					c8.94-4.88,18.81-6.86,28.48-9.46c10.39-2.81,21.2-3.64,31.8-5.09c3.43-0.42,6.96-1.04,10.5-1.14c4.57-0.1,9.15-0.31,13.82-0.31
					c5.51-0.1,11.12-0.52,16.63-0.21c8.83,0.52,17.77,1.04,26.61,2.39c10.08,1.45,20.06,3.53,29.93,6.03
					c2.91,0.73,5.61,1.97,8.42,3.01c0.94,0.31,1.66,0.94,1.77,1.97C333.14,206.01,330.75,207.88,327.94,207.98z"/>
				<g>
					<g>
						<path class="st4" d="M215.18,227.63c4.88,0.52,9.87-0.73,14.65-1.66c5.09-1.04,10.08-2.18,15.07-3.64
							c2.6-0.73,1.87-4.88-0.83-4.16c-4.78,1.35-9.67,2.49-14.55,3.53c-4.57,0.94-9.35,2.18-14.03,1.66
							C212.79,223.16,212.48,227.42,215.18,227.63L215.18,227.63z"/>
					</g>
				</g>
				<g>
					<g>
						<path d="M324.52,214.22c2.6-1.04,5.2-1.97,7.69-3.01c1.04-0.42,1.45-1.87,0.94-2.81c-0.62-1.04-1.77-1.35-2.81-0.94
							c-2.6,1.04-5.2,1.97-7.69,3.01c-1.04,0.42-1.45,1.87-0.94,2.81C322.33,214.32,323.48,214.64,324.52,214.22L324.52,214.22z"/>
					</g>
				</g>
				<g>
					<g>
						<path d="M214.67,231.26c9.04-0.42,18.08-0.73,27.12-1.14c1.14,0,2.18-0.73,2.29-1.97c0.1-1.04-0.83-2.29-1.97-2.29
							c-9.04,0.42-18.08,0.73-27.12,1.14c-1.14,0-2.18,0.73-2.29,1.97C212.69,230.02,213.52,231.37,214.67,231.26L214.67,231.26z"/>
					</g>
				</g>
				<g>
					<g>
						<path d="M230.98,230.43c4.16-0.31,8-0.52,12.16-0.62c1.14,0,2.18-0.73,2.29-1.97c0-1.04-0.73-2.29-1.97-2.29
							c-4.47,0.21-8.83,0.42-13.3,0.73c-1.14,0.1-1.87,1.45-1.66,2.49C228.8,230.02,229.84,230.54,230.98,230.43L230.98,230.43z"/>
					</g>
				</g>
				<path class="st5" d="M335.74,205.59c-0.1-1.04-0.83-1.66-1.77-1.97c-2.81-1.04-5.61-2.29-8.42-3.01
					c-9.87-2.49-19.85-4.57-29.93-6.03c-8.83-1.35-17.77-1.77-26.61-2.39c-5.51-0.31-11.12,0.1-16.63,0.21
					c-4.57,0.1-9.25,0.21-13.82,0.31c-3.53,0.1-7.07,0.62-10.5,1.14c-10.6,1.45-21.41,2.29-31.8,5.09
					c-9.67,2.6-19.54,4.68-28.48,9.46c-3.43,1.87-6.34,4.16-8.94,6.96c-1.45,1.56-1.56,3.43-1.04,5.4c0.31,1.14,0.94,2.18,1.45,3.33
					c-5.82-0.42-11.54-1.66-17.25-2.81c-2.49-0.52-4.99-1.25-7.48-1.87c-0.31-1.66,0.94-1.97,1.87-2.49
					c11.43-6.34,23.18-11.85,35.23-16.84c8.21-3.33,16.63-5.72,25.05-8.21c6.65-2.08,13.3-3.53,19.95-5.09
					c7.69-1.77,15.59-2.39,23.38-3.22c5.09-0.52,10.29-0.94,15.38-1.04c6.96-0.21,13.82-0.83,20.68-0.31
					c11.43,0.83,23.07,1.25,34.4,3.74c8.52,1.87,16.84,4.26,25.25,6.76c4.26,1.25,8.63,2.18,12.68,4.26
					c0.42,0.21,1.04,0.31,1.35,1.25C345.61,201.23,340.73,203.41,335.74,205.59z"/>
				<g>
					<g>
						<path d="M375.02,233.13c0.21,1.25,0.42,2.49,0.42,3.74c0,0.52,0.52,1.04,0.94,1.35c0.42,0.31,1.04,0.42,1.56,0.31
							c0.52-0.1,1.04-0.42,1.35-0.94c0.1-0.21,0.21-0.31,0.21-0.52c0.1-0.31,0.1-0.73,0.1-1.14c-0.1-1.25-0.21-2.49-0.42-3.74
							c-0.1-0.52-0.42-1.04-0.94-1.35c-0.42-0.31-1.04-0.42-1.56-0.31c-0.52,0.1-1.04,0.42-1.35,0.94
							C375.13,232.09,374.92,232.61,375.02,233.13L375.02,233.13z"/>
					</g>
				</g>
				<g>
					<g>
						<path d="M380.53,233.97c-0.52,0.52-1.04,1.14-1.56,1.66c-0.21,0.21-0.42,0.42-0.52,0.62c-0.1,0.21-0.21,0.52-0.21,0.73
							c0,0.31,0,0.52,0.1,0.83c0.1,0.31,0.21,0.52,0.42,0.73c0.1,0.1,0.31,0.21,0.42,0.31c0.31,0.21,0.62,0.31,1.04,0.42
							c0.21,0,0.42,0,0.52,0c0.42-0.1,0.73-0.21,1.04-0.52c0.52-0.52,1.04-1.14,1.56-1.66c0.21-0.21,0.42-0.42,0.52-0.62
							c0.1-0.21,0.21-0.52,0.21-0.73c0-0.31,0-0.52-0.1-0.83c-0.1-0.31-0.21-0.52-0.42-0.73c-0.1-0.1-0.31-0.21-0.42-0.31
							c-0.31-0.21-0.62-0.31-1.04-0.42c-0.21,0-0.42,0-0.52,0C381.15,233.55,380.84,233.76,380.53,233.97L380.53,233.97z"/>
					</g>
				</g>
				<g>
					<g>
						<path d="M384.48,202.79c-2.7,0.62-5.4,1.45-8,2.29c-0.52,0.21-1.04,0.42-1.35,0.94c-0.31,0.42-0.42,1.04-0.31,1.56
							s0.42,1.04,0.94,1.35c0.42,0.31,1.04,0.52,1.56,0.31c2.6-0.83,5.3-1.66,8-2.29c1.04-0.31,1.97-1.35,1.66-2.49
							C386.66,203.52,385.62,202.58,384.48,202.79L384.48,202.79z"/>
					</g>
				</g>
				<g>
					<g>
						<path d="M374.61,207.46c0,3.64,0,7.27,0,10.91c0,1.14,0.73,2.29,1.97,2.29c1.04,0,2.29-0.73,2.29-1.97c0-3.64,0-7.27,0-10.91
							c0-1.14-0.73-2.29-1.97-2.29C375.75,205.49,374.61,206.32,374.61,207.46L374.61,207.46z"/>
					</g>
				</g>
				<path class="st6" d="M429.9,267.95c-9.77-3.74-19.23-6.86-28.89-9.56c-5.72-1.66-11.64-2.81-17.36-4.16
					c-1.04-0.31-2.08-0.42-3.22-0.73c-1.45-0.42-2.18-1.14-2.08-2.91c0.21-3.53,1.14-6.55,3.33-9.35
					c5.82-7.38,12.37-13.61,20.99-17.56c4.88-2.29,9.98-2.7,15.07-1.14c4.47,1.35,7.69,4.47,10.18,8.31
					c6.03,9.15,6.55,19.02,4.16,29.31C431.56,262.65,430.73,265.04,429.9,267.95z"/>
				<path class="st7" d="M427.3,273.25c-6.03,12.58-15.9,19.85-28.06,24.32c-8.63,3.22-17.67,5.4-26.71,7.27
					c-0.52,0.1-1.04,0-2.18,0c3.74-15.17,6.44-30.24,7.48-45.94C394.98,262.23,411.19,267.01,427.3,273.25z"/>
				<path d="M206.25,341.94c-3.74-5.51-3.74-11.12-0.1-15.17c4.05-4.47,11.12-4.99,15.8-1.14c4.47,3.85,5.2,11.22,1.66,15.38
					c-0.62,0.73-1.56,1.14-1.66,2.18C216.43,346.52,211.13,346.31,206.25,341.94z"/>
				<path d="M285.23,337.06c-5.72-2.6-8.11-8.31-6.65-13.61c1.35-4.88,6.24-8.42,11.74-8.21c4.47,0.21,8.94,4.68,9.98,9.35
					c0.73,3.12-0.62,5.51-1.45,8.21C295.21,336.96,290.74,338.83,285.23,337.06z"/>
				<path class="st8" d="M285.23,337.06c5.61,1.77,9.98-0.1,13.61-4.36c5.3-0.42,10.5-1.04,15.8,0.31c1.04,0.31,2.08,0.62,2.91,1.35
					c2.08,1.66,2.29,4.16,0.42,6.03c-1.45,1.45-3.33,2.6-5.3,3.01c-7.07,1.66-14.13,3.12-21.41,2.39c-0.94-0.1-1.87-0.21-2.81-0.52
					c-3.95-1.14-4.88-3.12-3.53-6.96C285.13,337.89,285.13,337.48,285.23,337.06z"/>
				<path class="st9" d="M206.25,341.94c4.88,4.36,10.08,4.47,15.59,1.25c3.12,2.08,3.43,4.88,0.94,7.17
					c-1.35,1.25-3.12,1.66-4.78,2.18c-7.79,2.7-15.8,3.74-23.9,2.08c-1.97-0.42-4.05-1.25-4.57-3.53c-0.42-1.97,1.35-4.57,3.85-5.72
					C197.41,343.4,201.88,342.88,206.25,341.94z"/>
				<path d="M261.22,355.56c-0.42-0.1-1.45,0.1-1.97-0.31c-1.97-1.45-3.53-0.83-5.4,0.42c-3.12,2.08-6.44,1.66-9.15-1.14
					c-1.66-1.66-3.01-3.43-3.01-5.92c0-1.25,0.31-2.39,1.77-2.81c1.45-0.31,2.39,0.31,2.91,1.56c0.21,0.52,0.21,1.04,0.52,1.56
					c1.66,3.22,3.43,3.43,5.72,0.62c2.08-2.49,3.01-2.7,5.82-1.14c2.81,1.66,3.43,1.45,4.68-1.66c0.31-0.73,0.52-1.56,0.73-2.29
					c0.62-1.45,1.77-2.18,3.22-1.87c1.56,0.31,2.18,1.56,2.29,3.01C269.54,349.32,265.07,354.83,261.22,355.56z"/>
			</g>
			
				<ellipse transform="matrix(0.994 -0.1097 0.1097 0.994 -35.3388 35.1126)" class="st10" cx="301.45" cy="338.74" rx="19.85" ry="8.83"/>
			<circle cx="289.28" cy="326.88" r="11.22"/>
			
				<ellipse transform="matrix(0.999 -0.0458 0.0458 0.999 -15.7168 9.7392)" class="st10" cx="204.7" cy="347.88" rx="19.85" ry="8.83"/>
			<circle cx="214.87" cy="334.25" r="11.22"/>
		</g>
	</g>
</g>
</svg>
