<?xml version="1.0" encoding="utf-8"?>
<!-- Generator: Adobe Illustrator 26.2.1, SVG Export Plug-In . SVG Version: 6.00 Build 0)  -->
<svg version="1.1" id="Layer_1" xmlns="http://www.w3.org/2000/svg" xmlns:xlink="http://www.w3.org/1999/xlink" x="0px" y="0px"
	 viewBox="0 0 500 500" style="enable-background:new 0 0 500 500;" xml:space="preserve">
<style type="text/css">
	.st0{fill:#FEFEFE;}
</style>
<g id="Layer_4">
	<g>
		<g>
			<g>
				<path d="M96.15,152.95c5.18-3.11,10.25-6.23,15.42-9.19c5.43-3.11,10.94-6.05,16.93-7.99c8.65-2.79,17.43-3.12,26.35-1.77
					c10.66,1.62,20.04,6.16,28.75,12.33c17.87,12.66,29.58,29.94,37.49,50.02c4.56,11.59,6.77,23.68,6.67,36.12
					c-0.11,10.46-1.64,20.75-4.22,30.9c-2.4,9.47-5.63,18.62-9.85,27.41c-3.65,7.58-8.06,14.71-12.97,21.54
					c-3,4.19-6.17,8.23-9.49,12.18c-4.74,5.63-10.52,9.25-17.81,10.6c-4.01,0.75-7.99,1.25-12.01,0.51
					c-1.71-0.32-2.79,0.21-3.98,1.43c-3.89,3.98-8.2,7.46-12.99,10.33c-6.22,3.72-12.91,5.09-20.07,4.34
					c-14.79-1.55-29.14-4.92-42.98-10.4c-8.99-3.56-17.31-8.39-25.36-13.71c-9.07-5.99-17.37-12.9-24.61-21.02
					c-8.57-9.62-14.91-20.6-19.26-32.74c-3.92-10.91-6.38-22.11-6.95-33.69c-0.74-14.67,1.19-29.01,7.61-42.31
					c8.11-16.77,21.29-27.65,39.53-32.14c6.37-1.56,12.76-3,19.28-3.81c3.8-0.47,7.48-1.68,11.14-2.82
					c1.37-0.42,1.62-1.08,1.31-2.45c-1.53-6.85-2.09-13.81-1.68-20.78c0.75-12.72,3.99-24.77,10.78-35.69
					c1.98-3.18,4.01-6.32,6.05-9.46c1.88-2.88,2.16-2.94,5.4-1.5c3.53,1.56,7.06,3.11,10.58,4.65c2.13,0.93,4.29,1.79,6.55,2.43
					c0.96,0.27,1.94,0.66,2.79,1.17c2.31,1.37,2.73,2.99,1.55,5.39c-0.63,1.31-1.62,2.33-2.61,3.33
					c-4.25,4.32-8.44,8.69-12.43,13.26c-8.3,9.47-13.21,20.51-15.25,32.89C95.8,152.41,95.89,152.5,96.15,152.95z M103.01,92.67
					c-3.11,4.43-5.83,8.8-8.29,13.36c-4.74,8.8-7.34,18.24-8.09,28.12c-0.62,8.18,0.17,16.36,1.71,24.44
					c0.51,2.66,0.51,2.67-2.1,3.66c-2.93,1.11-5.98,1.83-9.04,2.48c-8.89,1.86-17.87,3.3-26.62,5.8
					c-13.47,3.83-23.87,11.85-31.03,23.72c-8.93,14.83-11.27,31.24-10.04,48.28c0.71,9.62,2.82,18.96,5.92,28.12
					c4.41,13.05,11.12,24.73,20.54,34.76c11.41,12.16,24.88,21.57,39.89,28.78c7.96,3.83,16.2,6.88,24.82,8.96
					c8.77,2.13,17.52,4.31,26.57,4.5c4.52,0.09,9.01-0.36,13.17-2.72c5.78-3.27,10.79-7.43,15.37-12.18c1.41-1.47,2.96-2,4.91-1.49
					c3.09,0.81,6.22,0.69,9.32,0.24c6.17-0.89,11.56-3.26,16.02-7.84c4.76-4.88,8.72-10.3,12.67-15.81
					c10.6-14.79,17.63-31.11,21.54-48.84c1.01-4.55,1.83-9.13,2.42-13.75c0.86-6.65,1.1-13.3,0.63-19.98
					c-0.77-10.87-3.41-21.29-7.73-31.3c-8.45-19.59-20.79-35.97-39.11-47.41c-12.33-7.7-25.64-10.64-40.05-8.42
					c-6.59,1.02-12.55,3.72-18.36,6.79c-7.06,3.72-13.69,8.18-20.61,12.15c-1.97,1.13-3.86,2.52-6.02,2.7
					c-0.59-0.33-0.5-0.66-0.5-0.96c-0.09-4.82,1.2-9.4,2.25-14.04c2.25-9.91,6.92-18.51,13.29-26.32
					c4.16-5.09,8.68-9.83,13.33-14.47c0.89-0.89,1.97-1.71,2.21-3.23C115.48,98.48,109.37,95.6,103.01,92.67z"/>
				<path class="st0" d="M103.01,92.67c6.37,2.93,12.48,5.81,18.98,8.09c-0.24,1.52-1.32,2.36-2.21,3.23
					c-4.65,4.64-9.17,9.38-13.33,14.47c-6.37,7.79-11.03,16.41-13.29,26.32c-1.05,4.64-2.34,9.22-2.25,14.04
					c0,0.29-0.09,0.62,0.5,0.96c2.18-0.18,4.07-1.58,6.02-2.7c6.92-3.96,13.56-8.42,20.61-12.15c5.81-3.06,11.76-5.77,18.36-6.79
					c14.43-2.24,27.73,0.72,40.05,8.42c18.32,11.44,30.66,27.8,39.11,47.41c4.32,10.01,6.97,20.43,7.73,31.3
					c0.47,6.68,0.23,13.33-0.63,19.98c-0.59,4.62-1.41,9.2-2.42,13.75c-3.92,17.73-10.94,34.05-21.54,48.84
					c-3.95,5.51-7.93,10.93-12.67,15.81c-4.46,4.58-9.85,6.95-16.02,7.84c-3.12,0.45-6.25,0.57-9.32-0.24
					c-1.95-0.51-3.5,0.03-4.91,1.49c-4.56,4.74-9.59,8.9-15.37,12.18c-4.16,2.36-8.65,2.81-13.17,2.72
					c-9.05-0.2-17.81-2.37-26.57-4.5c-8.62-2.09-16.84-5.13-24.82-8.96c-15.01-7.21-28.46-16.62-39.89-28.78
					c-9.41-10.03-16.11-21.71-20.54-34.76c-3.09-9.16-5.22-18.5-5.92-28.12c-1.25-17.02,1.1-33.45,10.04-48.28
					c7.16-11.88,17.57-19.89,31.03-23.72c8.75-2.49,17.73-3.92,26.62-5.8c3.06-0.65,6.11-1.35,9.04-2.48
					c2.61-0.99,2.6-1.02,2.1-3.66c-1.55-8.08-2.33-16.26-1.71-24.44c0.75-9.88,3.35-19.32,8.09-28.12
					C97.18,101.49,99.91,97.12,103.01,92.67z"/>
			</g>
		</g>
	</g>
</g>
<g id="Layer_3">
	<g>
		<g>
			<g>
				<path d="M368.45,149.86c9.04,0.39,17.94,0.63,26.84,1.17c9.34,0.57,18.66,1.43,27.74,3.93c13.11,3.62,24.37,10.4,34.41,19.44
					c12,10.78,20.01,24.17,25.84,39.03c11.95,30.51,12.39,61.75,5.78,93.38c-3.81,18.26-10.97,35.18-21.35,50.65
					c-8.72,13-19.1,24.61-30.67,35.18c-10.79,9.86-22.34,18.66-34.85,26.18c-10.79,6.5-22.17,11.79-33.93,16.29
					c-7.21,2.76-14.47,5.22-21.87,7.43c-10.55,3.15-20.76,2.91-30.99-1.38c-5.63-2.36-11.02-5-15.45-9.25
					c-1.88-1.8-3.66-2.04-6.16-1.49c-8.14,1.79-16.38,2.6-24.74,2.25c-10.84-0.45-20.33-4.25-28.68-11.08
					c-17.22-14.08-32.4-30.12-45.2-48.33c-8.32-11.83-14.76-24.71-20.46-37.97c-6.43-14.95-11.14-30.42-13.51-46.51
					c-2.82-19.1-1.73-38.01,2.81-56.79c4.08-16.87,10.19-32.91,18.98-47.85c11.14-18.95,25.31-35.3,44.29-46.65
					c23.92-14.31,49.35-17.1,75.85-7.72c9.25,3.27,18.42,6.73,27.25,11.08c5.15,2.54,10.73,4.04,16.26,5.63
					c2.06,0.59,2.91-0.01,3.65-1.98c3.71-9.82,8.74-19.01,14.98-27.38c11.39-15.28,25.36-27.68,42.82-35.78
					c5.09-2.36,10.21-4.61,15.34-6.85c4.73-2.07,5.12-1.91,7.99,2.55c3.12,4.85,6.26,9.68,9.41,14.52c1.91,2.93,3.9,5.78,6.19,8.42
					c0.98,1.14,1.88,2.4,2.54,3.75c1.77,3.6,0.96,5.98-2.49,8.03c-1.86,1.11-3.93,1.58-5.99,2.03c-8.86,1.91-17.7,3.95-26.44,6.38
					c-18.17,5.04-33.39,14.79-46.11,28.61C368.47,148.9,368.51,149.08,368.45,149.86z M426.57,80.11c-7.52,3-14.52,6.22-21.33,9.89
					c-13.15,7.12-24.16,16.78-33.22,28.52c-7.51,9.73-13.24,20.6-17.96,31.98c-1.55,3.74-1.55,3.77-5.64,2.87
					c-4.58-1.02-8.98-2.61-13.33-4.32c-12.66-4.97-25.06-10.55-38.06-14.64c-20-6.29-39.6-4.8-58.3,4.16
					c-23.36,11.2-39.78,29.82-52.23,52.13c-7.03,12.61-12.06,26.03-15.7,40.02c-5.19,19.94-6.41,40.05-2.88,60.34
					c4.28,24.59,13.39,47.43,26.24,68.77c6.82,11.33,14.62,21.9,23.68,31.6c9.22,9.86,18.38,19.79,29.55,27.46
					c5.57,3.83,11.56,6.95,18.71,7.42c9.92,0.66,19.61-0.42,29.23-2.6c2.97-0.68,5.34-0.08,7.37,2.18c3.2,3.56,7.21,5.96,11.47,7.96
					c8.45,3.96,17.13,5.42,26.48,3.36c9.95-2.19,19.38-5.7,28.86-9.35c25.4-9.79,47.61-24.41,67.08-43.37
					c5-4.86,9.79-9.91,14.32-15.22c6.53-7.61,12.3-15.75,17.2-24.47c7.99-14.23,13.23-29.43,16.06-45.5
					c5.52-31.47,3.54-62.08-9.97-91.43c-9.08-19.76-23.32-34.39-43.19-43.45c-9.08-4.14-18.75-5.66-28.54-6.59
					c-11.89-1.14-23.86-1.02-35.76-1.74c-3.38-0.21-6.89-0.01-9.76-1.56c-0.47-0.9-0.08-1.23,0.17-1.61
					c3.86-6.1,9.22-10.76,14.35-15.7c10.96-10.54,23.89-17.48,38.24-21.99c9.38-2.96,18.93-5.18,28.57-7.15
					c1.83-0.38,3.86-0.53,5.4-2.24C437.41,97.64,432.12,89,426.57,80.11z"/>
				<path class="st0" d="M426.57,80.11c5.55,8.89,10.82,17.52,17.1,25.72c-1.55,1.7-3.59,1.86-5.4,2.24
					c-9.62,1.97-19.19,4.19-28.57,7.15c-14.37,4.52-27.28,11.45-38.24,21.99c-5.13,4.94-10.51,9.61-14.35,15.7
					c-0.23,0.36-0.63,0.71-0.17,1.61c2.87,1.56,6.38,1.37,9.76,1.56c11.92,0.72,23.87,0.6,35.76,1.74
					c9.79,0.93,19.46,2.45,28.54,6.59c19.88,9.05,34.09,23.69,43.19,43.45c13.51,29.37,15.49,59.98,9.97,91.43
					c-2.82,16.08-8.08,31.29-16.06,45.5c-4.89,8.74-10.67,16.86-17.2,24.47c-4.55,5.3-9.32,10.34-14.32,15.22
					c-19.47,18.96-41.66,33.58-67.08,43.37c-9.46,3.65-18.9,7.16-28.86,9.35c-9.35,2.06-18.03,0.6-26.48-3.36
					c-4.26-2-8.29-4.41-11.47-7.96c-2.03-2.25-4.4-2.85-7.37-2.18c-9.61,2.18-19.31,3.26-29.23,2.6
					c-7.13-0.48-13.14-3.59-18.71-7.42c-11.17-7.67-20.33-17.6-29.55-27.46c-9.05-9.7-16.86-20.27-23.68-31.6
					c-12.84-21.35-21.95-44.18-26.24-68.77c-3.53-20.28-2.33-40.39,2.88-60.34c3.65-13.99,8.68-27.41,15.7-40.02
					c12.45-22.32,28.87-40.93,52.23-52.13c18.71-8.96,38.31-10.45,58.3-4.16c13,4.08,25.4,9.67,38.06,14.64
					c4.35,1.71,8.75,3.32,13.33,4.32c4.08,0.9,4.08,0.87,5.64-2.87c4.71-11.38,10.43-22.25,17.96-31.98
					c9.07-11.74,20.07-21.42,33.22-28.52C412.05,86.32,419.05,83.11,426.57,80.11z"/>
			</g>
		</g>
	</g>
</g>
</svg>
