<?xml version="1.0" encoding="utf-8"?>
<!-- Generator: Adobe Illustrator 26.2.1, SVG Export Plug-In . SVG Version: 6.00 Build 0)  -->
<svg version="1.1" id="Layer_2_00000116195209804773874180000010409435832706674836_"
	 xmlns="http://www.w3.org/2000/svg" xmlns:xlink="http://www.w3.org/1999/xlink" x="0px" y="0px" viewBox="0 0 500 500"
	 style="enable-background:new 0 0 500 500;" xml:space="preserve">
<style type="text/css">
	.st0{fill:#FFFFFF;}
	.st1{fill:#F8D5A0;}
	.st2{fill:#EEBAB9;}
</style>
<g>
	<g>
		<path d="M258.5,424.4c-26.1,0-53.3-4.7-83-14.3c-22.1-7.1-43.6-14.6-63.6-26.9c-5.7-3.5-12.8-8.5-17.4-16.8
			c-0.5-0.8-0.7-1.2-2.8-1.5c-16.1-2.3-31.4-6.4-45.5-12.2c-19.2-7.9-31.2-23.1-35.7-45.4c-2.6-12.8-1-26,0.2-36.6
			c3.1-25.9,8.6-50.5,16.5-73c4.3-12.3,10.8-23.7,19.3-33.8c16.1-19.1,33-28.4,53.1-29.3c2.5-0.1,3.6-0.5,4.8-1.6
			c23.5-21.9,52.9-36.4,89.9-44.1c6-1.2,12.5-2.3,19.2-3.1c8.4-0.9,17.4-1.8,26.7-1.8c1.1,0,2.1,0,3.2,0c55.1,1,103.8,16.3,145,45.6
			c5,3.6,9.6,6,15.9,6.4c20.7,1.3,35.2,14.3,45.5,25.5c12.1,13.2,20.7,29.6,26.3,50.2c5.3,19.4,10.9,42.5,12.8,67
			c0.4,5.6,0.6,11.6,0.6,18.7c-0.1,16-6.2,30.7-18,43.6c-4.6,4.9-10.2,8.8-16.7,11.5c-17.5,7.1-33.6,11.4-49.2,13.1
			c-2.2,0.2-2.7,0.7-3.4,1.8c-7.6,12.9-19.1,20.8-28.4,26.3c-21.7,12.8-46.4,21.5-77.8,27.2C283.9,423.3,271.2,424.4,258.5,424.4z
			 M120.9,212.6c-17.9,34.5-24.6,64.6-21.2,95c1.6,14.1,3.5,27.8,9.8,40.1c5.1,10.1,11.5,16.9,20.1,21.5
			c17.7,9.4,36.6,15.7,54.3,21.3c27.2,8.6,51.4,12.8,74.1,12.8c9.3,0,18.6-0.7,27.6-2.1c31.3-4.9,56.2-13.2,78.3-26.2
			c16.7-9.8,26.5-23.9,29.9-43.1c1.4-8.1,2.1-15.3,2.1-21.8c0.1-36.8-2.3-66.6-7.5-93.9c-0.8-4-0.2-7.5,1.7-10.2
			c1.5-2.2,3.8-3.7,6.5-4.2c0.7-0.1,1.3-0.2,1.9-0.2c6.9,0,8.8,7.1,9.5,9.8c0.4,1.6,0.8,3.1,1.1,4.5c2.5,11.9,4.3,23.8,5.4,35.3
			l0.4,4.4c2.5,28.5,5.1,57.8-1.7,87.7c9.2-2.1,19.8-4.7,30.1-8.7c15.5-6,23.8-17.7,25.2-35.7c0.6-7.5,0.1-15-0.8-24
			c-1.9-17.6-5.6-36-12.2-59.4c-4.9-17.6-12.7-31.6-23.9-42.8c-8.3-8.3-16.6-15.7-27.9-16c-13-0.3-22.4-6.5-31.5-12.6
			c-38.9-25.6-81.5-38.6-126.6-38.6c-13.9,0-28.3,1.2-42.8,3.7c-33.8,5.7-62.3,19.3-84.7,40.5c-3.5,3.3-7.6,4.9-12.6,4.9
			c-15.5,0-28.4,6.6-40.5,20.7c-8.2,9.6-14.3,20.1-18,31.2c-6.7,19.8-11.4,40.7-14.6,64c-1.5,11.4-1.9,20.6-1.2,28.9
			c1.3,15.3,8.2,26.3,20.7,32.5c10.3,5.2,21.9,8,33,10.3c-4.9-16.6-6.3-33.3-6.9-46.2c-1.3-26.5,6.8-51.1,14.9-71.7
			c3.1-8,7-15.5,11.4-22.4c3.6-5.5,7.5-6.6,10.2-6.6c1.6,0,3.1,0.4,4.5,1.1c2.5,1.3,4.3,3.8,4.8,6.7
			C124.2,206.4,123.2,209.9,120.9,212.6z"/>
		<path class="st0" d="M240.5,89c1,0,2,0,3.1,0c51.8,0.9,99.7,14.4,142.3,44.7c5.7,4.1,11.2,6.8,18.4,7.3
			c17.7,1.1,30.7,11.5,42.2,23.9c12.7,13.8,20.4,30.3,25.2,48.2c5.9,21.7,10.9,43.6,12.7,66.1c0.5,6.1,0.6,12.2,0.6,18.3
			c-0.1,15.7-6.3,28.9-16.8,40.3c-4.2,4.5-9.2,7.9-15,10.3c-15.4,6.3-31.3,11-47.9,12.7c-3.1,0.3-5.3,1.3-7,4.2
			c-6.3,10.8-16,18.3-26.6,24.6c-23.6,14-49.4,21.7-76.2,26.6c-12.4,2.3-24.6,3.3-36.8,3.3c-27.6,0-54.7-5.4-81.5-14.1
			c-21.6-7-43-14.4-62.5-26.4c-6.3-3.9-12-8.4-15.7-15c-1.5-2.6-3.4-3.5-6.3-4c-15.2-2.2-30.1-6.1-44.4-11.9
			c-18.9-7.7-28.9-22.5-32.8-41.8c-2.3-11.6-1.1-23.4,0.3-35c2.9-24.6,8.1-48.6,16.3-72c4.1-11.8,10.3-22.6,18.4-32.2
			c13.1-15.5,28.5-26.6,49.6-27.5c2.9-0.1,5.5-0.6,7.9-2.9c24.8-23.2,54.8-36.1,87.6-42.9c6.2-1.3,12.5-2.3,18.8-3
			C223,89.8,231.7,89,240.5,89 M88,347.9c0.9,0,1.8-0.2,2.6-0.9c-0.1-0.9-0.2-1.9-0.4-2.8c-5.1-15.7-6.9-31.9-7.7-48.3
			c-1.2-24.5,5.8-47.3,14.6-69.7c3-7.5,6.6-14.7,11-21.5c1.9-3,4-4.4,6.1-4.4c0.8,0,1.5,0.2,2.3,0.6c2.6,1.3,3.5,5.5,0.5,9
			c-0.2,0.2-0.3,0.4-0.4,0.6c-16,30.7-25.7,62.8-21.7,97.9c1.6,14.3,3.6,28.6,10.3,41.7c5.1,10,11.9,18.1,22.1,23.6
			c17.6,9.3,36.3,15.7,55.1,21.6c24.8,7.9,49.9,13,75.6,13c9.4,0,18.8-0.7,28.3-2.2c28.2-4.4,55.2-12.2,80-26.8
			c18.2-10.6,28.6-26,32.2-46.5c1.3-7.5,2.2-15,2.2-22.6c0.1-31.8-1.6-63.5-7.6-94.8c-0.9-4.8,0.8-8.1,4.2-8.7
			c0.4-0.1,0.7-0.1,1-0.1c2.3,0,3.6,1.7,4.8,6.1c0.4,1.4,0.7,2.9,1,4.3c2.4,11.5,4.2,23.1,5.3,34.7c2.8,32.2,6.2,64.4-2.9,97.3
			c2.6-0.2,4.3-0.2,5.9-0.6c11-2.4,21.8-5.2,32.3-9.3c18.4-7.1,26.8-21.1,28.3-39.9c0.6-8.3,0-16.6-0.9-24.9
			c-2.2-20.5-6.8-40.4-12.4-60.2c-4.7-17-12.6-32.3-25.1-44.9c-8.7-8.7-18.1-17.1-31.2-17.5c-11.5-0.3-19.9-5.8-29-11.8
			c-40.3-26.5-83.5-39.4-129.3-39.4c-14.3,0-28.8,1.3-43.6,3.7c-32.9,5.5-62.7,18.5-87.3,41.8c-2.7,2.5-5.6,3.5-9.2,3.5
			c-18.5,0-32.5,8.8-44.2,22.4c-8.4,9.8-14.8,20.6-18.9,32.8c-7.1,21.1-11.8,42.8-14.8,64.9c-1.3,9.9-2.1,20-1.3,30
			c1.3,16.2,8.6,29.1,23.3,36.5c10.9,5.5,22.9,8.4,34.9,10.8C85.5,347.4,86.7,347.9,88,347.9 M240.5,79.3L240.5,79.3
			c-9.6,0-19.2,0.9-27.3,1.8c-6.9,0.8-13.6,1.9-19.7,3.1c-37.8,7.9-68,22.7-92.2,45.3c-0.1,0.1-0.2,0.1-0.2,0.1c0,0-0.3,0.1-1.6,0.2
			c-11.5,0.5-22.4,3.7-32.4,9.6c-8.5,5-16.4,12-24.3,21.3c-8.9,10.5-15.7,22.4-20.2,35.3c-8,22.8-13.7,47.7-16.8,74
			c-1.3,10.9-2.9,24.5-0.1,38.1c4.8,24,17.8,40.4,38.6,48.9c14.4,5.9,30,10.1,46.4,12.5c5.1,8.7,12.6,14,18.6,17.7
			c20.4,12.6,42.2,20.1,64.6,27.3c30.2,9.8,57.9,14.5,84.5,14.5c13,0,26-1.2,38.5-3.5c32-5.9,57.3-14.7,79.4-27.8
			c9.6-5.7,21.6-13.9,29.7-27.4c16.1-1.7,32.7-6.1,50.6-13.4c7.2-2.9,13.4-7.2,18.4-12.7c12.7-13.8,19.2-29.6,19.3-46.8
			c0-7.3-0.2-13.3-0.6-19.1c-2-24.8-7.7-48.2-13-67.8c-5.8-21.4-14.8-38.5-27.4-52.2c-10.9-11.9-26.3-25.7-48.8-27.1
			c-4.5-0.3-8.1-1.8-13.4-5.5c-21.5-15.3-45.2-27-70.4-34.7c-23.9-7.3-49.9-11.3-77.3-11.8C242.7,79.3,241.6,79.3,240.5,79.3
			L240.5,79.3z M77.9,335.8c-8.3-1.9-16.6-4.4-24.1-8.2c-11-5.5-16.9-14.9-18-28.6c-0.7-8-0.3-16.8,1.2-27.9
			c3.1-23,7.8-43.6,14.3-63.1c3.6-10.7,9.2-20.3,17.1-29.6c11.1-12.9,22.8-19,36.8-19c6.3,0,11.5-2,15.9-6.2
			c21.7-20.5,49.4-33.8,82.2-39.3c14.2-2.4,28.3-3.6,42-3.6c44.2,0,85.9,12.7,124,37.8c9.2,6.1,19.7,13,34.1,13.3
			c9.5,0.2,17,7,24.6,14.6c10.6,10.6,18,23.9,22.7,40.7c6.5,23.2,10.2,41.3,12.1,58.6c0.9,8.7,1.4,16,0.8,23.1
			c-1.3,16.2-8.3,26.2-22.1,31.5c-7.4,2.9-15,5-22.1,6.8c5-27.9,2.6-55.2,0.3-81.6l-0.4-4.4c-1-11.7-2.9-23.7-5.4-35.9
			c-0.3-1.4-0.7-3-1.1-4.7c-0.9-3.6-2.1-6.1-3.6-8.2c-2.6-3.4-6.3-5.2-10.5-5.2c-0.9,0-1.7,0.1-2.6,0.2l0,0l0,0
			c-4,0.7-7.4,2.9-9.6,6.2c-2.6,3.8-3.4,8.6-2.4,13.9c5.1,27,7.5,56.5,7.4,93c0,6.2-0.7,13.1-2.1,20.9c-3.1,18-11.9,30.6-27.5,39.8
			c-21.6,12.7-45.9,20.8-76.6,25.6c-8.7,1.4-17.8,2.1-26.8,2.1c-22.2,0-46-4.1-72.7-12.6c-17.6-5.6-36.2-11.8-53.5-21
			c-7.6-4-13.4-10.2-18-19.4c-5.9-11.6-7.7-24.8-9.3-38.4c-3.3-29.3,3.2-58.5,20.5-91.8c3-3.8,4.2-8.5,3.3-13
			c-0.8-4.4-3.5-8.1-7.4-10.1c-2.2-1.1-4.4-1.7-6.8-1.7c-3.9,0-9.5,1.5-14.2,8.8c-4.6,7.1-8.6,14.9-11.9,23.2
			c-8.3,21.1-16.6,46.3-15.2,73.8C73.4,307.5,74.5,321.4,77.9,335.8L77.9,335.8z"/>
	</g>
	<path class="st1" d="M406.6,349c9.1-32.9,5.7-65.1,2.9-97.2c-1-11.7-2.8-23.3-5.3-34.7c-0.3-1.4-0.6-2.9-1-4.3
		c-1.3-5-2.8-6.6-5.8-6.1c-3.5,0.6-5.2,3.9-4.2,8.7c6,31.3,7.7,63,7.6,94.8c0,7.6-0.9,15.1-2.2,22.6c-3.6,20.5-14,35.8-32.2,46.5
		c-24.9,14.6-51.8,22.4-80,26.8c-35.7,5.6-70-0.1-103.9-10.9c-18.9-6-37.5-12.3-55.1-21.6c-10.3-5.4-17-13.6-22.1-23.6
		c-6.7-13.1-8.7-27.4-10.3-41.7c-4-35.1,5.8-67.2,21.7-97.9c0.1-0.2,0.2-0.5,0.4-0.6c3-3.4,2-7.6-0.5-9c-2.8-1.5-5.7-0.3-8.4,3.8
		c-4.4,6.8-8,14-11,21.5c-8.8,22.4-15.8,45.2-14.6,69.7c0.8,16.4,2.6,32.6,7.7,48.3c0.3,0.9,0.3,1.9,0.4,2.8
		c-2.2,1.8-4.4,0.6-6.4,0.2c-12-2.4-24-5.4-34.9-10.8c-14.7-7.4-22-20.3-23.3-36.5c-0.8-10-0.1-20,1.3-30c3-22.1,7.6-43.8,14.8-64.9
		c4.1-12.2,10.6-23,18.9-32.8c11.7-13.6,25.7-22.4,44.2-22.4c3.7,0,6.5-1,9.2-3.5c24.6-23.3,54.4-36.3,87.3-41.8
		c62.1-10.4,120.1,0.9,172.9,35.6c9.1,6,17.5,11.5,29,11.8c13.1,0.3,22.5,8.7,31.2,17.5c12.5,12.6,20.4,27.9,25.1,44.9
		c5.5,19.8,10.2,39.7,12.4,60.2c0.9,8.3,1.5,16.6,0.9,24.9c-1.5,18.8-9.9,32.7-28.3,39.9c-10.5,4.1-21.4,6.9-32.3,9.3
		C410.9,348.8,409.2,348.7,406.6,349z M156.7,300.2c-6.3,0.9-12.3,2.8-17.5,6.6c-6.8,5.1-6.1,13.1,1.5,17.1c1,0.6,2.2,1,3.4,1.3
		c14.8,5,29.6,3.7,44.3-0.2c2.9-0.8,5-2.8,7.3-4.6c4.6-3.5,3.9-10.7,0.6-14.4c-0.9-1.1-2.2-1.9-3.3-2.8c1.4-1.6,3-3.2,4.3-4.9
		c7.5-9.7,7.7-22.3,0.6-31.9c-7-9.5-19.2-13.4-29.8-9.6c-11.7,4.2-18.6,14.8-17.9,27.2C150.6,290.3,153.6,295.3,156.7,300.2z
		 M311.9,306.4c-1.1,1.3-2.2,2.6-3.3,3.9c-3.9,4.6-3.6,9.4,1,13.3c2.6,2.2,5.8,3.6,9.1,4.5c9.8,2.7,19.9,1.9,29.8,1.1
		c5.7-0.5,11.4-2.4,16.5-5.5c7.6-4.8,7.6-12.8-0.1-17.4c-3.6-2.1-7.4-4-11.6-4.3c-3.5-0.2-6.6-1.4-10-1.9c1.3-2.1,2.7-4.1,3.8-6.2
		c5-9.7,3.5-21-3.8-29.2c-7.1-8-18.1-11.1-27.8-7.8c-10.7,3.6-17.9,13-18.4,23.9C296.4,292.5,302.2,300.6,311.9,306.4z M249.3,312.5
		c-2.2-0.2-3.2-0.3-4.1-0.3c-7.1,0.1-10.2,4.2-8.4,11c0.9,3.4,3,6.1,5.1,8.8c3.7,4.5,3.4,7.3-1.1,10.8c-5.3,4.1-9.5,3.5-14.3-1.9
		c-2.4-2.8-5.2-3.2-7.6-1.2c-2.5,2.1-3,5.4-1.1,8.6c2.5,4.3,6.5,6.8,11.3,7.4c3.5,0.5,5.8,1.6,7.1,5c0.7,1.8,2,3.4,3.2,4.9
		c7.2,9,16.3,8.6,22.9-1c2.9-4.2,5.6-6.3,10.6-8.1c4.8-1.8,8.6-4.8,10.6-9.5c1.3-3.1,0.2-6.3-2.4-7.7c-2.6-1.4-4.7-0.4-6.4,1.7
		c-1.1,1.3-2,2.9-3.2,4c-3.7,3.1-7.9,2.2-12.2-2.2c-3.6-3.7-3.5-4.4,0.3-9c2.9-3.4,5.5-6.9,6.9-11.1c2.5-7.5-1.3-12-9.1-11.1
		C254.3,312,251.2,312.3,249.3,312.5z"/>
	<path d="M249.3,312.5c1.9-0.2,5.1-0.6,8.3-0.9c7.8-0.9,11.6,3.6,9.1,11.1c-1.4,4.2-4.1,7.7-6.9,11.1c-3.9,4.7-3.9,5.3-0.3,9
		c4.2,4.5,8.5,5.3,12.2,2.2c1.3-1.1,2.2-2.6,3.2-4c1.7-2.1,3.8-3.1,6.4-1.7c2.6,1.3,3.7,4.6,2.4,7.7c-2.1,4.7-5.9,7.7-10.6,9.5
		c-5,1.9-7.8,4-10.6,8.1c-6.6,9.6-15.7,10-22.9,1c-1.2-1.5-2.5-3.1-3.2-4.9c-1.3-3.4-3.6-4.5-7.1-5c-4.7-0.6-8.7-3.1-11.3-7.4
		c-1.9-3.2-1.4-6.5,1.1-8.6c2.4-2,5.2-1.6,7.6,1.2c4.7,5.4,8.9,6,14.3,1.9c4.5-3.5,4.8-6.3,1.1-10.8c-2.2-2.7-4.2-5.4-5.1-8.8
		c-1.8-6.8,1.3-10.9,8.4-11C246.1,312.2,247.1,312.4,249.3,312.5z M250.3,361c1.7,0,5.2-4.4,4.8-6.6c-0.5-2.5-2.6-4-4.7-5.1
		c-1-0.5-5.8,3.6-5.9,4.8C244.3,355.8,248.6,361,250.3,361z"/>
	<ellipse class="st2" cx="167.2" cy="313.8" rx="33.6" ry="17.5"/>
	<ellipse class="st2" cx="339.3" cy="316.5" rx="33.6" ry="17.5"/>
	<circle cx="175.3" cy="282.9" r="28.2"/>
	<circle cx="323.2" cy="282.9" r="28.2"/>
	<circle class="st0" cx="184.7" cy="280.2" r="10.8"/>
	<circle class="st0" cx="316.4" cy="280.2" r="10.8"/>
	<path class="st2" d="M250.3,361c-1.6,0-5.9-5.2-5.8-6.9c0.1-1.2,4.9-5.2,5.9-4.8c2.2,1.1,4.2,2.6,4.7,5.1
		C255.5,356.6,252,361,250.3,361z"/>
</g>
</svg>
