<?xml version="1.0" encoding="utf-8"?>
<!-- Generator: Adobe Illustrator 26.2.1, SVG Export Plug-In . SVG Version: 6.00 Build 0)  -->
<svg version="1.1" id="Layer_1" xmlns="http://www.w3.org/2000/svg" xmlns:xlink="http://www.w3.org/1999/xlink" x="0px" y="0px"
	 viewBox="0 0 500 500" style="enable-background:new 0 0 500 500;" xml:space="preserve">
<style type="text/css">
	.st0{fill:#976B38;stroke:#976B38;stroke-miterlimit:10;}
	.st1{fill:#FAEECF;}
	.st2{fill:#C53E3C;}
	.st3{fill:#976B38;}
	.st4{fill:#EDBABA;}
	.st5{fill:#DB84A2;}
	.st6{fill:#DB80A0;}
	.st7{fill:#D97B9E;}
	.st8{fill:#DE8EA6;}
	.st9{fill:#DF91A8;}
	.st10{fill:#DD87A4;}
	.st11{fill:#F8F8F8;}
	.st12{fill:#C9C9C9;}
	.st13{fill:#F3F3F3;}
	.st14{fill:#5F3E2D;stroke:#5E3E2D;stroke-miterlimit:10;}
	.st15{fill:#78523F;stroke:#78523F;stroke-miterlimit:10;}
	.st16{fill:#78523F;}
	.st17{fill:#5E3E2D;stroke:#5E3E2D;stroke-miterlimit:10;}
	.st18{fill:#FCFCFC;}
	.st19{fill:#F6F6F6;}
	.st20{fill:#EFBBBB;}
	.st21{fill:#EEBBBB;}
</style>
<g>
	<g>
		<g>
			<path d="M102.76,115.72c0.24-1.55-1.07-2.15-1.79-3.1c-3.94-5.37-5.01-11.33-3.94-17.77c1.19-6.68,4.89-9.66,11.69-8.82
				c2.15,0.24,3.1,0,3.82-2.27c0.95-3.1,2.62-5.84,4.77-8.35c0.95-1.07,1.91-2.15,3.1-2.98c1.55-1.19,3.34-1.55,4.77,0.24
				c1.19,1.43,0.95,2.98-0.24,4.41c-1.07,1.31-2.15,2.38-3.1,3.7c-1.19,1.67-2.62,3.46-2.74,5.6c1.19,1.07,2.5,0.36,3.7,0.48
				c6.56,0.6,10.85,5.01,10.85,11.69c-0.12,7.15-3.1,13.12-8.23,18.01c-0.6,0.6-1.31,1.19-1.91,1.79c-0.12,0.12,0,0.36-0.12,0.83
				c3.46,1.43,7.15,2.74,10.61,4.29c20.99,9.18,36.01,24.8,46.98,44.48c2.27,4.05,4.29,8.23,5.96,12.52
				c0.83,2.27,1.79,3.1,4.29,2.62c8.94-1.91,17.89,3.82,20.03,12.76s-3.46,19.68-11.69,22.9c-0.72,0.24-1.31,0.72-2.03,0.72
				c-5.6,0.24-6.32,3.82-6.92,8.59c-2.27,21.46-5.49,42.93-9.66,64.04c-5.01,25.04-9.78,50.08-14.79,75.13
				c-2.15,10.97-5.25,21.58-12.76,30.29c-5.13,5.96-11.09,9.3-19.2,8.47c-4.65-0.48-8.35-2.98-11.92-5.72
				c-6.08-4.77-11.21-10.61-15.74-16.69c-18.84-25.16-34.1-52.23-46.86-80.85c-7.39-16.46-14.91-32.79-22.9-48.89
				c-1.91-3.94-2.03-4.05-5.84-2.03c-9.42,5.01-23.13-2.27-26.12-11.21c-2.62-8.23,1.07-16.81,9.42-20.27
				c2.74-1.07,3.34-2.38,3.34-5.01c-0.24-16.46,2.86-32.44,9.78-47.34c11.09-24.09,28.62-41.14,54.38-48.89
				c5.72-1.67,11.57-2.5,17.41-2.5C100.38,116.32,101.69,116.67,102.76,115.72z M43.73,250.59c-0.24-0.36-0.6-0.83-1.07-0.24
				c0,0.12,0.36,0.48,0.48,0.72c0.12,1.43,0.83,2.62,1.43,3.94c4.65,9.06,9.3,18.13,13.59,27.43c6.8,14.79,13.36,29.69,20.75,44.12
				c8.94,17.53,19.8,33.99,31,50.08c4.65,6.68,10.14,12.52,16.1,17.89c5.13,4.65,12.76,5.72,17.29,2.15
				c4.17-3.34,7.87-7.27,9.9-12.4c3.1-7.63,5.01-15.62,6.56-23.73c3.82-20.03,7.99-39.95,11.92-59.86c2.03-10.37,4.17-20.63,5.84-31
				c2.27-14.67,4.05-29.33,6.2-44c0.48-3.82,0.48-3.94-3.1-5.25c-0.72-0.24-1.43-0.48-2.03-0.83c-2.38-1.43-3.7-0.83-5.13,1.67
				c-2.62,4.89-5.84,9.42-10.61,12.64c-10.49,7.04-20.27,8.71-31.96,1.43c-1.19-0.72-2.03-2.03-3.7-1.91
				c-0.36,0.36-0.83,0.72-1.07,1.19c-4.05,5.49-9.18,9.54-15.38,12.16c-9.3,3.94-18.13,3.1-26.23-3.34c-3.1-2.5-3.34-2.5-5.84,0.72
				c-0.24,0.24-0.48,0.6-0.6,0.83c-8.59,12.16-19.68,12.76-31,7.15C46,251.3,45.05,250.71,43.73,250.59z M99.78,123.47
				c-21.46,0.48-40.31,10.26-54.73,28.74c-15.62,20.15-21.46,43.29-20.39,68.33c0.24,4.89,0.24,4.89-4.89,5.13
				c-3.7,0.12-6.68,1.67-8.11,5.13c-1.55,3.7-1.43,7.39,1.67,10.37c4.41,4.41,11.21,7.63,18.01,1.31c0.6-0.6,1.43-1.07,2.03-1.67
				c4.89-4.17,5.13-4.05,9.66,0.12c4.17,3.82,9.06,6.2,14.79,6.92c4.17,0.6,7.87-0.48,10.85-3.46c2.98-3.1,5.96-6.2,7.63-10.26
				c0.72-1.79,1.43-3.7,3.82-3.94c2.5-0.24,3.22,1.67,4.29,3.34c3.94,6.08,11.45,9.18,18.6,7.75c9.06-1.91,15.03-7.75,19.91-15.14
				c2.5-3.82,2.98-3.94,6.32-0.83c9.42,8.82,19.68,9.54,30.05,1.91c3.22-2.38,5.6-5.49,7.39-9.06c1.19-2.27,2.03-4.53,3.34-6.8
				c1.67-2.98,3.58-3.58,6.08-1.43c6.32,5.37,13.12,4.89,20.15,2.15c5.01-1.91,8.59-7.99,8.11-13.24
				c-0.72-6.56-6.8-10.61-13.24-8.71c-0.83,0.24-1.67,0.72-2.5,0.95c-3.34,1.07-4.89,0.48-6.44-2.74c-0.83-1.79-1.43-3.7-2.15-5.49
				c-7.15-17.41-17.65-32.2-32.79-43.53C134,129.31,118.86,123.59,99.78,123.47z M103.6,98.55c-0.72,6.92,3.58,10.97,8.59,14.43
				c1.55,1.07,3.22,1.07,5.13,0.24c5.01-2.15,9.18-8.47,9.06-14.19c-0.12-4.29-2.15-5.96-6.2-4.41c-3.94,1.43-7.27,2.03-10.85-1.19
				c-2.38-2.15-4.89-0.72-5.49,2.38C103.48,96.76,103.6,97.71,103.6,98.55z"/>
			<path class="st0" d="M43.73,250.59c1.31,0.12,2.38,0.72,3.46,1.31c11.33,5.72,22.54,5.01,31-7.15c0.24-0.24,0.48-0.6,0.6-0.83
				c2.5-3.22,2.74-3.22,5.84-0.72c8.11,6.44,16.93,7.27,26.23,3.34c6.2-2.62,11.45-6.68,15.38-12.16c0.36-0.48,0.72-0.83,1.07-1.19
				c1.67-0.12,2.62,1.19,3.7,1.91c11.69,7.27,21.46,5.6,31.96-1.43c4.77-3.22,7.99-7.75,10.61-12.64c1.31-2.5,2.74-2.98,5.13-1.67
				c0.6,0.36,1.31,0.6,2.03,0.83c3.7,1.31,3.7,1.43,3.1,5.25c-2.03,14.67-3.94,29.33-6.2,44c-1.67,10.37-3.82,20.75-5.84,31
				c-3.94,19.91-8.23,39.83-11.92,59.86c-1.55,8.11-3.46,16.1-6.56,23.73c-2.15,5.13-5.72,9.06-9.9,12.4
				c-4.53,3.58-12.16,2.5-17.29-2.15c-5.96-5.37-11.57-11.21-16.1-17.89c-11.21-16.1-21.94-32.55-31-50.08
				c-7.39-14.43-13.95-29.33-20.75-44.12c-4.29-9.3-9.06-18.24-13.59-27.43c-0.72-1.31-1.43-2.5-1.43-3.94
				C43.38,250.95,43.5,250.71,43.73,250.59z"/>
			<path class="st1" d="M99.78,123.47c19.08,0,34.22,5.84,47.82,15.98c15.14,11.33,25.64,26.12,32.79,43.53
				c0.72,1.79,1.31,3.7,2.15,5.49c1.43,3.22,2.98,3.82,6.44,2.74c0.83-0.24,1.67-0.72,2.5-0.95c6.32-1.91,12.52,2.15,13.24,8.71
				c0.6,5.25-3.1,11.33-8.11,13.24c-7.04,2.74-13.83,3.22-20.15-2.15c-2.5-2.15-4.41-1.55-6.08,1.43c-1.19,2.15-2.15,4.53-3.34,6.8
				c-1.91,3.58-4.17,6.68-7.39,9.06c-10.37,7.63-20.51,7.04-30.05-1.91c-3.34-3.1-3.82-3.1-6.32,0.83
				c-4.77,7.39-10.85,13.24-19.91,15.14c-7.15,1.43-14.67-1.67-18.6-7.75c-1.07-1.67-1.79-3.46-4.29-3.34
				c-2.5,0.24-3.1,2.15-3.82,3.94c-1.67,4.05-4.65,7.15-7.63,10.26c-2.98,2.98-6.68,4.05-10.85,3.46c-5.6-0.83-10.61-3.1-14.79-6.92
				c-4.65-4.17-4.77-4.17-9.66-0.12c-0.72,0.6-1.43,1.07-2.03,1.67c-6.8,6.32-13.59,3.1-18.01-1.31c-3.1-3.1-3.22-6.68-1.67-10.37
				c1.43-3.46,4.41-5.01,8.11-5.13c5.01-0.24,5.01-0.24,4.89-5.13c-1.07-25.16,4.65-48.3,20.39-68.33
				C59.36,133.85,78.2,123.95,99.78,123.47z M78.79,201.46c3.1-7.87,2.27-10.85-4.89-14.19c-3.22-1.55-2.15-3.58-1.55-5.84
				c-1.67,4.65-1.67,4.65-3.46,5.84c-6.56,4.53-7.15,6.92-3.82,14.31c-1.19,2.38-4.17,2.74-5.37,5.01
				c-1.55,2.86-1.31,4.65,1.43,6.32c1.07,0.6,2.27,1.19,3.46,1.31c5.72,0.6,10.85-1.55,15.74-4.17c1.79-0.95,3.1-3.1,2.74-5.49
				C82.61,202.41,81.18,201.1,78.79,201.46z M126.49,191.44c-0.12,0.72-0.24,1.43-0.24,2.15c-0.12,5.25,3.1,7.75,8.47,6.92
				c3.82-0.48,7.27-1.67,10.73-2.98c3.34-1.31,5.84-4.65,5.13-6.8c-0.95-3.1-3.7-4.17-6.68-4.41c-1.55-0.12-3.22,0-4.29-1.67
				c0.12-1.79,0.12-3.46-0.48-5.25c-1.31-3.82-4.17-5.6-7.87-6.2c-3.58-0.48-6.68,0.95-8.71,3.94c-2.03,3.22-2.27,6.56-0.24,10.02
				C123.51,189.18,124.94,190.37,126.49,191.44z M113.14,200.27c-0.24-2.03-0.36-4.05-2.86-4.65c-2.27-0.48-3.22,0.83-4.05,2.62
				c-0.83,1.67,0.48,4.65-1.79,5.25c-2.62,0.72-2.86-2.62-4.41-3.94c-1.43-1.31-3.1-2.03-4.77-0.83c-1.79,1.19-1.67,2.98-0.95,4.77
				c1.07,2.74,3.1,4.77,5.49,6.32c4.05,2.62,8.59,1.55,11.21-2.5C112.3,205.16,112.9,202.65,113.14,200.27z M79.39,160.44
				c-0.12-0.36-0.24-0.72-0.36-0.95c-1.19-1.43-2.5-0.72-3.82-0.12s-2.62,1.19-2.62,2.86c0,0.24,0.24,0.72,0.48,0.83
				c1.07,0.95,2.38,0.72,3.46,0.12C77.6,162.46,79.03,161.87,79.39,160.44z M47.19,217.56c0-0.83-0.36-1.31-1.07-1.55
				c-1.79-0.6-5.01,2.62-4.65,4.53c0.12,0.83,0.83,1.19,1.55,1.07C44.45,221.61,47.07,219.11,47.19,217.56z M138.42,158.41
				c1.55-0.36,3.46-0.83,4.65-2.62c0.24-0.48,0.24-1.07-0.36-1.31c-2.15-0.95-3.7,0.36-5.37,1.19c-0.6,0.36-1.07,0.95-0.83,1.79
				C136.63,158.29,137.34,158.29,138.42,158.41z M96.2,177.13c0.12,1.19,0.72,1.55,1.43,1.55c1.67,0,3.82-2.5,3.58-4.05
				c-0.24-1.07-1.07-1.43-2.03-1.19C97.04,174.03,96.44,175.58,96.2,177.13z M78.32,215.29c-1.31,0.12-2.98-0.6-3.22,1.07
				c-0.24,1.79,1.55,2.03,2.98,2.27c0.83,0.12,1.79,0.12,2.62,0c0.83-0.12,1.31-0.6,1.31-1.31c0-0.83-0.48-1.31-1.19-1.55
				C79.87,215.53,78.91,215.41,78.32,215.29z M85.23,136.35c0.12-1.19,0-1.91-0.83-2.03c-0.48,0-1.07,0.24-1.31,0.6
				c-1.07,1.67-1.91,3.34-1.67,5.37c0,0.6,0.83,0.83,1.19,0.48C84.4,139.69,84.87,137.78,85.23,136.35z M51.84,165.68
				c1.55-0.36,2.03-1.67,2.03-3.22c0-0.95-0.48-1.79-1.43-1.91c-1.31-0.24-2.74,1.79-2.5,3.46
				C50.05,165.09,50.53,165.8,51.84,165.68z M46,187.39c-1.07,0.12-2.5,0.12-2.5,1.79c0,1.55,1.19,2.27,2.5,2.27
				c1.31,0.12,2.5-0.6,2.62-2.03C48.86,187.75,47.43,187.51,46,187.39z M113.37,143.03c-0.12-0.36-0.12-0.72-0.36-0.95
				c-1.55-1.19-2.62,0.12-3.82,0.72c-0.95,0.48-1.67,1.43-1.19,2.62c0.12,0.24,0.48,0.48,0.83,0.6
				C110.51,146.37,113.14,144.58,113.37,143.03z M170.85,198.12c1.43-0.12,2.15-0.95,2.86-1.91c0.36-0.6,0.83-1.19,0.12-1.79
				c-0.6-0.6-1.31-0.36-1.91-0.12c-0.95,0.48-1.79,1.19-2.27,2.15C169.3,197.52,169.9,198,170.85,198.12z M155.47,177.85
				c-1.43,0-2.38,0.48-2.03,1.43c0.48,1.43,1.91,1.91,3.34,1.79c0.72-0.12,1.55-0.24,1.43-1.19
				C157.85,177.97,156.42,177.97,155.47,177.85z"/>
			<circle class="st1" cx="70.21" cy="186.67" r="6.8"/>
			<circle class="st1" cx="127.92" cy="176.18" r="8.71"/>
			<ellipse class="st1" cx="67.7" cy="218.39" rx="13" ry="8.71"/>
			<path class="st2" d="M103.6,98.55c0-0.83,0-1.79,0.12-2.62c0.6-3.1,3.1-4.53,5.49-2.38c3.58,3.22,6.92,2.62,10.85,1.19
				c4.05-1.43,6.2,0.24,6.2,4.41c0.12,5.72-4.05,12.04-9.06,14.19c-1.91,0.83-3.46,0.83-5.13-0.24
				C107.17,109.52,102.88,105.58,103.6,98.55z"/>
			<path class="st3" d="M43.14,251.07c-0.24-0.24-0.6-0.6-0.48-0.72c0.48-0.72,0.72-0.12,1.07,0.24
				C43.5,250.71,43.38,250.95,43.14,251.07z"/>
			
				<ellipse transform="matrix(0.9724 -0.2332 0.2332 0.9724 -41.0649 37.4441)" class="st4" cx="137.82" cy="192.38" rx="15.62" ry="7.75"/>
			
				<ellipse transform="matrix(0.9832 -0.1823 0.1823 0.9832 -36.3892 16.1188)" class="st4" cx="69.48" cy="205.99" rx="15.62" ry="7.75"/>
			<circle cx="72" cy="195.97" r="9.9"/>
			<circle cx="130.43" cy="183.57" r="9.9"/>
			<path d="M113.14,200.27c-0.24,2.5-0.83,4.89-2.15,7.04c-2.5,4.05-7.15,5.01-11.21,2.5c-2.38-1.55-4.41-3.58-5.49-6.32
				c-0.72-1.79-0.83-3.58,0.95-4.77c1.67-1.07,3.34-0.48,4.77,0.83c1.43,1.31,1.67,4.65,4.41,3.94c2.27-0.6,0.95-3.58,1.79-5.25
				c0.83-1.67,1.79-3.1,4.05-2.62C112.78,196.21,113.02,198.12,113.14,200.27z"/>
			<path class="st5" d="M79.39,160.44c-0.36,1.43-1.79,2.03-2.98,2.74c-1.07,0.72-2.38,0.83-3.46-0.12
				c-0.24-0.24-0.48-0.6-0.48-0.83c0-1.67,1.31-2.38,2.62-2.86c1.31-0.6,2.62-1.31,3.82,0.12C79.27,159.6,79.27,159.96,79.39,160.44
				z"/>
			<path class="st5" d="M47.19,217.56c-0.12,1.43-2.74,4.05-4.29,4.05c-0.72,0-1.31-0.24-1.55-1.07c-0.36-1.91,2.98-5.13,4.65-4.53
				C46.83,216.25,47.19,216.84,47.19,217.56z"/>
			<path class="st6" d="M138.42,158.41c-1.07,0-1.79-0.12-2.03-0.95c-0.24-0.83,0.24-1.43,0.83-1.79c1.67-0.83,3.22-2.27,5.37-1.19
				c0.6,0.24,0.72,0.83,0.36,1.31C141.87,157.58,139.97,157.93,138.42,158.41z"/>
			<path class="st5" d="M96.2,177.13c0.24-1.67,0.83-3.22,2.98-3.58c0.95-0.24,1.79,0.12,2.03,1.19c0.36,1.55-1.91,4.05-3.58,4.05
				C96.92,178.8,96.32,178.32,96.2,177.13z"/>
			<path class="st7" d="M78.32,215.29c0.72,0.12,1.55,0.24,2.38,0.48c0.72,0.24,1.19,0.72,1.19,1.55c0,0.83-0.48,1.31-1.31,1.31
				c-0.83,0.12-1.79,0.12-2.62,0c-1.31-0.24-3.22-0.48-2.98-2.27C75.22,214.7,77,215.41,78.32,215.29z"/>
			<path class="st8" d="M85.23,136.35c-0.36,1.43-0.95,3.34-2.74,4.41c-0.48,0.24-1.19,0-1.19-0.48c-0.12-2.03,0.72-3.7,1.67-5.37
				c0.24-0.36,0.95-0.6,1.31-0.6C85.23,134.44,85.35,135.16,85.23,136.35z"/>
			<path class="st9" d="M51.84,165.68c-1.31,0-1.79-0.72-1.91-1.67c-0.24-1.79,1.19-3.7,2.5-3.46c0.95,0.12,1.43,0.95,1.43,1.91
				C53.87,164.13,53.39,165.33,51.84,165.68z"/>
			<path class="st5" d="M46,187.39c1.43,0.12,2.86,0.36,2.62,2.03c-0.12,1.43-1.31,2.15-2.62,2.03c-1.31-0.12-2.5-0.72-2.5-2.27
				C43.5,187.51,44.93,187.51,46,187.39z"/>
			<path class="st10" d="M113.37,143.03c-0.24,1.55-2.86,3.46-4.53,3.1c-0.24-0.12-0.72-0.36-0.83-0.6
				c-0.48-1.19,0.12-2.15,1.19-2.62c1.19-0.6,2.27-1.91,3.82-0.72C113.26,142.19,113.26,142.67,113.37,143.03z"/>
			<path class="st10" d="M170.85,198.12c-0.95-0.24-1.55-0.72-1.07-1.79c0.48-0.95,1.31-1.67,2.27-2.15
				c0.6-0.24,1.31-0.48,1.91,0.12c0.72,0.6,0.24,1.31-0.12,1.79C173.12,197.17,172.28,198.12,170.85,198.12z"/>
			<path class="st6" d="M155.47,177.85c0.95,0.12,2.38,0.24,2.62,2.03c0.12,0.83-0.72,1.07-1.43,1.19
				c-1.43,0.12-2.86-0.24-3.34-1.79C153.08,178.21,154.04,177.73,155.47,177.85z"/>
		</g>
	</g>
</g>
<g>
	<g>
		<g>
			<path d="M338.04,402.99c-12.28,0.36-24.45-0.24-36.61-0.95c-11.69-0.72-23.37-2.03-34.94-3.7c-9.3-1.43-18.72-2.86-28.02-4.77
				c-10.14-2.03-20.03-4.53-29.93-7.39c-7.63-2.15-15.14-4.53-22.54-7.27c-9.06-3.22-17.89-6.8-26.59-10.97
				c-5.13-2.5-10.37-5.01-15.38-7.87c-9.54-5.37-18.72-11.33-26.83-18.72c-6.56-6.08-11.09-13.36-14.31-21.7
				c-2.03-5.37-3.46-10.61-3.1-16.46c0.6-8.94,4.05-16.46,10.26-22.78c7.87-8.11,17.29-14.31,27.43-19.56
				c13.24-6.8,26.95-12.4,40.9-17.65c4.77-1.79,3.7-0.6,3.46-5.49c-0.36-8.23-0.24-16.46,0.24-24.8
				c0.83-13.24,3.58-26.12,7.39-38.76c1.07-3.58,3.46-6.56,6.44-8.82c6.2-4.77,13.36-7.39,20.87-9.3
				c11.09-2.98,22.3-4.41,33.75-5.25c14.31-1.07,28.74-0.95,43.05-0.12c13.24,0.83,26.47,2.27,39.59,4.53
				c11.33,1.91,22.66,4.17,33.75,7.04c10.61,2.74,21.23,6.2,31.24,10.61c7.51,3.22,14.67,7.04,21.11,12.16
				c4.77,3.82,8.94,8.23,9.9,14.55c0.72,4.89,1.07,9.78,1.07,14.67c0,2.5-0.12,5.01-0.12,7.51c0,2.15,0.48,2.74,2.62,2.98
				c2.62,0.24,5.25,0.48,7.87,0.6c6.08,0.24,12.16,0.83,18.01,2.98c11.92,4.41,22.3,10.97,27.43,23.25
				c3.34,7.99,4.29,16.46,2.98,25.04c-1.07,7.04-3.34,13.71-6.8,19.91c-0.6,1.07-1.31,2.03-2.03,2.98
				c-1.79,2.38-1.79,2.38,0.24,4.77c6.32,7.51,10.49,15.98,12.64,25.52c2.03,9.06,0.12,17.65-4.41,25.52
				c-5.72,9.9-14.19,16.58-24.33,21.7c-19.08,9.66-39.35,15.5-60.22,19.56c-13.59,2.62-27.43,4.29-41.26,5.25
				C354.49,402.39,346.26,402.63,338.04,402.99z M393.13,220.3c4.65-1.07,9.18-2.15,13.47-3.94c-0.12-0.95-0.6-1.07-0.95-1.31
				c-3.1-2.5-6.8-4.05-10.26-5.84c-6.8-3.58-13.71-7.04-20.75-10.02c-9.42-4.05-19.32-6.32-29.1-8.94
				c-5.84-1.55-12.04-2.15-18.01-3.1c-4.53-0.72-8.94-1.31-13.47-1.67c-6.92-0.6-13.83-1.31-20.75-1.07
				c-6.08,0.24-12.16,0.48-18.13,1.19c-7.75,0.83-15.5,1.43-23.13,2.98c-11.21,2.27-22.42,5.13-33.27,8.71
				c-0.83,0.24-1.91,0.36-2.03,1.79c2.03,0.95,4.05,1.91,6.2,2.86c4.77,2.03,9.54,4.05,14.43,5.37c3.58,1.43,7.15,2.38,10.85,3.46
				c5.84,1.79,11.69,3.22,17.65,4.53c5.13,1.07,10.26,2.15,15.38,2.74c3.46,0.36,6.68,2.03,10.26,1.67c0.36,0.6,0.95,0.72,1.55,0.48
				c1.67,0.12,3.34,0.12,5.01,0.24c2.5,0.83,5.01,1.43,7.63,1.43c3.94,0,7.87,0.72,11.81,0.95c4.89,0.24,9.66,1.31,14.55,1.19
				c12.88-0.12,25.88,0.48,38.76-0.6c3.22-0.24,6.44-0.48,9.54-1.19c1.91-0.48,4.17,0.48,5.84-1.07
				C388.36,221.37,390.62,220.3,393.13,220.3z M427.11,252.14c1.43-1.07,2.86-2.15,4.41-3.1c5.96-3.94,12.16-7.39,19.44-7.75
				c7.75-0.36,14.67,1.67,19.2,8.35c5.84,8.47,7.39,17.89,4.77,27.78c-2.27,8.59-6.32,16.22-12.4,22.9
				c-5.13,5.6-11.21,9.78-18.24,12.4c-6.92,2.62-14.19,3.46-21.46,4.05c-5.01,0.48-10.02,0.83-15.03,0.6
				c-3.94-0.24-3.82-0.36-5.6,3.34c-2.27,4.53-4.53,8.94-7.63,13c-1.67,2.15-3.1,4.65-4.77,7.27c20.03-4.53,38.64-11.33,56.64-19.91
				c9.3-4.53,17.65-10.14,24.56-17.89c4.65-5.13,8.47-10.85,10.61-17.41c2.5-7.75,3.34-15.74,1.79-23.85
				c-0.95-5.13-2.27-10.26-5.72-14.55c-7.27-9.06-16.81-13.95-28.02-16.1c-5.01-0.95-10.02-0.72-15.03-1.43
				c-1.55-0.24-3.34-0.72-4.53-0.24c-1.79,0.83-0.72,2.98-1.07,4.65c-1.07,5.6-1.91,11.33-2.74,17.05c-0.72,0.6-1.07,1.31-0.24,1.91
				C426.4,253.45,426.99,252.74,427.11,252.14z M425.09,212.07c-2.03,1.43-3.7,2.74-5.37,3.82c-6.08,4.17-13,6.2-19.91,7.99
				c-18.84,4.77-38.04,5.72-57.36,5.49c-16.58-0.12-33.03-1.55-49.37-3.94c-15.86-2.27-31.6-5.37-46.98-9.78
				c-12.76-3.7-25.28-7.99-36.97-14.79c-6.32-3.58-12.28-7.51-16.69-13.36c-0.24-0.36-0.6-0.72-1.31-0.36
				c-0.12,0.95-0.36,1.91-0.48,2.98c-2.74,12.76-3.94,25.64-3.82,38.52c0.12,18.96,2.74,37.68,7.39,56.17
				c2.5,10.02,5.25,19.91,9.18,29.45c5.72,14.07,15.38,24.92,26.83,34.22c8.59,7.04,18.72,11.57,28.98,15.74
				c4.17,1.67,8.47,2.62,12.64,3.94c9.06,2.62,18.24,4.05,27.55,4.41c10.02,0.36,20.03-0.48,29.93-2.62
				c13.95-2.98,26.95-8.11,38.64-16.34c12.76-8.94,22.54-20.39,29.33-34.34c2.62-5.49,5.37-10.97,7.87-16.58
				c3.46-7.87,6.32-15.98,8.82-24.33c2.15-7.04,3.82-14.07,5.49-21.23c2.74-11.69,4.89-23.49,5.49-35.42
				C425.21,218.63,425.8,215.53,425.09,212.07z M475.41,306.16c-7.04,7.51-14.55,13.47-23.49,17.77
				c-6.08,2.86-12.16,5.72-18.24,8.35c-14.07,5.96-28.62,10.37-43.41,13.83c-4.53,1.07-8.71,2.62-12.4,5.96
				c-11.92,10.73-26.12,17.65-41.74,21.58c-14.31,3.58-28.74,4.89-43.53,3.7c-10.26-0.83-20.15-3.22-29.81-6.2
				c-8.82-2.74-17.05-6.92-25.16-11.33c-12.16-6.68-21.82-16.1-29.93-27.07c-7.75-10.49-12.52-22.66-15.86-35.18
				c-4.17-15.86-7.87-31.84-9.18-48.3c-0.12-2.03-0.6-2.27-2.5-1.55c-6.2,2.5-12.52,4.89-18.6,7.63
				c-11.45,5.01-22.9,9.9-33.27,16.81c-6.44,4.29-12.52,8.94-17.29,15.03c-4.89,6.32-7.39,13.59-5.72,21.58
				c2.5,12.16,8.59,22.54,17.89,30.89c6.2,5.72,13.47,10.02,20.63,14.43c10.85,6.56,22.18,11.81,33.87,16.46
				c7.87,3.1,15.98,5.84,24.09,8.35c8.82,2.74,17.65,5.25,26.71,7.27c12.4,2.86,24.8,5.13,37.32,7.04c13,1.91,25.88,3.22,38.99,4.05
				c14.43,0.95,28.98,1.07,43.41,0.48c19.68-0.83,39.23-2.86,58.55-6.68c18.13-3.7,35.77-8.82,52.47-16.93
				c10.73-5.25,20.39-11.69,25.88-22.9c2.5-5.13,4.05-10.49,3.46-16.22C487.57,323.81,482.44,314.74,475.41,306.16z M271.97,155.19
				c-7.15,0.12-14.43,0.12-21.58,0.6c-12.04,0.95-24.09,2.5-35.77,6.08c-5.6,1.67-11.09,3.94-15.74,7.63
				c-4.89,3.82-6.44,10.02-1.79,15.74c3.34,4.05,7.63,6.92,11.92,9.78c1.07,0.72,1.79,0.12,2.62-0.24c4.05-1.55,7.99-3.1,12.16-4.41
				c11.57-3.82,23.37-6.44,35.3-8.35c15.03-2.38,30.05-3.22,45.19-2.62c13.47,0.6,26.71,2.38,39.83,5.25
				c7.39,1.55,14.67,3.46,21.82,5.84c6.32,2.03,12.4,4.53,18.36,7.39c5.6,2.62,11.21,5.6,16.69,8.47c3.58,1.91,7.15,3.94,10.61,6.08
				c0.95,0.6,2.03,1.31,3.34,0.48c2.86-1.67,5.6-3.58,7.63-6.44c2.27-3.34,1.91-6.56,0.12-9.78c-0.6-1.07-1.43-1.91-2.15-2.86
				c-3.58-4.89-8.71-7.87-13.83-10.85c-9.18-5.25-19.08-8.94-29.1-12.16c-8.71-2.74-17.53-4.89-26.35-6.92
				c-12.16-2.74-24.45-4.65-36.85-6.08C300.35,156.03,286.16,155.07,271.97,155.19z M464.32,289.82c1.19-2.38,2.27-4.29,3.22-6.44
				c3.82-8.47,4.89-17.17,1.19-26.12c-1.55-3.7-3.82-7.04-7.51-8.94c-4.17-2.15-8.59-2.62-13.24-1.55
				c-8.11,2.03-14.91,6.32-21.11,11.81c-2.38,2.15-3.7,4.53-4.41,7.51c-0.36,1.43,0.12,2.27,1.31,2.86
				c0.83,0.36,1.79,0.72,2.62,1.19c4.77,2.15,9.66,4.17,14.43,6.56C448.7,280.76,456.57,285.05,464.32,289.82z M461.22,293.99
				c-12.88-8.11-26.12-14.79-40.42-20.63c-3.46,13.47-8.35,26.12-14.07,38.64c0.95,0.24,1.43,0.36,1.91,0.36
				c8.11-0.12,16.34-0.48,24.33-1.91C444.17,308.54,453.94,303.89,461.22,293.99z"/>
			<path class="st11" d="M425.09,212.07c0.72,3.46,0.12,6.56,0,9.54c-0.6,12.04-2.86,23.73-5.49,35.42
				c-1.67,7.15-3.34,14.19-5.49,21.23c-2.5,8.23-5.37,16.34-8.82,24.33c-2.5,5.6-5.25,11.09-7.87,16.58
				c-6.8,13.95-16.58,25.4-29.33,34.34c-11.81,8.23-24.68,13.36-38.64,16.34c-9.9,2.15-19.91,2.98-29.93,2.62
				c-9.3-0.36-18.6-1.79-27.55-4.41c-4.29-1.19-8.59-2.27-12.64-3.94c-10.26-4.17-20.39-8.71-28.98-15.74
				c-11.45-9.3-21.11-20.15-26.83-34.22c-3.94-9.54-6.68-19.44-9.18-29.45c-4.65-18.48-7.27-37.09-7.39-56.17
				c-0.12-13,1.07-25.88,3.82-38.52c0.24-1.07,0.36-2.03,0.48-2.98c0.72-0.36,1.07,0,1.31,0.36c4.41,5.84,10.37,9.78,16.69,13.36
				c11.57,6.68,24.21,11.09,36.97,14.79c15.38,4.41,31.12,7.51,46.98,9.78c16.34,2.38,32.79,3.7,49.37,3.94
				c19.32,0.24,38.52-0.72,57.36-5.49c6.92-1.79,13.83-3.82,19.91-7.99C421.39,214.81,423.06,213.62,425.09,212.07z M340.18,324.4
				c1.19-2.15,2.62-4.05,2.62-6.92c-0.12-4.17-3.34-8.82-7.15-9.66c-4.65-1.07-9.54,1.19-11.45,5.25
				c-2.15,4.41-0.95,9.78,3.46,12.88c-0.12,0.36-0.24,0.72-0.36,0.95c-1.79,3.22-1.31,5.01,1.91,6.68c0.72,0.36,1.55,0.72,2.38,0.83
				c6.2,1.79,12.52,1.67,18.96,1.43c1.79-0.12,3.58-0.72,5.01-1.79c1.91-1.31,2.15-3.46,0.6-5.25c-0.6-0.72-1.43-1.19-2.38-1.67
				C349.48,325.12,344.71,324.88,340.18,324.4z M271.74,320.71c0.36-0.83,1.19-1.07,1.91-1.67c3.7-2.98,4.29-9.54,1.07-13.59
				c-3.34-4.05-9.66-4.77-13.83-1.67c-3.82,2.86-4.77,7.87-2.38,13.24c-3.94,0-7.87-0.24-11.81,0.83c-2.27,0.6-4.29,2.5-4.29,4.29
				c0.12,2.03,1.67,3.1,3.34,3.82c6.8,2.86,13.83,3.22,21.11,2.15c1.55-0.24,3.1-0.24,4.53-1.07
				C273.88,325.6,274,323.09,271.74,320.71z M303.69,337.88c3.58,0,8.23-4.05,8.71-7.39c0.12-1.31-0.24-2.5-1.43-2.98
				s-2.38,0-3.1,1.07c-0.36,0.6-0.72,1.31-1.07,1.91c-1.55,2.5-2.15,2.62-4.29,0.72c-2.15-1.79-2.98-1.79-5.25,0
				c-2.38,2.03-3.94,1.55-4.89-1.43c-0.12-0.48,0-0.95-0.12-1.43c-0.36-1.19-1.07-1.91-2.27-1.79c-1.43,0-1.79,0.95-2.03,2.15
				c-0.48,2.15,0.48,3.94,1.67,5.72c1.91,2.86,4.65,3.82,7.75,2.5c1.79-0.72,3.22-1.07,4.77,0.48
				C302.5,337.76,303.34,337.76,303.69,337.88z"/>
			<path class="st11" d="M475.41,306.16c7.04,8.71,12.16,17.77,13.12,28.62c0.48,5.72-0.95,11.09-3.46,16.22
				c-5.49,11.21-15.14,17.65-25.88,22.9c-16.69,8.11-34.34,13.36-52.47,16.93c-19.32,3.94-38.87,5.84-58.55,6.68
				c-14.55,0.6-28.98,0.48-43.41-0.48c-13-0.83-26-2.03-38.99-4.05c-12.52-1.91-25.04-4.17-37.32-7.04
				c-8.94-2.15-17.89-4.53-26.71-7.27c-8.11-2.5-16.22-5.25-24.09-8.35c-11.69-4.65-23.13-9.9-33.87-16.46
				c-7.15-4.41-14.43-8.71-20.63-14.43c-9.18-8.47-15.38-18.72-17.89-30.89c-1.67-7.99,0.95-15.26,5.72-21.58
				c4.77-6.2,10.85-10.73,17.29-15.03c10.49-6.92,21.94-11.81,33.27-16.81c6.2-2.62,12.4-5.13,18.6-7.63
				c1.79-0.72,2.27-0.48,2.5,1.55c1.31,16.46,5.01,32.44,9.18,48.3c3.22,12.64,8.11,24.68,15.86,35.18
				c8.11,10.97,17.77,20.39,29.93,27.07c8.11,4.41,16.34,8.71,25.16,11.33c9.78,2.98,19.68,5.37,29.81,6.2
				c14.67,1.31,29.22-0.12,43.53-3.7c15.5-3.94,29.81-10.73,41.74-21.58c3.7-3.34,7.87-4.89,12.4-5.96
				c14.79-3.46,29.33-7.87,43.41-13.83c6.2-2.62,12.28-5.49,18.24-8.35C460.86,319.63,468.37,313.55,475.41,306.16z"/>
			<path class="st12" d="M271.97,155.19c14.19-0.12,28.26,0.83,42.33,2.5c12.4,1.43,24.68,3.34,36.85,6.08
				c8.94,2.03,17.77,4.17,26.35,6.92c10.02,3.22,19.91,6.92,29.1,12.16c5.13,2.86,10.14,5.96,13.83,10.85
				c0.72,0.95,1.55,1.91,2.15,2.86c1.91,3.22,2.15,6.44-0.12,9.78c-1.91,2.86-4.65,4.77-7.63,6.44c-1.31,0.72-2.38,0.12-3.34-0.48
				c-3.46-2.15-7.04-4.17-10.61-6.08c-5.49-2.86-11.09-5.72-16.69-8.47c-5.96-2.86-12.04-5.25-18.36-7.39
				c-7.15-2.38-14.55-4.17-21.82-5.84c-13.12-2.86-26.47-4.65-39.83-5.25c-15.14-0.6-30.17,0.24-45.19,2.62
				c-12.04,1.91-23.73,4.53-35.3,8.35c-4.05,1.31-8.11,2.98-12.16,4.41c-0.83,0.36-1.67,0.95-2.62,0.24
				c-4.29-2.86-8.59-5.72-11.92-9.78c-4.65-5.72-3.1-11.92,1.79-15.74c4.77-3.58,10.14-5.84,15.74-7.63
				c11.69-3.58,23.61-5.13,35.77-6.08C257.66,155.31,264.82,155.31,271.97,155.19z"/>
			<path class="st13" d="M426.28,251.3c0.95-5.72,1.67-11.33,2.74-17.05c0.24-1.55-0.72-3.82,1.07-4.65c1.19-0.6,2.98,0,4.53,0.24
				c5.01,0.6,10.02,0.36,15.03,1.43c11.21,2.15,20.87,7.04,28.02,16.1c3.46,4.29,4.77,9.42,5.72,14.55
				c1.55,8.11,0.72,16.1-1.79,23.85c-2.15,6.56-5.96,12.28-10.61,17.41c-6.92,7.75-15.26,13.36-24.56,17.89
				c-18.01,8.71-36.61,15.38-56.64,19.91c1.79-2.62,3.1-5.13,4.77-7.27c3.1-3.94,5.49-8.47,7.63-13c1.79-3.58,1.67-3.46,5.6-3.34
				c5.01,0.24,10.02-0.24,15.03-0.6c7.27-0.6,14.55-1.55,21.46-4.05c7.15-2.62,13.12-6.8,18.24-12.4
				c5.96-6.68,10.14-14.31,12.4-22.9c2.62-9.9,1.07-19.32-4.77-27.78c-4.65-6.56-11.57-8.71-19.2-8.35
				c-7.27,0.36-13.47,3.82-19.44,7.75c-1.55,0.95-2.98,2.03-4.41,3.1C426.88,251.9,426.52,251.54,426.28,251.3z"/>
			<path class="st14" d="M385.97,221.02c-1.67,1.55-3.94,0.6-5.84,1.07c-3.1,0.72-6.32,0.95-9.54,1.19
				c-12.88,1.19-25.88,0.48-38.76,0.6c-4.89,0-9.78-0.95-14.55-1.19c-3.94-0.24-7.87-0.95-11.81-0.95c-2.62,0-5.13-0.48-7.63-1.43
				c1.07-1.19,2.5-0.6,3.7-0.72c2.03-0.24,3.94,0.83,6.08,0.72c4.53-0.12,9.18,0.12,13.71-0.12c3.82-0.12,7.63-0.83,11.21-2.03
				c3.82-1.31,4.89-5.37,2.03-8.23c-1.43-1.43-2.98-2.62-5.01-3.46c-10.73-4.53-21.94-5.84-33.39-5.72c-0.83,0-1.67,0.24-2.5,0.48
				c-1.55,0.36-2.74,1.07-2.38,2.86c0.24,1.55,1.67,2.38,3.58,1.91c1.19-0.36,2.38-0.36,3.58-0.36c5.72,0.12,11.45,0.72,17.17,1.55
				c4.17,0.72,8.35,1.91,12.16,4.05c0.83,0.48,1.79,0.83,2.03,2.27c-7.15,1.31-14.19,2.03-21.35,1.19c-2.27-0.24-4.53-0.48-6.8-0.36
				c-4.41,0.24-8.59-0.6-12.88-0.95c-6.56-0.48-13-1.43-19.44-2.62c-7.75-1.43-15.62-2.27-23.13-4.65
				c-1.55-0.48-3.82-0.72-3.58-2.74c0.12-1.79,2.27-2.27,3.82-2.74c4.65-1.43,9.3-2.62,14.31-3.1c5.25-0.48,10.49-0.72,15.74-1.07
				c8.59-0.48,17.17,0.12,25.76,1.19c6.68,0.83,13.36,1.19,19.91,2.27c11.21,1.91,22.18,4.41,33.03,7.87
				c8.23,2.62,16.22,5.84,24.09,9.3C381.56,218.15,384.3,218.75,385.97,221.02z"/>
			<path class="st15" d="M385.97,221.02c-1.67-2.38-4.41-2.86-6.68-3.94c-7.87-3.46-15.86-6.68-24.09-9.3
				c-10.85-3.34-21.82-5.96-33.03-7.87c-6.56-1.07-13.36-1.43-19.91-2.27c-8.59-1.07-17.17-1.67-25.76-1.19
				c-5.25,0.36-10.49,0.6-15.74,1.07c-5.01,0.48-9.66,1.67-14.31,3.1c-1.67,0.48-3.7,0.95-3.82,2.74c-0.24,2.15,2.15,2.27,3.58,2.74
				c7.51,2.38,15.38,3.22,23.13,4.65c6.44,1.19,13,2.15,19.44,2.62c4.29,0.36,8.59,1.19,12.88,0.95c2.27-0.12,4.53,0.12,6.8,0.36
				c7.15,0.83,14.19,0,21.35-1.19c-0.24-1.43-1.19-1.79-2.03-2.27c-3.82-2.15-7.99-3.34-12.16-4.05c-5.6-0.95-11.33-1.55-17.17-1.55
				c-1.19,0-2.38,0-3.58,0.36c-1.79,0.48-3.22-0.36-3.58-1.91c-0.36-1.91,0.83-2.5,2.38-2.86c0.83-0.24,1.55-0.48,2.5-0.48
				c11.45-0.24,22.66,1.19,33.39,5.72c1.91,0.83,3.58,2.03,5.01,3.46c2.86,2.86,1.79,6.92-2.03,8.23
				c-3.58,1.31-7.39,1.91-11.21,2.03c-4.53,0.12-9.18-0.12-13.71,0.12c-2.03,0.12-6.08-0.72-6.08-0.72s-2.62-0.48-3.7,0.72
				c-1.67-0.12-3.34-0.12-5.01-0.24c-0.24-0.83-0.6-1.67-1.55-0.48c-3.58,0.36-6.8-1.19-10.26-1.67c-5.13-0.6-10.37-1.67-15.38-2.74
				c-5.96-1.31-11.81-2.74-17.65-4.53c-3.7-1.07-7.27-2.03-10.85-3.46c-0.24-1.07-0.6-2.03-0.72-3.1c-0.24-1.79,0.24-3.34,1.79-4.53
				c2.74-2.03,5.6-3.58,8.94-4.65c8.59-2.74,17.41-2.86,26.23-3.58c9.42-0.72,18.96,0.24,28.38,0.83c3.1,0.12,6.2,0.24,9.3,0.72
				c4.05,0.6,7.99,1.31,12.04,2.03c4.77,0.83,9.66,1.43,14.43,2.62c7.63,1.91,15.26,3.82,22.66,6.44
				c8.47,2.98,16.81,6.32,24.92,10.14c2.38,1.07,4.53,2.62,6.8,4.05c0.83,0.48,1.31,1.07,1.19,2.03
				C390.62,220.3,388.36,221.37,385.97,221.02z"/>
			<g>
				<g>
					<path class="st16" d="M284.97,219.58c4.17,1.19,8.59,1.07,12.88,0.95c4.53,0,9.06-0.24,13.71-0.6c2.38-0.24,2.38-3.94,0-3.7
						c-4.41,0.36-8.71,0.6-13.12,0.6c-4.17,0.12-8.47,0.36-12.4-0.83C283.66,215.29,282.59,218.87,284.97,219.58L284.97,219.58z"/>
				</g>
			</g>
			<g>
				<g>
					<path d="M283.9,222.57c7.87,1.19,15.74,2.38,23.73,3.46c0.95,0.12,2.03-0.24,2.27-1.31c0.24-0.83-0.24-2.15-1.31-2.27
						c-7.87-1.19-15.74-2.38-23.73-3.46c-0.95-0.12-2.03,0.24-2.27,1.31C282.35,221.25,282.94,222.45,283.9,222.57L283.9,222.57z"/>
				</g>
			</g>
			<g>
				<g>
					<path d="M298.21,224.59c3.58,0.48,6.92,0.95,10.61,1.43c0.95,0.12,2.03-0.24,2.27-1.31c0.24-0.83-0.24-2.15-1.31-2.27
						c-3.82-0.6-7.75-1.07-11.69-1.55c-0.95-0.12-1.91,0.95-1.91,1.91C296.42,223.76,297.13,224.47,298.21,224.59L298.21,224.59z"/>
				</g>
			</g>
			<path class="st17" d="M393.13,220.3c0-0.95-0.48-1.55-1.19-2.03c-2.27-1.31-4.41-2.86-6.8-4.05
				c-8.11-3.82-16.46-7.15-24.92-10.14c-7.39-2.62-15.03-4.53-22.66-6.44c-4.77-1.19-9.66-1.79-14.43-2.62
				c-4.05-0.72-7.99-1.31-12.04-2.03c-3.1-0.48-6.2-0.6-9.3-0.72c-9.42-0.48-18.96-1.55-28.38-0.83
				c-8.82,0.72-17.65,0.83-26.23,3.58c-3.22,1.07-6.2,2.62-8.94,4.65c-1.43,1.07-1.91,2.74-1.79,4.53c0.12,1.07,0.48,2.03,0.72,3.1
				c-5.01-1.31-9.78-3.34-14.43-5.37c-2.03-0.83-4.17-1.91-6.2-2.86c0-1.43,1.19-1.55,2.03-1.79c10.97-3.58,22.06-6.44,33.27-8.71
				c7.63-1.55,15.38-2.15,23.13-2.98c6.08-0.72,12.16-0.83,18.13-1.19c6.92-0.24,13.83,0.48,20.75,1.07
				c4.53,0.36,9.06,0.95,13.47,1.67c5.96,0.95,12.16,1.55,18.01,3.1c9.78,2.62,19.8,4.89,29.1,8.94c7.04,3.1,13.95,6.56,20.75,10.02
				c3.46,1.79,7.15,3.34,10.26,5.84c0.36,0.24,0.83,0.36,0.95,1.31C402.31,218.15,397.66,219.23,393.13,220.3z"/>
			<g>
				<g>
					<path d="M422.58,250.71c0,1.07-0.12,2.27-0.24,3.34c-0.12,0.48,0.24,1.07,0.6,1.31c0.36,0.36,0.83,0.6,1.31,0.6
						c0.48,0,0.95-0.12,1.31-0.6c0.12-0.12,0.24-0.24,0.24-0.36c0.12-0.24,0.24-0.6,0.24-0.95c0.12-1.07,0.24-2.27,0.24-3.34
						c0-0.48-0.24-0.95-0.6-1.31s-0.83-0.6-1.31-0.6c-0.48,0-0.95,0.12-1.31,0.6C422.7,249.75,422.58,250.11,422.58,250.71
						L422.58,250.71z"/>
				</g>
			</g>
			<g>
				<g>
					<path d="M427.11,252.26c-0.6,0.36-1.07,0.83-1.67,1.19c-0.24,0.12-0.36,0.24-0.48,0.48c-0.12,0.12-0.24,0.36-0.36,0.6
						c-0.12,0.24-0.12,0.48,0,0.72c0,0.24,0.12,0.48,0.24,0.72c0.12,0.12,0.24,0.24,0.24,0.36c0.24,0.24,0.48,0.36,0.83,0.48
						c0.12,0,0.36,0,0.48,0.12c0.36,0,0.6-0.12,0.95-0.24c0.6-0.36,1.07-0.83,1.67-1.19c0.24-0.12,0.36-0.24,0.48-0.48
						c0.12-0.12,0.24-0.36,0.36-0.6c0.12-0.24,0.12-0.48,0-0.72c0-0.24-0.12-0.48-0.24-0.72c-0.12-0.12-0.24-0.24-0.24-0.36
						c-0.24-0.24-0.48-0.36-0.83-0.48c-0.12,0-0.36,0-0.48-0.12C427.71,252.02,427.47,252.14,427.11,252.26L427.11,252.26z"/>
				</g>
			</g>
			<g>
				<g>
					<path d="M435.7,225.9c-2.5,0.12-4.89,0.36-7.27,0.72c-0.48,0.12-0.95,0.12-1.31,0.6c-0.36,0.36-0.6,0.83-0.6,1.31
						s0.12,0.95,0.6,1.31c0.36,0.36,0.83,0.6,1.31,0.6c2.38-0.36,4.89-0.48,7.27-0.72c0.95,0,1.91-0.83,1.91-1.91
						C437.49,226.86,436.77,225.9,435.7,225.9L435.7,225.9z"/>
				</g>
			</g>
			<g>
				<g>
					<path d="M426.4,228.29c-0.6,3.1-1.19,6.32-1.79,9.42c-0.24,0.95,0.24,2.03,1.31,2.27c0.95,0.24,2.15-0.24,2.27-1.31
						c0.6-3.1,1.19-6.32,1.79-9.42c0.24-0.95-0.24-2.03-1.31-2.27C427.71,226.86,426.52,227.34,426.4,228.29L426.4,228.29z"/>
				</g>
			</g>
			<path class="st18" d="M464.32,289.82c-7.87-4.77-15.62-9.06-23.49-13.12c-4.65-2.38-9.54-4.41-14.43-6.56
				c-0.83-0.36-1.79-0.72-2.62-1.19c-1.19-0.6-1.67-1.43-1.31-2.86c0.72-2.98,2.03-5.49,4.41-7.51c6.2-5.37,13-9.78,21.11-11.81
				c4.65-1.19,9.06-0.72,13.24,1.55c3.58,1.91,5.96,5.13,7.51,8.94c3.7,8.94,2.5,17.53-1.19,26.12
				C466.58,285.53,465.51,287.44,464.32,289.82z"/>
			<path class="st19" d="M461.22,293.99c-7.27,9.9-17.05,14.55-28.26,16.46c-7.99,1.31-16.22,1.79-24.33,1.91
				c-0.48,0-0.95-0.24-1.91-0.36c5.72-12.52,10.61-25.16,14.07-38.64C434.98,279.21,448.34,285.89,461.22,293.99z"/>
			<path d="M258.38,317.13c-2.27-5.37-1.43-10.26,2.38-13.24c4.17-3.22,10.49-2.5,13.83,1.67c3.22,4.05,2.62,10.49-1.07,13.59
				c-0.6,0.48-1.55,0.72-1.91,1.67C266.37,322.61,261.96,321.66,258.38,317.13z"/>
			<path d="M327.54,325.83c-4.53-3.1-5.72-8.59-3.46-12.88c2.03-4.05,6.8-6.32,11.45-5.25c3.82,0.83,7.04,5.6,7.15,9.66
				c0.12,2.74-1.43,4.77-2.62,6.92C336.25,327.5,332.07,328.34,327.54,325.83z"/>
			<path class="st20" d="M327.54,325.83c4.53,2.38,8.71,1.55,12.52-1.55c4.65,0.48,9.3,0.83,13.59,2.86
				c0.83,0.48,1.67,0.95,2.38,1.67c1.55,1.79,1.31,3.94-0.6,5.25c-1.55,1.07-3.22,1.67-5.01,1.79c-6.32,0.24-12.76,0.36-18.96-1.43
				c-0.83-0.24-1.55-0.48-2.38-0.83c-3.22-1.67-3.7-3.46-1.91-6.68C327.3,326.55,327.42,326.19,327.54,325.83z"/>
			<path class="st21" d="M258.38,317.13c3.46,4.65,7.99,5.6,13.36,3.58c2.38,2.27,2.15,4.89-0.36,6.44
				c-1.43,0.83-2.98,0.95-4.53,1.07c-7.15,1.07-14.31,0.6-21.11-2.15c-1.67-0.72-3.34-1.67-3.34-3.82c-0.12-1.79,1.91-3.7,4.29-4.29
				C250.51,316.89,254.44,317.13,258.38,317.13z"/>
			<path d="M303.69,337.88c-0.36-0.12-1.31-0.12-1.67-0.6c-1.43-1.67-2.98-1.31-4.77-0.48c-3.1,1.31-5.84,0.36-7.75-2.5
				c-1.19-1.67-2.03-3.46-1.67-5.72c0.24-1.07,0.6-2.03,2.03-2.15c1.31,0,2.03,0.72,2.27,1.79c0.12,0.48,0,0.95,0.12,1.43
				c0.83,2.98,2.38,3.46,4.89,1.43c2.27-1.91,3.1-1.91,5.25,0c2.15,1.91,2.74,1.79,4.29-0.72c0.36-0.6,0.72-1.31,1.07-1.91
				c0.72-1.07,1.91-1.55,3.1-1.07c1.31,0.48,1.67,1.67,1.43,2.98C311.92,333.82,307.27,338,303.69,337.88z"/>
		</g>
		
			<ellipse transform="matrix(0.078 -0.997 0.997 0.078 -14.1932 644.6209)" class="st4" cx="341.41" cy="329.98" rx="7.75" ry="17.41"/>
		<circle cx="332.79" cy="317.72" r="9.9"/>
		
			<ellipse transform="matrix(0.1417 -0.9899 0.9899 0.1417 -98.9552 529.8206)" class="st4" cx="256.05" cy="321.97" rx="7.75" ry="17.41"/>
		<circle cx="267.08" cy="311.88" r="9.9"/>
	</g>
</g>
</svg>
