<?xml version="1.0" encoding="utf-8"?>
<!-- Generator: Adobe Illustrator 26.2.1, SVG Export Plug-In . SVG Version: 6.00 Build 0)  -->
<svg version="1.1" id="Layer_6" xmlns="http://www.w3.org/2000/svg" xmlns:xlink="http://www.w3.org/1999/xlink" x="0px" y="0px"
	 viewBox="0 0 500 500" style="enable-background:new 0 0 500 500;" xml:space="preserve">
<style type="text/css">
	.st0{fill:#FEFFFF;}
	.st1{fill:#DEC539;}
	.st2{fill:#EFBBBB;}
</style>
<g id="Layer_6_00000050639089930752921400000013288650143539004564_">
	<g>
		<g>
			<g>
				<path d="M112.2,204.29c1.25-0.94,1.67-2.39,2.39-3.64c22.08-36.97,53.94-61.23,95.49-72.79c2.29-0.62,3.96-1.56,5.52-3.44
					c4.17-5.1,8.54-10.1,12.91-15.1c1.25-1.46,2.81-2.81,4.37-4.06c3.23-2.5,5.83-2.39,8.85,0.42c1.98,1.87,3.23,4.17,5,6.56
					c3.12-1.67,6.25-3.44,9.37-5c5.21-2.6,6.77-2.19,10.52,2.39c1.04,1.35,1.87,2.92,3.44,3.96c2.5-1.56,4.89-3.12,7.39-4.58
					c0.42-0.31,0.94-0.52,1.35-0.83c6.98-4.06,10.2-2.92,12.81,4.69c1.46,4.37,2.71,8.85,4.48,13.12c1.04,2.5,2.5,3.85,5.21,4.79
					c56.85,19.16,97.99,69.77,105.38,129.54c0.1,1.15,0.31,2.39,0.42,3.54c1.04,0.83,2.08,0.1,3.02-0.1c2.6-0.62,5.1-1.46,7.81-1.67
					c10.1-0.73,17.08,6.14,16.35,16.24c-0.52,6.46-2.81,12.39-5.62,18.12c-5.41,11.14-12.5,21.24-21.24,29.99
					c-2.39,2.39-4.79,5-7.39,7.18c-2.5,2.08-3.75,4.69-4.48,7.71c0.94,0.83,1.98,0.42,3.02,0.21c2.5-0.31,5-0.52,7.5-0.31
					c6.87,0.31,10.93,4.58,11.25,11.45c0.1,3.85-1.04,7.29-2.5,10.73c-3.44,7.91-8.64,14.47-14.16,20.93
					c-17.49,20.31-39.88,32.9-64.87,41.44c-25.93,8.85-52.59,13.22-79.97,12.39c-32.18-1.04-62.89-8.33-89.97-26.45
					c-47.9-32.18-71.95-77.37-72.16-135.16c0-2.39-0.31-4.58-1.46-6.87c-6.87-13.02-11.77-26.87-13.33-41.65
					c-0.62-5.41-0.83-10.83-0.1-16.24c0.21-1.98,0.62-3.96,1.15-5.83c3.02-9.58,12.18-13.54,21.24-9.06
					c2.5,1.25,4.69,2.92,6.98,4.58C109.38,202.42,110.53,203.88,112.2,204.29z M223.51,428.27c10.2,1.87,20.51,3.12,30.82,3.44
					c19.58,0.73,38.84-1.25,57.9-5.62c15.2-3.54,29.47-9.48,43.42-16.24c15.62-7.6,29.78-17.29,41.24-30.51
					c5.21-6.04,9.79-12.5,12.7-19.99c0.73-1.98,1.35-4.06,1.25-6.14c-0.21-3.85-1.35-5.21-5.1-5.73c-1.56-0.21-3.12-0.31-4.79-0.1
					c-4.06,0.31-8.12,0.83-12.08,2.08c-0.83,0.31-1.87,0.52-2.6-0.31c-0.83-0.94-0.62-1.98-0.1-2.92c1.04-2.29,2.29-4.48,3.12-6.87
					c1.56-4.58,4.27-8.02,7.91-11.14c11.56-9.79,19.78-21.97,26.34-35.51c2.08-4.27,3.85-8.75,4.27-13.64
					c0.73-7.5-3.64-11.56-11.04-10.41c-0.94,0.1-1.87,0.31-2.71,0.52c-2.92,0.83-5.83,1.56-8.75,2.5c-3.96,1.15-3.96,1.25-4.27-3.02
					c-6.25-80.28-73.2-141.2-153.49-139.64c-91.43,1.67-160.57,84.14-146.2,174.52C111.26,366.63,160.3,417.03,223.51,428.27z
					 M94.49,259.9c1.35-10.1,3.64-19.89,6.77-29.47c1.98-6.04,4.37-11.97,7.08-17.7c0.52-1.04,1.46-2.19,0-3.23
					c-3.54-2.71-6.87-5.83-11.14-7.6c-4.37-1.87-8.54-0.31-10.83,3.85c-1.35,2.5-1.77,5.21-1.98,8.02
					c-0.83,15.72,2.81,30.51,8.43,44.88C93.24,259.17,93.35,259.79,94.49,259.9z M289.63,127.55c-1.77-5.41-3.33-10.31-4.79-14.99
					c-1.77-0.21-2.6,0.73-3.64,1.25c-2.81,1.77-5.52,3.64-8.43,5.31c-3.12,1.77-5.41,1.46-7.71-1.25c-1.04-1.15-2.08-2.5-2.92-3.85
					c-1.15-1.77-2.39-2.08-4.27-0.94c-2.39,1.46-4.89,2.71-7.29,4.17c-5.1,3.02-6.56,2.71-9.58-2.19c-0.73-1.15-1.35-2.29-2.19-3.33
					c-1.67-2.19-1.87-2.19-3.96-0.31c-3.64,3.33-6.77,7.08-10,10.73c-0.62,0.73-1.46,1.35-1.67,2.81
					C245.48,121.2,267.45,122.14,289.63,127.55z"/>
				<path class="st0" d="M223.51,428.27c-63.1-11.25-112.15-61.64-122.14-124.95c-14.27-90.38,54.77-172.85,146.2-174.52
					c80.39-1.46,147.34,59.46,153.49,139.64c0.31,4.17,0.31,4.17,4.27,3.02c2.92-0.83,5.83-1.67,8.75-2.5
					c0.94-0.21,1.77-0.42,2.71-0.52c7.5-1.15,11.87,2.92,11.04,10.41c-0.52,4.79-2.19,9.27-4.27,13.64
					c-6.56,13.54-14.79,25.72-26.34,35.51c-3.64,3.12-6.46,6.56-7.91,11.14c-0.73,2.39-2.08,4.58-3.12,6.87
					c-0.52,1.04-0.73,1.98,0.1,2.92c0.73,0.83,1.67,0.62,2.6,0.31c3.96-1.25,8.02-1.77,12.08-2.08c1.56-0.1,3.23-0.1,4.79,0.1
					c3.75,0.52,4.89,1.87,5.1,5.73c0.1,2.19-0.52,4.17-1.25,6.14c-2.92,7.5-7.5,13.95-12.7,19.99
					c-11.45,13.22-25.62,22.91-41.24,30.51c-13.95,6.77-28.22,12.81-43.42,16.24c-19.06,4.37-38.42,6.35-57.9,5.62
					C243.92,431.4,233.71,430.15,223.51,428.27z M239.86,252.4c-0.42,0.94-1.46,1.04-2.19,1.67c-2.81,2.08-3.02,5-0.62,7.5
					c1.25,1.35,2.81,2.29,4.58,3.12c5.1,2.19,10.52,3.02,15.83,3.54c4.06,0.42,8.23,0.62,12.18-0.94c4.37-1.77,5-6.04,1.25-8.96
					c-0.94-0.73-1.98-1.35-3.02-1.77c-3.75-1.67-7.6-3.02-11.66-3.75c0.62-0.62,1.35-1.25,1.98-1.87c5.31-5.52,5.31-14.27,0.1-19.68
					c-5.31-5.41-14.16-5.62-19.68-0.52c-5.73,5.41-6.14,13.95-0.73,19.89C238.5,251.15,239.23,251.78,239.86,252.4z M171.34,237.93
					c-1.87,0-3.64,0-5.52-0.1c-3.44-0.21-6.87,0-10.2,1.25c-3.44,1.35-4.27,4.89-1.87,7.71c1.15,1.35,2.5,2.39,4.17,3.02
					c7.5,3.02,15.31,4.27,23.32,3.96c2.29-0.1,4.48-0.52,6.46-1.67c2.71-1.56,3.44-4.06,1.87-6.77c-0.42-0.83-1.15-1.46-1.77-2.19
					c0.83-0.42,1.67-0.83,2.39-1.35c5.31-3.23,8.02-9.37,6.56-15.31c-1.35-5.73-6.04-10-11.87-10.73
					c-6.25-0.73-11.77,2.39-14.58,8.02C167.91,228.76,168.95,233.35,171.34,237.93z M210.6,260.42c6.35,0.83,11.87-0.83,16.66-4.79
					c1.67-1.35,1.98-3.23,0.83-4.48c-1.25-1.35-2.81-1.35-4.27-0.42c-1.15,0.73-2.19,1.46-3.33,2.08
					c-5.41,2.81-11.04,1.98-15.31-2.08c-0.62-0.62-1.25-1.35-1.87-2.08c-1.56-1.67-3.23-1.98-4.48-0.94
					c-1.46,1.15-1.56,2.92-0.1,4.89C201.75,256.67,205.7,259.27,210.6,260.42z"/>
				<path class="st0" d="M94.49,259.9c-1.15-0.1-1.25-0.73-1.46-1.15c-5.73-14.47-9.37-29.26-8.43-44.88
					c0.1-2.81,0.62-5.52,1.98-8.02c2.29-4.17,6.35-5.73,10.83-3.85c4.17,1.77,7.5,4.89,11.14,7.6c1.35,1.04,0.42,2.19,0,3.23
					c-2.71,5.73-5.1,11.66-7.08,17.7C98.14,240.01,95.85,249.8,94.49,259.9z"/>
				<path class="st1" d="M289.63,127.55c-22.28-5.52-44.15-6.35-66.54-2.5c0.21-1.35,1.04-2.08,1.67-2.81
					c3.23-3.64,6.35-7.5,10-10.73c2.08-1.98,2.29-1.87,3.96,0.31c0.83,1.04,1.46,2.19,2.19,3.33c3.12,4.89,4.48,5.21,9.58,2.19
					c2.39-1.46,4.89-2.71,7.29-4.17c1.77-1.15,3.12-0.83,4.27,0.94c0.83,1.35,1.87,2.6,2.92,3.85c2.39,2.71,4.58,3.12,7.71,1.25
					c2.92-1.67,5.62-3.54,8.43-5.31c0.94-0.62,1.87-1.46,3.64-1.25C286.4,117.35,287.97,122.14,289.63,127.55z"/>
				<path d="M171.34,237.93c-2.39-4.48-3.44-9.06-1.04-14.06c2.81-5.73,8.33-8.85,14.58-8.02c5.83,0.73,10.52,5,11.87,10.73
					c1.35,5.94-1.25,12.08-6.56,15.31c-0.73,0.42-1.56,0.94-2.39,1.35C181.13,244.9,175.71,243.03,171.34,237.93z"/>
				<path d="M239.86,252.4c-0.62-0.62-1.35-1.25-1.98-1.87c-5.31-5.94-5-14.47,0.73-19.89c5.52-5.1,14.37-4.89,19.68,0.52
					c5.31,5.41,5.21,14.06-0.1,19.68c-0.62,0.62-1.35,1.25-1.98,1.87C250.69,255.73,245.27,255.94,239.86,252.4z"/>
				<path class="st2" d="M239.86,252.4c5.41,3.54,10.83,3.33,16.35,0.31c4.06,0.62,7.91,2.08,11.66,3.75
					c1.15,0.52,2.08,1.04,3.02,1.77c3.75,2.92,3.12,7.18-1.25,8.96c-3.96,1.56-8.12,1.46-12.18,0.94
					c-5.41-0.62-10.73-1.35-15.83-3.54c-1.77-0.73-3.33-1.77-4.58-3.12c-2.39-2.5-2.19-5.41,0.62-7.5
					C238.4,253.55,239.44,253.34,239.86,252.4z"/>
				<path class="st2" d="M171.34,237.93c4.37,5.21,9.79,7.08,16.35,5.31c0.62,0.73,1.25,1.35,1.77,2.19
					c1.56,2.6,0.83,5.21-1.87,6.77c-1.98,1.15-4.27,1.56-6.46,1.67c-8.02,0.21-15.83-1.04-23.32-3.96
					c-1.56-0.62-3.02-1.67-4.17-3.02c-2.39-2.81-1.56-6.35,1.87-7.71c3.23-1.25,6.77-1.46,10.2-1.25
					C167.7,237.82,169.47,237.82,171.34,237.93z"/>
				<path d="M210.6,260.42c-4.89-1.15-8.96-3.75-11.97-7.81c-1.56-2.08-1.46-3.75,0.1-4.89c1.35-0.94,2.92-0.62,4.48,0.94
					c0.62,0.62,1.15,1.46,1.87,2.08c4.27,4.17,9.89,4.89,15.31,2.08c1.15-0.62,2.29-1.35,3.33-2.08c1.56-0.94,3.02-0.94,4.27,0.42
					c1.15,1.25,0.94,3.12-0.83,4.48C222.47,259.59,216.95,261.25,210.6,260.42z"/>
				
					<ellipse transform="matrix(0.1817 -0.9834 0.9834 0.1817 -101.0645 369.7819)" class="st2" cx="171.65" cy="245.62" rx="9.48" ry="19.89"/>
				<circle cx="182.38" cy="230.01" r="14.68"/>
				
					<ellipse transform="matrix(0.1493 -0.9888 0.9888 0.1493 -39.5387 472.3071)" class="st2" cx="254.72" cy="259.13" rx="9.48" ry="19.89"/>
				<circle cx="248.08" cy="240.43" r="14.68"/>
			</g>
		</g>
	</g>
</g>
</svg>
