<?xml version="1.0" encoding="utf-8"?>
<!-- Generator: Adobe Illustrator 26.2.1, SVG Export Plug-In . SVG Version: 6.00 Build 0)  -->
<svg version="1.1" id="Layer_1" xmlns="http://www.w3.org/2000/svg" xmlns:xlink="http://www.w3.org/1999/xlink" x="0px" y="0px"
	 viewBox="0 0 500 500" style="enable-background:new 0 0 500 500;" xml:space="preserve">
<style type="text/css">
	.st0{fill:#91B255;}
	.st1{font-family:'AvenirNext-DemiBold';}
	.st2{font-size:10.2152px;}
	.st3{font-family:'AvenirNext-Medium';}
	.st4{font-size:7.9451px;}
	.st5{fill:#919CBE;}
	.st6{clip-path:url(#SVGID_00000091695775007699564690000002608459570221108904_);}
	.st7{fill:none;stroke:#BE6457;stroke-width:1.1742;stroke-miterlimit:10;}
	.st8{fill:#CC6666;}
	.st9{fill:#FFFFFF;}
</style>
<g id="Layer_2_00000141449281965208669590000005198897756740390798_">
	<g>
		<g>
			<g>
				<path d="M473.05,317.71c4.02-0.47,5.91,1.71,6.97,4.95c0.36,1.11,0.75,2.22,0.95,3.37c0.47,2.68,1.74,4.8,3.9,6.46
					c2.45,1.87,4.77,3.89,7.56,5.3c2.47,1.25,2.99,2.69,2.26,5.38c-0.73,2.68-2.47,4.71-4.46,6.53c-2.34,2.16-5.02,3.88-7.98,5.11
					c-4.02,1.67-7.8,3.76-11.41,6.19c-4.88,3.27-10.24,5.22-16.16,5.33c-2.64,0.06-4.91,0.7-6.49,3.02
					c-0.52,0.75-1.27,1.5-2.15,1.66c-1.9,0.36-3,1.62-4.09,3.04c-1.19,1.55-2.71,2.76-4.52,3.46c-2.76,1.08-4.44,3.17-5.68,5.71
					c-2.54,5.27-6.16,9.68-10.58,13.5c-2.16,1.85-3.65,1.85-5.52-0.4c-1.36-1.66-2.72-3.12-5.03-3.31c-0.47-0.05-1.04-0.27-1.35-0.6
					c-1.8-2.04-4.47-2.83-6.52-4.4c-4.19-3.22-6.71-7.6-6.95-13.04c-0.2-4.44-0.02-8.85,1.11-13.18c0.6-2.26,0.77-4.35-0.9-6.36
					c-1.08-1.29-0.9-3.04-0.59-4.59c0.39-2.03-0.08-3.79-1.2-5.45c-1.34-1.97-2.11-4.17-2.17-6.57c-0.07-3.83-1.43-7.08-3.84-10.06
					c-2.18-2.7-3.6-5.82-3.05-9.5c0.31-2.08,1.06-3.89,3.01-4.91c0.77-0.4,1.03-0.95,1.18-1.74c0.35-1.86,1.54-3.09,3.21-3.9
					c0.6-0.3,1.21-0.54,1.79-0.89c2.32-1.36,4.11-3.01,4.18-6.02c0.07-2.72,1.59-4.72,3.96-5.97c1.28-0.68,1.33-1.48,0.81-2.62
					c-1.33-2.99-2.99-5.78-4.6-8.59c-1-1.74-2.01-3.46-2.54-5.41c-1.43-5.19,2.75-10.09,8.12-9.48c2.53,0.3,4.84,1.23,7.01,2.5
					c2.45,1.42,4.77,3.09,7.35,4.26c3.35,1.5,6.91,2.41,10.27,3.92c5.02,2.25,10.1,4.35,15.19,6.44
					c6.46,2.64,12.22,6.46,17.81,10.57c3.87,2.85,6.76,6.71,9.5,10.58C473.38,310.68,473.8,314.02,473.05,317.71z M403.96,273.59
					c-2.99-0.06-4.96,2.57-3.96,5.24c0.47,1.25,1.18,2.39,1.86,3.54c1.87,3.16,3.83,6.28,5.22,9.68c1.37,3.38,0.54,5.53-2.26,6.93
					c-1.55,0.77-2.35,2.03-2.47,3.79c-0.2,3.12-1.52,5.6-4.27,7.23c-1.07,0.65-2.09,1.41-3.2,1.95c-0.99,0.48-1.62,1.03-1.71,2.2
					c-0.1,1.42-0.76,2.58-2.18,3.09c-1.42,0.51-1.8,1.58-1.85,2.94c-0.05,1.27,0.16,2.47,0.69,3.65c0.74,1.62,1.82,3,2.86,4.4
					c2.02,2.69,3.05,5.71,3.16,9.07c0.07,2.29,0.65,4.43,1.93,6.38c1.41,2.16,2.12,4.48,1.63,7.13c-0.19,1.03-0.42,2.19,0.36,3.14
					c1.87,2.3,1.88,4.88,1.2,7.6c-1.14,4.49-1.62,9.07-1.11,13.65c0.53,4.93,2.64,8.92,7.66,10.73c1.04,0.37,1.88,1.06,2.6,1.9
					c0.48,0.58,0.95,1.27,1.73,1.4c2.72,0.42,4.81,1.75,6.34,4.04c0.42,0.62,0.96,0.57,1.49,0.07c0.54-0.52,1.1-1.03,1.62-1.58
					c2.91-3.05,5.26-6.45,7.06-10.27c1.42-3,3.3-5.64,6.48-7.04c2.12-0.94,3.87-2.29,5.18-4.2c0.73-1.07,1.67-2.09,2.86-2.32
					c1.75-0.33,2.72-1.51,3.81-2.64c1.32-1.36,2.79-2.38,4.72-2.58c1.58-0.16,3.16-0.31,4.73-0.43c3.72-0.28,7.26-1.33,10.41-3.27
					c5.04-3.12,10.14-6.1,15.58-8.49c3.38-1.49,6.29-3.8,8.26-7.06c0.91-1.5,0.83-1.96-0.69-2.76c-3.06-1.62-5.61-3.92-8.25-6.07
					c-2.09-1.7-3.34-3.92-3.97-6.52c-0.32-1.29-0.6-2.61-1.03-3.87c-0.96-2.84-1.21-2.94-4.13-2.08c-0.16,0.06-0.31,0.12-0.48,0.16
					c-1.82,0.43-3.1-0.51-3.3-2.38c-0.12-1.12,0.22-2.16,0.58-3.17c0.9-2.6,0.22-5.03-1.19-7.13c-1.42-2.15-3.16-4.11-4.94-5.98
					c-5.58-5.83-12.45-9.83-19.76-12.97c-7.96-3.44-15.84-7.08-24.09-9.85c-3.6-1.2-6.65-3.46-9.89-5.37
					C407.56,274.51,405.77,273.92,403.96,273.59z"/>
				<path d="M359.5,243.14c-1.94-0.3-3.85-0.2-5.68-1.07c-3.25-1.57-5.21-4.1-6.1-7.49c-0.53-2.02-0.99-4.05-1.44-6.08
					c-0.24-1.07-0.67-2.07-1.19-3.01c-0.85-1.52-2.07-2.38-3.89-2.09c-1.95,0.31-3.62-0.37-5.1-1.58c-1.95-1.58-3.95-3.1-5.78-4.8
					c-4.17-3.88-4.93-9.78-2-14.64c3.22-5.35,10.6-5.69,14.21-0.62c0.77,1.08,1.42,2.26,2.11,3.39c1.66,2.76,4.29,3.85,7.42,3
					c1.36-0.37,2.69-0.89,4.03-1.36c2.79-0.99,5.6-0.98,8.3,0.23c3.28,1.45,6.5,3.06,9.21,5.49c2.77,2.5,5.96,4.27,9.57,5.23
					c1.65,0.44,3.13,1.12,4.4,2.27c3.22,2.92,3.61,6.83,0.96,10.31c-0.54,0.73-1.21,1.42-1.95,1.92c-4.6,3.12-9.52,5.55-15.04,6.52
					c-2.19,0.39-4.17,1.07-6,2.29C363.67,242.23,361.71,243.15,359.5,243.14z M336.21,201.68c-2.41-0.01-4.63,1.54-5.4,3.75
					c-1.27,3.62-0.44,6.73,2.5,9.19c1.27,1.07,2.64,2.03,3.89,3.14c1.32,1.17,2.68,1.8,4.51,1.7c2.61-0.16,4.63,1.04,6.14,3.19
					c1.19,1.67,1.83,3.54,2.33,5.48c0.52,2.02,0.95,4.05,1.51,6.06c0.62,2.25,2.12,3.58,4.32,4.47c2.79,1.14,5.22,0.59,7.56-0.96
					c1.96-1.33,4.06-2.34,6.41-2.67c4.91-0.67,9.2-2.83,13.38-5.31c0.73-0.43,1.4-0.92,1.93-1.58c1.6-1.97,1.33-4.14-0.75-5.62
					c-0.9-0.65-1.95-0.91-3-1.21c-3.47-1.03-6.73-2.58-9.42-5.01c-2.64-2.38-5.71-4.03-8.82-5.63c-2.02-1.04-4.13-1.15-6.3-0.36
					c-1.33,0.48-2.68,1.04-4.05,1.26c-6.59,1.02-9.5-0.01-11.9-5.04c-0.6-1.27-1.34-2.5-2.29-3.58
					C338.06,202.18,337.29,201.61,336.21,201.68z"/>
				<path d="M230.25,159.21c3.27-1.58,4.6-1.17,6.37,1.94c0.2,0.36,0.44,0.73,0.58,1.11c1.21,3.54,3.17,6.52,6.04,9
					c1.92,1.66,2.09,4.29,0.92,5.89c-1.52,2.08-4.46,3.1-6.66,1.9c-1.62-0.89-2.71-0.61-4.24,0.17c-3.05,1.58-6.13,1.62-8.73-1.08
					c-1.02-1.06-2.15-1.42-3.59-1.28c-2.11,0.2-4.2,0.14-5.85-1.5c-0.75-0.75-1.49-0.45-2.27-0.1c-2.33,1.02-4.72,1.54-7.29,1.48
					c-2.45-0.06-4.36-1.06-5.03-3.36c-1.27-4.42-4.12-7.74-6.88-11.2c-2.67-3.35-4.7-7.04-5.61-11.32c-0.61-2.92,0.52-4.55,3.5-4.59
					c0.83-0.01,1.67,0.02,2.5-0.05c3.51-0.3,6.38-1.77,8.54-4.6c0.91-1.2,1.8-2.39,2.72-3.59c0.83-1.06,1.8-1.96,2.95-2.68
					c3.59-2.18,7.39-1.07,9.22,2.68c0.54,1.12,0.99,2.3,1.63,3.37c1.35,2.22,3.04,4.14,5.21,5.68c2.84,2,4.54,4.64,4.09,8.3
					C228.15,157.08,229.32,158.09,230.25,159.21z M192.15,150.01c0.08,4.04,2.45,7.04,4.72,9.97c2.76,3.58,5.77,6.93,6.98,11.43
					c0.28,1.06,1.02,1.36,2.07,1.4c1.96,0.07,3.83-0.35,5.55-1.23c2.09-1.04,3.97-0.99,5.79,0.57c1.07,0.92,2.34,1.21,3.75,0.89
					c2.16-0.51,3.92,0.28,5.52,1.66c2.34,2.02,3.54,2.22,5.92,0.48c1.94-1.41,3.69-1.78,5.64-0.15c0.74,0.61,1.74,1.02,2.46,0.14
					c0.79-0.96-0.31-1.5-0.87-1.97c-2.58-2.25-4.46-4.93-5.49-8.21c-0.19-0.58-0.25-1.33-1.03-1.54c-2.37,2.02-3.52,1.88-5.26-0.6
					c-0.73-1.03-1.36-2.1-2.11-3.1c-0.99-1.33-1.54-2.77-1.32-4.43c0.32-2.35-0.75-3.96-2.62-5.26c-1.86-1.28-3.51-2.79-4.78-4.71
					c-1.11-1.67-2.18-3.34-2.94-5.21c-0.9-2.22-2.44-2.55-4.34-1.1c-0.66,0.51-1.23,1.12-1.77,1.75c-0.98,1.14-1.88,2.33-2.83,3.51
					c-2.67,3.3-6.2,4.93-10.34,5.41C193.94,149.81,193,149.55,192.15,150.01z"/>
				<path d="M85.33,86.39c2.75-0.01,5.49-0.01,8.23,0.48c1,0.19,2.01,0.43,2.75,1.11c2.3,2.11,4.17,4.59,5.3,7.49
					c0.73,1.83,0.61,3.77-0.4,5.56c-0.66,1.17-1.28,2.34-1.96,3.5c-0.87,1.45-1.44,2.92-1.18,4.72c0.35,2.46-0.81,4.48-2.79,5.78
					c-3.35,2.18-6.79,4.26-10.4,5.98c-2.04,0.98-4.13,1.08-6.2-0.27c-1.34-0.87-2.92-1.2-4.54-1.19c-3.81,0.02-6.82-1.35-8.61-4.88
					c-0.51-0.99-1.42-1.35-2.39-1.62c-1.71-0.47-3.27-1.21-4.69-2.29c-3.52-2.64-4.12-6.46-1.51-10.04c0.3-0.4,0.58-0.89,0.98-1.12
					c2.33-1.43,4.05-3.38,5.37-5.77c0.27-0.5,0.74-0.94,1.2-1.26c4.73-3.21,9.7-5.91,15.62-6.15
					C81.82,86.33,83.57,86.39,85.33,86.39z M85.42,90.04c-5.99-0.54-11.74,1.08-17.04,4.51c-1.32,0.84-2.38,1.77-3.05,3.19
					c-0.74,1.55-1.86,2.75-3.35,3.61c-0.58,0.33-1.14,0.74-1.59,1.2c-1.57,1.66-1.34,3.77,0.47,5.16c1.15,0.89,2.5,1.33,3.85,1.74
					c1.74,0.53,3.22,1.4,4.04,3.1c1.06,2.24,2.86,3.09,5.26,3.05c2.11-0.02,4.17,0.44,6,1.49c1.49,0.84,2.87,0.7,4.27-0.08
					c2.68-1.52,5.33-3.1,8.01-4.63c1.37-0.79,2.08-1.9,1.82-3.51c-0.32-2.01,0.33-3.77,1.33-5.47c0.73-1.21,1.41-2.46,2.1-3.69
					c0.51-0.91,0.81-1.88,0.4-2.87c-0.96-2.35-2.42-4.37-4.4-5.98c-0.7-0.58-1.6-0.84-2.57-0.83
					C89.23,90.07,87.47,90.04,85.42,90.04z"/>
				<path d="M307.66,199.36c-2.33,0.05-4.52-0.5-6.53-1.58c-4.8-2.61-9.81-2.87-15.05-1.69c-2.27,0.52-4.62,0.74-6.93,1.03
					c-1.6,0.2-3.17-0.06-4.66-0.61c-2.02-0.77-2.84-2.15-2.64-4.29c0.01-0.08,0.02-0.16,0.02-0.25c0.44-3.73,5.82-10.14,9.43-11.29
					c1.57-0.5,3.12-0.45,4.69-0.08c3.09,0.74,6.23,1.17,9.39,1.45c1.41,0.14,2.89,0.39,4.24,0.09c3.08-0.67,5.79,0.19,8.44,1.48
					c1.5,0.73,3,0.91,4.62,0.74c1.92-0.2,3.83-0.39,5.74-0.48c1.95-0.09,3.84,0.28,5.55,1.25c2.39,1.35,3.08,4.24,1.18,6.14
					C320.31,196.01,314.59,199.06,307.66,199.36z M322.45,188.59c-2.97-1.21-5.47-0.87-7.93-0.51c-2.87,0.42-5.62,0.37-8.29-1.02
					c-1.55-0.81-3.2-1.37-5.02-1.33c-5.35,0.19-10.65-0.3-15.89-1.41c-1.78-0.37-3.59-0.19-4.91,1.18c-1.58,1.6-3.01,3.36-4.12,5.33
					c-0.99,1.78-0.66,2.3,1.48,2.41c2.02,0.1,3.97-0.4,5.96-0.68c3.94-0.57,7.83-1.7,11.88-0.83c2.04,0.44,4,1.12,5.91,1.96
					c1.36,0.61,2.69,1.4,4.2,1.55C312.29,195.99,317.36,192.98,322.45,188.59z"/>
				<path d="M16.04,123.29c0.23-3.08,1.4-6.8,5.77-8.74c1.78-0.79,3.09-2.24,4.12-3.89c1.28-2.07,3.2-3.39,5.33-4.36
					c2.46-1.11,4.59-0.43,5.85,1.69c0.95,1.6,0.96,3.2-0.25,4.64c-0.91,1.08-1.35,2.25-1.21,3.67c0.24,2.49-1.15,3.88-3.29,4.7
					c-1.33,0.5-2.68,0.87-3.97,1.45c-1.49,0.67-2.38,1.71-2.91,3.21c-0.43,1.26-0.96,2.47-1.54,3.68c-0.44,0.91-1.08,1.67-2,2.19
					c-1.23,0.69-2.09,0.59-3.19-0.33C16.66,129.42,15.91,127.13,16.04,123.29z M20.42,127.14c1.07-1.03,1.18-2.26,1.6-3.3
					c0.89-2.19,2.3-3.8,4.49-4.78c1.29-0.59,2.6-1.11,3.96-1.49c0.85-0.24,1.59-0.61,1.48-1.69c-0.2-1.95,0.43-3.6,1.7-5.04
					c0.3-0.33,0.44-0.76,0.16-1.14c-0.37-0.51-0.89-0.32-1.35-0.1c-1.65,0.74-2.91,1.92-3.87,3.43c-1.26,2.02-2.93,3.6-4.97,4.8
					C20.31,119.74,19.12,123.03,20.42,127.14z"/>
				<path d="M299.45,208.95c2.54,0.23,5.31,0.19,8.01,0.7c4.66,0.9,7.95,3.73,10.27,7.71c1.79,3.06,1.11,5.99-1.69,8.21
					c-2.39,1.9-5.14,3.12-8.1,3.71c-3.47,0.69-5.81-0.67-7.04-4.03c-0.45-1.25-0.82-2.55-1.03-3.85c-0.45-2.75-1.74-4.8-4.26-6.08
					c-1.17-0.59-1.95-1.51-2.2-2.86c-0.36-1.92,0.22-2.86,2.1-3.22c0.32-0.07,0.66-0.1,0.99-0.12
					C297.42,209.03,298.33,209.01,299.45,208.95z M299.28,212.71c3.13,2.35,3.97,5.71,4.64,9.16c0.12,0.66,0.35,1.28,0.58,1.92
					c0.59,1.54,0.98,1.83,2.62,1.62c2.54-0.32,4.77-1.45,6.73-3.06c1.03-0.84,1.25-1.93,0.47-3.14c-1.78-2.78-3.98-5.1-7.4-5.9
					C304.47,212.74,301.96,212.96,299.28,212.71z"/>
				<path d="M343.83,245.26c0.23,3.16-2.63,6.39-5.62,5.21c-2.26-0.91-4.57-0.66-6.76,0.45c-0.91,0.45-1.87,0.68-2.91,0.54
					c-2.83-0.37-4.26-3-3.01-5.55c0.68-1.4,1.78-2.41,3.05-3.25c2.16-1.42,4.46-2.61,6.76-3.76c1.25-0.61,2.55-0.69,3.9-0.58
					c1.66,0.15,2.91,0.96,3.45,2.49C343.28,242.47,343.58,244.2,343.83,245.26z M329.54,247.21c0.24,0.22,0.51,0.16,0.73,0.05
					c2.6-1.33,5.33-1.17,8.08-0.82c2.02,0.25,2.15,0.17,1.66-1.8c-0.06-0.24-0.16-0.47-0.23-0.7c-0.59-2.17-1.08-2.45-3.13-1.43
					c-2.01,1.02-3.94,2.18-5.87,3.34C330.23,246.14,329.63,246.5,329.54,247.21z"/>
				<path class="st0" d="M403.96,273.59c1.8,0.33,3.61,0.91,5.3,1.9c3.23,1.9,6.29,4.17,9.89,5.37c8.24,2.77,16.12,6.41,24.09,9.85
					c7.29,3.16,14.17,7.16,19.76,12.97c1.78,1.86,3.52,3.84,4.94,5.98c1.41,2.11,2.08,4.54,1.19,7.13
					c-0.35,1.03-0.69,2.07-0.58,3.17c0.2,1.87,1.49,2.81,3.3,2.38c0.16-0.05,0.32-0.1,0.48-0.16c2.92-0.87,3.17-0.76,4.13,2.08
					c0.43,1.26,0.7,2.57,1.03,3.87c0.65,2.58,1.88,4.81,3.97,6.52c2.64,2.16,5.19,4.46,8.25,6.07c1.52,0.81,1.6,1.26,0.69,2.76
					c-1.96,3.27-4.88,5.58-8.26,7.06c-5.46,2.39-10.54,5.38-15.58,8.49c-3.14,1.94-6.69,2.97-10.41,3.27
					c-1.58,0.12-3.16,0.27-4.73,0.43c-1.93,0.2-3.43,1.21-4.72,2.58c-1.08,1.14-2.07,2.32-3.81,2.64c-1.2,0.23-2.15,1.25-2.86,2.32
					c-1.32,1.92-3.05,3.27-5.18,4.2c-3.16,1.4-5.06,4.04-6.48,7.04c-1.8,3.81-4.17,7.23-7.06,10.27c-0.52,0.54-1.07,1.06-1.62,1.58
					c-0.51,0.48-1.07,0.54-1.49-0.07c-1.52-2.29-3.61-3.62-6.34-4.04c-0.77-0.12-1.25-0.82-1.73-1.4c-0.7-0.84-1.55-1.52-2.6-1.9
					c-5.03-1.82-7.13-5.81-7.66-10.73c-0.51-4.59-0.02-9.16,1.11-13.65c0.68-2.71,0.67-5.29-1.2-7.6c-0.77-0.95-0.54-2.11-0.36-3.14
					c0.5-2.64-0.22-4.97-1.63-7.13c-1.28-1.95-1.85-4.1-1.93-6.38c-0.1-3.36-1.14-6.38-3.16-9.07c-1.06-1.41-2.12-2.78-2.86-4.4
					c-0.53-1.18-0.75-2.37-0.69-3.65c0.06-1.35,0.44-2.42,1.85-2.94c1.42-0.51,2.08-1.67,2.18-3.09c0.09-1.18,0.73-1.73,1.71-2.2
					c1.12-0.54,2.12-1.32,3.2-1.95c2.75-1.63,4.06-4.11,4.27-7.23c0.1-1.74,0.92-3.01,2.47-3.79c2.81-1.41,3.64-3.56,2.26-6.93
					c-1.4-3.43-3.36-6.53-5.22-9.68c-0.68-1.15-1.4-2.3-1.86-3.54C398.99,276.15,400.98,273.53,403.96,273.59z"/>
				<path class="st0" d="M336.21,201.68c1.06-0.08,1.85,0.51,2.54,1.27c0.96,1.07,1.69,2.29,2.29,3.58c2.39,5.03,5.3,6.06,11.9,5.04
					c1.37-0.22,2.71-0.77,4.05-1.26c2.17-0.77,4.28-0.68,6.3,0.36c3.12,1.6,6.16,3.25,8.82,5.63c2.7,2.42,5.94,3.98,9.42,5.01
					c1.04,0.31,2.1,0.58,3,1.21c2.08,1.49,2.35,3.64,0.75,5.62c-0.53,0.66-1.2,1.15-1.93,1.58c-4.18,2.49-8.47,4.64-13.38,5.31
					c-2.34,0.32-4.44,1.34-6.41,2.67c-2.34,1.57-4.77,2.11-7.56,0.96c-2.19-0.9-3.69-2.22-4.32-4.47c-0.54-2.01-0.98-4.04-1.51-6.06
					c-0.51-1.94-1.15-3.81-2.33-5.48c-1.52-2.15-3.53-3.35-6.14-3.19c-1.83,0.12-3.21-0.53-4.51-1.7c-1.25-1.11-2.61-2.08-3.89-3.14
					c-2.94-2.47-3.77-5.58-2.5-9.19C331.58,203.23,333.82,201.67,336.21,201.68z"/>
				<path class="st0" d="M192.15,150.01c0.85-0.45,1.79-0.17,2.69-0.28c4.13-0.5,7.68-2.11,10.34-5.41
					c0.94-1.17,1.86-2.35,2.83-3.51c0.53-0.62,1.11-1.26,1.77-1.75c1.9-1.45,3.44-1.12,4.34,1.1c0.76,1.88,1.85,3.53,2.94,5.21
					c1.27,1.92,2.92,3.43,4.78,4.71c1.87,1.29,2.94,2.91,2.62,5.26c-0.23,1.66,0.32,3.1,1.32,4.43c0.75,1,1.4,2.08,2.11,3.1
					c1.74,2.49,2.89,2.62,5.26,0.6c0.77,0.22,0.85,0.96,1.03,1.54c1.04,3.27,2.93,5.96,5.49,8.21c0.57,0.48,1.66,1.02,0.87,1.97
					c-0.73,0.89-1.71,0.5-2.46-0.14c-1.95-1.63-3.71-1.26-5.64,0.15c-2.38,1.74-3.59,1.54-5.92-0.48c-1.59-1.37-3.36-2.17-5.52-1.66
					c-1.41,0.33-2.67,0.05-3.75-0.89c-1.82-1.57-3.71-1.62-5.79-0.57c-1.73,0.87-3.59,1.29-5.55,1.23c-1.04-0.05-1.78-0.33-2.07-1.4
					c-1.2-4.49-4.22-7.85-6.98-11.43C194.59,157.03,192.22,154.05,192.15,150.01z"/>
				<path class="st0" d="M85.42,90.04c2.07,0,3.81,0.02,5.56-0.01c0.96-0.01,1.86,0.24,2.57,0.83c1.97,1.6,3.44,3.62,4.4,5.98
					c0.4,0.99,0.12,1.97-0.4,2.87c-0.69,1.23-1.4,2.47-2.1,3.69c-0.99,1.7-1.65,3.46-1.33,5.47c0.25,1.6-0.44,2.71-1.82,3.51
					c-2.68,1.52-5.32,3.1-8.01,4.63c-1.4,0.79-2.77,0.92-4.27,0.08c-1.85-1.04-3.89-1.52-6-1.49c-2.39,0.05-4.2-0.82-5.26-3.05
					c-0.82-1.71-2.3-2.57-4.04-3.1c-1.35-0.42-2.7-0.85-3.85-1.74c-1.8-1.4-2.03-3.51-0.47-5.16c0.45-0.48,1.02-0.87,1.59-1.2
					c1.49-0.87,2.62-2.08,3.35-3.61c0.67-1.42,1.74-2.33,3.05-3.19C73.68,91.12,79.42,89.49,85.42,90.04z"/>
				<path class="st0" d="M322.45,188.59c-5.07,4.39-10.16,7.4-16.74,6.69c-1.51-0.16-2.84-0.94-4.2-1.55
					c-1.92-0.85-3.87-1.54-5.91-1.96c-4.05-0.87-7.93,0.27-11.88,0.83c-1.97,0.28-3.94,0.79-5.96,0.68
					c-2.12-0.12-2.46-0.62-1.48-2.41c1.1-1.97,2.54-3.73,4.12-5.33c1.34-1.36,3.13-1.55,4.91-1.18c5.24,1.11,10.54,1.59,15.89,1.41
					c1.82-0.07,3.47,0.51,5.02,1.33c2.67,1.4,5.4,1.43,8.29,1.02C316.97,187.72,319.47,187.37,322.45,188.59z"/>
				<path class="st0" d="M20.42,127.14c-1.28-4.11-0.09-7.4,3.21-9.33c2.04-1.2,3.72-2.78,4.97-4.8c0.95-1.51,2.2-2.69,3.87-3.43
					c0.47-0.22,0.98-0.39,1.35,0.1c0.28,0.37,0.12,0.81-0.16,1.14c-1.27,1.44-1.9,3.1-1.7,5.04c0.1,1.07-0.62,1.44-1.48,1.69
					c-1.36,0.37-2.67,0.91-3.96,1.49c-2.18,0.98-3.6,2.58-4.49,4.78C21.59,124.88,21.48,126.1,20.42,127.14z"/>
				<path class="st0" d="M299.28,212.71c2.68,0.24,5.19,0.01,7.64,0.6c3.43,0.82,5.62,3.12,7.4,5.9c0.77,1.21,0.57,2.3-0.47,3.14
					c-1.96,1.6-4.19,2.72-6.73,3.06c-1.65,0.22-2.03-0.08-2.62-1.62c-0.24-0.61-0.45-1.26-0.58-1.92
					C303.26,218.43,302.41,215.07,299.28,212.71z"/>
				<path class="st0" d="M329.54,247.21c0.09-0.7,0.7-1.07,1.25-1.4c1.93-1.15,3.87-2.32,5.87-3.34c2.03-1.03,2.54-0.74,3.13,1.43
					c0.07,0.24,0.16,0.47,0.23,0.7c0.48,1.97,0.36,2.08-1.66,1.8c-2.75-0.35-5.48-0.51-8.08,0.82
					C330.05,247.36,329.78,247.43,329.54,247.21z"/>
			</g>
		</g>
	</g>
</g>
<g id="Layer_3">
	<text transform="matrix(1 0 0 1 98.4741 78.5054)" class="st1 st2">KAUAI</text>
	<text transform="matrix(1 0 0 1 283.4824 167.0371)" class="st1 st2">MOLOKAI</text>
	<text transform="matrix(1 0 0 1 5 151.8105)" class="st1 st2">NIIHAU</text>
	<text transform="matrix(1 0 0 1 253.9395 234.0146)" class="st1 st2">LANAI</text>
	<text transform="matrix(1 0 0 1 182.4326 195.4248)" class="st1 st2">OAHU</text>
	<text transform="matrix(1 0 0 1 376.5215 202.2354)" class="st1 st2">MAUI</text>
	<text transform="matrix(1 0 0 1 283.4492 269.2012)" class="st1 st2">KAHOOLAWE</text>
	<text transform="matrix(1 0 0 1 263.0195 360.0029)" class="st1 st2">HAWAII (BIG ISLAND)</text>
	<text transform="matrix(1 0 0 1 18.6631 203.8008)" class="st3 st4">order is here!</text>
</g>
<g id="Layer_6">
</g>
<g id="Layer_7">
</g>
<g id="Layer_4_copy">
	<circle class="st5" cx="101.72" cy="323.87" r="85.69"/>
</g>
<g id="Layer_4">
	<g>
		<g>
			<defs>
				<circle id="SVGID_1_" cx="101.72" cy="323.87" r="85.69"/>
			</defs>
			<clipPath id="SVGID_00000089556814560129107980000001744122227157195425_">
				<use xlink:href="#SVGID_1_"  style="overflow:visible;"/>
			</clipPath>
			<g style="clip-path:url(#SVGID_00000089556814560129107980000001744122227157195425_);">
				<g>
					<g>
						<path d="M390.09,502.47c4.65-0.54,6.86,1.99,8.08,5.74c0.42,1.29,0.87,2.58,1.1,3.92c0.54,3.11,2.02,5.57,4.53,7.5
							c2.84,2.17,5.53,4.52,8.77,6.15c2.87,1.44,3.46,3.12,2.62,6.24c-0.84,3.11-2.87,5.46-5.16,7.57c-2.71,2.5-5.82,4.51-9.25,5.92
							c-4.65,1.94-9.05,4.36-13.25,7.17c-5.66,3.79-11.87,6.05-18.75,6.2c-3.08,0.06-5.7,0.82-7.53,3.51
							c-0.6,0.87-1.48,1.74-2.49,1.93c-2.2,0.42-3.47,1.87-4.73,3.52c-1.38,1.8-3.16,3.2-5.24,4.02c-3.2,1.26-5.15,3.68-6.58,6.63
							c-2.95,6.12-7.15,11.24-12.28,15.66c-2.5,2.15-4.23,2.15-6.39-0.47c-1.58-1.93-3.17-3.62-5.83-3.85
							c-0.54-0.05-1.21-0.31-1.57-0.7c-2.1-2.37-5.19-3.28-7.56-5.11c-4.86-3.75-7.77-8.82-8.06-15.13
							c-0.24-5.15-0.03-10.27,1.29-15.29c0.7-2.62,0.9-5.04-1.04-7.38c-1.26-1.51-1.04-3.52-0.68-5.32c0.45-2.36-0.09-4.39-1.4-6.32
							c-1.55-2.29-2.45-4.82-2.52-7.62c-0.08-4.44-1.66-8.21-4.45-11.67c-2.53-3.13-4.18-6.75-3.54-11.02
							c0.35-2.41,1.23-4.52,3.5-5.7c0.9-0.47,1.19-1.1,1.36-2.02c0.41-2.16,1.78-3.59,3.72-4.53c0.7-0.34,1.41-0.64,2.08-1.02
							c2.69-1.58,4.77-3.5,4.85-6.98c0.08-3.17,1.85-5.48,4.6-6.92c1.49-0.79,1.53-1.7,0.93-3.04c-1.53-3.46-3.46-6.71-5.33-9.97
							c-1.17-2.02-2.33-4.02-2.95-6.29c-1.66-6.03,3.18-11.7,9.42-10.99c2.93,0.34,5.61,1.43,8.14,2.91
							c2.84,1.65,5.53,3.59,8.54,4.94c3.88,1.74,8.02,2.79,11.92,4.55c5.82,2.61,11.71,5.04,17.62,7.47
							c7.5,3.08,14.19,7.5,20.66,12.26c4.48,3.3,7.85,7.77,11.02,12.28C390.46,494.32,390.96,498.17,390.09,502.47z M309.94,451.26
							c-3.46-0.06-5.75,2.99-4.6,6.08c0.54,1.44,1.36,2.78,2.16,4.11c2.17,3.67,4.44,7.28,6.05,11.24c1.6,3.93,0.64,6.41-2.62,8.04
							c-1.8,0.9-2.74,2.36-2.87,4.39c-0.24,3.62-1.77,6.49-4.95,8.38c-1.24,0.75-2.42,1.63-3.71,2.27
							c-1.15,0.56-1.87,1.19-1.99,2.57c-0.12,1.65-0.89,3-2.53,3.59c-1.65,0.59-2.1,1.83-2.15,3.42c-0.05,1.48,0.18,2.87,0.81,4.23
							c0.85,1.87,2.11,3.47,3.33,5.11c2.35,3.12,3.54,6.63,3.67,10.52c0.08,2.66,0.75,5.14,2.24,7.4c1.63,2.5,2.46,5.2,1.9,8.27
							c-0.22,1.19-0.48,2.54,0.42,3.64c2.17,2.67,2.19,5.66,1.4,8.82c-1.32,5.21-1.87,10.52-1.29,15.84
							c0.62,5.71,3.08,10.35,8.9,12.45c1.21,0.43,2.19,1.23,3.01,2.2c0.56,0.67,1.1,1.48,2,1.61c3.17,0.48,5.58,2.03,7.35,4.69
							c0.48,0.73,1.11,0.65,1.73,0.08c0.64-0.6,1.27-1.19,1.87-1.83c3.37-3.54,6.1-7.48,8.19-11.92c1.65-3.47,3.84-6.55,7.51-8.16
							c2.46-1.09,4.48-2.66,6-4.87c0.84-1.24,1.94-2.42,3.33-2.69c2.03-0.39,3.17-1.76,4.43-3.08c1.52-1.58,3.25-2.76,5.48-3
							c1.83-0.18,3.67-0.35,5.49-0.5c4.31-0.33,8.43-1.53,12.08-3.79c5.86-3.62,11.77-7.08,18.08-9.85c3.93-1.73,7.3-4.4,9.59-8.19
							c1.06-1.74,0.96-2.28-0.81-3.2c-3.55-1.87-6.5-4.55-9.58-7.05c-2.42-1.97-3.87-4.55-4.61-7.56c-0.37-1.51-0.7-3.03-1.19-4.48
							c-1.11-3.29-1.41-3.42-4.8-2.41c-0.18,0.06-0.35,0.14-0.56,0.18c-2.11,0.5-3.6-0.59-3.84-2.76c-0.14-1.31,0.25-2.5,0.67-3.68
							c1.04-3.01,0.25-5.83-1.38-8.27c-1.65-2.49-3.67-4.77-5.73-6.93c-6.47-6.76-14.45-11.41-22.93-15.06
							c-9.24-3.98-18.38-8.21-27.94-11.43c-4.18-1.4-7.72-4.02-11.48-6.22C314.1,452.34,312.03,451.66,309.94,451.26z"/>
						<path d="M258.35,415.94c-2.25-0.34-4.47-0.24-6.58-1.24c-3.77-1.82-6.04-4.74-7.08-8.69c-0.62-2.34-1.15-4.7-1.68-7.06
							c-0.28-1.24-0.77-2.39-1.38-3.5c-1-1.77-2.39-2.76-4.52-2.42c-2.27,0.35-4.21-0.43-5.91-1.83c-2.27-1.83-4.57-3.6-6.71-5.57
							c-4.82-4.51-5.71-11.35-2.32-16.98c3.75-6.21,12.29-6.59,16.48-0.73c0.9,1.26,1.65,2.62,2.45,3.94
							c1.93,3.2,4.98,4.47,8.61,3.47c1.58-0.43,3.12-1.02,4.68-1.58c3.25-1.15,6.49-1.14,9.62,0.26c3.8,1.69,7.55,3.55,10.68,6.38
							c3.21,2.91,6.91,4.95,11.1,6.07c1.91,0.51,3.63,1.31,5.11,2.63c3.75,3.38,4.19,7.93,1.11,11.95
							c-0.64,0.84-1.41,1.65-2.27,2.22c-5.33,3.62-11.06,6.45-17.45,7.56c-2.54,0.45-4.82,1.24-6.97,2.66
							C263.19,414.89,260.89,415.95,258.35,415.94z M231.33,367.85c-2.79-0.01-5.37,1.78-6.27,4.35c-1.48,4.21-0.51,7.81,2.91,10.66
							c1.48,1.24,3.08,2.36,4.52,3.64c1.52,1.35,3.11,2.1,5.23,1.97c3.03-0.18,5.37,1.21,7.13,3.69c1.38,1.94,2.12,4.11,2.7,6.37
							c0.6,2.34,1.1,4.7,1.76,7.03c0.73,2.61,2.46,4.14,5.02,5.19c3.25,1.32,6.05,0.68,8.77-1.11c2.28-1.53,4.72-2.71,7.43-3.09
							c5.7-0.77,10.68-3.28,15.53-6.16c0.84-0.5,1.61-1.07,2.24-1.83c1.86-2.29,1.53-4.81-0.87-6.51c-1.04-0.75-2.27-1.06-3.47-1.41
							c-4.04-1.19-7.81-3-10.93-5.8c-3.08-2.76-6.63-4.68-10.23-6.54c-2.35-1.21-4.8-1.34-7.31-0.42c-1.53,0.56-3.11,1.21-4.7,1.46
							c-7.65,1.18-11.02-0.01-13.8-5.86c-0.7-1.48-1.55-2.91-2.66-4.14C233.47,368.43,232.57,367.76,231.33,367.85z"/>
						<path d="M108.38,318.57c3.79-1.83,5.33-1.35,7.39,2.25c0.24,0.42,0.51,0.84,0.67,1.29c1.41,4.11,3.68,7.56,7,10.44
							c2.22,1.93,2.42,4.98,1.07,6.83c-1.77,2.41-5.16,3.6-7.73,2.2c-1.87-1.02-3.16-0.72-4.93,0.2c-3.54,1.83-7.11,1.87-10.12-1.26
							c-1.18-1.23-2.49-1.65-4.15-1.49c-2.45,0.24-4.87,0.16-6.79-1.74c-0.87-0.87-1.73-0.52-2.63-0.12
							c-2.7,1.18-5.48,1.78-8.46,1.7c-2.84-0.06-5.06-1.23-5.83-3.89c-1.48-5.12-4.78-8.99-7.98-13c-3.09-3.88-5.45-8.16-6.5-13.13
							c-0.72-3.38,0.6-5.28,4.05-5.32c0.96-0.01,1.94,0.03,2.91-0.05c4.06-0.34,7.4-2.05,9.9-5.33c1.06-1.4,2.1-2.78,3.17-4.15
							c0.96-1.23,2.1-2.28,3.43-3.11c4.15-2.53,8.57-1.24,10.69,3.11c0.64,1.31,1.15,2.67,1.9,3.92c1.57,2.58,3.52,4.81,6.04,6.58
							c3.29,2.32,5.27,5.39,4.73,9.62C105.94,316.11,107.31,317.28,108.38,318.57z M64.17,307.9c0.09,4.69,2.84,8.16,5.48,11.57
							c3.2,4.14,6.69,8.04,8.1,13.26c0.33,1.23,1.18,1.58,2.39,1.61c2.28,0.08,4.44-0.41,6.45-1.43c2.42-1.21,4.61-1.15,6.72,0.65
							c1.24,1.07,2.71,1.41,4.35,1.02c2.5-0.59,4.55,0.33,6.39,1.93c2.71,2.34,4.11,2.58,6.88,0.56c2.25-1.63,4.28-2.07,6.55-0.17
							c0.85,0.72,2.02,1.18,2.86,0.16c0.92-1.11-0.35-1.74-1.01-2.29c-3-2.61-5.16-5.71-6.38-9.51c-0.22-0.67-0.3-1.53-1.19-1.78
							c-2.75,2.35-4.09,2.19-6.1-0.7c-0.84-1.19-1.58-2.44-2.45-3.6c-1.15-1.53-1.78-3.21-1.52-5.14c0.37-2.74-0.87-4.6-3.04-6.1
							c-2.16-1.49-4.06-3.25-5.54-5.46c-1.29-1.94-2.53-3.87-3.42-6.04c-1.04-2.58-2.83-2.96-5.03-1.27
							c-0.76,0.59-1.43,1.31-2.05,2.03c-1.14,1.32-2.19,2.7-3.28,4.06c-3.09,3.84-7.18,5.71-12,6.29
							C66.26,307.67,65.17,307.37,64.17,307.9z"/>
						<path d="M-59.75,234.09c3.18-0.01,6.38-0.01,9.55,0.56c1.17,0.22,2.33,0.5,3.18,1.29c2.67,2.45,4.82,5.32,6.15,8.69
							c0.84,2.12,0.72,4.38-0.47,6.46c-0.76,1.35-1.49,2.71-2.28,4.05c-1.01,1.69-1.68,3.38-1.36,5.48c0.41,2.86-0.93,5.2-3.25,6.71
							c-3.88,2.53-7.87,4.94-12.07,6.93c-2.37,1.14-4.8,1.26-7.18-0.31c-1.55-1.01-3.38-1.4-5.27-1.38c-4.43,0.03-7.91-1.57-10-5.66
							c-0.59-1.15-1.65-1.57-2.78-1.87c-1.99-0.54-3.79-1.41-5.44-2.66c-4.09-3.08-4.78-7.5-1.76-11.66
							c0.34-0.47,0.67-1.02,1.14-1.31c2.7-1.66,4.7-3.93,6.22-6.69c0.31-0.58,0.85-1.09,1.4-1.46c5.49-3.72,11.25-6.86,18.11-7.14
							C-63.81,234.02-61.78,234.09-59.75,234.09z M-59.65,238.32c-6.96-0.64-13.61,1.26-19.76,5.23c-1.52,0.98-2.76,2.05-3.54,3.69
							c-0.85,1.8-2.16,3.18-3.88,4.19c-0.67,0.39-1.32,0.85-1.85,1.4c-1.82,1.93-1.55,4.38,0.54,5.99c1.34,1.02,2.91,1.53,4.47,2.02
							c2.02,0.62,3.75,1.61,4.69,3.6c1.23,2.59,3.33,3.59,6.1,3.54c2.45-0.03,4.82,0.51,6.97,1.73c1.73,0.98,3.34,0.82,4.95-0.09
							c3.11-1.77,6.2-3.6,9.3-5.37c1.6-0.92,2.41-2.2,2.11-4.06c-0.37-2.33,0.39-4.38,1.53-6.34c0.84-1.41,1.63-2.86,2.44-4.28
							c0.59-1.06,0.93-2.19,0.47-3.34c-1.11-2.74-2.81-5.07-5.11-6.93c-0.82-0.67-1.86-0.98-2.99-0.96
							C-55.22,238.36-57.25,238.32-59.65,238.32z"/>
						<path d="M198.2,365.15c-2.7,0.05-5.24-0.58-7.57-1.83c-5.57-3.03-11.37-3.34-17.46-1.95c-2.63,0.6-5.36,0.85-8.04,1.19
							c-1.86,0.24-3.68-0.06-5.41-0.72c-2.35-0.9-3.29-2.49-3.08-4.98c0.01-0.09,0.03-0.18,0.03-0.3
							c0.51-4.34,6.75-11.77,10.94-13.1c1.82-0.58,3.62-0.52,5.44-0.09c3.59,0.85,7.23,1.35,10.9,1.69
							c1.63,0.16,3.35,0.45,4.93,0.11c3.58-0.77,6.72,0.22,9.8,1.7c1.74,0.84,3.47,1.06,5.36,0.85c2.22-0.24,4.44-0.45,6.66-0.56
							c2.27-0.11,4.45,0.33,6.45,1.44c2.78,1.57,3.58,4.93,1.36,7.13C212.87,361.28,206.24,364.81,198.2,365.15z M215.36,352.67
							c-3.45-1.41-6.34-1.01-9.21-0.59c-3.34,0.48-6.52,0.43-9.61-1.18c-1.8-0.93-3.71-1.6-5.82-1.53
							c-6.21,0.22-12.36-0.34-18.44-1.63c-2.07-0.43-4.15-0.22-5.7,1.36c-1.83,1.86-3.5,3.89-4.78,6.2
							c-1.15,2.07-0.76,2.67,1.7,2.79c2.34,0.12,4.61-0.47,6.91-0.79c4.56-0.65,9.08-1.97,13.78-0.96c2.37,0.51,4.64,1.31,6.86,2.28
							c1.58,0.72,3.12,1.61,4.87,1.8C203.56,361.25,209.45,357.75,215.36,352.67z"/>
						<path d="M-140.14,276.9c0.26-3.58,1.61-7.89,6.69-10.14c2.07-0.92,3.59-2.59,4.78-4.52c1.49-2.39,3.71-3.94,6.2-5.06
							c2.86-1.29,5.32-0.5,6.79,1.95c1.1,1.86,1.11,3.71-0.3,5.39c-1.06,1.26-1.57,2.61-1.41,4.26c0.28,2.88-1.34,4.51-3.81,5.45
							c-1.53,0.58-3.11,1.01-4.61,1.69c-1.73,0.77-2.76,1.99-3.37,3.72c-0.5,1.46-1.11,2.87-1.78,4.27
							c-0.51,1.06-1.26,1.94-2.32,2.54c-1.43,0.81-2.42,0.68-3.69-0.39C-139.41,284.01-140.28,281.35-140.14,276.9z M-135.06,281.36
							c1.24-1.19,1.36-2.62,1.86-3.84c1.02-2.54,2.67-4.4,5.21-5.54c1.51-0.68,3.01-1.29,4.6-1.73c1-0.28,1.85-0.72,1.7-1.95
							c-0.24-2.27,0.5-4.18,1.97-5.86c0.34-0.39,0.51-0.89,0.18-1.32c-0.43-0.59-1.02-0.37-1.57-0.12
							c-1.91,0.85-3.37,2.22-4.48,3.97c-1.46,2.34-3.39,4.18-5.78,5.57C-135.17,272.78-136.56,276.61-135.06,281.36z"/>
						<path d="M188.67,376.29c2.95,0.26,6.16,0.22,9.3,0.82c5.41,1.04,9.22,4.34,11.92,8.94c2.08,3.55,1.29,6.96-1.95,9.51
							c-2.78,2.2-5.96,3.62-9.41,4.3c-4.04,0.81-6.74-0.77-8.16-4.68c-0.52-1.44-0.94-2.96-1.19-4.47
							c-0.52-3.18-2.02-5.57-4.94-7.06c-1.35-0.68-2.27-1.76-2.57-3.33c-0.42-2.22,0.25-3.33,2.44-3.75
							c0.37-0.08,0.76-0.12,1.15-0.14C186.31,376.38,187.37,376.34,188.67,376.29z M188.48,380.64c3.63,2.74,4.61,6.63,5.39,10.64
							c0.14,0.76,0.41,1.49,0.67,2.22c0.68,1.78,1.14,2.12,3.04,1.87c2.95-0.37,5.53-1.69,7.81-3.55c1.19-0.98,1.44-2.24,0.54-3.64
							c-2.07-3.22-4.63-5.91-8.58-6.84C194.49,380.68,191.58,380.93,188.48,380.64z"/>
						<path d="M240.16,418.41c0.26,3.67-3.05,7.42-6.52,6.04c-2.62-1.06-5.31-0.76-7.85,0.52c-1.06,0.52-2.17,0.79-3.37,0.64
							c-3.28-0.43-4.94-3.47-3.5-6.45c0.79-1.61,2.07-2.79,3.54-3.77c2.5-1.65,5.16-3.03,7.85-4.36c1.44-0.72,2.96-0.81,4.53-0.67
							c1.93,0.17,3.37,1.11,4.01,2.88C239.52,415.17,239.86,417.18,240.16,418.41z M223.59,420.68c0.28,0.25,0.59,0.18,0.84,0.05
							c3.01-1.53,6.2-1.35,9.38-0.94c2.34,0.3,2.49,0.2,1.93-2.1c-0.06-0.28-0.18-0.54-0.26-0.82c-0.68-2.52-1.26-2.84-3.63-1.66
							c-2.33,1.18-4.56,2.53-6.81,3.87C224.39,419.44,223.7,419.84,223.59,420.68z"/>
						<path class="st0" d="M309.94,451.26c2.1,0.39,4.19,1.06,6.15,2.2c3.76,2.2,7.3,4.82,11.48,6.22
							c9.56,3.21,18.71,7.43,27.94,11.43c8.46,3.67,16.44,8.31,22.93,15.06c2.07,2.16,4.09,4.45,5.73,6.93
							c1.63,2.45,2.41,5.27,1.38,8.27c-0.41,1.19-0.81,2.39-0.67,3.68c0.24,2.17,1.73,3.26,3.84,2.76c0.18-0.05,0.37-0.12,0.56-0.18
							c3.38-1.01,3.68-0.89,4.8,2.41c0.5,1.46,0.82,2.99,1.19,4.48c0.75,3,2.19,5.58,4.61,7.56c3.08,2.5,6.03,5.16,9.58,7.05
							c1.77,0.93,1.86,1.46,0.81,3.2c-2.28,3.79-5.66,6.47-9.59,8.19c-6.33,2.78-12.24,6.24-18.08,9.85
							c-3.64,2.25-7.76,3.45-12.08,3.79c-1.83,0.14-3.67,0.31-5.49,0.5c-2.24,0.24-3.97,1.41-5.48,3c-1.26,1.32-2.39,2.69-4.43,3.08
							c-1.4,0.26-2.49,1.44-3.33,2.69c-1.52,2.22-3.54,3.79-6,4.87c-3.67,1.61-5.87,4.69-7.51,8.16c-2.1,4.43-4.82,8.38-8.19,11.92
							c-0.6,0.64-1.24,1.23-1.87,1.83c-0.59,0.56-1.24,0.64-1.73-0.08c-1.77-2.66-4.19-4.21-7.35-4.69c-0.9-0.14-1.44-0.94-2-1.61
							c-0.82-0.98-1.8-1.77-3.01-2.2c-5.83-2.11-8.27-6.74-8.9-12.45c-0.59-5.32-0.03-10.64,1.29-15.84
							c0.79-3.16,0.77-6.13-1.4-8.82c-0.9-1.1-0.64-2.45-0.42-3.64c0.58-3.08-0.25-5.78-1.9-8.27c-1.49-2.27-2.15-4.74-2.24-7.4
							c-0.12-3.89-1.32-7.4-3.67-10.52c-1.23-1.63-2.46-3.22-3.33-5.11c-0.62-1.36-0.87-2.75-0.81-4.23
							c0.06-1.57,0.51-2.81,2.15-3.42c1.65-0.59,2.41-1.94,2.53-3.59c0.11-1.36,0.84-2,1.99-2.57c1.31-0.64,2.46-1.52,3.71-2.27
							c3.18-1.9,4.72-4.77,4.95-8.38c0.12-2.02,1.07-3.5,2.87-4.39c3.26-1.63,4.22-4.13,2.62-8.04c-1.61-3.97-3.89-7.57-6.05-11.24
							c-0.79-1.34-1.61-2.67-2.16-4.11C304.16,454.25,306.48,451.21,309.94,451.26z"/>
						<path class="st0" d="M231.33,367.85c1.23-0.09,2.15,0.59,2.95,1.48c1.11,1.24,1.95,2.66,2.66,4.14
							c2.78,5.83,6.15,7.03,13.8,5.86c1.6-0.25,3.16-0.9,4.7-1.46c2.52-0.9,4.97-0.79,7.31,0.42c3.62,1.86,7.15,3.77,10.23,6.54
							c3.13,2.81,6.89,4.63,10.93,5.8c1.21,0.35,2.44,0.67,3.47,1.41c2.41,1.73,2.74,4.22,0.87,6.52c-0.62,0.76-1.4,1.34-2.24,1.83
							c-4.85,2.88-9.83,5.39-15.53,6.16c-2.71,0.37-5.15,1.55-7.43,3.09c-2.71,1.82-5.53,2.45-8.77,1.11
							c-2.54-1.04-4.28-2.58-5.02-5.19c-0.64-2.33-1.14-4.69-1.76-7.03c-0.59-2.25-1.34-4.43-2.7-6.37
							c-1.77-2.49-4.1-3.88-7.13-3.69c-2.12,0.14-3.72-0.62-5.23-1.97c-1.44-1.29-3.03-2.41-4.52-3.64
							c-3.42-2.87-4.38-6.47-2.91-10.66C225.96,369.65,228.56,367.84,231.33,367.85z"/>
						<path class="st0" d="M64.17,307.9c1-0.52,2.08-0.2,3.12-0.33c4.8-0.58,8.91-2.45,12-6.29c1.09-1.35,2.16-2.74,3.28-4.06
							c0.62-0.73,1.29-1.46,2.05-2.03c2.2-1.69,3.98-1.31,5.03,1.27c0.89,2.19,2.15,4.1,3.42,6.04c1.48,2.22,3.38,3.97,5.54,5.46
							c2.17,1.51,3.42,3.37,3.04,6.1c-0.26,1.93,0.37,3.6,1.52,5.14c0.87,1.17,1.61,2.41,2.45,3.6c2.02,2.88,3.35,3.04,6.1,0.7
							c0.9,0.25,1,1.11,1.19,1.78c1.21,3.79,3.39,6.91,6.38,9.51c0.65,0.56,1.93,1.18,1.01,2.29c-0.84,1.02-1.99,0.58-2.86-0.16
							c-2.27-1.9-4.3-1.46-6.55,0.17c-2.76,2.02-4.15,1.78-6.88-0.56c-1.85-1.6-3.89-2.52-6.39-1.93c-1.63,0.39-3.09,0.05-4.35-1.02
							c-2.11-1.82-4.3-1.87-6.72-0.65c-2,1.01-4.15,1.51-6.45,1.43c-1.21-0.05-2.07-0.39-2.39-1.61c-1.4-5.21-4.9-9.11-8.1-13.26
							C67.02,316.05,64.27,312.59,64.17,307.9z"/>
						<path class="st0" d="M-59.65,238.32c2.39,0,4.43,0.03,6.46-0.01c1.11-0.01,2.16,0.28,2.99,0.96c2.29,1.86,3.98,4.21,5.11,6.93
							c0.47,1.15,0.14,2.29-0.47,3.34c-0.81,1.43-1.61,2.87-2.44,4.28c-1.15,1.97-1.91,4.02-1.53,6.34c0.3,1.86-0.51,3.16-2.11,4.06
							c-3.11,1.77-6.17,3.6-9.3,5.37c-1.61,0.92-3.21,1.07-4.95,0.09c-2.15-1.21-4.52-1.77-6.97-1.73c-2.78,0.05-4.87-0.94-6.1-3.54
							c-0.94-1.99-2.67-2.99-4.69-3.6c-1.57-0.48-3.13-1-4.47-2.02c-2.1-1.61-2.36-4.06-0.54-5.99c0.52-0.56,1.18-1.01,1.85-1.4
							c1.73-1.01,3.04-2.41,3.88-4.19c0.77-1.65,2.02-2.7,3.54-3.69C-73.26,239.58-66.62,237.69-59.65,238.32z"/>
						<path class="st0" d="M215.36,352.67c-5.88,5.1-11.78,8.58-19.42,7.76c-1.76-0.18-3.29-1.09-4.87-1.8
							c-2.22-1-4.48-1.78-6.86-2.28c-4.7-1.01-9.21,0.31-13.78,0.96c-2.29,0.33-4.56,0.92-6.91,0.79c-2.46-0.14-2.86-0.73-1.7-2.79
							c1.27-2.29,2.95-4.34,4.78-6.2c1.55-1.58,3.63-1.8,5.7-1.36c6.08,1.29,12.24,1.85,18.44,1.63c2.11-0.08,4.04,0.59,5.82,1.53
							c3.09,1.61,6.27,1.66,9.61,1.18C209.01,351.66,211.89,351.25,215.36,352.67z"/>
						<path class="st0" d="M-135.06,281.36c-1.49-4.77-0.11-8.58,3.72-10.82c2.37-1.4,4.31-3.22,5.78-5.57
							c1.1-1.76,2.57-3.12,4.48-3.97c0.54-0.25,1.14-0.45,1.57,0.12c0.33,0.43,0.14,0.93-0.18,1.32c-1.48,1.68-2.2,3.6-1.97,5.86
							c0.12,1.24-0.73,1.68-1.7,1.95c-1.58,0.43-3.09,1.06-4.6,1.73c-2.53,1.14-4.18,3-5.21,5.54
							C-133.7,278.74-133.82,280.17-135.06,281.36z"/>
						<path class="st0" d="M188.48,380.64c3.11,0.28,6.03,0.01,8.86,0.7c3.97,0.94,6.52,3.62,8.58,6.84
							c0.9,1.41,0.65,2.67-0.54,3.64c-2.28,1.86-4.86,3.17-7.81,3.55c-1.91,0.25-2.36-0.09-3.04-1.87
							c-0.28-0.72-0.52-1.46-0.67-2.22C193.1,387.27,192.11,383.38,188.48,380.64z"/>
						<path class="st0" d="M223.59,420.68c0.11-0.82,0.82-1.24,1.44-1.61c2.24-1.34,4.48-2.69,6.81-3.87
							c2.36-1.19,2.95-0.85,3.63,1.66c0.08,0.28,0.18,0.54,0.26,0.82c0.56,2.29,0.42,2.41-1.93,2.1c-3.18-0.41-6.37-0.59-9.38,0.94
							C224.18,420.85,223.87,420.93,223.59,420.68z"/>
					</g>
				</g>
			</g>
		</g>
	</g>
</g>
<g id="Layer_5">
	<line class="st7" x1="84.13" y1="317.63" x2="84.13" y2="213.84"/>
	<circle class="st8" cx="84.13" cy="207.53" r="9.65"/>
	<circle class="st9" cx="81.86" cy="206.68" r="4.26"/>
</g>
</svg>
