<?xml version="1.0" encoding="utf-8"?>
<!-- Generator: Adobe Illustrator 26.2.1, SVG Export Plug-In . SVG Version: 6.00 Build 0)  -->
<svg version="1.1" id="Layer_3" xmlns="http://www.w3.org/2000/svg" xmlns:xlink="http://www.w3.org/1999/xlink" x="0px" y="0px"
	 viewBox="0 0 500 304.1" style="enable-background:new 0 0 500 304.1;" xml:space="preserve">
<style type="text/css">
	.st0{fill:#FFFFFF;}
	.st1{fill:#2A2A2A;stroke:#2A2A2A;stroke-width:2.9588;stroke-miterlimit:10;}
</style>
<g id="Layer_3_00000092445616626387622260000003716873919011430586_">
	<g>
		<g>
			<g>
				<g>
					<g>
						<g>
							<g>
								<path d="M256.6,17.4c10.3,0,21.1,1.8,33.1,5.5c24.6,7.7,46.9,20,66.4,36.5c21.8,18.5,37.5,40.3,46.5,64.9
									c3,8.2,9.5,9.4,13,9.4c2.5,0,4.9-0.6,7.1-1.6c0.8-0.4,1-0.6,1.1-0.7c0,0,0.1-0.2,0-0.8c-1-21,12.6-37,33.9-40
									c2.6-0.4,5.3-0.5,8.4-0.5c3.3,0,6.6,0.2,9.3,0.4c2.9,0.2,5.1,2,6,4.9l1.1,3.8l-3.6,1.8c-1.1,0.5-2.2,1.1-3.3,1.6
									c-2.3,1.1-4.5,2.1-6.6,3.3c-7.1,4.1-11,9.9-12.1,17.7c-0.2,1.6,0.1,3.4,0.4,5.4c0.2,0.9,0.3,1.9,0.4,2.8
									c2.7,23.1-12,41.8-35,44.7c-2.4,0.3-4.6,0.4-6.8,0.4c-5.4,0-10.2-1-14.6-2.9c0,0.1,0,0.1-0.1,0.2c-1.3,4.2-2.6,8.2-4,12.2
									c-2,5.6-4.2,11.4-6.9,17.8c-15.5,38-56.9,69.7-86.4,77.2c-11.7,3-23.5,4.5-35.1,4.5c-11.4,0-22.9-1.5-34.2-4.3
									c-24.4-6.2-50-15.9-80.7-30.4c-26.6-12.6-50.5-24.3-73-38.8c-1.3-0.9-2.1-1-2.8-1c-0.6,0-1.3,0.1-2.1,0.4
									c-11.6,3.5-22.1,6.4-33.2,7.7c-1.5,0.2-2.9,0.3-4.2,0.3c-9.8,0-16.2-4.7-20.1-14.9C14.3,194,13.3,182,15.4,167
									c1.1-7.7,5.6-13.6,13.2-17.1c3.6-1.6,7.2-2.6,10.8-3.5c-3.2-0.9-6.6-1.9-10.1-3.1c-11.4-3.6-14.9-8.6-14.5-20.6
									c0-1,0.1-2,0.1-2.9c0.2-6,0.4-12.2,1.8-18.3c2.9-13,11.2-19.9,24.2-19.9l0.5,0c8.6,0.1,17,1.7,25,3.3
									c1.3,0.2,2.5,0.5,3.8,0.7c1.3,0.3,2.5,0.4,3.5,0.4c2.3,0,4.1-0.6,6.2-2.2c9.5-6.9,20.2-12.1,29.4-16.4
									c7.5-3.5,15.1-7.1,22.6-10.6c14.6-6.9,29.8-14,44.7-20.9c23.1-10.6,48.2-16.8,74.6-18.4C253.1,17.5,254.9,17.4,256.6,17.4z
									 M415.2,152.1c-13,0-23.6-7.5-29-20.6c-5.5-13.1-11-23.4-17.6-32.4c-4.9-6.7-10.6-12.4-16.6-18.5l-1.8-1.9
									C339.5,67.9,326.9,60,316,53.8c-8.8-5-18.1-8.6-26-11.5c-12.4-4.5-23.8-6.7-35.1-6.7l-0.4,0c-4.3,0-8.6,0.6-13.2,1.3
									c-1.7,0.2-3.3,0.5-5,0.7c-9.1,1.2-18.2,3.1-27.8,6c-17.5,5.2-34.3,13.2-50.6,21l-3.8,1.8c-4,1.9-8,3.7-12,5.5
									c-5.8,2.6-11.8,5.4-17.6,8.3c-3.2,1.6-6.4,3.1-9.6,4.5c-5.4,2.5-10.6,4.8-15.5,7.7c-1.6,0.9-3.1,1.9-4.7,2.9
									c-4,2.4-8,5-12.4,7c-0.2,0.1-0.4,0.2-0.6,0.3c-1.1,0.6-2.7,1.6-4.8,1.6c-0.9,0-1.8-0.2-2.6-0.5c-1.3-0.5-2.8-0.6-4.7-0.7
									c-1.1-0.1-2.3-0.1-3.5-0.3c-2.1-0.3-4.2-0.7-6.3-1c-5.8-1-11.3-1.9-16.9-1.9c-0.6,0-1.2,0-1.7,0c-5,0.2-5.3,0.5-6.7,5.1
									c-1.1,3.8-1.3,8.1-1.4,12.3l-0.1,1.8c-0.1,1.6-0.2,3-0.2,4.1c0,0.7-0.1,1.5-0.1,2.1c0.8,0.3,1.9,0.6,3,0.9
									c1,0.3,2.2,0.6,3.5,1c6.1,1.9,12.5,3.4,18.6,4.9c6.3,1.5,12.9,3.1,19.3,5.1c1.8,0.6,7.3,2.3,7.8,8.4c0.1,1.8,0,7.8-7.7,9.9
									l-0.1,0c-0.5,0.2-1.3,0.6-2.3,0.7c-3.2,0.4-6.5,1.3-9.9,2.3c-1.6,0.5-3.3,1-5,1.4s-3.3,0.8-5,1.2
									c-5.3,1.3-10.9,2.7-16.1,4.3c-5.5,1.7-5.9,2.3-6,8.5c0,1,0,1.9,0,2.9c0,3.2-0.1,6.1,0.1,9.1c0.2,4.9,1.3,9.4,3.2,13.8
									c0.9,2.1,1.7,2.1,2.4,2.1c0.3,0,0.6,0,0.9-0.1c1.9-0.3,3.8-0.6,5.7-0.9c1.5-0.3,3.1-0.5,4.6-0.8c5.2-0.8,10.3-2.3,15.6-3.9
									c2.9-0.9,6-1.8,9-2.6c1.4-0.4,2.7-0.5,3.9-0.5c2.4,0,4.7,0.7,7,2.1l0.5,0.3c8,4.8,16.3,9.8,24.6,14
									c4.2,2.1,8.4,4.2,12.6,6.4c22.5,11.4,45.8,23.2,69.6,32.7c15.7,6,30.3,11,44.8,15c7.4,2,14.8,2.7,22.7,3.5
									c3.2,0.3,6.5,0.6,9.9,1c3.9-1.2,7.6-1.3,11.3-1.3c2.3,0,4.5-0.1,6.5-0.4c12.2-1.9,23.8-6.2,35.4-13.1
									c6-3.6,11.3-8,16.9-12.8c1.3-1.1,2.6-2.2,3.9-3.3c6.2-5.2,11.8-11.1,17-18c11-14.6,17.2-31.9,21.7-46.9
									c1.7-5.5,3.1-11.1,4.4-16.6l0.2-0.8c1.1-4.6,3.6-7,7.3-7.2c0.2,0,0.3,0,0.5,0c3.3,0,6.3,1.8,8,4.7c0.6,1,1.4,1.9,2.4,3
									c1.6,1.7,3.2,2.7,4.5,2.8l0.1,0c2.5,0.2,4.8,0.3,7.2,0.3c2.8,0,5.2-0.2,7.3-0.7c4-0.9,7.1-2.7,9.5-5.6
									c3.4-4.2,5.3-7.9,5.8-11.6c-0.5,0.7-1.1,1.5-1.7,2.2c-5.7,6-13,9.2-21.5,9.6C416.3,152,415.8,152.1,415.2,152.1z"/>
								<path class="st0" d="M269,281.2c-11,0-22-1.4-33.1-4.2c-27.7-7.1-54-17.9-79.8-30.1c-24.7-11.7-49.4-23.6-72.5-38.5
									c-1.8-1.2-3.5-1.7-5.3-1.7c-1.1,0-2.2,0.2-3.4,0.6c-10.6,3.2-21.3,6.3-32.4,7.5c-1.3,0.1-2.5,0.2-3.7,0.2
									c-7.8,0-12.4-3.5-15.6-11.9c-4.4-11.6-4.5-23.5-2.8-35.6c0.9-6.4,4.6-10.7,10.4-13.4c4.9-2.3,10.2-3.3,15.4-4.5
									c3.7-0.9,7.4-1.7,11.1-2.6c-0.5-1.8-1.8-1.6-2.8-1.9c-7.9-1.8-15.8-4-23.5-6.5c-9.3-3-11.5-6.1-11.1-15.8
									c0.3-6.8,0.3-13.7,1.8-20.4c2.4-10.7,8.7-16.2,19.5-16.2c0.1,0,0.3,0,0.4,0c9.5,0.1,18.7,2.2,28,3.9c1.5,0.3,3,0.5,4.3,0.5
									c3.1,0,6-0.9,9-3.1c8.8-6.4,18.7-11.3,28.6-15.9c22.5-10.5,44.8-21.1,67.3-31.5c23.1-10.6,47.5-16.4,72.9-18
									c1.7-0.1,3.3-0.2,5-0.2c10.8,0,21.3,2.1,31.6,5.3c24,7.5,45.6,19.3,64.8,35.5c20.3,17.2,35.9,37.9,45.1,62.9
									c3.3,8.9,10.4,12.5,17.5,12.5c3.2,0,6.4-0.8,9.2-2.1c2.6-1.3,3.9-2.8,3.8-6c-0.9-18.5,11-32.4,29.8-35
									c2.6-0.4,5.1-0.5,7.7-0.5c3,0,6,0.2,8.9,0.4c0.8,0,1.4,0.3,1.8,1.5c-3.4,1.6-6.9,3.1-10.2,5c-8.2,5.1-13.2,12.1-14.5,21.6
									c-0.4,3.2,0.4,6.3,0.8,9.4c2.4,20.5-10.3,36.9-30.8,39.4c-2.1,0.3-4.2,0.4-6.2,0.4c-6.1,0-11.9-1.3-17.4-5.2
									c-2.1,6.3-3.8,12.1-5.8,17.9c-2.1,5.9-4.4,11.8-6.8,17.6c-15.2,37.4-56.3,67.5-83.1,74.4C291.5,279.7,280.3,281.2,269,281.2
									 M395.1,152.2c1.6,0,3.1,0.9,3.9,2.3c0.8,1.5,2,2.7,3.1,3.9c2.1,2.2,4.8,4,7.6,4.2c2.5,0.2,5.1,0.3,7.6,0.3
									c2.8,0,5.6-0.2,8.4-0.8c5-1.1,9-3.4,12.1-7.2c4.7-5.7,8-12.2,6.8-19.8c-1.1-7.4-1.7-14.6,1.1-21.8c0.3-0.7,0.2-1.4-0.3-2.1
									c-0.3-0.1-0.5-0.2-0.8-0.2c-0.5,0-0.9,0.2-1.2,0.6c-3.5,4.4-6.9,8.7-6.3,14.8c0.2,2.2-0.1,4.4,0.1,6.7
									c0.1,2.4-0.7,4.2-2.4,5.9c-5,5.2-11.2,7.8-18.3,8.1c-0.5,0-1,0-1.4,0c-11.3,0-20-6.6-24.6-17.7
									c-4.9-11.7-10.6-23.1-18.2-33.4c-5.6-7.7-12.3-14.2-18.9-20.9c-10.3-10.5-22.5-18.4-35.2-25.7c-8.5-4.9-17.5-8.5-26.8-11.8
									c-11.9-4.3-24.1-6.9-36.7-7c-0.1,0-0.3,0-0.4,0c-6.3,0-12.5,1.2-18.7,2c-9.7,1.2-19.2,3.4-28.5,6.2
									C187.9,44.7,170,53.4,152,62c-9.8,4.7-19.9,9-29.6,13.8C114,80,105.2,83.3,97,88.2c-5.6,3.3-10.9,6.9-16.8,9.7
									c-1.1,0.5-2.2,1.5-3.4,1.5c-0.2,0-0.5,0-0.7-0.1c-3-1.2-6.2-0.9-9.3-1.4C58.9,96.8,51,95,43,95c-0.6,0-1.3,0-1.9,0
									c-6.8,0.2-9.1,1.8-11.1,8.4c-1.5,5-1.5,10.3-1.7,15.3c-0.4,11.2-2.3,9.3,9.5,12.9c12.5,3.8,25.4,6.1,37.9,10
									c2.4,0.7,4.2,1.7,4.4,4.2c0.2,2.9-1.7,4.3-4.3,4.9c-0.5,0.1-1,0.5-1.6,0.5c-5.3,0.6-10.4,2.5-15.5,3.8
									c-7.1,1.8-14.3,3.4-21.4,5.6c-7.7,2.4-9.3,4.9-9.3,13c0,4.1-0.1,8.1,0,12.2c0.2,5.4,1.4,10.5,3.6,15.5
									c1.4,3.3,3.6,4.9,6.7,4.9c0.5,0,1,0,1.6-0.1c3.4-0.5,6.9-1.1,10.3-1.7c8.6-1.4,16.7-4.4,25.1-6.6c1-0.3,1.9-0.4,2.8-0.4
									c1.5,0,2.9,0.4,4.5,1.4c8.4,5,16.8,10.1,25.5,14.5c27.2,13.7,54.2,27.9,82.6,39.2c14.7,5.9,29.7,11.1,45,15.3
									c11.3,3.1,22.9,3.3,34.3,4.8c5.9-2.1,12-0.9,18.1-1.9c13.4-2.1,25.6-6.9,37.1-13.7c7.8-4.6,14.5-10.7,21.4-16.5
									c6.8-5.6,12.6-12,17.8-18.8c10.9-14.5,17.3-31.2,22.5-48.4c1.8-5.8,3.2-11.7,4.7-17.6c0.4-1.5,0.9-3.5,2.9-3.6
									C395,152.2,395.1,152.2,395.1,152.2 M269.1,290.7c12,0,24.2-1.6,36.3-4.7c30.6-7.8,73.6-40.7,89.6-80.1
									c2.6-6.4,4.9-12.3,6.9-18c0.9-2.6,1.8-5.2,2.6-7.8c3.6,1,7.5,1.5,11.6,1.5c2.3,0,4.7-0.2,7.4-0.5
									c25.7-3.1,42.1-24.2,39.1-49.9c-0.1-1.1-0.3-2.1-0.4-3c-0.3-1.6-0.5-3.1-0.4-4c0.9-6.3,4-10.9,9.8-14.3
									c1.9-1.1,4-2.1,6.2-3.1c1.1-0.5,2.2-1.1,3.4-1.6l7.1-3.5L486,94c-1.4-4.9-5.3-8-10.3-8.4c-2.8-0.2-6.1-0.4-9.6-0.4
									c-3.3,0-6.2,0.2-9,0.6c-11.6,1.6-21.3,6.7-28.2,14.8c-6.5,7.6-9.8,17.1-9.8,27.7c-1.1,0.3-2.3,0.5-3.4,0.5
									c-4.1,0-7-2.1-8.6-6.3c-9.3-25.3-25.5-47.8-47.9-66.9c-20-16.9-42.9-29.5-68.1-37.4c-12.4-3.9-23.7-5.8-34.5-5.8
									c-1.9,0-3.8,0.1-5.6,0.2c-26.9,1.7-52.6,8-76.2,18.8c-15,6.9-30.1,14-44.7,20.9C122.5,56,115,59.5,107.4,63
									c-9.4,4.4-20.2,9.7-30.1,16.8c-1.4,1-2.3,1.3-3.4,1.3c-0.7,0-1.5-0.1-2.6-0.3c-1.3-0.2-2.5-0.5-3.8-0.7
									c-8.3-1.6-16.9-3.3-25.9-3.4c-0.2,0-0.4,0-0.5,0c-15.2,0-25.5,8.4-28.8,23.6c-1.5,6.6-1.7,13-1.9,19.2c0,1-0.1,1.9-0.1,2.9
									c-0.2,5.2,0.1,11.2,3.7,16.4c2.8,3.9,6.7,6.2,10.7,7.7c-7.8,4.3-12.5,11-13.7,19.6c-2.2,15.8-1.1,28.6,3.4,40.3
									c4.6,12.1,12.7,18,24.5,18c1.5,0,3.1-0.1,4.8-0.3c11.5-1.3,22.2-4.3,34-7.9c0.3-0.1,0.5-0.1,0.6-0.1c0.1,0,0.2,0.1,0.3,0.2
									c22.6,14.8,46.7,26.5,73.4,39.2c31,14.7,56.9,24.4,81.5,30.7C245.4,289.2,257.3,290.7,269.1,290.7L269.1,290.7z
									 M388.6,144.5c-2.4,1.5-4.6,4.2-5.8,9.1l-0.2,0.7c-1.4,5.7-2.8,11.1-4.4,16.4c-4.4,14.6-10.4,31.4-21,45.4
									c-5,6.7-10.4,12.3-16.3,17.3c-1.3,1.1-2.6,2.2-4,3.3c-5.4,4.6-10.6,9-16.2,12.3c-11.1,6.6-22.1,10.7-33.7,12.5
									c-1.7,0.3-3.8,0.3-5.9,0.4c-3.5,0.1-7.4,0.2-11.6,1.2c-3.1-0.4-6.1-0.6-9-0.9c-7.7-0.7-15-1.4-21.9-3.3
									c-14.4-4-28.8-8.9-44-15c-23.6-9.4-46.8-21.2-69.2-32.5c-4.2-2.1-8.4-4.3-12.6-6.4c-8.2-4.1-16.4-9.1-24.3-13.8l-0.6-0.3
									c-3-1.8-6.1-2.7-9.4-2.7c-1.6,0-3.3,0.2-5.1,0.7c-3.2,0.8-6.2,1.7-9.2,2.6c-5.2,1.5-10.1,3-15,3.8c-1.5,0.2-3.1,0.5-4.7,0.8
									c-1.4,0.2-2.8,0.5-4.2,0.7c-1.4-3.5-2.2-7.2-2.4-11c-0.1-2.9-0.1-5.8,0-8.9c0-1,0-1.9,0-2.9c0-1.6,0.1-2.6,0.2-3.1
									c0.4-0.2,1.2-0.5,2.4-0.9c5.2-1.6,10.4-2.9,15.9-4.2c1.7-0.4,3.3-0.8,5-1.2c1.8-0.5,3.5-1,5.2-1.4c3.2-0.9,6.3-1.8,9.1-2.2
									c1.6-0.2,2.8-0.7,3.4-0.9c8.6-2.5,11.3-9.2,10.8-14.7c-0.3-4.3-2.5-9.9-11.1-12.5c-6.6-2-13.2-3.6-19.6-5.2
									c-6.4-1.5-12.4-3-18.3-4.8c-1.1-0.3-2.1-0.6-2.9-0.9c0-0.8,0.1-1.6,0.1-2.6c0-0.6,0-1.2,0.1-1.8c0.1-4.1,0.3-7.9,1.2-11.1
									c0.2-0.7,0.4-1.2,0.5-1.5c0.4,0,1-0.1,1.8-0.1c0.5,0,1,0,1.6,0c5.2,0,10.5,0.9,16.1,1.8c2.1,0.3,4.2,0.7,6.4,1
									c1.4,0.2,2.7,0.3,3.8,0.4c1.2,0.1,2.6,0.2,3.1,0.4c1.4,0.6,2.9,0.9,4.4,0.9c3.4,0,5.9-1.5,7.3-2.3c0.1-0.1,0.2-0.1,0.3-0.2
									c4.6-2.2,8.7-4.8,12.8-7.2c1.6-1,3.1-1.9,4.6-2.8c4.7-2.8,9.7-5.1,15-7.5c3.2-1.4,6.5-2.9,9.8-4.6
									c5.7-2.8,11.6-5.6,17.4-8.2c3.9-1.8,8-3.7,12-5.6l3.8-1.8c16.9-8,32.8-15.6,49.9-20.7c9.4-2.8,18.2-4.7,27-5.8
									c1.7-0.2,3.4-0.5,5.1-0.7c4.4-0.6,8.5-1.3,12.5-1.3l0.3,0c10.7,0.1,21.7,2.2,33.5,6.5c7.8,2.8,16.8,6.3,25.3,11.1
									c10.6,6.1,22.8,13.7,33.1,24.1l1.9,1.9c5.9,6,11.5,11.6,16.1,18c6.3,8.7,11.8,18.7,17.1,31.5
									C383.6,137.6,385.9,141.3,388.6,144.5L388.6,144.5z"/>
							</g>
							<path class="st1" d="M445.5,111.3c0.5,0.6,0.6,1.4,0.3,2.1c-2.8,7.1-2.2,14.4-1.1,21.8c1.2,7.6-2.1,14.1-6.8,19.8
								c-3.1,3.8-7.1,6.1-12.1,7.2c-5.4,1.2-10.7,0.8-16,0.5c-2.9-0.2-5.5-2-7.6-4.2c-1.1-1.2-2.3-2.4-3.1-3.9
								c-0.9-1.5-2.5-2.4-4.2-2.3c-2,0.1-2.5,2.1-2.9,3.6c-1.5,5.9-2.9,11.8-4.7,17.6c-5.2,17.2-11.5,33.9-22.5,48.4
								c-5.2,6.9-11,13.2-17.8,18.8c-7,5.8-13.6,11.9-21.4,16.5c-11.5,6.8-23.7,11.6-37.1,13.7c-6,0.9-12.2-0.2-18.1,1.9
								c-11.5-1.5-23-1.6-34.3-4.8c-15.3-4.3-30.3-9.4-45-15.3c-28.4-11.3-55.4-25.6-82.6-39.2c-8.7-4.4-17.1-9.5-25.5-14.5
								c-2.5-1.5-4.6-1.7-7.3-1c-8.4,2.1-16.5,5.2-25.1,6.6c-3.4,0.5-6.9,1.2-10.3,1.7c-4,0.6-6.6-1-8.3-4.8
								c-2.2-5-3.4-10.1-3.6-15.5c-0.2-4.1-0.1-8.1,0-12.2c0-8,1.6-10.6,9.3-13c7-2.2,14.2-3.8,21.4-5.6c5.2-1.3,10.2-3.2,15.5-3.8
								c0.5-0.1,1-0.4,1.6-0.5c2.6-0.7,4.5-2,4.3-4.9c-0.2-2.5-2.1-3.5-4.4-4.2c-12.5-3.8-25.4-6.1-37.9-10
								c-11.8-3.6-10-1.7-9.5-12.9c0.2-5,0.2-10.3,1.7-15.3c2-6.7,4.3-8.2,11.1-8.4c8.7-0.3,17.2,1.6,25.7,2.9
								c3.1,0.4,6.3,0.1,9.3,1.4c1.4,0.6,2.8-0.7,4.1-1.3c5.8-2.8,11.2-6.4,16.8-9.7c8.2-4.8,17-8.2,25.4-12.4
								c9.7-4.9,19.8-9.2,29.6-13.8c18-8.6,35.9-17.3,55.1-23.1c9.4-2.8,18.8-4.9,28.5-6.2c6.4-0.8,12.7-2.1,19.2-2
								c12.6,0.1,24.8,2.8,36.7,7c9.2,3.3,18.3,7,26.8,11.8c12.7,7.3,24.8,15.3,35.2,25.7c6.6,6.7,13.3,13.2,18.9,20.9
								c7.6,10.4,13.3,21.7,18.2,33.4c4.8,11.5,14,18.2,26,17.6c7-0.3,13.2-2.9,18.3-8.1c1.7-1.7,2.5-3.5,2.4-5.9
								c-0.1-2.2,0.2-4.5-0.1-6.7c-0.6-6.1,2.8-10.5,6.3-14.8C444,111.1,444.7,110.9,445.5,111.3z M221.5,119.3
								c1.7-7,5.2-13,10.2-18.1c3.9-4,8.3-7.3,12.9-10.4c2.3-1.6,4.8-3,6.8-5.5c-1-0.4-1.5-0.8-2-0.7c-16.2,1.1-30.9,5.8-41.7,18.8
								c-2.9,3.5-6,5.2-10.3,5.3c-2.8,1.3-5.4,0-8-0.7c-4.7-1.3-9.4-1.9-14.2-1.6c-1.9,0.1-3.3,0.8-3.6,2.8c-0.3,1.9,0.6,3.2,2.3,4
								c0.8,0.4,1.7,0.9,2.6,0.9c5.6,0,10.8,2,16.2,3.3c10,2.4,19.3,6.2,27.6,12.3c3.2,2.3,6,4.9,7.7,8.5c1.8,3.9,1.6,5.1-2.2,7.1
								c-5.4,2.9-11.2,4.6-17.3,5.5c-9.8,1.5-19.6,2.6-29.5,3.5c-2.9,0.3-5.8,0.9-8.7,1c-2.5,0.1-4.1,1.7-4.2,4.3
								c-0.2,2.4,1.8,4.3,4.6,4.5c1.3,0.1,2.6-0.2,3.8-0.4c5.3-0.6,10.5-1.9,15.8-1.8c-0.2,1.8,0.5,3.3,1.6,4.6
								c1.6,1.9,1.9,3.6,0.8,6s-0.9,5.1,0.1,7.6c1.2,3.2,4,4.7,6.9,6c1.8,0.8,3.6,1.5,4,4.1c1.2,8.8,6.8,14.5,14.2,18.6
								c10.5,5.8,21.8,8,33.6,7.9c1,0,2.2,0.1,3-1c-0.8-2-2.8-2.8-4.4-4c-6.9-5.3-13.1-11.4-18.6-18.2c-2-2.4-4.3-5.1-3.5-8.4
								c1.2-5-0.9-8.1-4.9-10.6c-1.1-0.7-2.4-1.4-1.9-3c1.4-4.6-1.3-7.3-4.3-9.9c-0.2-2.3,0.6-3.8,3-4.4c4-1,7.5-3,11.1-5
								c6.1-3.4,8.3-9.6,5.8-15.9c-1.3-3.3-3.5-6-5.8-8.7C228.4,124.2,224.4,122.5,221.5,119.3z M297.4,202.1
								c0.1-6.7-2-12.7-5.7-18.2c-2.4-3.6-5.4-6.5-9.1-8.8c-3-1.9-5.5-1.7-6.9,0.2c-1.5,2-0.8,4.3,1.9,6.5c0.9,0.7,1.8,1.3,2.6,2
								c11.9,9.8,11.5,28.6-1.4,35.9c-0.8,0.4-1.6,1-2.2,1.7c-1.2,1.4-1.5,3-0.6,4.6c1,1.8,2.7,2.6,4.7,2c1.4-0.4,2.7-1.2,3.9-2
								C293,220.2,297.2,212.2,297.4,202.1z M288.3,100.6c0,7.5-2.7,13.3-8.4,17.6c-1.2,0.9-2.5,1.6-3.6,2.6c-1.4,1.2-1.7,2.9-1,4.5
								c0.9,2,2.6,2.5,4.6,2.3c1.5-0.2,2.8-1,4-1.9c19.1-12.9,16.1-40.1-2.6-51.6c-2.7-1.7-5-1.2-6.3,0.9c-1.4,2.3-0.6,4.2,1.4,5.8
								c1,0.8,2.1,1.5,3.1,2.4C285,87.8,288,93.7,288.3,100.6z"/>
							<path class="st0" d="M217.1,161.4c3,2.6,5.7,5.4,4.3,9.9c-0.5,1.6,0.8,2.4,1.9,3c4,2.5,6,5.6,4.9,10.6
								c-0.8,3.3,1.6,6,3.5,8.4c5.5,6.8,11.7,12.9,18.6,18.2c1.6,1.2,3.6,2,4.4,4c-0.8,1.2-1.9,1-3,1c-11.8,0.1-23.2-2.1-33.6-7.9
								c-7.5-4.1-13-9.8-14.2-18.6c-0.4-2.6-2.1-3.2-4-4.1c-2.9-1.3-5.7-2.9-6.9-6c-1-2.5-1.2-5.2-0.1-7.6c1.1-2.4,0.8-4.1-0.8-6
								c-1.1-1.3-1.8-2.8-1.6-4.6c7.5-1.4,15.3-1.3,22.7-3.4C216.4,157.5,216,160.1,217.1,161.4z"/>
							<path d="M217.1,161.4c-1-1.3-0.7-3.9-4-3c-7.4,2.1-15.1,2-22.7,3.4c-5.4-0.1-10.6,1.2-15.8,1.8c-1.3,0.1-2.6,0.4-3.8,0.4
								c-2.8-0.2-4.8-2.1-4.6-4.5c0.2-2.6,1.8-4.1,4.2-4.3c3-0.2,5.8-0.7,8.7-1c9.9-1,19.7-2.1,29.5-3.5c6-0.9,11.9-2.6,17.3-5.5
								c3.7-2,4-3.3,2.2-7.1c-1.7-3.6-4.5-6.2-7.7-8.5c-8.3-6.1-17.6-9.9-27.6-12.3c-5.4-1.3-10.5-3.3-16.2-3.3
								c-0.9,0-1.7-0.6-2.6-0.9c-1.7-0.7-2.6-2.1-2.3-4c0.3-2,1.7-2.7,3.6-2.8c4.8-0.3,9.5,0.3,14.2,1.6c2.6,0.7,5.2,2.1,8,0.7
								c0.1,0.7,0.2,1.5,1,1.7c8,2,15.4,5.6,23,8.9c2.9,3.1,6.9,4.8,9.7,8.1c2.3,2.7,4.5,5.4,5.8,8.7c2.6,6.3,0.3,12.6-5.8,15.9
								c-3.5,2-7.1,4-11.1,5C217.7,157.6,216.9,159.1,217.1,161.4z"/>
							<path class="st0" d="M221.5,119.3c-7.5-3.3-14.9-7-23-8.9c-0.8-0.2-1-1-1-1.7c4.3-0.1,7.5-1.9,10.3-5.3
								c10.7-13,25.4-17.8,41.7-18.8c0.5,0,1,0.3,2,0.7c-2,2.5-4.5,4-6.8,5.5c-4.6,3.1-9,6.5-12.9,10.4
								C226.7,106.3,223.2,112.4,221.5,119.3z"/>
							<path class="st0" d="M297.4,202.1c-0.2,10.1-4.4,18.1-12.7,23.9c-1.2,0.8-2.5,1.6-3.9,2c-2,0.6-3.7-0.2-4.7-2
								c-0.9-1.6-0.6-3.3,0.6-4.6c0.6-0.7,1.4-1.3,2.2-1.7c12.9-7.3,13.3-26.1,1.4-35.9c-0.9-0.7-1.8-1.3-2.6-2
								c-2.8-2.3-3.4-4.5-1.9-6.5c1.5-2,3.9-2.1,6.9-0.2c3.6,2.3,6.7,5.3,9.1,8.8C295.4,189.4,297.5,195.4,297.4,202.1z"/>
							<path class="st0" d="M288.3,100.6c-0.3-6.9-3.3-12.8-8.9-17.4c-1-0.8-2.1-1.5-3.1-2.4c-2-1.6-2.8-3.5-1.4-5.8
								c1.3-2.2,3.6-2.6,6.3-0.9c18.7,11.4,21.7,38.6,2.6,51.6c-1.2,0.8-2.5,1.7-4,1.9c-2,0.3-3.7-0.3-4.6-2.3
								c-0.8-1.7-0.4-3.3,1-4.5c1.1-1,2.4-1.7,3.6-2.6C285.6,113.9,288.4,108.1,288.3,100.6z"/>
						</g>
					</g>
				</g>
			</g>
		</g>
	</g>
</g>
</svg>
