<?xml version="1.0" encoding="utf-8"?>
<!-- Generator: Adobe Illustrator 26.2.1, SVG Export Plug-In . SVG Version: 6.00 Build 0)  -->
<svg version="1.1" xmlns="http://www.w3.org/2000/svg" xmlns:xlink="http://www.w3.org/1999/xlink" x="0px" y="0px"
	 viewBox="0 0 500 500" style="enable-background:new 0 0 500 500;" xml:space="preserve">
<style type="text/css">
	.st0{display:none;}
	.st1{display:inline;fill:#FFA92E;}
	.st2{fill:#FFFFFF;}
	.st3{fill:#2B7E31;}
	.st4{fill:#E7B7B5;}
	.st5{fill:#E4B6B3;}
</style>
<g id="Layer_2" class="st0">
	<rect class="st1" width="500" height="500"/>
</g>
<g id="Layer_3">
	<g id="Layer_3_00000041985270836315948000000007010398447459636890_">
		<g>
			<g>
				<g>
					<g>
						<path d="M308.36,491c-10.23,0-19.22-1.45-27.5-4.42c-21.44-7.71-36.41-22.26-44.53-43.28c-0.8,0.98-1.6,1.95-2.4,2.93
							c-12.11,14.73-26.79,24.39-43.65,28.72c-5.14,1.32-10.53,1.99-16.01,1.99c-7.86,0-15.94-1.31-24.71-4
							c-27.56-8.47-50-23.17-66.71-43.69c-10.9-13.43-19.05-29.97-24.23-49.16c-8.72-32.27-12.23-61.11-10.72-88.17
							c1.01-17.94,4.44-36.33,10.2-54.64c0.21-0.67,0.45-1.19,0.65-1.61l0.13-0.28c2.84-6.92,7.04-8.38,10.07-8.38
							c3.26,0,6.47,1.76,9.54,5.22c2.1,2.36,4.2,4.79,6.23,7.14c2.68,3.09,5.44,6.29,8.22,9.34c7.31,8.03,15.64,15.13,25.24,21.49
							c-5.54-6.53-10.46-13.16-14.84-19.99c-9.18-14.33-18.47-29.85-22.33-48.04c-3.58-16.9-0.57-32.75,8.96-47.11
							c3.93-5.89,8.35-11.48,12.62-16.88l0.33-0.41c4.53-5.74,9.47-9.82,15.08-12.48c2.16-1.03,4.51-1.98,6.99-1.98
							c5.18,0,8.12,4.19,9.87,6.69c1.43,2.02,2.87,4.06,4.3,6.1c6.16,8.74,12.53,17.77,18.99,26.45c2.8,3.77,5.49,7.26,8.51,10.24
							c-2.05-4.61-4.69-9.02-7.44-13.62c-1.1-1.85-2.21-3.69-3.27-5.55c-1.31-2.31-2.65-4.58-3.99-6.85
							c-3.39-5.76-6.9-11.71-9.85-18.01c-6.16-13.14-4.98-25.88,3.48-37.85c5.18-7.3,11.75-13,17.5-17.62
							c8.04-6.43,15.53-13.83,22.79-21c2.92-2.88,5.93-5.86,8.96-8.76c6.85-6.55,12.19-13.81,15.87-21.59
							C214.78,13.36,221.01,9,229.24,9c2.59,0,5.38,0.43,8.53,1.3c13.14,3.66,25.36,9.74,35.78,15.15c3.16,1.64,6.33,3.27,9.5,4.9
							c12.88,6.6,26.19,13.43,38.7,21.38c18.37,11.66,32.68,22.24,45.04,33.3c16.11,14.41,19.74,33.02,10.22,52.4
							c-6.47,13.22-14.72,25.62-24.63,37.04c2.09-1.47,4.18-2.93,6.26-4.41c12.45-8.79,21.49-18.74,27.63-30.45
							c4.19-7.97,6.15-16.86,7.79-25.28l0.15-0.81c0.57-3.03,1.35-7.19,5.23-10.25c2.78-2.18,5.94-3.33,9.16-3.33
							c3.5,0,6.94,1.29,10.23,3.83c5.39,4.16,9.78,8.85,13.04,13.94l1.3,2.03c4.67,7.27,9.5,14.78,12.81,23.27
							c6.92,17.8,4.07,35.22,0.81,48.41c-8.17,33.02-25.85,60.3-52.66,81.32c13.05-9.36,23.35-20.02,31.36-32.45
							c0.53-0.82,1.07-1.65,1.61-2.47c1.4-2.12,2.72-4.13,3.86-6.19c3.02-5.46,7.34-6.27,9.64-6.27c0.5,0,1.02,0.04,1.53,0.11
							c5.04,0.7,8.44,4.61,9.07,10.46l0.14,1.28c0.87,8.1,1.76,16.47,1.63,24.95c-0.74,42.51-8.1,84.69-21.88,125.39
							c-6.51,19.27-16.12,44.21-32.74,66.26c-6.44,8.56-13.17,14.32-21.17,18.15c-15.58,7.46-31.69,15.17-49.78,17.61
							C320.39,490.53,314.15,491,308.36,491z M241.53,416.03c6.37,0,11.3,4.55,11.99,11.08c0.71,7.03,3.38,13.47,8.41,20.3
							c7.26,9.84,13.98,15.52,21.79,18.42c7.81,2.89,16.25,4.3,25.81,4.3c5.52,0,11.43-0.47,18.07-1.43
							c5.63-0.82,10.99-2.89,16.66-5.09c2.7-1.04,5.48-2.13,8.33-3.07c15.73-5.22,26.78-13.69,34.79-26.67
							c8.17-13.21,14.62-26.68,19.74-41.18c0.84-2.4,1.7-4.79,2.55-7.18c5.24-14.65,10.66-29.81,13.25-45.45
							c0.9-5.44,1.93-10.93,2.93-16.23c2.09-11.16,4.26-22.7,5.28-34.08l0.18-2.09c0.66-7.44,1.33-15.06,1.36-22.63
							c-10.16,12.13-22.94,22.7-39.84,32.99c-10.9,6.64-23.33,12.12-39.1,17.25c-9.3,3-20.34,6.26-31.79,7.61
							c-0.92,0.11-1.83,0.17-2.7,0.17c-5.81,0-10.39-2.54-13.24-7.33c-2.15-3.57-3.6-9.41,1.84-16.78
							c5.69-7.67,13.68-11.96,20.74-15.14c4.4-1.99,8.91-3.85,13.27-5.64c12.62-5.2,24.54-10.12,35.04-18.25
							c16.56-12.8,26.94-23.62,34.71-36.16c5.47-8.81,9.19-18.58,12.83-28.65c5.78-16.02,6.91-28.97,3.57-40.76
							c-2.71-9.52-7.24-18.42-13.49-26.47c-0.57-0.73-1.11-1.5-1.65-2.27c-0.2-0.28-0.39-0.56-0.58-0.82
							c-2.5,16.74-11.04,30.15-17.54,39.07c-8.68,11.93-20.33,20.62-31.62,28.23c-15.58,10.49-30.65,20.93-43.85,33.38
							c-3.5,3.31-7.73,5.93-12.56,7.79c-2.29,0.89-4.62,1.35-6.89,1.35c-4.54,0-8.7-1.87-11.4-5.14c-2.8-3.38-3.85-7.87-2.95-12.64
							c0.66-3.51,2.35-6.17,3.75-8.1c7.5-10.47,16.7-19.94,27.33-28.11c16.76-12.92,30.4-29.74,41.69-51.4
							c6.27-12.03,4.84-19.75-5.46-29.47c-5.4-5.09-11.61-9.97-18.99-14.91c-3.23-2.16-6.4-4.43-9.47-6.63
							c-5.55-3.97-10.79-7.73-16.5-10.99c-8.75-5.01-17.83-9.79-26.62-14.43c-6.74-3.55-13.71-7.23-20.53-11
							c-9.1-5.02-18.87-9-28.33-12.85c-0.49-0.2-0.85-0.33-1.13-0.42c-0.25,0.35-0.61,0.9-1.12,1.72c-0.69,1.12-1.37,2.25-2.04,3.39
							c-1.94,3.25-3.94,6.61-6.36,9.77c-13.12,17.01-29.23,31.43-43.3,43.62c-0.8,0.69-1.61,1.38-2.41,2.07
							c-5.23,4.48-10.17,8.72-13.82,14.07c-3.69,5.39-4.22,10.27-1.72,15.85c1.5,3.34,3.33,7.27,5.51,11.05
							c1.77,3.05,3.54,6.09,5.32,9.13c3.79,6.47,7.7,13.17,11.44,19.85c3.09,5.55,6.08,11.66,7.01,18.68
							c1.04,8.08-1.78,14.73-8.17,19.22c-2.48,1.76-5.12,2.65-7.83,2.65c-4.25,0-7.67-2.13-10.7-4.02l-0.16-0.1
							c-6.08-3.79-11.41-8.66-16.3-14.91c-7.44-9.51-15.95-20.68-22.91-32.89c-0.49-0.85-0.88-1.49-1.19-1.95
							c-0.43,0.43-1,1.04-1.75,1.88c-4.71,5.35-9.16,11.59-14.44,20.23c-6.17,10.08-7.84,20.22-5.12,31.01
							c2.11,8.31,5.35,16.4,9.92,24.72c11.72,21.33,26.64,39.79,44.35,54.85l0.22,0.18c2.06,1.73,4.4,3.69,6.07,6.68
							c0.16,0.29,0.33,0.58,0.49,0.86c1.67,2.89,4.47,7.74,0.89,13.37c-2.8,4.4-7.39,7.02-12.3,7.02c-0.86,0-1.73-0.08-2.58-0.24
							c-5.97-1.05-12.78-2.26-18.98-6.07c-2.72-1.66-5.6-3.27-8.39-4.83c-2.61-1.46-5.3-2.97-7.94-4.55
							c-14.81-8.99-27.57-19.91-37.95-32.45c-0.61-0.75-1.16-1.49-1.69-2.2c-2.81,12.69-3.74,25.95-4.57,37.78
							c-1.34,19.37,1.28,38.82,4.02,55.3c3.86,23.19,10.56,42.38,20.49,58.67c4.16,6.84,8.49,12.28,13.22,16.63
							c18.21,16.68,37.85,26.73,60.04,30.72c3.43,0.62,6.72,0.93,9.8,0.93c4.73,0,9.08-0.74,12.92-2.21
							c14.12-5.42,25.26-13.98,33.09-25.43c3.31-4.82,7.61-8.52,12.8-10.99C237.19,416.54,239.37,416.03,241.53,416.03z"/>
						<path class="st2" d="M229.24,14c2.24,0,4.64,0.41,7.18,1.12c12.28,3.42,23.64,8.97,34.82,14.77
							c16.1,8.37,32.5,16.32,47.83,26.06c15.56,9.88,30.6,20.47,44.39,32.81c14.67,13.13,17.5,29.31,9.07,46.47
							c-9.18,18.75-21.69,35.18-36.92,49.45c-6.26,5.88-12.97,11.27-19.43,16.92c-1.33,1.14-2.59,2.42-3.73,3.75
							c-0.93,1.08-2.4,2.36-0.62,3.77c0.34,0.27,0.65,0.38,0.95,0.38c0.82,0,1.51-0.83,2.24-1.39c6.8-5.24,13.57-10.54,20.53-15.58
							c8.58-6.24,17.32-12.26,25.98-18.38c12.14-8.56,22.19-18.91,29.17-32.21c4.43-8.43,6.48-17.46,8.27-26.64
							c0.58-2.96,0.91-5.99,3.58-8.1c1.89-1.48,3.93-2.25,6.07-2.25c2.32,0,4.74,0.91,7.18,2.79c4.64,3.58,8.76,7.79,11.89,12.68
							c5.03,7.85,10.25,15.64,13.67,24.42c5.86,15.06,4.35,30.29,0.62,45.39c-9.65,39.01-32.36,68.36-66.43,89.39
							c-10.86,6.71-22.7,10.88-34.43,15.52c-6.8,2.69-13.24,6.03-18.87,11.02c0.96,1.24,1.97,1.6,2.99,1.6
							c0.86,0,1.73-0.26,2.58-0.48c22.31-5.9,43.83-13.75,63.27-26.39c15.43-10.01,28.63-22.37,38.65-37.89
							c1.91-2.98,3.94-5.88,5.65-8.95c1.25-2.25,2.99-3.69,5.27-3.69c0.27,0,0.54,0.02,0.82,0.06c3.21,0.44,4.5,3.19,4.81,6.05
							c0.91,8.51,1.88,17.01,1.74,25.62c-0.73,42.41-8.02,83.73-21.61,123.86c-7.77,22.99-17.23,45.26-31.99,64.86
							c-5.3,7.04-11.41,12.86-19.33,16.65c-15.5,7.42-31.09,14.85-48.29,17.17c-6.11,0.83-12.28,1.38-18.42,1.38
							c-8.74,0-17.43-1.11-25.81-4.12c-20.28-7.29-34.57-21.23-42.09-41.78c-0.79-2.15,0.25-4.6-2.11-7.19
							c-2.82,3.46-5.55,6.8-8.29,10.15c-10.88,13.24-24.3,22.75-41.02,27.05c-4.93,1.27-9.86,1.83-14.77,1.83
							c-7.84,0-15.62-1.44-23.24-3.78c-25.4-7.81-47.44-21.36-64.3-42.07c-11.25-13.86-18.64-30.1-23.28-47.31
							c-7.66-28.32-12.2-57.11-10.56-86.59c1.02-18.21,4.5-36.02,9.98-53.41c0.15-0.48,0.39-0.93,0.6-1.41
							c1.44-3.56,3.3-5.35,5.47-5.35c1.75,0,3.71,1.17,5.8,3.53c4.87,5.47,9.57,11.12,14.5,16.53c11,12.08,23.89,21.69,38.2,29.54
							c1.57,1.32,2.98,2.94,5.27,2.94c0.03,0,0.05,0,0.08,0l0.15,0.08c2.47,2.02,4.99,3.8,9.26,3.8c0.31,0,0.64-0.01,0.97-0.03
							c-2.07-1.41-2.32-3.05-3.98-3.4c-11.99-11.31-22.75-23.6-31.65-37.49c-9.28-14.48-18-29.15-21.65-46.38
							c-3.34-15.78-0.54-30.08,8.24-43.3c3.91-5.86,8.31-11.41,12.7-16.95c3.63-4.6,7.95-8.53,13.3-11.06
							c2.06-0.98,3.58-1.5,4.86-1.5c2.11,0,3.57,1.42,5.78,4.56c7.73,10.94,15.39,21.94,23.37,32.67
							c4.66,6.26,9.51,12.45,16.34,16.65c0.64,0.39,1.26,0.9,2.07,0.9c0.22,0,0.45-0.04,0.7-0.12c2.05-2.3,0.83-4.58,0.02-7
							c-3-8.95-8.33-16.72-12.97-24.82c-4.62-8.12-9.67-15.99-13.65-24.49c-5.43-11.6-4.29-22.48,3.04-32.85
							c4.58-6.46,10.46-11.72,16.55-16.61c11.48-9.18,21.48-19.91,32.07-30.04c6.98-6.67,12.82-14.36,16.93-23.06
							C218.72,16.72,223.46,14,229.24,14 M173.71,194.58c-2.87,0-5.49-1.67-8.21-3.36c-5.9-3.67-10.75-8.31-15-13.75
							c-8.1-10.36-15.97-20.82-22.5-32.28c-2.06-3.61-3.51-5.36-5.17-5.36c-1.55,0-3.28,1.52-5.87,4.47
							c-5.68,6.46-10.46,13.57-14.94,20.92c-6.67,10.9-8.85,22.33-5.7,34.84c2.32,9.14,5.9,17.73,10.38,25.91
							c11.79,21.46,26.79,40.35,45.49,56.26c1.93,1.62,3.89,3.21,5.16,5.49c1.6,2.88,3.71,5.66,1.53,9.11
							c-1.93,3.03-4.9,4.7-8.08,4.7c-0.56,0-1.12-0.05-1.68-0.15c-5.92-1.04-11.93-2.13-17.26-5.41
							c-5.37-3.29-10.98-6.17-16.37-9.41c-13.92-8.45-26.25-18.75-36.67-31.36c-2.3-2.8-4.12-6.3-7.64-7.79
							c-1.47,1.06-1.51,2.4-1.8,3.56c-3.6,13.98-4.66,28.32-5.66,42.65c-1.31,18.96,0.97,37.78,4.08,56.47
							c3.56,21.36,9.82,41.85,21.15,60.45c3.91,6.42,8.45,12.51,14.11,17.71c17.94,16.43,38.47,27.63,62.54,31.96
							c3.54,0.64,7.13,1.01,10.68,1.01c5.04,0,10.01-0.75,14.7-2.54c14.34-5.51,26.56-14.31,35.44-27.28c2.75-4,6.36-7.17,10.83-9.3
							c1.47-0.7,2.94-1.04,4.31-1.04c3.63,0,6.57,2.36,7.02,6.6c0.87,8.62,4.37,15.97,9.36,22.73c6.38,8.64,13.82,16.34,24.07,20.14
							c9.01,3.34,18.24,4.61,27.56,4.61c6.24,0,12.51-0.57,18.78-1.48c9.07-1.31,17.24-5.51,25.85-8.37
							c15.85-5.26,28.44-14.15,37.47-28.79c8.29-13.42,14.98-27.36,20.2-42.14c6.19-17.55,12.93-34.86,16.03-53.47
							c2.8-16.9,6.73-33.62,8.25-50.69c1.06-12.14,2.28-24.34,1.06-36.62c-0.79,0.19-1.39,0.15-1.7,0.43
							c-1.24,1.28-2.46,2.55-3.54,3.96c-11.41,14.83-25.83,26.12-41.7,35.78c-11.97,7.29-24.84,12.47-38.05,16.76
							c-10.05,3.25-20.24,6.15-30.83,7.4c-0.73,0.09-1.43,0.13-2.11,0.13c-3.84,0-6.89-1.44-8.95-4.89
							c-2.38-3.94-1.04-7.71,1.57-11.25c4.83-6.52,11.73-10.38,18.77-13.55c16.74-7.56,34.43-12.97,49.32-24.49
							c13.9-10.75,26.52-22.35,35.9-37.49c5.8-9.34,9.63-19.47,13.28-29.58c5.08-14.09,7.93-28.84,3.67-43.83
							c-2.92-10.27-7.79-19.72-14.34-28.17c-2.65-3.42-4.68-7.69-9.74-9.18c-0.35,1.31-0.77,2.26-0.83,3.23
							c-1.01,15.95-8,29.44-17.19,42.07c-8.16,11.21-19.04,19.39-30.37,27.03c-15.5,10.44-30.85,21.03-44.48,33.89
							c-3.17,3-6.96,5.24-10.92,6.77c-1.78,0.69-3.5,1.01-5.1,1.01c-6.31,0-10.74-4.99-9.44-11.86c0.43-2.26,1.51-4.2,2.88-6.09
							c7.42-10.36,16.28-19.35,26.33-27.08c18.58-14.33,32.4-32.57,43.07-53.05c7.5-14.4,5.01-24.59-6.46-35.42
							c-6.09-5.74-12.74-10.81-19.64-15.43c-8.8-5.88-17.01-12.51-26.27-17.8c-15.54-8.89-31.55-16.8-47.21-25.46
							c-9.28-5.12-19.08-9.12-28.86-13.11c-1.57-0.64-2.72-0.98-3.66-0.98c-1.84,0-2.89,1.3-4.73,4.28
							c-2.65,4.29-5.07,8.76-8.12,12.74C205.32,56.41,190.37,70,175.1,83.23c-6.11,5.3-12.47,10.32-17.09,17.11
							c-4.49,6.55-5.51,13.2-2.15,20.7c1.76,3.92,3.6,7.79,5.74,11.5c5.59,9.65,11.29,19.2,16.72,28.92
							c2.94,5.28,5.61,10.77,6.42,16.9c0.77,5.99-0.99,10.88-6.09,14.48C176.9,194.08,175.27,194.58,173.71,194.58 M305.58,216.25
							c1.86-1.51,4.54-1.97,4.43-5.3c0-0.19-0.28-0.54-0.45-0.54c0,0-0.01,0-0.01,0c-3.04,0.04-3.79,2.47-4.76,4.66
							C304.74,215.17,305.05,215.46,305.58,216.25 M229.24,4c-7.1,0-16.87,2.74-23.05,15.82c-3.42,7.22-8.4,13.99-14.8,20.11
							c-3.06,2.93-6.09,5.92-9.02,8.82c-7.49,7.4-14.57,14.39-22.39,20.65c-6.03,4.85-12.93,10.84-18.46,18.63
							c-7.52,10.63-9.92,22.18-7.13,33.84c-2.29-1.94-5.36-3.54-9.4-3.54c-3.48,0-6.58,1.25-9.15,2.47
							c-6.31,2.99-11.83,7.53-16.86,13.89l-0.33,0.41c-4.33,5.48-8.81,11.14-12.85,17.19c-10.31,15.53-13.57,32.66-9.7,50.93
							c2.68,12.64,7.8,23.93,13.7,34.41c-0.44-0.51-0.88-1.01-1.31-1.51c-2.04-2.36-4.16-4.81-6.3-7.21
							c-4.04-4.56-8.51-6.88-13.27-6.88c-3,0-10.4,1.12-14.66,11.4l-0.07,0.16c-0.22,0.49-0.56,1.22-0.86,2.15l-0.01,0.02
							l-0.01,0.02c-5.88,18.7-9.39,37.5-10.42,55.85c-1.54,27.61,2.02,56.97,10.89,89.76c5.36,19.87,13.82,37.03,25.17,51
							c17.35,21.31,40.6,36.55,69.12,45.32c9.25,2.84,17.81,4.23,26.18,4.23c5.91,0,11.71-0.72,17.26-2.15
							c16.62-4.27,31.22-13.38,43.46-27.11c9.15,18.38,23.97,31.35,44.18,38.61c8.83,3.17,18.38,4.71,29.2,4.71
							c6.01,0,12.48-0.48,19.76-1.47c18.87-2.54,35.34-10.43,51.27-18.06c8.63-4.13,16.16-10.55,23-19.65
							c17.04-22.62,26.84-48.05,33.48-67.67c13.94-41.18,21.39-83.87,22.14-126.89c0.14-8.81-0.78-17.34-1.66-25.59l-0.13-1.26
							c-0.88-8.16-6-13.86-13.36-14.89c-0.27-0.04-0.54-0.07-0.82-0.09c4.01-8.77,7.22-18.04,9.63-27.79
							c3.44-13.9,6.43-32.31-1.01-51.42c-3.49-8.96-8.46-16.69-13.27-24.16l-1.3-2.02c-3.57-5.58-8.35-10.7-14.21-15.21
							c-4.12-3.18-8.72-4.87-13.28-4.87c-4.35,0-8.58,1.51-12.24,4.38c-5.38,4.25-6.44,9.9-7.07,13.28
							c-0.05,0.26-0.1,0.51-0.15,0.77c-0.83,4.25-1.7,8.43-2.86,12.48c1.19-5.85,1.25-11.62,0.18-17.24
							c-1.92-10.13-7.43-19.32-16.35-27.31c-12.57-11.25-27.09-21.99-45.69-33.8c-12.7-8.07-26.12-14.95-39.1-21.61
							c-3.16-1.62-6.33-3.24-9.48-4.88c-10.65-5.53-23.14-11.74-36.74-15.53C235.52,4.49,232.29,4,229.24,4L229.24,4z
							 M173.71,204.58c3.76,0,7.37-1.2,10.72-3.57c7.87-5.55,11.51-14.05,10.24-23.93c-1.04-7.88-4.27-14.5-7.6-20.48
							c-3.77-6.74-7.7-13.46-11.5-19.96c-1.77-3.03-3.55-6.06-5.31-9.11c-2.07-3.57-3.82-7.35-5.27-10.58
							c-1.8-4.01-1.45-6.98,1.27-10.97c3.28-4.82,7.98-8.85,12.95-13.1c0.81-0.7,1.63-1.39,2.44-2.1
							c14.25-12.34,30.58-26.96,43.98-44.33c2.61-3.41,4.7-6.9,6.71-10.28c0.3-0.5,0.59-0.99,0.89-1.48
							c8.43,3.44,17.05,7.07,25.03,11.47c6.85,3.79,13.85,7.48,20.61,11.04c8.75,4.61,17.79,9.38,26.46,14.34
							c5.49,3.14,10.63,6.82,16.07,10.72c3.1,2.22,6.31,4.52,9.61,6.72c7.14,4.78,13.14,9.49,18.34,14.39
							c8.58,8.1,9.62,13.6,4.45,23.52c-10.95,21-24.13,37.27-40.31,49.75c-11,8.46-20.54,18.27-28.34,29.16
							c-1.57,2.17-3.75,5.57-4.6,10.09c-1.18,6.25,0.25,12.21,4.02,16.76c3.66,4.42,9.22,6.95,15.25,6.95c2.9,0,5.83-0.57,8.72-1.69
							c5.41-2.08,10.18-5.05,14.17-8.82c12.91-12.18,27.8-22.5,43.2-32.86c11.68-7.87,23.74-16.88,32.87-29.44
							c8.56-11.77,13.26-21.77,15.88-30.04c3.77,5.94,6.63,12.28,8.53,18.95c3.09,10.88,2.02,22.5-3.46,37.7
							c-3.54,9.8-7.16,19.3-12.37,27.7c-7.44,12.01-17.47,22.43-33.52,34.85c-9.97,7.72-21.59,12.51-33.89,17.58
							c-4.4,1.81-8.94,3.69-13.43,5.71c-7.64,3.44-16.32,8.12-22.69,16.71c-7.44,10.08-4.54,18.3-2.13,22.33
							c3.75,6.3,9.98,9.77,17.54,9.77c1.07,0,2.18-0.07,3.3-0.2c11.86-1.41,23.2-4.74,32.72-7.82
							c16.17-5.26,28.93-10.89,40.17-17.74c12.54-7.64,22.9-15.45,31.64-23.92c-0.22,2.91-0.48,5.85-0.74,8.84l-0.19,2.11
							c-1,11.12-3.04,22.03-5.21,33.58c-1,5.33-2.04,10.85-2.95,16.35c-2.52,15.19-7.63,29.47-13.03,44.58
							c-0.86,2.4-1.72,4.8-2.56,7.21c-5,14.15-11.3,27.31-19.28,40.21c-7.36,11.93-17.56,19.73-32.11,24.55
							c-2.97,0.99-5.82,2.09-8.57,3.16c-5.4,2.09-10.5,4.07-15.56,4.81c-6.4,0.92-12.07,1.37-17.35,1.37
							c-8.96,0-16.84-1.3-24.09-3.99c-6.82-2.54-12.84-7.69-19.49-16.71c-4.47-6.06-6.84-11.72-7.45-17.8l0-0.02l0-0.02
							c-0.97-9.16-7.95-15.55-16.96-15.55c-2.91,0-5.8,0.67-8.6,2c-6,2.86-10.97,7.12-14.78,12.68
							c-7.25,10.6-17.61,18.54-30.78,23.6c-3.25,1.24-7,1.87-11.12,1.87c-2.78,0-5.77-0.29-8.9-0.85
							c-21.24-3.82-40.07-13.47-57.56-29.49c-4.38-4.02-8.41-9.1-12.32-15.53c-9.59-15.74-16.07-34.35-19.83-56.9
							c-2.7-16.19-5.27-35.28-3.97-54.14c0.62-8.83,1.25-17.87,2.59-26.82c9.71,10.52,21.12,19.79,34.02,27.62
							c2.73,1.65,5.46,3.17,8.1,4.65c2.88,1.61,5.59,3.13,8.24,4.75c6.97,4.29,14.27,5.59,20.71,6.72c1.14,0.21,2.3,0.31,3.45,0.31
							c6.63,0,12.81-3.49,16.52-9.33c5.2-8.2,1.01-15.45-0.78-18.55c-0.15-0.26-0.3-0.52-0.45-0.78c-2.13-3.8-4.96-6.18-7.23-8.08
							l-0.21-0.18c-17.23-14.67-31.75-32.65-43.18-53.43c-4.35-7.94-7.45-15.64-9.45-23.55c-2.4-9.53-0.96-18.17,4.54-27.16
							c4.07-6.66,7.61-11.83,11.15-16.24c6.61,10.9,14.21,20.84,20.92,29.43c5.26,6.72,11.01,11.98,17.59,16.07l0.16,0.1
							C163.6,201.82,168.03,204.58,173.71,204.58L173.71,204.58z"/>
					</g>
					<g>
						<g>
							<path d="M124.2,286.79c6.44,3.92,13.61,6.67,21.03,8c1.55,0.27,3.11-0.44,3.54-2.05c0.39-1.41-0.5-3.27-2.05-3.54
								c-6.96-1.26-13.55-3.73-19.6-7.4c-1.33-0.81-3.19-0.29-3.98,1.04C122.36,284.2,122.87,285.98,124.2,286.79L124.2,286.79z"/>
						</g>
					</g>
					<g>
						<g>
							<path d="M147.11,283.47c-0.95-0.44-1.82-1.01-2.67-1.62c-0.43-0.29,0.41,0.33,0.14,0.12c-0.08-0.06-0.15-0.14-0.27-0.21
								c-0.21-0.17-0.43-0.35-0.62-0.54c-0.39-0.37-0.75-0.72-1.1-1.12c-0.17-0.19-0.33-0.37-0.48-0.56
								c-0.1-0.1-0.17-0.21-0.25-0.33c-0.23-0.31,0.1,0.1,0.15,0.19c-0.25-0.44-0.6-0.85-0.87-1.3c-0.25-0.44-0.52-0.89-0.75-1.37
								c-0.1-0.21-0.43-1.08-0.12-0.21c-0.1-0.27-0.21-0.52-0.29-0.77c-0.5-1.41-2.01-2.53-3.56-2.03
								c-1.39,0.44-2.57,2.03-2.03,3.56c1.72,4.79,5.18,8.93,9.8,11.19c1.37,0.66,3.21,0.41,3.98-1.04
								C148.85,286.12,148.58,284.17,147.11,283.47L147.11,283.47z"/>
						</g>
					</g>
					<g>
						<g>
							<path d="M118.92,283.89c3.38,1.88,6.77,3.77,10.13,5.66c0.99-1.66,1.95-3.34,2.94-5.01c-2.05-1.04-4.08-2.11-6.13-3.15
								c0,1.68,0,3.34-0.02,5.03c0.12-0.06,0.21-0.1,0.33-0.15c-0.48,0.14-0.95,0.27-1.43,0.41c-0.21,0.02,0.08,0.02,0.21,0.15
								c0.35,0.31,0.91,0.58,1.31,0.83c0.87,0.54,1.78,1.04,2.69,1.53c1.84,0.95,3.75,1.8,5.68,2.51c3.89,1.47,7.95,2.32,12.06,2.75
								c1.57,0.15,2.88-1.49,2.88-2.94c0-1.7-1.35-2.71-2.94-2.88c-4.08-0.43-8.2-1.51-11.97-3.11c-1.89-0.83-3.75-1.8-5.51-2.86
								c-2.11-1.28-3.79-2.38-6.26-1.24c-1.95,0.91-1.84,4.08-0.02,5.03c2.05,1.04,4.08,2.11,6.13,3.15
								c3.31,1.7,6.21-3.17,2.94-5.01c-3.38-1.88-6.77-3.77-10.13-5.66C118.57,277.07,115.66,282.08,118.92,283.89L118.92,283.89z"
								/>
						</g>
					</g>
					<path class="st3" d="M71.15,247.38c3.52,1.51,5.34,5.01,7.66,7.81c10.42,12.59,22.73,22.91,36.67,31.36
						c5.39,3.27,11.02,6.13,16.37,9.41c5.34,3.27,11.35,4.35,17.26,5.41c3.81,0.68,7.5-1.01,9.76-4.54
						c2.18-3.44,0.08-6.24-1.53-9.11c-1.28-2.28-3.25-3.87-5.16-5.49c-18.67-15.91-33.7-34.82-45.49-56.26
						c-4.49-8.18-8.08-16.78-10.38-25.91c-3.15-12.51-0.97-23.91,5.7-34.84c4.49-7.35,9.26-14.46,14.94-20.92
						c5.36-6.09,7.06-6.07,11.04,0.89c6.53,11.46,14.42,21.94,22.5,32.28c4.25,5.43,9.12,10.11,15,13.75
						c4.21,2.63,8.16,5.16,13.17,1.62c5.1-3.62,6.88-8.51,6.09-14.48c-0.79-6.13-3.46-11.62-6.42-16.9
						c-5.41-9.72-11.14-19.27-16.72-28.92c-2.15-3.71-3.96-7.58-5.74-11.5c-3.34-7.5-2.34-14.17,2.15-20.7
						c4.64-6.77,10.98-11.81,17.09-17.11c15.25-13.24,30.22-26.81,42.61-42.88c3.05-3.96,5.49-8.45,8.12-12.74
						c2.78-4.5,3.77-5.2,8.39-3.31c9.78,3.96,19.58,7.96,28.86,13.11c15.64,8.66,31.69,16.59,47.21,25.46
						c9.26,5.3,17.48,11.93,26.27,17.8c6.92,4.62,13.57,9.69,19.64,15.43c11.46,10.81,13.98,21.01,6.46,35.42
						c-10.67,20.47-24.53,38.72-43.07,53.05c-10.03,7.73-18.91,16.74-26.33,27.08c-1.37,1.89-2.46,3.83-2.88,6.09
						c-1.62,8.58,5.74,14.25,14.54,10.85c3.96-1.55,7.75-3.79,10.92-6.77c13.63-12.86,29-23.45,44.48-33.89
						c11.33-7.64,22.21-15.78,30.37-27.03c9.18-12.62,16.18-26.1,17.19-42.07c0.06-0.97,0.48-1.91,0.83-3.23
						c5.07,1.49,7.09,5.76,9.74,9.18c6.55,8.47,11.41,17.9,14.34,28.17c4.25,15,1.41,29.73-3.67,43.83
						c-3.65,10.11-7.5,20.24-13.28,29.58c-9.38,15.14-22,26.74-35.9,37.49c-14.89,11.5-32.57,16.95-49.32,24.49
						c-7.02,3.17-13.94,7.04-18.77,13.55c-2.61,3.52-3.94,7.29-1.57,11.25c2.42,4.06,6.24,5.32,11.06,4.76
						c10.59-1.24,20.78-4.16,30.83-7.4c13.2-4.29,26.08-9.49,38.05-16.76c15.89-9.67,30.29-20.94,41.7-35.78
						c1.06-1.39,2.3-2.69,3.54-3.96c0.27-0.29,0.91-0.25,1.7-0.43c1.22,12.3,0,24.47-1.06,36.62c-1.51,17.09-5.45,33.81-8.25,50.69
						c-3.11,18.62-9.86,35.9-16.03,53.47c-5.2,14.77-11.91,28.73-20.2,42.14c-9.03,14.62-21.61,23.51-37.47,28.79
						c-8.6,2.86-16.78,7.06-25.85,8.37c-15.66,2.26-31.3,2.46-46.34-3.13c-10.25-3.81-17.69-11.5-24.07-20.14
						c-4.99-6.77-8.47-14.11-9.36-22.73c-0.58-5.84-5.94-8.12-11.33-5.57c-4.47,2.11-8.08,5.3-10.83,9.3
						c-8.87,12.97-21.07,21.77-35.44,27.28c-8,3.07-16.82,3.07-25.38,1.53c-24.05-4.33-44.6-15.52-62.54-31.96
						c-5.68-5.2-10.21-11.27-14.11-17.71c-11.33-18.62-17.57-39.07-21.15-60.45c-3.13-18.69-5.41-37.5-4.08-56.47
						c1.01-14.31,2.07-28.65,5.66-42.65C69.64,249.75,69.7,248.42,71.15,247.38z M190.84,361.44c1.26-1.55,3.13-2.38,4.23-4.2
						c3.75-6.22,3.27-12.95-1.53-17.84c-5.08-5.2-11.79-5.97-17.73-2.07c-5.82,3.81-7.46,9.76-4.79,17.01
						c0.41,1.16,0.48,2.44,0.72,3.63c-0.87,0.44-1.72,0.99-2.65,1.3c-3.54,1.22-6.5,2.96-6.61,7.27c-0.14,4.68,3.13,6.67,6.77,8.08
						c5.8,2.22,11.75,2.67,17.84,1.26c3.65-0.85,6.73-2.2,7.75-6.24C195.85,365.73,193.66,363.43,190.84,361.44z M302.35,373.23
						c0.79-2.96,3.17-5.08,4-8.1c2.32-8.53-1.62-15.76-10.19-18.09c-8.16-2.22-15.89,2.42-17.92,10.73
						c-1.76,7.19,1.82,12.1,6.94,16.36c-5.88,5.26-6.4,9.03-1.74,12.84c5.39,4.41,19.1,5.45,25.21,1.93
						c5.65-3.25,5.99-9.05,0.54-12.64C307.14,374.89,304.65,374.21,302.35,373.23z M233.43,383.88c6.92,2.17,13.84-0.72,19.6-6.84
						c2.92-3.11,2.94-9.11,0.04-10.86c-3.79-2.3-5.76,0.54-7.98,3.23c-4.74,5.74-10.48,5.72-15.39,0.17
						c-1.18-1.31-1.86-3.09-3.15-4.21c-2.01-1.76-4.6-2.53-6.96-0.89c-2.38,1.66-2.61,4.18-1.35,6.75
						C221.11,377.11,225.25,381.62,233.43,383.88z"/>
					<path d="M285.2,374.1c-5.12-4.27-8.68-9.18-6.94-16.36c2.03-8.29,9.76-12.95,17.92-10.73c8.56,2.34,12.53,9.57,10.19,18.09
						c-0.83,3.02-3.21,5.14-4,8.1C296.72,375.16,291.1,377.13,285.2,374.1z"/>
					<path d="M171.7,357.98c-0.23-1.22-0.29-2.49-0.72-3.63c-2.65-7.25-1.02-13.18,4.79-17.01c5.94-3.91,12.64-3.11,17.73,2.07
						c4.78,4.89,5.28,11.62,1.53,17.84c-1.1,1.82-2.98,2.65-4.23,4.2C183.67,364.7,177.56,362.07,171.7,357.98z"/>
					<path class="st4" d="M285.2,374.1c5.9,3.04,11.54,1.06,17.17-0.91c2.3,0.99,4.79,1.68,6.86,3.02c5.45,3.6,5.1,9.38-0.54,12.64
						c-6.15,3.54-19.82,2.47-25.21-1.93C278.8,383.13,279.3,379.36,285.2,374.1z"/>
					<path d="M233.43,383.88c-8.16-2.24-12.33-6.75-15.21-12.68c-1.26-2.59-1.04-5.1,1.35-6.75c2.38-1.64,4.95-0.89,6.96,0.89
						c1.3,1.12,1.99,2.9,3.15,4.21c4.91,5.55,10.65,5.57,15.39-0.17c2.22-2.69,4.2-5.53,7.98-3.23c2.9,1.78,2.9,7.75-0.04,10.86
						C247.25,383.15,240.35,386.03,233.43,383.88z"/>
					<path class="st5" d="M171.7,357.98c5.84,4.12,11.93,6.73,19.12,3.46c2.82,1.99,5.03,4.29,4.02,8.2
						c-1.04,4.04-4.12,5.41-7.75,6.24c-6.09,1.41-12.08,0.95-17.84-1.26c-3.65-1.39-6.9-3.4-6.77-8.08
						c0.12-4.31,3.05-6.03,6.61-7.27C169.98,358.94,170.83,358.4,171.7,357.98z"/>
					
						<ellipse transform="matrix(0.0598 -0.9982 0.9982 0.0598 -198.6248 524.6362)" class="st5" cx="179.19" cy="367.76" rx="10.48" ry="18.08"/>
					<ellipse transform="matrix(0.2568 -0.9665 0.9665 0.2568 -200.8483 436.8264)" cx="183.6" cy="349" rx="15.06" ry="15.06"/>
					
						<ellipse transform="matrix(0.0776 -0.997 0.997 0.0776 -107.4062 644.723)" class="st5" cx="294.72" cy="380.41" rx="10.48" ry="18.08"/>
					<ellipse cx="292.87" cy="361.22" rx="15.06" ry="15.06"/>
				</g>
			</g>
		</g>
	</g>
</g>
</svg>
