<?xml version="1.0" encoding="utf-8"?>
<!-- Generator: Adobe Illustrator 26.2.1, SVG Export Plug-In . SVG Version: 6.00 Build 0)  -->
<svg version="1.1" id="Layer_1" xmlns="http://www.w3.org/2000/svg" xmlns:xlink="http://www.w3.org/1999/xlink" x="0px" y="0px"
	 viewBox="0 0 500 500" style="enable-background:new 0 0 500 500;" xml:space="preserve">
<style type="text/css">
	.st0{fill:#FEFFFF;}
	.st1{fill:#DEC539;}
	.st2{fill:#EFBBBB;}
	.st3{fill:#F09F45;}
	.st4{fill:#EF9F45;}
	.st5{fill:#7E5428;}
	.st6{fill:#C07E2C;}
	.st7{fill:#F2F4F4;}
	.st8{fill:#F6F7F7;}
	.st9{fill:#EFF3F3;}
</style>
<g id="Layer_6">
	<g>
		<g>
			<g>
				<path d="M29.73,254.17c0.73-1.09,0.61-2.42,0.85-3.63c6.78-35.95,25.06-64.52,54.72-85.71c1.57-1.21,2.78-2.42,3.39-4.36
					c1.82-5.33,3.87-10.53,5.93-15.74c0.61-1.57,1.33-3.03,2.3-4.48c1.82-2.91,3.99-3.63,7.14-2.18c2.06,0.85,3.75,2.42,5.81,3.75
					c1.94-2.18,3.99-4.48,5.93-6.66c3.39-3.63,4.72-3.75,9.08-1.09c1.21,0.73,2.3,1.82,3.87,2.18c1.45-1.94,3.03-3.87,4.48-5.81
					c0.24-0.36,0.48-0.73,0.85-1.09c4.36-5.33,7.26-5.33,11.62,0c2.42,3.03,4.72,6.3,7.38,9.2c1.57,1.69,3.15,2.3,5.57,2.3
					c50.84-1.33,98.3,27,121.66,72.39c0.48,0.85,0.97,1.82,1.33,2.66c1.09,0.36,1.69-0.48,2.42-0.97c1.82-1.33,3.63-2.66,5.69-3.51
					c7.75-3.51,15.37-0.12,17.8,8.23c1.45,5.33,1.33,10.65,0.85,16.1c-1.09,10.41-3.75,20.46-8.23,30.02
					c-1.21,2.66-2.3,5.33-3.75,7.87c-1.33,2.42-1.57,4.84-1.33,7.38c0.97,0.36,1.69-0.24,2.42-0.73c1.94-0.97,3.87-1.82,5.93-2.42
					c5.57-1.69,10.05,0.48,12.23,5.81c1.21,3.03,1.33,6.17,1.21,9.32c-0.36,7.26-2.66,14.04-5.21,20.82
					c-7.99,21.31-22.15,37.77-39.59,51.81c-18.04,14.53-38.01,25.91-60.05,33.17c-25.91,8.6-52.42,11.74-79.29,5.21
					c-47.58-11.62-79.78-40.68-96.85-86.56c-0.73-1.94-1.57-3.63-3.15-4.96c-9.2-8.6-17.07-18.16-22.64-29.42
					c-2.06-4.12-3.75-8.35-4.84-12.83c-0.36-1.69-0.73-3.27-0.73-4.96c-0.48-8.47,5.81-14.28,14.28-13.44
					c2.3,0.24,4.6,0.97,6.9,1.57C26.95,253.44,28.28,254.17,29.73,254.17z M183.6,399.92c8.6-1.45,17.19-3.51,25.54-6.17
					c15.74-5.08,30.51-12.35,44.43-21.43c11.14-7.26,20.7-16.22,29.78-25.66c10.29-10.53,18.64-22.4,23.97-36.32
					c2.42-6.3,4.12-12.83,4.36-19.61c0-1.82-0.12-3.63-0.85-5.33c-1.33-3.03-2.54-3.75-5.81-3.15c-1.33,0.24-2.54,0.73-3.87,1.21
					c-3.15,1.45-6.3,3.03-9.08,5.21c-0.61,0.48-1.33,0.97-2.18,0.48c-0.97-0.48-1.09-1.33-0.97-2.3c0.24-2.18,0.48-4.24,0.48-6.42
					c-0.12-4.12,1.09-7.63,3.03-11.14c6.3-11.14,9.32-23.24,10.65-35.95c0.36-3.99,0.48-8.11-0.48-12.11
					c-1.57-6.17-6.3-8.11-11.86-5.08c-0.73,0.36-1.33,0.73-2.06,1.21c-2.06,1.45-4.24,3.03-6.3,4.48c-2.78,2.06-2.78,2.06-4.24-1.21
					c-28.33-62.1-99.39-91.04-162.95-66.46c-72.27,27.96-103.26,113.8-65.49,181.47C76.34,383.58,130.09,409.37,183.6,399.92z
					 M31.79,303.56c-1.82-8.47-2.91-16.83-3.15-25.42c-0.12-5.45,0-10.77,0.48-16.1c0.12-0.97,0.48-2.18-0.85-2.54
					c-3.63-1.09-7.14-2.66-11.02-2.78c-4.12-0.12-6.9,2.18-7.51,6.17c-0.36,2.42,0.12,4.72,0.85,7.02
					c3.87,12.71,11.14,23.49,19.85,33.29C30.58,303.32,30.94,303.8,31.79,303.56z M148.61,141.34c-2.91-3.75-5.57-7.26-8.23-10.53
					c-1.45,0.36-1.94,1.33-2.54,2.06c-1.69,2.18-3.39,4.48-5.21,6.66c-1.94,2.3-3.87,2.66-6.54,1.21c-1.21-0.61-2.3-1.33-3.39-2.18
					c-1.45-1.09-2.54-0.97-3.63,0.48c-1.45,1.82-3.03,3.63-4.6,5.45c-3.15,3.87-4.36,4.12-8.23,1.09c-0.85-0.73-1.82-1.33-2.66-1.94
					c-1.94-1.21-2.18-1.21-3.27,0.97c-1.94,3.63-3.39,7.63-4.84,11.5c-0.24,0.73-0.73,1.57-0.48,2.66
					C111.57,149.09,129.24,143.4,148.61,141.34z"/>
				<path class="st0" d="M183.6,399.92c-53.51,9.44-107.26-16.34-133.65-63.8c-37.77-67.79-6.78-153.5,65.49-181.47
					c63.56-24.57,134.5,4.36,162.95,66.46c1.45,3.27,1.45,3.27,4.24,1.21c2.06-1.57,4.12-3.03,6.3-4.48
					c0.61-0.48,1.33-0.85,2.06-1.21c5.57-3.03,10.29-1.09,11.86,5.08c0.97,3.99,0.97,7.99,0.48,12.11
					c-1.21,12.59-4.36,24.82-10.65,35.95c-1.94,3.51-3.15,7.14-3.03,11.14c0.12,2.18-0.24,4.24-0.48,6.42
					c-0.12,0.97,0,1.82,0.97,2.3c0.85,0.48,1.57,0,2.18-0.48c2.78-2.06,5.81-3.75,9.08-5.21c1.21-0.61,2.54-0.97,3.87-1.21
					c3.15-0.61,4.48,0,5.81,3.15c0.73,1.69,0.85,3.51,0.85,5.33c-0.12,6.78-1.94,13.32-4.36,19.61
					c-5.33,13.92-13.68,25.79-23.97,36.32c-9.2,9.44-18.76,18.4-29.78,25.66c-13.92,9.08-28.69,16.22-44.43,21.43
					C200.79,396.41,192.19,398.47,183.6,399.92z M145.34,255.14c-0.12,0.85-0.85,1.33-1.21,1.94c-1.57,2.54-0.97,4.84,1.69,6.17
					c1.45,0.73,2.91,0.97,4.6,1.09c4.72,0.24,9.2-0.73,13.68-1.82c3.27-0.85,6.66-1.94,9.32-4.36c3.03-2.78,2.3-6.3-1.57-7.51
					c-0.97-0.36-1.94-0.48-2.91-0.61c-3.51-0.24-6.9-0.24-10.41,0.48c0.36-0.73,0.73-1.33,0.97-2.06
					c2.66-5.93,0.12-12.95-5.69-15.62c-5.81-2.78-12.95-0.36-15.86,5.33c-3.03,5.93-0.73,12.95,5.21,15.98
					C143.89,254.65,144.62,254.9,145.34,255.14z M86.63,263.61c-1.45,0.48-2.91,1.09-4.48,1.45c-2.78,0.85-5.45,1.94-7.75,3.99
					c-2.3,2.06-1.94,5.21,0.73,6.66c1.33,0.73,2.78,1.21,4.12,1.21c6.78,0.24,13.32-1.09,19.73-3.63c1.82-0.73,3.39-1.69,4.72-3.15
					c1.69-1.94,1.45-4.24-0.48-5.93c-0.61-0.48-1.33-0.85-2.06-1.21c0.48-0.61,1.09-1.21,1.57-1.82c3.27-4.12,3.63-9.81,0.73-14.16
					c-2.78-4.24-7.75-6.17-12.59-5.08c-5.21,1.21-8.72,5.33-9.2,10.65C81.18,257.32,83.36,260.71,86.63,263.61z M124.4,270.03
					c5.21-1.21,9.2-4.12,11.86-8.72c0.97-1.57,0.61-3.15-0.73-3.75c-1.45-0.73-2.54-0.24-3.51,0.97c-0.73,0.85-1.33,1.82-2.06,2.66
					c-3.51,3.75-8.23,4.84-12.83,2.78c-0.73-0.36-1.33-0.73-2.06-1.09c-1.82-0.85-3.15-0.61-3.87,0.61
					c-0.85,1.33-0.48,2.78,1.33,3.87C116.29,269.66,120.16,270.63,124.4,270.03z"/>
				<path class="st0" d="M31.79,303.56c-0.97,0.24-1.21-0.24-1.45-0.48c-8.72-9.81-15.98-20.58-19.85-33.29
					c-0.73-2.3-1.09-4.6-0.85-7.02c0.61-3.99,3.39-6.42,7.51-6.17c3.87,0.12,7.38,1.69,11.02,2.78c1.33,0.48,0.97,1.57,0.85,2.54
					c-0.48,5.33-0.73,10.77-0.48,16.1C28.89,286.61,29.98,295.09,31.79,303.56z"/>
				<path class="st1" d="M148.61,141.34c-19.37,2.18-37.04,7.75-53.63,17.31c-0.24-1.21,0.24-1.94,0.48-2.66
					c1.45-3.87,2.91-7.75,4.84-11.5c1.09-2.18,1.33-2.18,3.27-0.97c0.97,0.61,1.82,1.33,2.66,1.94c3.87,3.03,5.08,2.78,8.23-1.09
					c1.45-1.82,3.15-3.51,4.6-5.45c1.09-1.45,2.18-1.57,3.63-0.48c1.09,0.85,2.18,1.57,3.39,2.18c2.66,1.45,4.6,1.09,6.54-1.21
					c1.82-2.18,3.39-4.48,5.21-6.66c0.61-0.73,1.09-1.69,2.54-2.06C143.04,134.08,145.71,137.47,148.61,141.34z"/>
				<path d="M86.63,263.61c-3.15-2.91-5.45-6.3-4.96-10.9c0.61-5.33,4.12-9.44,9.2-10.65c4.84-1.09,9.81,0.85,12.59,5.08
					c2.78,4.36,2.54,10.05-0.73,14.16c-0.48,0.61-0.97,1.21-1.57,1.82C96.44,266.27,91.59,266.52,86.63,263.61z"/>
				<path d="M145.34,255.14c-0.73-0.36-1.45-0.61-2.18-0.97c-5.93-3.15-8.23-10.05-5.21-15.98c2.91-5.69,10.05-8.11,15.86-5.33
					s8.23,9.68,5.69,15.62c-0.36,0.73-0.73,1.45-0.97,2.06C154.91,254.65,150.67,256.47,145.34,255.14z"/>
				<path class="st2" d="M145.34,255.14c5.33,1.33,9.56-0.48,13.07-4.48c3.39-0.61,6.9-0.61,10.41-0.48c0.97,0,2.06,0.24,2.91,0.61
					c3.87,1.33,4.6,4.84,1.57,7.51c-2.66,2.42-6.05,3.51-9.32,4.36c-4.48,1.09-8.96,2.06-13.68,1.82c-1.57-0.12-3.15-0.48-4.6-1.09
					c-2.66-1.33-3.27-3.63-1.69-6.17C144.5,256.47,145.22,255.98,145.34,255.14z"/>
				<path class="st2" d="M86.63,263.61c4.96,2.91,9.81,2.78,14.65-0.48c0.73,0.36,1.45,0.73,2.06,1.21
					c1.94,1.69,2.18,3.87,0.48,5.93c-1.21,1.45-2.91,2.54-4.72,3.15c-6.3,2.54-12.83,3.75-19.73,3.63c-1.45,0-2.91-0.48-4.12-1.21
					c-2.66-1.57-3.03-4.6-0.73-6.66c2.18-1.94,4.96-3.15,7.75-3.99C83.73,264.7,85.18,264.1,86.63,263.61z"/>
				<path d="M124.4,270.03c-4.24,0.48-8.23-0.36-11.86-2.78c-1.82-1.21-2.18-2.54-1.33-3.87c0.73-1.21,2.18-1.33,3.87-0.61
					c0.73,0.36,1.33,0.73,2.06,1.09c4.6,2.06,9.32,0.97,12.83-2.78c0.73-0.85,1.33-1.82,2.06-2.66c0.97-1.21,2.18-1.69,3.51-0.97
					c1.33,0.61,1.57,2.18,0.73,3.75C133.6,265.91,129.73,268.94,124.4,270.03z"/>
				
					<ellipse transform="matrix(0.9859 -0.1676 0.1676 0.9859 -43.9371 18.7394)" class="st2" cx="89.06" cy="269.68" rx="16.83" ry="8.11"/>
				<circle cx="93.05" cy="254.17" r="12.47"/>
				
					<ellipse transform="matrix(0.9798 -0.1998 0.1998 0.9798 -47.9849 36.962)" class="st2" cx="159.13" cy="256.22" rx="16.83" ry="8.11"/>
				<circle cx="148.49" cy="243.27" r="12.47"/>
			</g>
		</g>
	</g>
</g>
<g id="Layer_2_00000060726241197622337410000001819051058907505847_">
	<g>
		<g>
			<g>
				<path d="M301.03,154.42c6.54-5.33,13.56-9.2,22.15-9.2c8.6,0,15.5,3.87,21.67,10.05c9.08-8.11,19.37-10.65,30.99-7.99
					c11.5,2.66,18.76,10.77,24.94,20.1c9.44-4.84,19.25-6.17,29.42-4.72c9.93,1.45,17.19,6.66,21.55,15.74
					c1.33,2.66,2.3,5.57,3.51,8.35c1.09,0.48,1.94-0.48,2.78-0.85c3.63-1.69,7.51-2.78,11.5-3.63c12.95-2.78,20.58,5.93,22.88,16.1
					c1.82,7.75,0.48,15.25-3.03,22.27c-0.73,1.45-1.45,2.42,0.36,3.63c1.57,1.09,1.57,3.15,1.45,4.96
					c-0.48,17.67-3.51,34.86-10.41,51.21c-1.57,3.87-2.66,4.6-6.78,3.99c-2.54-0.36-2.78,1.09-3.15,2.66
					c-2.06,8.72-4.48,17.43-7.38,25.91c-4.48,13.07-7.51,26.51-12.83,39.34c-3.63,8.96-7.02,18.16-12.23,26.39
					c-5.93,9.2-14.28,14.16-24.57,16.59c-11.98,2.78-24.09,2.54-36.2,1.57c-27.6-2.18-54.11-8.6-80.02-17.92
					c-12.23-4.36-23.97-10.17-35.35-16.46c-3.51-1.94-6.78-4.48-9.56-7.38c-4.36-4.72-6.05-10.53-6.3-16.83
					c-0.36-9.32,0.36-18.64,0.97-27.84c1.09-17.19,1.69-34.5,3.51-51.69c0.48-4.48,0.97-8.96,1.45-13.44
					c0.24-1.82,0.36-3.15-1.94-3.75c-2.3-0.61-3.15-2.54-3.27-4.84c-0.97-18.64,1.69-36.8,9.32-53.99c1.33-3.03,3.63-4.24,6.78-4.36
					c-1.94-9.56,0-18.04,5.45-25.66c5.93-8.23,17.19-10.77,25.54-5.57C297.15,148.97,298.97,151.63,301.03,154.42z M257.69,247.27
					c-1.45,10.53-1.69,21.19-2.54,31.84c-0.61,8.23-1.09,16.46-1.45,24.7c-0.48,10.29-1.69,20.7-1.33,30.99
					c0.12,2.66,0,5.45,0.48,8.11c1.33,6.9,6.05,11.14,11.86,14.41c22.52,12.71,46.61,21.31,71.67,27.24
					c15.98,3.75,32.08,6.05,48.54,7.02c8.23,0.48,16.46,0.12,24.7-1.33c3.27-0.61,6.54-1.09,9.56-2.3
					c7.63-2.91,12.35-8.72,16.22-15.5c4.48-8.11,7.87-16.83,11.02-25.66c4.48-12.83,8.47-25.91,12.47-38.98
					c2.3-7.38,4.84-14.77,6.17-22.52c0.97-2.06-0.24-2.54-2.06-2.78c-13.44-2.54-26.75-5.08-40.19-7.75
					c-13.68-2.66-27.36-5.21-41.04-7.75c-22.4-4.24-44.79-8.6-67.07-12.83c-17.67-3.39-35.35-6.78-52.9-10.17
					C258.17,243.27,258.17,243.39,257.69,247.27z M253.09,225.24c0,1.94,0,3.87,0,5.81c0,5.21,0,5.21,5.08,6.17
					c31.96,6.05,63.92,12.23,95.88,18.28c38.86,7.38,77.84,14.89,116.7,22.27c4.6,0.85,4.72,0.97,6.17-3.39
					c4.6-13.56,7.75-27.36,8.6-41.77c0.24-3.51,0.24-3.51-3.39-4.24c-21.06-4.12-42.01-8.35-63.07-12.59
					c-51.33-10.17-102.66-20.22-153.99-30.39c-3.51-0.73-3.51-0.73-4.84,2.78C255.75,200.18,253.33,212.52,253.09,225.24z
					 M487.09,204.78c0-0.97,0.12-1.82,0-2.66c-0.85-7.14-5.33-15.62-15.62-14.16c-3.15,0.48-6.17,0.85-9.08,2.3
					c-2.18,1.21-4.48,2.3-6.78,3.39c-2.78,1.21-4.12,0.61-5.21-2.18c-0.97-2.66-1.82-5.45-2.91-7.99
					c-1.57-3.87-3.63-7.51-7.14-10.17c-7.26-5.45-15.5-5.69-23.97-4.84c-5.08,0.48-9.81,2.66-14.41,4.84
					c-3.03,1.45-3.63,1.21-5.57-1.45c-1.21-1.69-2.3-3.51-3.51-5.21c-5.21-6.9-11.14-12.59-20.34-13.56
					c-6.17-0.73-12.35-1.09-17.92,2.42c-2.3,1.45-4.6,2.91-6.66,4.6c-3.51,2.66-3.87,2.78-7.14-0.24c-0.97-0.85-1.69-1.69-2.54-2.54
					c-2.42-2.06-4.96-3.75-8.11-4.6c-10.05-2.78-18.64,0-26.03,7.02c-4.48,4.24-4.96,4.24-7.75-1.21
					c-3.75-7.38-10.77-9.81-17.67-6.17c-7.51,3.87-12.59,17.55-9.44,25.06c0.85,1.94,1.94,3.03,4.12,3.39
					c15.86,2.91,31.72,6.05,47.58,9.32c21.06,4.24,42.25,8.6,63.31,12.47c10.77,1.94,21.43,4.48,32.08,6.42
					c17.19,3.15,34.26,6.9,51.45,10.29c3.75,0.73,7.63,1.33,11.5,1.94c2.06,0.36,3.27-0.61,4.36-2.42
					C485.76,214.58,487.09,209.86,487.09,204.78z"/>
				<path class="st3" d="M465.18,285.4c-1.45,7.63-3.87,15.01-6.17,22.52c-3.99,13.07-7.99,26.03-12.47,38.98
					c-3.03,8.72-6.42,17.43-11.02,25.66c-3.75,6.78-8.6,12.59-16.22,15.5c-3.15,1.21-6.42,1.69-9.56,2.3
					c-8.11,1.45-16.34,1.82-24.7,1.33c-16.34-1.09-32.56-3.27-48.54-7.02c-25.06-5.93-49.15-14.41-71.67-27.24
					c-5.81-3.27-10.53-7.51-11.86-14.41c-0.48-2.66-0.48-5.33-0.48-8.11c-0.36-10.41,0.85-20.7,1.33-30.99
					c0.36-8.23,0.85-16.46,1.45-24.7c0.85-10.65,0.97-21.31,2.54-31.84c6.54,1.45,13.32,1.94,19.85,3.15
					c11.74,2.06,23.36,4.84,34.99,7.26c6.17,1.21,12.23,2.66,18.52,3.15c6.78,0.61,13.2,2.18,19.73,3.51
					c5.81,1.21,11.74,2.3,17.43,3.75c8.84,2.18,17.8,3.63,26.88,4.84c7.51,1.09,14.89,2.66,22.4,4.24
					c8.84,1.94,17.92,3.03,26.88,4.96C451.26,283.71,458.04,285.89,465.18,285.4z M405.5,360.82c0.97-0.73,1.94-1.33,2.91-2.18
					c4.6-3.87,7.38-8.72,7.14-14.77c-0.36-7.87-4.24-13.68-11.74-16.59c-6.9-2.66-13.32-1.45-18.76,3.63
					c-5.93,5.57-7.38,12.47-4.72,20.1c0.85,2.42,2.42,4.48,3.99,6.42c-0.73,0.24-1.33,0.61-2.06,0.85
					c-1.82,0.61-3.75,1.21-4.12,3.51c-0.48,2.54,1.09,3.99,2.78,5.21c2.54,1.94,5.57,2.78,8.6,3.39c4.84,0.85,9.56,2.3,14.53,0.73
					c5.33-1.69,6.17-4.48,2.54-8.84C406.11,361.79,405.86,361.31,405.5,360.82z M290.62,337.58c-1.45,0.48-2.91,0.73-4.24,1.33
					c-3.63,1.57-4.12,4.48-1.33,7.38c0.97,0.97,1.94,1.69,3.27,2.3c4.96,2.18,10.29,3.03,15.62,3.51c2.54,0.24,5.08-0.24,7.38-1.33
					c2.78-1.33,3.63-4.12,1.82-6.66c-0.61-0.85-1.45-1.45-2.18-2.18c1.21-0.85,2.54-1.45,3.75-2.42c6.42-4.84,8.84-11.14,7.38-18.89
					c-1.57-7.75-7.75-13.44-15.74-14.53c-7.75-1.09-15.01,2.66-18.64,9.68C283.23,323.66,285.17,330.8,290.62,337.58z M350.9,363.61
					c2.18,0,4.96-1.21,6.54-2.91c1.69-1.69,2.18-3.99,0.97-5.21c-1.69-1.69-3.27-0.73-4.72,0.48c-0.12,0.12-0.24,0.24-0.36,0.24
					c-1.57,1.45-3.03,1.69-4.48-0.24c-1.09-1.45-2.78-1.57-4.48-0.73c-1.82,0.97-2.78,0.12-3.39-1.57
					c-0.24-0.73-0.36-1.45-0.85-2.06c-0.61-0.85-1.57-1.45-2.78-1.21c-1.21,0.24-1.69,1.21-1.82,2.3c-0.73,4.12,2.78,8.96,6.9,8.84
					c2.06,0,3.75,0.24,5.45,1.33C348.97,363.49,349.93,363.73,350.9,363.61z"/>
				<path class="st4" d="M253.09,225.24c0.24-12.71,2.54-25.06,7.14-36.92c1.33-3.39,1.33-3.51,4.84-2.78
					c51.33,10.17,102.66,20.22,153.99,30.39c21.06,4.12,42.01,8.35,63.07,12.59c3.63,0.73,3.63,0.73,3.39,4.24
					c-0.97,14.28-3.99,28.21-8.6,41.77c-1.45,4.36-1.57,4.36-6.17,3.39c-38.86-7.38-77.84-14.89-116.7-22.27
					c-31.96-6.05-63.92-12.23-95.88-18.28c-5.08-0.97-5.08-0.97-5.08-6.17C253.09,229.11,253.09,227.17,253.09,225.24z"/>
				<path class="st5" d="M487.09,204.78c0.12,5.08-1.21,9.68-3.63,14.16c-0.97,1.82-2.3,2.78-4.36,2.42
					c-3.87-0.61-7.63-1.21-11.5-1.94c-17.19-3.39-34.26-7.14-51.45-10.29c-10.77-2.06-21.43-4.48-32.08-6.42
					c-21.19-3.87-42.25-8.23-63.31-12.47c-15.86-3.15-31.72-6.3-47.58-9.32c-2.3-0.48-3.39-1.45-4.12-3.39
					c-3.15-7.51,1.94-21.19,9.44-25.06c6.9-3.63,13.92-1.21,17.67,6.17c2.78,5.57,3.27,5.57,7.75,1.21
					c7.38-7.02,15.98-9.81,26.03-7.02c3.15,0.85,5.69,2.54,8.11,4.6c0.97,0.85,1.69,1.69,2.54,2.54c3.39,2.91,3.63,2.78,7.14,0.24
					c2.18-1.57,4.48-3.15,6.66-4.6c5.57-3.51,11.74-3.15,17.92-2.42c9.08,0.97,15.13,6.66,20.34,13.56c1.21,1.69,2.3,3.51,3.51,5.21
					c1.94,2.78,2.54,2.91,5.57,1.45c4.6-2.18,9.32-4.36,14.41-4.84c8.47-0.85,16.71-0.61,23.97,4.84c3.51,2.66,5.57,6.17,7.14,10.17
					c1.09,2.66,1.94,5.33,2.91,7.99c1.09,2.78,2.42,3.39,5.21,2.18c2.3-0.97,4.6-2.18,6.78-3.39c2.78-1.57,5.93-1.94,9.08-2.3
					c10.29-1.45,14.77,7.02,15.62,14.16C487.22,202.96,487.09,203.93,487.09,204.78z M329.35,181.65c3.03,0,5.45-2.06,6.17-4.84
					c0.61-2.42-0.73-3.99-2.54-5.21c-1.69-1.21-2.78-0.36-3.63,0.97c-0.61,0.97-1.45,0.61-2.42,0.36c-2.3-0.48-2.91,0.85-3.03,2.78
					C323.54,179.11,325.96,181.65,329.35,181.65z M375.96,170.88c-0.97,0-1.94,0-2.78,0.85c-1.33,1.45-0.85,5.21,0.97,5.93
					c1.57,0.61,2.91,1.57,3.99,2.78c1.09,1.09,2.18,1.57,3.63,0.61c1.21-0.85,1.82-1.94,1.57-3.51
					C382.86,174.51,379.11,171.12,375.96,170.88z M427.53,199.21c-0.24,1.57,0.12,3.03,2.06,3.75c1.69,0.73,3.03-0.24,4.12-1.21
					c1.33-1.09,1.45-3.27,3.39-3.87c0.12,0,0.36-0.97,0.24-1.21c-0.85-1.57-1.69-3.27-3.39-3.99c-1.82-0.73-3.51,0.24-4.84,1.57
					C428.02,195.58,427.41,197.15,427.53,199.21z"/>
				<path class="st6" d="M465.18,285.4c-7.14,0.48-13.92-1.82-20.7-3.15c-8.96-1.94-17.92-3.03-26.88-4.96
					c-7.38-1.57-14.89-3.27-22.4-4.24c-9.08-1.33-18.04-2.78-26.88-4.84c-5.81-1.45-11.62-2.54-17.43-3.75
					c-6.54-1.33-13.07-2.91-19.73-3.51c-6.17-0.48-12.35-1.94-18.52-3.15c-11.74-2.42-23.24-5.21-34.99-7.26
					c-6.54-1.21-13.32-1.69-19.85-3.15c0.36-3.99,0.36-3.99,4.12-3.27c17.67,3.39,35.35,6.78,52.9,10.17
					c22.4,4.36,44.67,8.6,67.07,12.83c13.68,2.66,27.36,5.21,41.04,7.75c13.44,2.54,26.75,5.21,40.19,7.75
					C464.82,282.86,466.03,283.34,465.18,285.4z"/>
				
					<ellipse transform="matrix(0.1639 -0.9865 0.9865 0.1639 -30.9475 692.6963)" class="st2" cx="393.17" cy="364.6" rx="8.6" ry="16.83"/>
				
					<ellipse transform="matrix(0.1639 -0.9865 0.9865 0.1639 -89.1187 582.9957)" class="st2" cx="299.36" cy="344.07" rx="8.47" ry="16.83"/>
				<circle cx="304.05" cy="323.9" r="19.01"/>
				<circle cx="397.75" cy="345.08" r="19.01"/>
				<path d="M350.9,363.61c-0.97,0-1.94-0.12-2.91-0.73c-1.69-1.09-3.39-1.33-5.45-1.33c-4.12,0.12-7.75-4.72-6.9-8.84
					c0.24-1.09,0.61-2.06,1.82-2.3c1.21-0.24,2.06,0.36,2.78,1.21c0.48,0.61,0.61,1.33,0.85,2.06c0.61,1.69,1.57,2.54,3.39,1.57
					c1.69-0.85,3.27-0.85,4.48,0.73c1.57,1.94,2.91,1.69,4.48,0.24c0.12-0.12,0.24-0.24,0.36-0.24c1.45-1.21,3.03-2.18,4.72-0.48
					c1.21,1.21,0.61,3.51-0.97,5.21C355.87,362.4,353.08,363.61,350.9,363.61z"/>
				<path d="M329.35,181.65c-3.51,0-5.93-2.54-5.57-5.93c0.24-1.82,0.85-3.27,3.03-2.78c0.85,0.24,1.69,0.61,2.42-0.36
					c0.97-1.33,2.06-2.18,3.63-0.97c1.82,1.33,3.15,2.78,2.54,5.21C334.92,179.72,332.5,181.65,329.35,181.65z"/>
				<path d="M375.96,170.88c3.15,0.24,6.78,3.63,7.26,6.54c0.24,1.57-0.36,2.66-1.57,3.51c-1.33,0.97-2.54,0.48-3.63-0.61
					c-1.09-1.21-2.42-2.06-3.99-2.78c-1.82-0.73-2.3-4.48-0.97-5.93C374.03,170.88,374.99,170.88,375.96,170.88z"/>
				<path d="M427.53,199.21c-0.12-2.06,0.48-3.63,1.57-4.84c1.21-1.33,2.91-2.3,4.84-1.57c1.69,0.61,2.54,2.42,3.39,3.99
					c0.12,0.36,0,1.21-0.24,1.21c-2.06,0.61-2.18,2.78-3.39,3.87c-1.09,0.97-2.42,1.82-4.12,1.21
					C427.78,202.11,427.29,200.66,427.53,199.21z"/>
				<path class="st7" d="M291.58,325.84c-0.48-8.72,3.75-13.56,12.11-14.16C303.57,319.18,299.21,324.38,291.58,325.84z"/>
				<path class="st7" d="M305.02,336.49c0.36-6.42,4.24-11.38,11.02-14.04C317.73,329.59,312.65,336,305.02,336.49z"/>
				<path class="st8" d="M385.53,345.81c-1.09-7.38,3.99-13.56,11.02-13.8c2.3,0,2.66,0.36,2.18,2.54
					c-0.97,4.24-3.15,7.75-7.26,9.56C389.52,344.96,387.58,345.69,385.53,345.81z"/>
				<path class="st9" d="M409.13,343.39c0.48,6.78-2.91,11.26-9.32,12.35C400.05,350.05,403.93,344.84,409.13,343.39z"/>
			</g>
		</g>
	</g>
</g>
</svg>
