<?xml version="1.0" encoding="utf-8"?>
<!-- Generator: Adobe Illustrator 26.2.1, SVG Export Plug-In . SVG Version: 6.00 Build 0)  -->
<svg version="1.1" id="Layer_6" xmlns="http://www.w3.org/2000/svg" xmlns:xlink="http://www.w3.org/1999/xlink" x="0px" y="0px"
	 viewBox="0 0 500 500" style="enable-background:new 0 0 500 500;" xml:space="preserve">
<style type="text/css">
	.st0{fill:none;stroke:url(#SVGID_1_);stroke-width:8.1967;stroke-linecap:round;stroke-linejoin:round;stroke-miterlimit:10;}
</style>
<linearGradient id="SVGID_1_" gradientUnits="userSpaceOnUse" x1="162.2017" y1="312.601" x2="462.0984" y2="312.601" gradientTransform="matrix(1 0 0 -1 0 500)">
	<stop  offset="0" style="stop-color:#919CBE"/>
	<stop  offset="1" style="stop-color:#BE6457"/>
</linearGradient>
<path class="st0" d="M415.6,253.4c8.9-8.5,14.1-20.7,14.2-33c2,7.2,4,14.3,6,21.5c14-16.8,13.4-41.1,12.1-62.9
	c3.4,0.5,6.7,1,10.1,1.5c-0.8-9.7-7.1-18.8-16-22.9c4.7-6.2,9.5-12.3,14.2-18.5c-10.5,2.7-22.2,0.5-30.9-6
	c-5.7-4.2-11.5-10.4-18.3-8.8c6.6-4.8,13.2-9.5,19.8-14.2c-22.1-5-46.6,2.3-63.8,17.4c-5.1-17.8-22.2-30.2-40.1-34.8
	c-18-4.6-36.9-2.7-55.3-0.3c-18.4,2.4-37,5.3-55.4,2.5c-0.1,9.4,6.2,18.5,12.8,26.4c-23.1,8.3-40.3,31.1-41.8,55.6
	c-0.6,9,0.8,18.1-0.8,26.9c-1.6,8.9-7.2,17.9-16,19.7c6.9,4.9,18.4,1.3,23.4,8.2c1.5,2.1,2,4.7,2.3,7.3c1.9,14.6,0.3,29.6-3.5,46.2
	c8-1.9,15.1-7.1,19.3-14.2c2.6,5.2,6.3,9.8,10.9,13.4c1.8-8,2.8-16.1,2.8-24.3c3.1,4,6.5,7.8,10.2,11.3
	c-3.9-20.2,8.1-42.4,27.2-49.9c25,0.6,49.9-11.1,66.5-30.9c-2.6,13.2-5.3,26.4-7.9,39.5c24.4-12.3,42.4-36.5,48-61.7
	c8.3,10,18.2,18.7,29.2,25.5c1.4,0.9,2.8,1.7,3.9,3c1.3,1.6,1.7,3.6,2.1,5.6c3.3,15.7,3.4,32-0.1,47.6"/>
</svg>
