<?xml version="1.0" encoding="utf-8"?>
<!-- Generator: Adobe Illustrator 26.1.0, SVG Export Plug-In . SVG Version: 6.00 Build 0)  -->
<svg version="1.1" id="Layer_2" xmlns="http://www.w3.org/2000/svg" xmlns:xlink="http://www.w3.org/1999/xlink" x="0px" y="0px"
	 viewBox="0 0 500 500" style="enable-background:new 0 0 500 500;" xml:space="preserve">
<style type="text/css">
	.st0{fill:#4F4F4F;}
	.st1{fill:#FCFDFD;}
	.st2{fill:#A97333;}
	.st3{fill:#E9B6B6;}
</style>
<g>
	<path d="M289.04,220.43c0.52-2.94,1.1-5.84,1.55-8.76c1.1-7.19,3.06-14.15,5.6-20.95c0.32-0.87,0.69-1.73,1.08-2.57
		c2.07-4.48,4.88-5.67,9.48-4.03c2.36,0.84,3.59,2.54,3.6,5.06c0.01,1.88-0.47,3.69-1.03,5.46c-3.1,9.83-6.88,19.42-10.58,29.04
		c-0.27,0.69-0.57,1.37-0.79,2.08c-0.16,0.51-0.39,1.14,0.38,1.37c0.58,0.17,1.24,0.65,1.79-0.03c0.47-0.58,0.9-1.18,1.29-1.81
		c3.11-4.96,6.19-9.94,9.3-14.89c2.48-3.93,5.05-7.8,8.01-11.4c0.41-0.5,0.83-1,1.26-1.49c1.7-1.9,3.45-3.91,6.38-2.86
		c3.41,1.22,5.99,3.4,6.74,7.15c0.44,2.18-0.57,4.02-1.91,5.63c-2.67,3.22-5.31,6.47-8.15,9.53c-4.93,5.31-9.72,10.77-15.19,15.55
		c-1.43,1.25-1.05,3.4,0.7,4.2c1.52,0.69,3.15,1.15,4.52,2.14c2.67,1.92,5.11,4.05,6.45,7.16c0.88,2.04,2.32,3.52,4.21,4.67
		c3.04,1.86,5.77,4.1,7.52,7.29c0.55,1,1.37,1.03,2.31,1.18c2.77,0.45,3.28,1.02,3.45,3.77c0.98,15.51-0.9,30.6-6.59,45.14
		c-1.71,4.36-3.97,8.41-6.78,12.13c-4.54,6.01-9.29,11.85-14.57,17.24c-5.71,5.82-12.16,10.63-19.26,14.6
		c-2.16,1.21-4.37,1.76-6.9,1.71c-20.64-0.4-41.27-0.72-61.91-1c-3.08-0.04-5.78-0.85-8.4-2.47c-23.1-14.31-36.93-35.01-42.53-61.42
		c-1.8-8.49-2.78-17.05-2.51-25.74c0.12-3.76,0.53-4.32,4.29-4.59c0.97-0.07,1.39-0.39,1.77-1.32c1.57-3.87,4.26-6.51,8.54-7.15
		c0.95-0.14,1.44-0.54,1.86-1.38c1.71-3.47,4.43-5.91,7.91-7.54c1.18-0.55,2.3-1.22,3.46-1.79c2.08-1.02,3.63-2.53,4.61-4.65
		c1.63-3.52,4.16-5.9,8.22-6.22c0.92-0.07,1.52-0.54,2.02-1.28c2.67-3.93,6.22-6.52,10.96-7.53c2.09-0.45,3.95-1.53,5.49-3.13
		c1.93-2,4.4-2.77,7.11-2.55c1.13,0.09,1.92-0.24,2.81-0.82c3.86-2.49,7.96-3.49,12.44-1.79c0.78,0.3,1.62,0.4,2.41,0.66
		c1.99,0.65,3.82,0.4,5.58-0.72c1.51-0.96,3.2-1.46,4.94-1.82c4.47-0.91,8.46,0.72,10.71,4.64c0.83,1.46,1.63,2.12,3.43,1.99
		c3.63-0.27,6.92,1.04,10.03,2.84C287.03,219.46,287.73,220.29,289.04,220.43z M240.98,263.37c0-0.02,0-0.05,0-0.07
		c-21.76,0-43.52,0-65.28,0c-0.65,0-1.3-0.02-1.95,0.01c-1.91,0.08-1.96,0.14-2.03,2.13c-0.15,4.19,0.44,8.3,1.05,12.43
		c1.23,8.36,3,16.58,5.91,24.53c4.01,10.93,9.98,20.65,17.95,29.18c5.63,6.02,12.06,10.95,19.05,15.26
		c1.49,0.92,2.94,1.36,4.68,1.39c7.05,0.15,14.1,0.1,21.15,0.36c13.92,0.51,27.87-0.02,41.79,0.71c1.25,0.07,2.36-0.26,3.47-0.83
		c6.21-3.23,11.83-7.3,16.96-12.04c3.96-3.66,7.39-7.82,10.83-11.95c2.31-2.77,4.57-5.6,6.65-8.55c4.3-6.08,6.46-13.11,8.44-20.17
		c1.25-4.45,1.93-9.02,2.41-13.64c0.55-5.26,1.1-10.5,0.97-15.79c-0.06-2.39-0.06-2.44-2.27-2.46c-8.45-0.08-16.89-0.28-25.34-0.4
		C283.95,263.16,262.47,263.37,240.98,263.37z M177.67,258.09c0.31,0.48,0.69,0.41,1.05,0.42c49.1,0.28,98.2,0.51,147.3,0.44
		c0.06,0,0.12-0.11,0.16-0.18c0.05-0.08,0.07-0.17,0.13-0.31c-1.39-1.75-3.18-3.05-5.08-4.23c-2.25-1.4-4.07-3.17-5.14-5.69
		c-1.83-4.29-5.15-7.04-9.57-8.28c-2.12-0.59-3.16-1.83-3.48-3.81c-0.45-2.79-2.26-4.38-4.81-4.74c-3.83-0.55-6.75-2.44-9.34-5.11
		c-0.78-0.8-1.6-1.56-2.46-2.27c-3.57-2.93-7.47-4.75-12.29-4.1c-3.04,0.41-3.06,0.27-4.48-2.7c-1.67-3.49-3.98-4.55-7.73-3.55
		c-1.08,0.29-2.13,0.68-3.07,1.28c-2.62,1.68-5.42,1.72-8.31,0.9c-1.07-0.3-2.16-0.57-3.21-0.94c-3.39-1.2-6.47-0.44-9.15,1.7
		c-1.34,1.07-2.6,1.65-4.3,1.39c-1.55-0.24-3,0.17-4.11,1.29c-2.45,2.48-5.53,3.73-8.82,4.48c-2.67,0.61-4.77,1.99-6.47,4.08
		c-0.76,0.94-1.48,1.91-2.23,2.86c-0.65,0.82-1.42,1.61-2.5,1.61c-3.28,0.02-4.99,1.95-6.26,4.67c-1.09,2.34-2.88,4.09-5.2,5.26
		c-1.99,1-3.98,1.99-5.96,3.02c-2.31,1.2-4.15,2.96-4.99,5.4c-0.71,2.06-1.83,2.96-4.01,3.09
		C180.71,254.25,178.57,255.42,177.67,258.09z M303.77,229.83c1.75-0.78,2.83-1.86,3.94-2.92c4.43-4.23,8.46-8.85,12.65-13.31
		c2.53-2.7,4.88-5.59,7.16-8.5c1.83-2.33,1.29-4.29-1.24-5.69c-0.94-0.52-1.7-0.62-2.43,0.3c-1.16,1.44-2.42,2.81-3.53,4.29
		c-5.94,7.96-10.73,16.68-16.47,24.77C303.77,228.9,303.82,229.12,303.77,229.83z M293.43,225.12c0.66-1.57,1.16-2.65,1.57-3.75
		c2.72-7.2,5.44-14.4,8.12-21.61c1.13-3.04,2.12-6.14,2.73-9.33c0.34-1.78-0.14-2.31-1.94-2.44c-1.49-0.11-2.19,0.7-2.69,1.92
		c-1.01,2.49-1.95,5-2.81,7.56c-2.57,7.68-3.76,15.67-5.44,23.54C292.75,222.14,292.46,223.35,293.43,225.12z"/>
	<path class="st0" d="M240.98,263.37c21.48,0,42.97-0.21,64.45,0.1c8.44,0.12,16.89,0.32,25.34,0.4c2.21,0.02,2.21,0.07,2.27,2.46
		c0.12,5.29-0.43,10.53-0.97,15.79c-0.48,4.63-1.16,9.19-2.41,13.64c-1.98,7.06-4.14,14.09-8.44,20.17
		c-2.08,2.95-4.34,5.78-6.65,8.55c-3.44,4.13-6.88,8.29-10.83,11.95c-5.12,4.74-10.75,8.81-16.96,12.04
		c-1.1,0.57-2.21,0.89-3.47,0.83c-13.92-0.73-27.87-0.21-41.79-0.71c-7.06-0.26-14.1-0.21-21.15-0.36
		c-1.74-0.04-3.19-0.47-4.68-1.39c-6.99-4.31-13.42-9.24-19.05-15.26c-7.98-8.52-13.95-18.24-17.95-29.18
		c-2.91-7.94-4.67-16.17-5.91-24.53c-0.61-4.13-1.2-8.25-1.05-12.43c0.07-1.99,0.12-2.04,2.03-2.13c0.65-0.03,1.3-0.01,1.95-0.01
		c21.76,0,43.52,0,65.28,0C240.98,263.32,240.98,263.35,240.98,263.37z M282.25,309.74c-0.2,0.18-0.37,0.41-0.6,0.53
		c-1.55,0.82-2.89,1.87-2.61,3.83c0.27,1.91,1.86,2.62,3.47,3.2c0.34,0.12,0.72,0.18,1.08,0.26c3.76,0.79,7.52,0.65,11.28,0.06
		c1.56-0.24,3.09-0.63,4.49-1.36c3.03-1.57,3.21-4.19,0.46-6.25c-0.29-0.22-0.59-0.43-0.88-0.65c-0.12-0.83,0.35-1.39,0.86-1.96
		c2.52-2.81,3.72-6.05,3.68-9.88c-0.06-6.49-5.27-12.57-12.68-12.96c-6.15-0.33-11.1,3.8-13.04,8.21
		c-2.58,5.87-0.38,12.03,3.48,15.46C281.71,308.67,282.32,308.96,282.25,309.74z M213.61,309.64c-1.57-0.08-2.92,0.52-4.1,1.46
		c-1.91,1.51-1.87,3.69,0.04,5.17c0.82,0.63,1.76,1.02,2.78,1.22c4.99,1,9.94,0.89,14.81-0.66c1.71-0.54,3.34-1.34,3.7-3.36
		c0.38-2.19-1.32-3.06-2.77-4.05c0.08-0.52,0.51-0.72,0.85-1.02c3.74-3.33,6.69-9.27,4.13-15.53c-2.67-6.52-8.65-9.94-15.36-8.67
		c-6.21,1.18-10.13,5.11-11.24,11.88C205.75,300.3,207.69,306.7,213.61,309.64z M258.46,319.1c2.55,0,6.03-2.91,6.4-5.05
		c0.18-1.05-0.26-1.8-1.08-2.36c-0.85-0.58-1.64-0.2-2.28,0.34c-0.56,0.47-0.95,1.12-1.43,1.68c-0.68,0.81-1.38,1.14-2.34,0.29
		c-1.05-0.93-2.18-1.2-3.54-0.39c-1.86,1.11-1.91,1.04-3.02-0.75c-0.19-0.31-0.34-0.67-0.58-0.94c-0.56-0.62-1.3-0.73-2.03-0.43
		c-0.8,0.33-1.5,0.94-1.38,1.88c0.26,1.94,2.63,5.15,4.41,5.24C254,318.74,256.51,317.49,258.46,319.1z"/>
	<path class="st1" d="M177.67,258.09c0.9-2.67,3.04-3.84,5.66-4.01c2.19-0.14,3.3-1.04,4.01-3.09c0.85-2.44,2.68-4.21,4.99-5.4
		c1.98-1.02,3.97-2.02,5.96-3.02c2.32-1.17,4.11-2.92,5.2-5.26c1.27-2.72,2.98-4.65,6.26-4.67c1.08-0.01,1.85-0.79,2.5-1.61
		c0.75-0.95,1.46-1.92,2.23-2.86c1.69-2.08,3.8-3.47,6.47-4.08c3.29-0.75,6.37-2,8.82-4.48c1.11-1.12,2.56-1.53,4.11-1.29
		c1.7,0.26,2.96-0.32,4.3-1.39c2.68-2.14,5.76-2.9,9.15-1.7c1.05,0.37,2.13,0.64,3.21,0.94c2.89,0.82,5.68,0.78,8.31-0.9
		c0.94-0.61,1.99-1,3.07-1.28c3.75-1,6.07,0.06,7.73,3.55c1.42,2.97,1.44,3.11,4.48,2.7c4.82-0.65,8.72,1.16,12.29,4.1
		c0.86,0.71,1.69,1.47,2.46,2.27c2.59,2.67,5.51,4.56,9.34,5.11c2.55,0.36,4.35,1.95,4.81,4.74c0.32,1.98,1.35,3.21,3.48,3.81
		c4.42,1.24,7.74,3.99,9.57,8.28c1.07,2.52,2.89,4.29,5.14,5.69c1.9,1.18,3.69,2.48,5.08,4.23c-0.06,0.14-0.08,0.23-0.13,0.31
		c-0.04,0.07-0.11,0.18-0.16,0.18c-49.1,0.07-98.2-0.16-147.3-0.44C178.36,258.5,177.98,258.57,177.67,258.09z M205.63,252.32
		c2.42-0.07,5.63-3.05,5.84-5.33c0.09-1.03-0.19-1.84-1.23-2.24c-0.92-0.36-1.63,0.02-2.19,0.72c-0.23,0.29-0.38,0.64-0.56,0.96
		c-0.68,1.18-1.42,2.13-3.06,1.76c-0.89-0.2-1.64,0.33-1.9,1.25c-0.3,1.05,0.25,1.76,1.08,2.33
		C204.25,252.23,204.97,252.3,205.63,252.32z M239.92,251.07c1.98-0.12,3.5-1.1,4.63-2.67c0.91-1.26,0.87-2.53,0.03-3.27
		c-0.87-0.76-1.84-0.56-3.08,0.71c-0.64,0.66-1.11,1.46-2.27,0.82c-1.02-0.57-2.05-0.38-2.6,0.72c-0.59,1.19,0.01,2.17,0.96,2.89
		C238.26,250.77,239.04,251.08,239.92,251.07z M270.94,240.33c1.23-0.16,2.46-0.48,3.37-1.52c0.73-0.83,1.08-1.79,0.44-2.76
		c-0.68-1.03-1.7-1.03-2.67-0.42c-0.87,0.54-1.56,0.83-2.39-0.11c-0.78-0.88-1.8-0.95-2.66-0.07c-0.82,0.84-0.7,1.87-0.16,2.8
		C267.76,239.76,269.28,240.12,270.94,240.33z M304.95,253.81c0.96-0.1,1.86-0.54,2.25-1.6c0.34-0.89,0.01-1.7-0.81-2.11
		c-0.75-0.37-0.77-0.86-0.71-1.56c0.09-0.92-0.36-1.61-1.28-1.89c-0.88-0.26-1.63,0.08-2.29,0.64c-1.15,0.98-1.53,2.62-0.96,4.02
		C301.76,252.77,303.38,253.88,304.95,253.81z M230.27,224.8c-1.63,0.01-3.1,0.5-4.4,1.49c-0.78,0.59-1.28,1.35-1.29,2.35
		c-0.01,1.39,1.41,2.54,2.41,1.73c1.56-1.26,3.22-1.61,5.08-1.81c0.77-0.08,1.19-0.86,1.2-1.69c0.01-0.81-0.37-1.41-1.09-1.8
		C231.58,224.76,230.92,224.81,230.27,224.8z"/>
	<path class="st2" d="M303.77,229.83c0.05-0.71,0-0.93,0.08-1.05c5.74-8.09,10.54-16.81,16.47-24.77c1.11-1.48,2.37-2.85,3.53-4.29
		c0.74-0.91,1.49-0.81,2.43-0.3c2.52,1.39,3.06,3.36,1.24,5.69c-2.29,2.91-4.63,5.8-7.16,8.5c-4.19,4.46-8.22,9.08-12.65,13.31
		C306.6,227.97,305.52,229.05,303.77,229.83z"/>
	<path class="st2" d="M293.43,225.12c-0.97-1.77-0.69-2.99-0.45-4.11c1.68-7.88,2.86-15.87,5.44-23.54c0.86-2.55,1.8-5.06,2.81-7.56
		c0.49-1.22,1.2-2.03,2.69-1.92c1.8,0.14,2.28,0.66,1.94,2.44c-0.61,3.2-1.6,6.29-2.73,9.33c-2.68,7.21-5.4,14.41-8.12,21.61
		C294.59,222.47,294.1,223.55,293.43,225.12z"/>
	<ellipse class="st3" cx="290.5" cy="312.5" rx="12.5" ry="6.5"/>
	<ellipse class="st3" cx="219.5" cy="312.5" rx="12.5" ry="6.5"/>
	<circle cx="220" cy="298" r="14"/>
	<circle cx="290" cy="298" r="14"/>
	<path d="M258.46,319.1c-1.95-1.61-4.46-0.36-6.87-0.48c-1.78-0.09-4.15-3.3-4.41-5.24c-0.12-0.94,0.57-1.54,1.38-1.88
		c0.73-0.3,1.47-0.2,2.03,0.43c0.24,0.27,0.39,0.63,0.58,0.94c1.12,1.79,1.16,1.86,3.02,0.75c1.36-0.81,2.49-0.54,3.54,0.39
		c0.96,0.85,1.65,0.51,2.34-0.29c0.48-0.56,0.87-1.22,1.43-1.68c0.64-0.54,1.44-0.92,2.28-0.34c0.83,0.56,1.27,1.32,1.08,2.36
		C264.48,316.19,261.01,319.1,258.46,319.1z"/>
	<path d="M205.63,252.32c-0.65-0.01-1.37-0.08-2.02-0.53c-0.83-0.57-1.38-1.28-1.08-2.33c0.27-0.92,1.01-1.45,1.9-1.25
		c1.64,0.37,2.38-0.59,3.06-1.76c0.19-0.32,0.33-0.67,0.56-0.96c0.56-0.71,1.27-1.08,2.19-0.72c1.03,0.4,1.32,1.21,1.23,2.24
		C211.26,249.27,208.05,252.25,205.63,252.32z"/>
	<path d="M239.92,251.07c-0.88,0.02-1.66-0.29-2.33-0.8c-0.95-0.73-1.55-1.7-0.96-2.89c0.55-1.1,1.57-1.29,2.6-0.72
		c1.15,0.64,1.63-0.16,2.27-0.82c1.23-1.27,2.21-1.47,3.08-0.71c0.84,0.74,0.88,2.01-0.03,3.27
		C243.42,249.97,241.91,250.94,239.92,251.07z"/>
	<path d="M270.94,240.33c-1.66-0.21-3.19-0.58-4.07-2.09c-0.54-0.93-0.67-1.96,0.16-2.8c0.86-0.87,1.88-0.81,2.66,0.07
		c0.83,0.94,1.53,0.66,2.39,0.11c0.96-0.61,1.99-0.61,2.67,0.42c0.64,0.98,0.29,1.93-0.44,2.76
		C273.4,239.85,272.18,240.18,270.94,240.33z"/>
	<path d="M304.95,253.81c-1.57,0.07-3.19-1.04-3.79-2.5c-0.58-1.4-0.19-3.04,0.96-4.02c0.66-0.56,1.41-0.9,2.29-0.64
		c0.92,0.27,1.36,0.96,1.28,1.89c-0.07,0.7-0.04,1.19,0.71,1.56c0.83,0.41,1.15,1.22,0.81,2.11
		C306.8,253.28,305.91,253.71,304.95,253.81z"/>
	<path d="M230.27,224.8c0.65,0.02,1.3-0.04,1.91,0.28c0.73,0.38,1.11,0.98,1.09,1.8c-0.01,0.83-0.43,1.6-1.2,1.69
		c-1.86,0.21-3.53,0.56-5.08,1.81c-1,0.81-2.42-0.34-2.41-1.73c0.01-1.01,0.51-1.77,1.29-2.35
		C227.17,225.3,228.64,224.81,230.27,224.8z"/>
	<path class="st1" d="M218.43,288.72c0,7.33-2.2,10.46-6.82,12C209.04,296.08,213.33,289.16,218.43,288.72z"/>
	<path class="st1" d="M222.57,306.37c-0.6-5.22,2.16-8.72,5.8-11.88C231.18,298.9,227.98,305.37,222.57,306.37z"/>
	<path class="st1" d="M281.84,300.98c-1.85-5.22,1.06-10.51,6.24-11.76c1.07-0.26,1.61-0.01,1.61,1.12c0,3.51-1,6.59-4.04,8.66
		C284.52,299.78,283.39,300.61,281.84,300.98z"/>
	<path class="st1" d="M298.61,295.65c1.04,5.05-0.61,8.38-5.03,10.49C292.98,301.95,295.05,297.5,298.61,295.65z"/>
</g>
</svg>
