<?xml version="1.0" encoding="utf-8"?>
<!-- Generator: Adobe Illustrator 26.2.1, SVG Export Plug-In . SVG Version: 6.00 Build 0)  -->
<svg version="1.1" id="Layer_3" xmlns="http://www.w3.org/2000/svg" xmlns:xlink="http://www.w3.org/1999/xlink" x="0px" y="0px"
	 viewBox="0 0 687 500" style="enable-background:new 0 0 687 500;" xml:space="preserve">
<style type="text/css">
	.st0{fill:none;stroke:url(#SVGID_1_);stroke-width:8.3155;stroke-linecap:round;stroke-linejoin:round;stroke-miterlimit:10;}
</style>
<linearGradient id="SVGID_1_" gradientUnits="userSpaceOnUse" x1="110.8422" y1="264" x2="567.1578" y2="264" gradientTransform="matrix(1 0 0 -1 0 500)">
	<stop  offset="0" style="stop-color:#919CBE"/>
	<stop  offset="1" style="stop-color:#BE6457"/>
</linearGradient>
<path class="st0" d="M458.9,283.7c8.1,10.3,20.8,16.5,33.8,17.9c13,1.4,26.3-1.6,38-7.4c-4.7-0.6-9.2-2.7-12.7-6
	c12.2-1.3,23.9-6.6,32.9-15c-3.2-0.8-6.3-1.7-9.5-2.5c8-7.8,14.9-16.7,20.6-26.3c0.6-1.1,1.3-2.3,1-3.5c-0.2-0.9-0.9-1.7-1.6-2.4
	c-4.1-4-8.2-8.1-11.3-12.6c5.4-3.8,8.9-10.3,9-16.9c-7.4,0.1-14.8-2.2-22.7-8.8c2.2-2.5,4.4-5,6.6-7.6c-13.5-0.6-27.1-0.5-41.3-0.9
	c3.7-5.2,7.4-10.4,11.1-15.6c-10.9-1.6-22.4,2.7-30.9,12.4c-3.1-3.6-4.3-8.8-3-13.4c-6.1,6.8-12.6,13.1-21.8,20c-1.4-3-2.9-6-4.3-9
	c-11.9,15.2-15.6,36.4-9.6,55.8c-5.7,1-11.1,3.7-15.4,7.7c-8.1-6.4-18.2-9.9-28.3-12.4c-43.8-11-91.4-5.9-134.4,12.9
	c-2.4-5.1-6.5-9.4-11.6-11.9c4.5-22.4-2.4-46.7-18.1-63.4c2.2,5,0.9,11.3-3.9,16.4c-2.8-9.3-11-16.3-20.2-19.4
	c-9.2-3.1-19.3-2.6-28.7-0.3c-1.2,0.3-2.7,1.2-2.2,2.3c0.2,0.4,0.5,0.7,0.8,0.9c3.6,2.6,7.1,5.2,9.7,9.8c-8.5-0.6-17.2-0.8-25.6,1
	s-16.5,5.8-21.8,12.5c2.1,0,4.3,0.1,6.2,1.1c1.8,1,3,3.5,2,5.3c-0.4,0.7-1.1,1.2-1.7,1.7c-8.9,6.6-20.3,9.5-31.3,8
	c5.4,8.5,14.4,14.5,24.2,16.4c-10.1-0.7-20.4,3.5-28,11.5c12.5,13.8,27,28.6,45.5,29.7c-5.9,2-12,3.2-18.1,3.8
	c10.8,9.6,26.4,13.5,40.4,10.1c-3.5,2-7,3.9-10.5,5.9c10.5,4.6,22.8,4,33.8,0.5c11-3.5,20.9-9.6,30.5-15.9"/>
</svg>
