<?xml version="1.0" encoding="utf-8"?>
<!-- Generator: Adobe Illustrator 26.2.1, SVG Export Plug-In . SVG Version: 6.00 Build 0)  -->
<svg version="1.1" id="Layer_1" xmlns="http://www.w3.org/2000/svg" xmlns:xlink="http://www.w3.org/1999/xlink" x="0px" y="0px"
	 viewBox="0 0 500 500" style="enable-background:new 0 0 500 500;" xml:space="preserve">
<style type="text/css">
	.st0{fill:#F6B92F;}
	.st1{fill:#F58B4E;}
	.st2{fill:#F0BABA;}
	.st3{fill:#FEFEFE;}
	.st4{fill:#EEBBBB;}
</style>
<g id="Layer_6">
	<g>
		<g>
			<g>
				<path d="M120.15,417.03c-0.29-2.66-0.4-4.99-0.84-7.25c-3.51-17.95-14.43-29.89-30.77-37.15c-10.4-4.63-21.34-6.02-32.64-4.27
					c-1.86,0.29-3.72,0.64-5.6,0.69c-3.75,0.12-6.18-2.79-4.93-6.14c4.08-10.89,3.39-21.9,0.89-32.89
					c-3.19-14.03-9.2-26.78-18.43-37.88c-5.5-6.62-11.69-12.41-20.17-15.18c-3.12-1.02-3.5-3.63-1.16-6.08
					c0.29-0.31,0.66-0.56,1-0.82c14.23-11.93,20.06-27.51,19.78-45.69c-0.2-13.03-4.21-25.01-10.37-36.35
					c-0.55-1.01-1.22-1.98-1.64-3.04c-1.24-3.23,0.01-5.52,3.46-5.82c15.09-1.34,23.63-11.04,29.84-23.48
					c3.07-6.16,4.52-12.76,3.46-19.77c-0.51-3.28,1.29-4.83,4.71-3.96c4.51,1.13,9.01,1.9,13.7,1.7
					c11.28-0.49,19.77-5.81,26.07-14.89c3.76-5.42,6-11.51,7.33-17.96c0.24-1.13,0.47-2.27,0.61-3.42c0.24-1.81,0.8-3.51,2.65-4.16
					c1.89-0.66,3.28,0.45,4.57,1.74c3.18,3.19,6.67,5.98,10.58,8.24c5.6,3.26,11.58,5.16,18.14,5.15c7.9,0,14.64-3.03,20.64-7.91
					c5.94-4.83,10.2-11,13.56-17.82c0.98-1.99,1.38-4.79,4.45-4.59c3.06,0.21,3.11,2.94,3.76,5.12
					c3.75,12.56,10.72,22.67,22.47,29.04c14.69,7.96,33.43,4.69,44.16-7.15c1.33-1.46,2.74-2.14,4.57-1.2
					c1.68,0.85,2.21,2.65,1.42,4.91c-4.2,12.11-1.64,23.31,5.58,33.27c11.14,15.36,26.74,22.42,45.61,22.34
					c3.86-0.01,5.57,2.11,3.72,5.44c-7.55,13.62-3.84,26.01,4.15,37.79c5.05,7.45,11.98,12.87,20.14,16.69
					c0.92,0.43,1.9,0.77,2.73,1.33c1.13,0.77,1.81,1.85,1.49,3.34c-0.31,1.44-1.14,2.39-2.57,2.59c-7.21,1.02-11.58,5.8-14.64,11.71
					c-7.53,14.56-8.19,29.62-2.13,44.86c1.68,4.2,4.27,7.9,8.11,10.5c1.8,1.21,3.06,2.51,2.67,4.96c-0.37,2.41-1.91,3.36-3.98,4.03
					c-21.1,6.9-39.26,31.21-40.57,54.87c-0.33,6.13,0.23,12.14,3.1,17.75c0.39,0.76,0.72,1.62,0.78,2.45
					c0.17,2.22-1.74,3.86-3.9,3.39c-0.69-0.15-1.37-0.48-1.95-0.86c-15.76-10.17-31.62-8.38-47.28-0.05
					c-12.39,6.59-21.22,16.77-27.34,29.34c-0.37,0.78-0.64,1.62-1.06,2.38c-1.48,2.63-4.03,2.91-5.93,0.56
					c-1.18-1.45-2.03-3.18-3.27-4.57c-4.07-4.59-9.33-7.25-15.18-8.75c-11.87-3.06-23.52-1.8-34.96,2.22
					c-8,2.81-15.16,7.05-21.55,12.63C124.16,421.6,121.07,420.51,120.15,417.03z M178.14,90.93c-1.34,1.83-2.29,3.07-3.18,4.35
					c-3.24,4.68-7.11,8.76-11.71,12.1c-5.7,4.14-11.93,6.97-19.09,7.61c-11.26,1.01-21.06-2.59-30.06-9
					c-1.13-0.81-2.01-2.13-3.86-2.21c-2.86,11.47-8,21.66-17.7,28.97c-9.81,7.41-20.92,9.2-32.56,6.98
					c-0.77,0.89-0.74,1.62-0.81,2.34c-0.81,10.12-4.6,19.08-10.76,27.03c-5.69,7.35-12.59,13.14-21.78,15.69
					c-3.14,0.88-3.14,0.93-1.61,4.03c5.25,10.64,8.52,21.81,9.03,33.69c0.77,18.3-4.32,34.56-17.02,48.11
					c-0.55,0.57-1.46,0.98-1.28,2.27c15.21,9,24.86,22.84,31.72,38.83c6.85,15.94,9.75,32.5,5.85,49.97
					c17.14-2.19,32.67,0.48,46.83,9.44c14.37,9.09,23.2,22.12,26.37,38.68c0.61,0.04,0.8,0.11,0.89,0.04
					c0.74-0.43,1.5-0.86,2.21-1.34c10.65-7.15,22.31-11.59,35.14-12.57c14.49-1.1,27.99,1.32,38.94,11.93
					c0.16,0.15,0.52,0.09,0.8,0.15c0.94-0.51,1.28-1.52,1.78-2.37c5.33-9.13,12.3-16.79,21.05-22.75
					c15.56-10.6,32.26-14.55,50.61-8.35c0.53,0.19,1.1,0.32,1.24,0.12c-1.98-33.49,13-56.76,41.35-72.78
					c-9.59-10.74-12.46-23.85-11.49-38.03c0.97-14.17,5.57-26.74,17.14-35.99c-19.53-14.11-30.95-31.43-24.74-56.47
					c-1.78-0.27-3.35-0.49-4.91-0.73c-9.13-1.4-17.7-4.45-25.37-9.61c-14.59-9.84-23.84-22.96-24.45-41.17
					c-0.03-0.94,0.53-2.02-0.72-2.99c-12.5,7.34-25.73,8.78-39.38,3.4C193.06,114.95,184.27,104.72,178.14,90.93z"/>
				<path class="st0" d="M178.14,90.93c6.13,13.77,14.92,24,28.47,29.33c13.66,5.37,26.89,3.94,39.38-3.4
					c1.25,0.97,0.69,2.05,0.72,2.99c0.61,18.2,9.85,31.33,24.45,41.17c7.66,5.17,16.22,8.22,25.37,9.61
					c1.57,0.24,3.12,0.47,4.91,0.73c-6.21,25.04,5.21,42.38,24.74,56.47c-11.57,9.27-16.17,21.83-17.14,35.99
					c-0.97,14.17,1.9,27.3,11.49,38.03c-28.35,16.04-43.33,39.29-41.35,72.78c-0.13,0.2-0.69,0.05-1.24-0.12
					c-18.35-6.2-35.05-2.25-50.61,8.35c-8.74,5.96-15.7,13.6-21.05,22.75c-0.49,0.85-0.82,1.86-1.78,2.37
					c-0.28-0.04-0.64,0-0.8-0.15c-10.96-10.61-24.45-13.02-38.94-11.93c-12.83,0.97-24.49,5.4-35.14,12.57
					c-0.72,0.48-1.46,0.9-2.21,1.34c-0.11,0.07-0.28-0.01-0.89-0.04c-3.16-16.55-11.99-29.6-26.37-38.68
					c-14.16-8.96-29.69-11.63-46.83-9.44c3.9-17.47,0.98-34.03-5.85-49.97c-6.86-15.98-16.51-29.82-31.72-38.83
					c-0.19-1.29,0.74-1.69,1.28-2.27c12.7-13.55,17.79-29.81,17.02-48.11c-0.51-11.89-3.76-23.07-9.03-33.69
					c-1.53-3.1-1.53-3.15,1.61-4.03c9.19-2.57,16.09-8.35,21.78-15.69c6.16-7.95,9.95-16.91,10.76-27.03
					c0.05-0.72,0.04-1.45,0.81-2.34c11.65,2.21,22.75,0.43,32.56-6.98c9.69-7.31,14.84-17.48,17.7-28.97
					c1.85,0.08,2.73,1.4,3.86,2.21c9.01,6.41,18.81,10.01,30.06,9c7.17-0.64,13.39-3.47,19.09-7.61c4.6-3.34,8.47-7.43,11.71-12.1
					C175.85,94.01,176.8,92.77,178.14,90.93z M273.71,229.16c-12.33-54.49-66.88-90.85-124.01-78.06
					c-57.68,12.91-91.09,70.24-78.47,124.49c13.06,56.15,68.85,91.23,124.73,78.22C251.76,340.82,286.65,284.9,273.71,229.16z"/>
				<path d="M273.71,229.16c12.94,55.74-21.95,111.66-77.76,124.64c-55.88,13-111.68-22.07-124.73-78.22
					C58.61,221.33,92.02,164,149.7,151.09C206.83,138.3,261.39,174.67,273.71,229.16z M150.78,157.96
					c-52.44,11.99-84.83,63.89-72.8,116.48c11.5,50.29,61.73,84.79,115.82,72.76c52.73-11.73,85.34-64,73.21-116.64
					C255.01,178.37,203.16,145.99,150.78,157.96z"/>
				<path class="st1" d="M150.78,157.96c52.37-11.98,104.23,20.41,116.25,72.6c12.13,52.64-20.48,104.91-73.21,116.64
					c-54.09,12.03-104.32-22.47-115.82-72.76C65.95,221.85,98.34,169.95,150.78,157.96z M145.91,282.48c0.45-0.9,0.93-1.78,1.34-2.7
					c2.85-6.33,0.8-13.46-4.91-17.15c-5.81-3.76-13.22-2.73-17.63,2.46c-4.64,5.44-4.56,12.82,0.17,18.18
					c0.76,0.85,1.91,1.34,2.25,2.57c-2.58,0.74-4.67,2.27-6.33,4.33c-2.42,3-1.72,6.45,1.62,8.39c1.28,0.74,2.69,1.01,4.15,1.08
					c5.44,0.24,10.53-1.26,15.5-3.26c1.87-0.76,3.6-1.78,5.12-3.18C151.37,289.33,150.92,285.43,145.91,282.48z M229.24,260.62
					c0.25-1.12,0.59-2.23,0.76-3.36c0.82-5.52-1.12-9.99-5.54-13.22c-4.65-3.39-9.73-3.55-14.67-0.7
					c-4.76,2.75-7.09,7.09-6.77,12.64c0.35,6.2,4.04,9.93,9.4,12.37c-0.25,0.68-0.55,1.34-0.73,2.03c-1.01,3.62,0,5.78,3.47,7.17
					c1.05,0.43,2.23,0.73,3.36,0.72c7.54-0.03,14.59-1.69,20.58-6.59c1.91-1.56,3.34-3.43,2.69-5.96c-0.7-2.78-2.87-4.33-5.64-4.73
					C233.88,260.65,231.55,260.73,229.24,260.62z M184.15,295.79c7.23-1.74,12.78-7.92,13.59-15.16c0.15-1.29,0.27-2.59-0.28-3.84
					c-0.64-1.49-1.77-2.29-3.38-2.18c-1.46,0.09-2.37,1.05-2.74,2.39c-0.27,0.96-0.28,1.99-0.43,2.99
					c-0.73,4.85-3.78,7.69-8.26,9.03c-4.21,1.26-8.72-0.47-11.49-4.12c-0.61-0.8-1.1-1.72-1.8-2.42c-1.12-1.14-2.53-1.45-3.95-0.59
					c-1.37,0.84-1.94,2.21-1.52,3.74c0.31,1.09,0.89,2.13,1.53,3.07C169.47,294.57,177.21,297.47,184.15,295.79z"/>
				
					<ellipse transform="matrix(0.9742 -0.2257 0.2257 0.9742 -62.2696 37.7198)" class="st2" cx="133.83" cy="291.2" rx="16.86" ry="8.87"/>
				
					<ellipse transform="matrix(0.9586 -0.2846 0.2846 0.9586 -67.4743 75.4214)" class="st2" cx="225.78" cy="269.88" rx="16.86" ry="8.87"/>
				<circle cx="135.05" cy="274.02" r="14.33"/>
				<circle cx="216.33" cy="255.2" r="14.33"/>
				<path d="M184.15,295.79c-6.94,1.68-14.67-1.24-18.69-7.1c-0.64-0.93-1.24-1.98-1.53-3.07c-0.43-1.53,0.15-2.9,1.52-3.74
					c1.41-0.86,2.82-0.56,3.95,0.59c0.7,0.7,1.2,1.62,1.8,2.42c2.77,3.66,7.27,5.38,11.49,4.12c4.48-1.34,7.53-4.18,8.26-9.03
					c0.15-1,0.16-2.03,0.43-2.99c0.37-1.34,1.28-2.3,2.74-2.39c1.61-0.11,2.74,0.69,3.38,2.18c0.53,1.25,0.41,2.54,0.28,3.84
					C196.93,287.87,191.37,294.05,184.15,295.79z"/>
			</g>
		</g>
	</g>
</g>
<g id="Layer_5">
	<g>
		<g>
			<g>
				<path d="M490.95,260.48c-15.38,56.64-74.55,90.88-132.17,74.84c-56.66-15.77-90.4-74.86-74.55-131.66
					c17.11-61.36,79.79-89.96,132.63-74.83C473.1,144.94,506.56,203.66,490.95,260.48z M360.98,328.98
					c53.61,14.71,108.9-16.67,123.59-70.15c14.73-53.58-16.63-108.87-70.12-123.58c-53.73-14.79-109.04,16.46-123.72,69.86
					C275.92,259.03,307.23,314.23,360.98,328.98z"/>
				<path class="st3" d="M360.98,328.98c-53.74-14.75-85.06-69.95-70.24-123.87c14.67-53.4,69.99-84.64,123.72-69.86
					c53.49,14.72,84.84,69.99,70.12,123.58C469.87,312.32,414.59,343.68,360.98,328.98z M416.48,264.7
					c-0.52,0.66-1.01,1.34-1.54,1.99c-2.45,2.98-2.46,4.88-0.13,7.91c0.72,0.93,1.69,1.48,2.61,2.1c5.62,3.8,11.99,4.49,18.55,4.32
					c1.87-0.05,3.56-0.81,5.09-1.87c2.3-1.6,2.91-4.2,1.61-6.66c-0.81-1.54-2.15-2.54-3.5-3.58c-1.33-1.02-3.2-1.21-4.12-2.81
					c0.64-0.74,1.32-1.46,1.91-2.25c4.72-6.24,3.28-14.92-3.19-19.32c-6.14-4.18-14.81-2.15-18.72,4.44
					C411.74,254.55,412.74,259.77,416.48,264.7z M352.16,246.95c1.04-0.72,2.1-1.4,3.11-2.15c4.76-3.54,6.59-9.52,4.63-15.08
					c-1.99-5.65-7.02-9.08-13.02-8.87c-5.85,0.2-10.73,4.15-12.37,9.83c-0.9,3.14-0.37,6.13,0.6,9.12c-1.8,1.06-3.91,0.47-5.78,1.06
					c-2.21,0.7-4.45,1.65-5.03,4.08c-0.6,2.51,0.4,4.72,2.55,6.3c0.57,0.43,1.06,0.96,1.66,1.32c6.2,3.62,12.86,4.91,19.94,3.82
					c1.54-0.24,3.03-0.66,4.25-1.76C355.41,252.2,355.22,249.47,352.16,246.95z M379.49,275.62c7.39,2.06,15.24-0.88,19.23-7.23
					c0.45-0.7,0.96-1.45,1.14-2.23c0.41-1.65-0.01-3.12-1.66-3.92c-1.45-0.7-2.78-0.36-3.82,0.84c-0.64,0.74-1.09,1.65-1.72,2.41
					c-2.86,3.51-6.54,4.8-10.94,3.75c-4.57-1.09-7.34-4-8.23-8.63c-0.19-0.97-0.09-1.99-0.32-2.94c-0.35-1.53-1.37-2.47-2.97-2.54
					c-1.83-0.07-2.93,0.97-3.26,2.69c-0.19,0.94-0.19,1.97-0.09,2.94C367.48,267.71,372.57,273.69,379.49,275.62z"/>
				<path d="M335.12,239.81c-0.97-2.99-1.49-5.98-0.6-9.12c1.64-5.69,6.52-9.63,12.37-9.83c6-0.21,11.02,3.22,13.02,8.87
					c1.95,5.56,0.13,11.54-4.63,15.08c-1.01,0.76-2.07,1.44-3.11,2.15C344.84,248.51,338.96,246.58,335.12,239.81z"/>
				<path d="M416.48,264.7c-3.72-4.95-4.72-10.17-1.44-15.72c3.92-6.61,12.58-8.62,18.72-4.44c6.48,4.4,7.91,13.08,3.19,19.32
					c-0.6,0.78-1.28,1.5-1.9,2.25C427.55,270.55,422.63,270.18,416.48,264.7z"/>
				<path class="st4" d="M416.48,264.7c6.16,5.48,11.08,5.85,18.57,1.41c0.92,1.6,2.79,1.78,4.11,2.81c1.36,1.05,2.69,2.03,3.5,3.58
					c1.3,2.46,0.69,5.05-1.61,6.66c-1.53,1.06-3.22,1.82-5.09,1.87c-6.56,0.17-12.92-0.52-18.55-4.32c-0.92-0.62-1.9-1.17-2.61-2.1
					c-2.33-3.04-2.33-4.95,0.13-7.91C415.47,266.05,415.96,265.37,416.48,264.7z"/>
				<path class="st4" d="M335.12,239.81c3.84,6.77,9.71,8.71,17.05,7.14c3.06,2.51,3.24,5.27,0.55,7.69
					c-1.22,1.09-2.7,1.52-4.25,1.76c-7.1,1.09-13.75-0.2-19.94-3.82c-0.6-0.35-1.09-0.89-1.66-1.32c-2.15-1.58-3.14-3.79-2.55-6.3
					c0.59-2.43,2.82-3.38,5.03-4.08C331.22,240.26,333.32,240.88,335.12,239.81z"/>
				
					<ellipse transform="matrix(0.2635 -0.9647 0.9647 0.2635 10.0788 510.6554)" class="st4" cx="339.46" cy="248.73" rx="8.76" ry="17.54"/>
				
					<ellipse transform="matrix(0.2635 -0.9647 0.9647 0.2635 52.2512 614.6116)" class="st4" cx="428.63" cy="273.09" rx="8.76" ry="17.54"/>
				<circle cx="426.89" cy="255.3" r="14.35"/>
				<circle cx="346.95" cy="233.46" r="14.35"/>
				<path d="M379.49,275.62c-6.91-1.93-12.01-7.91-12.62-14.88c-0.08-0.97-0.09-1.98,0.09-2.94c0.35-1.72,1.44-2.77,3.26-2.69
					c1.61,0.07,2.62,1.01,2.97,2.54c0.21,0.96,0.13,1.98,0.32,2.94c0.88,4.64,3.66,7.55,8.23,8.63c4.4,1.04,8.08-0.24,10.94-3.75
					c0.62-0.76,1.08-1.66,1.72-2.41c1.04-1.2,2.37-1.56,3.82-0.84c1.65,0.8,2.07,2.27,1.66,3.92c-0.2,0.8-0.7,1.53-1.14,2.23
					C394.71,274.74,386.88,277.68,379.49,275.62z"/>
			</g>
		</g>
	</g>
</g>
</svg>
