<?xml version="1.0" encoding="utf-8"?>
<!-- Generator: Adobe Illustrator 26.2.1, SVG Export Plug-In . SVG Version: 6.00 Build 0)  -->
<svg version="1.1" id="Layer_3" xmlns="http://www.w3.org/2000/svg" xmlns:xlink="http://www.w3.org/1999/xlink" x="0px" y="0px"
	 viewBox="0 0 500 500" style="enable-background:new 0 0 500 500;" xml:space="preserve">
<style type="text/css">
	.st0{fill:#F6F556;}
</style>
<g id="Layer_3_00000018926839374873518380000012279180127009483183_">
	<g>
		<g>
			<g>
				<path d="M148.1,75.15c6.81,1.18,10.24,5.63,11.65,11.93c3.38,14.91,6.25,29.88,10.07,44.67c5.06,19.81,11.98,38.82,23.74,55.93
					c9.79,14.29,22.51,22.73,40,23.57c15.25,0.73,30.55,1.52,45.8,2.42c7.88,0.45,15.53,2.14,18.74,10.58
					c3.71,9.73-1.69,16.37-8.95,21.61c-20.71,15.02-39.1,32.35-56.6,51.09c-30.83,33.08-47.6,71.74-52.49,116.24
					c-1.29,11.82-2.87,23.63-4.5,35.39c-1.24,9.11-5.23,16.32-15.02,18.23c-11.53,2.19-20.09-2.98-25.43-12.72
					c-4.56-8.27-5.23-17.84-5.85-27.23c-1.52-22.06-4.16-44-9.45-65.49c-10.86-44.17-38.37-70.67-83.61-78.04
					c-3.32-0.56-6.92-0.11-10.13-1.01c-15.98-4.39-19.92-19.13-7.99-31.06c4.11-4.11,9.68-6.75,14.63-10.02
					c11.42-7.37,23.07-14.35,34.21-22.06c35.22-24.31,54.24-57.61,55.2-100.83c0.28-11.87,0.34-23.86,8.89-33.76
					C135.72,79.43,140.84,75.49,148.1,75.15z M81.42,258.18c37.64,17.89,58.74,47.54,75.34,85.24
					c14.97-38.26,43.27-62.12,66.39-93.79c-41.02-6.13-59.02-34.88-76.63-66.67C131.95,214.91,108.48,236.8,81.42,258.18z"/>
				<path d="M395.32,254.8c-9.34-0.73-15.81-4.95-19.86-11.7c-5.23-8.72-10.52-17.67-13.84-27.18
					c-7.43-21.21-19.58-37.47-41.19-45.52c-2.36-0.9-4.73-2.03-6.75-3.54c-11.59-8.78-11.93-22.06,1.18-28.47
					c31.11-15.14,39.72-42.09,41.92-73.2c0.68-9.34,0.51-18.79,2.31-27.91c1.74-8.89,7.71-15.19,17.5-15.87
					c10.35-0.73,15.87,5.63,17.72,14.74c7.82,37.98,33.08,59.87,67.24,73.82c2.36,0.96,4.61,2.14,6.81,3.43
					c21.72,12.72,23.35,25.09,1.91,37.08c-30.78,17.16-46.64,43.32-54.86,75.96c-1.63,6.53-4.11,12.94-6.86,19.13
					C406.01,251.6,400.27,253.62,395.32,254.8z M388.51,107.28c-6.81,14.69-12.83,27.63-22.06,38.54
					c-3.26,3.88-2.87,7.37,0.51,11.03c7.6,8.27,15.02,16.71,23.52,26.22c9.96-18.62,21.72-32.91,35.5-46.76
					C414.06,127.14,402.75,118.36,388.51,107.28z"/>
				<path d="M314.86,299.76c6.08,1.41,11.53,3.21,13.62,10.02c2.19,7.31,4.61,14.57,7.31,21.66c5.18,13.39,12.43,23.86,29.31,23.46
					c9.68-0.23,18.85,2.76,21.21,14.29c2.19,10.63-3.54,17.5-11.48,23.57c-17.16,13.17-32.24,27.68-32.69,51.71
					c-0.17,8.55-5.96,14.18-14.29,15.64c-9.51,1.63-16.65-3.21-20.71-11.42c-2.59-5.23-3.66-11.31-4.73-17.1
					c-2.53-13.05-8.55-21.83-23.29-22.22c-6.86-0.17-13.33-2.59-18.29-7.82c-7.76-8.16-8.27-21.61,1.46-26.39
					c24.59-12.15,33.14-32.18,34.32-57.73C297.08,306.73,304.29,300.94,314.86,299.76z M319.98,376.39
					c-2.87,0.56-5.46,2.36-4.67,4.89c1.29,4.16,5.01,6.81,9.06,8.21c0.96,0.34,3.66-1.24,3.83-2.31
					C329.6,380.55,324.03,378.92,319.98,376.39z"/>
				<path class="st0" d="M81.42,258.18c27.06-21.38,50.47-43.27,65.1-75.23c17.61,31.73,35.62,60.54,76.63,66.67
					c-23.12,31.73-51.43,55.53-66.39,93.79C140.16,305.72,119.06,276.07,81.42,258.18z"/>
				<path class="st0" d="M388.51,107.28c14.23,11.08,25.54,19.81,37.47,29.09c-13.78,13.84-25.54,28.13-35.5,46.76
					c-8.44-9.45-15.87-17.95-23.52-26.22c-3.38-3.71-3.77-7.15-0.51-11.03C375.68,134.9,381.71,121.96,388.51,107.28z"/>
				<path class="st0" d="M319.98,376.39c4.05,2.53,9.62,4.16,8.27,10.8c-0.23,1.07-2.87,2.64-3.83,2.31
					c-4.05-1.46-7.82-4.05-9.06-8.21C314.53,378.75,317.11,376.95,319.98,376.39z"/>
			</g>
		</g>
	</g>
</g>
</svg>
