<?xml version="1.0" encoding="utf-8"?>
<!-- Generator: Adobe Illustrator 26.2.1, SVG Export Plug-In . SVG Version: 6.00 Build 0)  -->
<svg version="1.1" id="Layer_5" xmlns="http://www.w3.org/2000/svg" xmlns:xlink="http://www.w3.org/1999/xlink" x="0px" y="0px"
	 viewBox="0 0 589 500" style="enable-background:new 0 0 589 500;" xml:space="preserve">
<style type="text/css">
	.st0{fill:none;stroke:url(#SVGID_1_);stroke-width:8;stroke-linecap:round;stroke-linejoin:round;stroke-miterlimit:10;}
	
		.st1{fill:none;stroke:url(#SVGID_00000183935459273138382040000013272546688132808330_);stroke-width:8;stroke-linecap:round;stroke-linejoin:round;stroke-miterlimit:10;}
</style>
<linearGradient id="SVGID_1_" gradientUnits="userSpaceOnUse" x1="387.8479" y1="265.0711" x2="474.1303" y2="265.0711" gradientTransform="matrix(1 0 0 -1 0 500)">
	<stop  offset="0" style="stop-color:#919CBE"/>
	<stop  offset="1" style="stop-color:#BE6457"/>
</linearGradient>
<path class="st0" d="M401.9,220c-6.4,15.1-9.8,31.4-10,47.8c-0.1,5.9,0.5,12.4,4.9,16.3c2.8,2.6,6.7,3.6,10.4,4.3
	c6.6,1.4,13.3,2.3,20,2.9c6.5,0.5,13.1,0.7,19.3-1.3c10.1-3.1,18-11.7,21.4-21.7c3.4-10,2.6-21.1-1-31c-3.7-10-10.2-18.7-14.3-28.5
	c-4.1-9.7-5.8-20.3-4.9-30.7c-8.6,9.8-17.7,21-17.1,34c-4-1-8.3-0.5-12,1.4c-1.6-11.4-12.5-20.7-24-20.6
	C393.9,202.2,396.6,211.7,401.9,220z"/>
<linearGradient id="SVGID_00000065032493283600528940000004622578067308507562_" gradientUnits="userSpaceOnUse" x1="340.9487" y1="296.2746" x2="533.6666" y2="296.2746" gradientTransform="matrix(1 0 0 -1 0 500)">
	<stop  offset="0" style="stop-color:#919CBE"/>
	<stop  offset="1" style="stop-color:#BE6457"/>
</linearGradient>
<path style="fill:none;stroke:url(#SVGID_00000065032493283600528940000004622578067308507562_);stroke-width:8;stroke-linecap:round;stroke-linejoin:round;stroke-miterlimit:10;" d="
	M481.2,132.4c4.1,4.5,2.7,12.2-1.9,16.2c-4.6,4-11.2,4.8-17.2,3.8c-6-1-11.6-3.6-17.2-5.7c-18.6-7-39.6-8.9-58.5-2.7
	c-18.9,6.3-35.2,21.6-40,40.9c-4.9-24.2,2.3-50.2,17.4-69.7s37.5-32.9,61.4-39c15.6-4,33-4.8,46.8,3.3s21.8,27.5,13.3,41.1
	c14,4.8,25,16.4,31.7,29.6c6.7,13.2,9.5,28.1,11,42.8c5,47.5-2.1,96.2-19.4,141.3c12-45.2,14-92.9,6-138.9
	C510.7,172.5,502.5,147.7,481.2,132.4z"/>
</svg>
