<?xml version="1.0" encoding="utf-8"?>
<!-- Generator: Adobe Illustrator 26.5.0, SVG Export Plug-In . SVG Version: 6.00 Build 0)  -->
<svg version="1.1" id="logo" xmlns="http://www.w3.org/2000/svg" xmlns:xlink="http://www.w3.org/1999/xlink" x="0px" y="0px"
	 viewBox="0 0 500 500" style="enable-background:new 0 0 500 500;" xml:space="preserve">
<style type="text/css">
	.st0{fill:#EF86CE;}
	.st1{fill:#65B2E8;}
</style>
<g>
	<g>
		<g>
			<path class="st0" d="M128.01,92.34C54,111.81,45.73,210.91,89.29,268.99C125.93,317.85,236.9,385.19,245.37,413V150.6
				C245.37,150.6,219.96,68.14,128.01,92.34z M106.41,196.58v-36.67h33.69v-31.27h36.67v31.27h33.69v36.67h-33.69v36.11h-36.67
				v-36.11H106.41z M196.97,317.39c-14.03,0-25.41-11.38-25.41-25.41c0-14.03,11.38-25.41,25.41-25.41
				c14.03,0,25.41,11.38,25.41,25.41C222.38,306.01,211.01,317.39,196.97,317.39z"/>
		</g>
	</g>
	<g>
		<g>
			<path class="st1" d="M379.78,92.34c-91.96-24.2-117.37,58.27-117.37,58.27V413c8.47-27.81,119.44-95.15,156.09-144.01
				C462.06,210.91,453.78,111.81,379.78,92.34z M313.9,161.93c10.7,0,19.38,8.68,19.38,19.38c0,10.7-8.68,19.38-19.38,19.38
				s-19.38-8.68-19.38-19.38C294.53,170.61,303.2,161.93,313.9,161.93z M309.6,317.39c-14.03,0-25.41-11.38-25.41-25.41
				c0-14.03,11.38-25.41,25.41-25.41c14.03,0,25.41,11.38,25.41,25.41C335.01,306.01,323.63,317.39,309.6,317.39z M353.76,233.9
				c-10.7,0-19.38-8.68-19.38-19.38c0-10.7,8.68-19.38,19.38-19.38c10.7,0,19.38,8.68,19.38,19.38
				C373.14,225.23,364.47,233.9,353.76,233.9z M353.76,167.47c-10.7,0-19.38-8.68-19.38-19.38c0-10.7,8.68-19.38,19.38-19.38
				c10.7,0,19.38,8.68,19.38,19.38C373.14,158.79,364.47,167.47,353.76,167.47z M393.38,200.69c-10.7,0-19.38-8.68-19.38-19.38
				c0-10.7,8.68-19.38,19.38-19.38c10.7,0,19.38,8.68,19.38,19.38C412.75,192.01,404.08,200.69,393.38,200.69z"/>
		</g>
	</g>
</g>
</svg>
